<svg xmlns="http://www.w3.org/2000/svg" width="9.364" height="21.767" viewBox="0 0 9.364 21.767">
  <g id="adult-icon" transform="translate(-1519.404 -441.916)">
    <path id="Path_84" data-name="Path 84" d="M1520.946,459.521c0-.844,0-1.688,0-2.532a.3.3,0,0,0-.2-.323,2.124,2.124,0,0,1-1.335-2.032c-.017-1.287-.006-2.575,0-3.862a3.007,3.007,0,0,1,3.034-3.009q1.648.009,3.3,0a3,3,0,0,1,3.025,2.989q0,1.918,0,3.837a2.159,2.159,0,0,1-1.376,2.054.281.281,0,0,0-.2.321c.005,1.654,0,3.308,0,4.962a1.627,1.627,0,0,1-1.75,1.758q-1.368,0-2.736,0a1.644,1.644,0,0,1-1.759-1.756Z"/>
    <path id="Path_85" data-name="Path 85" d="M1526.526,444.381a2.454,2.454,0,1,1-2.44-2.465A2.444,2.444,0,0,1,1526.526,444.381Z"/>
  </g>
</svg>
