<?xml version="1.0" encoding="utf-8"?>
<!-- Generator: Adobe Illustrator 16.0.0, SVG Export Plug-In . SVG Version: 6.00 Build 0)  -->
<!DOCTYPE svg PUBLIC "-//W3C//DTD SVG 1.1//EN" "http://www.w3.org/Graphics/SVG/1.1/DTD/svg11.dtd">
<svg version="1.1" id="Layer_1" xmlns="http://www.w3.org/2000/svg" xmlns:xlink="http://www.w3.org/1999/xlink" x="0px" y="0px"
	 width="19.494px" height="19.153px" viewBox="0 0 19.494 19.153" enable-background="new 0 0 19.494 19.153" xml:space="preserve">
<path id="Path_49" fill="none" stroke="#010101" stroke-width="0.75" d="M16.768,10.171c0.001,4.323-3.503,7.828-7.826,7.828
	C4.619,18,1.114,14.496,1.114,10.173c0-4.322,3.503-7.826,7.826-7.828c0,0,0.001,0,0.002,0"/>
<path id="Path_50" fill="none" stroke="#010101" stroke-width="0.75" d="M8.942,5.657v4.514l3.125,3.125"/>
<g id="Group_62">
	<path id="Path_63" fill="none" stroke="#010101" stroke-width="0.75" d="M12.541,7.55l-1.654-1.352l0.531-0.482l1.533,0.742
		l2.364-2.6l-2.8-2.014l0.681-0.57l3.476,1.412L18.63,1.37c0.24-0.162,0.564-0.111,0.744,0.115l0,0
		c0.168,0.213,0.157,0.518-0.025,0.719l-1.525,1.664l1.282,3.727l-0.671,0.592l-1.733-3.006l-2.935,2.214l0.75,1.554l-0.561,0.561
		L12.541,7.55z"/>
</g>
</svg>
