<svg xmlns="http://www.w3.org/2000/svg" width="21.394" height="18.642" viewBox="0 0 21.394 18.642">
  <g id="airport-city-ride-icon" transform="translate(-737.815 -801.128)">
    <g id="Group_63" data-name="Group 63">
      <g id="Group_62" data-name="Group 62">
        <path id="Path_52" data-name="Path 52" d="M737.815,810.96H740.7l.7-5.865h4.242l.2-3.946" fill="none" stroke="#000" stroke-width="0.75"/>
        <path id="Path_53" data-name="Path 53" d="M740.7,810.96h5.288l-.332,8.314" fill="none" stroke="#000" stroke-width="0.75"/>
        <path id="Path_54" data-name="Path 54" d="M759.209,808.976h-6.921l-.434-7.827" fill="none" stroke="#000" stroke-width="0.75"/>
        <line id="Line_46" data-name="Line 46" x1="0.465" y1="10.347" transform="translate(750.144 801.149)" fill="none" stroke="#000" stroke-width="0.75"/>
        <line id="Line_47" data-name="Line 47" x2="4.608" transform="translate(745.637 805.095)" fill="none" stroke="#000" stroke-width="0.75"/>
        <line id="Line_48" data-name="Line 48" x1="1.944" transform="translate(750.344 808.976)" fill="none" stroke="#000" stroke-width="0.75"/>
      </g>
    </g>
    <g id="Group_64" data-name="Group 64">
      <path id="Path_55" data-name="Path 55" d="M751.608,817.231l-1.652-1.352.531-.481,1.532.741,2.364-2.594-2.795-2.014.682-.571,3.476,1.413,1.959-1.317a.553.553,0,0,1,.743.115h0a.553.553,0,0,1-.026.718l-1.524,1.666,1.282,3.726-.671.591-1.733-3.005-2.935,2.214.751,1.552-.561.561Z" fill="none" stroke="#000" stroke-width="0.75"/>
    </g>
  </g>
</svg>
