<svg xmlns="http://www.w3.org/2000/svg" width="48.993" height="33.837" viewBox="0 0 48.993 33.837">
  <g id="amazon-expresss-icon" transform="translate(-1626.791 -1181.818)">
    <rect id="Rectangle_11" data-name="Rectangle 11" width="47.993" height="32.837" rx="2.947" transform="translate(1627.291 1182.318)" fill="#fff" stroke="#d9d9d9" stroke-width="1"/>
    <path id="Path_29" data-name="Path 29" d="M1636.859,1206.225v-6.933h7.85l.843,1.026.87-1.026h28.495v6.455a3.445,3.445,0,0,1-1.607.478h-15.779l-.949-1.093v1.093h-3.112v-1.866a2.749,2.749,0,0,1-1.344.261h-1.059v1.6h-4.712l-.841-1.049-.854,1.049Zm-9.147-12.159,1.767-3.859h3.054l1,2.161v-2.161h3.8l.6,1.562.579-1.562h17.045v.785a3.813,3.813,0,0,1,2.369-.785l5.53.018.985,2.133v-2.151h3.178l.875,1.225v-1.225h3.206v6.933h-3.206l-.839-1.23v1.23h-4.668l-.47-1.093h-1.255l-.462,1.093h-3.166a3.227,3.227,0,0,1-2.077-.77v.77h-4.774l-.947-1.093v1.093h-17.751l-.47-1.093h-1.251l-.466,1.093h-2.182Zm.009,2.187,2.383-5.192h1.806l2.38,5.192H1632.7l-.438-1.04h-2.555l-.44,1.04Zm4.043-2.167-.779-1.817-.781,1.817Zm2.69,2.166v-5.192l2.2.008,1.282,3.347,1.251-3.355h2.187v5.192h-1.385v-3.825l-1.468,3.825h-1.214l-1.472-3.825v3.825Zm7.871,0v-5.192h4.519v1.162h-3.12v.888h3.047v1.093h-3.047v.922h3.12v1.127Zm5.32,0v-5.192h3.082a1.749,1.749,0,0,1,1.936,1.685,1.626,1.626,0,0,1-1.519,1.594l1.822,1.913h-1.692l-1.661-1.845h-.583v1.845Zm2.968-4.03h-1.583v1.092h1.6a.611.611,0,0,0,.635-.546A.62.62,0,0,0,1650.613,1192.223Zm4.029,4.029h-1.414v-5.192h1.414Zm3.353,0h-.306a2.345,2.345,0,0,1-2.373-2.574,2.457,2.457,0,0,1,2.751-2.618h1.531v1.23h-1.586a1.282,1.282,0,0,0-1.293,1.4,1.316,1.316,0,0,0,1.494,1.428h.365Zm.63,0,2.383-5.192h1.806l2.38,5.192h-1.585l-.438-1.04h-2.555l-.44,1.04Zm4.043-2.167-.779-1.817-.781,1.817Zm2.688,2.166v-5.192h1.76l2.248,3.262v-3.262h1.385v5.192h-1.7l-2.305-3.347v3.347Zm-27.55,9.085v-5.192h4.519v1.162h-3.119v.888h3.046v1.093h-3.046v.922h3.119v1.127Zm22.142,0v-5.192h4.518v1.162h-3.119v.888h3.032v1.093h-3.032v.922h3.119v1.127Zm-17.448,0,2.2-2.564-2.253-2.628h1.745l1.341,1.625,1.346-1.625h1.676l-2.223,2.6,2.2,2.6h-1.745l-1.3-1.6-1.271,1.6Zm6.2,0v-5.192h3.059a1.774,1.774,0,0,1,1.988,1.747c0,1.192-.935,1.805-2.168,1.805h-1.458v1.64Zm2.956-4.018h-1.535v1.2h1.531a.623.623,0,0,0,.688-.6A.61.61,0,0,0,1651.658,1201.32Zm2.693,4.017v-5.192h3.081a1.749,1.749,0,0,1,1.936,1.685,1.624,1.624,0,0,1-1.519,1.594l1.822,1.913h-1.692l-1.661-1.844h-.583v1.844Zm2.967-4.03h-1.583v1.093h1.6a.612.612,0,0,0,.635-.547A.62.62,0,0,0,1657.318,1201.307Zm7.79,4.03v-1.127h2.771c.41,0,.588-.208.588-.436s-.177-.438-.588-.438h-1.252a1.5,1.5,0,0,1-1.695-1.555c0-.833.555-1.636,2.173-1.636h2.7l-.583,1.169h-2.332c-.446,0-.583.219-.583.428a.47.47,0,0,0,.51.453h1.312c1.214,0,1.74.645,1.74,1.49a1.611,1.611,0,0,1-1.806,1.652Zm4.879,0v-1.127h2.772c.41,0,.587-.208.587-.436s-.177-.438-.587-.438h-1.253a1.5,1.5,0,0,1-1.695-1.555c0-.833.556-1.636,2.173-1.636h2.7l-.583,1.169h-2.332c-.446,0-.583.219-.583.428a.469.469,0,0,0,.51.453h1.312c1.213,0,1.74.645,1.74,1.49a1.611,1.611,0,0,1-1.807,1.652Z" fill="#006fcf" fill-rule="evenodd"/>
  </g>
</svg>
