<svg xmlns="http://www.w3.org/2000/svg" width="20.918" height="24.387" viewBox="0 0 20.918 24.387">
  <g id="apple-icon" transform="translate(-1517.744 -830.035)">
    <path id="Path_26" data-name="Path 26" d="M1527.852,835.9a4.965,4.965,0,0,1,1.218-3.86,5.763,5.763,0,0,1,3.721-2.009,5.341,5.341,0,0,1-1.184,3.96A4.868,4.868,0,0,1,1527.852,835.9Zm7.654,5.138a5.2,5.2,0,0,1,2.445-2.824,6.208,6.208,0,0,0-4.676-2.474c-2.2,0-3.128,1.048-4.655,1.048-1.573,0-2.767-1.048-4.671-1.048a6.363,6.363,0,0,0-5.116,3.082,7.009,7.009,0,0,0-.948,2.605,13.981,13.981,0,0,0,2.351,9.648c1.03,1.565,2.4,3.328,4.2,3.343,1.6.016,2.049-1.021,4.211-1.031s2.575,1.042,4.17,1.027c1.793-.015,3.241-1.966,4.27-3.531a17.7,17.7,0,0,0,1.58-2.96A5.421,5.421,0,0,1,1535.506,841.042Z"/>
  </g>
</svg>
