<svg xmlns="http://www.w3.org/2000/svg" width="49.368" height="34.094" viewBox="0 0 49.368 34.094">
  <g id="apple-pay-icon" transform="translate(-1682.841 -1181.818)">
    <rect id="Rectangle_12" data-name="Rectangle 12" width="48.368" height="33.094" rx="2.97" transform="translate(1683.341 1182.318)" fill="#fff" stroke="#d9d9d9" stroke-width="1"/>
    <path id="Path_30" data-name="Path 30" d="M1697.832,1194.56a1.867,1.867,0,0,1-1.5.717,2.168,2.168,0,0,1,.537-1.574,2.236,2.236,0,0,1,1.492-.778A2.308,2.308,0,0,1,1697.832,1194.56Zm.519.832a3.147,3.147,0,0,0-1.337.3,1.129,1.129,0,0,1-1.217,0,2.7,2.7,0,0,0-1.038-.261,2.447,2.447,0,0,0-2.082,1.279c-.9,1.557-.233,3.861.632,5.128.424.627.931,1.315,1.6,1.291a1.918,1.918,0,0,0,.725-.2,2.12,2.12,0,0,1,.922-.221,2,2,0,0,1,.885.215,1.708,1.708,0,0,0,.774.19c.692-.013,1.127-.628,1.551-1.255a5.541,5.541,0,0,0,.688-1.43l0-.012-.016-.008a2.26,2.26,0,0,1-1.332-2.061,2.311,2.311,0,0,1,1.074-1.931l.017-.011A2.354,2.354,0,0,0,1698.351,1195.392Zm4.791,7.655v-9.4h3.49a2.933,2.933,0,0,1,3.061,3.088,2.969,2.969,0,0,1-3.108,3.1h-2v3.215Zm1.444-8.174h1.664a1.87,1.87,0,1,1-.006,3.734h-1.658Zm9.874,7.046a2.384,2.384,0,0,1-2.13,1.2,2.056,2.056,0,0,1-2.279-2.027c0-1.207.907-1.9,2.583-2l1.8-.109v-.518c0-.767-.495-1.183-1.378-1.183a1.268,1.268,0,0,0-1.366.959h-1.3c.042-1.218,1.175-2.1,2.709-2.1,1.652,0,2.726.875,2.726,2.232v4.681h-1.336v-1.128Zm-1.742.085c-.77,0-1.259-.374-1.259-.948,0-.591.471-.935,1.372-.989l1.6-.1v.53A1.576,1.576,0,0,1,1712.718,1202Zm7.541,1.411c-.578,1.647-1.241,2.19-2.649,2.19a3.958,3.958,0,0,1-.549-.036v-1.128c.09.012.311.024.424.024a1.15,1.15,0,0,0,1.217-.977l.131-.417-2.446-6.846h1.51l1.7,5.555h.03l1.7-5.555h1.468Z" fill-rule="evenodd"/>
  </g>
</svg>
