<svg xmlns="http://www.w3.org/2000/svg" width="28.294" height="19.783" viewBox="0 0 28.294 19.783">
  <g id="car_sedan_automobile_vehicle" data-name="car, sedan, automobile, vehicle" transform="translate(-1139.149 -157.363)">
    <g id="Group_573" data-name="Group 573">
      <line id="Line_274" data-name="Line 274" x1="17.02" transform="translate(1149.987 176.71)" fill="none" stroke="#000" stroke-width="0.872"/>
      <line id="Line_275" data-name="Line 275" x1="18.439" transform="translate(1141.477 174.819)" fill="none" stroke="#000" stroke-width="0.872"/>
      <line id="Line_276" data-name="Line 276" x1="0.095" transform="translate(1139.585 174.819)" fill="none" stroke="#000" stroke-width="0.872"/>
      <line id="Line_277" data-name="Line 277" x2="8.037" transform="translate(1148.095 171.983)" fill="none" stroke="#000" stroke-width="0.872"/>
      <path id="Path_688" data-name="Path 688" d="M1163.225,171.983h1.891a1.9,1.9,0,0,0,1.891-1.825,6.609,6.609,0,0,0-4.076-6.014l-.312-.133a5.8,5.8,0,0,1-2.175-1.607l-.435-.52a11.337,11.337,0,0,0-8.717-4.085h-2.487a6.627,6.627,0,0,0-5.513,2.95l-.35.52a4.5,4.5,0,0,1-1.305,1.305l-1.21.813a1.873,1.873,0,0,0-.842,1.57v5.134a1.9,1.9,0,0,0,1.375,1.82" fill="none" stroke="#000" stroke-width="0.872"/>
      <path id="Path_689" data-name="Path 689" d="M1151.878,163.473h9.767a5.668,5.668,0,0,1-1.2-1.069l-.435-.52a11.337,11.337,0,0,0-8.717-4.085h-2.487a6.647,6.647,0,0,0-3.8,1.2" fill="none" stroke="#000" stroke-width="0.872"/>
      <path id="Path_690" data-name="Path 690" d="M1145.618,160.636l.142.378a3.758,3.758,0,0,0,3.535,2.459h.691" fill="none" stroke="#000" stroke-width="0.872"/>
      <path id="Path_691" data-name="Path 691" d="M1148.095,171.983a2.836,2.836,0,1,1-2.836-2.837A2.832,2.832,0,0,1,1148.095,171.983Z" fill="none" stroke="#000" stroke-width="0.872"/>
      <circle id="Ellipse_207" data-name="Ellipse 207" cx="0.946" cy="0.946" r="0.946" transform="translate(1144.313 171.037)" fill="none" stroke="#000" stroke-width="0.872"/>
      <path id="Path_692" data-name="Path 692" d="M1163.225,171.983a2.837,2.837,0,1,1-2.837-2.837A2.833,2.833,0,0,1,1163.225,171.983Z" fill="none" stroke="#000" stroke-width="0.872"/>
      <circle id="Ellipse_208" data-name="Ellipse 208" cx="0.946" cy="0.946" r="0.946" transform="translate(1159.442 171.037)" fill="none" stroke="#000" stroke-width="0.872"/>
      <path id="Path_693" data-name="Path 693" d="M1160.388,163.473h-8.51l-.473-4.255" fill="none" stroke="#000" stroke-width="0.872"/>
      <path id="Path_694" data-name="Path 694" d="M1165.683,166.309h-2.931l.113.464a1.883,1.883,0,0,0,1.834,1.427h.559" fill="none" stroke="#000" stroke-width="0.872"/>
      <line id="Line_278" data-name="Line 278" x1="1.813" transform="translate(1139.585 166.309)" fill="none" stroke="#000" stroke-width="0.872"/>
      <line id="Line_279" data-name="Line 279" x1="1.813" transform="translate(1165.116 170.091)" fill="none" stroke="#000" stroke-width="0.872"/>
    </g>
  </g>
</svg>
