<svg xmlns="http://www.w3.org/2000/svg" width="31.179" height="35.48" viewBox="1639.341 60.808 31.179 35.48"><g data-name="Group 118"><path d="M1655.3 60.817a9.266 9.266 0 0 1 1.531.204c.233.053.467.108.696.171.096.026.19.054.285.084 4.07 1.306 6.789 5.318 6.457 9.48-.353 4.43-3.536 7.936-7.841 8.635-5.315.864-10.253-2.927-10.801-8.291a9.423 9.423 0 0 1 .121-2.713 9.337 9.337 0 0 1 1.54-3.61 9.52 9.52 0 0 1 1.781-1.904 9.31 9.31 0 0 1 3.538-1.774 9.481 9.481 0 0 1 1.828-.28c.288-.014.577-.015.865-.002Z" fill="#6bc489" fill-rule="evenodd" data-name="Path 82"/><path d="M1654.931 96.288h-14.339c-.875 0-1.263-.396-1.251-1.273.087-6.576 4.944-12.203 11.458-13.258.59-.095 1.193-.141 1.791-.15 1.5-.021 3.002-.021 4.503-.007 6.034.059 11.349 4.171 12.934 9.996.308 1.13.474 2.28.492 3.451.013.83-.389 1.241-1.214 1.241h-14.374Z" fill="#6bc489" fill-rule="evenodd" data-name="Path 83"/></g></svg>