<svg xmlns="http://www.w3.org/2000/svg" width="14.475" height="24.107" viewBox="0 0 14.475 24.107">
  <g id="Group_17" data-name="Group 17" transform="translate(-763.081 -461.282)">
    <path id="Path_10" data-name="Path 10" d="M776.369,484.216c-.192.818-.6,1.194-1.276,1.172a1.226,1.226,0,0,1-1.169-1.18h-7.211a1.156,1.156,0,0,1-.513.943,1.613,1.613,0,0,1-.736.227c-.632.022-1.025-.385-1.2-1.17a1.226,1.226,0,0,1-1.15-.951,1.6,1.6,0,0,1-.036-.391q0-7.715,0-15.429a1.216,1.216,0,0,1,1.33-1.335c1.148,0,2.3,0,3.467,0v-3.618c-.184,0-.369.006-.554,0a.61.61,0,0,1-.623-.6.59.59,0,0,1,.618-.6q3-.008,5.992,0a.59.59,0,0,1,.624.59.61.61,0,0,1-.643.606c-.177.005-.353,0-.543,0V466.1h.3q1.6,0,3.194,0a1.208,1.208,0,0,1,1.307,1.3q0,7.741,0,15.485C777.555,483.637,777.206,484.023,776.369,484.216Zm-6.052-9.678c-.969,0-1.938,0-2.907,0-.434,0-.7.237-.708.6s.266.6.7.613c.094,0,.188,0,.282,0h5.363c.076,0,.151,0,.226,0a.618.618,0,0,0,.666-.615.6.6,0,0,0-.654-.6C772.293,474.534,771.3,474.539,770.317,474.538Zm1.192-12.04h-2.376v3.585h2.376Zm-1.2,8.422h2.879c.475,0,.756-.232.749-.609s-.286-.591-.741-.592q-.988,0-1.976,0c-1.27,0-2.54,0-3.81,0a.652.652,0,0,0-.624.306.594.594,0,0,0,.56.894C768.332,470.926,769.32,470.92,770.307,470.92Z" fill="#6bc489"/>
  </g>
</svg>
