<svg xmlns="http://www.w3.org/2000/svg" width="21.852" height="17.163" viewBox="0 0 21.852 17.163">
  <g id="billing-details-icon" transform="translate(-948.784 -888.406)">
    <path id="Path_70" data-name="Path 70" d="M966.744,893.471h-4.69m4.69,3.517h-4.69m-2.344,4.1a3.81,3.81,0,0,0-7.034,0m.234,4.1h13.6a5.841,5.841,0,0,0,2.472-.255,2.343,2.343,0,0,0,1.024-1.025,5.816,5.816,0,0,0,.256-2.471v-8.91a5.819,5.819,0,0,0-.256-2.472,2.336,2.336,0,0,0-1.024-1.024,5.819,5.819,0,0,0-2.472-.256h-13.6a5.813,5.813,0,0,0-2.471.256,2.343,2.343,0,0,0-1.025,1.024,5.84,5.84,0,0,0-.255,2.472v8.91a5.837,5.837,0,0,0,.255,2.471,2.35,2.35,0,0,0,1.025,1.025A5.835,5.835,0,0,0,952.91,905.194Zm4.455-11.137a1.172,1.172,0,1,1-1.172-1.173A1.172,1.172,0,0,1,957.365,894.057Z" fill="none" stroke="#000" stroke-linecap="round" stroke-width="0.75"/>
  </g>
</svg>
