<svg xmlns="http://www.w3.org/2000/svg" width="35.308" height="27.906" viewBox="0 0 35.308 27.906">
  <g id="billing-address-icon" transform="translate(-201.474 -1393.866)">
    <path id="Path_62" data-name="Path 62" d="M230.231,1402.268h-7.4m7.4,5.551h-7.4m-3.7,6.477c-.525-2.112-2.811-3.7-5.551-3.7s-5.027,1.589-5.552,3.7m.37,6.476h21.466c2.072,0,3.109,0,3.9-.4a3.7,3.7,0,0,0,1.618-1.617c.4-.792.4-1.829.4-3.9v-14.064c0-2.072,0-3.109-.4-3.9a3.7,3.7,0,0,0-1.618-1.618c-.791-.4-1.828-.4-3.9-.4H208.4c-2.072,0-3.109,0-3.9.4a3.7,3.7,0,0,0-1.618,1.618c-.4.791-.4,1.828-.4,3.9v14.064c0,2.072,0,3.109.4,3.9a3.7,3.7,0,0,0,1.618,1.617C205.286,1420.772,206.323,1420.772,208.4,1420.772Zm7.032-17.579a1.851,1.851,0,1,1-1.85-1.85A1.85,1.85,0,0,1,215.427,1403.193Z" fill="none" stroke="#000" stroke-linecap="round" stroke-width="2"/>
  </g>
</svg>
