<svg xmlns="http://www.w3.org/2000/svg" width="33.692" height="32.9" viewBox="0 0 33.692 32.9">
  <g id="booking-icon" transform="translate(-199.308 -304.364)">
    <path id="Path_32" data-name="Path 32" d="M219.323,336.264h-6.338c-5.976,0-8.964,0-10.821-1.857s-1.856-4.844-1.856-10.82v-3.169c0-5.976,0-8.964,1.856-10.821s4.845-1.856,10.821-1.856h6.338c5.976,0,8.964,0,10.82,1.856S232,314.442,232,320.418v3.169c0,5.976,0,8.964-1.857,10.82-1.035,1.035-2.421,1.493-4.481,1.7" fill="none" stroke="#000" stroke-linecap="round" stroke-width="2"/>
    <path id="Path_33" data-name="Path 33" d="M208.231,307.741v-2.377" fill="none" stroke="#000" stroke-linecap="round" stroke-width="2"/>
    <path id="Path_34" data-name="Path 34" d="M224.077,307.741v-2.377" fill="none" stroke="#000" stroke-linecap="round" stroke-width="2"/>
    <path id="Path_35" data-name="Path 35" d="M231.208,315.664H214.173m-13.865,0h6.14" fill="none" stroke="#000" stroke-linecap="round" stroke-width="2"/>
  </g>
</svg>
