<svg xmlns="http://www.w3.org/2000/svg" width="21.084" height="23.151" viewBox="0 0 21.084 23.151">
  <g id="calender-icon" transform="translate(-730.575 -287.657)">
    <path id="Path_98" data-name="Path 98" d="M736.459,297.309H733.91a.392.392,0,0,0-.392.392v2.549a.392.392,0,0,0,.392.392h2.549a.392.392,0,0,0,.391-.392V297.7A.392.392,0,0,0,736.459,297.309Zm-.392,2.549H734.3v-1.765h1.766Z"/>
    <path id="Path_99" data-name="Path 99" d="M742.4,297.309h-2.549a.392.392,0,0,0-.392.392v2.549a.392.392,0,0,0,.392.392H742.4a.392.392,0,0,0,.391-.392V297.7A.392.392,0,0,0,742.4,297.309Zm-.392,2.549h-1.766v-1.765h1.766Z"/>
    <path id="Path_100" data-name="Path 100" d="M748.165,297.309h-2.549a.393.393,0,0,0-.392.392v2.549a.393.393,0,0,0,.392.392h2.549a.393.393,0,0,0,.392-.392V297.7A.393.393,0,0,0,748.165,297.309Zm-.392,2.549h-1.765v-1.765h1.765Z"/>
    <path id="Path_101" data-name="Path 101" d="M736.459,303.115H733.91a.392.392,0,0,0-.392.392v2.549a.392.392,0,0,0,.392.392h2.549a.392.392,0,0,0,.391-.392v-2.549A.392.392,0,0,0,736.459,303.115Zm-.392,2.549H734.3V303.9h1.766Z"/>
    <path id="Path_102" data-name="Path 102" d="M742.4,303.115h-2.549a.392.392,0,0,0-.392.392v2.549a.392.392,0,0,0,.392.392H742.4a.392.392,0,0,0,.391-.392v-2.549A.392.392,0,0,0,742.4,303.115Zm-.392,2.549h-1.766V303.9h1.766Z"/>
    <path id="Path_103" data-name="Path 103" d="M748.165,303.115h-2.549a.393.393,0,0,0-.392.392v2.549a.393.393,0,0,0,.392.392h2.549a.393.393,0,0,0,.392-.392v-2.549A.393.393,0,0,0,748.165,303.115Zm-.392,2.549h-1.765V303.9h1.765Z"/>
    <path id="Path_104" data-name="Path 104" d="M751.267,289.725h-2.6V289.2a1.548,1.548,0,0,0-3.1,0v.521h-2.915V289.2a1.547,1.547,0,0,0-3.094,0v.521h-2.915V289.2a1.547,1.547,0,0,0-3.095,0v.521h-2.59a.391.391,0,0,0-.392.392v20.3a.391.391,0,0,0,.392.391h20.3a.392.392,0,0,0,.392-.391v-20.3A.392.392,0,0,0,751.267,289.725Zm-4.908-.521a.764.764,0,1,1,1.528,0v2.162a.764.764,0,1,1-1.528,0Zm-5.245-.764a.765.765,0,0,1,.764.764v2.162a.764.764,0,1,1-1.528,0v-1.213c0-.012,0-.024,0-.037s0-.024,0-.036V289.2A.765.765,0,0,1,741.114,288.44Zm-6.774.764a.764.764,0,1,1,1.528,0v2.162a.764.764,0,1,1-1.528,0Zm16.535,20.821H731.359V290.508h2.2v.858a1.547,1.547,0,0,0,3.095,0v-.857h2.915v.857a1.547,1.547,0,0,0,3.094,0v-.857h2.915v.857a1.548,1.548,0,0,0,3.1,0v-.859h2.2Z"/>
  </g>
</svg>
