<svg xmlns="http://www.w3.org/2000/svg" width="21.083" height="23.151" viewBox="0 0 21.083 23.151">
  <g id="callender-icon" transform="translate(-1756.058 -630.085)">
    <path id="Path_182" data-name="Path 182" d="M1761.941,639.737h-2.549a.392.392,0,0,0-.391.392v2.549a.392.392,0,0,0,.391.392h2.549a.392.392,0,0,0,.392-.392v-2.549A.392.392,0,0,0,1761.941,639.737Zm-.391,2.549h-1.766v-1.765h1.766Z"/>
    <path id="Path_183" data-name="Path 183" d="M1767.886,639.737h-2.549a.393.393,0,0,0-.392.392v2.549a.393.393,0,0,0,.392.392h2.549a.393.393,0,0,0,.392-.392v-2.549A.393.393,0,0,0,1767.886,639.737Zm-.392,2.549h-1.765v-1.765h1.765Z"/>
    <path id="Path_184" data-name="Path 184" d="M1773.648,639.737H1771.1a.392.392,0,0,0-.392.392v2.549a.392.392,0,0,0,.392.392h2.549a.392.392,0,0,0,.391-.392v-2.549A.392.392,0,0,0,1773.648,639.737Zm-.392,2.549h-1.766v-1.765h1.766Z"/>
    <path id="Path_185" data-name="Path 185" d="M1761.941,645.543h-2.549a.392.392,0,0,0-.391.392v2.549a.392.392,0,0,0,.391.392h2.549a.392.392,0,0,0,.392-.392v-2.549A.392.392,0,0,0,1761.941,645.543Zm-.391,2.549h-1.766v-1.765h1.766Z"/>
    <path id="Path_186" data-name="Path 186" d="M1767.886,645.543h-2.549a.393.393,0,0,0-.392.392v2.549a.393.393,0,0,0,.392.392h2.549a.393.393,0,0,0,.392-.392v-2.549A.393.393,0,0,0,1767.886,645.543Zm-.392,2.549h-1.765v-1.765h1.765Z"/>
    <path id="Path_187" data-name="Path 187" d="M1773.648,645.543H1771.1a.392.392,0,0,0-.392.392v2.549a.392.392,0,0,0,.392.392h2.549a.392.392,0,0,0,.391-.392v-2.549A.392.392,0,0,0,1773.648,645.543Zm-.392,2.549h-1.766v-1.765h1.766Z"/>
    <path id="Path_188" data-name="Path 188" d="M1776.749,632.153h-2.6v-.522a1.547,1.547,0,0,0-3.095,0v.521h-2.914v-.521a1.548,1.548,0,0,0-3.1,0v.521h-2.915v-.521a1.547,1.547,0,1,0-3.094,0v.521h-2.591a.391.391,0,0,0-.391.392v20.3a.391.391,0,0,0,.391.391h20.3a.391.391,0,0,0,.392-.391v-20.3A.391.391,0,0,0,1776.749,632.153Zm-4.907-.521a.764.764,0,1,1,1.528,0v2.162a.764.764,0,1,1-1.528,0Zm-5.246-.764a.765.765,0,0,1,.764.764v2.162a.764.764,0,1,1-1.528,0v-1.213c0-.012,0-.024,0-.036s0-.025,0-.037v-.876A.765.765,0,0,1,1766.6,630.868Zm-6.773.764a.764.764,0,1,1,1.528,0v2.162a.764.764,0,1,1-1.528,0Zm16.535,20.821h-19.517V632.936h2.2v.858a1.547,1.547,0,1,0,3.094,0v-.857h2.915v.857a1.548,1.548,0,0,0,3.1,0v-.857h2.914v.857a1.547,1.547,0,0,0,3.095,0v-.859h2.205Z"/>
  </g>
</svg>
