<svg id="Layer_1" data-name="Layer 1" xmlns="http://www.w3.org/2000/svg" viewBox="0 0 25 25"><defs><style>.cls-1{fill:#25a057;}.cls-2{fill:#fff;}</style></defs><circle class="cls-1" cx="12.5" cy="12.5" r="11.57"/><path class="cls-2" d="M9.12,7.8H8.58a1,1,0,0,0-.75.35,3.17,3.17,0,0,0-1,2.33A5.41,5.41,0,0,0,8,13.37a11.47,11.47,0,0,0,4.79,4.22c2.36.93,2.85.74,3.36.7A2.85,2.85,0,0,0,18,17a2.3,2.3,0,0,0,.17-1.33c-.07-.12-.26-.19-.54-.32s-1.66-.83-1.91-.93-.45-.14-.63.14-.74.93-.9,1.12-.33.21-.61.07a7.64,7.64,0,0,1-2.25-1.4,8.5,8.5,0,0,1-1.57-2c-.17-.28,0-.43.12-.57s.3-.3.44-.46a1.69,1.69,0,0,0,.27-.47.53.53,0,0,0,0-.49c-.07-.14-.61-1.52-.86-2.07h0C9.54,7.82,9.32,7.81,9.12,7.8Z"/></svg>