<svg xmlns="http://www.w3.org/2000/svg" width="68.534" height="68.527" viewBox="0 0 68.534 68.527">
  <g id="call-icon" transform="translate(-517.254 -318.267)">
    <path id="Path_37" data-name="Path 37" d="M517.254,336.986c.1-.5.188-1,.315-1.486a7.746,7.746,0,0,1,1.979-3.589c1.793-1.805,3.584-3.61,5.407-5.384,1.513-1.473,3.275-2.2,5.351-1.326a6.5,6.5,0,0,1,1.981,1.324c2.712,2.651,5.385,5.343,8.049,8.042a4.992,4.992,0,0,1,1.685,4.381,5.84,5.84,0,0,1-1.866,3.244c-1.512,1.517-3.036,3.022-4.551,4.536-.781.781-.8.988-.344,2a38.1,38.1,0,0,0,7.205,10.156,46.736,46.736,0,0,0,9.47,8.022c1.2.756,2.5,1.362,3.757,2.039a1.1,1.1,0,0,0,1.425-.346c1.572-1.583,3.122-3.19,4.738-4.727a8.179,8.179,0,0,1,2.155-1.542,4.355,4.355,0,0,1,4.592.626,8.584,8.584,0,0,1,1.008.878c2.562,2.549,5.137,5.087,7.661,7.673a7.962,7.962,0,0,1,1.547,2.152,4.152,4.152,0,0,1-.742,4.739c-1.977,2.178-4.069,4.256-6.183,6.3a7.744,7.744,0,0,1-4.253,1.953c-.2.032-.385.093-.578.141h-2.544c-.147-.04-.294-.086-.443-.117a58.4,58.4,0,0,1-5.735-1.226,55.345,55.345,0,0,1-15.187-7.89,69.556,69.556,0,0,1-20.472-22.652,46.716,46.716,0,0,1-4.564-10.807c-.373-1.367-.58-2.779-.863-4.171Z" fill="#b5b5b5"/>
    <path id="Path_38" data-name="Path 38" d="M552.622,318.267A39.256,39.256,0,0,1,585.788,350.4l-5.121.888c-3.621-15.432-13.147-24.7-28.76-27.878Z" fill="#b5b5b5"/>
    <path id="Path_39" data-name="Path 39" d="M551.185,337.23l.74-5.233a23.5,23.5,0,0,1,19.956,19.322l-5.23.9a18.312,18.312,0,0,0-15.466-14.989Z" fill="#b5b5b5"/>
  </g>
</svg>
