<svg xmlns="http://www.w3.org/2000/svg" width="45.555" height="39.861" viewBox="0 0 45.555 39.861">
  <g id="camera-icon" transform="translate(-222.93 -485.858)">
    <g id="Icon-Set-Filled">
      <path id="camera" d="M262.791,491.552H258.52L257.1,488.7c-.838-1.656-1.275-2.847-2.847-2.847H237.166c-1.572,0-2.093,1.358-2.847,2.847l-1.424,2.847h-4.271a5.694,5.694,0,0,0-5.694,5.7v22.777a5.694,5.694,0,0,0,5.694,5.7h34.167a5.694,5.694,0,0,0,5.694-5.7V497.247A5.694,5.694,0,0,0,262.791,491.552Zm-17.083,28.472A11.388,11.388,0,1,1,257.1,508.635,11.389,11.389,0,0,1,245.708,520.024Zm0-19.93a8.542,8.542,0,1,0,8.541,8.541,8.543,8.543,0,0,0-8.541-8.541Z" fill="#fff" fill-rule="evenodd"/>
    </g>
  </g>
</svg>
