<svg xmlns="http://www.w3.org/2000/svg" width="21.064" height="21.063" viewBox="0 0 21.064 21.063">
  <g id="ride-cancel-icon" transform="translate(-1630.673 -475.179)">
    <path id="Path_29" data-name="Path 29" d="M1641.828,496.242h-1.235c-.067-.012-.133-.027-.2-.036-.387-.051-.778-.08-1.161-.153a10.544,10.544,0,0,1-8.4-8.533c-.068-.4-.109-.8-.162-1.2v-1.235c.033-.277.061-.554.1-.831a10.553,10.553,0,0,1,11.488-9.03,9.871,9.871,0,0,1,5.843,2.524,10.3,10.3,0,0,1,3.45,9.929,9.965,9.965,0,0,1-2.852,5.427,10.273,10.273,0,0,1-5.675,2.972C1642.629,496.149,1642.228,496.189,1641.828,496.242Zm8.72-10.544a9.337,9.337,0,1,0-9.319,9.348A9.344,9.344,0,0,0,1650.548,485.7Z" fill="#ff7b7b"/>
    <path id="Path_30" data-name="Path 30" d="M1642.014,485.687l2.9,2.88c.311.309.624.617.928.933a.576.576,0,0,1,.11.7.544.544,0,0,1-.593.311,1,1,0,0,1-.432-.249q-1.778-1.758-3.539-3.531a1.846,1.846,0,0,0-.237-.223.76.76,0,0,1-.1.2q-1.785,1.793-3.576,3.581a.606.606,0,0,1-.666.2.59.59,0,0,1-.276-.937,1.736,1.736,0,0,1,.155-.165q1.752-1.754,3.507-3.505a1.837,1.837,0,0,1,.192-.147c-.081-.085-.129-.14-.181-.192q-1.774-1.775-3.546-3.553a1.031,1.031,0,0,1-.247-.412.554.554,0,0,1,.268-.6.575.575,0,0,1,.658.02,1.508,1.508,0,0,1,.2.179q1.753,1.754,3.506,3.506c.053.053.1.115.152.183.08-.074.135-.122.187-.174q1.774-1.775,3.553-3.545a1.018,1.018,0,0,1,.413-.247.554.554,0,0,1,.6.271.573.573,0,0,1-.022.657,1.461,1.461,0,0,1-.18.2q-1.752,1.753-3.507,3.5A1.93,1.93,0,0,1,1642.014,485.687Z" fill="#ff7b7b"/>
  </g>
</svg>
