<svg xmlns="http://www.w3.org/2000/svg" width="18.445" height="20.968" viewBox="0 0 18.445 20.968">
  <path id="Path_17" data-name="Path 17" d="M550.041,594.245a2.344,2.344,0,0,1-2.39-1.871l-1.37.167a1.5,1.5,0,0,1-.284.017,1.941,1.941,0,0,1-2.038-1.922V576.9a1.958,1.958,0,0,1,2.055-1.938,1.407,1.407,0,0,1,.267.017l1.37.15a2.378,2.378,0,0,1,2.406-1.855,1.894,1.894,0,0,1,.318.017l9.957,1.086A2.436,2.436,0,0,1,562.4,576.8V590.62a2.47,2.47,0,0,1-2.088,2.439l-9.958,1.17C550.258,594.229,550.141,594.245,550.041,594.245ZM549.79,574.2a.822.822,0,0,0-.919.752v17.61a.8.8,0,0,0,.886.735.561.561,0,0,0,.167-.017l10.709-1.253a.922.922,0,0,0,.719-.9v-14.87a.921.921,0,0,0-.7-.885l-10.71-1.17A.444.444,0,0,1,549.79,574.2ZM545.5,576c-.234,0-.618.083-.618.351v14.8c0,.335.535.335.6.335h.134l2.055-.184v-15.12L545.63,576Z" transform="translate(-543.959 -573.277)" fill="#7c7c7c"/>
</svg>
