<svg xmlns="http://www.w3.org/2000/svg" width="26.857" height="19.57" viewBox="0 0 26.857 19.57">
  <path id="Path_20" data-name="Path 20" d="M552.864,528.737a1.83,1.83,0,0,1-1.294-.619l-1.827-1.826a25.957,25.957,0,0,1-3.934-5.1l-.122-.256-.43.431a.91.91,0,0,1-1.29,0l-3.347-3.349a.9.9,0,0,1-.267-.644.914.914,0,0,1,.267-.648l7.3-7.3a.935.935,0,0,1,1.289,0l3.349,3.349a.911.911,0,0,1,0,1.29l-.738.738,2.4.743.058,0a.9.9,0,0,0,.253-.049,4.6,4.6,0,0,1,1.109-.2l.114,0,.546.044L555,514.06a.919.919,0,0,1,0-1.289l3.35-3.347a.937.937,0,0,1,1.289,0l7.3,7.3a.915.915,0,0,1,0,1.291l-3.349,3.346a.888.888,0,0,1-1.241.03l-.11-.1-.126.075a14.338,14.338,0,0,0-2.309,1.6l-.092.086.038.121a1.357,1.357,0,0,1-.354,1.44,1.215,1.215,0,0,1-.849.3,1.626,1.626,0,0,1-.34-.035l-.222-.049-.02.225a1.253,1.253,0,0,1-.395.778,1.194,1.194,0,0,1-.844.3,1.493,1.493,0,0,1-.341-.038l-.225-.052-.02.229a1.255,1.255,0,0,1-.4.778,1.193,1.193,0,0,1-.845.3,1.475,1.475,0,0,1-.34-.037l-.225-.052-.02.228a1.261,1.261,0,0,1-.395.777A1.483,1.483,0,0,1,552.864,528.737Zm-6.566-8.414.086.136a35.875,35.875,0,0,0,4.039,5.152l1.826,1.826a.993.993,0,0,0,.615.337.533.533,0,0,0,.378-.186.44.44,0,0,0,.153-.348,1.058,1.058,0,0,1,.3-.717.8.8,0,0,1,.579-.229,1.825,1.825,0,0,1,.426.064,1.266,1.266,0,0,0,.273.049h.123l.055-.109a.622.622,0,0,0,.066-.277,1.06,1.06,0,0,1,.3-.715.79.79,0,0,1,.578-.23,1.824,1.824,0,0,1,.428.065,1.23,1.23,0,0,0,.271.049h.123l.056-.109a.614.614,0,0,0,.065-.276,1.064,1.064,0,0,1,.3-.716.787.787,0,0,1,.577-.231,1.8,1.8,0,0,1,.424.065,1.315,1.315,0,0,0,.275.05h.117l.057-.1c.187-.295.02-.674-.539-1.232-.99-.99-2.451-2.329-3.464-3.25l-.116-.1-.13.087c-.336.226-.873.589-1.051.73a4.423,4.423,0,0,1-2.381,1.253,1.347,1.347,0,0,1-.974-.41,2.731,2.731,0,0,1-.695-.881,1.01,1.01,0,0,1,.342-1.116c.09-.09.213-.241.366-.431l.322-.4a10.689,10.689,0,0,1,1.762-1.881l.319-.243-1.505-.425Zm8.615-1.8a.573.573,0,0,1,.412.129c.392.375.886.813,1.414,1.279.718.634,1.531,1.353,2.206,2.028l.115.134.131.141.146-.125a15.506,15.506,0,0,1,1.983-1.381l.219-.132-4.381-4.332h-.08c-.225,0-.439-.015-.647-.027-.238-.014-.469-.026-.7-.026a4.313,4.313,0,0,0-1.622.293,7.923,7.923,0,0,0-3.129,2.531l-.081.1c-.291.355-.565.691-.339.919,0,0,.392.337.562.337a4.019,4.019,0,0,0,1.784-1.046,3.04,3.04,0,0,1,1.384-.709A2.17,2.17,0,0,1,554.913,518.523Zm-13.577-1.15,3.277,3.277,7.23-7.233-3.275-3.278Zm14.383-3.957,7.232,7.23,3.277-3.274-7.233-7.232Z" transform="translate(-540.353 -509.167)" fill="#7c7c7c"/>
</svg>
