<svg xmlns="http://www.w3.org/2000/svg" width="21.582" height="20.118" viewBox="0 0 21.582 20.118">
  <g id="Group_22" data-name="Group 22" transform="translate(-541.052 -606.53)">
    <circle id="Ellipse_2" data-name="Ellipse 2" cx="1.399" cy="1.399" r="1.399" transform="translate(558.371 623.85)" fill="#7c7c7c"/>
    <circle id="Ellipse_3" data-name="Ellipse 3" cx="1.399" cy="1.399" r="1.399" transform="translate(547.18 623.85)" fill="#7c7c7c"/>
    <path id="Path_21" data-name="Path 21" d="M546.649,619.721V609.33h5.59v-.4a2.4,2.4,0,1,1,4.8,0v.4h5.59v10.391Zm1.061-1.071h13.859v-8.259H547.71Zm6.929-11.049a1.315,1.315,0,0,0-1.329,1.33v.4h2.659v-.4A1.316,1.316,0,0,0,554.639,607.6Z" fill="#7c7c7c"/>
    <path id="Path_22" data-name="Path 22" d="M546.248,623.451a3.335,3.335,0,0,1-3.331-3.33V609.863a1.333,1.333,0,0,0-1.332-1.332h-.533v-1.067h.533a2.4,2.4,0,0,1,2.4,2.4v10.258a2.165,2.165,0,0,0,2.264,2.263h16.386v1.067Z" fill="#7c7c7c"/>
  </g>
</svg>
