

<svg xmlns="http://www.w3.org/2000/svg" width="27.523" height="18.041" viewBox="810.882 4402.833 27.523 18.041"><g data-name="Group 289"><path d="M838.405 4418.787c-.154.366-.253.77-.471 1.092-.497.735-1.249.996-2.115.995-5.158-.003-10.317-.001-15.476-.001h-6.904c-.577 0-1.12-.12-1.589-.477-.642-.49-.962-1.148-.963-1.947-.005-4.397-.009-8.795.002-13.192.003-1.437 1.058-2.422 2.55-2.423 4.155-.002 8.311-.001 12.466-.001h9.914c.625 0 1.206.13 1.7.541.459.382.745.86.844 1.451.006.033.028.063.042.094v13.868Zm-26.821-10.367V4418.316c.001 1.163.691 1.857 1.854 1.857h22.41c1.164 0 1.857-.693 1.857-1.853V4408.42h-26.121Zm.01-1.737h26.104c0-.54.017-1.059-.008-1.577a1.66 1.66 0 0 0-.175-.64c-.344-.685-.942-.935-1.679-.935-7.462.002-14.923.001-22.385.001-.053 0-.107-.001-.161.002-.944.047-1.625.651-1.69 1.548-.037.524-.006 1.054-.006 1.601Z" fill-rule="evenodd" data-name="Path 168"/><path d="M817.205 4416.636c-.645 0-1.29.003-1.934 0-.897-.005-1.461-.56-1.474-1.455-.007-.484-.008-.968.001-1.451.016-.863.577-1.43 1.44-1.437a276.34 276.34 0 0 1 3.922 0c.875.006 1.437.581 1.447 1.458.006.484.008.967 0 1.451-.014.862-.581 1.426-1.441 1.433-.654.005-1.307.001-1.961.001Zm-.021-.699c.663 0 1.325.003 1.988-.001.446-.003.727-.273.734-.713.008-.502.007-1.003 0-1.505-.006-.442-.281-.723-.724-.725a443.59 443.59 0 0 0-3.949 0c-.456.002-.731.284-.737.743-.006.483-.005.967 0 1.45.005.474.282.748.754.75.645.004 1.289.001 1.934.001Z" fill-rule="evenodd" data-name="Path 169"/><path d="M829.531 4412.991h-5.479c-.098 0-.216.024-.29-.02-.103-.063-.232-.176-.24-.275-.008-.114.08-.266.174-.346.074-.063.22-.057.334-.057 3.67-.003 7.34-.003 11.011-.001.088 0 .18.002.265.025.178.047.27.17.255.357-.016.187-.126.29-.31.31-.089.01-.179.007-.269.007h-5.451Z" fill-rule="evenodd" data-name="Path 170"/><path d="M826.573 4415.724c-.885 0-1.771.002-2.656-.002-.299 0-.465-.181-.404-.428.056-.227.232-.27.435-.27.769.002 1.538 0 2.307 0 .975 0 1.949-.004 2.924.007.131.001.292.05.382.134.069.066.102.264.053.335a.542.542 0 0 1-.359.214c-.481.024-.965.01-1.448.01h-1.234Z" fill-rule="evenodd" data-name="Path 171"/></g></svg>
