<svg xmlns="http://www.w3.org/2000/svg" width="17.079" height="18.389" viewBox="0 0 17.079 18.389">
  <g id="carrier-icon" transform="translate(-484.451 -290.038)">
    <path id="Path_197" data-name="Path 197" d="M501.258,308.427H484.723a.272.272,0,0,1-.272-.272V305a2.958,2.958,0,0,1,1.867-2.759l3.913-1.565a.269.269,0,0,1,.212.005.276.276,0,0,1,.145.155l1.151,3.184.379-1.089-.335-.819a.273.273,0,0,1,.252-.375h1.911a.273.273,0,0,1,.252.375l-.335.819.379,1.089,1.152-3.183a.27.27,0,0,1,.144-.156.276.276,0,0,1,.213-.005l3.912,1.565A2.958,2.958,0,0,1,501.53,305v3.158A.272.272,0,0,1,501.258,308.427Zm-16.263-.544h15.991V305a2.415,2.415,0,0,0-1.525-2.253l-3.651-1.461-1.317,3.641a.273.273,0,0,1-.513,0l-.665-1.912a.276.276,0,0,1,.005-.192l.221-.539h-1.1l.221.539a.27.27,0,0,1,0,.192L492,304.921a.273.273,0,0,1-.513,0l-1.316-3.641-3.652,1.461A2.414,2.414,0,0,0,484.995,305Zm14.174-.646h-3.046a.272.272,0,0,1-.272-.273v-1.875a.272.272,0,0,1,.272-.272h3.046a.272.272,0,0,1,.272.272v1.875A.273.273,0,0,1,499.169,307.237Zm-2.774-.545h2.5v-1.331h-2.5Zm-3.4-6.083a3.3,3.3,0,0,1-1.221-.232,2.352,2.352,0,0,1-.739-.446,7.931,7.931,0,0,1-1.265-1.937c-.34-.017-1.038-.2-1.34-1.352a1.693,1.693,0,0,1,.1-1.369,1.009,1.009,0,0,1,.391-.354,5.723,5.723,0,0,1,.024-.6,2.264,2.264,0,0,1,.109-2.439h0v0h0l0-.007h0l0,0,0,0h0a1.709,1.709,0,0,1,1.507-1h0a1.527,1.527,0,0,1,.28.026c.2-.343.743-.854,2.271-.854h.076a4.505,4.505,0,0,1,2.314.692,3.5,3.5,0,0,1,1.676,1.943,2.81,2.81,0,0,1,.093.764h0v0h0a5.762,5.762,0,0,1-.218,1.445v.03a1,1,0,0,1,.391.353,1.69,1.69,0,0,1,.1,1.369c-.3,1.154-1,1.336-1.339,1.352a7.893,7.893,0,0,1-1.266,1.938,2.354,2.354,0,0,1-.738.446A3.3,3.3,0,0,1,492.991,300.609Zm-3.062-3.166a.277.277,0,0,1,.251.156,8.359,8.359,0,0,0,1.223,1.934,1.8,1.8,0,0,0,.567.338,2.781,2.781,0,0,0,2.041,0,1.8,1.8,0,0,0,.567-.338A8.357,8.357,0,0,0,495.8,297.6a.274.274,0,0,1,.3-.152h0a.391.391,0,0,0,.058,0c.231,0,.652-.123.868-.947a1.23,1.23,0,0,0-.027-.927.449.449,0,0,0-.269-.2.267.267,0,0,1-.222-.291s.007-.084.008-.224a.727.727,0,0,0-.159-.415,9.459,9.459,0,0,0-1.807-.433c-.344-.066-.735-.142-1.147-.226h0a3.192,3.192,0,0,1-.69-.2,4.168,4.168,0,0,1-1.457-.9,2.74,2.74,0,0,1-.522.918,3.482,3.482,0,0,1-1.256.842,4.582,4.582,0,0,0-.009.636.272.272,0,0,1-.226.292.451.451,0,0,0-.265.2,1.231,1.231,0,0,0-.026.927c.215.824.636.947.868.947a.393.393,0,0,0,.061,0A.257.257,0,0,1,489.929,297.443Zm1.205-5.582a.271.271,0,0,1,.227.123,3.353,3.353,0,0,0,1.548,1.1l.015.006a2.707,2.707,0,0,0,.582.164l.011,0c.406.083.8.158,1.139.225a6.486,6.486,0,0,1,2.035.536,4.169,4.169,0,0,0,.044-.57h0a2.316,2.316,0,0,0-.062-.578l-.01-.035c-.006-.024-.014-.049-.023-.074a3.022,3.022,0,0,0-1.373-1.531.194.194,0,0,1-.032-.017,3.959,3.959,0,0,0-2.043-.618h-.2c-1.529.032-1.7.643-1.709.676l0,.021a.27.27,0,0,1-.117.167.279.279,0,0,1-.133.043.286.286,0,0,1-.087-.01.241.241,0,0,1-.038-.013.956.956,0,0,0-.333-.057h0a1.205,1.205,0,0,0-1.038.728h0l0,0h0a1.833,1.833,0,0,0-.188,1.769,2.922,2.922,0,0,0,1-.681,2.74,2.74,0,0,0,.531-1.153.271.271,0,0,1,.214-.214A.246.246,0,0,1,491.134,291.861Z"/>
  </g>
</svg>
