<svg xmlns="http://www.w3.org/2000/svg" width="30.293" height="26.959" viewBox="1023.301 4396.178 30.293 26.959"><g data-name="Group 287"><path d="M1028.505 4413.334c.664-.297 1.302-.42 1.742-1.054 1.3-1.873 2.673-3.696 4.026-5.532.112-.152.273-.287.439-.377a571.54 571.54 0 0 1 5.134-2.743c.273-.143.391-.327.431-.63.283-2.13.583-4.257.88-6.384.058-.41.202-.486.604-.41 1.27.239 2.543.464 3.816.693 1.844.332 3.689.662 5.533.995.321.058.418.211.344.541-.064.29-.123.581-.214.86-.074.229.002.317.215.373.582.154 1.162.319 1.741.487.39.112.465.244.348.624-.796 2.575-1.598 5.149-2.394 7.724-.781 2.522-1.558 5.046-2.337 7.569-.169.551-.25.59-.802.413-1.356-.436-2.714-.864-4.066-1.311-.281-.092-.379-.027-.444.258-.177.779-.397 1.549-.58 2.328-.067.287-.232.4-.502.424-.518.048-1.005-.035-1.475-.382-.045.132-.088.236-.116.345-.158.615-.319 1.23-.465 1.848-.066.276-.229.369-.498.367-1.337-.01-2.06-.828-2.029-2.356-.083.071-.152.112-.196.17-.198.263-.421.513-.578.8-.689 1.256-1.791 1.868-3.168 2.004-.695.068-1.401.03-2.102.032-.932.004-1.864-.001-2.796-.002-.494-.001-.495-.002-.496.506-.001.384.005.767.001 1.151-.004.346-.114.466-.445.467-1.426.005-2.851.006-4.277.003-.366-.001-.475-.111-.475-.47-.003-3.456-.004-6.911-.002-10.365 0-.35.102-.46.449-.46 1.436-.003 2.873 0 4.31.007.349.002.443.112.444.462v1.025Zm11.581-9.054c-.185.09-.301.142-.414.202-1.44.77-2.886 1.531-4.316 2.321-.286.158-.56.392-.755.653-1.129 1.512-2.27 3.016-3.329 4.575-.627.923-1.336 1.66-2.453 1.916-.011.002-.02.011-.03.013-.205.051-.268.186-.267.39.004 1.317.004 2.633-.004 3.949-.002.233.093.307.314.303.471-.008.943 0 1.415 0l1.777.001c.221.001.366.102.366.33 0 .222-.139.332-.36.337l-.166.002c-.866 0-1.733.002-2.599-.002-.816-.003-.818.002-.745.815.016.181.089.252.265.252 1.612.002 3.225.057 4.834-.004 1.238-.047 2.253-.575 2.877-1.73.206-.38.5-.72.789-1.048 1.294-1.475 2.81-2.704 4.34-3.92a49.102 49.102 0 0 0 1.902-1.57c.598-.526.62-1.278.1-1.874-.506-.582-1.273-.654-1.88-.175-.206.163-.41.328-.614.496-.981.81-1.956 1.626-2.946 2.426-.108.087-.325.148-.433.097-.105-.05-.198-.264-.187-.397.108-1.3.243-2.598.363-3.897.022-.236.126-.378.35-.463.367-.14.733-.292 1.087-.465.11-.053.239-.181.256-.291.163-1.049.304-2.101.463-3.242Zm2.302 9.645c.061.05.075.07.094.076 1.419.451 2.837.904 4.261 1.34.088.03.248-.042.321-.118.335-.35.722-.575 1.215-.558.205.008.281-.078.338-.264 1.252-4.061 2.51-8.12 3.772-12.178.058-.185.043-.295-.119-.418a1.4 1.4 0 0 1-.581-1.095c-.008-.214-.092-.308-.291-.363-1.594-.44-3.186-.886-4.776-1.341-.187-.053-.296-.027-.417.129-.284.366-.674.576-1.134.574-.3-.001-.384.14-.454.388-.571 2.024-1.152 4.045-1.73 6.067l-.828 2.906c.233 0 .436-.037.62.007.367.088.769.15 1.075.347 1.103.716 1.157 2.369.138 3.238-.49.418-.987.83-1.504 1.263Zm-18.397-1.397c-.01.099-.02.152-.02.205 0 3.137.003 6.275-.004 9.412-.001.262.109.308.335.307 1.021-.007 2.041 0 3.061 0 .472 0 .473-.002.473-.472.001-2.951.002-5.9-.001-8.852-.001-.717.046-.6-.589-.603-.856-.006-1.711 0-2.567.003h-.688Zm26.705-13.989c-.085-.026-.145-.052-.208-.064-2.413-.438-4.827-.878-7.243-1.305-.103-.018-.282.057-.334.143a1.632 1.632 0 0 1-1.054.78c-.183.044-.249.132-.272.305-.163 1.194-.333 2.387-.499 3.581-.351 2.517-.702 5.034-1.051 7.55-.046.336-.077.672-.115 1.007.355-.2.642-.405.89-.649.188-.184.406-.394.476-.632.59-1.984 1.15-3.977 1.718-5.967.487-1.706.972-3.412 1.461-5.118.094-.328.259-.424.557-.339 1.6.456 3.2.911 4.8 1.37.725.206.725.208.873-.534.007-.03.001-.065.001-.128Zm-10.292 16.94c-.492.45-.953.866-1.407 1.29a.55.55 0 0 0-.126.227c-.11.332-.222.664-.315 1.001-.225.822.089 1.403.846 1.616.235.066.373.034.419-.233.039-.226.107-.447.165-.67.272-1.034.568-2.064.418-3.231Zm.672.897c.019.126.046.331.08.534.065.384.676.73 1.034.574.065-.028.123-.121.143-.196.192-.73.383-1.462.552-2.2.02-.08-.074-.24-.155-.277-.227-.104-.475-.165-.716-.24-.44-.136-.758.06-.811.512-.048.403-.08.807-.127 1.293Zm-2.755-4.538.135.077c.223-.264.571-.498.644-.799.184-.76.245-1.55.352-2.329.01-.068-.005-.14-.009-.214-.804.178-.871.255-.921 1.027-.01.152-.026.304-.04.457l-.161 1.78Z" fill-rule="evenodd" data-name="Path 165"/><path d="M1044.089 4406.755c.027-1.45 1.281-2.685 2.715-2.672 1.415.014 2.668 1.295 2.645 2.704-.023 1.47-1.278 2.69-2.745 2.665-1.399-.024-2.641-1.304-2.615-2.697Zm2.654 2.011c1.186.005 2.015-.807 2.025-1.984.01-1.155-.826-2.007-1.969-2.008-1.194-.001-2.028.83-2.028 2.02 0 1.13.837 1.967 1.972 1.972Z" fill-rule="evenodd" data-name="Path 166"/><path d="M1025.916 4421.338c-.495.004-.917-.396-.929-.879a.913.913 0 0 1 .933-.939c.49-.002.899.4.91.894a.913.913 0 0 1-.914.924Z" fill-rule="evenodd" data-name="Path 167"/></g></svg>