<svg xmlns="http://www.w3.org/2000/svg" width="12.506" height="11.13" viewBox="0 0 12.506 11.13">
  <g id="cash-icon" transform="translate(-516.712 -447.871)">
    <path id="Path_132" data-name="Path 132" d="M518.861,454.954c.274-.123.537-.173.719-.435.537-.773,1.1-1.526,1.662-2.284a.553.553,0,0,1,.181-.155q1.058-.571,2.12-1.132a.308.308,0,0,0,.177-.261c.117-.879.241-1.757.364-2.635.024-.17.083-.2.249-.17.524.1,1.05.192,1.575.287q1.143.205,2.284.411c.133.024.173.086.143.223-.027.119-.051.239-.089.355-.03.094,0,.131.089.154.24.063.48.132.719.2.161.046.192.1.143.257q-.492,1.595-.988,3.189-.483,1.561-.964,3.125c-.071.227-.1.243-.332.17-.559-.18-1.12-.357-1.678-.541-.116-.038-.157-.011-.184.106-.073.322-.164.64-.239.961a.205.205,0,0,1-.207.176A.845.845,0,0,1,524,456.8c-.019.054-.037.1-.048.142-.065.254-.132.508-.192.763a.181.181,0,0,1-.206.152c-.551-.005-.85-.342-.837-.973a.511.511,0,0,0-.081.071,2.808,2.808,0,0,0-.239.329,1.571,1.571,0,0,1-1.308.828c-.287.028-.578.012-.867.013-.385,0-.77,0-1.155,0-.2,0-.2,0-.2.209,0,.159,0,.317,0,.475s-.047.193-.184.193q-.882,0-1.765,0c-.151,0-.2-.045-.2-.194q0-2.139,0-4.279c0-.144.042-.189.185-.189q.89,0,1.779,0c.145,0,.183.047.184.191Zm4.781-3.738c-.077.037-.125.059-.171.084-.6.318-1.192.632-1.782.958a1.011,1.011,0,0,0-.312.27c-.466.624-.937,1.245-1.374,1.889a1.674,1.674,0,0,1-1.013.79l-.012.006c-.085.021-.111.077-.11.161q0,.814,0,1.63c0,.1.038.127.13.125.194,0,.389,0,.584,0h.733c.092,0,.152.041.152.135s-.058.138-.15.14h-1.141c-.336,0-.337,0-.307.336.007.075.037.1.109.1.666,0,1.332.024,2,0a1.326,1.326,0,0,0,1.188-.714,2.394,2.394,0,0,1,.325-.433,13.413,13.413,0,0,1,1.792-1.618c.265-.212.531-.424.785-.648a.52.52,0,0,0,.042-.774.543.543,0,0,0-.776-.072c-.086.067-.171.135-.254.2-.4.335-.808.672-1.216,1a.211.211,0,0,1-.179.04.2.2,0,0,1-.077-.164c.045-.537.1-1.073.15-1.609a.2.2,0,0,1,.144-.191c.152-.058.3-.121.449-.192a.2.2,0,0,0,.106-.12C523.518,452.122,523.576,451.687,523.642,451.216Zm.95,3.982c.025.021.031.029.039.032.586.186,1.171.373,1.759.553a.163.163,0,0,0,.132-.049.648.648,0,0,1,.5-.23c.085,0,.116-.032.14-.109q.774-2.516,1.557-5.028a.13.13,0,0,0-.049-.172.575.575,0,0,1-.24-.452.14.14,0,0,0-.121-.15q-.985-.273-1.971-.554a.136.136,0,0,0-.172.054.577.577,0,0,1-.469.236c-.123,0-.158.058-.187.161q-.354,1.253-.714,2.5c-.112.4-.225.79-.342,1.2a1.2,1.2,0,0,1,.256,0,1.419,1.419,0,0,1,.444.143.845.845,0,0,1,.057,1.337C525.01,454.85,524.806,455.019,524.592,455.2ZM517,454.621c0,.042-.008.063-.008.085q0,1.943,0,3.886c0,.108.045.127.139.126.421,0,.842,0,1.263,0,.2,0,.2,0,.2-.195q0-1.827,0-3.654c0-.3.019-.247-.243-.249-.353,0-.707,0-1.06,0C517.191,454.622,517.1,454.621,517,454.621Zm11.025-5.775c-.035-.01-.06-.021-.086-.026-1-.181-1.993-.363-2.99-.539a.168.168,0,0,0-.138.059.672.672,0,0,1-.435.322.13.13,0,0,0-.113.126c-.067.493-.137.986-.206,1.478q-.218,1.56-.433,3.118c-.019.138-.032.277-.048.415a1.68,1.68,0,0,0,.368-.268.7.7,0,0,0,.2-.261c.244-.819.474-1.642.709-2.463q.3-1.056.6-2.113c.038-.135.106-.175.229-.14l1.982.565c.3.086.3.087.36-.22A.278.278,0,0,0,528.022,448.846Zm-4.249,6.994c-.2.185-.394.357-.581.532a.222.222,0,0,0-.052.094c-.045.137-.092.274-.13.413a.486.486,0,0,0,.349.667c.1.028.154.014.173-.1.016-.093.044-.184.068-.276A3.374,3.374,0,0,0,523.773,455.84Zm.277.37c.008.052.019.137.033.221a.362.362,0,0,0,.427.237.134.134,0,0,0,.059-.081c.08-.3.158-.6.228-.908a.135.135,0,0,0-.064-.115,2.492,2.492,0,0,0-.295-.1.234.234,0,0,0-.335.211C524.083,455.843,524.07,456.01,524.05,456.21Zm-1.137-1.873.056.031c.092-.109.236-.205.266-.329a9.62,9.62,0,0,0,.145-.962.444.444,0,0,0,0-.088c-.332.073-.36.1-.38.424,0,.063-.011.125-.017.188Z" fill="#25a057"/>
    <path id="Path_133" data-name="Path 133" d="M525.294,452.238a1.107,1.107,0,1,1,2.213.013,1.107,1.107,0,1,1-2.213-.013Zm1.1.83a.824.824,0,1,0-.814-.814A.792.792,0,0,0,526.39,453.068Z" fill="#25a057"/>
    <path id="Path_134" data-name="Path 134" d="M517.792,458.258a.381.381,0,0,1-.384-.362.381.381,0,1,1,.384.362Z" fill="#25a057"/>
  </g>
</svg>
