<svg xmlns="http://www.w3.org/2000/svg" viewBox="0 0 50.21 37.94"><defs><style>.cls-1{fill:#8af4b5;}</style></defs><g id="Layer_2" data-name="Layer 2"><g id="Layer_1-2" data-name="Layer 1"><path class="cls-1" d="M5,37.94a.6.6,0,0,1-.3-.1c-.25-.16-.31-.37-.25-.85l.17-1.22c.13-1,.26-2,.42-3a1.85,1.85,0,0,0-.63-1.84A13,13,0,0,1,0,21,13.29,13.29,0,0,1,5.75,10.11,16.72,16.72,0,0,1,16.05,7L16.5,7c.67.08,1.6.2,2.54.35l.23,0A.83.83,0,0,0,20,7,16.37,16.37,0,0,1,33.77,0q.79,0,1.62.06A15.89,15.89,0,0,1,47,6a13.87,13.87,0,0,1-1.44,19.28,1.94,1.94,0,0,0-.71,2c.17,1,.3,2,.42,2.93.07.55.15,1.11.22,1.66a.67.67,0,0,1-.25.75.53.53,0,0,1-.31.11.92.92,0,0,1-.49-.2l-1.64-1.11-2.87-2a1.68,1.68,0,0,0-1-.32,2,2,0,0,0-.53.07A17.81,17.81,0,0,1,29,29.07a1.05,1.05,0,0,0-.33-.06.87.87,0,0,0-.68.37,15.67,15.67,0,0,1-12.51,5.75c-.3,0-.6,0-.91,0a15.24,15.24,0,0,1-2-.27c-.48-.09-.95-.18-1.43-.23l-.27,0a2.05,2.05,0,0,0-1,.26c-1.21.78-2.42,1.61-3.58,2.41l-.6.41A1.16,1.16,0,0,1,5,37.94ZM15.34,8.17A14.65,14.65,0,0,0,7,10.71,12.11,12.11,0,0,0,1.2,20.82a11.88,11.88,0,0,0,4.17,9.35,2.67,2.67,0,0,1,.9,2.64c-.1.58-.17,1.15-.24,1.77,0,.29-.19,1.49-.19,1.49l1.38-.93,2-1.35a2.45,2.45,0,0,1,1.45-.46,3.23,3.23,0,0,1,.73.09l.12,0a20.19,20.19,0,0,0,3.1.48l.9,0a14.68,14.68,0,0,0,11-4.63c.11-.11.21-.24.32-.37l.38-.46-.34-.15a15.59,15.59,0,0,1-8.39-8.57,13.71,13.71,0,0,1,.41-10.85L19,8.62l-.43-.13a1.71,1.71,0,0,0-.26-.07A17.48,17.48,0,0,0,15.34,8.17Zm23.6,19.72a2.81,2.81,0,0,1,1.69.56c.64.47,1.3.91,2,1.38l1.47,1L44,30.21c0-.33-.08-.64-.12-.95a17.7,17.7,0,0,0-.27-1.86,3,3,0,0,1,1.15-3.08A12.92,12.92,0,0,0,49,15a13,13,0,0,0-4.13-9.48A16.34,16.34,0,0,0,23.5,4.86a13.09,13.09,0,0,0-4.82,9.87,12.77,12.77,0,0,0,4.44,9.76,15.22,15.22,0,0,0,10.43,4.06A19.53,19.53,0,0,0,38,28,4,4,0,0,1,38.94,27.89Z"/><path class="cls-1" d="M26.85,17.8a2.31,2.31,0,0,1-1.66-.7,2.34,2.34,0,1,1,1.66.7Zm0-3.5a1.17,1.17,0,0,0-1.15,1.13,1.18,1.18,0,0,0,1.13,1.17h0A1.16,1.16,0,0,0,28,15.47a1.18,1.18,0,0,0-1.13-1.17Z"/><path class="cls-1" d="M33.81,17.8a2.3,2.3,0,0,1-1.64-.72,2.34,2.34,0,1,1,1.68.72Zm0-3.5a1.15,1.15,0,0,0,0,2.3,1.17,1.17,0,0,0,.82-.36,1.09,1.09,0,0,0,.32-.82,1.16,1.16,0,0,0-1.14-1.12h0Z"/><path class="cls-1" d="M40.85,17.8a2.34,2.34,0,0,1-1.65-4,2.31,2.31,0,0,1,1.66-.7,2.34,2.34,0,0,1,1.66,4,2.31,2.31,0,0,1-1.66.7Zm0-3.5a1.17,1.17,0,0,0-1.15,1.09,1.15,1.15,0,0,0,.3.83,1.16,1.16,0,0,0,.79.38h0A1.18,1.18,0,0,0,42,15.51a1.18,1.18,0,0,0-1.09-1.21Z"/><path class="cls-1" d="M9.56,27.43c-.37,0-.82-.1-.82-.6s.45-.6.82-.6H17c.37,0,.82.11.82.6s-.45.6-.82.6H9.56Z"/><path class="cls-1" d="M9.5,22.18a.84.84,0,0,1-.61-.2.55.55,0,0,1-.15-.4c0-.52.49-.6.77-.6h5.8c.23,0,.76.07.75.6s-.53.6-.76.6H9.5Z"/><path class="cls-1" d="M9.51,16.92c-.29,0-.77-.08-.77-.59s.54-.6.76-.6h4.93c.23,0,.76.06.76.6s-.54.59-.76.59H9.51Z"/></g></g></svg>