<svg xmlns="http://www.w3.org/2000/svg" width="16.807" height="22.152" viewBox="0 0 16.807 22.152">
  <g id="child-seat" transform="translate(-1369.068 -716.453)">
    <path id="Path_42" data-name="Path 42" d="M1385.448,731.11l-.168.868a2.654,2.654,0,0,1-1.965,2.227l-2.008.021h-7.632l-2.007-.011a2.675,2.675,0,0,1-2.039-2.237l-.136-.868a2.22,2.22,0,0,1,.272-1.558v.157h2.007v-2.551a.562.562,0,0,0,.2-.565l-.1-.7a.775.775,0,0,0-.7-.669h-.9a.239.239,0,0,0-.084.01l.481-5.133a1.491,1.491,0,0,1,1.411-1.339h.628v.073a1.319,1.319,0,0,0,1.035,1.307.946.946,0,0,0,.01.168l.6,4.882a1.7,1.7,0,0,0,1.506,1.6h3.283a1.749,1.749,0,0,0,1.5-1.6l.565-4.882a.946.946,0,0,0,.01-.168,1.311,1.311,0,0,0,1.025-1.307v-.073h.669a1.49,1.49,0,0,1,1.411,1.339l.481,5.144a.669.669,0,0,0-.146-.021h-.91a.785.785,0,0,0-.7.669l-.094.7a.546.546,0,0,0,.261.607v2.509h2.008v-.136A2.14,2.14,0,0,1,1385.448,731.11Z" fill="none" stroke="#000" stroke-width="0.75"/>
    <g id="Group_94" data-name="Group 94">
      <path id="Path_43" data-name="Path 43" d="M1374.679,738.23h-4.015a.235.235,0,0,1-.23-.335l.5-1.369a.457.457,0,0,1,.439-.335h.293v-1.976a1.191,1.191,0,0,0,.2.011h1.809v1.965h.366a.553.553,0,0,1,.439.335l.439,1.369C1374.982,738.1,1374.877,738.23,1374.679,738.23Z" fill="none" stroke="#000" stroke-width="0.75"/>
      <path id="Path_44" data-name="Path 44" d="M1384.548,737.9c.032.21-.062.335-.23.335H1380.3a.241.241,0,0,1-.241-.335l.471-1.369a.477.477,0,0,1,.439-.335h.334v-1.965h1.736a2.487,2.487,0,0,0,.272-.021v1.986h.334a.538.538,0,0,1,.429.335Z" fill="none" stroke="#000" stroke-width="0.75"/>
    </g>
    <g id="Group_95" data-name="Group 95">
      <path id="Path_45" data-name="Path 45" d="M1382.238,718.166v.669a1.311,1.311,0,0,1-1.025,1.307.886.886,0,0,1-.24.032h-6.995a.886.886,0,0,1-.24-.032,1.319,1.319,0,0,1-1.035-1.307v-.669a1.308,1.308,0,0,1,1.275-1.338h6.995A1.3,1.3,0,0,1,1382.238,718.166Z" fill="none" stroke="#000" stroke-width="0.75"/>
      <path id="Path_46" data-name="Path 46" d="M1371.971,726.593a.562.562,0,0,1-.2.565v2.551h-2.007v-2.488a.554.554,0,0,1-.3-.628l.1-.7a.793.793,0,0,1,.617-.659.239.239,0,0,1,.084-.01h.9a.775.775,0,0,1,.7.669Z" fill="none" stroke="#000" stroke-width="0.75"/>
      <path id="Path_47" data-name="Path 47" d="M1385.448,726.593a.606.606,0,0,1-.23.586v2.53h-2.008V727.2a.546.546,0,0,1-.261-.607l.094-.7a.785.785,0,0,1,.7-.669h.91a.669.669,0,0,1,.146.021.827.827,0,0,1,.555.648Z" fill="none" stroke="#000" stroke-width="0.75"/>
    </g>
  </g>
</svg>
