<svg xmlns="http://www.w3.org/2000/svg" width="65.025" height="53.202" viewBox="0 0 65.025 53.202">
  <g id="Group_39" data-name="Group 39" transform="translate(-244.154 -1330.953)">
    <g id="Group_38" data-name="Group 38">
      <g id="Group_30" data-name="Group 30">
        <path id="Path_26" data-name="Path 26" d="M255.977,1353.12l-2.956-10.345s-1.478,4.434-5.172,4.434c-1.356,0-3.695-.739-3.695-5.616,0-3.99,2.709-10.64,9.483-10.64s11.207,13.3,11.207,13.3v8.867Z" fill="#90a4ae"/>
      </g>
      <g id="Group_31" data-name="Group 31">
        <path id="Path_27" data-name="Path 27" d="M299.7,1330.953c-6.773,0-11.207,13.3-11.207,13.3v8.867h8.868l2.955-10.345s1.478,4.434,5.173,4.434c1.355,0,3.694-.739,3.694-5.616C309.179,1337.6,306.47,1330.953,299.7,1330.953Z" fill="#90a4ae"/>
      </g>
      <g id="Group_32" data-name="Group 32">
        <path id="Path_28" data-name="Path 28" d="M307.7,1360.51c0,4.2-3.726,14.357-5.887,19.894a5.9,5.9,0,0,1-5.5,3.751H257.02a5.9,5.9,0,0,1-5.5-3.751c-2.161-5.537-5.886-15.7-5.886-19.894Z" fill="#546e7a"/>
      </g>
      <g id="Group_33" data-name="Group 33">
        <path id="Path_29" data-name="Path 29" d="M307.7,1360.51c0-4.434-7.7-6.948-10.795-8.276-2.624-1.128-6.94-3.547-8.418-7.981H264.844c-1.478,4.434-5.793,6.853-8.418,7.981-3.092,1.328-10.794,3.842-10.794,8.276,0,5.911,7.389,7.389,12.143,7.389h37.782C300.312,1367.9,307.7,1366.421,307.7,1360.51Z" fill="#ff5252"/>
      </g>
      <g id="Group_34" data-name="Group 34">
        <path id="Path_30" data-name="Path 30" d="M288.682,1350.165h-24.03a13.963,13.963,0,0,0,2.128-2.956h19.773A14,14,0,0,0,288.682,1350.165Z" fill="#e53935"/>
      </g>
      <g id="Group_35" data-name="Group 35">
        <path id="Path_31" data-name="Path 31" d="M298.45,1356.076H254.883c.547-.236,1.02-.429,1.375-.576.5-.207.945-.385,1.33-.547a24.146,24.146,0,0,0,3.487-1.833h31.183a24.1,24.1,0,0,0,3.488,1.833c.384.162.827.34,1.33.547C297.43,1355.647,297.9,1355.84,298.45,1356.076Z" fill="#e53935"/>
      </g>
      <g id="Group_36" data-name="Group 36">
        <path id="Path_32" data-name="Path 32" d="M253.021,1342.775a19.427,19.427,0,0,0,.924-4.433,11.214,11.214,0,0,1,2.032,5.726,7.388,7.388,0,0,1-1.264,4.619Z" fill="#78909c"/>
      </g>
      <g id="Group_37" data-name="Group 37">
        <path id="Path_33" data-name="Path 33" d="M300.312,1342.775a19.4,19.4,0,0,1-.923-4.433,11.214,11.214,0,0,0-2.032,5.726,7.38,7.38,0,0,0,1.266,4.619Z" fill="#78909c"/>
      </g>
    </g>
  </g>
</svg>
