<svg xmlns="http://www.w3.org/2000/svg" width="12.528" height="16.448" viewBox="0 0 12.528 16.448">
  <g id="childseat-icon1" transform="translate(-862.867 -606.45)">
    <path id="Path_24" data-name="Path 24" d="M874.982,617.3l-.123.636a1.948,1.948,0,0,1-1.441,1.634l-1.473.015h-5.6l-1.473-.008a1.963,1.963,0,0,1-1.495-1.641l-.1-.636a1.629,1.629,0,0,1,.2-1.143v.115h1.472V614.4a.415.415,0,0,0,.146-.414l-.077-.514a.568.568,0,0,0-.514-.491h-.659a.165.165,0,0,0-.062.008l.353-3.766a1.093,1.093,0,0,1,1.035-.981h.461v.053a.967.967,0,0,0,.759.959.642.642,0,0,0,.008.123l.437,3.581a1.24,1.24,0,0,0,1.1,1.173h2.408a1.281,1.281,0,0,0,1.1-1.173l.414-3.581a.642.642,0,0,0,.008-.123.961.961,0,0,0,.752-.959v-.053h.49a1.093,1.093,0,0,1,1.036.981l.353,3.773a.577.577,0,0,0-.108-.015h-.667a.576.576,0,0,0-.514.491l-.069.514a.4.4,0,0,0,.192.444v1.841h1.472v-.1A1.573,1.573,0,0,1,874.982,617.3Z" fill="none" stroke="#000" stroke-width="0.75"/>
    <g id="Group_33" data-name="Group 33">
      <path id="Path_25" data-name="Path 25" d="M867.083,622.523h-2.945a.172.172,0,0,1-.169-.245l.369-1.005a.334.334,0,0,1,.322-.245h.214v-1.45a.894.894,0,0,0,.146.008h1.327v1.442h.268a.4.4,0,0,1,.322.245l.322,1.005C867.3,622.431,867.229,622.523,867.083,622.523Z" fill="none" stroke="#000" stroke-width="0.75"/>
      <path id="Path_26" data-name="Path 26" d="M874.322,622.278c.024.153-.046.245-.168.245h-2.945a.176.176,0,0,1-.176-.245l.345-1.005a.349.349,0,0,1,.322-.245h.245v-1.442h1.273a1.918,1.918,0,0,0,.2-.015v1.457h.245a.393.393,0,0,1,.314.245Z" fill="none" stroke="#000" stroke-width="0.75"/>
    </g>
    <g id="Group_34" data-name="Group 34">
      <path id="Path_27" data-name="Path 27" d="M872.628,607.807v.49a.961.961,0,0,1-.752.959.667.667,0,0,1-.176.023h-5.131a.667.667,0,0,1-.176-.023.967.967,0,0,1-.759-.959v-.49a.959.959,0,0,1,.935-.982H871.7A.954.954,0,0,1,872.628,607.807Z" fill="none" stroke="#000" stroke-width="0.75"/>
      <path id="Path_28" data-name="Path 28" d="M865.1,613.988a.415.415,0,0,1-.146.414v1.871h-1.472v-1.825a.408.408,0,0,1-.223-.46l.077-.514a.579.579,0,0,1,.452-.483.165.165,0,0,1,.062-.008h.659a.568.568,0,0,1,.514.491Z" fill="none" stroke="#000" stroke-width="0.75"/>
      <path id="Path_29" data-name="Path 29" d="M874.982,613.988a.442.442,0,0,1-.169.429v1.856h-1.472v-1.841a.4.4,0,0,1-.192-.444l.069-.514a.576.576,0,0,1,.514-.491h.667a.577.577,0,0,1,.108.015.608.608,0,0,1,.406.476Z" fill="none" stroke="#000" stroke-width="0.75"/>
    </g>
  </g>
</svg>
