<svg xmlns="http://www.w3.org/2000/svg" width="14.954" height="19.949" viewBox="0 0 14.954 19.949">
  <g id="child-seat-icon" transform="translate(-1562.634 -471.455)">
    <path id="Path_89" data-name="Path 89" d="M1577.326,483.344a1.278,1.278,0,0,0-1.122-.667h-.75v-1.552a.388.388,0,0,0,.219.059h1.443a.424.424,0,0,0,.21-.076.614.614,0,0,0,.22-.548l-.093-.659a.769.769,0,0,0-.515-.607l-.455-4.784a1.377,1.377,0,0,0-1.308-1.249h-.624V472.7a1.219,1.219,0,0,0-1.185-1.247h-6.514a1.219,1.219,0,0,0-1.185,1.247v.559h-.592a1.37,1.37,0,0,0-1.307,1.249l-.456,4.775a.739.739,0,0,0-.574.616l-.093.659a.5.5,0,0,0,.279.582.464.464,0,0,0,.185.042h1.409a.461.461,0,0,0,.279-.093v1.586h-.751a1.283,1.283,0,0,0-1.122.633,2.035,2.035,0,0,0-.245,1.451l.118.81a2.5,2.5,0,0,0,1.9,2.084V489.5h-.28a.43.43,0,0,0-.405.312l-.468,1.278a.219.219,0,0,0,.218.312h3.74a.214.214,0,0,0,.219-.312l-.406-1.278a.515.515,0,0,0-.405-.312h-.343v-1.838h7.107V489.5h-.312a.43.43,0,0,0-.4.312l-.436,1.278a.219.219,0,0,0,.218.312h3.74c.156,0,.249-.125.219-.312l-.437-1.278a.515.515,0,0,0-.405-.312h-.312v-1.864a2.455,2.455,0,0,0,1.837-2.067l.161-.81A1.974,1.974,0,0,0,1577.326,483.344Zm-10.474-8.772h6.514a1.169,1.169,0,0,0,.231-.024.485.485,0,0,1-.008.147l-.532,4.548a1.63,1.63,0,0,1-1.409,1.5h-3.054a1.578,1.578,0,0,1-1.4-1.5l-.557-4.548a.913.913,0,0,1-.008-.147A1.106,1.106,0,0,0,1566.852,474.572Z"/>
  </g>
</svg>
