<svg xmlns="http://www.w3.org/2000/svg" width="50.515" height="67.388" viewBox="0 0 50.515 67.388">
  <g id="child-seat-icon" transform="translate(-254.486 -1239.364)">
    <path id="Path_64" data-name="Path 64" d="M303.484,1273.058a3.671,3.671,0,0,1-3.58,4.212H259.681a3.67,3.67,0,0,1-3.58-4.212l2.211-23.375a4.639,4.639,0,0,1,4.423-4.212H296.85a4.638,4.638,0,0,1,4.422,4.212l2.212,23.375" fill="#b4d7ee"/>
    <g id="Group_44" data-name="Group 44">
      <path id="Path_65" data-name="Path 65" d="M255.469,1271.479h6.318v8.423h-6.318Z" fill="#3e4347"/>
      <path id="Path_66" data-name="Path 66" d="M297.8,1271.479h6.317v8.423H297.8Z" fill="#3e4347"/>
      <path id="Path_67" data-name="Path 67" d="M261.471,1292.959h6.318v10.635h-6.318Z" fill="#3e4347"/>
      <path id="Path_68" data-name="Path 68" d="M291.8,1292.959h6.318v10.635H291.8Z" fill="#3e4347"/>
    </g>
    <path id="Path_69" data-name="Path 69" d="M289.69,1265.688c-.316,2.737-2.527,5.054-4.738,5.054H274.633c-2.317,0-4.422-2.212-4.738-5.054l-1.9-15.374c-.316-2.737,1.264-5.054,3.475-5.054h16.531c2.317,0,3.9,2.317,3.475,5.054l-1.79,15.374" fill="#428bc1"/>
    <g id="Group_45" data-name="Group 45">
      <path id="Path_70" data-name="Path 70" d="M270.316,1301.382a1.744,1.744,0,0,0-1.369-1.052h-8.424a1.453,1.453,0,0,0-1.368,1.052l-1.58,4.318a.74.74,0,0,0,.737,1.052h12.636a.72.72,0,0,0,.737-1.052l-1.369-4.318" fill="#94989b"/>
      <path id="Path_71" data-name="Path 71" d="M302.01,1305.7l-1.475-4.318a1.741,1.741,0,0,0-1.368-1.052h-8.424a1.454,1.454,0,0,0-1.369,1.052L287.9,1305.7a.74.74,0,0,0,.737,1.052h12.635c.527,0,.843-.421.738-1.052" fill="#94989b"/>
    </g>
    <g id="Group_46" data-name="Group 46">
      <path id="Path_72" data-name="Path 72" d="M294.744,1245.681a4.115,4.115,0,0,1-4,4.212H268.736a4.116,4.116,0,0,1-4-4.212v-2.1a4.116,4.116,0,0,1,4-4.212h22.007a4.116,4.116,0,0,1,4,4.212v2.1" fill="#29abe2"/>
      <path id="Path_73" data-name="Path 73" d="M262.419,1270.11l-.316-2.211a2.451,2.451,0,0,0-2.211-2.106h-2.843a2.452,2.452,0,0,0-2.212,2.106l-.315,2.211a1.672,1.672,0,0,0,1.579,2.106h4.738a1.673,1.673,0,0,0,1.58-2.106" fill="#29abe2"/>
      <path id="Path_74" data-name="Path 74" d="M304.853,1270.11l-.316-2.211a2.452,2.452,0,0,0-2.212-2.106h-2.843a2.452,2.452,0,0,0-2.211,2.106l-.316,2.211a1.673,1.673,0,0,0,1.58,2.106h4.738c1.053,0,1.685-.948,1.58-2.106" fill="#29abe2"/>
      <path id="Path_75" data-name="Path 75" d="M300.325,1277.27H259.26c-3.264,0-5.265,3.159-4.633,7.055l.421,2.737c.632,3.9,3.9,7.055,7.055,7.055h35.168c3.264,0,6.423-3.159,7.055-7.055l.527-2.737c.737-3.791-1.369-7.055-4.528-7.055" fill="#29abe2"/>
    </g>
  </g>
</svg>
