<svg xmlns="http://www.w3.org/2000/svg" width="18.498" height="18.499" viewBox="0 0 18.498 18.499">
  <g id="city-tour-icon" transform="translate(-34.193 -260.208)">
    <path id="Path_36" data-name="Path 36" d="M50.168,278.707l-.423,0c-5.807-.036-15.551-.409-15.551-2.523,0-.916,1.476-1.19,3.52-1.568,1-.185,3.091-.574,3.206-.957-.1-.31-1.779-.748-3.8-.838l-.4-.017v-.823l.841.022c1.732.107,4.2.47,4.2,1.659,0,1.059-1.8,1.392-3.894,1.78-.992.184-2.651.491-2.843.79.26.816,7,1.587,14.725,1.634h.42ZM40.92,263.683c0,1.916-1.838,4.512-3.363,7.455-1.525-2.943-3.363-5.538-3.363-7.456a3.4,3.4,0,0,1,3.318-3.473h.045a3.4,3.4,0,0,1,3.363,3.43v.044Zm-2.888,4.836c1.052-1.871,2.047-3.634,2.047-4.837a2.552,2.552,0,0,0-2.469-2.632h-.053a2.553,2.553,0,0,0-2.524,2.58l0,.053c0,1.2.994,2.968,2.047,4.837.156.279.316.562.475.849Q37.8,268.937,38.032,268.519Zm1.206-4.948a1.681,1.681,0,1,1-1.681-1.681A1.682,1.682,0,0,1,39.238,263.571Zm-.841,0a.841.841,0,1,0-.84.841A.84.84,0,0,0,38.4,263.571Zm14.293,6c0,1.918-1.838,4.513-3.363,7.456-1.525-2.943-3.363-5.538-3.363-7.456a3.365,3.365,0,1,1,6.726-.212C52.692,269.426,52.692,269.5,52.69,269.567ZM49.8,274.4c1.053-1.87,2.047-3.634,2.047-4.837a2.525,2.525,0,1,0-5.044-.225,2.11,2.11,0,0,0,0,.225c0,1.2.994,2.968,2.047,4.837.156.279.316.562.475.849Q49.567,274.823,49.8,274.4Zm1.206-4.948a1.681,1.681,0,1,1-1.681-1.681A1.681,1.681,0,0,1,51.008,269.456Zm-.84,0a.841.841,0,1,0-.841.841A.841.841,0,0,0,50.168,269.456Z"/>
  </g>
</svg>
