<svg xmlns="http://www.w3.org/2000/svg" width="21.217" height="19.512" viewBox="0 0 21.217 19.512">
  <g id="Group_304" data-name="Group 304" transform="translate(-875.741 -845.897)">
    <circle id="Ellipse_67" data-name="Ellipse 67" cx="3.411" cy="3.411" r="3.411" transform="translate(882.938 853.663)" fill="none" stroke="#000" stroke-width="0.75"/>
    <path id="Path_321" data-name="Path 321" d="M884.076,865.034h4.548c3.194,0,4.791,0,5.938-.767a4.545,4.545,0,0,0,1.255-1.255c.766-1.147.766-2.744.766-5.938s0-4.791-.766-5.938a4.572,4.572,0,0,0-1.255-1.255c-1.147-.766-2.744-.766-5.938-.766h-4.549c-3.194,0-4.79,0-5.938.766a4.571,4.571,0,0,0-1.255,1.255c-.766,1.147-.766,2.743-.766,5.936v0c0,3.194,0,4.791.767,5.938a4.531,4.531,0,0,0,1.255,1.255C879.285,865.034,880.882,865.034,884.076,865.034Z" fill="none" stroke="#000" stroke-width="0.75"/>
    <path id="Path_322" data-name="Path 322" d="M893.172,853.663H892.6" fill="none" stroke="#000" stroke-width="0.75"/>
    <path id="Path_323" data-name="Path 323" d="M889.192,846.272h-5.685" fill="none" stroke="#000" stroke-width="0.75"/>
  </g>
</svg>
