<svg xmlns="http://www.w3.org/2000/svg" width="18.787" height="18.64" viewBox="0 0 18.787 18.64">
  <g id="city-tour-icon" transform="translate(-592.216 -536.613)">
    <path id="Path_75" data-name="Path 75" d="M603.344,536.988a4.372,4.372,0,0,0-4.373,4.372c0,3.423,3.338,7.541,4.213,8.552a.27.27,0,0,0,.38.027l.027-.027c.863-1.015,4.125-5.129,4.125-8.552A4.372,4.372,0,0,0,603.344,536.988Zm0,6.222a2.147,2.147,0,1,1,2.146-2.146v0a2.147,2.147,0,0,1-2.146,2.142Z" fill="none" stroke="#000" stroke-width="0.75"/>
    <path id="Path_76" data-name="Path 76" d="M607.632,542.353l.569-.039,2.358,11.623-4.9.87-7.7-.814-5.306.814,1.432-11.932,4.352-.562.624.031" fill="none" stroke="#000" stroke-width="0.75"/>
    <line id="Line_34" data-name="Line 34" x1="0.311" y2="11.697" transform="translate(598.12 542.314)" fill="none" stroke="#000" stroke-width="0.75"/>
    <line id="Line_35" data-name="Line 35" x1="0.828" y1="6.498" transform="translate(604.83 548.309)" fill="none" stroke="#000" stroke-width="0.75"/>
  </g>
</svg>
