<svg xmlns="http://www.w3.org/2000/svg" width="18.787" height="18.64" viewBox="0 0 18.787 18.64">
  <g id="city-tour-icon1" transform="translate(-846.109 -653.323)">
    <path id="Path_310" data-name="Path 310" d="M857.236,653.7a4.372,4.372,0,0,0-4.373,4.372c0,3.423,3.339,7.541,4.214,8.552a.27.27,0,0,0,.38.027l.026-.027c.864-1.015,4.126-5.129,4.126-8.552A4.372,4.372,0,0,0,857.236,653.7Zm0,6.223a2.152,2.152,0,0,1-2.073-2.719,2.123,2.123,0,0,1,1.5-1.5,2.151,2.151,0,0,1,2.719,2.073v.005a2.147,2.147,0,0,1-2.147,2.142Z" fill="none" stroke="#000" stroke-width="0.75"/>
    <path id="Path_311" data-name="Path 311" d="M861.525,659.063l.569-.039,2.358,11.623-4.9.87-7.7-.814-5.306.814,1.432-11.932,4.352-.562.624.031" fill="none" stroke="#000" stroke-width="0.75"/>
    <line id="Line_148" data-name="Line 148" x1="0.311" y2="11.697" transform="translate(852.013 659.024)" fill="none" stroke="#000" stroke-width="0.75"/>
    <line id="Line_149" data-name="Line 149" x1="0.828" y1="6.498" transform="translate(858.723 665.019)" fill="none" stroke="#000" stroke-width="0.75"/>
  </g>
</svg>
