<svg xmlns="http://www.w3.org/2000/svg" width="9.641" height="9.638" viewBox="1761.562 1673.843 9.641 9.638"><path d="m1767.187 1678.644 2.897 2.879c.311.309.625.617.929.933.201.21.233.463.11.701-.115.222-.355.372-.593.311a.995.995 0 0 1-.433-.249c-1.184-1.171-2.36-2.352-3.538-3.531-.053-.053-.099-.113-.237-.223-.034.068-.053.151-.104.202-1.191 1.196-2.385 2.387-3.577 3.581-.188.189-.398.29-.665.198a.59.59 0 0 1-.277-.937c.047-.059.102-.111.155-.165l3.507-3.505c.053-.052.119-.092.192-.146-.08-.086-.129-.141-.18-.193-1.183-1.183-2.369-2.364-3.547-3.553a1.017 1.017 0 0 1-.247-.412c-.066-.223.066-.477.268-.598a.575.575 0 0 1 .658.02c.073.05.134.117.197.18 1.169 1.168 2.338 2.336 3.506 3.506.053.052.096.114.153.182.079-.073.134-.122.186-.174 1.184-1.183 2.365-2.368 3.554-3.545.111-.11.263-.202.412-.246.223-.065.478.067.597.27a.572.572 0 0 1-.022.657c-.05.073-.117.135-.18.197-1.168 1.169-2.336 2.338-3.507 3.505-.052.053-.121.089-.214.155Z" fill-rule="evenodd" data-name="Path 45"/></svg>