<svg xmlns="http://www.w3.org/2000/svg" width="39.384" height="44.903" viewBox="0 0 39.384 44.903">
  <g id="free-wifi-icon" transform="translate(-375.316 -1114.593)">
    <g id="Group_43" data-name="Group 43">
      <g id="Group_42" data-name="Group 42">
        <path id="Path_24" data-name="Path 24" d="M392.269,1138.764a3.875,3.875,0,1,0,5.481,0A3.875,3.875,0,0,0,392.269,1138.764Z" fill="#ffc100"/>
        <path id="Path_25" data-name="Path 25" d="M395.009,1129.548a11.871,11.871,0,0,0-8.453,3.5,2.268,2.268,0,0,0,3.208,3.208,7.414,7.414,0,0,1,10.49,0,2.268,2.268,0,0,0,3.208-3.208A11.869,11.869,0,0,0,395.009,1129.548Z" fill="#ffc100"/>
        <path id="Path_26" data-name="Path 26" d="M395.009,1122.079a19.294,19.294,0,0,0-13.735,5.689,2.268,2.268,0,0,0,3.207,3.208,14.887,14.887,0,0,1,21.055,0,2.268,2.268,0,0,0,3.207-3.208A19.291,19.291,0,0,0,395.009,1122.079Z" fill="#ffc100"/>
        <path id="Path_27" data-name="Path 27" d="M414.038,1122.476a26.908,26.908,0,0,0-38.057,0,2.268,2.268,0,1,0,3.207,3.207,22.37,22.37,0,0,1,31.64,0,2.269,2.269,0,0,0,3.21-3.207Z" fill="#ffc100"/>
      </g>
    </g>
    <g id="Group_44" data-name="Group 44">
      <path id="Path_28" data-name="Path 28" d="M386.591,1153.334h-2.857v1.831h2.388a.721.721,0,0,1,.5.149.515.515,0,0,1,.163.4.5.5,0,0,1-.166.4.728.728,0,0,1-.493.146h-2.388v2.359a.95.95,0,0,1-.2.666.735.735,0,0,1-1.045,0,.947.947,0,0,1-.2-.664V1153.1a1.2,1.2,0,0,1,.093-.51.575.575,0,0,1,.29-.289,1.228,1.228,0,0,1,.506-.09h3.418a.742.742,0,0,1,.515.154.524.524,0,0,1,.168.4.533.533,0,0,1-.168.408A.748.748,0,0,1,386.591,1153.334Z" fill="#ffc100"/>
      <path id="Path_29" data-name="Path 29" d="M390.3,1156.313h-.507v2.3a.956.956,0,0,1-.2.669.679.679,0,0,1-.522.214.667.667,0,0,1-.537-.224.994.994,0,0,1-.191-.659V1153.1a.762.762,0,0,1,.889-.889h2.359a7.319,7.319,0,0,1,.834.041,2.086,2.086,0,0,1,.625.169,1.831,1.831,0,0,1,.6.405,1.755,1.755,0,0,1,.393.614,2.024,2.024,0,0,1,.135.739,1.787,1.787,0,0,1-.452,1.279,2.588,2.588,0,0,1-1.37.679,2.685,2.685,0,0,1,.738.6,6.1,6.1,0,0,1,.626.852,6.03,6.03,0,0,1,.43.816,1.581,1.581,0,0,1,.154.5.525.525,0,0,1-.089.282.638.638,0,0,1-.247.218.767.767,0,0,1-.362.081.7.7,0,0,1-.41-.114,1.129,1.129,0,0,1-.286-.291c-.079-.117-.188-.29-.324-.517l-.581-.967a5.267,5.267,0,0,0-.56-.811,1.391,1.391,0,0,0-.5-.381A1.73,1.73,0,0,0,390.3,1156.313Zm.831-3.008h-1.338v1.968h1.3a3.7,3.7,0,0,0,.879-.09,1.026,1.026,0,0,0,.544-.309.876.876,0,0,0,.189-.6.906.906,0,0,0-.571-.865A3.04,3.04,0,0,0,391.132,1153.305Z" fill="#ffc100"/>
      <path id="Path_30" data-name="Path 30" d="M400.262,1153.334H397v1.758H400a.711.711,0,0,1,.495.15.5.5,0,0,1,.164.392.531.531,0,0,1-.161.4.708.708,0,0,1-.5.153H397v2.036h3.379a.741.741,0,0,1,.514.158.543.543,0,0,1,.174.423.53.53,0,0,1-.174.413.735.735,0,0,1-.514.158h-3.941a.759.759,0,0,1-.888-.888V1153.1a1.218,1.218,0,0,1,.092-.51.583.583,0,0,1,.29-.289,1.231,1.231,0,0,1,.506-.09h3.828a.744.744,0,0,1,.516.154.524.524,0,0,1,.168.4.533.533,0,0,1-.168.408A.749.749,0,0,1,400.262,1153.334Z" fill="#ffc100"/>
      <path id="Path_31" data-name="Path 31" d="M406.932,1153.334h-3.266v1.758h3.008a.712.712,0,0,1,.495.15.5.5,0,0,1,.164.392.531.531,0,0,1-.161.4.708.708,0,0,1-.5.153h-3.008v2.036h3.379a.741.741,0,0,1,.514.158.547.547,0,0,1,.174.423.534.534,0,0,1-.174.413.735.735,0,0,1-.514.158H403.1a.759.759,0,0,1-.888-.888V1153.1a1.218,1.218,0,0,1,.092-.51.579.579,0,0,1,.29-.289,1.231,1.231,0,0,1,.506-.09h3.828a.744.744,0,0,1,.516.154.524.524,0,0,1,.168.4.533.533,0,0,1-.168.408A.749.749,0,0,1,406.932,1153.334Z" fill="#ffc100"/>
    </g>
  </g>
</svg>
