<svg xmlns="http://www.w3.org/2000/svg" width="45.287" height="45.101" viewBox="0 0 45.287 45.101">
  <g id="charger-icon" transform="translate(-693.751 -1114.494)">
    <path id="Path_1" data-name="Path 1" d="M693.751,1140.89c.133-.109.277-.208.4-.329q7.692-7.672,15.381-15.35c.124-.124.235-.262.311-.347l18.7,18.66-16.1,16.071c-.047-.045-.173-.161-.294-.281l-18.163-18.127c-.073-.073-.151-.139-.226-.209Z" fill="#ffc100"/>
    <path id="Path_2" data-name="Path 2" d="M739.038,1123.94c-.039.015-.089.018-.116.045-1.823,1.82-3.644,3.641-5.5,5.495l1.846,1.756-7.505,7.491-13.022-13,7.416-7.4,1.782,1.815c.148-.121.218-.168.277-.227q2.595-2.587,5.188-5.18a1.494,1.494,0,0,0,.167-.243h.088l1.97,1.885-5.6,5.584,5.619,5.607,5.586-5.578,1.8,1.86Z" fill="#ffc100"/>
  </g>
</svg>
