<svg xmlns="http://www.w3.org/2000/svg" width="38.158" height="45.753" viewBox="0 0 38.158 45.753">
  <g id="free-water-icon" transform="translate(-1053.645 -1114.168)">
    <g id="Group_48" data-name="Group 48">
      <path id="Path_32" data-name="Path 32" d="M1067.6,1114.168a1.784,1.784,0,0,1,1.79,1.861l0,.026c-.045.772,0,1.548-.011,2.322a1.424,1.424,0,0,1-1.519,1.507q-4.2.009-8.4,0a1.424,1.424,0,0,1-1.519-1.507c-.009-.774.034-1.55-.011-2.322l0-.026a1.784,1.784,0,0,1,1.79-1.861Z" fill="#ffc100"/>
      <path id="Path_33" data-name="Path 33" d="M1055.761,1140.044a4.31,4.31,0,0,1-.067-7.374,8.588,8.588,0,0,1-1.256-.886,2.6,2.6,0,0,1-.6-2.842,10.6,10.6,0,0,1,2.278-4.2,25,25,0,0,1,2.2-1.878.783.783,0,0,1,.458-.114q4.891-.009,9.784,0a1.047,1.047,0,0,1,.532.166,9.928,9.928,0,0,1,4.1,5.237,10.1,10.1,0,0,1,.388,1.137,2.751,2.751,0,0,1-1.685,3.185c-.107.045-.217.085-.335.131a4.345,4.345,0,0,1,0,7.439,2.857,2.857,0,0,1,2.049,2.208,3.657,3.657,0,0,1,.055.71q0,6.924,0,13.848a2.885,2.885,0,0,1-3.091,3.1q-6.925.006-13.851,0a2.88,2.88,0,0,1-3.075-3.074q-.008-6.834,0-13.669A2.9,2.9,0,0,1,1055.761,1140.044Z" fill="#ffc100"/>
    </g>
    <g id="Group_49" data-name="Group 49">
      <path id="Path_34" data-name="Path 34" d="M1082.749,1149.413v4.2h2.69V1150.1a1.058,1.058,0,0,1,.218-.729.76.76,0,0,1,.586-.24.738.738,0,0,1,.581.244,1.069,1.069,0,0,1,.215.725v3.508h3.465a1.393,1.393,0,0,1,.979.3,1.077,1.077,0,0,1,0,1.535,1.391,1.391,0,0,1-.976.3h-8.092a1.779,1.779,0,0,1-.749-.136.85.85,0,0,1-.425-.427,1.806,1.806,0,0,1-.132-.743v-5.022a1.088,1.088,0,0,1,.227-.757.762.762,0,0,1,.591-.247.78.78,0,0,1,.6.247A1.1,1.1,0,0,1,1082.749,1149.413Z" fill="#ffc100"/>
      <path id="Path_35" data-name="Path 35" d="M1087.125,1143.961v.746h3.379a1.4,1.4,0,0,1,.983.294,1,1,0,0,1,.316.768.981.981,0,0,1-.33.789,1.466,1.466,0,0,1-.969.28h-8.092a1.119,1.119,0,0,1-1.306-1.306v-3.465a10.7,10.7,0,0,1,.06-1.227,3.143,3.143,0,0,1,.248-.919,2.688,2.688,0,0,1,.6-.875,2.58,2.58,0,0,1,.9-.577,2.987,2.987,0,0,1,1.086-.2,2.628,2.628,0,0,1,1.88.663,3.818,3.818,0,0,1,1,2.013,3.9,3.9,0,0,1,.89-1.083,9.691,9.691,0,0,1,2.45-1.552,2.317,2.317,0,0,1,.735-.227.757.757,0,0,1,.413.132.932.932,0,0,1,.322.363,1.129,1.129,0,0,1,.119.531,1.035,1.035,0,0,1-.168.6,1.636,1.636,0,0,1-.428.421c-.172.116-.426.275-.76.476l-1.421.854a7.861,7.861,0,0,0-1.191.822,2.027,2.027,0,0,0-.559.735A2.515,2.515,0,0,0,1087.125,1143.961Zm-4.419-1.22v1.966h2.891V1142.8a5.368,5.368,0,0,0-.132-1.291,1.511,1.511,0,0,0-.453-.8,1.293,1.293,0,0,0-.878-.277,1.325,1.325,0,0,0-1.27.839A4.442,4.442,0,0,0,1082.706,1142.741Z" fill="#ffc100"/>
      <path id="Path_36" data-name="Path 36" d="M1082.749,1129.325v4.8h2.583v-4.42a1.046,1.046,0,0,1,.219-.727.738.738,0,0,1,.577-.241.776.776,0,0,1,.585.236,1.031,1.031,0,0,1,.226.732v4.42h2.991v-4.965a1.086,1.086,0,0,1,.233-.756.8.8,0,0,1,.621-.256.784.784,0,0,1,.607.256,1.086,1.086,0,0,1,.233.756v5.79a1.115,1.115,0,0,1-1.306,1.305h-7.906a1.779,1.779,0,0,1-.749-.136.848.848,0,0,1-.425-.426,1.81,1.81,0,0,1-.132-.743v-5.625a1.092,1.092,0,0,1,.227-.758.765.765,0,0,1,.591-.246.783.783,0,0,1,.6.246A1.107,1.107,0,0,1,1082.749,1129.325Z" fill="#ffc100"/>
      <path id="Path_37" data-name="Path 37" d="M1082.749,1119.525v4.8h2.583v-4.419a1.045,1.045,0,0,1,.219-.727.738.738,0,0,1,.577-.241.772.772,0,0,1,.585.236,1.032,1.032,0,0,1,.226.732v4.419h2.991v-4.964a1.085,1.085,0,0,1,.233-.756.8.8,0,0,1,.621-.256.784.784,0,0,1,.607.256,1.084,1.084,0,0,1,.233.756v5.79a1.115,1.115,0,0,1-1.306,1.3h-7.906a1.777,1.777,0,0,1-.749-.136.848.848,0,0,1-.425-.426,1.81,1.81,0,0,1-.132-.743v-5.625a1.092,1.092,0,0,1,.227-.758.766.766,0,0,1,.591-.247.784.784,0,0,1,.6.247A1.108,1.108,0,0,1,1082.749,1119.525Z" fill="#ffc100"/>
    </g>
  </g>
</svg>
