<svg xmlns="http://www.w3.org/2000/svg" width="29.169" height="26.688" viewBox="0 0 29.169 26.688">
  <g id="date-icon" transform="translate(-258.942 -1323.676)">
    <path id="Path_48" data-name="Path 48" d="M266.441,1325.134c.1-1.075.351-1.449.969-1.456a.833.833,0,0,1,.828.462,5.539,5.539,0,0,1,.243.977h10.165c0-.146-.006-.293,0-.439a.972.972,0,1,1,1.942.016c0,.131,0,.261,0,.44h.338c1.012,0,2.024,0,3.037,0a4.09,4.09,0,0,1,4.143,4.139q.009,8.472,0,16.946a4.074,4.074,0,0,1-4.135,4.141q-10.449.008-20.9,0a4.073,4.073,0,0,1-4.131-4.145q-.006-8.458,0-16.916a4.093,4.093,0,0,1,4.179-4.165c.992,0,1.984,0,2.976,0Zm-5.553,8.347v.335q0,6.165,0,12.33a2.155,2.155,0,0,0,2.31,2.317h20.655a2.155,2.155,0,0,0,2.311-2.316q0-6.165,0-12.33v-.336Zm25.277-1.972c0-.754,0-1.481,0-2.209a2.144,2.144,0,0,0-2.222-2.221c-1.023-.005-2.045,0-3.068,0-.087,0-.175.011-.285.02,0,.15,0,.28,0,.41a.974.974,0,0,1-.967,1.026.986.986,0,0,1-.975-1.027c0-.136,0-.273,0-.415H268.424c-.012.214-.007.417-.038.613a.965.965,0,0,1-1.92-.124c-.006-.158,0-.317,0-.471a.644.644,0,0,0-.121-.03c-1.145,0-2.289-.019-3.433.006a1.993,1.993,0,0,0-1.943,1.661,25.131,25.131,0,0,0-.022,2.761Z"/>
  </g>
</svg>
