<svg xmlns="http://www.w3.org/2000/svg" width="17.783" height="22.22" viewBox="0 0 17.783 22.22">
  <g id="delay-icon" transform="translate(-1379.972 -921.713)">
    <path id="Path_73" data-name="Path 73" d="M1387.079,924.375h3.559a.5.5,0,0,0,.5-.444v-1.784a.486.486,0,0,0-.5-.434h-3.559a.39.39,0,0,0-.387.434v1.784A.4.4,0,0,0,1387.079,924.375Z" fill="#e43a3f"/>
    <path id="Path_74" data-name="Path 74" d="M1388.863,926.149a8.892,8.892,0,1,0,8.892,8.892A8.9,8.9,0,0,0,1388.863,926.149Zm0,15.122a6.225,6.225,0,1,1,6.221-6.23A6.236,6.236,0,0,1,1388.863,941.271Z" fill="#e43a3f"/>
    <path id="Path_75" data-name="Path 75" d="M1391.006,931.407l-1.491,1.491a2.234,2.234,0,0,0-2.908,2.143,1.993,1.993,0,0,0,.1.661l-1.5,1.491,1.294,1.293,1.406-1.406a2.239,2.239,0,0,0,3.2-2.039,2.3,2.3,0,0,0-.208-.944l1.407-1.407Zm-2.143,4.531a.892.892,0,1,1,.888-.9A.895.895,0,0,1,1388.863,935.938Z" fill="#e43a3f"/>
  </g>
</svg>
