<svg version="1.0" xmlns="http://www.w3.org/2000/svg"
 width="512.000000pt" height="512.000000pt" viewBox="0 0 512.000000 512.000000"
 preserveAspectRatio="xMidYMid meet">

<g transform="translate(0.000000,512.000000) scale(0.100000,-0.100000)"
fill="#8af4b5" stroke="none">
<path d="M1230 4901 c-74 -24 -119 -63 -145 -123 -13 -33 -15 -179 -15 -1258
0 -1079 2 -1225 15 -1258 64 -152 273 -172 370 -34 l30 44 3 1226 c2 852 0
1238 -8 1264 -28 97 -158 169 -250 139z"/>
<path d="M3735 4037 c-41 -19 -95 -74 -111 -114 -16 -37 -18 -120 -5 -157 6
-13 148 -226 317 -472 170 -247 314 -467 322 -489 27 -77 -12 -191 -78 -226
-31 -17 -60 -19 -315 -19 l-281 0 -53 -26 c-132 -66 -157 -229 -51 -335 68
-68 95 -72 440 -67 274 4 288 5 362 30 99 33 159 72 237 152 155 162 209 414
136 631 -33 100 -15 71 -375 600 -342 503 -338 498 -449 502 -41 2 -78 -2 -96
-10z"/>
<path d="M2337 2750 c-75 -29 -132 -82 -169 -157 -27 -56 -32 -77 -32 -137 1
-284 342 -428 541 -229 66 66 88 123 88 228 0 78 -4 97 -27 141 -36 68 -113
136 -178 157 -68 22 -162 21 -223 -3z"/>
<path d="M1185 1693 c-56 -7 -139 -35 -199 -65 -170 -86 -277 -222 -326 -412
-24 -94 -25 -175 -5 -271 8 -38 15 -75 15 -81 0 -7 -24 -13 -55 -16 -70 -6
-129 -45 -163 -108 -19 -37 -23 -56 -20 -111 4 -77 30 -123 92 -167 l39 -27
586 -3 c404 -2 598 0 624 8 144 42 194 233 89 343 -57 60 -63 62 -362 67 -257
5 -278 7 -315 27 -77 41 -115 105 -115 193 0 145 154 250 286 195 20 -8 56
-33 81 -55 100 -88 216 -88 303 0 105 104 85 242 -51 347 -139 107 -331 159
-504 136z"/>
</g>
</svg>