<svg xmlns="http://www.w3.org/2000/svg" width="31.963" height="28.114" viewBox="0 0 31.963 28.114">
  <g id="distance-icon" transform="translate(-245.426 -555.004)">
    <g id="Group_125" data-name="Group 125">
      <path id="Path_59" data-name="Path 59" d="M276.947,561.772c-.584,4-4.375,6.829-5.145,7.367a.218.218,0,0,1-.267-.009c-.823-.643-5.225-4.279-5.225-8.392a5.357,5.357,0,0,1,5.828-5.336A5.536,5.536,0,0,1,276.947,561.772Z" fill="none" stroke="#000" stroke-linecap="round" stroke-width="0.75"/>
      <circle id="Ellipse_12" data-name="Ellipse 12" cx="2.015" cy="2.015" r="2.015" transform="translate(269.651 558.868)" fill="none" stroke="#000" stroke-linecap="round" stroke-width="0.75"/>
    </g>
    <g id="Group_126" data-name="Group 126">
      <path id="Path_60" data-name="Path 60" d="M256.438,575.284c-.6,4.141-4.647,7.028-5.215,7.415a.1.1,0,0,1-.127,0c-.594-.456-5.295-4.2-5.295-8.447a5.357,5.357,0,0,1,5.829-5.336A5.536,5.536,0,0,1,256.438,575.284Z" fill="none" stroke="#000" stroke-linecap="round" stroke-width="0.75"/>
      <circle id="Ellipse_13" data-name="Ellipse 13" cx="2.015" cy="2.015" r="2.015" transform="translate(249.143 572.38)" fill="none" stroke="#000" stroke-linecap="round" stroke-width="0.75"/>
    </g>
    <path id="Path_61" data-name="Path 61" d="M271.666,569.231h-8.927a3.281,3.281,0,0,0-3.282,3.282v.386a3.281,3.281,0,0,0,3.282,3.281h5.646a3.281,3.281,0,0,1,3.281,3.282h0a3.281,3.281,0,0,1-3.281,3.281H251.157" fill="none" stroke="#000" stroke-linecap="round" stroke-width="0.75"/>
  </g>
</svg>
