<svg xmlns="http://www.w3.org/2000/svg" width="8.403" height="14.656" viewBox="1345.996 228.139 8.403 14.656"><path d="M1350.782 241.034v1.761h-.998v-1.761c-1.528-.078-2.978-.608-3.788-1.357l.576-1.216c.733.67 1.949 1.169 3.212 1.247v-3.617c-1.715-.421-3.524-.967-3.524-3.088 0-1.543 1.107-2.884 3.524-3.087v-1.777h.998v1.761c1.169.047 2.339.39 3.165.952l-.514 1.247c-.843-.53-1.777-.826-2.651-.873v3.633c1.746.437 3.617.951 3.617 3.088 0 1.543-1.154 2.884-3.617 3.087Zm-.998-6.425v-3.367c-1.387.171-1.996.873-1.996 1.699 0 .967.874 1.372 1.996 1.668Zm3.088 3.431c0-.998-.936-1.388-2.09-1.699v3.352c1.45-.14 2.09-.811 2.09-1.653Z" fill-rule="evenodd" data-name="Path 18"/></svg>