<svg xmlns="http://www.w3.org/2000/svg" width="40.357" height="34.725" viewBox="0 0 40.357 34.725">
  <g id="email-icon" transform="translate(-296.182 -509.101)">
    <g id="email">
      <path id="vector_Stroke_" data-name="vector (Stroke)" d="M299.213,511.706a11.1,11.1,0,0,1,7.762-2.6h18.771a11.1,11.1,0,0,1,7.762,2.6c2.008,1.865,3.031,4.634,3.031,8.188v13.139c0,3.553-1.023,6.323-3.031,8.188a11.108,11.108,0,0,1-7.762,2.6H306.975a11.108,11.108,0,0,1-7.762-2.6c-2.008-1.865-3.031-4.635-3.031-8.188V519.894C296.182,516.34,297.2,513.571,299.213,511.706Z" fill="#c4c4c4" fill-rule="evenodd"/>
      <path id="vector_Stroke__2" data-name="vector (Stroke)_2" d="M330.182,517.66a1.409,1.409,0,0,1-.253,1.975l-10.412,8.046a5.164,5.164,0,0,1-6.313,0l-10.412-8.046a1.408,1.408,0,0,1,1.722-2.228l10.412,8.046a2.346,2.346,0,0,0,2.869,0l10.412-8.046A1.409,1.409,0,0,1,330.182,517.66Z" fill="#fff" fill-rule="evenodd"/>
    </g>
  </g>
</svg>
