<svg xmlns="http://www.w3.org/2000/svg" width="76.908" height="52.93" viewBox="0 0 76.908 52.93">
  <g id="email-icon" transform="translate(-1159.514 -329.982)">
    <path id="Path_46" data-name="Path 46" d="M1159.514,339.756l25.912,17.055c-.226.162-.39.294-.567.406q-12.372,7.828-24.749,15.65a4.655,4.655,0,0,1-.6.27Z" fill="#b5b5b5"/>
    <path id="Path_47" data-name="Path 47" d="M1198.034,329.982q16.644,0,33.29,0a4.794,4.794,0,0,1,4.811,3.247.92.92,0,0,1-.413,1.278q-15.639,10.252-31.239,20.562c-1.985,1.309-3.979,2.606-5.951,3.935a.8.8,0,0,1-1.054,0q-18.644-12.311-37.31-24.586a.736.736,0,0,1-.367-.969,4.775,4.775,0,0,1,4.118-3.445c.348-.031.7-.027,1.051-.028Z" fill="#b5b5b5"/>
    <path id="Path_48" data-name="Path 48" d="M1197.979,382.911q-16.65,0-33.3,0a4.786,4.786,0,0,1-4.809-3.253.857.857,0,0,1,.4-1.211q14.527-9.14,29.01-18.349a.915.915,0,0,1,1.183.022c1.886,1.279,3.819,2.489,5.691,3.787a2.9,2.9,0,0,0,3.665.02c1.916-1.323,3.886-2.567,5.818-3.867a.775.775,0,0,1,.993-.013q14.587,9.255,29.2,18.473a.72.72,0,0,1,.356.966,4.764,4.764,0,0,1-4.156,3.4c-.349.029-.7.024-1.051.024Z" fill="#b5b5b5"/>
    <path id="Path_49" data-name="Path 49" d="M1236.422,373.208l-25.88-16.366,25.88-17.057Z" fill="#b5b5b5"/>
  </g>
</svg>
