<svg xmlns="http://www.w3.org/2000/svg" width="21.874" height="16.991" viewBox="0 0 21.874 16.991">
  <g id="email-icon" transform="translate(-1755.659 -664.82)">
    <path id="email-icon-2" data-name="email-icon" d="M1758.393,681.811a2.744,2.744,0,0,1-1.744-.629,2.473,2.473,0,0,1-.186-.171,2.757,2.757,0,0,1-.8-1.934V667.555a2.759,2.759,0,0,1,.053-.531,2.7,2.7,0,0,1,.563-1.2,2.561,2.561,0,0,1,.186-.208,2.713,2.713,0,0,1,1.932-.8H1774.8a2.742,2.742,0,0,1,1.932.8,2.27,2.27,0,0,1,.181.2,2.731,2.731,0,0,1,.572,1.2,2.981,2.981,0,0,1,.049.532v11.522a2.686,2.686,0,0,1-.224,1.081,2.828,2.828,0,0,1-.576.852c-.062.061-.122.115-.187.168a2.721,2.721,0,0,1-1.747.633Zm-1.47-1.33.5.29a1.924,1.924,0,0,0,.97.258H1774.8a1.948,1.948,0,0,0,.97-.256l.5-.291L1769,674.144l-.885.77a2.31,2.31,0,0,1-3.039,0l-.884-.77Zm12.56-6.756,7.15,6.23.115-.773,0-11.8Zm-13.042,5.383.007.1.112.75,7.15-6.233-7.269-6.342Zm1.952-13.506a1.945,1.945,0,0,0-1.379.571,1.64,1.64,0,0,0-.184.216l-.21.306,8.875,7.741a1.677,1.677,0,0,0,2.2,0l8.891-7.749-.233-.309a2.053,2.053,0,0,0-.174-.2,1.934,1.934,0,0,0-1.383-.575Z"/>
  </g>
</svg>
