<svg xmlns="http://www.w3.org/2000/svg" width="37.821" height="38.581" viewBox="0 0 37.821 38.581">
  <g id="extras_and_notes_-_icon" data-name="extras and notes - icon" transform="translate(-198.697 -918.754)">
    <path id="Path_60" data-name="Path 60" d="M233.246,939.235l.95-3.546c1.109-4.139,1.664-6.209,1.246-8A7.346,7.346,0,0,0,233.311,924c-1.343-1.257-3.412-1.811-7.552-2.921s-6.209-1.663-8-1.246a7.34,7.34,0,0,0-3.691,2.132c-1.077,1.149-1.638,2.831-2.473,5.89-.141.513-.289,1.065-.448,1.661h0l-.95,3.546c-1.109,4.139-1.664,6.209-1.246,8a7.339,7.339,0,0,0,2.131,3.692c1.342,1.257,3.412,1.811,7.551,2.921h0c3.731,1,5.781,1.549,7.46,1.341a4.994,4.994,0,0,0,.54-.095,7.344,7.344,0,0,0,3.692-2.132C231.582,945.444,232.137,943.374,233.246,939.235Z" fill="none" stroke="#000" stroke-width="2"/>
    <path id="Path_61" data-name="Path 61" d="M226.093,949.013a7.327,7.327,0,0,1-1.96,3.079c-1.342,1.258-3.412,1.812-7.551,2.921s-6.209,1.664-8,1.246a7.335,7.335,0,0,1-3.692-2.131c-1.257-1.342-1.812-3.412-2.921-7.551l-.95-3.546c-1.109-4.14-1.664-6.209-1.246-8a7.342,7.342,0,0,1,2.131-3.692c1.342-1.257,3.412-1.812,7.551-2.921.784-.21,1.493-.4,2.14-.567" fill="none" stroke="#000" stroke-width="2" opacity="0.5" style="mix-blend-mode: normal;isolation: isolate"/>
    <path id="Path_62" data-name="Path 62" d="M217.58,934.376l8.865,2.375" fill="none" stroke="#000" stroke-linecap="round" stroke-width="2"/>
    <path id="Path_63" data-name="Path 63" d="M216.154,939.694l5.319,1.426" fill="none" stroke="#000" stroke-linecap="round" stroke-width="2" opacity="0.5" style="mix-blend-mode: normal;isolation: isolate"/>
  </g>
</svg>
