<svg xmlns="http://www.w3.org/2000/svg" width="16.425" height="17.5" viewBox="0 0 16.425 17.5">
  <g id="fuel-icon" transform="translate(-1298.546 -653.724)">
    <path id="Path_66" data-name="Path 66" d="M1299.866,671.224a1.313,1.313,0,0,1-1.318-1.278l0-14.913a1.365,1.365,0,0,1,1.37-1.309h8.089a1.281,1.281,0,0,1,1.3,1.239V669.9a1.326,1.326,0,0,1-1.325,1.32Zm.034-16.943a.755.755,0,0,0-.758.733V669.9a.759.759,0,0,0,.758.759h8.047a.8.8,0,0,0,.8-.739v-14.89a.8.8,0,0,0-.8-.752Z"/>
    <path id="Path_67" data-name="Path 67" d="M1313.245,671.223a1.713,1.713,0,0,1-1.71-1.7v-4.251a1.4,1.4,0,0,0-1.4-1.395h-.808a.3.3,0,1,1,0-.6h.808a1.993,1.993,0,0,1,1.991,1.991v4.236a1.115,1.115,0,1,0,2.229,0v-7.454L1312.567,658a1.564,1.564,0,0,0-1.408-.892h-.417a.3.3,0,0,1,0-.6h.413a2.163,2.163,0,0,1,1.975,1.281l1.814,4.045.027,7.678a1.711,1.711,0,0,1-1.709,1.71Z"/>
    <path id="Path_68" data-name="Path 68" d="M1301.1,657.1a.3.3,0,0,1,0-.6h5.648a.3.3,0,0,1,0,.6Z"/>
    <path id="Path_69" data-name="Path 69" d="M1301.1,659.364a.3.3,0,0,1,0-.6h5.648a.3.3,0,0,1,0,.6Z"/>
    <path id="Path_70" data-name="Path 70" d="M1310.7,658.844a.3.3,0,0,1-.3-.3v-3.389a.3.3,0,1,1,.595,0v3.389A.3.3,0,0,1,1310.7,658.844Z"/>
  </g>
</svg>
