<svg xmlns="http://www.w3.org/2000/svg" width="23.782" height="23.783" viewBox="0 0 23.782 23.783">
  <g id="google-icon" transform="translate(-1219.164 -830.64)">
    <path id="Path_21" data-name="Path 21" d="M1242.715,840.2h-.958v-.049h-10.7v4.757h6.72a7.139,7.139,0,1,1-1.987-7.707l3.364-3.363a11.88,11.88,0,1,0,3.794,8.691A12,12,0,0,0,1242.715,840.2Z" fill="#fabf2d"/>
    <path id="Path_22" data-name="Path 22" d="M1220.535,837l3.907,2.865a7.121,7.121,0,0,1,11.346-2.659l3.364-3.363A11.868,11.868,0,0,0,1220.535,837Z" fill="#e43935"/>
    <path id="Path_23" data-name="Path 23" d="M1231.055,854.423a11.838,11.838,0,0,0,7.972-3.087l-3.68-3.115a7.117,7.117,0,0,1-11-3.279l-3.877,2.987A11.882,11.882,0,0,0,1231.055,854.423Z" fill="#4cae50"/>
    <path id="Path_24" data-name="Path 24" d="M1242.715,840.2l-.01-.049h-11.65v4.757h6.72a7.154,7.154,0,0,1-2.43,3.312h0l3.68,3.114a11.5,11.5,0,0,0,3.919-8.8A12,12,0,0,0,1242.715,840.2Z" fill="#1565bf"/>
  </g>
</svg>
