<svg xmlns="http://www.w3.org/2000/svg" width="21.134" height="21.133" viewBox="0 0 21.134 21.133">
  <g id="group-tour" transform="translate(-875.472 -606.803)">
    <circle id="Ellipse_62" data-name="Ellipse 62" cx="1.609" cy="1.609" r="1.609" transform="translate(884.43 612.542)" fill="none" stroke="#222" stroke-linecap="round" stroke-width="1.073"/>
    <path id="Path_282" data-name="Path 282" d="M890.01,613.346a1.61,1.61,0,1,1-.161,1.221,1.608,1.608,0,0,1,.161-1.221Z" fill="none" stroke="#222" stroke-width="1.073"/>
    <path id="Path_283" data-name="Path 283" d="M879.281,613.346a1.612,1.612,0,1,1-.16,1.221,1.611,1.611,0,0,1,.16-1.221Z" fill="none" stroke="#222" stroke-width="1.073"/>
    <path id="Path_284" data-name="Path 284" d="M895.012,621.137l.522-.125Zm-6.72-2.5-.312-.436-.571.408.544.444Zm1.374,2.494-.525.11Zm4.419.526h-5.364v1.073h5.364Zm.4-.4a.27.27,0,0,1-.065.26.457.457,0,0,1-.34.138v1.073a1.421,1.421,0,0,0,1.449-1.722Zm-3.623-2.821a3.531,3.531,0,0,1,2.663.978,3.934,3.934,0,0,1,.96,1.843l1.044-.251a5,5,0,0,0-1.238-2.342,4.588,4.588,0,0,0-3.429-1.3Zm-2.263.636a3.77,3.77,0,0,1,2.263-.636v-1.073a4.84,4.84,0,0,0-2.887.836Zm-.651-.021a3.821,3.821,0,0,1,1.188,2.188l1.05-.221a4.871,4.871,0,0,0-1.56-2.8Zm1.188,2.188a.3.3,0,0,1-.075.276.469.469,0,0,1-.345.14v1.073a1.442,1.442,0,0,0,1.47-1.71Z" fill="#222"/>
    <path id="Path_285" data-name="Path 285" d="M883.786,618.641l.339.416.544-.444-.571-.408Zm-6.72,2.5.522.126Zm5.347,0-.525-.111h0Zm-1.2-2.693a3.767,3.767,0,0,1,2.263.636l.624-.873a4.84,4.84,0,0,0-2.887-.836Zm-3.623,2.821a3.934,3.934,0,0,1,.96-1.843,3.531,3.531,0,0,1,2.663-.978v-1.073a4.59,4.59,0,0,0-3.429,1.3,5,5,0,0,0-1.237,2.342Zm.4.4a.457.457,0,0,1-.34-.138.27.27,0,0,1-.065-.26l-1.043-.251a1.421,1.421,0,0,0,1.448,1.722Zm5.364,0h-5.364v1.073h5.364Zm0,0a.469.469,0,0,1-.345-.14.3.3,0,0,1-.074-.276l-1.05-.221a1.441,1.441,0,0,0,1.469,1.71Zm-.419-.416a3.82,3.82,0,0,1,1.187-2.188l-.678-.831a4.875,4.875,0,0,0-1.559,2.8Z" fill="#222"/>
    <path id="Path_286" data-name="Path 286" d="M886.039,617.906a3.617,3.617,0,0,1,3.627,3.229.905.905,0,0,1-.945,1.062h-5.364a.9.9,0,0,1-.944-1.062A3.617,3.617,0,0,1,886.039,617.906Z" fill="none" stroke="#222" stroke-linecap="round" stroke-width="1.073"/>
    <path id="Path_287" data-name="Path 287" d="M893.013,627.561h1.609a1.609,1.609,0,0,0,1.609-1.609v-1.609" fill="none" stroke="#000" stroke-width="0.75"/>
    <path id="Path_288" data-name="Path 288" d="M893.013,607.178h1.609a1.609,1.609,0,0,1,1.609,1.609V610.4" fill="none" stroke="#000" stroke-width="0.75"/>
    <path id="Path_289" data-name="Path 289" d="M879.066,627.561h-1.609a1.609,1.609,0,0,1-1.61-1.609v-1.609" fill="none" stroke="#000" stroke-width="0.75"/>
    <path id="Path_290" data-name="Path 290" d="M879.066,607.178h-1.609a1.609,1.609,0,0,0-1.61,1.609V610.4" fill="none" stroke="#000" stroke-width="0.75"/>
  </g>
</svg>
