<svg xmlns="http://www.w3.org/2000/svg" width="23.541" height="26.788" viewBox="0 0 23.541 26.788">
  <g id="user-icon" transform="translate(-1237.573 -759.581)">
    <path id="Path_16" data-name="Path 16" d="M1249.622,759.588a6.84,6.84,0,0,1,.743.076c.139.022.276.048.413.078.176.04.353.082.526.129.072.019.143.041.215.063a7.063,7.063,0,1,1-8.848,4.4,7.2,7.2,0,0,1,.391-.913,7.084,7.084,0,0,1,1.133-1.609,7.123,7.123,0,0,1,1.536-1.24,6.926,6.926,0,0,1,1.858-.772,7.069,7.069,0,0,1,1.38-.211Q1249.3,759.573,1249.622,759.588Z" fill="#6bc388"/>
    <path id="Path_17" data-name="Path 17" d="M1249.344,786.369h-10.826c-.661,0-.954-.3-.945-.961a10.32,10.32,0,0,1,8.651-10.01,9.275,9.275,0,0,1,1.353-.113q1.7-.025,3.4,0a10.263,10.263,0,0,1,9.765,7.546,10.485,10.485,0,0,1,.372,2.606.811.811,0,0,1-.917.937Z" fill="#6bc388"/>
  </g>
</svg>
