<svg xmlns="http://www.w3.org/2000/svg" width="329.556" height="285.665" viewBox="0 0 329.556 285.665">
  <g id="customer-care-bg" transform="translate(-143.744 -341.225)">
    <g id="Group_33" data-name="Group 33">
      <path id="Path_28" data-name="Path 28" d="M285.24,426.625a7.78,7.78,0,1,1,7.779-7.779A7.779,7.779,0,0,1,285.24,426.625Z" fill="#1c1c1c"/>
      <path id="Path_29" data-name="Path 29" d="M312.975,426.625a7.78,7.78,0,1,1,7.781-7.779A7.779,7.779,0,0,1,312.975,426.625Z" fill="#1c1c1c"/>
      <path id="Path_30" data-name="Path 30" d="M339.363,426.625a7.78,7.78,0,1,1,7.781-7.779A7.779,7.779,0,0,1,339.363,426.625Z" fill="#1c1c1c"/>
      <path id="Path_31" data-name="Path 31" d="M350.75,342.23c-45.31,4.61-62.62,21.41-74.23,43.55,9.82-5.73,22.26-9.16,35.78-9.16,31.78,0,57.54,18.91,57.54,42.23s-25.76,42.22-57.54,42.22c-26.44,0-48.72-13.09-55.45-30.92a149.056,149.056,0,0,1-15.29,25.01c-24.91,32.61-72.81,5.93-90.76,34.42-17.54,27.85,2.19,106.05,10.01,135.63a30.851,30.851,0,0,0,10.08,1.68H443.31C447.25,615.83,550.07,321.93,350.75,342.23Zm-46.8,170.91c-2.01,0-3.65-1.04-3.65-2.31s1.64-2.32,3.65-2.32,3.65,1.04,3.65,2.32S305.97,513.14,303.95,513.14Zm11.65-5.93c-3.44,0-6.23-1.76-6.23-3.94s2.79-3.95,6.23-3.95,6.22,1.77,6.22,3.95S319.03,507.21,315.6,507.21Zm8.48-11.65c-4.69,0-8.48-2.49-8.48-5.55s3.79-5.55,8.48-5.55,8.48,2.48,8.48,5.55S328.76,495.56,324.08,495.56Zm5.18-15.54c-8.09,0-14.64-3.69-14.64-8.23s6.55-8.23,14.64-8.23,14.64,3.68,14.64,8.23S337.35,480.02,329.26,480.02Zm69.83-110.85c-.99,1.21-2.96,2.68-6.5,1.97-3.24-.64-6.87-4.74-6.87-4.74s-3.69-3.41-4.04-7.59a6.71,6.71,0,0,1,3.02-5.94,1.216,1.216,0,0,1,1.42-.01c1.17.82,2.6,3.27,2.56,4.21-.07,1.76-2.19,1.96-2.35,3.25s2.31,3.95,2.31,3.95a5.189,5.189,0,0,0,3.52,2.21c1.16-.04,1.91-1.91,3.06-2.05,1.33-.15,3.42,1.64,4.03,2.43S400.08,367.96,399.09,369.17Z" fill="#1c1c1c"/>
      <g id="Group_32" data-name="Group 32">
        <path id="Path_32" data-name="Path 32" d="M177.111,350.147v11.875h11.874V350.147Zm4.644,10.581-4.2-3.709.5-.565,3.608,3.184,5.959-7.5.591.469Z" fill="#1c1c1c"/>
        <path id="Path_33" data-name="Path 33" d="M177.111,364.4v11.874h11.874V364.4Zm4.644,10.5-4.2-3.71.5-.565,3.608,3.184,5.959-7.5.591.469Z" fill="#1c1c1c"/>
        <path id="Path_34" data-name="Path 34" d="M177.111,378.645v11.874h11.874V378.645Zm10.607,10.228-.532.534L182.779,385l-4.407,4.407-.532-.534,4.407-4.4-4.407-4.407.532-.534,4.407,4.407,4.407-4.407.532.534-4.4,4.407Z" fill="#1c1c1c"/>
        <rect id="Rectangle_7" data-name="Rectangle 7" width="43.963" height="2.222" transform="translate(193.197 350.148)" fill="#1c1c1c"/>
        <rect id="Rectangle_8" data-name="Rectangle 8" width="43.963" height="2.222" transform="translate(193.197 354.055)" fill="#1c1c1c"/>
        <rect id="Rectangle_9" data-name="Rectangle 9" width="24.464" height="2.222" transform="translate(193.197 357.961)" fill="#1c1c1c"/>
        <rect id="Rectangle_10" data-name="Rectangle 10" width="43.963" height="2.222" transform="translate(193.197 364.396)" fill="#1c1c1c"/>
        <rect id="Rectangle_11" data-name="Rectangle 11" width="43.963" height="2.222" transform="translate(193.197 368.303)" fill="#1c1c1c"/>
        <rect id="Rectangle_12" data-name="Rectangle 12" width="24.464" height="2.222" transform="translate(193.197 372.21)" fill="#1c1c1c"/>
        <rect id="Rectangle_13" data-name="Rectangle 13" width="43.963" height="2.222" transform="translate(193.197 378.645)" fill="#1c1c1c"/>
        <rect id="Rectangle_14" data-name="Rectangle 14" width="43.963" height="2.222" transform="translate(193.197 382.552)" fill="#1c1c1c"/>
        <rect id="Rectangle_15" data-name="Rectangle 15" width="24.464" height="2.222" transform="translate(193.197 386.459)" fill="#1c1c1c"/>
      </g>
    </g>
  </g>
</svg>
