<svg xmlns="http://www.w3.org/2000/svg" width="18.232" height="13.119" viewBox="0 0 18.232 13.119">
  <g id="Group_39" data-name="Group 39" transform="translate(-3541.884 -630.835)">
    <g id="Group_38" data-name="Group 38">
      <path id="Path_10" data-name="Path 10" d="M3546.811,641.067l-.553.553c.237.109.482.21.731.3l.571-.572C3547.3,641.266,3547.055,641.172,3546.811,641.067Zm13.235-3.826a8.4,8.4,0,0,0-3.839-3.847l-.542.543a7.789,7.789,0,0,1,3.644,3.457c-1.329,2.7-4.635,4.505-8.292,4.51H3551a10.931,10.931,0,0,1-2.911-.392l-.587.587a11.588,11.588,0,0,0,3.5.536h.018c4-.006,7.633-2.05,9.028-5.088l.07-.153ZM3551,632.153h-.018c-4,.007-7.633,2.051-9.028,5.088l-.07.153.07.153a8.4,8.4,0,0,0,3.84,3.847l.541-.542a7.8,7.8,0,0,1-3.644-3.458c1.329-2.7,4.635-4.5,8.292-4.51H3551a10.976,10.976,0,0,1,2.912.391l.586-.586A11.557,11.557,0,0,0,3551,632.153Zm4.011.713-.57.57q.384.129.749.284l.553-.552C3555.5,633.058,3555.26,632.957,3555.011,632.866Z" fill="#707070"/>
      <path id="Path_11" data-name="Path 11" d="M3553.444,634.433l-.519.519a3.189,3.189,0,0,1,.516.517l.52-.519A3.827,3.827,0,0,0,3553.444,634.433Zm-4.885,4.887-.52.519a3.881,3.881,0,0,0,.516.517l.52-.52A3.186,3.186,0,0,1,3548.559,639.32Zm5.692-3.97-.533.534a3.109,3.109,0,0,1-4.229,4.228l-.533.534a3.84,3.84,0,0,0,5.295-5.3Zm-3.251-1.8a3.839,3.839,0,0,0-3.251,5.886l.533-.534a3.109,3.109,0,0,1,4.229-4.228l.533-.534A3.823,3.823,0,0,0,3551,633.553Zm2.444.88-.519.519a3.189,3.189,0,0,1,.516.517l.52-.519A3.827,3.827,0,0,0,3553.444,634.433Z" fill="#707070"/>
      <path id="Path_12" data-name="Path 12" d="M3557.451,631.459l-1.708,1.709-.553.552-1.229,1.23-.52.519-4.366,4.367-.52.52-.995.995-.571.572-1.924,1.923a.366.366,0,0,1-.258.108.366.366,0,0,1-.258-.624l1.709-1.71.553-.553,1.748-1.747,4.366-4.368,4.01-4.01a.365.365,0,0,1,.258-.107.365.365,0,0,1,.258.624Z" fill="#707070"/>
    </g>
  </g>
</svg>
