<svg xmlns="http://www.w3.org/2000/svg" width="22.564" height="23.123" viewBox="0 0 22.564 23.123">
  <g id="kids_-_icon" data-name="kids - icon" transform="translate(-1499.24 -805.828)">
    <path id="Path_189" data-name="Path 189" d="M1521.3,820.393a1.126,1.126,0,0,1-.629.713.951.951,0,0,1-1.112-.3c-.225-.321-.414-.666-.613-1-.306-.518-.606-1.038-.958-1.55v.237q0,4.114,0,8.23a1.155,1.155,0,0,1-.335.917,1.032,1.032,0,0,1-1.7-.5,1.728,1.728,0,0,1-.046-.437c0-1.642,0-3.284,0-4.926a1.167,1.167,0,0,0-.02-.271.4.4,0,0,0-.779.032,1.916,1.916,0,0,0-.014.294c0,1.656.01,3.312.01,4.968a1.037,1.037,0,0,1-1.186,1.1,1.014,1.014,0,0,1-.878-.815,2.3,2.3,0,0,1-.03-.4q.008-4.106.018-8.21a.466.466,0,0,0-.04-.229c-.036.056-.075.11-.108.168-.427.732-.851,1.467-1.282,2.2a.968.968,0,0,1-1.318.46.828.828,0,0,1-.312-.269c-.275-.415-.537-.837-.792-1.264-.359-.6-.707-1.209-1.091-1.867a9.928,9.928,0,0,0,.008,1.213c.2,1.558.428,3.111.645,4.666.061.441-.138.7-.67.859v.216c0,.9,0,1.8,0,2.7a1.043,1.043,0,0,1-1.031,1.12,1.029,1.029,0,0,1-1.027-.9,4.875,4.875,0,0,1-.022-.567c0-.778,0-1.557,0-2.336V824.4h-.818v.23c0,.912.007,1.824,0,2.737a1.03,1.03,0,0,1-1.423.993.965.965,0,0,1-.639-.91c-.018-.933-.015-1.866-.008-2.8,0-.18-.03-.267-.226-.314a.648.648,0,0,1-.456-.738q.248-1.823.5-3.645a10.506,10.506,0,0,0,.175-2.072.383.383,0,0,0-.046-.2c-.037.06-.075.119-.11.18-.442.757-.88,1.516-1.325,2.271a.976.976,0,0,1-1.249.48.955.955,0,0,1-.524-1.319c.16-.326.356-.635.539-.95.942-1.618,1.892-3.23,2.821-4.855a1.213,1.213,0,0,1,1.18-.676c.813.018,1.628.012,2.441,0a1.141,1.141,0,0,1,1.083.622c.882,1.531,1.774,3.055,2.663,4.581.038.066.08.129.134.215.051-.083.091-.145.128-.208q1.193-2.044,2.381-4.089a1.113,1.113,0,0,1,1.076-.624c.842.022,1.684.015,2.526,0a1,1,0,0,1,.937.53q1.705,2.913,3.4,5.832a3.474,3.474,0,0,1,.152.342Z" fill="none" stroke="#7c7c7c" stroke-width="1"/>
    <path id="Path_190" data-name="Path 190" d="M1507.856,808.558a2.24,2.24,0,0,1-.987,1.851,2.183,2.183,0,0,1-1.371.386,2.3,2.3,0,0,1-2.137-2.236,1.025,1.025,0,0,0-.288.707,4.084,4.084,0,0,0,.031.691c.062.49-.123.724-.623.759-.147.01-.293.035-.44.036a.505.505,0,0,1-.527-.446,8.846,8.846,0,0,1,.032-1.528,1.492,1.492,0,0,1,1.445-1.264c.209-.015.449.065.621-.015s.241-.315.378-.461a2.221,2.221,0,0,1,3.512.341.257.257,0,0,0,.287.14,1.837,1.837,0,0,1,1.5.458,1.555,1.555,0,0,1,.457,1.14,9.11,9.11,0,0,1-.014,1.134.527.527,0,0,1-.567.5,5.349,5.349,0,0,1-.565-.049.526.526,0,0,1-.479-.586c.013-.266.044-.531.047-.8A1.017,1.017,0,0,0,1507.856,808.558Z" fill="none" stroke="#7c7c7c" stroke-width="1"/>
    <path id="Path_191" data-name="Path 191" d="M1515.466,806.818a2.236,2.236,0,1,1-2.226,2.248A2.247,2.247,0,0,1,1515.466,806.818Z" fill="none" stroke="#7c7c7c" stroke-width="1"/>
  </g>
</svg>
