<svg xmlns="http://www.w3.org/2000/svg" width="10.823" height="15.899" viewBox="0 0 10.823 15.899">
  <g id="kids-icon" transform="translate(-1564.699 -447.761)">
    <path id="Path_87" data-name="Path 87" d="M1575.271,457.625a.82.82,0,0,1-1.183-.043c-.384-.366-.75-.749-1.133-1.115a1.2,1.2,0,0,0-.315-.153.934.934,0,0,0-.1.323q-.013,3.027-.009,6.055a1.24,1.24,0,0,1-.034.357.818.818,0,0,1-1.609-.2c-.017-.426-.009-.852-.009-1.269,0-.145.009-.3,0-.443a.767.767,0,1,0-1.533,0c-.008.145,0,.3,0,.443,0,.417.009.843-.008,1.269a.819.819,0,0,1-1.61.2,1.244,1.244,0,0,1-.034-.357q0-3.027-.008-6.055a.955.955,0,0,0-.1-.323,1.183,1.183,0,0,0-.315.153c-.384.366-.75.749-1.133,1.115a.821.821,0,0,1-1.184.043.834.834,0,0,1,.009-1.2c.758-.8,1.516-1.584,2.274-2.384a1.236,1.236,0,0,1,.919-.383c.656.008,1.312,0,1.959,0s1.3.008,1.958,0a1.237,1.237,0,0,1,.92.383c.758.8,1.516,1.584,2.274,2.384A.834.834,0,0,1,1575.271,457.625Z"/>
    <path id="Path_88" data-name="Path 88" d="M1570.11,452.763a2.5,2.5,0,1,1,2.5-2.505A2.521,2.521,0,0,1,1570.11,452.763Z"/>
  </g>
</svg>
