<svg xmlns="http://www.w3.org/2000/svg" width="15.49" height="23.322" viewBox="0 0 15.49 23.322">
  <g id="kids-icon" transform="translate(-615.421 -715.544)">
    <path id="Path_40" data-name="Path 40" d="M630.194,730.262a1.119,1.119,0,0,1-1.612-.058c-.522-.5-1.021-1.021-1.543-1.519a1.63,1.63,0,0,0-.429-.209,1.3,1.3,0,0,0-.139.441q-.016,4.122-.011,8.246a1.677,1.677,0,0,1-.047.487,1.115,1.115,0,0,1-2.192-.267c-.023-.58-.011-1.16-.011-1.728,0-.2.011-.406,0-.6a1.045,1.045,0,1,0-2.088,0c-.012.2,0,.406,0,.6,0,.568.012,1.148-.012,1.728a1.114,1.114,0,0,1-2.191.267,1.677,1.677,0,0,1-.047-.487q0-4.124-.012-8.246a1.3,1.3,0,0,0-.139-.441,1.63,1.63,0,0,0-.429.209c-.522.5-1.02,1.02-1.542,1.519a1.119,1.119,0,0,1-1.612.058,1.134,1.134,0,0,1,.011-1.635c1.032-1.09,2.065-2.157,3.1-3.248a1.69,1.69,0,0,1,1.252-.522c.893.012,1.787,0,2.668,0s1.774.012,2.667,0a1.69,1.69,0,0,1,1.253.522c1.032,1.091,2.064,2.158,3.1,3.248A1.134,1.134,0,0,1,630.194,730.262Z" fill="none" stroke="#000" stroke-linecap="round" stroke-width="0.75"/>
    <path id="Path_41" data-name="Path 41" d="M623.165,722.731a3.406,3.406,0,1,1,3.4-3.411A3.434,3.434,0,0,1,623.165,722.731Z" fill="none" stroke="#000" stroke-linecap="round" stroke-width="0.75"/>
  </g>
</svg>
