<svg xmlns="http://www.w3.org/2000/svg" width="12.423" height="19.55" viewBox="0 0 12.423 19.55">
  <g id="lagauge-icon" transform="translate(-1517.861 -471.867)">
    <path id="Path_86" data-name="Path 86" d="M1529.54,477.054h-2.03V472.3a.434.434,0,0,0-.431-.432h-6.013a.434.434,0,0,0-.432.432v4.755H1518.6a.736.736,0,0,0-.736.737v11.074a.738.738,0,0,0,.736.744h2.034v1.4a.412.412,0,0,0,.413.412h.648a.412.412,0,0,0,.413-.412v-1.4h3.931v1.4a.412.412,0,0,0,.413.412h.648a.412.412,0,0,0,.413-.412v-1.4h2.03a.745.745,0,0,0,.744-.744V477.791A.743.743,0,0,0,1529.54,477.054Zm-7.432,10.838a.412.412,0,0,1-.417.41h-.646a.407.407,0,0,1-.411-.41v-4.859a.413.413,0,0,1,.411-.418h.646a.418.418,0,0,1,.417.418Zm2.7,0a.407.407,0,0,1-.41.41h-.647a.413.413,0,0,1-.417-.41v-4.859a.419.419,0,0,1,.417-.418h.647a.413.413,0,0,1,.41.418Zm-3.365-10.838V473.7a.435.435,0,0,1,.438-.431h4.387a.434.434,0,0,1,.431.431v3.358Zm6.069,10.838a.411.411,0,0,1-.41.41h-.654a.411.411,0,0,1-.41-.41v-4.859a.418.418,0,0,1,.41-.418h.654a.418.418,0,0,1,.41.418Z"/>
  </g>
</svg>
