<svg xmlns="http://www.w3.org/2000/svg" width="14.293" height="22.063" viewBox="0 0 14.293 22.063">
  <g id="laguages-icon" transform="translate(-993.81 -716.453)">
    <g id="Group_91" data-name="Group 91">
      <rect id="Rectangle_73" data-name="Rectangle 73" width="13.543" height="13.686" rx="1.064" transform="translate(994.185 722.481)" fill="none" stroke="#000" stroke-linecap="round" stroke-width="0.75"/>
    </g>
    <g id="Group_92" data-name="Group 92">
      <path id="Rectangle_74" data-name="Rectangle 74" d="M.625,0H6.874A.625.625,0,0,1,7.5.625V5.653a0,0,0,0,1,0,0H0a0,0,0,0,1,0,0V.625A.625.625,0,0,1,.625,0Z" transform="translate(997.207 716.828)" fill="none" stroke="#000" stroke-linecap="round" stroke-width="0.75"/>
    </g>
    <line id="Line_68" data-name="Line 68" x2="7.499" transform="translate(997.207 718.35)" fill="none" stroke="#000" stroke-linecap="round" stroke-width="0.75"/>
    <path id="Rectangle_75" data-name="Rectangle 75" d="M0,0H1.607a0,0,0,0,1,0,0V1.38a.594.594,0,0,1-.594.594H.594A.594.594,0,0,1,0,1.38V0A0,0,0,0,1,0,0Z" transform="translate(997.207 736.167)" fill="none" stroke="#000" stroke-linecap="round" stroke-width="0.75"/>
    <path id="Rectangle_76" data-name="Rectangle 76" d="M0,0H1.607a0,0,0,0,1,0,0V1.38a.594.594,0,0,1-.594.594H.594A.594.594,0,0,1,0,1.38V0A0,0,0,0,1,0,0Z" transform="translate(1003.099 736.167)" fill="none" stroke="#000" stroke-linecap="round" stroke-width="0.75"/>
    <line id="Line_69" data-name="Line 69" x2="13.543" transform="translate(994.185 727.344)" fill="none" stroke="#000" stroke-linecap="round" stroke-width="0.75"/>
    <rect id="Rectangle_77" data-name="Rectangle 77" width="1.607" height="6.202" rx="0.594" transform="translate(997.207 728.546)" fill="none" stroke="#000" stroke-linecap="round" stroke-width="0.75"/>
    <rect id="Rectangle_78" data-name="Rectangle 78" width="1.607" height="6.202" rx="0.594" transform="translate(1000.153 728.546)" fill="none" stroke="#000" stroke-linecap="round" stroke-width="0.75"/>
    <rect id="Rectangle_79" data-name="Rectangle 79" width="1.607" height="6.202" rx="0.594" transform="translate(1003.099 728.546)" fill="none" stroke="#000" stroke-linecap="round" stroke-width="0.75"/>
  </g>
</svg>
