<svg xmlns="http://www.w3.org/2000/svg" width="12.177" height="18.734" viewBox="0 0 12.177 18.734">
  <g id="laguages-icon1" transform="translate(-774.626 -606.45)">
    <g id="Group_22" data-name="Group 22">
      <rect id="Rectangle_7" data-name="Rectangle 7" width="11.427" height="11.549" rx="1.064" transform="translate(775.001 611.595)" fill="none" stroke="#000" stroke-linecap="round" stroke-width="0.75"/>
    </g>
    <g id="Group_23" data-name="Group 23">
      <path id="Rectangle_8" data-name="Rectangle 8" d="M.625,0H5.7a.625.625,0,0,1,.625.625V4.77a0,0,0,0,1,0,0H0a0,0,0,0,1,0,0V.625A.625.625,0,0,1,.625,0Z" transform="translate(777.551 606.825)" fill="none" stroke="#000" stroke-linecap="round" stroke-width="0.75"/>
    </g>
    <line id="Line_12" data-name="Line 12" x2="6.328" transform="translate(777.551 608.109)" fill="none" stroke="#000" stroke-linecap="round" stroke-width="0.75"/>
    <path id="Rectangle_9" data-name="Rectangle 9" d="M0,0H1.356a0,0,0,0,1,0,0V1.071a.594.594,0,0,1-.594.594H.594A.594.594,0,0,1,0,1.071V0A0,0,0,0,1,0,0Z" transform="translate(777.551 623.144)" fill="none" stroke="#000" stroke-linecap="round" stroke-width="0.75"/>
    <path id="Rectangle_10" data-name="Rectangle 10" d="M0,0H1.356a0,0,0,0,1,0,0V1.071a.594.594,0,0,1-.594.594H.594A.594.594,0,0,1,0,1.071V0A0,0,0,0,1,0,0Z" transform="translate(782.523 623.144)" fill="none" stroke="#000" stroke-linecap="round" stroke-width="0.75"/>
    <line id="Line_13" data-name="Line 13" x2="11.427" transform="translate(775.001 615.698)" fill="none" stroke="#000" stroke-linecap="round" stroke-width="0.75"/>
    <rect id="Rectangle_11" data-name="Rectangle 11" width="1.356" height="5.233" rx="0.594" transform="translate(777.551 616.713)" fill="none" stroke="#000" stroke-linecap="round" stroke-width="0.75"/>
    <rect id="Rectangle_12" data-name="Rectangle 12" width="1.356" height="5.233" rx="0.594" transform="translate(780.037 616.713)" fill="none" stroke="#000" stroke-linecap="round" stroke-width="0.75"/>
    <rect id="Rectangle_13" data-name="Rectangle 13" width="1.356" height="5.233" rx="0.594" transform="translate(782.523 616.713)" fill="none" stroke="#000" stroke-linecap="round" stroke-width="0.75"/>
  </g>
</svg>
