<svg xmlns="http://www.w3.org/2000/svg" width="18.949" height="18.951" viewBox="1241.263 226.024 18.949 18.951"><path d="M1260.212 235.51c-.009 5.28-4.262 9.509-9.585 9.465-5.204-.042-9.367-4.272-9.364-9.487.004-5.245 4.267-9.479 9.512-9.464 5.2.015 9.446 4.283 9.437 9.486Zm-13.079-2.528a17.067 17.067 0 0 0 .001 5.036h7.208a16.968 16.968 0 0 0-.003-5.036h-7.206Zm6.934-1.278c-.005-.039-.005-.071-.013-.101-.244-.948-.581-1.857-1.103-2.689-.328-.523-.715-.994-1.247-1.325-.62-.386-1.254-.414-1.879-.027a3.77 3.77 0 0 0-.66.528c-.515.513-.88 1.132-1.154 1.799-.241.586-.436 1.192-.661 1.815h6.717Zm-6.663 7.6c.006.041.008.074.016.105.237.921.564 1.807 1.062 2.621.329.538.72 1.024 1.258 1.37.665.428 1.345.438 1.995-.01.3-.206.573-.466.811-.742.508-.589.847-1.281 1.115-2.007.16-.434.29-.88.44-1.337h-6.697Zm-1.541-1.279a17.896 17.896 0 0 1 0-5.043h-2.938a8.145 8.145 0 0 0-.001 5.043h2.939Zm12.688-5.039h-2.941c.24 1.684.237 3.358.001 5.039h2.937c.532-1.674.534-3.345.003-5.039Zm-4.746-5.096c.021.066.022.08.029.09a10.514 10.514 0 0 1 1.519 3.611c.029.136.11.121.201.121l2.308-.001c.042 0 .083-.005.15-.01-.964-1.765-2.342-3.023-4.207-3.811Zm4.212 11.406c-.867 0-1.694.002-2.522-.003-.126 0-.127.076-.147.162a10.659 10.659 0 0 1-1.46 3.489c-.026.041-.047.085-.071.127 1.851-.742 3.231-1.998 4.2-3.775Zm-10.347 3.822c-.022-.066-.024-.08-.031-.091a10.496 10.496 0 0 1-1.518-3.611c-.029-.135-.11-.121-.202-.121l-2.307.001c-.042 0-.083.006-.149.011.962 1.765 2.342 3.021 4.207 3.811Zm-.007-15.227c-1.863.792-3.246 2.048-4.204 3.821.86 0 1.682-.002 2.504.002.113.001.14-.049.16-.147a9.856 9.856 0 0 1 .802-2.321c.222-.446.476-.876.738-1.355Z" fill-rule="evenodd" data-name="Path 17"/></svg>