<svg xmlns="http://www.w3.org/2000/svg" width="44.372" height="44.379" viewBox="62.704 5133.357 44.372 44.379"><path d="M107.076 5155.57c-.022 12.365-9.981 22.266-22.445 22.165-12.187-.1-21.936-10.005-21.927-22.217.009-12.282 9.991-22.196 22.273-22.161 12.177.034 22.121 10.03 22.099 22.213Zm-30.627-5.921c-.578 3.967-.586 7.884.003 11.794h16.879c.576-3.95.585-7.867-.008-11.794H76.449Zm16.238-2.99c-.012-.093-.013-.168-.032-.24-.57-2.217-1.359-4.347-2.582-6.296-.768-1.224-1.675-2.326-2.921-3.102-1.451-.903-2.936-.97-4.4-.063a8.803 8.803 0 0 0-1.545 1.235c-1.206 1.201-2.061 2.653-2.702 4.213-.564 1.374-1.022 2.79-1.549 4.252h15.731Zm-15.604 17.794c.015.097.019.174.038.247.555 2.157 1.32 4.23 2.487 6.138.771 1.26 1.685 2.396 2.945 3.207 1.559 1.003 3.15 1.026 4.673-.023.701-.483 1.34-1.092 1.898-1.738 1.19-1.378 1.985-3 2.61-4.699.375-1.018.681-2.06 1.031-3.132H77.083Zm-3.607-2.995a41.863 41.863 0 0 1-.003-11.81h-6.879c-1.25 3.94-1.249 7.867-.001 11.81h6.883Zm29.709-11.799h-6.886c.562 3.943.555 7.864.001 11.8h6.879c1.246-3.92 1.25-7.834.006-11.8Zm-11.112-11.934c.049.154.052.187.068.212 1.708 2.598 2.907 5.413 3.556 8.456.067.318.257.283.471.283 1.802-.001 3.603 0 5.404-.002.098 0 .195-.013.352-.024-2.257-4.133-5.485-7.08-9.851-8.925Zm9.862 26.71c-2.03 0-3.967.004-5.904-.006-.296-.002-.3.178-.344.38a25.044 25.044 0 0 1-3.42 8.169c-.061.095-.111.198-.166.298 4.334-1.739 7.565-4.68 9.834-8.842Zm-24.228 8.95c-.053-.156-.057-.188-.073-.213-1.708-2.598-2.909-5.412-3.556-8.455-.067-.318-.256-.284-.471-.284-1.802.001-3.603 0-5.404.002-.098 0-.195.014-.349.026 2.252 4.134 5.485 7.074 9.853 8.924Zm-.017-35.656c-4.363 1.854-7.602 4.795-9.845 8.946 2.015 0 3.939-.004 5.863.006.265.001.327-.115.376-.344.409-1.887 1.017-3.71 1.877-5.437.52-1.044 1.115-2.05 1.729-3.171Z" fill="#8af4b5" fill-rule="evenodd" data-name="Path 42"/></svg>