<?xml version="1.0" encoding="utf-8"?>
<!-- Generator: Adobe Illustrator 16.0.0, SVG Export Plug-In . SVG Version: 6.00 Build 0)  -->
<!DOCTYPE svg PUBLIC "-//W3C//DTD SVG 1.1//EN" "http://www.w3.org/Graphics/SVG/1.1/DTD/svg11.dtd">
<svg version="1.1" id="Layer_1" xmlns="http://www.w3.org/2000/svg" xmlns:xlink="http://www.w3.org/1999/xlink" x="0px" y="0px"
	 width="25.286px" height="24.305px" viewBox="4.648 0 25.286 24.305" enable-background="new 4.648 0 25.286 24.305"
	 xml:space="preserve">
<g id="pricing-icon" transform="translate(-707.337 -200.589)">
	<path id="Path_138" fill="none" stroke="#8AF4B5" d="M707.337,222.406"/>
	<path id="Path_139" d="M726.877,224.894c-0.439,0.001-0.862-0.174-1.172-0.485L718.8,217.5l-0.076,0.36
		c-0.436,2.158-0.648,4.354-0.635,6.557c0,0.23-0.187,0.418-0.417,0.418c-0.231,0.001-0.419-0.186-0.419-0.417v-0.001
		c-0.021-2.524,0.258-5.042,0.827-7.5l0.025-0.109l-4.652-4.654c-0.646-0.646-0.646-1.692-0.001-2.339c0,0,0-0.001,0.001-0.001
		l8.739-8.741c0.646-0.646,1.693-0.646,2.34-0.001c0,0.001,0,0.001,0.001,0.001l9.676,9.677l0.111-0.284
		c0.18-0.454,0.338-0.9,0.474-1.35c0.7-2.294,0.689-3.942-0.022-4.899c-0.546-0.666-1.385-1.021-2.244-0.948
		c-0.914-0.002-1.825,0.118-2.709,0.356c-0.035,0.011-0.072,0.016-0.109,0.016c-0.231-0.001-0.419-0.188-0.418-0.42
		c0-0.188,0.126-0.354,0.308-0.403c0.955-0.257,1.94-0.387,2.93-0.385c1.113-0.098,2.204,0.358,2.918,1.219
		c0.874,1.18,0.925,3.154,0.147,5.71c-0.2,0.646-0.434,1.279-0.7,1.9l-0.051,0.124l1.941,1.942c0.309,0.311,0.482,0.73,0.482,1.169
		v8.737c-0.002,0.912-0.74,1.651-1.652,1.654L726.877,224.894z M721.972,209.187c0.229-0.001,0.417,0.185,0.418,0.414
		c0,0.112-0.044,0.22-0.124,0.298c-0.228,0.245-0.437,0.507-0.625,0.784c-0.562,0.804-1.043,1.66-1.438,2.557
		c-0.462,1.036-0.842,2.106-1.139,3.2l-0.03,0.113l7.263,7.262c0.154,0.153,0.363,0.24,0.581,0.241h8.739
		c0.452-0.001,0.818-0.366,0.818-0.818V214.5c0-0.217-0.085-0.425-0.238-0.578l-1.72-1.718l-0.123,0.251
		c-0.95,2.111-2.328,4.003-4.045,5.557c-0.178,0.146-0.441,0.121-0.588-0.058c-0.147-0.178-0.121-0.441,0.057-0.588
		c0.008-0.007,0.016-0.013,0.024-0.019c1.711-1.582,3.069-3.506,3.987-5.648l0.059-0.127l-9.906-9.905
		c-0.318-0.32-0.837-0.32-1.156-0.002c-0.001,0.001-0.001,0.001-0.001,0.002l-8.741,8.741c-0.319,0.319-0.319,0.837-0.001,1.156
		h0.001l4.309,4.312l0.101-0.32c0.272-0.906,0.603-1.794,0.989-2.657c0.418-0.947,0.927-1.852,1.52-2.7
		c0.214-0.315,0.454-0.612,0.717-0.889C721.755,209.231,721.862,209.187,721.972,209.187z M730.056,220.568
		c-1.597,0-2.891-1.294-2.891-2.891c0-1.596,1.294-2.89,2.891-2.89c0.23,0,0.418,0.188,0.417,0.418c0,0.23-0.187,0.417-0.417,0.418
		c-1.135,0-2.054,0.919-2.054,2.054s0.919,2.054,2.054,2.054c1.134,0,2.054-0.919,2.054-2.053c0-0.23,0.187-0.418,0.418-0.419
		c0.23,0,0.418,0.187,0.418,0.417c0,0.001,0,0.001,0,0.002C732.944,219.273,731.652,220.566,730.056,220.568L730.056,220.568z"/>
</g>
</svg>
