<svg xmlns="http://www.w3.org/2000/svg" width="38.301" height="22.555" viewBox="0 0 38.301 22.555">
  <g id="Group_70" data-name="Group 70" transform="translate(-695.416 -67.388)">
    <path id="Path_38" data-name="Path 38" d="M705.884,222.406" transform="translate(-3.894 -135)" fill="none" stroke="#000" stroke-width="1"/>
    <path id="Path_39" data-name="Path 39" d="M733.45,222.224h1.776a1.891,1.891,0,0,0,1.885-1.885V215.96a4.271,4.271,0,0,0-3.248-4.147l-6.634-1.69-4.777-5.7a4.272,4.272,0,0,0-3.285-1.537H707.2a4.255,4.255,0,0,0-3.545,1.907l-3.328,4.973a3.037,3.037,0,0,0-.515,1.7V219.4a1.872,1.872,0,0,0,1.414,1.827l3.415.863" transform="translate(-3.894 -135)" fill="none" stroke="#000" stroke-width="1"/>
    <path id="Path_40" data-name="Path 40" d="M708.768,218.637a2.872,2.872,0,0,1,3.009,3.036A2.934,2.934,0,0,1,709,224.44a2.879,2.879,0,0,1-3.022-3.029A2.931,2.931,0,0,1,708.768,218.637Z" transform="translate(-3.894 -135)" fill="none" stroke="#000" stroke-width="1"/>
    <path id="Path_41" data-name="Path 41" d="M729.113,224.44a2.934,2.934,0,0,1-2.772-2.767,2.872,2.872,0,0,1,3.008-3.036,2.931,2.931,0,0,1,2.786,2.774A2.879,2.879,0,0,1,729.113,224.44Z" transform="translate(-3.894 -135)" fill="none" stroke="#000" stroke-width="1"/>
    <path id="Path_42" data-name="Path 42" d="M703.295,209.269l2.212-3.325v-.025a2.085,2.085,0,0,1,1.691-.85h4.982v4.2Z" transform="translate(-3.894 -135)" fill="none" stroke="#000" stroke-width="1"/>
    <path id="Path_43" data-name="Path 43" d="M715.164,209.269v-4.2h4a2.045,2.045,0,0,1,1.606.752l2.893,3.448Z" transform="translate(-3.894 -135)" fill="none" stroke="#000" stroke-width="1"/>
    <line id="Line_6" data-name="Line 6" x2="11.893" transform="translate(709.128 86.538)" fill="none" stroke="#000" stroke-width="1"/>
  </g>
</svg>
