<svg id="Layer_1" data-name="Layer 1" xmlns="http://www.w3.org/2000/svg" viewBox="0 0 25 25"><defs><style>.cls-1{fill:none;stroke:#8af4b5;stroke-linecap:round;stroke-miterlimit:10;}</style></defs><line class="cls-1" x1="11.35" y1="4.48" x2="7.56" y2="4.48"/><path class="cls-1" d="M5.26,4.48H2.19A1.34,1.34,0,0,0,.84,5.83V21.35A1.34,1.34,0,0,0,2.19,22.7H22.81a1.34,1.34,0,0,0,1.35-1.35V5.83a1.34,1.34,0,0,0-1.35-1.35H19.74"/><line class="cls-1" x1="17.44" y1="4.48" x2="13.65" y2="4.48"/><rect class="cls-1" x="5.26" y="2.3" width="2.3" height="4.33" rx="0.93"/><rect class="cls-1" x="11.35" y="2.3" width="2.3" height="4.33" rx="0.93"/><rect class="cls-1" x="17.44" y="2.3" width="2.3" height="4.33" rx="0.93"/><line class="cls-1" x1="0.84" y1="8.12" x2="24.16" y2="8.12"/><rect class="cls-1" x="3.94" y="10.77" width="2.98" height="2.98"/><rect class="cls-1" x="11.06" y="10.77" width="2.98" height="2.98"/><rect class="cls-1" x="18.17" y="10.77" width="2.98" height="2.98"/><rect class="cls-1" x="3.94" y="16.88" width="2.98" height="2.98"/><rect class="cls-1" x="18.17" y="16.88" width="2.98" height="2.98"/><polyline class="cls-1" points="11.35 18.91 12.36 19.92 13.87 17.77"/></svg>