<svg id="Layer_1" data-name="Layer 1" xmlns="http://www.w3.org/2000/svg" viewBox="0 0 25 25"><defs><style>.cls-1{fill:none;stroke:#000;stroke-linecap:round;stroke-miterlimit:10;}</style></defs><path class="cls-1" d="M5.06,11h.62a0,0,0,0,1,0,0v7.68a0,0,0,0,1,0,0H5.06A3.26,3.26,0,0,1,1.8,15.42V14.26A3.26,3.26,0,0,1,5.06,11Z"/><path class="cls-1" d="M22.58,11h.62a0,0,0,0,1,0,0v7.68a0,0,0,0,1,0,0h-.62a3.26,3.26,0,0,1-3.26-3.26V14.26A3.26,3.26,0,0,1,22.58,11Z" transform="translate(42.53 29.67) rotate(-180)"/><path class="cls-1" d="M20.64,11V8.89A8.14,8.14,0,0,0,12.5.75h0A8.14,8.14,0,0,0,4.36,8.89V11"/><path class="cls-1" d="M15.51,21.87h1.32a3.94,3.94,0,0,0,3.87-3.19"/><circle class="cls-1" cx="13.09" cy="21.83" r="2.42"/></svg>