<svg id="Layer_1" data-name="Layer 1" xmlns="http://www.w3.org/2000/svg" viewBox="0 0 25 25"><defs><style>.cls-1{fill:none;stroke:#000;stroke-linecap:round;stroke-miterlimit:10;}</style></defs><path class="cls-1" d="M23.91,13.93V11.08l-3-.37A8.42,8.42,0,0,0,19.7,7.85l1.88-2.41-2-2L17.16,5.31A8.42,8.42,0,0,0,14.3,4.12l-.37-3H11.08l-.37,3A8.61,8.61,0,0,0,7.85,5.3L5.44,3.42l-2,2L5.31,7.85A8.37,8.37,0,0,0,4.12,10.7l-3,.37v2.85l3,.37A8.61,8.61,0,0,0,5.3,17.15L3.42,19.56l2,2,2.41-1.88a8.51,8.51,0,0,0,2.86,1.19l.37,3h2.85l.37-3a8.42,8.42,0,0,0,2.86-1.19l2.41,1.88,2-2L19.7,17.16a8.84,8.84,0,0,0,1.19-2.86Z"/><circle class="cls-1" cx="12.5" cy="12.5" r="4.07"/></svg>