<svg xmlns="http://www.w3.org/2000/svg" width="22.804" height="27.929" viewBox="0 0 22.804 27.929">
  <g id="Group_44" data-name="Group 44" transform="translate(-536.052 -199.484)">
    <path id="Path_24" data-name="Path 24" d="M547.707,212.507h-.5a5.435,5.435,0,0,1-5.43-5.429v-1.664a5.437,5.437,0,0,1,5.43-5.43h.5a5.435,5.435,0,0,1,5.429,5.43v1.664A5.435,5.435,0,0,1,547.707,212.507Z" fill="none" stroke="#8af4b5" stroke-width="1"/>
    <path id="Path_25" data-name="Path 25" d="M554.472,227.322a4.236,4.236,0,0,0,.071-.764c0-3.007-3.18-5.453-7.088-5.453s-7.089,2.446-7.089,5.453a4.236,4.236,0,0,0,.071.764" fill="none" stroke="#8af4b5" stroke-width="1"/>
    <path id="Path_26" data-name="Path 26" d="M557.724,224.546a3.23,3.23,0,0,0-.145-3.859l-1.436-1.865a7.9,7.9,0,0,0-5.317-2.846h-6.743a7.9,7.9,0,0,0-5.318,2.846l-1.435,1.865a3.228,3.228,0,0,0-.145,3.859" fill="none" stroke="#8af4b5" stroke-width="1"/>
  </g>
</svg>
