<svg xmlns="http://www.w3.org/2000/svg" width="15.041" height="20.171" viewBox="0 0 15.041 20.171">
  <g id="location-icon" transform="translate(-740.926 -605.827)">
    <path id="Path_193" data-name="Path 193" d="M755.531,613.285c0,5.194-7.084,10.11-7.084,10.11s-7.083-4.916-7.083-10.11a7.083,7.083,0,0,1,14.167,0Z" fill="none" stroke="#000" stroke-width="0.75"/>
    <circle id="Ellipse_42" data-name="Ellipse 42" cx="2.591" cy="2.591" r="2.591" transform="translate(745.857 609.742)" fill="none" stroke="#000" stroke-width="0.606"/>
    <path id="Path_194" data-name="Path 194" d="M745.082,622.565h-.01c-2.21.27-3.71.8-3.71,1.4,0,.823,2.83,1.512,6.45,1.579.21.014.43.014.64.014s.43,0,.64-.014c3.61-.067,6.44-.756,6.44-1.579,0-.607-1.51-1.134-3.72-1.4" fill="none" stroke="#000" stroke-width="0.871"/>
  </g>
</svg>
