<svg xmlns="http://www.w3.org/2000/svg" width="239.105" height="50.463" viewBox="0 0 239.105 50.463">
  <g id="Group_44" data-name="Group 44" transform="translate(-43.895 -79.47)">
    <path id="Path_58" data-name="Path 58" d="M117.54,104.7a16.022,16.022,0,0,0-15.788-16.023v-9.2a25.23,25.23,0,0,1,0,50.457v-9.2A16.025,16.025,0,0,0,117.54,104.7Z"/>
    <path id="Path_59" data-name="Path 59" d="M98.369,120.713v9.22H72.514q-.357,0-.714-.01v-9.21h.01c.231.01.469.016.7.016s.441,0,.66-.016a16.026,16.026,0,0,0-.66-32.039c-.238,0-.479.006-.714.016V79.479q.357-.009.714-.009a25.234,25.234,0,0,1,19.5,41.243Z" fill="#6bc489"/>
    <path id="Path_60" data-name="Path 60" d="M53.1,104.7A16.02,16.02,0,0,0,68.417,120.71v9.21a25.228,25.228,0,0,1,0-50.437v9.21A16.023,16.023,0,0,0,53.1,104.7Z"/>
    <g id="Group_43" data-name="Group 43">
      <path id="Path_61" data-name="Path 61" d="M174.509,129.243,162.98,111.127h-9.744v18.116h-7.274V83.953h18.459c9.676,0,15.852,5.215,15.852,13.45,0,6.587-3.706,10.911-9.813,12.557l12.489,19.283ZM153.236,105.02h10.636c5.9,0,8.784-2.4,8.784-7.411s-2.882-7.412-8.784-7.412H153.236Z"/>
      <path id="Path_62" data-name="Path 62" d="M189.538,84.57c0-2.882,1.784-4.529,4.94-4.529s4.872,1.647,4.872,4.529-1.715,4.6-4.872,4.6S189.538,87.453,189.538,84.57Zm8.577,44.673h-7.342V94.932h7.342Z"/>
      <path id="Path_63" data-name="Path 63" d="M241.209,79.492v49.751H234.69l-.412-6.519c-1.853,4.6-6.381,7.205-11.528,7.205-8.509,0-15.165-6.588-15.165-17.773,0-11.46,7.068-17.91,15.645-17.91a11.4,11.4,0,0,1,10.637,6.382V79.492Zm-7.342,32.184c0-7.205-3.775-11.46-9.264-11.46-6.108,0-9.676,4.392-9.676,11.872s3.431,11.94,9.4,11.94C230.092,124.028,233.867,119.362,233.867,111.676Z"/>
      <path id="Path_64" data-name="Path 64" d="M282.725,114.284H257.61c.618,6.381,4.323,9.813,9.95,9.813,4.6,0,7.274-1.853,8.921-4.941l5.832,2.745c-2.4,5.009-7.822,8.028-14.616,8.028-10.293,0-17.293-6.656-17.293-17.841s7-17.842,16.881-17.842c9.951,0,15.715,6.794,15.715,15.783A32.883,32.883,0,0,1,282.725,114.284Zm-24.978-5.627H275.8c-.344-5.49-3.569-8.578-8.647-8.578S258.708,103.1,257.747,108.657Z"/>
    </g>
  </g>
</svg>
