<svg xmlns="http://www.w3.org/2000/svg" width="15.613" height="17.79" viewBox="0 0 15.613 17.79">
  <g id="maintainance-icon" transform="translate(-1388.525 -653.464)">
    <path id="Path_71" data-name="Path 71" d="M1402.275,663.747l-1.267-2.535a1.209,1.209,0,0,0-1.036-.576h-7.142a1.209,1.209,0,0,0-1.037.576l-1.267,2.535-1.428,1.327a.575.575,0,0,0-.185.422v4.932a.576.576,0,0,0,.576.576h2.3c.23,0,.576-.231.576-.461v-.691h8.063v.576c0,.23.231.576.461.576h2.419a.576.576,0,0,0,.576-.576V665.5a.577.577,0,0,0-.184-.422Zm-9.33-1.959h6.911l1.152,2.3h-9.215Zm.576,5.3c0,.23-.346.461-.576.461h-2.419c-.23,0-.461-.346-.461-.576v-1.267c.115-.346.346-.576.691-.461l2.3.461c.23,0,.461.345.461.576Zm9.215-.115c0,.23-.23.576-.461.576h-2.419c-.23,0-.576-.231-.576-.461v-.806c0-.231.231-.576.461-.576l2.3-.461c.346-.115.576.115.691.461Zm1.152-10.943v1.152a1.163,1.163,0,0,1-1.171,1.152h-8.8a2.938,2.938,0,0,1-5.009-.576h2.88v-2.3h-2.88a2.936,2.936,0,0,1,5.009-.576h8.8A1.162,1.162,0,0,1,1403.888,656.029Z" fill="none" stroke="#000" stroke-width="0.5"/>
  </g>
</svg>
