<svg xmlns="http://www.w3.org/2000/svg" width="49.017" height="33.854" viewBox="0 0 49.017 33.854">
  <g id="master-card-icon" transform="translate(-1514.644 -1181.803)">
    <rect id="Rectangle_9" data-name="Rectangle 9" width="48.017" height="32.854" rx="2.948" transform="translate(1515.144 1182.303)" fill="#fff" stroke="#d9d9d9" stroke-width="1"/>
    <path id="Path_15" data-name="Path 15" d="M1532.623,1207.9v2.488h-.545v-.3a.955.955,0,0,1-.792.365,1.308,1.308,0,0,1,0-2.614.955.955,0,0,1,.792.365v-.3Zm-1.269.447a.8.8,0,1,0,.755.8A.75.75,0,0,0,1531.354,1208.351Zm19.7.8a.759.759,0,1,1,.761.8A.75.75,0,0,1,1551.05,1209.148Zm2.031-2.243v3.487h-.546v-.3a.955.955,0,0,1-.792.365,1.308,1.308,0,0,1,0-2.614.955.955,0,0,1,.792.365v-1.3Zm-13.689,1.421a.619.619,0,0,1,.634.6h-1.3A.643.643,0,0,1,1539.392,1208.326Zm-1.239.822a1.221,1.221,0,0,1,1.25-1.307,1.2,1.2,0,0,1,1.19,1.307c0,.073-.005.141-.01.208h-1.863a.7.7,0,0,0,.75.61,1.207,1.207,0,0,0,.73-.261l.267.4a1.531,1.531,0,0,1-1.028.349A1.232,1.232,0,0,1,1538.153,1209.148Zm7.834,0a.759.759,0,1,1,.761.8A.75.75,0,0,1,1545.987,1209.148Zm2.03-1.244v2.488h-.545v-.3a.956.956,0,0,1-.792.365,1.308,1.308,0,0,1,0-2.614.956.956,0,0,1,.792.365v-.3Zm-5.11,1.244a1.263,1.263,0,0,0,1.338,1.307,1.32,1.32,0,0,0,.9-.3l-.262-.437a1.1,1.1,0,0,1-.656.224.8.8,0,0,1,0-1.594,1.1,1.1,0,0,1,.656.224l.262-.437a1.32,1.32,0,0,0-.9-.3A1.263,1.263,0,0,0,1542.907,1209.148Zm6.369-.942a.742.742,0,0,1,.662-.365,1.173,1.173,0,0,1,.388.068l-.168.51a.89.89,0,0,0-.341-.062c-.357,0-.535.228-.535.64v1.4h-.546V1207.9h.54Zm-13.956-.1a1.883,1.883,0,0,0-1.023-.261c-.635,0-1.044.3-1.044.8,0,.406.3.656.865.734l.258.036c.3.042.44.12.44.261,0,.192-.2.3-.571.3a1.343,1.343,0,0,1-.835-.261l-.257.422a1.824,1.824,0,0,0,1.086.323c.724,0,1.144-.339,1.144-.812,0-.438-.33-.667-.876-.745l-.257-.037c-.236-.031-.425-.077-.425-.244s.178-.291.477-.291a1.624,1.624,0,0,1,.782.213Zm6.375.1a.74.74,0,0,1,.661-.365,1.168,1.168,0,0,1,.388.068l-.168.51a.888.888,0,0,0-.341-.062c-.356,0-.535.228-.535.64v1.4h-.545V1207.9h.54Zm-3.993-.3h-.891v-.755h-.552v.755h-.508v.494h.508v1.136c0,.577.226.921.871.921a1.284,1.284,0,0,0,.682-.193l-.157-.463a1.021,1.021,0,0,1-.483.14c-.273,0-.361-.167-.361-.416V1208.4h.891Zm-8.153.926v1.562H1529v-1.385c0-.422-.179-.656-.551-.656a.59.59,0,0,0-.614.662v1.379h-.551v-1.385c0-.422-.183-.656-.545-.656a.585.585,0,0,0-.615.662v1.379h-.55V1207.9h.546v.307a.829.829,0,0,1,.734-.37.923.923,0,0,1,.829.443.974.974,0,0,1,.881-.443A.931.931,0,0,1,1529.549,1208.83Z" fill="#231f20" fill-rule="evenodd"/>
    <path id="Path_16" data-name="Path 16" d="M1543.4,1203.676h-8.265v-14.737h8.265Z" fill="#ff5f00"/>
    <path id="Path_17" data-name="Path 17" d="M1535.664,1196.308a9.329,9.329,0,0,1,3.607-7.368,9.372,9.372,0,1,0,0,14.736,9.329,9.329,0,0,1-3.607-7.368" fill="#eb001b"/>
    <path id="Path_18" data-name="Path 18" d="M1554.553,1196.308a9.46,9.46,0,0,1-15.282,7.368,9.327,9.327,0,0,0,0-14.736,9.46,9.46,0,0,1,15.282,7.368" fill="#f79e1b"/>
  </g>
</svg>
