<svg width="24" height="20" viewBox="0 0 24 20" fill="none" xmlns="http://www.w3.org/2000/svg">
<path d="M16.4775 11.6116C16.4775 14.087 14.471 16.0942 11.9949 16.0942C9.5187 16.0942 7.51221 14.0877 7.51221 11.6116C7.51221 9.1354 9.5187 7.12891 11.9949 7.12891C14.471 7.12891 16.4775 9.1354 16.4775 11.6116ZM12.8904 8.94037H11.1738C11.1658 8.94037 11.0643 9.0419 11.0643 9.04994V10.5838C11.0643 10.5919 10.9628 10.6934 10.9547 10.6934H9.42082C9.41278 10.6934 9.31125 10.7949 9.31125 10.803V12.4099C9.31125 12.4179 9.41278 12.5195 9.42082 12.5195H11.0643V14.2725H12.8904V12.629C12.8904 12.621 12.9919 12.5195 12.9999 12.5195H14.6434V10.6934H12.9999C12.9919 10.6934 12.8904 10.5919 12.8904 10.5838V8.94037Z" fill="#0FA85B"/>
<path d="M22.9 4.66762C22.8598 4.20161 22.6531 3.6494 22.2835 3.35139C22.003 3.12495 21.6874 2.99494 21.3259 2.95476L16.2969 2.94381C16.1004 2.87953 16.2012 2.47926 16.1596 2.27766C16.0142 1.5706 15.5665 1.11847 14.8287 1.052C12.999 0.88838 10.9202 1.17325 9.06344 1.06295C8.58647 1.08706 7.9583 1.60201 7.867 2.0578C7.82098 2.28788 7.94004 2.87515 7.73041 2.94381L2.6269 2.9533C1.57508 3.11911 1.13244 3.88314 1.05428 4.88675C0.943257 6.3162 1.00096 16.4947 1.242 17.1945C1.54294 18.0695 2.38951 18.5896 3.28209 18.6605C3.4888 18.6765 4.51944 18.6108 4.56326 18.6575C4.59029 18.686 4.46685 19.1374 4.78385 19.2769C4.9241 19.339 7.02481 19.3536 7.21326 19.2996C7.60915 19.1864 7.33743 18.632 7.73625 18.6539H16.4269C16.4985 18.6663 16.4211 19.2054 16.7381 19.3003C16.9521 19.3646 18.6912 19.3507 18.9892 19.3156C19.6247 19.2404 19.3895 18.7335 19.4626 18.6568C19.5137 18.6035 20.6802 18.6729 20.9409 18.6378C21.7495 18.5282 22.5347 17.8928 22.7714 17.1083C22.9277 16.589 23.1227 7.27818 22.8985 4.66616L22.9 4.66762ZM8.97798 2.07241C9.22121 1.92705 10.6236 2.01032 11.0305 2.0074C12.1407 1.9979 13.6732 1.88761 14.7542 2.00375C14.8667 2.01616 14.969 2.02493 15.0603 2.0987C15.5686 2.5092 14.9536 4.07378 14.6666 4.56317L9.35926 4.54856C9.23436 4.5062 8.84577 3.51939 8.81728 3.33751C8.77127 3.04169 8.71575 2.22872 8.97798 2.07241ZM21.9482 14.5671C21.8985 15.7358 22.3434 17.3822 20.8087 17.7014L3.14331 17.7036C2.38439 17.4845 2.06958 16.9783 2.00384 16.2135C1.87236 14.6789 1.84242 5.85676 2.02429 4.68807C2.0966 4.22425 2.30478 4.00147 2.75472 3.87803L7.88745 3.85831C8.18327 3.97298 8.39802 5.13363 8.5872 5.3944C8.65732 5.49081 8.71137 5.52076 8.83262 5.51419H15.3291C15.4109 5.49228 15.8126 4.18189 15.9346 3.99563C15.9828 3.92258 15.9981 3.88022 16.0982 3.86123C17.7402 4.05114 19.5604 3.74947 21.1842 3.89921C21.6443 3.94157 21.8956 4.2111 21.9475 4.66981C21.9475 10.784 21.9477 14.0831 21.9482 14.5671Z" fill="#0FA85B" stroke="#0FA85B" stroke-width="0.5"/>
</svg>
