<svg xmlns="http://www.w3.org/2000/svg" width="69.632" height="52.77" viewBox="0 0 69.632 52.77">
  <g id="notification-icon" transform="translate(-1163.135 -292.459)">
    <path id="Path_34" data-name="Path 34" d="M1195.274,297.583c-.873-2.247-.625-3.609.788-4.6a3.192,3.192,0,0,1,3.7.149c1.236,1.025,1.427,2.413.549,4.459a17.043,17.043,0,0,1,7.448,3.13,16.71,16.71,0,0,1,6.79,13.3c.094,2.368.244,4.742.546,7.091a10.31,10.31,0,0,0,3.693,6.818,5.546,5.546,0,0,1,2.422,4.25,4.886,4.886,0,0,1-4.906,5.118q-18.517.031-37.033,0a4.688,4.688,0,0,1-4.555-3.1,4.59,4.59,0,0,1,1.288-5.487,13.182,13.182,0,0,0,4.853-10.026q.14-2.323.2-4.653a16.645,16.645,0,0,1,3.887-10.575A17.1,17.1,0,0,1,1195.274,297.583Z" fill="#b5b5b5"/>
    <path id="Path_35" data-name="Path 35" d="M1227.834,323.529l-1.778-1.729a17,17,0,0,0,4.109-10.781,15.729,15.729,0,0,0-4.076-10.711l1.73-1.745C1234.024,304.3,1234.791,316.446,1227.834,323.529Z" fill="#b5b5b5"/>
    <path id="Path_36" data-name="Path 36" d="M1168.093,298.438l1.642,1.918a15.643,15.643,0,0,0-4.029,10.519,16.707,16.707,0,0,0,4.025,10.779l-1.777,1.8C1161.506,317.318,1161.5,304.919,1168.093,298.438Z" fill="#b5b5b5"/>
    <path id="Path_37" data-name="Path 37" d="M1204.244,339.9a6.571,6.571,0,0,1-12.9,0Z" fill="#b5b5b5"/>
    <path id="Path_38" data-name="Path 38" d="M1173.316,303.546l1.732,1.662c-2.773,4.349-2.4,7.7,0,11.433l-1.742,1.636C1169.552,314.62,1169.547,307.53,1173.316,303.546Z" fill="#b5b5b5"/>
    <path id="Path_39" data-name="Path 39" d="M1222.609,318.329l-1.823-1.7c2.685-3.867,2.649-7.638.087-11.334.61-.62,1.177-1.194,1.745-1.767A11.177,11.177,0,0,1,1222.609,318.329Z" fill="#b5b5b5"/>
  </g>
</svg>
