<svg xmlns="http://www.w3.org/2000/svg" width="14.228" height="17.751" viewBox="0 0 14.228 17.751">
  <g id="parking-tickets-icon" transform="translate(-1475.8 -653.565)">
    <path id="Path_72" data-name="Path 72" d="M1475.8,671.316v-17.75l2.548,2.109,2.291-1.92,2.29,1.918,2.289-1.919,2.262,1.919,2.548-2.108v17.751Zm.47-.466h13.288v-16.3l-2.081,1.724-2.26-1.917-2.288,1.917-2.292-1.917-2.287,1.917-2.08-1.718Z"/>
    <path id="Path_73" data-name="Path 73" d="M1481.181,664.259v-6.371s1.8,0,2.13.006a1.77,1.77,0,0,1,.019,3.535c-.181.007-.767.007-.767.007h-.94v2.823Zm.454-3.286,1.158,0c.17,0,.341,0,.51-.008a1.3,1.3,0,0,0,1.242-1.251,1.285,1.285,0,0,0-1.112-1.345c-.194-.019-.389-.024-.587-.024l-1.211.012Z"/>
    <rect id="Rectangle_31" data-name="Rectangle 31" width="8.129" height="0.433" transform="translate(1478.851 666.254)"/>
    <rect id="Rectangle_32" data-name="Rectangle 32" width="8.128" height="0.435" transform="translate(1478.847 668.562)"/>
  </g>
</svg>
