<svg xmlns="http://www.w3.org/2000/svg" width="43.647" height="43.167" viewBox="0 0 43.647 43.167">
  <g id="number-of-adults-icon" transform="translate(-258.943 -991.591)">
    <path id="Path_40" data-name="Path 40" d="M262,1026.5c0-1.674-.009-3.348.007-5.021a.583.583,0,0,0-.4-.641,4.214,4.214,0,0,1-2.647-4.03c-.034-2.552-.011-5.106-.008-7.659a5.963,5.963,0,0,1,6.016-5.966q3.271.016,6.542,0a5.952,5.952,0,0,1,6,5.927q0,3.8,0,7.609a4.285,4.285,0,0,1-2.73,4.075.556.556,0,0,0-.4.634q.015,4.92.006,9.841a3.226,3.226,0,0,1-3.47,3.486q-2.713,0-5.426,0a3.258,3.258,0,0,1-3.489-3.482Q262,1028.888,262,1026.5Z" fill="#6bc489"/>
    <path id="Path_41" data-name="Path 41" d="M294.171,1026.619c0,1.57.01,3.067-.005,4.564a7.245,7.245,0,0,1-.126,1.791,1.9,1.9,0,0,1-2.1,1.531c-.643,0-1.285,0-1.927,0a2.115,2.115,0,0,1-2.347-2.114,14.766,14.766,0,0,1,.087-1.506c.014-1.4.005-2.8.005-4.266-.853,0-1.677.014-2.5,0a13.244,13.244,0,0,1-2.421-.121,4.692,4.692,0,0,1-2.937-6.871c1.073-1.779,2.175-3.54,3.244-5.322a1.772,1.772,0,0,0,.241-.845c.022-1.674,0-3.348.014-5.022a5.327,5.327,0,0,1,5.4-5.405q2.13-.013,4.26,0a5.287,5.287,0,0,1,5.375,5.309c.029,1.674-.007,3.348.023,5.021a2.1,2.1,0,0,0,.28.988c1.076,1.817,2.186,3.613,3.278,5.42a4.668,4.668,0,0,1-3.594,6.827c-1.231.061-2.467.019-3.7.024Z" fill="#6bc489"/>
    <path id="Path_42" data-name="Path 42" d="M273.067,996.479a4.866,4.866,0,1,1-4.84-4.888A4.847,4.847,0,0,1,273.067,996.479Z" fill="#6bc489"/>
    <path id="Path_43" data-name="Path 43" d="M286.087,996.763a4.847,4.847,0,1,1,4.816,4.863A4.866,4.866,0,0,1,286.087,996.763Z" fill="#6bc489"/>
  </g>
</svg>
