<svg xmlns="http://www.w3.org/2000/svg" width="25.773" height="42.924" viewBox="0 0 25.773 42.924">
  <g id="laguage-icon" transform="translate(-1002.058 -991.712)">
    <path id="Path_47" data-name="Path 47" d="M1025.718,1032.548c-.342,1.457-1.069,2.125-2.272,2.087a2.182,2.182,0,0,1-2.08-2.1h-12.841a2.059,2.059,0,0,1-.913,1.679,2.908,2.908,0,0,1-1.31.4c-1.125.038-1.826-.686-2.129-2.085a2.184,2.184,0,0,1-2.048-1.692,2.9,2.9,0,0,1-.064-.7q0-13.735,0-27.472a2.163,2.163,0,0,1,2.366-2.378c2.045,0,4.09,0,6.175,0V993.85c-.328,0-.658.01-.988,0a1.083,1.083,0,0,1-1.107-1.066,1.048,1.048,0,0,1,1.1-1.063q5.334-.013,10.669,0a1.052,1.052,0,0,1,1.112,1.052,1.089,1.089,0,0,1-1.146,1.079c-.314.008-.629,0-.966,0v6.443h.543c1.9,0,3.792,0,5.687,0a2.151,2.151,0,0,1,2.327,2.316q0,13.787,0,27.572C1027.83,1031.516,1027.209,1032.2,1025.718,1032.548Zm-10.775-17.232c-1.726,0-3.452-.005-5.177,0-.773,0-1.254.423-1.261,1.068s.475,1.072,1.239,1.092c.168,0,.335,0,.5,0h9.55c.134,0,.268,0,.4,0a1.1,1.1,0,0,0,1.185-1.1,1.075,1.075,0,0,0-1.164-1.062C1018.461,1015.307,1016.7,1015.317,1014.943,1015.316Zm2.122-21.44h-4.231v6.384h4.231Zm-2.14,15q2.563,0,5.126,0c.846,0,1.346-.413,1.334-1.084-.012-.653-.51-1.052-1.321-1.054-1.172,0-2.345,0-3.517,0-2.262,0-4.523,0-6.784,0a1.162,1.162,0,0,0-1.111.544,1.058,1.058,0,0,0,1,1.592C1011.407,1008.883,1013.166,1008.872,1014.925,1008.873Z" fill="#6bc489"/>
  </g>
</svg>
