<svg xmlns="http://www.w3.org/2000/svg" width="44.783" height="42.526" viewBox="0 0 44.783 42.526">
  <g id="number-of-kids-icon" transform="translate(-620.663 -991.911)">
    <path id="Path_44" data-name="Path 44" d="M665.446,1017.72a2.335,2.335,0,0,1-1.307,1.481,1.978,1.978,0,0,1-2.31-.634c-.466-.666-.859-1.384-1.273-2.086-.634-1.075-1.259-2.156-1.99-3.22v.492q0,8.549,0,17.1a2.39,2.39,0,0,1-.7,1.9,2.143,2.143,0,0,1-3.522-1.034,3.631,3.631,0,0,1-.095-.908q-.011-5.117-.006-10.232a2.41,2.41,0,0,0-.043-.564.825.825,0,0,0-1.617.068,3.874,3.874,0,0,0-.03.61c.007,3.439.021,6.879.022,10.319a2.154,2.154,0,0,1-2.464,2.284,2.1,2.1,0,0,1-1.823-1.691,4.57,4.57,0,0,1-.063-.826q.015-8.528.038-17.053a.985.985,0,0,0-.084-.476c-.075.116-.155.23-.224.349-.888,1.522-1.769,3.048-2.662,4.566a2.013,2.013,0,0,1-2.74.955,1.7,1.7,0,0,1-.646-.559c-.571-.861-1.117-1.739-1.647-2.626-.745-1.248-1.468-2.511-2.265-3.877a20.778,20.778,0,0,0,.015,2.52c.416,3.235.891,6.462,1.341,9.693.127.916-.287,1.458-1.392,1.783v.449c0,1.866.007,3.731,0,5.6a2.168,2.168,0,0,1-2.141,2.328,2.138,2.138,0,0,1-2.134-1.865,10.519,10.519,0,0,1-.046-1.178c-.005-1.618,0-3.236,0-4.854v-.491h-1.7v.477c0,1.9.014,3.79,0,5.685a2.138,2.138,0,0,1-2.956,2.062,2,2,0,0,1-1.326-1.889c-.038-1.937-.031-3.876-.018-5.814,0-.373-.062-.554-.47-.652a1.345,1.345,0,0,1-.946-1.532q.513-3.789,1.045-7.574a21.847,21.847,0,0,0,.363-4.3.811.811,0,0,0-.1-.42c-.076.125-.154.248-.228.374-.917,1.572-1.827,3.149-2.752,4.716a2.028,2.028,0,0,1-2.595,1,1.985,1.985,0,0,1-1.088-2.74c.332-.678.739-1.32,1.12-1.974,1.956-3.36,3.929-6.71,5.86-10.084a2.521,2.521,0,0,1,2.45-1.406c1.69.038,3.381.026,5.072,0a2.364,2.364,0,0,1,2.248,1.292c1.832,3.179,3.686,6.345,5.533,9.516.079.136.166.267.277.445.106-.171.19-.3.267-.432,1.65-2.83,3.306-5.657,4.945-8.493a2.311,2.311,0,0,1,2.235-1.3c1.748.046,3.5.031,5.247.005a2.072,2.072,0,0,1,1.947,1.1q3.54,6.051,7.057,12.116a6.873,6.873,0,0,1,.316.71Z" fill="#6bc489"/>
    <path id="Path_45" data-name="Path 45" d="M637.513,996.539a4.652,4.652,0,0,1-2.05,3.843,4.534,4.534,0,0,1-2.849.8,4.767,4.767,0,0,1-4.438-4.644,2.124,2.124,0,0,0-.6,1.468,8.507,8.507,0,0,0,.065,1.436c.129,1.017-.256,1.5-1.294,1.576-.3.022-.609.072-.914.074a1.048,1.048,0,0,1-1.1-.925,18.265,18.265,0,0,1,.066-3.175,3.1,3.1,0,0,1,3-2.625c.433-.031.932.134,1.289-.031.337-.156.5-.654.786-.958a4.613,4.613,0,0,1,7.294.708.532.532,0,0,0,.6.291,3.817,3.817,0,0,1,3.114.952,3.24,3.24,0,0,1,.949,2.367,18.734,18.734,0,0,1-.031,2.357,1.089,1.089,0,0,1-1.176,1.039,10.773,10.773,0,0,1-1.175-.1,1.09,1.09,0,0,1-.993-1.217c.026-.552.089-1.1.095-1.655A2.1,2.1,0,0,0,637.513,996.539Z" fill="#6bc489"/>
    <path id="Path_46" data-name="Path 46" d="M653.319,992.924a4.644,4.644,0,1,1-4.622,4.668A4.666,4.666,0,0,1,653.319,992.924Z" fill="#6bc489"/>
  </g>
</svg>
