<svg xmlns="http://www.w3.org/2000/svg" width="13.931" height="16.577" viewBox="0 0 13.931 16.577">
  <g id="passenger-icon1" transform="translate(-821.589 -607.457)">
    <path id="Path_14" data-name="Path 14" d="M835.145,621.075a2.536,2.536,0,0,1-2.337,2.565.142.142,0,0,0-.095.019H824.39c-.19-.038-.361-.076-.551-.114a2.443,2.443,0,0,1-1.863-2.375,8.532,8.532,0,0,1,.532-3.573,3.24,3.24,0,0,1,1.483-1.767,3.521,3.521,0,0,1,.4-.171,5.614,5.614,0,0,0,4.009,1.691h.076a5.785,5.785,0,0,0,4.067-1.729,2.826,2.826,0,0,1,1.824,1.482,7.3,7.3,0,0,1,.722,2.585C835.126,620.144,835.145,620.6,835.145,621.075Z" fill="none" stroke="#000" stroke-linecap="round" stroke-width="0.75"/>
    <path id="Path_15" data-name="Path 15" d="M828.463,615.454a3.811,3.811,0,1,0-3.826-3.795A3.811,3.811,0,0,0,828.463,615.454Z" fill="none" stroke="#000" stroke-linecap="round" stroke-width="0.75"/>
  </g>
</svg>
