<svg xmlns="http://www.w3.org/2000/svg" width="18.574" height="22.152" viewBox="0 0 18.574 22.152">
  <g id="passenger-icon" transform="translate(-243.823 -716.453)">
    <path id="Path_38" data-name="Path 38" d="M262.022,734.735a3.43,3.43,0,0,1-3.161,3.469.19.19,0,0,0-.128.026H247.478c-.257-.051-.488-.1-.745-.154a3.3,3.3,0,0,1-2.518-3.212,11.511,11.511,0,0,1,.719-4.831,4.383,4.383,0,0,1,2-2.39,5.014,5.014,0,0,1,.54-.231A7.594,7.594,0,0,0,252.9,729.7h.1a7.818,7.818,0,0,0,5.5-2.338,3.819,3.819,0,0,1,2.467,2,9.89,9.89,0,0,1,.977,3.495C262,733.476,262.022,734.093,262.022,734.735Z" fill="none" stroke="#000" stroke-linecap="round" stroke-width="0.75"/>
    <path id="Path_39" data-name="Path 39" d="M252.987,727.134A5.153,5.153,0,1,0,247.812,722,5.153,5.153,0,0,0,252.987,727.134Z" fill="none" stroke="#000" stroke-linecap="round" stroke-width="0.75"/>
  </g>
</svg>
