<svg xmlns="http://www.w3.org/2000/svg" width="26.533" height="26.33" viewBox="0 0 26.533 26.33">
  <g id="passengers_-_icon" data-name="passengers - icon" transform="translate(-1404.207 -802.277)">
    <path id="Path_193" data-name="Path 193" d="M1406.424,823.473c0-.94-.005-1.88,0-2.82a.328.328,0,0,0-.226-.36,2.365,2.365,0,0,1-1.486-2.263c-.019-1.434-.007-2.868,0-4.3a3.347,3.347,0,0,1,3.378-3.35q1.837.009,3.674,0a3.344,3.344,0,0,1,3.37,3.329q0,2.136,0,4.273a2.407,2.407,0,0,1-1.533,2.289.31.31,0,0,0-.224.356q.008,2.763,0,5.527a1.812,1.812,0,0,1-1.949,1.958q-1.524,0-3.048,0a1.83,1.83,0,0,1-1.959-1.956Q1406.424,824.811,1406.424,823.473Z" fill="none" stroke="#7c7c7c" stroke-width="1"/>
    <path id="Path_194" data-name="Path 194" d="M1425.483,823.538c0,.881.006,1.722,0,2.562a4.045,4.045,0,0,1-.07,1.006,1.065,1.065,0,0,1-1.178.86h-1.082a1.188,1.188,0,0,1-1.318-1.187,8.377,8.377,0,0,1,.049-.846c.008-.786,0-1.572,0-2.395-.479,0-.942.007-1.4,0a7.4,7.4,0,0,1-1.36-.068,2.635,2.635,0,0,1-1.649-3.859c.6-1,1.222-1.988,1.821-2.989a.981.981,0,0,0,.136-.474c.013-.94,0-1.88.008-2.82a2.992,2.992,0,0,1,3.03-3.036q1.2-.008,2.393,0a2.969,2.969,0,0,1,3.018,2.982c.017.94,0,1.88.013,2.82a1.191,1.191,0,0,0,.158.555c.6,1.02,1.228,2.029,1.841,3.044a2.622,2.622,0,0,1-2.019,3.834c-.691.034-1.385.011-2.078.013Z" fill="none" stroke="#7c7c7c" stroke-width="1"/>
    <path id="Path_195" data-name="Path 195" d="M1412.638,805.523a2.733,2.733,0,1,1-2.718-2.746A2.723,2.723,0,0,1,1412.638,805.523Z" fill="none" stroke="#7c7c7c" stroke-width="1"/>
    <path id="Path_196" data-name="Path 196" d="M1420.943,805.682a2.722,2.722,0,1,1,2.7,2.731A2.734,2.734,0,0,1,1420.943,805.682Z" fill="none" stroke="#7c7c7c" stroke-width="1"/>
  </g>
</svg>
