<svg xmlns="http://www.w3.org/2000/svg" width="49.017" height="33.854" viewBox="0 0 49.017 33.854">
  <g id="paypa-icon" transform="translate(-1570.718 -1181.803)">
    <rect id="Rectangle_10" data-name="Rectangle 10" width="48.017" height="32.854" rx="2.948" transform="translate(1571.218 1182.303)" fill="#fff" stroke="#d9d9d9" stroke-width="1"/>
    <path id="Path_19" data-name="Path 19" d="M1593.069,1198.945l.212-1.355-.474-.011h-2.262l1.572-10a.134.134,0,0,1,.044-.078.129.129,0,0,1,.084-.031h3.815a3.387,3.387,0,0,1,2.6.786,1.8,1.8,0,0,1,.416.782,2.808,2.808,0,0,1,0,1.079l-.005.031v.276l.214.121a1.524,1.524,0,0,1,.434.331,1.55,1.55,0,0,1,.351.791,3.335,3.335,0,0,1-.05,1.147,4.052,4.052,0,0,1-.469,1.3,2.659,2.659,0,0,1-.742.816,2.992,2.992,0,0,1-1,.453,4.974,4.974,0,0,1-1.249.144h-.3a.894.894,0,0,0-.883.756l-.023.122-.375,2.389-.017.087a.078.078,0,0,1-.024.051.061.061,0,0,1-.039.014h-1.833" fill="#28356a" fill-rule="evenodd"/>
    <path id="Path_20" data-name="Path 20" d="M1599.488,1190.181c-.011.073-.025.147-.039.224-.5,2.591-2.225,3.486-4.423,3.486h-1.119a.544.544,0,0,0-.538.461l-.735,4.679a.287.287,0,0,0,.282.332h1.986a.479.479,0,0,0,.472-.4l.019-.1.374-2.379.024-.131a.478.478,0,0,1,.472-.4h.3a3.5,3.5,0,0,0,3.869-3.05,2.6,2.6,0,0,0-.4-2.293,1.886,1.886,0,0,0-.543-.42" fill="#298fc2" fill-rule="evenodd"/>
    <path id="Path_21" data-name="Path 21" d="M1598.962,1189.97c-.077-.022-.157-.042-.238-.061s-.166-.034-.252-.048a6.2,6.2,0,0,0-.986-.072h-2.991a.477.477,0,0,0-.471.405l-.636,4.041-.019.117a.544.544,0,0,1,.538-.461h1.119c2.2,0,3.92-.9,4.423-3.486.015-.077.028-.151.039-.224a2.6,2.6,0,0,0-.414-.175l-.112-.036" fill="#22284f" fill-rule="evenodd"/>
    <path id="Path_22" data-name="Path 22" d="M1594.024,1190.194a.476.476,0,0,1,.265-.357.462.462,0,0,1,.206-.047h2.991a6.181,6.181,0,0,1,.986.072q.129.021.252.048c.081.018.161.038.238.061l.113.035a2.718,2.718,0,0,1,.413.175,2.453,2.453,0,0,0-.517-2.2,3.787,3.787,0,0,0-2.91-.928h-3.816a.547.547,0,0,0-.539.463l-1.589,10.1a.33.33,0,0,0,.324.381h2.355l1.228-7.8" fill="#28356a" fill-rule="evenodd"/>
    <path id="Path_23" data-name="Path 23" d="M1581.827,1201.7h-2.781a.385.385,0,0,0-.382.327l-1.125,7.153a.232.232,0,0,0,.229.269h1.328a.388.388,0,0,0,.382-.328l.3-1.929a.386.386,0,0,1,.381-.328h.881a2.86,2.86,0,0,0,3.166-2.651,2.155,2.155,0,0,0-.355-1.8A2.576,2.576,0,0,0,1581.827,1201.7Zm.321,2.612c-.152,1-.914,1-1.652,1h-.42l.295-1.869a.231.231,0,0,1,.229-.2h.192c.5,0,.976,0,1.221.287A.93.93,0,0,1,1582.148,1204.308Z" fill="#28356a" fill-rule="evenodd"/>
    <path id="Path_24" data-name="Path 24" d="M1590.214,1204.222h-1.333a.233.233,0,0,0-.229.2l-.059.374-.093-.136a1.894,1.894,0,0,0-1.573-.56,3.066,3.066,0,0,0-2.974,2.687,2.53,2.53,0,0,0,.5,2.052,2.081,2.081,0,0,0,1.678.68,2.547,2.547,0,0,0,1.844-.765l-.06.371a.233.233,0,0,0,.229.269h1.2a.387.387,0,0,0,.382-.327l.72-4.573A.231.231,0,0,0,1590.214,1204.222Zm-1.857,2.6a1.486,1.486,0,0,1-1.5,1.275,1.123,1.123,0,0,1-.9-.36,1.139,1.139,0,0,1-.209-.938,1.492,1.492,0,0,1,1.493-1.286,1.121,1.121,0,0,1,.888.364A1.159,1.159,0,0,1,1588.357,1206.822Z" fill="#28356a" fill-rule="evenodd"/>
    <path id="Path_25" data-name="Path 25" d="M1597.2,1204.336h-1.338a.388.388,0,0,0-.32.17l-1.847,2.728-.782-2.621a.388.388,0,0,0-.371-.277h-1.315a.234.234,0,0,0-.221.308l1.475,4.339-1.386,1.963a.232.232,0,0,0,.189.367h1.337a.385.385,0,0,0,.318-.167l4.452-6.445a.233.233,0,0,0-.191-.365" fill="#28356a" fill-rule="evenodd"/>
    <path id="Path_26" data-name="Path 26" d="M1601.668,1201.7h-2.782a.387.387,0,0,0-.382.327l-1.125,7.153a.233.233,0,0,0,.229.269h1.428a.27.27,0,0,0,.266-.23l.32-2.027a.386.386,0,0,1,.381-.328h.88a2.86,2.86,0,0,0,3.167-2.651,2.151,2.151,0,0,0-.355-1.8A2.574,2.574,0,0,0,1601.668,1201.7Zm.321,2.612c-.152,1-.915,1-1.652,1h-.42l.3-1.869a.232.232,0,0,1,.229-.2h.192c.5,0,.976,0,1.221.287A.93.93,0,0,1,1601.989,1204.308Z" fill="#298fc2" fill-rule="evenodd"/>
    <path id="Path_27" data-name="Path 27" d="M1610.052,1204.222h-1.331a.23.23,0,0,0-.228.2l-.059.374-.094-.136a1.894,1.894,0,0,0-1.573-.56,3.065,3.065,0,0,0-2.973,2.687,2.53,2.53,0,0,0,.495,2.052,2.083,2.083,0,0,0,1.678.68,2.547,2.547,0,0,0,1.844-.765l-.06.371a.233.233,0,0,0,.23.269h1.2a.388.388,0,0,0,.382-.327l.72-4.573A.233.233,0,0,0,1610.052,1204.222Zm-1.856,2.6a1.486,1.486,0,0,1-1.5,1.275,1.124,1.124,0,0,1-.9-.36,1.139,1.139,0,0,1-.209-.938,1.493,1.493,0,0,1,1.493-1.286,1.121,1.121,0,0,1,.888.364A1.152,1.152,0,0,1,1608.2,1206.822Z" fill="#298fc2" fill-rule="evenodd"/>
    <path id="Path_28" data-name="Path 28" d="M1611.512,1201.892l-1.142,7.285a.232.232,0,0,0,.229.268h1.148a.386.386,0,0,0,.381-.328l1.126-7.153a.231.231,0,0,0-.228-.268h-1.286a.231.231,0,0,0-.228.2" fill="#298fc2" fill-rule="evenodd"/>
  </g>
</svg>
