<svg xmlns="http://www.w3.org/2000/svg" width="16.409" height="18.388" viewBox="0 0 16.409 18.388">
  <g id="personal-driver-icon" transform="translate(-634.07 -353.291)">
    <path id="Path_18" data-name="Path 18" d="M642.107,361.047a3.327,3.327,0,0,1-3.324-3.323v-1.111a3.328,3.328,0,0,1,3.324-3.322h.336a3.326,3.326,0,0,1,3.323,3.322v1.111a3.327,3.327,0,0,1-3.323,3.323Zm0-7.09a2.66,2.66,0,0,0-2.657,2.656v1.111a2.659,2.659,0,0,0,2.657,2.656h.336a2.659,2.659,0,0,0,2.657-2.656v-1.111a2.66,2.66,0,0,0-2.657-2.656Z"/>
    <path id="Path_19" data-name="Path 19" d="M636.967,371.679a.331.331,0,0,1-.325-.273,3.878,3.878,0,0,1-.063-.685c0-2.538,2.555-4.6,5.7-4.6s5.7,2.066,5.7,4.6a3.9,3.9,0,0,1-.063.686.332.332,0,0,1-.327.272.364.364,0,0,1-.275-.144.324.324,0,0,1-.053-.249,3.2,3.2,0,0,0,.052-.565c0-2.171-2.257-3.938-5.03-3.938s-5.03,1.767-5.03,3.938a3.2,3.2,0,0,0,.052.565.329.329,0,0,1-.053.249.333.333,0,0,1-.214.138Z"/>
    <path id="Path_20" data-name="Path 20" d="M634.9,370.064a.334.334,0,0,1-.277-.148,3.1,3.1,0,0,1,.134-3.7l.958-1.244a6.246,6.246,0,0,1,4.237-2.274l4.613,0a6.261,6.261,0,0,1,4.276,2.276l.958,1.244a3.1,3.1,0,0,1,.134,3.7.333.333,0,0,1-.278.148.322.322,0,0,1-.184-.057.332.332,0,0,1-.091-.461,2.447,2.447,0,0,0-.108-2.924l-.959-1.245a5.568,5.568,0,0,0-3.749-2.014l-4.536,0a5.587,5.587,0,0,0-3.786,2.016l-.958,1.245a2.447,2.447,0,0,0-.108,2.924.333.333,0,0,1-.276.518Z"/>
  </g>
</svg>
