<svg xmlns="http://www.w3.org/2000/svg" width="14.024" height="15.653" viewBox="0 0 14.024 15.653">
  <g id="personal-driver-icon" transform="translate(-1403.791 -200.257)">
    <path id="Path_160" data-name="Path 160" d="M1413.77,207.145h-.278a2.99,2.99,0,0,1-2.986-2.986v-.916a2.989,2.989,0,0,1,2.986-2.986h.278a2.989,2.989,0,0,1,2.986,2.986v.916A2.99,2.99,0,0,1,1413.77,207.145Zm-.278-5.845a1.945,1.945,0,0,0-1.943,1.943v.916a1.945,1.945,0,0,0,1.943,1.943h.278a1.945,1.945,0,0,0,1.943-1.943v-.916a1.945,1.945,0,0,0-1.943-1.943Z" transform="translate(-2.828)"/>
    <path id="Path_161" data-name="Path 161" d="M1416.683,223.6a.48.48,0,0,1-.095-.009.522.522,0,0,1-.419-.607,2.308,2.308,0,0,0,.039-.421c0-1.653-1.749-3-3.9-3s-3.9,1.345-3.9,3a2.309,2.309,0,0,0,.039.421.522.522,0,0,1-1.026.189,3.348,3.348,0,0,1-.056-.61c0-2.229,2.217-4.042,4.942-4.042s4.942,1.814,4.942,4.042a3.392,3.392,0,0,1-.056.61A.522.522,0,0,1,1416.683,223.6Z" transform="translate(-1.506 -7.692)"/>
    <path id="Path_162" data-name="Path 162" d="M1416.885,220.217a.522.522,0,0,1-.434-.812,1.775,1.775,0,0,0-.079-2.122l-.79-1.026a4.345,4.345,0,0,0-2.925-1.565h-3.708a4.341,4.341,0,0,0-2.925,1.565l-.79,1.026a1.774,1.774,0,0,0-.079,2.122.522.522,0,0,1-.868.58,2.792,2.792,0,0,1,.12-3.339l.79-1.026a5.393,5.393,0,0,1,3.659-1.969.538.538,0,0,1,.061,0h3.771a.534.534,0,0,1,.061,0,5.4,5.4,0,0,1,3.66,1.969l.79,1.026a2.793,2.793,0,0,1,.12,3.339A.522.522,0,0,1,1416.885,220.217Z" transform="translate(0 -5.64)"/>
  </g>
</svg>
