<svg xmlns="http://www.w3.org/2000/svg" width="23.222" height="16.22" viewBox="0 0 23.222 16.22">
  <g id="earnings-icon" transform="translate(-1279.729 -205.24)">
    <path id="Path_14" data-name="Path 14" d="M1300.261,216.62h.01c1.37.45,2.18,1.01,2.18,1.62,0,1.51-4.97,2.72-11.11,2.72s-11.11-1.21-11.11-2.72c0-.61.81-1.17,2.18-1.62h.01" fill="none" stroke="#000" stroke-width="1"/>
    <path id="Path_15" data-name="Path 15" d="M1300.261,213.36h.01c1.37.45,2.18,1.01,2.18,1.62s-.81,1.18-2.19,1.64a37.043,37.043,0,0,1-17.84,0c-1.38-.46-2.19-1.02-2.19-1.64s.81-1.17,2.18-1.62h.01" fill="none" stroke="#000" stroke-width="1"/>
    <path id="Path_16" data-name="Path 16" d="M1282.421,210.1c-1.38.45-2.19,1.01-2.19,1.62s.81,1.18,2.19,1.64a37.043,37.043,0,0,0,17.84,0c1.38-.46,2.19-1.02,2.19-1.64s-.81-1.17-2.19-1.62" fill="none" stroke="#000" stroke-width="1"/>
    <ellipse id="Ellipse_1" data-name="Ellipse 1" cx="11.111" cy="2.723" rx="11.111" ry="2.723" transform="translate(1280.229 205.74)" fill="none" stroke="#000" stroke-width="1"/>
  </g>
</svg>
