<svg xmlns="http://www.w3.org/2000/svg" width="21.166" height="21.167" viewBox="0 0 21.166 21.167">
  <g id="verified-icon" transform="translate(-616.4 -231.218)">
    <path id="Path_39" data-name="Path 39" d="M624.434,232.488a5.81,5.81,0,0,1-.524.422,2.886,2.886,0,0,1-1.042.432,6.136,6.136,0,0,1-.669.072h0a6.879,6.879,0,0,0-1.626.227,2.87,2.87,0,0,0-1.751,1.751,6.832,6.832,0,0,0-.226,1.626h0a5.924,5.924,0,0,1-.072.669,2.877,2.877,0,0,1-.432,1.042,6.085,6.085,0,0,1-.421.524h0a6.907,6.907,0,0,0-.99,1.31,2.872,2.872,0,0,0,0,2.476,6.844,6.844,0,0,0,.99,1.31h0a6.243,6.243,0,0,1,.421.524,2.874,2.874,0,0,1,.432,1.043,5.867,5.867,0,0,1,.072.669h0a6.841,6.841,0,0,0,.226,1.626,2.872,2.872,0,0,0,1.751,1.751,6.84,6.84,0,0,0,1.626.226h0a6.069,6.069,0,0,1,.669.073,2.851,2.851,0,0,1,1.042.432,5.937,5.937,0,0,1,.524.421,6.906,6.906,0,0,0,1.31.99,2.874,2.874,0,0,0,2.477,0,6.908,6.908,0,0,0,1.31-.99,5.938,5.938,0,0,1,.524-.421,2.851,2.851,0,0,1,1.042-.432,6.1,6.1,0,0,1,.669-.073h0a6.84,6.84,0,0,0,1.626-.226,2.872,2.872,0,0,0,1.751-1.751,6.879,6.879,0,0,0,.227-1.626h0a5.85,5.85,0,0,1,.072-.669,2.872,2.872,0,0,1,.432-1.043,6.239,6.239,0,0,1,.421-.524,6.844,6.844,0,0,0,.99-1.31,2.872,2.872,0,0,0,0-2.476,6.907,6.907,0,0,0-.99-1.31,6.081,6.081,0,0,1-.421-.524,2.875,2.875,0,0,1-.432-1.042,5.906,5.906,0,0,1-.072-.669h0a6.861,6.861,0,0,0-.227-1.626,2.87,2.87,0,0,0-1.751-1.751,6.879,6.879,0,0,0-1.626-.227h0a6.17,6.17,0,0,1-.669-.072,2.886,2.886,0,0,1-1.042-.432,5.812,5.812,0,0,1-.524-.422,6.846,6.846,0,0,0-1.31-.989,2.868,2.868,0,0,0-2.477,0,6.844,6.844,0,0,0-1.31.989Z" fill="#e4efe6"/>
    <path id="Path_40" data-name="Path 40" d="M631.611,239.54a.862.862,0,0,0-1.218-1.219l-5.133,5.134-1.688-1.688a.861.861,0,0,0-1.218,1.218l2.3,2.3a.862.862,0,0,0,1.218,0Z" fill="#25a057"/>
  </g>
</svg>
