<svg xmlns="http://www.w3.org/2000/svg" width="45.131" height="23.476" viewBox="0 0 45.131 23.476">
  <g id="reviews-icon" transform="translate(-1092.176 -201.819)">
    <path id="Path_19" data-name="Path 19" d="M1107.141,214.685l-1.23,1.2,1,5.81-5.22-2.74-5.22,2.74,1-5.81-4.22-4.12,5.83-.84,2.61-5.29,2.61,5.29.32.05" fill="none" stroke="#000" stroke-width="1"/>
    <path id="Path_20" data-name="Path 20" d="M1124.881,210.965l.29-.04,2.61-5.29,2.61,5.29,5.84.84-4.23,4.12,1,5.81-5.22-2.74-5.22,2.74,1-5.81-1.2-1.17" fill="none" stroke="#000" stroke-width="1"/>
    <path id="Path_21" data-name="Path 21" d="M1114.769,202.949l3.482,7.055,7.786,1.131-5.634,5.492,1.33,7.754-6.964-3.661-6.964,3.661,1.33-7.754-5.634-5.492,7.786-1.131Z" fill="none" stroke="#000" stroke-width="1"/>
  </g>
</svg>
