<svg xmlns="http://www.w3.org/2000/svg" width="38.301" height="22.555" viewBox="0 0 38.301 22.555">
  <g id="vehicle-icon" transform="translate(-1451.636 -202.388)">
    <path id="Path_22" data-name="Path 22" d="M1485.776,222.224h1.776a1.891,1.891,0,0,0,1.885-1.885V215.96a4.27,4.27,0,0,0-3.248-4.147l-6.633-1.69-4.778-5.7a4.271,4.271,0,0,0-3.284-1.537h-11.97a4.255,4.255,0,0,0-3.545,1.907l-3.328,4.973a3.037,3.037,0,0,0-.515,1.7V219.4a1.872,1.872,0,0,0,1.414,1.827l3.415.863" fill="none" stroke="#000" stroke-width="1"/>
    <path id="Path_23" data-name="Path 23" d="M1461.094,218.637a2.872,2.872,0,0,1,3.009,3.036,2.935,2.935,0,0,1-2.773,2.767,2.879,2.879,0,0,1-3.022-3.029A2.932,2.932,0,0,1,1461.094,218.637Z" fill="none" stroke="#000" stroke-width="1"/>
    <path id="Path_24" data-name="Path 24" d="M1481.439,224.44a2.934,2.934,0,0,1-2.772-2.767,2.872,2.872,0,0,1,3.008-3.036,2.931,2.931,0,0,1,2.786,2.774A2.879,2.879,0,0,1,1481.439,224.44Z" fill="none" stroke="#000" stroke-width="1"/>
    <path id="Path_25" data-name="Path 25" d="M1455.622,209.269l2.211-3.325v-.025a2.085,2.085,0,0,1,1.691-.85h4.982v4.2Z" fill="none" stroke="#000" stroke-width="1"/>
    <path id="Path_26" data-name="Path 26" d="M1467.49,209.269v-4.2h4a2.044,2.044,0,0,1,1.6.752l2.893,3.448Z" fill="none" stroke="#000" stroke-width="1"/>
    <line id="Line_1" data-name="Line 1" x2="11.893" transform="translate(1465.348 221.538)" fill="none" stroke="#000" stroke-width="1"/>
  </g>
</svg>
