<svg xmlns="http://www.w3.org/2000/svg" width="18.94" height="33.193" viewBox="0 0 18.94 33.193">
  <g id="promotion-code-icon" transform="translate(-249.21 -1024.952)">
    <path id="Path_49" data-name="Path 49" d="M250.932,1042.886h15.5v-10.375l-6.658-5.448a1.721,1.721,0,0,0-2.18,0l-6.658,5.448Zm0,1.722v3.443h15.5v-3.443Zm9.928-18.878,6.973,5.706a.862.862,0,0,1,.317.667v16.809a.86.86,0,0,1-.861.861H250.071a.861.861,0,0,1-.861-.861V1032.1a.861.861,0,0,1,.316-.667l6.973-5.706a3.443,3.443,0,0,1,4.361,0Z"/>
    <path id="Path_50" data-name="Path 50" d="M258.68,1056.422a1.721,1.721,0,1,0-1.722-1.721A1.722,1.722,0,0,0,258.68,1056.422Zm0,1.722a3.444,3.444,0,1,1,3.444-3.443A3.443,3.443,0,0,1,258.68,1058.144Z"/>
  </g>
</svg>
