<svg xmlns="http://www.w3.org/2000/svg" width="7.929" height="17.635" viewBox="0 0 7.929 17.635">
  <g id="refreshment-icon" transform="translate(-1562.455 -653.565)">
    <path id="Path_74" data-name="Path 74" d="M1563.765,671.2a1.312,1.312,0,0,1-1.31-1.31v-5.209a1.317,1.317,0,0,1,.437-.977l.093-.083v-2.128l-.094-.084a1.313,1.313,0,0,1-.436-.975V658.31a2.375,2.375,0,0,1,1.9-2.325l.227-.046v-1.6a.779.779,0,0,1,.779-.778h2.124a.779.779,0,0,1,.779.778v1.6l.226.046a2.377,2.377,0,0,1,1.9,2.325v2.124a1.307,1.307,0,0,1-.437.974l-.095.085v2.128l.095.083a1.317,1.317,0,0,1,.437.977v5.209a1.312,1.312,0,0,1-1.31,1.31Zm-.814-1.31a.816.816,0,0,0,.814.815h5.309a.817.817,0,0,0,.814-.813l0-2.309h-6.935Zm.814-6.024a.816.816,0,0,0-.814.815v2.407h6.936v-2.407a.814.814,0,0,0-.813-.815Zm-.283-.5h5.875v-1.627h-5.875Zm1.344-6.936a1.877,1.877,0,0,0-1.875,1.875v2.124a.814.814,0,0,0,.814.813h5.309a.815.815,0,0,0,.814-.814V658.31a1.88,1.88,0,0,0-1.877-1.875Zm.248-.5h2.69V654.06h-2.69Z"/>
  </g>
</svg>
