<svg width="83" height="71" viewBox="0 0 83 71" fill="none" xmlns="http://www.w3.org/2000/svg">
<path d="M83.0001 24.9967C82.9984 23.8568 82.5446 22.764 81.7384 21.9581C80.9322 21.1522 79.8393 20.6989 78.6993 20.6976H74.7325C73.9868 20.6984 73.2542 20.8931 72.6065 21.2626C71.9588 21.6321 71.4183 22.1636 71.038 22.805L67.4813 13.0622C66.9006 11.4766 65.8483 10.1069 64.4659 9.13717C63.0835 8.16746 61.4373 7.6443 59.7487 7.63804H53.2109L52.3274 4.177C52.0646 3.14519 51.4655 2.23038 50.6246 1.57717C49.7838 0.923946 48.7493 0.569577 47.6845 0.570069H35.3156C34.2509 0.569577 33.2163 0.923946 32.3755 1.57717C31.5347 2.23038 30.9356 3.14519 30.6728 4.177L29.7893 7.63804H23.2514C21.5628 7.6443 19.9167 8.16746 18.5343 9.13717C17.1519 10.1069 16.0995 11.4766 15.5188 13.0622L11.9654 22.8001C11.5842 22.1592 11.0429 21.6283 10.3946 21.2597C9.74638 20.8911 9.0134 20.6974 8.26765 20.6976H4.30084C3.17317 20.7194 2.09907 21.1828 1.30931 21.988C0.519552 22.7932 0.0771484 23.8761 0.0771484 25.004C0.0771484 26.1319 0.519552 27.2148 1.30931 28.02C2.09907 28.8252 3.17317 29.2886 4.30084 29.3104H4.92658C4.01122 30.1586 3.28109 31.1869 2.78201 32.3306C2.28294 33.4744 2.0257 34.709 2.02644 35.9569V53.3075C2.02845 54.8771 2.63666 56.3852 3.7241 57.517C4.81153 58.6489 6.29414 59.3169 7.86238 59.3817V65.0021C7.86238 66.5928 8.49432 68.1185 9.61917 69.2433C10.744 70.3682 12.2696 71.0001 13.8604 71.0001C15.4512 71.0001 16.9768 70.3682 18.1017 69.2433C19.2265 68.1185 19.8585 66.5928 19.8585 65.0021V59.3866H63.1417V65.0021C63.1417 66.5928 63.7736 68.1185 64.8985 69.2433C66.0233 70.3682 67.5489 71.0001 69.1397 71.0001C70.7305 71.0001 72.2561 70.3682 73.381 69.2433C74.5058 68.1185 75.1378 66.5928 75.1378 65.0021V59.3817C76.706 59.3169 78.1886 58.6489 79.2761 57.517C80.3635 56.3852 80.9717 54.8771 80.9737 53.3075V35.9521C80.9745 34.7041 80.7172 33.4696 80.2181 32.3258C79.7191 31.182 78.9889 30.1538 78.0736 29.3056H78.6993C79.8407 29.3034 80.9346 28.8485 81.7409 28.0407C82.5472 27.2328 83.0001 26.1381 83.0001 24.9967ZM33.0282 4.77843C33.1567 4.26903 33.4514 3.81705 33.8657 3.49405C34.28 3.17106 34.7903 2.99552 35.3156 2.99522H47.6845C48.2099 2.99552 48.7201 3.17106 49.1344 3.49405C49.5487 3.81705 49.8435 4.26903 49.9719 4.77843L50.7014 7.63804H32.2987L33.0282 4.77843ZM17.8029 13.8955C18.2128 12.7784 18.9543 11.8132 19.9281 11.1294C20.9019 10.4456 22.0615 10.0759 23.2514 10.0697H30.501C30.6514 10.0989 30.806 10.0989 30.9565 10.0697H52.0453C52.12 10.0851 52.196 10.0933 52.2722 10.094C52.3474 10.0929 52.4223 10.0848 52.496 10.0697H59.7487C60.939 10.0745 62.0992 10.4437 63.0732 11.1277C64.0473 11.8117 64.7886 12.7776 65.1972 13.8955L69.9341 26.8788H13.0661L17.8029 13.8955ZM4.30084 26.8788C3.81315 26.8645 3.35025 26.6606 3.01037 26.3106C2.67048 25.9606 2.48037 25.4919 2.48037 25.004C2.48037 24.5161 2.67048 24.0474 3.01037 23.6974C3.35025 23.3474 3.81315 23.1436 4.30084 23.1292H8.26765C8.76268 23.1301 9.23719 23.3271 9.58723 23.6771C9.93727 24.0272 10.1343 24.5017 10.1352 24.9967V26.8788H4.30084ZM17.4268 65.0021C17.4268 65.9479 17.0511 66.8551 16.3823 67.5239C15.7134 68.1927 14.8063 68.5685 13.8604 68.5685C12.9146 68.5685 12.0074 68.1927 11.3386 67.5239C10.6698 66.8551 10.294 65.9479 10.294 65.0021V59.3866H17.4268V65.0021ZM72.7061 65.0021C72.7061 65.9479 72.3304 66.8551 71.6616 67.5239C70.9927 68.1927 70.0856 68.5685 69.1397 68.5685C68.1939 68.5685 67.2867 68.1927 66.6179 67.5239C65.9491 66.8551 65.5733 65.9479 65.5733 65.0021V59.3866H72.7061V65.0021ZM78.5421 35.9521V53.3075C78.5412 54.2746 78.1566 55.2018 77.4728 55.8857C76.789 56.5695 75.8617 56.9541 74.8946 56.9549H74.2948C74.0523 56.8772 73.7916 56.8772 73.5491 56.9549H64.7303C64.4879 56.8772 64.2271 56.8772 63.9846 56.9549H19.0155C18.773 56.8772 18.5123 56.8772 18.2698 56.9549H9.45105C9.20857 56.8772 8.94783 56.8772 8.70535 56.9549H8.10554C7.13844 56.9541 6.21119 56.5695 5.52735 55.8857C4.8435 55.2018 4.45894 54.2746 4.45808 53.3075V35.9521C4.45808 34.1893 5.15834 32.4987 6.40479 31.2523C7.65125 30.0058 9.34181 29.3056 11.1046 29.3056H71.9004C73.6624 29.3069 75.3517 30.0077 76.5971 31.254C77.8425 32.5003 78.5421 34.1901 78.5421 35.9521ZM72.8682 26.8739V24.9967C72.8691 24.5022 73.0657 24.0282 73.415 23.6783C73.7644 23.3283 74.238 23.1309 74.7325 23.1292H78.7026C79.1902 23.1436 79.6531 23.3474 79.993 23.6974C80.3329 24.0474 80.523 24.5161 80.523 25.004C80.523 25.4919 80.3329 25.9606 79.993 26.3106C79.6531 26.6606 79.1902 26.8645 78.7026 26.8788L72.8682 26.8739ZM20.2637 35.4139H11.8584C10.9227 35.4147 10.0255 35.7868 9.36386 36.4485C8.70221 37.1101 8.33011 38.0073 8.32926 38.943V40.4976C8.33011 41.4333 8.70221 42.3305 9.36386 42.9921C10.0255 43.6538 10.9227 44.0259 11.8584 44.0267H20.2637C21.1993 44.0254 22.0962 43.6532 22.7578 42.9916C23.4194 42.3301 23.7916 41.4332 23.7929 40.4976V38.943C23.792 38.0073 23.4199 37.1101 22.7583 36.4485C22.0966 35.7868 21.1995 35.4147 20.2637 35.4139ZM21.3612 40.4976C21.3608 40.7885 21.245 41.0674 21.0393 41.2732C20.8336 41.4789 20.5547 41.5947 20.2637 41.5951H11.8584C11.5674 41.5947 11.2885 41.4789 11.0828 41.2732C10.8771 41.0674 10.7613 40.7885 10.7609 40.4976V38.943C10.7613 38.652 10.8771 38.3731 11.0828 38.1674C11.2885 37.9617 11.5674 37.8459 11.8584 37.8455H20.2637C20.5547 37.8459 20.8336 37.9617 21.0393 38.1674C21.245 38.3731 21.3608 38.652 21.3612 38.943V40.4976ZM31.2499 14.1516C31.1372 14.0385 31.0033 13.9487 30.8559 13.8875C30.7085 13.8262 30.5504 13.7947 30.3907 13.7947C30.2311 13.7947 30.073 13.8262 29.9255 13.8875C29.7781 13.9487 29.6442 14.0385 29.5315 14.1516L26.834 16.8556C26.7182 16.968 26.6259 17.1024 26.5626 17.2509C26.4992 17.3993 26.4661 17.5589 26.4651 17.7204C26.4641 17.8818 26.4952 18.0418 26.5567 18.1911C26.6182 18.3403 26.7088 18.4758 26.8232 18.5897C26.9376 18.7036 27.0736 18.7935 27.2231 18.8543C27.3727 18.9151 27.5328 18.9455 27.6942 18.9437C27.8556 18.9419 28.0151 18.9081 28.1633 18.844C28.3114 18.78 28.4454 18.6871 28.5573 18.5707L31.2515 15.8651C31.4775 15.6369 31.6038 15.3285 31.6029 15.0073C31.602 14.6862 31.4739 14.3785 31.2467 14.1516H31.2499ZM36.3418 15.3755L29.9384 21.8048C29.8257 21.9179 29.7364 22.0522 29.6755 22.1998C29.6147 22.3475 29.5835 22.5057 29.5838 22.6654C29.5844 22.988 29.7132 23.2971 29.9417 23.5248C30.1702 23.7524 30.4798 23.88 30.8023 23.8794C31.1249 23.8787 31.434 23.75 31.6617 23.5215L38.065 17.0906C38.1808 16.9782 38.2731 16.8438 38.3364 16.6953C38.3998 16.5469 38.4329 16.3873 38.4339 16.2258C38.4349 16.0644 38.4038 15.9044 38.3423 15.7552C38.2808 15.6059 38.1902 15.4704 38.0758 15.3565C37.9614 15.2426 37.8255 15.1527 37.6759 15.0919C37.5264 15.0311 37.3662 15.0007 37.2048 15.0025C37.0434 15.0043 36.8839 15.0382 36.7358 15.1022C36.5876 15.1662 36.4536 15.2592 36.3418 15.3755ZM71.1418 35.4139H62.7364C61.8007 35.4147 60.9035 35.7868 60.2419 36.4485C59.5802 37.1101 59.2081 38.0073 59.2073 38.943V40.4976C59.2086 41.4332 59.5808 42.3301 60.2424 42.9916C60.9039 43.6532 61.8008 44.0254 62.7364 44.0267H71.145C72.0809 44.0259 72.9782 43.6538 73.6401 42.9922C74.302 42.3306 74.6745 41.4335 74.6758 40.4976V38.943C74.6745 38.0065 74.3016 37.1089 73.639 36.4472C72.9763 35.7855 72.0782 35.4139 71.1418 35.4139ZM72.2409 40.4976C72.2404 40.7888 72.1245 41.068 71.9184 41.2737C71.7123 41.4795 71.433 41.5951 71.1418 41.5951H62.7364C62.4455 41.5947 62.1666 41.4789 61.9608 41.2732C61.7551 41.0674 61.6394 40.7885 61.6389 40.4976V38.943C61.6394 38.652 61.7551 38.3731 61.9608 38.1674C62.1666 37.9617 62.4455 37.8459 62.7364 37.8455H71.145C71.4362 37.8455 71.7156 37.9611 71.9216 38.1668C72.1277 38.3726 72.2437 38.6518 72.2441 38.943L72.2409 40.4976ZM55.6312 39.499C55.4598 38.366 54.8891 37.3315 54.0219 36.5823C53.1548 35.8332 52.0483 35.4188 50.9024 35.4139H32.0977C30.9521 35.4192 29.8461 35.8338 28.9792 36.5829C28.1124 37.332 27.5419 38.3662 27.3706 39.499L26.5082 45.3868C26.4091 46.0654 26.4572 46.7574 26.6493 47.4158C26.8413 48.0741 27.1728 48.6835 27.6213 49.2023C28.0697 49.7212 28.6246 50.1375 29.2482 50.4229C29.8718 50.7083 30.5495 50.8561 31.2353 50.8564H51.7648C52.4506 50.8561 53.1284 50.7083 53.752 50.4229C54.3756 50.1375 54.9304 49.7212 55.3789 49.2023C55.8273 48.6835 56.1588 48.0741 56.3509 47.4158C56.5429 46.7574 56.5911 46.0654 56.492 45.3868L55.6312 39.499ZM53.5383 47.6045C53.3182 47.8589 53.0459 48.063 52.7399 48.2029C52.4338 48.3428 52.1013 48.4151 51.7648 48.415H31.2353C30.8986 48.4149 30.5658 48.3422 30.2597 48.202C29.9536 48.0618 29.6812 47.8573 29.4611 47.6025C29.241 47.3476 29.0784 47.0484 28.9842 46.7251C28.8901 46.4018 28.8667 46.062 28.9155 45.7289L29.7747 39.8443C29.8604 39.2891 30.1415 38.7827 30.5674 38.4162C30.9932 38.0498 31.5359 37.8474 32.0977 37.8455H50.9024C51.4649 37.848 52.008 38.0515 52.4336 38.4192C52.8593 38.7869 53.1396 39.2946 53.2238 39.8508L54.083 45.7354C54.1322 46.0685 54.1089 46.4084 54.0149 46.7317C53.921 47.0551 53.7584 47.3544 53.5383 47.6093V47.6045Z" fill="#6BC489"/>
</svg>
