<svg width="63" height="79" viewBox="0 0 63 79" fill="none" xmlns="http://www.w3.org/2000/svg">
<path d="M38.8486 31.5422L27.042 43.3486L22.2134 38.5162C21.4603 37.7781 20.2548 37.7781 19.5015 38.5162C18.7374 39.2653 18.7251 40.4918 19.4739 41.256L25.6724 47.4583C26.0356 47.8218 26.5283 48.0259 27.0422 48.0259C27.5559 48.0259 28.0486 47.8218 28.4119 47.4583L41.6161 34.2541C42.3649 33.4899 42.3526 32.2631 41.5884 31.5143C40.8242 30.7655 39.5977 30.7778 38.8486 31.5422ZM62.4591 7.54462C62.2398 6.49687 61.2129 5.82518 60.1652 6.04419C50.5969 8.0647 40.6194 6.02432 32.6125 0.409546C31.9451 -0.0596924 31.0549 -0.0596924 30.3875 0.409546C22.3808 6.02456 12.4031 8.06518 2.83484 6.04419C2.70476 6.01699 2.57231 6.00327 2.43939 6.00327C1.36894 6.00256 0.50071 6.86961 0.5 7.94006V39.012C0.506386 50.3898 5.98399 61.0707 15.2205 67.715L30.3723 78.5793C30.7008 78.8159 31.0953 78.9431 31.5 78.9426C31.9047 78.9431 32.2992 78.8161 32.6277 78.5796L47.7795 67.715C57.016 61.0707 62.4936 50.3898 62.5 39.012V7.94006C62.5 7.80714 62.4863 7.6747 62.4591 7.54462ZM58.625 39.012C58.6207 49.141 53.7458 58.6502 45.5242 64.5665L31.5 74.6211L17.4758 64.5665C9.25423 58.65 4.37926 49.141 4.375 39.012V10.256C13.8369 11.6694 23.4884 9.56229 31.5 4.33374C39.5123 9.56087 49.1634 11.668 58.625 10.256V39.012Z" fill="#6BC489"/>
</svg>
