<svg width="71" height="71" viewBox="0 0 71 71" fill="none" xmlns="http://www.w3.org/2000/svg">
<path d="M62.0624 7.16658H51.4374V1.85409C51.4374 0.87615 50.6445 0.083252 49.6666 0.083252C48.6887 0.083252 47.8958 0.87615 47.8958 1.85409V7.16658H23.1041V1.85409C23.1041 0.87615 22.3112 0.083252 21.3333 0.083252C20.3553 0.083252 19.5624 0.87615 19.5624 1.85409V7.16658H8.93571C4.04776 7.17177 0.0867308 11.1328 0.081543 16.0208V62.0624C0.0867308 66.9504 4.04776 70.9114 8.93571 70.9166H62.0624C66.9506 70.912 70.9121 66.9506 70.9166 62.0624V16.0208C70.9121 11.1326 66.9506 7.17112 62.0624 7.16658ZM67.3749 62.0624C67.3717 64.9951 64.9952 67.3717 62.0624 67.3749H8.93571C6.00298 67.3717 3.62645 64.9951 3.62321 62.0624V31.9583H67.3749V62.0624ZM67.3749 28.4166H3.62321V16.0208C3.62645 13.088 6.00298 10.7115 8.93571 10.7083H19.5624V16.0208C19.5624 16.0199 19.5624 16.0214 19.5624 16.0208C19.5631 16.998 20.3558 17.7922 21.3333 17.7916C21.3324 17.7916 21.3339 17.7916 21.3333 17.7916C22.3106 17.7909 23.1048 16.9983 23.1041 16.0208V10.7083H47.8958V16.0208C47.8958 16.0199 47.8958 16.0214 47.8958 16.0208C47.8964 16.998 48.6891 17.7922 49.6666 17.7916C49.6657 17.7916 49.6673 17.7916 49.6666 17.7916C50.6439 17.7909 51.4381 16.9983 51.4374 16.0208V10.7083H62.0624C64.9952 10.7115 67.3717 13.088 67.3749 16.0208V28.4166Z" fill="#6BC489"/>
</svg>
