<svg width="50" height="78" viewBox="0 0 50 78" fill="none" xmlns="http://www.w3.org/2000/svg">
<path d="M25 4.875C24.6786 4.875 24.3644 4.9703 24.0972 5.14886C23.83 5.32742 23.6217 5.58121 23.4987 5.87814C23.3757 6.17507 23.3435 6.5018 23.4062 6.81702C23.4689 7.13224 23.6237 7.42179 23.851 7.64905C24.0782 7.87631 24.3678 8.03108 24.683 8.09378C24.9982 8.15648 25.3249 8.1243 25.6219 8.0013C25.9188 7.87831 26.1726 7.67003 26.3511 7.4028C26.5297 7.13557 26.625 6.82139 26.625 6.5C26.625 6.06902 26.4538 5.6557 26.149 5.35095C25.8443 5.0462 25.431 4.875 25 4.875ZM41.25 0H8.75C6.59512 0 4.52849 0.856024 3.00476 2.37976C1.48102 3.90349 0.625 5.97012 0.625 8.125V69.875C0.625 70.942 0.835159 71.9985 1.24348 72.9843C1.6518 73.9701 2.25028 74.8658 3.00476 75.6202C3.75923 76.3747 4.65493 76.9732 5.6407 77.3815C6.62647 77.7898 7.68301 78 8.75 78H41.25C42.317 78 43.3735 77.7898 44.3593 77.3815C45.3451 76.9732 46.2408 76.3747 46.9952 75.6202C47.7497 74.8658 48.3482 73.9701 48.7565 72.9843C49.1648 71.9985 49.375 70.942 49.375 69.875V8.125C49.375 5.97012 48.519 3.90349 46.9952 2.37976C45.4715 0.856024 43.4049 0 41.25 0ZM46.125 69.875C46.125 71.1679 45.6114 72.4079 44.6971 73.3221C43.7829 74.2364 42.5429 74.75 41.25 74.75H8.75C7.45707 74.75 6.21709 74.2364 5.30285 73.3221C4.38861 72.4079 3.875 71.1679 3.875 69.875V58.5H46.125V69.875ZM46.125 55.25H3.875V13H46.125V55.25ZM46.125 9.75H3.875V8.125C3.875 6.83207 4.38861 5.59209 5.30285 4.67785C6.21709 3.76361 7.45707 3.25 8.75 3.25H41.25C42.5429 3.25 43.7829 3.76361 44.6971 4.67785C45.6114 5.59209 46.125 6.83207 46.125 8.125V9.75ZM25 71.5C25.9642 71.5 26.9067 71.2141 27.7084 70.6784C28.5101 70.1427 29.1349 69.3814 29.5039 68.4906C29.8729 67.5998 29.9694 66.6196 29.7813 65.6739C29.5932 64.7283 29.1289 63.8596 28.4471 63.1779C27.7654 62.4961 26.8967 62.0318 25.9511 61.8437C25.0054 61.6556 24.0252 61.7521 23.1344 62.1211C22.2436 62.4901 21.4823 63.1149 20.9466 63.9166C20.4109 64.7183 20.125 65.6608 20.125 66.625C20.125 67.9179 20.6386 69.1579 21.5529 70.0721C22.4671 70.9864 23.7071 71.5 25 71.5ZM25 65C25.3214 65 25.6356 65.0953 25.9028 65.2739C26.17 65.4524 26.3783 65.7062 26.5013 66.0031C26.6243 66.3001 26.6565 66.6268 26.5938 66.942C26.5311 67.2572 26.3763 67.5468 26.149 67.774C25.9218 68.0013 25.6322 68.1561 25.317 68.2188C25.0018 68.2815 24.6751 68.2493 24.3781 68.1263C24.0812 68.0033 23.8274 67.795 23.6489 67.5278C23.4703 67.2606 23.375 66.9464 23.375 66.625C23.375 66.194 23.5462 65.7807 23.851 65.476C24.1557 65.1712 24.569 65 25 65Z" fill="#6BC489"/>
</svg>
