<svg xmlns="http://www.w3.org/2000/svg" width="27.264" height="20.586" viewBox="0 0 27.264 20.586">
  <g id="ride-reschedule-icon" transform="translate(-1630.924 -442.91)">
    <path id="Path_27" data-name="Path 27" d="M1632.363,463.479a1.314,1.314,0,0,1-1.439-1.447v-16.17a1.312,1.312,0,0,1,1.455-1.454h1.539v-.442c0-.167,0-.325,0-.482a.548.548,0,1,1,1.1-.005c0,.152,0,.3,0,.462v.45h3.4V443.5a.549.549,0,1,1,1.095.007v.887h3.4v-.9a.549.549,0,1,1,1.1,0c0,.152,0,.906,0,.906h3.395v-.863a.553.553,0,1,1,1.1.007v.841l.186.012c.119.01.169.014.22.014l1.307,0a1.283,1.283,0,0,1,1.278,1.278q.011,3.573,0,7.145v.718a.548.548,0,1,1-1.1,0c0-.715,0-3.538,0-3.538h-18.351v12.366h9.463c.391,0,.635.208.636.544a.545.545,0,0,1-.5.551l-.088,0Zm-.331-14.593h18.338v-3.372h-1.82l-.036.155c-.122.516-.379.581-.56.585h0c-.223,0-.438-.073-.6-.6l-.044-.141h-3.24l-.04.149c-.14.525-.383.592-.579.592s-.438-.071-.581-.589l-.04-.147h-3.272l-.033.159c-.08.381-.269.575-.562.577-.189,0-.45-.061-.579-.586l-.037-.153h-3.279l-.033.159c-.081.379-.257.572-.522.572a.565.565,0,0,1-.327-.086,1.73,1.73,0,0,1-.262-.351c-.042-.067-.193-.291-.193-.291h-1.7Z" fill="#25a057"/>
    <path id="Path_28" data-name="Path 28" d="M1653.96,463.5a4.665,4.665,0,0,1-2.03-.5.553.553,0,0,1-.351-.6.545.545,0,0,1,.539-.475.648.648,0,0,1,.3.076,3.28,3.28,0,0,0,1.526.385,3.18,3.18,0,0,0,.41-6.334,2.977,2.977,0,0,0-.42-.029,3.228,3.228,0,0,0-3.129,2.554.587.587,0,0,0-.007.153l0,.087.067.1.187.158.177-.165.058-.114a.578.578,0,0,1,.393-.159.549.549,0,0,1,.383.933c-.27.283-.548.559-.827.834l-.432.433c-.082.084-.164.168-.25.246a.594.594,0,0,1-.389.16.506.506,0,0,1-.356-.15q-.78-.753-1.533-1.533a.55.55,0,0,1,.4-.925.573.573,0,0,1,.385.156.794.794,0,0,1,.1.131l.329.46.2-.843a6.989,6.989,0,0,1,.187-.742,4.287,4.287,0,0,1,4.007-2.909c.115,0,.23.005.346.015a4.262,4.262,0,0,1,3.915,3.648,4.069,4.069,0,0,1-1.766,4.13A4.127,4.127,0,0,1,1653.96,463.5Z" fill="#25a057"/>
  </g>
</svg>
