<svg xmlns="http://www.w3.org/2000/svg" width="32.138" height="18.866" viewBox="0 0 32.138 18.866">
  <g id="ride-icon" transform="translate(-1087.639 -290.984)">
    <path id="Path_108" data-name="Path 108" d="M1116.341,307.63h1.5a1.593,1.593,0,0,0,1.589-1.588v-3.691a3.6,3.6,0,0,0-2.737-3.5l-5.592-1.423-4.026-4.8a3.6,3.6,0,0,0-2.769-1.3h-10.088a3.588,3.588,0,0,0-2.988,1.607l-2.805,4.192a2.562,2.562,0,0,0-.434,1.436v6.685a1.579,1.579,0,0,0,1.192,1.54l2.878.727" fill="none" stroke="#000" stroke-width="0.699"/>
    <path id="Path_109" data-name="Path 109" d="M1095.539,304.607a2.421,2.421,0,0,1,2.535,2.56,2.473,2.473,0,0,1-2.337,2.331,2.426,2.426,0,0,1-2.547-2.553A2.472,2.472,0,0,1,1095.539,304.607Z" fill="none" stroke="#000" stroke-width="0.699"/>
    <path id="Path_110" data-name="Path 110" d="M1112.686,309.5a2.474,2.474,0,0,1-2.337-2.331,2.421,2.421,0,0,1,2.536-2.56,2.47,2.47,0,0,1,2.348,2.338A2.426,2.426,0,0,1,1112.686,309.5Z" fill="none" stroke="#000" stroke-width="0.699"/>
    <path id="Path_111" data-name="Path 111" d="M1090.926,296.712l1.864-2.8v-.021a1.759,1.759,0,0,1,1.425-.717h4.2v3.541Z" fill="none" stroke="#000" stroke-width="0.699"/>
    <path id="Path_112" data-name="Path 112" d="M1100.929,296.712v-3.541h3.374a1.727,1.727,0,0,1,1.354.634l2.438,2.907Z" fill="none" stroke="#000" stroke-width="0.699"/>
    <line id="Line_85" data-name="Line 85" x2="10.024" transform="translate(1099.124 307.053)" fill="none" stroke="#000" stroke-width="0.699"/>
  </g>
</svg>
