<svg xmlns="http://www.w3.org/2000/svg" viewBox="0 0 20 19.479" width="20" height="19.479"><defs><style>.cls-1{fill:none;stroke:#8af4b5;stroke-miterlimit:10;}</style></defs><g id="Layer_2" data-name="Layer 2"><g id="Layer_1-2" data-name="Layer 1"><path class="cls-1" x1="46.82" y1="7.28" x2="25.66" y2="7.28" d="M12.918 2.009L7.08 2.009"/><path class="cls-1" d="M15.006 2.009h1.97A2.886 2.886 0 0 1 19.865 4.894v11.56A2.886 2.886 0 0 1 16.976 19.341H3.035A2.883 2.883 0 0 1 0.138 16.455v-11.56A2.883 2.883 0 0 1 3.035 2.009h1.964"/><path class="cls-1" x="18.09" y="0.5" width="7.58" height="13.56" rx="3.44" d="M5.94 0.138H6.133A0.949 0.949 0 0 1 7.082 1.087V2.93A0.949 0.949 0 0 1 6.133 3.879H5.94A0.949 0.949 0 0 1 4.991 2.93V1.087A0.949 0.949 0 0 1 5.94 0.138z"/><path class="cls-1" x="46.82" y="0.5" width="7.58" height="13.56" rx="3.44" d="M13.867 0.138H14.06A0.949 0.949 0 0 1 15.009 1.087V2.93A0.949 0.949 0 0 1 14.06 3.879H13.867A0.949 0.949 0 0 1 12.918 2.93V1.087A0.949 0.949 0 0 1 13.867 0.138z"/><path class="cls-1" x="12.83" y="24.37" width="11.03" height="11.03" rx="2.67" d="M4.276 6.724H5.846A0.737 0.737 0 0 1 6.583 7.46V9.03A0.737 0.737 0 0 1 5.846 9.767H4.276A0.737 0.737 0 0 1 3.54 9.03V7.46A0.737 0.737 0 0 1 4.276 6.724z"/><path class="cls-1" x="36.44" y="24.37" width="23.22" height="11.03" rx="2.67" d="M10.79 6.724H15.724A0.737 0.737 0 0 1 16.46 7.46V9.03A0.737 0.737 0 0 1 15.724 9.767H10.79A0.737 0.737 0 0 1 10.054 9.03V7.46A0.737 0.737 0 0 1 10.79 6.724z"/><path class="cls-1" x="12.83" y="44.35" width="11.03" height="11.03" rx="2.67" d="M4.276 12.236H5.846A0.737 0.737 0 0 1 6.583 12.973V14.543A0.737 0.737 0 0 1 5.846 15.279H4.276A0.737 0.737 0 0 1 3.54 14.543V12.973A0.737 0.737 0 0 1 4.276 12.236z"/></g></g></svg>