<svg xmlns="http://www.w3.org/2000/svg" width="18.402" height="16.568" viewBox="0 0 18.402 16.568">
  <path id="message-icon" d="M869.7,698.014a4.934,4.934,0,0,1,.217-2.1,1.986,1.986,0,0,1,.869-.87,4.955,4.955,0,0,1,2.1-.216h11.537a4.962,4.962,0,0,1,2.1.216,1.986,1.986,0,0,1,.869.87,4.934,4.934,0,0,1,.217,2.1v12.731l-3.306-1.654a4.293,4.293,0,0,0-.508-.232,1.98,1.98,0,0,0-.358-.084,4.183,4.183,0,0,0-.558-.019h-9.99a4.934,4.934,0,0,1-2.1-.217,1.986,1.986,0,0,1-.869-.87,4.934,4.934,0,0,1-.217-2.1Z" transform="translate(-869.448 -694.582)" fill="none" stroke="#000" stroke-width="0.5"/>
</svg>
