<svg xmlns="http://www.w3.org/2000/svg" width="27.896" height="21.1" viewBox="0 0 27.896 21.1">
  <g id="salary-icon" transform="translate(-334.065 -289.571)">
    <rect id="Rectangle_105" data-name="Rectangle 105" width="24.455" height="14.426" rx="0.875" transform="translate(335.797 292.92)" fill="none" stroke="#000" stroke-width="0.75"/>
    <path id="Path_193" data-name="Path 193" d="M346.986,307.345l9.89,2.91a.873.873,0,0,0,1.09-.59l.68-2.32" fill="none" stroke="#000" stroke-width="0.75"/>
    <path id="Path_194" data-name="Path 194" d="M360.256,296.215l.7.21a.866.866,0,0,1,.59,1.08l-1.29,4.38" fill="none" stroke="#000" stroke-width="0.75"/>
    <path id="Path_195" data-name="Path 195" d="M337.4,292.925l.69-2.33a.884.884,0,0,1,1.09-.59l9.91,2.92" fill="none" stroke="#000" stroke-width="0.75"/>
    <path id="Path_196" data-name="Path 196" d="M335.8,304.055l-.7-.21a.876.876,0,0,1-.59-1.09l1.29-4.38" fill="none" stroke="#000" stroke-width="0.75"/>
    <circle id="Ellipse_48" data-name="Ellipse 48" cx="3.023" cy="3.023" r="3.023" transform="translate(345.002 297.11)" fill="none" stroke="#000" stroke-width="0.75"/>
    <circle id="Ellipse_49" data-name="Ellipse 49" cx="0.563" cy="0.563" r="0.563" transform="translate(337.762 294.599)" fill="none" stroke="#000" stroke-width="0.75"/>
    <circle id="Ellipse_50" data-name="Ellipse 50" cx="0.563" cy="0.563" r="0.563" transform="translate(337.762 304.473)" fill="none" stroke="#000" stroke-width="0.75"/>
    <circle id="Ellipse_51" data-name="Ellipse 51" cx="0.563" cy="0.563" r="0.563" transform="translate(357.055 294.599)" fill="none" stroke="#000" stroke-width="0.75"/>
    <circle id="Ellipse_52" data-name="Ellipse 52" cx="0.563" cy="0.563" r="0.563" transform="translate(357.055 304.473)" fill="none" stroke="#000" stroke-width="0.75"/>
  </g>
</svg>
