<?xml version="1.0" encoding="utf-8"?>
<!-- Generator: Adobe Illustrator 16.0.0, SVG Export Plug-In . SVG Version: 6.00 Build 0)  -->
<!DOCTYPE svg PUBLIC "-//W3C//DTD SVG 1.1//EN" "http://www.w3.org/Graphics/SVG/1.1/DTD/svg11.dtd">
<svg version="1.1" id="Layer_1" xmlns="http://www.w3.org/2000/svg" xmlns:xlink="http://www.w3.org/1999/xlink" x="0px" y="0px"
	 width="45.447px" height="51.708px" viewBox="0 0 45.447 51.708" enable-background="new 0 0 45.447 51.708" xml:space="preserve">
<g>
	<g>
		<g>
			<path fill="#B5B5B5" d="M22.724,0C15.206,0,9.089,6.117,9.089,13.635s6.117,13.634,13.635,13.634
				c7.518,0,13.634-6.116,13.634-13.634S30.242,0,22.724,0z"/>
		</g>
	</g>
	<g>
		<g>
			<path fill="#B5B5B5" d="M39.686,36.175c-3.731-3.789-8.681-5.876-13.933-5.876h-6.06c-5.252,0-10.201,2.087-13.933,5.876
				C2.045,39.947,0,44.926,0,50.194c0,0.837,0.678,1.515,1.515,1.515c0,0,0,0,0.001,0h42.417c0.836,0,1.515-0.678,1.515-1.514
				v-0.001C45.447,44.926,43.402,39.947,39.686,36.175z"/>
		</g>
	</g>
</g>
</svg>
