<svg xmlns="http://www.w3.org/2000/svg" width="85.614" height="97.409" viewBox="0 0 85.614 97.409">
  <g id="user-gree-icon" transform="translate(-264.802 -315.86)">
    <g id="Group_55" data-name="Group 55">
      <g id="Group_54" data-name="Group 54">
        <path id="Path_32" data-name="Path 32" d="M307.609,315.86a25.684,25.684,0,1,0,25.684,25.684A25.713,25.713,0,0,0,307.609,315.86Z" fill="#62d38f"/>
      </g>
    </g>
    <g id="Group_57" data-name="Group 57">
      <g id="Group_56" data-name="Group 56">
        <path id="Path_33" data-name="Path 33" d="M339.565,384.007a36.618,36.618,0,0,0-26.249-11.071H301.9a36.618,36.618,0,0,0-26.248,11.071A37.43,37.43,0,0,0,264.8,410.416a2.853,2.853,0,0,0,2.854,2.853h79.906a2.853,2.853,0,0,0,2.854-2.853A37.435,37.435,0,0,0,339.565,384.007Z" fill="#62d38f"/>
      </g>
    </g>
  </g>
</svg>
