<svg xmlns="http://www.w3.org/2000/svg" width="35.068" height="35.576" viewBox="0 0 35.068 35.576">
  <g id="city-icon" transform="translate(-1215.563 -265.126)">
    <path id="Path_2" data-name="Path 2" d="M1217.316,300.194V282.66c0-3.307,0-4.96,1.028-5.987s2.68-1.027,5.986-1.027,4.959,0,5.986,1.027,1.028,2.68,1.028,5.987" fill="none" stroke="#000" stroke-width="1.016"/>
    <path id="Path_3" data-name="Path 3" d="M1241.864,300.194V289.673c0-3.306,0-4.959-1.027-5.986s-2.68-1.027-5.987-1.027h-3.506c-3.307,0-4.96,0-5.987,1.027s-1.027,2.68-1.027,5.986v10.521" fill="none" stroke="#000" stroke-width="1.016"/>
    <path id="Path_4" data-name="Path 4" d="M1248.878,300.193V275.246c0-2.351,0-3.526-.625-4.427s-1.725-1.314-3.926-2.14c-4.305-1.614-6.458-2.421-7.967-1.375s-1.51,3.344-1.51,7.942v7.413" fill="none" stroke="#000" stroke-width="1.016"/>
    <path id="Path_5" data-name="Path 5" d="M1219.07,275.646v-2.63c0-1.653,0-2.48.513-2.993s1.34-.514,2.994-.514h3.506c1.654,0,2.48,0,2.994.514s.513,1.34.513,2.993v2.63" fill="none" stroke="#000" stroke-width="1.016"/>
    <path id="Path_6" data-name="Path 6" d="M1224.33,268.632v-3.506" fill="none" stroke="#000" stroke-width="1.016"/>
    <path id="Path_7" data-name="Path 7" d="M1250.631,300.194h-35.068" fill="none" stroke="#000" stroke-width="1.016"/>
    <path id="Path_8" data-name="Path 8" d="M1229.59,287.92h7.014" fill="none" stroke="#000" stroke-width="1.016"/>
    <path id="Path_9" data-name="Path 9" d="M1229.59,293.18h7.014" fill="none" stroke="#000" stroke-width="1.016"/>
  </g>
</svg>
