<svg xmlns="http://www.w3.org/2000/svg" width="21.134" height="21.133" viewBox="0 0 21.134 21.133">
  <g id="single-icon" transform="translate(-875.472 -800.008)">
    <circle id="Ellipse_63" data-name="Ellipse 63" cx="2.121" cy="2.121" r="2.121" transform="translate(883.918 804.212)" fill="none" stroke="#222" stroke-linecap="round" stroke-width="1.073"/>
    <path id="Path_291" data-name="Path 291" d="M886.039,811.282c3.343,0,4.428,2.58,4.78,4.255a1.193,1.193,0,0,1-1.245,1.4H882.5a1.194,1.194,0,0,1-1.245-1.4C881.611,813.862,882.7,811.282,886.039,811.282Z" fill="none" stroke="#222" stroke-linecap="round" stroke-width="1.073"/>
    <path id="Path_292" data-name="Path 292" d="M893.013,820.766h1.609a1.609,1.609,0,0,0,1.609-1.609v-1.609" fill="none" stroke="#000" stroke-width="0.75"/>
    <path id="Path_293" data-name="Path 293" d="M893.013,800.383h1.609a1.609,1.609,0,0,1,1.609,1.609V803.6" fill="none" stroke="#000" stroke-width="0.75"/>
    <path id="Path_294" data-name="Path 294" d="M879.066,820.766h-1.609a1.609,1.609,0,0,1-1.61-1.609v-1.609" fill="none" stroke="#000" stroke-width="0.75"/>
    <path id="Path_295" data-name="Path 295" d="M879.066,800.383h-1.609a1.609,1.609,0,0,0-1.61,1.609V803.6" fill="none" stroke="#000" stroke-width="0.75"/>
  </g>
</svg>
