<svg xmlns="http://www.w3.org/2000/svg" width="37.058" height="30.725" viewBox="0 0 37.058 30.725">
  <g id="Group_55" data-name="Group 55" transform="translate(-119.544 -607.645)">
    <path id="Path_43" data-name="Path 43" d="M181.876,560.85c0,1.806-3.5,2.9-4.148,4.473-.675,1.628,1,4.87-.23,6.1s-4.469-.444-6.1.231c-1.57.651-2.667,4.147-4.473,4.147s-2.9-3.5-4.473-4.147c-1.628-.675-4.871.995-6.1-.231s.444-4.469-.231-6.1c-.651-1.57-4.147-2.667-4.147-4.473s3.5-2.9,4.147-4.473c.675-1.628-1-4.87.231-6.1s4.469.444,6.1-.231c1.57-.651,2.667-4.147,4.473-4.147s2.9,3.5,4.473,4.147c1.628.675,4.87-1,6.1.231s-.444,4.469.23,6.1C178.38,557.947,181.876,559.044,181.876,560.85Z" transform="translate(-32.021 62.158)" fill="#f9d021" stroke="#000" stroke-width="0.829"/>
    <path id="Path_44" data-name="Path 44" d="M185.043,560.85c0,1.806-3.5,2.9-4.148,4.473-.675,1.628,1,4.87-.231,6.1s-4.469-.444-6.1.231C173,572.3,171.9,575.8,170.1,575.8s-2.9-3.5-4.474-4.147c-1.627-.675-4.87.995-6.1-.231s.445-4.469-.23-6.1c-.651-1.57-4.148-2.667-4.148-4.473s3.5-2.9,4.148-4.473c.675-1.628-1-4.87.231-6.1s4.469.444,6.1-.231c1.571-.651,2.668-4.147,4.474-4.147s2.9,3.5,4.473,4.147c1.627.675,4.87-1,6.1.231s-.445,4.469.23,6.1C181.546,557.947,185.043,559.044,185.043,560.85Z" transform="translate(-32.021 62.158)" fill="#f9d021" stroke="#000" stroke-width="0.829"/>
    <path id="Path_45" data-name="Path 45" d="M188.209,560.85c0,1.806-3.5,2.9-4.147,4.473-.675,1.628,1,4.87-.231,6.1s-4.469-.444-6.1.231c-1.57.651-2.667,4.147-4.473,4.147s-2.9-3.5-4.473-4.147c-1.628-.675-4.87.995-6.1-.231s.445-4.469-.23-6.1c-.652-1.57-4.148-2.667-4.148-4.473s3.5-2.9,4.148-4.473c.675-1.628-1-4.87.23-6.1s4.47.444,6.1-.231c1.57-.651,2.667-4.147,4.473-4.147s2.9,3.5,4.473,4.147c1.628.675,4.871-1,6.1.231s-.444,4.469.231,6.1C184.713,557.947,188.209,559.044,188.209,560.85Z" transform="translate(-32.021 62.158)" fill="#f9d021" stroke="#000" stroke-width="0.829"/>
  </g>
</svg>
