<svg xmlns="http://www.w3.org/2000/svg" width="30.352" height="30.356" viewBox="0 0 30.352 30.356">
  <g id="time-icon" transform="translate(-765.981 -1324.172)">
    <path id="Path_49" data-name="Path 49" d="M765.981,1340.242v-1.779c.018-.1.039-.209.055-.315.095-.653.149-1.315.289-1.959a15.169,15.169,0,1,1,26.228,13.165,14.9,14.9,0,0,1-8.779,4.937c-.571.1-1.15.159-1.726.237H780.27a1.566,1.566,0,0,0-.229-.049,14.445,14.445,0,0,1-6.622-2.088,14.979,14.979,0,0,1-7.2-10.428C766.111,1341.4,766.059,1340.816,765.981,1340.242Zm15.182-13.708a12.818,12.818,0,1,0,12.816,12.815A12.826,12.826,0,0,0,781.163,1326.534Z"/>
    <path id="Path_50" data-name="Path 50" d="M779.979,1335.9c0-1.146-.008-2.292,0-3.437a1.18,1.18,0,0,1,1.595-1.17,1.207,1.207,0,0,1,.762,1.221c0,2.005.006,4.011-.005,6.016a.583.583,0,0,0,.272.533q1.953,1.445,3.888,2.913a1.174,1.174,0,1,1-1.349,1.919c-.745-.538-1.472-1.1-2.207-1.65-.782-.586-1.557-1.183-2.348-1.757a1.405,1.405,0,0,1-.614-1.239C779.985,1338.137,779.978,1337.02,779.979,1335.9Z"/>
  </g>
</svg>
