<svg xmlns="http://www.w3.org/2000/svg" width="19.259" height="19.261" viewBox="0 0 19.259 19.261">
  <g id="time-2-icon" transform="translate(-1403.21 -478.681)">
    <path id="Path_151" data-name="Path 151" d="M1403.21,488.877v-1.128c.011-.067.025-.133.034-.2.06-.415.095-.835.184-1.243a9.625,9.625,0,1,1,16.642,8.353,9.457,9.457,0,0,1-5.571,3.133c-.362.065-.729.1-1.095.15h-1.128a.936.936,0,0,0-.145-.031,9.173,9.173,0,0,1-4.2-1.325,9.5,9.5,0,0,1-4.569-6.616C1403.292,489.609,1403.259,489.241,1403.21,488.877Zm9.633-8.7a8.133,8.133,0,1,0,8.132,8.131A8.139,8.139,0,0,0,1412.843,480.18Z" fill="#6bc388"/>
    <path id="Path_152" data-name="Path 152" d="M1412.091,486.125c0-.727,0-1.454,0-2.181a.748.748,0,0,1,1.012-.742.766.766,0,0,1,.484.774c0,1.273,0,2.545,0,3.818a.37.37,0,0,0,.173.338q1.239.917,2.467,1.848a.745.745,0,1,1-.856,1.218c-.473-.341-.934-.7-1.4-1.047-.5-.372-.987-.751-1.49-1.115a.893.893,0,0,1-.389-.786C1412.1,487.541,1412.091,486.833,1412.091,486.125Z" fill="#6bc388"/>
  </g>
</svg>
