<svg xmlns="http://www.w3.org/2000/svg" width="22.539" height="22.539" viewBox="0 0 22.539 22.539">
  <g id="unverified" transform="translate(-1609.585 -631.904)">
    <path id="Path_159" data-name="Path 159" d="M1618.141,633.257a6.268,6.268,0,0,1-.558.449,3.054,3.054,0,0,1-1.11.46,6.6,6.6,0,0,1-.712.077h0a7.307,7.307,0,0,0-1.731.241,3.056,3.056,0,0,0-1.865,1.865,7.3,7.3,0,0,0-.241,1.731h0a6.569,6.569,0,0,1-.077.712,3.071,3.071,0,0,1-.46,1.11,6.379,6.379,0,0,1-.449.559h0a7.288,7.288,0,0,0-1.054,1.394,3.061,3.061,0,0,0,0,2.637,7.253,7.253,0,0,0,1.054,1.4h0a6.56,6.56,0,0,1,.449.558,3.079,3.079,0,0,1,.46,1.11,6.6,6.6,0,0,1,.077.713h0a7.312,7.312,0,0,0,.241,1.731,3.059,3.059,0,0,0,1.865,1.865,7.3,7.3,0,0,0,1.731.241h0a6.347,6.347,0,0,1,.712.077,3.054,3.054,0,0,1,1.11.46,6.378,6.378,0,0,1,.559.449,7.319,7.319,0,0,0,1.394,1.053,3.054,3.054,0,0,0,2.637,0,7.308,7.308,0,0,0,1.4-1.053,6.4,6.4,0,0,1,.558-.449,3.054,3.054,0,0,1,1.11-.46,6.351,6.351,0,0,1,.712-.077h0a7.314,7.314,0,0,0,1.731-.241,3.057,3.057,0,0,0,1.864-1.865,7.351,7.351,0,0,0,.242-1.731h0a6.316,6.316,0,0,1,.077-.713,3.044,3.044,0,0,1,.46-1.11,6.56,6.56,0,0,1,.449-.558,7.279,7.279,0,0,0,1.053-1.4,3.054,3.054,0,0,0,0-2.637,7.314,7.314,0,0,0-1.053-1.394,6.379,6.379,0,0,1-.449-.559,3.037,3.037,0,0,1-.46-1.11,6.288,6.288,0,0,1-.077-.712h0a7.341,7.341,0,0,0-.242-1.731,3.055,3.055,0,0,0-1.864-1.865,7.319,7.319,0,0,0-1.732-.241h0a6.6,6.6,0,0,1-.712-.077,3.054,3.054,0,0,1-1.11-.46,6.415,6.415,0,0,1-.558-.449,7.324,7.324,0,0,0-1.4-1.054,3.061,3.061,0,0,0-2.637,0,7.335,7.335,0,0,0-1.394,1.054Z" fill="#eaeaea"/>
    <path id="Path_160" data-name="Path 160" d="M1625.784,640.765a.918.918,0,1,0-1.3-1.3l-5.466,5.466-1.8-1.8a.917.917,0,0,0-1.3,1.3l2.446,2.446a.917.917,0,0,0,1.3,0Z" fill="#afafaf"/>
  </g>
</svg>
