<svg xmlns="http://www.w3.org/2000/svg" width="46.436" height="28.547" viewBox="0 0 46.436 28.547">
  <g id="vehicle-icon" transform="translate(-205.021 -794.62)">
    <path id="vehicle-icon-2" data-name="vehicle-icon" d="M247.413,805.73l-8.258-2.1-5.947-7.094a5.318,5.318,0,0,0-4.089-1.914h-14.9a5.3,5.3,0,0,0-4.413,2.374l-4.143,6.191a3.783,3.783,0,0,0-.641,2.121v9.874a2.33,2.33,0,0,0,1.76,2.274l4.251,1.074.072.388a5.3,5.3,0,0,0,10.325.253l.127-.478h.523a.858.858,0,0,0,.858-.858h0a.858.858,0,0,0-.858-.857h-.523l-.127-.469a5.275,5.275,0,0,0-10.153-.3l-.181.568-4.359-1.1v-10.4H238.56l8.465,2.112a3.6,3.6,0,0,1,2.717,3.5v6.083H246.9l-.126-.469a5.274,5.274,0,0,0-10.235,0l-.126.469h-7.455a.858.858,0,0,0-.858.857h0a.858.858,0,0,0,.858.858h7.455l.126.478a5.274,5.274,0,0,0,10.235,0l.126-.478h2.211a2.354,2.354,0,0,0,2.347-2.347v-5.451A5.318,5.318,0,0,0,247.413,805.73Zm-31.24,8.5a3.575,3.575,0,0,1,3.745,3.78,3.652,3.652,0,0,1-3.451,3.443,3.582,3.582,0,0,1-3.762-3.77A3.648,3.648,0,0,1,216.173,814.226Zm5.248-10.662H207.494l3.619-5.442v-.045l.109-.154a3.58,3.58,0,0,1,3-1.588h7.2Zm1.714,0v-7.229h5.984a3.564,3.564,0,0,1,2.771,1.3l4.973,5.929ZM241.5,821.449a3.652,3.652,0,0,1-3.451-3.443,3.575,3.575,0,0,1,3.745-3.78,3.648,3.648,0,0,1,3.468,3.453A3.582,3.582,0,0,1,241.5,821.449Z"/>
  </g>
</svg>
