<svg xmlns="http://www.w3.org/2000/svg" width="22.539" height="22.539" viewBox="0 0 22.539 22.539">
  <g id="verified-icon" transform="translate(-1609.585 -548.243)">
    <path id="Path_157" data-name="Path 157" d="M1618.141,549.6a6.257,6.257,0,0,1-.558.449,3.071,3.071,0,0,1-1.11.46,6.6,6.6,0,0,1-.712.077h0a7.307,7.307,0,0,0-1.731.241,3.057,3.057,0,0,0-1.865,1.864,7.323,7.323,0,0,0-.241,1.732h0a6.6,6.6,0,0,1-.077.712,3.071,3.071,0,0,1-.46,1.11,6.259,6.259,0,0,1-.449.558h0a7.317,7.317,0,0,0-1.054,1.395,3.061,3.061,0,0,0,0,2.637,7.284,7.284,0,0,0,1.054,1.4h0a6.406,6.406,0,0,1,.449.558,3.071,3.071,0,0,1,.46,1.11,6.6,6.6,0,0,1,.077.712h0a7.323,7.323,0,0,0,.241,1.732,3.055,3.055,0,0,0,1.865,1.864,7.308,7.308,0,0,0,1.731.241h0a6.53,6.53,0,0,1,.712.078,3.053,3.053,0,0,1,1.11.459,6.8,6.8,0,0,1,.559.449,7.29,7.29,0,0,0,1.394,1.054,3.054,3.054,0,0,0,2.637,0,7.28,7.28,0,0,0,1.4-1.054,6.826,6.826,0,0,1,.558-.449,3.053,3.053,0,0,1,1.11-.459,6.534,6.534,0,0,1,.712-.078h0a7.318,7.318,0,0,0,1.731-.241,3.053,3.053,0,0,0,1.864-1.864,7.362,7.362,0,0,0,.242-1.732h0a6.32,6.32,0,0,1,.077-.712,3.037,3.037,0,0,1,.46-1.11,6.406,6.406,0,0,1,.449-.558,7.309,7.309,0,0,0,1.053-1.4,3.054,3.054,0,0,0,0-2.637,7.343,7.343,0,0,0-1.053-1.395,6.259,6.259,0,0,1-.449-.558,3.037,3.037,0,0,1-.46-1.11,6.316,6.316,0,0,1-.077-.712h0a7.361,7.361,0,0,0-.242-1.732,3.056,3.056,0,0,0-1.864-1.864,7.319,7.319,0,0,0-1.732-.241h0a6.6,6.6,0,0,1-.712-.077,3.071,3.071,0,0,1-1.11-.46,6.4,6.4,0,0,1-.558-.449,7.281,7.281,0,0,0-1.4-1.054,3.054,3.054,0,0,0-2.637,0,7.291,7.291,0,0,0-1.394,1.054Z" fill="#8af4b5"/>
    <path id="Path_158" data-name="Path 158" d="M1625.784,557.1a.918.918,0,1,0-1.3-1.3l-5.466,5.466-1.8-1.8a.917.917,0,0,0-1.3,1.3l2.446,2.446a.917.917,0,0,0,1.3,0Z" fill="#1c274c"/>
  </g>
</svg>
