<svg xmlns="http://www.w3.org/2000/svg" width="49.232" height="33.854" viewBox="0 0 49.232 33.854">
  <g id="visa-card-icon" transform="translate(-1458.356 -1181.803)">
    <rect id="Rectangle_8" data-name="Rectangle 8" width="48.232" height="32.854" rx="3.845" transform="translate(1458.856 1182.303)" fill="#fff" stroke="#d9d9d9" stroke-width="1"/>
    <path id="Path_14" data-name="Path 14" d="M1473.36,1204.683H1470.4l-2.223-8.481a1.366,1.366,0,0,0-.659-.9,9.625,9.625,0,0,0-2.717-.9v-.327h4.775a1.244,1.244,0,0,1,1.236,1.06l1.153,6.117,2.963-7.177h2.882Zm6.094,0h-2.8l2.306-10.6h2.8Zm5.927-7.665a1.085,1.085,0,0,1,1.153-.9,5.215,5.215,0,0,1,2.717.489l.495-2.283a7.076,7.076,0,0,0-2.553-.49c-2.717,0-4.694,1.468-4.694,3.506,0,1.551,1.4,2.365,2.389,2.855,1.07.489,1.482.816,1.4,1.305,0,.733-.824,1.06-1.646,1.06a7.067,7.067,0,0,1-2.882-.653l-.494,2.284a8.076,8.076,0,0,0,3.046.571c3.047.08,4.94-1.387,4.94-3.589C1489.251,1198.4,1485.381,1198.241,1485.381,1197.018Zm13.668,7.665-2.223-10.6h-2.387a1.239,1.239,0,0,0-1.154.816l-4.116,9.786h2.882l.575-1.549h3.541l.33,1.549Zm-4.2-7.747.823,4h-2.3Z" fill="#172b85" fill-rule="evenodd"/>
  </g>
</svg>
