<svg xmlns="http://www.w3.org/2000/svg" width="115.999" height="105.301" viewBox="0 0 115.999 105.301">
  <g id="alert-icon" transform="translate(-902.002 -332.833)">
    <path id="Path_99" data-name="Path 99" d="M1015.524,410.747l-39.709-68.788a18.26,18.26,0,0,0-31.623,0l-39.718,68.788a18.257,18.257,0,0,0,15.808,27.387h79.435A18.254,18.254,0,0,0,1015.524,410.747Zm-51.713-53.3-1.15,44.969h-5.405l-1.15-44.969Zm-3.848,63.311c-3.033,0-4.753-2.372-4.753-5.079,0-3.024,2.046-5.242,4.834-5.242,2.861,0,4.744,2.218,4.744,5.242A4.751,4.751,0,0,1,959.963,420.76Z" fill="#ffe7c5"/>
  </g>
</svg>
