<svg xmlns="http://www.w3.org/2000/svg" width="11.455" height="11.455" viewBox="0 0 11.455 11.455">
  <g id="whatsapp-icon" transform="translate(-465.981 -471.884)">
    <g id="Color-">
      <path id="Whatsapp" d="M471.707,471.884a5.725,5.725,0,0,0-4.636,9.085l-.713,2.128,2.2-.7a5.727,5.727,0,1,0,3.151-10.509Zm-1.6,2.909c-.111-.266-.2-.276-.364-.283-.057,0-.121-.006-.192-.006a.833.833,0,0,0-.586.205,1.83,1.83,0,0,0-.585,1.394,3.276,3.276,0,0,0,.68,1.728,7.167,7.167,0,0,0,2.851,2.518c1.316.546,1.707.495,2.006.431a1.612,1.612,0,0,0,1.125-.808,1.416,1.416,0,0,0,.1-.795c-.04-.07-.151-.111-.32-.2s-.986-.488-1.141-.542a.319.319,0,0,0-.41.125,7.187,7.187,0,0,1-.448.592.362.362,0,0,1-.4.064,4.205,4.205,0,0,1-1.343-.828,5.074,5.074,0,0,1-.929-1.155c-.1-.168-.01-.266.067-.357s.165-.178.249-.276a1.01,1.01,0,0,0,.185-.263.344.344,0,0,0-.023-.31C470.582,475.948,470.246,475.127,470.108,474.793Z" fill="#fff" fill-rule="evenodd"/>
    </g>
  </g>
</svg>
