<svg xmlns="http://www.w3.org/2000/svg" width="258.351" height="258.351" viewBox="0 0 258.351 258.351">
  <g id="Group_1" data-name="Group 1" transform="translate(-728.651 -410.829)">
    <circle id="Ellipse_4" data-name="Ellipse 4" cx="129.176" cy="129.176" r="129.176" transform="translate(728.651 410.829)" fill="#25a057"/>
    <path id="Path_21" data-name="Path 21" d="M1561.625,3355.205a75.254,75.254,0,0,0-53.679-22.236,76.1,76.1,0,0,0-65.934,113.959l-10.736,39.391,40.254-10.539a75.935,75.935,0,0,0,90.095-120.574Zm-53.679,117.031a63.111,63.111,0,0,1-32.2-8.824l-2.307-1.43-23.865,6.32,6.33-23.289-1.531-2.395a63.5,63.5,0,1,1,53.569,29.617Zm34.6-47.348c-1.913-.961-11.216-5.566-12.934-6.137s-3.072-.957-4.317.957a85.783,85.783,0,0,1-6.035,7.379c-1.061,1.344-2.209,1.441-4.122,0a51.022,51.022,0,0,1-25.778-22.523c-2.022-3.355,1.913-3.16,5.554-10.352a3.625,3.625,0,0,0,0-3.357c0-.951-4.317-10.344-5.849-14.08s-3.062-3.17-4.308-3.258h-3.739a6.815,6.815,0,0,0-5.083,2.393,21.032,21.032,0,0,0-6.33,16.193,36.69,36.69,0,0,0,7.772,19.656,85.257,85.257,0,0,0,32.491,28.75,36.9,36.9,0,0,0,22.806,4.789,19.185,19.185,0,0,0,12.748-9.008,15.453,15.453,0,0,0,1.147-9.008C1545.717,3426.318,1544.472,3425.842,1542.548,3424.889Z" transform="translate(-647.537 -2871.816)" fill="#fff"/>
  </g>
</svg>
