<svg xmlns="http://www.w3.org/2000/svg" width="11.285" height="11.285" viewBox="0 0 11.285 11.285">
  <g id="Icons" transform="translate(-441.75 -550.026)">
    <g id="Color-">
      <path id="Whatsapp" d="M447.391,550.026a5.639,5.639,0,0,0-4.567,8.95l-.7,2.1,2.169-.693a5.642,5.642,0,1,0,3.1-10.353Zm-1.575,2.866c-.11-.262-.193-.272-.358-.279-.057,0-.12-.006-.189-.006a.821.821,0,0,0-.578.2,1.8,1.8,0,0,0-.577,1.373,3.226,3.226,0,0,0,.67,1.7,7.062,7.062,0,0,0,2.809,2.481c1.3.538,1.682.488,1.977.425a1.589,1.589,0,0,0,1.107-.8,1.414,1.414,0,0,0,.1-.783c-.04-.07-.15-.109-.316-.192s-.971-.481-1.124-.535a.315.315,0,0,0-.4.123,6.787,6.787,0,0,1-.441.584.356.356,0,0,1-.4.063,4.149,4.149,0,0,1-1.324-.816,5.029,5.029,0,0,1-.915-1.138c-.1-.165-.01-.262.066-.351s.163-.176.246-.272a1,1,0,0,0,.182-.259.334.334,0,0,0-.023-.305C446.283,554.03,445.952,553.22,445.816,552.892Z" fill="#67c15e" fill-rule="evenodd"/>
    </g>
  </g>
</svg>
