<svg xmlns="http://www.w3.org/2000/svg" width="169.865" height="35.849" viewBox="0 0 169.865 35.849">
  <g id="Logo" transform="translate(-139.65 -61.932)">
    <path id="Path_5" data-name="Path 5" d="M191.969,79.855a11.383,11.383,0,0,0-11.216-11.383V61.934a17.923,17.923,0,0,1,0,35.845V91.24A11.384,11.384,0,0,0,191.969,79.855Z" fill="#fff"/>
    <path id="Path_6" data-name="Path 6" d="M178.349,91.231v6.55H159.982c-.169,0-.338,0-.507-.007V91.231h.007c.164.007.333.012.5.012s.313,0,.468-.012a11.385,11.385,0,0,0-.468-22.761c-.169,0-.34,0-.507.011V61.938q.253-.006.507-.006a17.926,17.926,0,0,1,13.854,29.3Z" fill="#6bc388"/>
    <path id="Path_7" data-name="Path 7" d="M146.189,79.858a11.38,11.38,0,0,0,10.883,11.371v6.543a17.922,17.922,0,0,1,0-35.831v6.543A11.382,11.382,0,0,0,146.189,79.858Z" fill="#fff"/>
    <g id="Group_42" data-name="Group 42">
      <path id="Path_8" data-name="Path 8" d="M232.441,97.291l-8.19-12.87h-6.923v12.87h-5.167V65.116h13.113c6.874,0,11.262,3.705,11.262,9.555,0,4.68-2.633,7.751-6.972,8.921l8.873,13.7ZM217.328,80.082h7.556c4.193,0,6.24-1.706,6.24-5.264s-2.047-5.265-6.24-5.265h-7.556Z" fill="#fff"/>
      <path id="Path_9" data-name="Path 9" d="M243.117,65.555c0-2.047,1.268-3.217,3.51-3.217s3.462,1.17,3.462,3.217-1.219,3.266-3.462,3.266S243.117,67.6,243.117,65.555Zm6.094,31.736h-5.216V72.916h5.216Z" fill="#fff"/>
      <path id="Path_10" data-name="Path 10" d="M279.826,61.948V97.291h-4.632L274.9,92.66a8.5,8.5,0,0,1-8.19,5.119c-6.045,0-10.774-4.68-10.774-12.627,0-8.141,5.022-12.723,11.115-12.723a8.1,8.1,0,0,1,7.557,4.534V61.948ZM274.61,84.811c0-5.119-2.682-8.141-6.582-8.141-4.338,0-6.874,3.12-6.874,8.434s2.438,8.482,6.679,8.482C271.928,93.586,274.61,90.271,274.61,84.811Z" fill="#fff"/>
      <path id="Path_11" data-name="Path 11" d="M309.319,86.664H291.477c.439,4.533,3.071,6.971,7.069,6.971,3.266,0,5.167-1.316,6.337-3.51l4.144,1.95c-1.706,3.559-5.558,5.7-10.384,5.7-7.312,0-12.285-4.729-12.285-12.675s4.973-12.675,11.993-12.675c7.068,0,11.164,4.826,11.164,11.212A23.35,23.35,0,0,1,309.319,86.664Zm-17.744-4H304.4c-.244-3.9-2.535-6.093-6.143-6.093S292.257,78.717,291.575,82.666Z" fill="#fff"/>
    </g>
  </g>
</svg>
