<svg width="36" height="36" viewBox="0 0 36 36" fill="none" xmlns="http://www.w3.org/2000/svg">
<g clip-path="url(#clip0_211_141)">
<path d="M28.6875 17.4375H26.4375C26.2883 17.4375 26.1452 17.4968 26.0398 17.6023C25.9343 17.7077 25.875 17.8508 25.875 18C25.875 18.1492 25.9343 18.2923 26.0398 18.3978C26.1452 18.5032 26.2883 18.5625 26.4375 18.5625H27.5625V19.6875C27.5625 19.8367 27.6218 19.9798 27.7273 20.0853C27.8327 20.1907 27.9758 20.25 28.125 20.25C28.2742 20.25 28.4173 20.1907 28.5227 20.0853C28.6282 19.9798 28.6875 19.8367 28.6875 19.6875V18.5625C29.1351 18.5625 29.5643 18.3847 29.8807 18.0682C30.1972 17.7518 30.375 17.3226 30.375 16.875V15.75C30.375 15.3025 30.1972 14.8732 29.8807 14.5568C29.5643 14.2403 29.1351 14.0625 28.6875 14.0625H27.5625C27.4133 14.0625 27.2702 14.0032 27.1648 13.8978C27.0593 13.7923 27 13.6492 27 13.5V12.375C27 12.2258 27.0593 12.0827 27.1648 11.9773C27.2702 11.8718 27.4133 11.8125 27.5625 11.8125H29.8125C29.9617 11.8125 30.1048 11.7532 30.2102 11.6478C30.3157 11.5423 30.375 11.3992 30.375 11.25C30.375 11.1008 30.3157 10.9577 30.2102 10.8523C30.1048 10.7468 29.9617 10.6875 29.8125 10.6875H28.6875V9.5625C28.6875 9.41332 28.6282 9.27025 28.5227 9.16476C28.4173 9.05927 28.2742 9 28.125 9C27.9758 9 27.8327 9.05927 27.7273 9.16476C27.6218 9.27025 27.5625 9.41332 27.5625 9.5625V10.6875C27.1149 10.6875 26.6857 10.8653 26.3693 11.1818C26.0528 11.4982 25.875 11.9275 25.875 12.375V13.5C25.875 13.9476 26.0528 14.3768 26.3693 14.6932C26.6857 15.0097 27.1149 15.1875 27.5625 15.1875H28.6875C28.8367 15.1875 28.9798 15.2468 29.0852 15.3523C29.1907 15.4577 29.25 15.6008 29.25 15.75V16.875C29.25 17.0242 29.1907 17.1673 29.0852 17.2728C28.9798 17.3782 28.8367 17.4375 28.6875 17.4375ZM34.0425 25.9875L22.5 26.9516V25.5735C22.5041 24.7255 22.2326 23.8991 21.7263 23.2188C21.2201 22.5385 20.5066 22.041 19.6931 21.8014L11.1848 19.2499C11.0888 18.8925 10.878 18.5766 10.5849 18.3507C10.2918 18.1249 9.93253 18.0017 9.5625 18H0.5625C0.413316 18 0.270242 18.0593 0.164752 18.1648C0.0592632 18.2702 0 18.4133 0 18.5625L0 30.9375C0 31.0867 0.0592632 31.2298 0.164752 31.3353C0.270242 31.4407 0.413316 31.5 0.5625 31.5H9.5625C9.88385 31.499 10.1982 31.4062 10.4687 31.2326C10.7391 31.0591 10.9544 30.8119 11.0891 30.5201L20.07 33.2145C21.2904 33.5827 22.5951 33.563 23.8039 33.1583L34.7625 29.5054C35.1829 29.3663 35.5376 29.0779 35.7594 28.6947C35.9812 28.3115 36.0547 27.8602 35.966 27.4265C35.8772 26.9927 35.6323 26.6066 35.2778 26.3413C34.9232 26.0761 34.4837 25.9502 34.0425 25.9875ZM6.75 30.375H1.125V19.125H6.75V30.375ZM10.125 29.8125C10.125 29.9617 10.0657 30.1048 9.96025 30.2103C9.85476 30.3157 9.71168 30.375 9.5625 30.375H7.875V19.125H9.5625C9.71168 19.125 9.85476 19.1843 9.96025 19.2898C10.0657 19.3952 10.125 19.5383 10.125 19.6875V29.8125ZM34.4081 28.4366L23.4484 32.0895C22.4593 32.4213 21.3917 32.4378 20.3929 32.1368L11.25 29.394V20.4435L19.3703 22.8791C19.951 23.0508 20.4604 23.4062 20.8218 23.8921C21.1833 24.3779 21.3774 24.9679 21.375 25.5735V26.7311L16.5217 24.7894C16.4527 24.759 16.3781 24.7428 16.3027 24.7418C16.2272 24.7408 16.1523 24.755 16.0824 24.7835C16.0125 24.8121 15.9491 24.8544 15.8959 24.908C15.8427 24.9616 15.8009 25.0253 15.7729 25.0954C15.7448 25.1655 15.7312 25.2405 15.7328 25.316C15.7344 25.3915 15.7511 25.4659 15.7821 25.5347C15.813 25.6036 15.8575 25.6655 15.9128 25.7168C15.9682 25.7681 16.0334 25.8078 16.1044 25.8334L21.7294 28.0834H21.744C21.7713 28.0907 21.7991 28.096 21.8273 28.0991C21.8639 28.11 21.9016 28.1172 21.9398 28.1205C21.9465 28.1205 21.9521 28.1205 21.9589 28.1149C21.9656 28.1093 21.9769 28.1149 21.987 28.1149L34.137 27.1024C34.3041 27.0871 34.4709 27.1339 34.6056 27.2339C34.7403 27.3338 34.8334 27.48 34.8671 27.6443C34.9008 27.8086 34.8727 27.9796 34.7882 28.1246C34.7038 28.2695 34.5688 28.3782 34.4093 28.4299L34.4081 28.4366ZM28.125 22.5C29.6825 22.5 31.2051 22.0381 32.5001 21.1728C33.7952 20.3075 34.8045 19.0776 35.4006 17.6386C35.9966 16.1997 36.1525 14.6163 35.8487 13.0887C35.5448 11.5611 34.7948 10.1579 33.6935 9.05654C32.5921 7.9552 31.1889 7.20518 29.6613 6.90132C28.1337 6.59746 26.5503 6.75341 25.1114 7.34945C23.6724 7.94549 22.4425 8.95485 21.5772 10.2499C20.7119 11.5449 20.25 13.0675 20.25 14.625C20.2524 16.7129 21.0828 18.7145 22.5592 20.1908C24.0355 21.6672 26.0372 22.4976 28.125 22.5ZM28.125 7.875C29.46 7.875 30.7651 8.27088 31.8751 9.01258C32.9851 9.75428 33.8503 10.8085 34.3612 12.0419C34.8721 13.2753 35.0058 14.6325 34.7453 15.9419C34.4849 17.2512 33.842 18.454 32.898 19.398C31.954 20.342 30.7512 20.9849 29.4419 21.2453C28.1325 21.5058 26.7753 21.3721 25.5419 20.8612C24.3085 20.3503 23.2543 19.4851 22.5126 18.3751C21.7709 17.2651 21.375 15.96 21.375 14.625C21.3771 12.8354 22.0889 11.1198 23.3543 9.85433C24.6197 8.58892 26.3354 7.87709 28.125 7.875Z" fill="black"/>
</g>
<defs>
<clipPath id="clip0_211_141">
<rect width="36" height="36" fill="white"/>
</clipPath>
</defs>
</svg>
