<svg width="46" height="47" viewBox="0 0 46 47" fill="none" xmlns="http://www.w3.org/2000/svg">
<path d="M18.975 37.8937H10.7813C10.35 37.8937 10.0625 37.5999 10.0625 37.1593C10.0625 36.7187 10.35 36.4249 10.7813 36.4249H18.2563V18.9468H10.7813C10.35 18.9468 10.0625 18.653 10.0625 18.2124C10.0625 17.7718 10.35 17.478 10.7813 17.478H18.975C19.4063 17.478 19.6938 17.7718 19.6938 18.2124V37.0124C19.6938 37.453 19.2625 37.8937 18.975 37.8937Z" fill="#3E3E3E"/>
<path d="M10.7811 37.8937H6.6123C6.18105 37.8937 5.89355 37.5999 5.89355 37.1593C5.89355 36.7187 6.18105 36.4249 6.6123 36.4249H10.0623V18.9468H6.6123C6.18105 18.9468 5.89355 18.653 5.89355 18.2124C5.89355 17.7718 6.18105 17.478 6.6123 17.478H10.6373C11.0686 17.478 11.3561 17.7718 11.3561 18.2124V37.0124C11.4998 37.453 11.0686 37.8937 10.7811 37.8937Z" fill="#3E3E3E"/>
<path d="M14.8061 33.9283C15.3618 33.9283 15.8123 33.468 15.8123 32.9002C15.8123 32.3324 15.3618 31.8721 14.8061 31.8721C14.2503 31.8721 13.7998 32.3324 13.7998 32.9002C13.7998 33.468 14.2503 33.9283 14.8061 33.9283Z" fill="#3E3E3E"/>
<path d="M37.3752 25.2624H33.3502C32.9189 25.2624 32.6314 24.9687 32.6314 24.528C32.6314 24.0874 32.9189 23.7937 33.3502 23.7937H37.3752C38.0939 23.7937 38.6689 23.2062 38.6689 22.4718C38.6689 21.7374 38.0939 21.1499 37.3752 21.1499H32.2002C31.7689 21.1499 31.4814 20.8562 31.4814 20.4155C31.4814 19.9749 31.7689 19.6812 32.2002 19.6812H37.3752C38.9564 19.6812 40.1064 21.003 40.1064 22.4718C40.1064 23.9405 38.8127 25.2624 37.3752 25.2624Z" fill="#3E3E3E"/>
<path d="M37.3751 29.5217H33.3501C32.9188 29.5217 32.6313 29.2279 32.6313 28.7873C32.6313 28.3467 32.9188 28.0529 33.3501 28.0529H37.3751C38.0938 28.0529 38.6688 27.4654 38.6688 26.7311C38.6688 25.9967 38.0938 25.4092 37.3751 25.4092H33.3501C32.9188 25.4092 32.6313 25.1154 32.6313 24.6748C32.6313 24.2342 32.9188 23.9404 33.3501 23.9404H37.3751C38.9563 23.9404 40.1063 25.2623 40.1063 26.7311C40.1063 28.1998 38.8126 29.5217 37.3751 29.5217Z" fill="#3E3E3E"/>
<path d="M37.3751 33.6345H33.3501C32.9188 33.6345 32.6313 33.3407 32.6313 32.9001C32.6313 32.4595 32.9188 32.1657 33.3501 32.1657H37.3751C38.0938 32.1657 38.6688 31.5782 38.6688 30.8438C38.6688 30.1095 38.0938 29.522 37.3751 29.522H33.3501C32.9188 29.522 32.6313 29.2282 32.6313 28.7876C32.6313 28.347 32.9188 28.0532 33.3501 28.0532H37.3751C38.9563 28.0532 40.1063 29.3751 40.1063 30.8438C40.1063 32.3126 38.8126 33.6345 37.3751 33.6345Z" fill="#3E3E3E"/>
<path d="M35.2186 37.8936H25.0123C24.0061 37.8936 22.9998 37.3061 22.5686 36.4248C22.4248 36.1311 21.9936 35.8373 21.4186 35.8373H18.8311C18.3998 35.8373 18.1123 35.5436 18.1123 35.1029C18.1123 34.6623 18.3998 34.3686 18.8311 34.3686H21.5623C22.5686 34.3686 23.4311 34.9561 23.8623 35.6904C24.1498 36.1311 24.5811 36.4248 25.0123 36.4248H35.2186C35.9373 36.4248 36.5123 35.8373 36.5123 35.1029C36.5123 34.3686 35.9373 33.7811 35.2186 33.7811H33.2061C32.7748 33.7811 32.4873 33.4873 32.4873 33.0467C32.4873 32.6061 32.7748 32.3123 33.2061 32.3123H35.2186C36.7998 32.3123 37.9498 33.6342 37.9498 35.1029C38.0936 36.5717 36.7998 37.8936 35.2186 37.8936ZM20.9873 21.1498H18.9748C18.5436 21.1498 18.2561 20.8561 18.2561 20.4154C18.2561 19.9748 18.5436 19.6811 18.9748 19.6811H20.9873C21.4186 19.6811 21.8498 19.5342 21.9936 19.0936L23.5748 16.8904C24.0061 16.3029 24.2936 15.5686 24.2936 14.8342V9.9873C24.2936 9.54668 24.5811 9.25293 25.0123 9.25293H25.7311C28.6061 9.25293 30.9061 11.6029 30.9061 14.5404V18.3592C30.9061 18.7998 30.6186 19.0936 30.1873 19.0936C29.7561 19.0936 29.4686 18.7998 29.4686 18.3592V14.3936C29.4686 12.3373 27.8873 10.5748 25.7311 10.5748V14.6873C25.7311 15.7154 25.4436 16.7436 24.7248 17.6248L23.1436 19.8279C22.7123 20.7092 21.8498 21.1498 20.9873 21.1498Z" fill="#3E3E3E"/>
<path d="M35.2188 21.15H32.2C30.6187 21.15 29.4688 19.8281 29.4688 18.3594V16.1562C29.4688 15.7156 29.7562 15.4219 30.1875 15.4219C30.6187 15.4219 30.9062 15.7156 30.9062 16.1562V18.2125C30.9062 18.9469 31.4812 19.5344 32.2 19.5344H35.2188C35.65 19.5344 35.9375 19.8281 35.9375 20.2688C35.9375 20.7094 35.65 21.15 35.2188 21.15Z" fill="#3E3E3E"/>
</svg>
