<svg width="25" height="25" viewBox="0 0 25 25" fill="none" xmlns="http://www.w3.org/2000/svg">
<g clip-path="url(#clip0_211_145)">
<path d="M12.5 0C5.60625 0 0 5.60625 0 12.5C0 19.3938 5.60625 25 12.5 25C19.3938 25 25 19.3938 25 12.5C25 5.60625 19.3938 0 12.5 0ZM12.5 1.5625C18.55 1.5625 23.4375 6.45 23.4375 12.5C23.4375 18.55 18.55 23.4375 12.5 23.4375C6.45 23.4375 1.5625 18.55 1.5625 12.5C1.5625 6.45 6.45 1.5625 12.5 1.5625ZM7.8125 7.8125C6.52656 7.8125 5.46875 8.87187 5.46875 10.1562C5.46875 11.4406 6.52656 12.5 7.8125 12.5C9.09844 12.5 10.1562 11.4406 10.1562 10.1562C10.1562 8.87187 9.09844 7.8125 7.8125 7.8125ZM17.1875 7.8125C15.9016 7.8125 14.8438 8.87187 14.8438 10.1562C14.8438 11.4406 15.9016 12.5 17.1875 12.5C18.4734 12.5 19.5312 11.4406 19.5312 10.1562C19.5312 8.87187 18.4734 7.8125 17.1875 7.8125ZM7.8125 9.375C8.25313 9.375 8.59375 9.71562 8.59375 10.1562C8.59375 10.5969 8.25313 10.9375 7.8125 10.9375C7.7095 10.939 7.60725 10.9198 7.51179 10.881C7.41634 10.8423 7.32963 10.7848 7.25679 10.712C7.18395 10.6391 7.12646 10.5524 7.08772 10.457C7.04898 10.3615 7.02978 10.2593 7.03125 10.1562C7.03125 9.71562 7.37187 9.375 7.8125 9.375ZM17.1875 9.375C17.6281 9.375 17.9688 9.71562 17.9688 10.1562C17.9688 10.5969 17.6281 10.9375 17.1875 10.9375C17.0845 10.939 16.9822 10.9198 16.8868 10.881C16.7913 10.8423 16.7046 10.7848 16.6318 10.712C16.559 10.6391 16.5015 10.5524 16.4627 10.457C16.424 10.3615 16.4048 10.2593 16.4062 10.1562C16.4062 9.71562 16.7469 9.375 17.1875 9.375ZM6.85781 16.3422L5.72812 17.4219C6.59783 18.3306 7.64158 19.055 8.79716 19.5519C9.95275 20.0487 11.1965 20.3078 12.4544 20.3138C13.7122 20.3198 14.9584 20.0725 16.1187 19.5866C17.2789 19.1008 18.3295 18.3864 19.2078 17.4859L18.0906 16.3969C17.3584 17.147 16.4827 17.7422 15.5157 18.1468C14.5487 18.5515 13.5101 18.7574 12.4618 18.7523C11.4136 18.7472 10.3771 18.5312 9.41402 18.1171C8.45098 17.7031 7.58269 17.0994 6.85781 16.3422Z" fill="black"/>
</g>
<defs>
<clipPath id="clip0_211_145">
<rect width="25" height="25" fill="white"/>
</clipPath>
</defs>
</svg>
