<svg width="25" height="31" viewBox="0 0 25 31" fill="none" xmlns="http://www.w3.org/2000/svg">
<path d="M3 22L6.5 22.5H10.5H15.5L16 25H3V22Z" fill="#0FA85B"/>
<path d="M8 15L8.5 11.5L8.5 7.5L8.5 2.5L11 2L11 15L8 15Z" fill="#0FA85B"/>
<path d="M23.514 7.50001H23.467L23.014 2.95001C23.0016 2.82625 22.9435 2.71157 22.851 2.62836C22.7585 2.54515 22.6384 2.49939 22.514 2.50001V1.00001H21.514V2.50001C21.3901 2.50013 21.2707 2.54623 21.1789 2.62937C21.0871 2.7125 21.0294 2.82677 21.017 2.95001L20.564 7.50001H20.514C20.3814 7.50001 20.2542 7.55269 20.1605 7.64646C20.0667 7.74023 20.014 7.8674 20.014 8.00001V10C20.014 10.1326 20.0667 10.2598 20.1605 10.3536C20.2542 10.4473 20.3814 10.5 20.514 10.5H21.514V13.5C21.51 15.0947 20.9632 16.6406 19.9635 17.8831C18.9639 19.1256 17.5709 19.9907 16.014 20.336C15.6802 19.6417 15.1907 19.0338 14.5837 18.5594C13.9767 18.0851 13.2684 17.7571 12.514 17.601V16.707L14.368 14.853C14.4617 14.7592 14.5144 14.6321 14.5144 14.4995C14.5144 14.3669 14.4617 14.2398 14.368 14.146L12.868 12.646C12.7742 12.5523 12.6471 12.4996 12.5145 12.4996C12.3819 12.4996 12.2548 12.5523 12.161 12.646L11.515 13.292V11C11.515 10.8674 11.4623 10.7402 11.3686 10.6465C11.2748 10.5527 11.1476 10.5 11.015 10.5V8.00001H12.015V7.00001H11.015V6.00001H12.015V5.00001H11.015V3.00001H12.015C12.1083 3.00057 12.1999 2.97501 12.2794 2.92624C12.3589 2.87747 12.4232 2.80742 12.465 2.72401L13.465 0.724011C13.5032 0.647495 13.5212 0.562451 13.5172 0.477011C13.5131 0.391572 13.4873 0.308594 13.442 0.236011C13.3968 0.163336 13.3337 0.103473 13.2588 0.0621515C13.1839 0.0208304 13.0996 -0.000565542 13.014 1.13649e-05H6.01401C5.92885 5.26371e-05 5.84511 0.0218446 5.77073 0.063321C5.69636 0.104797 5.6338 0.164584 5.58901 0.237011C5.54409 0.309563 5.51849 0.392404 5.51464 0.477649C5.51079 0.562893 5.52882 0.647705 5.56701 0.724011L6.56701 2.72401C6.60858 2.80696 6.6724 2.8767 6.75134 2.92545C6.83028 2.97419 6.92123 3.00001 7.01401 3.00001H8.01401V5.00001H7.01401V6.00001H8.01401V7.00001H7.01401V8.00001H8.01401V10.5C7.8814 10.5 7.75422 10.5527 7.66046 10.6465C7.56669 10.7402 7.51401 10.8674 7.51401 11V13.233L6.92801 12.647C6.83425 12.5533 6.70709 12.5006 6.57451 12.5006C6.44193 12.5006 6.31477 12.5533 6.22101 12.647L5.79501 13.073L5.12901 12.404C4.85401 12.126 4.52601 11.905 4.16501 11.754C3.80401 11.603 3.41601 11.526 3.02501 11.526H3.02001C2.62701 11.525 2.23701 11.603 1.87401 11.754C1.51054 11.9048 1.18052 12.126 0.90301 12.405L0.85801 12.45C0.58601 12.722 0.37001 13.046 0.22201 13.402C0.07401 13.758 -0.000990131 14.14 9.86926e-06 14.525C0.00100987 14.91 0.0770097 15.292 0.22601 15.647C0.37501 16.002 0.59101 16.325 0.86501 16.597C1.79519 17.5161 2.82914 18.3239 3.94601 19.004C3.02803 19.936 2.51364 21.1918 2.51401 22.5V28H2.01401C1.8814 28 1.75422 28.0527 1.66046 28.1465C1.56669 28.2402 1.51401 28.3674 1.51401 28.5V30.5C1.51401 30.6326 1.56669 30.7598 1.66046 30.8536C1.75422 30.9473 1.8814 31 2.01401 31H17.014C17.1466 31 17.2738 30.9473 17.3676 30.8536C17.4613 30.7598 17.514 30.6326 17.514 30.5V28.5C17.514 28.3674 17.4613 28.2402 17.3676 28.1465C17.2738 28.0527 17.1466 28 17.014 28H16.514V22.5C16.5126 22.0898 16.4602 21.6813 16.358 21.284C18.108 20.865 19.667 19.869 20.784 18.458C21.901 17.047 22.509 15.3 22.514 13.5V10.5H23.514C23.6466 10.5 23.7738 10.4473 23.8676 10.3536C23.9613 10.2598 24.014 10.1326 24.014 10V8.00001C24.014 7.8674 23.9613 7.74023 23.8676 7.64646C23.7738 7.55269 23.6466 7.50001 23.514 7.50001ZM15.456 21.85L15.014 22.293C14.879 22.422 14.7 22.494 14.514 22.494C14.328 22.494 14.149 22.422 14.014 22.293L13.721 22C13.3956 21.6898 12.9632 21.5167 12.5135 21.5167C12.0639 21.5167 11.6315 21.6898 11.306 22L11.013 22.293C10.878 22.422 10.699 22.494 10.513 22.494C10.327 22.494 10.148 22.422 10.013 22.293L9.72001 22C9.39455 21.6898 8.96216 21.5167 8.51251 21.5167C8.06286 21.5167 7.63047 21.6898 7.30501 22L7.01201 22.293C6.87701 22.422 6.69801 22.494 6.51201 22.494C6.32601 22.494 6.14701 22.422 6.01201 22.293L5.72001 22C5.43801 21.732 5.07501 21.565 4.68701 21.526C4.29901 21.487 3.91001 21.577 3.58001 21.782C3.74901 20.862 4.23401 20.03 4.95301 19.43C5.67201 18.83 6.57701 18.501 7.51201 18.5H11.512C12.459 18.502 13.375 18.839 14.097 19.453C14.819 20.067 15.3 20.916 15.454 21.85H15.456ZM3.51401 23.207L4.01401 22.707C4.14901 22.578 4.32801 22.506 4.51401 22.506C4.70001 22.506 4.87901 22.578 5.01401 22.707L5.30701 23C5.63242 23.31 6.0646 23.4829 6.51401 23.4829C6.96342 23.4829 7.3956 23.31 7.72101 23L8.01401 22.707C8.14901 22.578 8.32801 22.506 8.51401 22.506C8.70001 22.506 8.87901 22.578 9.01401 22.707L9.30701 23C9.63242 23.31 10.0646 23.4829 10.514 23.4829C10.9634 23.4829 11.3956 23.31 11.721 23L12.014 22.707C12.149 22.578 12.328 22.506 12.514 22.506C12.7 22.506 12.879 22.578 13.014 22.707L13.307 23C13.594 23.288 13.974 23.464 14.379 23.495C14.784 23.526 15.187 23.411 15.514 23.17V24.292L15.014 24.792C14.879 24.921 14.7 24.993 14.514 24.993C14.328 24.993 14.149 24.921 14.014 24.792L13.721 24.5C13.3956 24.1898 12.9632 24.0167 12.5135 24.0167C12.0639 24.0167 11.6315 24.1898 11.306 24.5L11.013 24.793C10.878 24.922 10.699 24.994 10.513 24.994C10.327 24.994 10.148 24.922 10.013 24.793L9.72101 24.5C9.39555 24.1898 8.96316 24.0167 8.51351 24.0167C8.06386 24.0167 7.63147 24.1898 7.30601 24.5L7.01301 24.793C6.87801 24.922 6.69901 24.994 6.51301 24.994C6.32701 24.994 6.14801 24.922 6.01301 24.793L5.72101 24.5C5.42801 24.223 5.04901 24.054 4.64701 24.024C4.24501 23.994 3.84501 24.103 3.51401 24.333V23.207ZM8.36701 14.854C8.41359 14.8076 8.45055 14.7524 8.47578 14.6917C8.501 14.6309 8.514 14.5658 8.51401 14.5V11.5H10.514V14.5C10.5139 14.5657 10.5267 14.6308 10.5518 14.6915C10.5768 14.7523 10.6136 14.8075 10.66 14.854L10.806 15H8.22001L8.36701 14.854ZM7.51401 17.5V16H11.514V17.5H7.51401ZM12.514 13.707L13.307 14.5L12.479 15.328C12.4554 15.2602 12.4172 15.1984 12.367 15.147L11.721 14.5L12.514 13.707ZM6.82301 1.00001H12.205L11.705 2.00001H7.32301L6.82301 1.00001ZM9.01401 3.00001H10.014V5.00001H9.01401V3.00001ZM9.01401 6.00001H10.014V7.00001H9.01401V6.00001ZM9.01401 8.00001H10.014V10.5H9.01401V8.00001ZM7.33701 14.469L6.66001 15.146C6.62127 15.1867 6.58982 15.2337 6.56701 15.285L5.78101 14.5L6.57401 13.707L7.33701 14.469ZM1.00001 14.522C0.99901 14.268 1.04801 14.017 1.14501 13.783C1.24201 13.549 1.38401 13.336 1.56301 13.157L1.60901 13.112C1.79401 12.926 2.01401 12.778 2.25601 12.677C2.49801 12.576 2.75801 12.525 3.02001 12.525H3.02401C3.28372 12.5249 3.54087 12.5763 3.78053 12.6764C4.02018 12.7765 4.23755 12.9232 4.42001 13.108L5.08801 13.78L4.72101 14.147C4.62727 14.2408 4.57462 14.3679 4.57462 14.5005C4.57462 14.6331 4.62727 14.7602 4.72101 14.854L6.51401 16.647V17.601C5.88901 17.728 5.29501 17.975 4.76401 18.327C3.59901 17.652 2.52501 16.831 1.56801 15.886C1.3878 15.7078 1.24485 15.4955 1.14751 15.2615C1.05016 15.0275 1.00036 14.7765 1.00101 14.523L1.00001 14.522ZM16.514 30H2.51401V29H16.514V30ZM3.51401 28V25.707L4.01401 25.207C4.14901 25.078 4.32801 25.006 4.51401 25.006C4.70001 25.006 4.87901 25.078 5.01401 25.207L5.30701 25.5C5.63242 25.81 6.0646 25.9829 6.51401 25.9829C6.96342 25.9829 7.3956 25.81 7.72101 25.5L8.01401 25.207C8.14901 25.078 8.32801 25.006 8.51401 25.006C8.70001 25.006 8.87901 25.078 9.01401 25.207L9.30701 25.5C9.63242 25.81 10.0646 25.9829 10.514 25.9829C10.9634 25.9829 11.3956 25.81 11.721 25.5L12.014 25.207C12.149 25.078 12.328 25.006 12.514 25.006C12.7 25.006 12.879 25.078 13.014 25.207L13.307 25.5C13.594 25.788 13.974 25.964 14.379 25.995C14.784 26.026 15.187 25.911 15.514 25.67V28H3.51401ZM21.966 3.50001H22.061L22.461 7.50001H21.566L21.966 3.50001ZM23.014 9.50001H21.014V8.50001H23.014V9.50001Z" fill="#333333"/>
</svg>
