<svg width="30" height="31" viewBox="0 0 30 31" fill="none" xmlns="http://www.w3.org/2000/svg">
<mask id="mask0_5737_11824" style="mask-type:luminance" maskUnits="userSpaceOnUse" x="0" y="0" width="30" height="31">
<path d="M0 0.785156H30V30.7852H0V0.785156Z" fill="white"/>
</mask>
<g mask="url(#mask0_5737_11824)">
<path d="M27.4762 22.3329C26.1122 21.9239 24.5442 21.7879 23.1122 21.9919C22.9419 22.0325 22.7896 22.1279 22.6787 22.2633C22.5678 22.3988 22.5044 22.5669 22.4982 22.7419C22.5388 22.9122 22.6341 23.0645 22.7696 23.1754C22.9051 23.2863 23.0732 23.3497 23.2482 23.3559C24.5442 23.1519 25.9072 23.2879 27.0662 23.6289H27.2702C27.5432 23.6289 27.8162 23.4239 27.9522 23.1519C28.0202 22.8109 27.8162 22.4699 27.4752 22.3339L27.4762 22.3329ZM29.7262 20.0139C26.8622 18.0369 22.2262 18.0369 19.4312 20.0139C17.0452 21.6499 13.0902 21.6499 10.6362 20.0139C7.77218 18.0369 3.13618 18.0369 0.341182 20.0139C0.000181705 20.2179 -0.0678183 20.6279 0.136182 20.9679C0.340182 21.3079 0.750182 21.3769 1.09118 21.1729C3.47718 19.5369 7.43218 19.5369 9.88618 21.1729C11.3182 22.1269 13.1592 22.6729 15.0682 22.6729C16.9772 22.6729 18.8182 22.1959 20.2502 21.1729C22.6362 19.5369 26.5912 19.5369 29.0452 21.1729C29.3862 21.3769 29.7952 21.3089 30.0002 20.9679C30.0682 20.6269 30.0002 20.2179 29.7272 20.0139H29.7262ZM14.9992 26.0139C16.8402 26.0139 18.7492 25.5369 20.1812 24.5139C20.5222 24.3099 20.5902 23.8999 20.3852 23.5599C20.1802 23.2199 19.7712 23.1509 19.4312 23.3549C17.0452 24.9909 13.0902 24.9909 10.6362 23.3549C9.40918 22.5369 7.90918 21.9909 6.20418 21.9229C5.79518 21.9229 5.45418 22.1959 5.45418 22.6049C5.44919 22.7829 5.50852 22.9567 5.6213 23.0944C5.73408 23.2322 5.89274 23.3247 6.06818 23.3549C7.40592 23.4185 8.70161 23.8424 9.81818 24.5819C11.2502 25.5359 13.1592 26.0139 15.0002 26.0139H14.9992ZM17.5222 27.7189C15.2042 28.4009 12.4082 28.0599 10.6362 26.8329C10.2952 26.6279 9.88618 26.6969 9.68118 27.0369C9.47618 27.3769 9.54518 27.7869 9.88618 27.9919C11.3182 28.9459 13.1592 29.4919 15.0682 29.4919C16.0232 29.4919 17.0452 29.3559 18.0002 29.0829C18.3412 28.9469 18.5452 28.6059 18.4772 28.2649C18.2732 27.7879 17.8632 27.5829 17.5232 27.7199L17.5222 27.7189ZM24.5452 25.3329C22.9092 25.3329 21.4092 25.6739 20.1132 26.3559C19.7722 26.5609 19.6362 26.9699 19.8402 27.3109C19.9762 27.5149 20.1812 27.6519 20.4542 27.6519C20.5902 27.6519 20.6582 27.6519 20.7952 27.5839C21.8182 27.0379 23.1812 26.6979 24.5452 26.6979C24.6363 26.7041 24.7278 26.6907 24.8133 26.6587C24.8989 26.6266 24.9766 26.5766 25.0412 26.5119C25.1058 26.4473 25.1558 26.3696 25.1879 26.2841C25.22 26.1985 25.2334 26.1071 25.2272 26.0159C25.2334 25.9248 25.22 25.8333 25.1879 25.7478C25.1558 25.6622 25.1058 25.5845 25.0412 25.5199C24.9766 25.4553 24.8989 25.4053 24.8133 25.3732C24.7278 25.3411 24.6363 25.3277 24.5452 25.3339V25.3329ZM20.9992 17.8319H21.0672C21.4082 17.8319 21.6812 17.5589 21.7492 17.2179C21.7492 16.9449 21.8172 16.7409 21.8172 16.4679C21.8114 14.6615 21.0912 12.9306 19.8138 11.6533C18.5365 10.3759 16.8056 9.65572 14.9992 9.64992C13.1927 9.65572 11.4619 10.3759 10.1845 11.6533C8.90717 12.9306 8.18698 14.6615 8.18118 16.4679C8.18118 16.7409 8.18118 16.9449 8.24918 17.2179C8.27943 17.3934 8.37191 17.552 8.50966 17.6648C8.64742 17.7776 8.82122 17.8369 8.99918 17.8319C9.1695 17.7913 9.32179 17.696 9.4327 17.5605C9.54361 17.425 9.60701 17.2569 9.61318 17.0819V16.4679C9.61318 13.4679 12.0682 11.0129 15.0682 11.0129C18.0682 11.0129 20.5232 13.4679 20.5232 16.4679V17.0819C20.3872 17.4229 20.6582 17.7639 20.9992 17.8319ZM10.9082 16.4689C10.902 16.5601 10.9154 16.6515 10.9474 16.7371C10.9795 16.8226 11.0295 16.9003 11.0942 16.9649C11.1588 17.0296 11.2365 17.0796 11.322 17.1117C11.4076 17.1437 11.499 17.1571 11.5902 17.1509C11.6813 17.1571 11.7728 17.1437 11.8583 17.1117C11.9439 17.0796 12.0216 17.0296 12.0862 16.9649C12.1508 16.9003 12.2008 16.8226 12.2329 16.7371C12.265 16.6515 12.2784 16.5601 12.2722 16.4689C12.2722 14.9689 13.4992 13.7419 14.9992 13.7419C15.0903 13.7481 15.1818 13.7347 15.2673 13.7027C15.3529 13.6706 15.4306 13.6206 15.4952 13.5559C15.5598 13.4913 15.6098 13.4136 15.6419 13.3281C15.674 13.2425 15.6874 13.1511 15.6812 13.0599C15.6874 12.9688 15.674 12.8773 15.6419 12.7918C15.6098 12.7062 15.5598 12.6285 15.4952 12.5639C15.4306 12.4993 15.3529 12.4492 15.2673 12.4172C15.1818 12.3851 15.0903 12.3717 14.9992 12.3779C12.7492 12.3779 10.9082 14.2189 10.9082 16.4689ZM23.1812 16.4689C23.175 16.5601 23.1884 16.6515 23.2204 16.7371C23.2525 16.8226 23.3025 16.9003 23.3672 16.9649C23.4318 17.0296 23.5095 17.0796 23.595 17.1117C23.6806 17.1437 23.772 17.1571 23.8632 17.1509H28.6362C28.7273 17.1571 28.8188 17.1437 28.9043 17.1117C28.9899 17.0796 29.0676 17.0296 29.1322 16.9649C29.1968 16.9003 29.2468 16.8226 29.2789 16.7371C29.311 16.6515 29.3244 16.5601 29.3182 16.4689C29.3244 16.3778 29.311 16.2863 29.2789 16.2008C29.2468 16.1152 29.1968 16.0375 29.1322 15.9729C29.0676 15.9083 28.9899 15.8582 28.9043 15.8262C28.8188 15.7941 28.7273 15.7807 28.6362 15.7869H23.8632C23.772 15.7807 23.6806 15.7941 23.595 15.8262C23.5095 15.8582 23.4318 15.9083 23.3672 15.9729C23.3025 16.0375 23.2525 16.1152 23.2204 16.2008C23.1884 16.2863 23.175 16.3778 23.1812 16.4689ZM1.36318 17.1509H6.13618C6.22735 17.1571 6.31878 17.1437 6.40434 17.1117C6.4899 17.0796 6.5676 17.0296 6.63221 16.9649C6.69682 16.9003 6.74685 16.8226 6.77893 16.7371C6.811 16.6515 6.82439 16.5601 6.81818 16.4689C6.82439 16.3778 6.811 16.2863 6.77893 16.2008C6.74685 16.1152 6.69682 16.0375 6.63221 15.9729C6.5676 15.9083 6.4899 15.8582 6.40434 15.8262C6.31878 15.7941 6.22735 15.7807 6.13618 15.7869H1.36218C1.27102 15.7807 1.17958 15.7941 1.09402 15.8262C1.00846 15.8582 0.930766 15.9083 0.866155 15.9729C0.801543 16.0375 0.751516 16.1152 0.719438 16.2008C0.68736 16.2863 0.673974 16.3778 0.680182 16.4689C0.673974 16.5601 0.68736 16.6515 0.719438 16.7371C0.751516 16.8226 0.801543 16.9003 0.866155 16.9649C0.930766 17.0296 1.00846 17.0796 1.09402 17.1117C1.17958 17.1437 1.27202 17.1571 1.36318 17.1509ZM14.9992 8.28692C15.0903 8.29312 15.1818 8.27974 15.2673 8.24766C15.3529 8.21558 15.4306 8.16555 15.4952 8.10094C15.5598 8.03633 15.6098 7.95863 15.6419 7.87307C15.674 7.78752 15.6874 7.69608 15.6812 7.60492V2.83192C15.6874 2.74075 15.674 2.64932 15.6419 2.56376C15.6098 2.4782 15.5598 2.4005 15.4952 2.33589C15.4306 2.27128 15.3529 2.22125 15.2673 2.18917C15.1818 2.15709 15.0903 2.14371 14.9992 2.14992C14.908 2.14371 14.8166 2.15709 14.731 2.18917C14.6455 2.22125 14.5678 2.27128 14.5032 2.33589C14.4385 2.4005 14.3885 2.4782 14.3564 2.56376C14.3244 2.64932 14.311 2.74075 14.3172 2.83192V7.60492C14.311 7.69608 14.3244 7.78752 14.3564 7.87307C14.3885 7.95863 14.4385 8.03633 14.5032 8.10094C14.5678 8.16555 14.6455 8.21558 14.731 8.24766C14.8166 8.27974 14.908 8.29312 14.9992 8.28692ZM8.24918 10.6729C8.37821 10.7966 8.54764 10.8694 8.72618 10.8779C8.86218 10.8779 9.06718 10.8099 9.20318 10.6729C9.26777 10.6113 9.31919 10.5372 9.35432 10.4551C9.38944 10.373 9.40756 10.2847 9.40756 10.1954C9.40756 10.1061 9.38944 10.0178 9.35432 9.93572C9.31919 9.85364 9.26777 9.77955 9.20318 9.71792L6.34018 6.85492C6.27855 6.79033 6.20446 6.73891 6.12238 6.70378C6.04031 6.66865 5.95196 6.65054 5.86268 6.65054C5.77341 6.65054 5.68506 6.66865 5.60298 6.70378C5.52091 6.73891 5.44681 6.79033 5.38518 6.85492C5.32059 6.91655 5.26918 6.99064 5.23405 7.07272C5.19892 7.15479 5.18081 7.24314 5.18081 7.33242C5.18081 7.42169 5.19892 7.51004 5.23405 7.59212C5.26918 7.67419 5.32059 7.74828 5.38518 7.80992L8.24918 10.6729ZM21.2722 10.8779C21.4762 10.8779 21.6132 10.8099 21.7492 10.6729L24.6132 7.80892C24.6778 7.74728 24.7292 7.67319 24.7643 7.59112C24.7994 7.50904 24.8176 7.42069 24.8176 7.33142C24.8176 7.24214 24.7994 7.15379 24.7643 7.07172C24.7292 6.98964 24.6778 6.91555 24.6132 6.85392C24.5516 6.78933 24.4775 6.73791 24.3954 6.70278C24.3133 6.66765 24.225 6.64954 24.1357 6.64954C24.0464 6.64954 23.9581 6.66765 23.876 6.70278C23.7939 6.73791 23.7198 6.78933 23.6582 6.85392L20.7942 9.71792C20.7296 9.77955 20.6782 9.85364 20.643 9.93572C20.6079 10.0178 20.5898 10.1061 20.5898 10.1954C20.5898 10.2847 20.6079 10.373 20.643 10.4551C20.6782 10.5372 20.7296 10.6113 20.7942 10.6729C20.8541 10.7395 20.9278 10.7924 21.0102 10.8277C21.0925 10.8631 21.1816 10.8803 21.2712 10.8779H21.2722ZM22.9082 12.4459C22.5672 12.5819 22.3632 12.9919 22.5672 13.3319C22.7032 13.6049 22.9082 13.7409 23.1812 13.7409C23.2492 13.7409 23.3862 13.7409 23.4542 13.6729L25.3632 12.9229C25.7042 12.7869 25.9082 12.3779 25.7042 12.0369C25.5682 11.6959 25.1582 11.4919 24.8182 11.6959L22.9082 12.4459ZM18.1352 8.90092C18.2032 8.96892 18.2712 8.96892 18.4082 8.96892C18.6812 8.96892 18.9542 8.83292 19.0222 8.55992L19.7722 6.65092C19.9082 6.30992 19.7722 5.90092 19.4312 5.76492C19.0902 5.62892 18.6812 5.76492 18.5452 6.10592L17.7952 8.01492C17.5902 8.35592 17.7942 8.76492 18.1352 8.90092ZM10.9762 8.55992C11.1122 8.83292 11.3172 8.96892 11.5902 8.96892C11.6582 8.96892 11.7952 8.96892 11.8632 8.90092C12.2042 8.76492 12.4082 8.35592 12.2042 8.01492L11.4542 6.10592C11.3182 5.76492 10.9082 5.56092 10.5682 5.76492C10.2272 5.90092 10.0232 6.30992 10.2272 6.65092L10.9762 8.55992ZM4.63518 12.9239L6.54418 13.6739C6.61218 13.7419 6.74918 13.7419 6.81718 13.7419C7.09018 13.7419 7.36218 13.6059 7.43118 13.3329C7.56718 12.9919 7.43118 12.5829 7.09018 12.4469L5.18118 11.6969C4.84018 11.5609 4.43118 11.6969 4.29518 12.0379C4.15918 12.3789 4.29418 12.7879 4.63518 12.9239Z" fill="#333333"/>
<path d="M21.0662 17.8319H20.9982C20.6572 17.7639 20.3862 17.4229 20.5222 17.0819V16.4679C20.5222 13.4679 18.0672 11.0129 15.0672 11.0129C12.0672 11.0129 9.61221 13.4679 9.61221 16.4679V17.0819C9.60604 17.2569 9.54264 17.425 9.43173 17.5605C9.32082 17.696 9.16853 17.7913 8.99821 17.8319C8.82025 17.8369 8.64645 17.7776 8.5087 17.6648C8.37094 17.552 8.27846 17.3934 8.24821 17.2179C8.18021 16.9449 8.18021 16.7409 8.18021 16.4679C8.18602 14.6615 8.9062 12.9306 10.1836 11.6533C11.4609 10.3759 13.1918 9.65572 14.9982 9.64992C16.8047 9.65572 18.5355 10.3759 19.8129 11.6533C21.0902 12.9306 21.8104 14.6615 21.8162 16.4679C21.8162 16.7409 21.7482 16.9449 21.7482 17.2179C21.6802 17.5589 21.4072 17.8319 21.0662 17.8319Z" fill="#333333"/>
<path d="M10.9465 16.7371C10.9144 16.6515 10.901 16.5601 10.9072 16.4689C10.9072 14.2189 12.7482 12.3779 14.9982 12.3779C15.0894 12.3717 15.1808 12.3851 15.2664 12.4172C15.3519 12.4492 15.4296 12.4993 15.4942 12.5639C15.5589 12.6285 15.6089 12.7062 15.641 12.7918C15.673 12.8773 15.6864 12.9688 15.6802 13.0599C15.6864 13.1511 15.673 13.2425 15.641 13.3281C15.6089 13.4136 15.5589 13.4913 15.4942 13.5559C15.4296 13.6206 15.3519 13.6706 15.2664 13.7027C15.1808 13.7347 15.0894 13.7481 14.9982 13.7419C13.4982 13.7419 12.2712 14.9689 12.2712 16.4689C12.2774 16.5601 12.264 16.6515 12.232 16.7371C12.1999 16.8226 12.1499 16.9003 12.0852 16.9649C12.0206 17.0296 11.9429 17.0796 11.8574 17.1117C11.7718 17.1437 11.6804 17.1571 11.5892 17.1509C11.498 17.1571 11.4066 17.1437 11.3211 17.1117C11.2355 17.0796 11.1578 17.0296 11.0932 16.9649C11.0286 16.9003 10.9785 16.8226 10.9465 16.7371Z" fill="#333333"/>
<path d="M23.2195 16.7371C23.1874 16.6515 23.174 16.5601 23.1802 16.4689C23.174 16.3778 23.1874 16.2863 23.2195 16.2008C23.2515 16.1152 23.3016 16.0375 23.3662 15.9729C23.4308 15.9083 23.5085 15.8582 23.5941 15.8262C23.6796 15.7941 23.771 15.7807 23.8622 15.7869H28.6352C28.7264 15.7807 28.8178 15.7941 28.9034 15.8262C28.9889 15.8582 29.0666 15.9083 29.1312 15.9729C29.1959 16.0375 29.2459 16.1152 29.278 16.2008C29.31 16.2863 29.3234 16.3778 29.3172 16.4689C29.3234 16.5601 29.31 16.6515 29.278 16.7371C29.2459 16.8226 29.1959 16.9003 29.1312 16.9649C29.0666 17.0296 28.9889 17.0796 28.9034 17.1117C28.8178 17.1437 28.7264 17.1571 28.6352 17.1509H23.8622C23.771 17.1571 23.6796 17.1437 23.5941 17.1117C23.5085 17.0796 23.4308 17.0296 23.3662 16.9649C23.3016 16.9003 23.2515 16.8226 23.2195 16.7371Z" fill="#333333"/>
<path d="M6.13521 17.1509H1.36221C1.27105 17.1571 1.17861 17.1437 1.09305 17.1117C1.0075 17.0796 0.929798 17.0296 0.865186 16.9649C0.800574 16.9003 0.750547 16.8226 0.718469 16.7371C0.686391 16.6515 0.673005 16.5601 0.679213 16.4689C0.673005 16.3778 0.686391 16.2863 0.718469 16.2008C0.750547 16.1152 0.800574 16.0375 0.865186 15.9729C0.929798 15.9083 1.0075 15.8582 1.09305 15.8262C1.17861 15.7941 1.27005 15.7807 1.36121 15.7869H6.13521C6.22638 15.7807 6.31781 15.7941 6.40337 15.8262C6.48893 15.8582 6.56663 15.9083 6.63124 15.9729C6.69585 16.0375 6.74588 16.1152 6.77796 16.2008C6.81004 16.2863 6.82342 16.3778 6.81721 16.4689C6.82342 16.5601 6.81004 16.6515 6.77796 16.7371C6.74588 16.8226 6.69585 16.9003 6.63124 16.9649C6.56663 17.0296 6.48893 17.0796 6.40337 17.1117C6.31781 17.1437 6.22638 17.1571 6.13521 17.1509Z" fill="#333333"/>
<path d="M15.2664 8.24766C15.1808 8.27974 15.0894 8.29312 14.9982 8.28692C14.907 8.29312 14.8156 8.27974 14.7301 8.24766C14.6445 8.21558 14.5668 8.16555 14.5022 8.10094C14.4376 8.03633 14.3875 7.95863 14.3555 7.87307C14.3234 7.78752 14.31 7.69608 14.3162 7.60492V2.83192C14.31 2.74075 14.3234 2.64932 14.3555 2.56376C14.3875 2.4782 14.4376 2.4005 14.5022 2.33589C14.5668 2.27128 14.6445 2.22125 14.7301 2.18917C14.8156 2.15709 14.907 2.14371 14.9982 2.14992C15.0894 2.14371 15.1808 2.15709 15.2664 2.18917C15.3519 2.22125 15.4296 2.27128 15.4942 2.33589C15.5589 2.4005 15.6089 2.4782 15.641 2.56376C15.673 2.64932 15.6864 2.74075 15.6802 2.83192V7.60492C15.6864 7.69608 15.673 7.78752 15.641 7.87307C15.6089 7.95863 15.5589 8.03633 15.4942 8.10094C15.4296 8.16555 15.3519 8.21558 15.2664 8.24766Z" fill="#333333"/>
<path d="M8.72521 10.8779C8.54667 10.8694 8.37724 10.7966 8.24821 10.6729L5.38421 7.80992C5.31962 7.74828 5.26821 7.67419 5.23308 7.59212C5.19795 7.51004 5.17984 7.42169 5.17984 7.33242C5.17984 7.24314 5.19795 7.15479 5.23308 7.07272C5.26821 6.99064 5.31962 6.91655 5.38421 6.85492C5.44584 6.79033 5.51994 6.73891 5.60201 6.70378C5.68409 6.66865 5.77244 6.65054 5.86171 6.65054C5.95099 6.65054 6.03934 6.66865 6.12141 6.70378C6.20349 6.73891 6.27758 6.79033 6.33921 6.85492L9.20221 9.71792C9.2668 9.77955 9.31822 9.85364 9.35335 9.93572C9.38848 10.0178 9.40659 10.1061 9.40659 10.1954C9.40659 10.2847 9.38848 10.373 9.35335 10.4551C9.31822 10.5372 9.2668 10.6113 9.20221 10.6729C9.06621 10.8099 8.86121 10.8779 8.72521 10.8779Z" fill="#333333"/>
<path d="M21.7482 10.6729C21.6122 10.8099 21.4752 10.8779 21.2712 10.8779H21.2702C21.1806 10.8803 21.0916 10.8631 21.0092 10.8277C20.9269 10.7924 20.8532 10.7395 20.7932 10.6729C20.7286 10.6113 20.6772 10.5372 20.6421 10.4551C20.6069 10.373 20.5888 10.2847 20.5888 10.1954C20.5888 10.1061 20.6069 10.0178 20.6421 9.93572C20.6772 9.85364 20.7286 9.77955 20.7932 9.71792L23.6572 6.85392C23.7188 6.78933 23.7929 6.73791 23.875 6.70278C23.9571 6.66765 24.0454 6.64954 24.1347 6.64954C24.224 6.64954 24.3123 6.66765 24.3944 6.70278C24.4765 6.73791 24.5506 6.78933 24.6122 6.85392C24.6768 6.91555 24.7282 6.98964 24.7633 7.07172C24.7985 7.15379 24.8166 7.24214 24.8166 7.33142C24.8166 7.42069 24.7985 7.50904 24.7633 7.59112C24.7282 7.67319 24.6768 7.74728 24.6122 7.80892L21.7482 10.6729Z" fill="#333333"/>
<path d="M22.5662 13.3319C22.3622 12.9919 22.5662 12.5819 22.9072 12.4459L24.8172 11.6959C25.1572 11.4919 25.5672 11.6959 25.7032 12.0369C25.9072 12.3779 25.7032 12.7869 25.3622 12.9229L23.4532 13.6729C23.3852 13.7409 23.2482 13.7409 23.1802 13.7409C22.9072 13.7409 22.7022 13.6049 22.5662 13.3319Z" fill="#333333"/>
<path d="M18.4072 8.96892C18.2702 8.96892 18.2022 8.96892 18.1342 8.90092C17.7932 8.76492 17.5892 8.35592 17.7942 8.01492L18.5442 6.10592C18.6802 5.76492 19.0892 5.62892 19.4302 5.76492C19.7712 5.90092 19.9072 6.30992 19.7712 6.65092L19.0212 8.55992C18.9532 8.83292 18.6802 8.96892 18.4072 8.96892Z" fill="#333333"/>
<path d="M11.5892 8.96892C11.3162 8.96892 11.1112 8.83292 10.9752 8.55992L10.2262 6.65092C10.0222 6.30992 10.2262 5.90092 10.5672 5.76492C10.9072 5.56092 11.3172 5.76492 11.4532 6.10592L12.2032 8.01492C12.4072 8.35592 12.2032 8.76492 11.8622 8.90092C11.7942 8.96892 11.6572 8.96892 11.5892 8.96892Z" fill="#333333"/>
<path d="M6.54321 13.6739L4.63421 12.9239C4.29321 12.7879 4.15821 12.3789 4.29421 12.0379C4.43021 11.6969 4.83921 11.5609 5.18021 11.6969L7.08921 12.4469C7.43021 12.5829 7.56621 12.9919 7.43021 13.3329C7.36121 13.6059 7.08921 13.7419 6.81621 13.7419C6.74821 13.7419 6.61121 13.7419 6.54321 13.6739Z" fill="#333333"/>
<path d="M21.0662 17.8319H20.9982C20.6572 17.7639 20.3862 17.4229 20.5222 17.0819V16.4679C20.5222 13.4679 18.0672 11.0129 15.0672 11.0129C12.0672 11.0129 9.61221 13.4679 9.61221 16.4679V17.0819C9.60604 17.2569 9.54264 17.425 9.43173 17.5605C9.32082 17.696 9.16853 17.7913 8.99821 17.8319C8.82025 17.8369 8.64645 17.7776 8.5087 17.6648C8.37094 17.552 8.27846 17.3934 8.24821 17.2179C8.18021 16.9449 8.18021 16.7409 8.18021 16.4679C8.18602 14.6615 8.9062 12.9306 10.1836 11.6533C11.4609 10.3759 13.1918 9.65572 14.9982 9.64992C16.8047 9.65572 18.5355 10.3759 19.8129 11.6533C21.0902 12.9306 21.8104 14.6615 21.8162 16.4679C21.8162 16.7409 21.7482 16.9449 21.7482 17.2179C21.6802 17.5589 21.4072 17.8319 21.0662 17.8319Z" fill="#0FA85B"/>
<path d="M10.9465 16.7371C10.9144 16.6515 10.901 16.5601 10.9072 16.4689C10.9072 14.2189 12.7482 12.3779 14.9982 12.3779C15.0894 12.3717 15.1808 12.3851 15.2664 12.4172C15.3519 12.4492 15.4296 12.4993 15.4942 12.5639C15.5589 12.6285 15.6089 12.7062 15.641 12.7918C15.673 12.8773 15.6864 12.9688 15.6802 13.0599C15.6864 13.1511 15.673 13.2425 15.641 13.3281C15.6089 13.4136 15.5589 13.4913 15.4942 13.5559C15.4296 13.6206 15.3519 13.6706 15.2664 13.7027C15.1808 13.7347 15.0894 13.7481 14.9982 13.7419C13.4982 13.7419 12.2712 14.9689 12.2712 16.4689C12.2774 16.5601 12.264 16.6515 12.232 16.7371C12.1999 16.8226 12.1499 16.9003 12.0852 16.9649C12.0206 17.0296 11.9429 17.0796 11.8574 17.1117C11.7718 17.1437 11.6804 17.1571 11.5892 17.1509C11.498 17.1571 11.4066 17.1437 11.3211 17.1117C11.2355 17.0796 11.1578 17.0296 11.0932 16.9649C11.0286 16.9003 10.9785 16.8226 10.9465 16.7371Z" fill="#0FA85B"/>
<path d="M23.2195 16.7371C23.1874 16.6515 23.174 16.5601 23.1802 16.4689C23.174 16.3778 23.1874 16.2863 23.2195 16.2008C23.2515 16.1152 23.3016 16.0375 23.3662 15.9729C23.4308 15.9083 23.5085 15.8582 23.5941 15.8262C23.6796 15.7941 23.771 15.7807 23.8622 15.7869H28.6352C28.7264 15.7807 28.8178 15.7941 28.9034 15.8262C28.9889 15.8582 29.0666 15.9083 29.1312 15.9729C29.1959 16.0375 29.2459 16.1152 29.278 16.2008C29.31 16.2863 29.3234 16.3778 29.3172 16.4689C29.3234 16.5601 29.31 16.6515 29.278 16.7371C29.2459 16.8226 29.1959 16.9003 29.1312 16.9649C29.0666 17.0296 28.9889 17.0796 28.9034 17.1117C28.8178 17.1437 28.7264 17.1571 28.6352 17.1509H23.8622C23.771 17.1571 23.6796 17.1437 23.5941 17.1117C23.5085 17.0796 23.4308 17.0296 23.3662 16.9649C23.3016 16.9003 23.2515 16.8226 23.2195 16.7371Z" fill="#0FA85B"/>
<path d="M6.13521 17.1509H1.36221C1.27105 17.1571 1.17861 17.1437 1.09305 17.1117C1.0075 17.0796 0.929798 17.0296 0.865186 16.9649C0.800574 16.9003 0.750547 16.8226 0.718469 16.7371C0.686391 16.6515 0.673005 16.5601 0.679213 16.4689C0.673005 16.3778 0.686391 16.2863 0.718469 16.2008C0.750547 16.1152 0.800574 16.0375 0.865186 15.9729C0.929798 15.9083 1.0075 15.8582 1.09305 15.8262C1.17861 15.7941 1.27005 15.7807 1.36121 15.7869H6.13521C6.22638 15.7807 6.31781 15.7941 6.40337 15.8262C6.48893 15.8582 6.56663 15.9083 6.63124 15.9729C6.69585 16.0375 6.74588 16.1152 6.77796 16.2008C6.81004 16.2863 6.82342 16.3778 6.81721 16.4689C6.82342 16.5601 6.81004 16.6515 6.77796 16.7371C6.74588 16.8226 6.69585 16.9003 6.63124 16.9649C6.56663 17.0296 6.48893 17.0796 6.40337 17.1117C6.31781 17.1437 6.22638 17.1571 6.13521 17.1509Z" fill="#0FA85B"/>
<path d="M15.2664 8.24766C15.1808 8.27974 15.0894 8.29312 14.9982 8.28692C14.907 8.29312 14.8156 8.27974 14.7301 8.24766C14.6445 8.21558 14.5668 8.16555 14.5022 8.10094C14.4376 8.03633 14.3875 7.95863 14.3555 7.87307C14.3234 7.78752 14.31 7.69608 14.3162 7.60492V2.83192C14.31 2.74075 14.3234 2.64932 14.3555 2.56376C14.3875 2.4782 14.4376 2.4005 14.5022 2.33589C14.5668 2.27128 14.6445 2.22125 14.7301 2.18917C14.8156 2.15709 14.907 2.14371 14.9982 2.14992C15.0894 2.14371 15.1808 2.15709 15.2664 2.18917C15.3519 2.22125 15.4296 2.27128 15.4942 2.33589C15.5589 2.4005 15.6089 2.4782 15.641 2.56376C15.673 2.64932 15.6864 2.74075 15.6802 2.83192V7.60492C15.6864 7.69608 15.673 7.78752 15.641 7.87307C15.6089 7.95863 15.5589 8.03633 15.4942 8.10094C15.4296 8.16555 15.3519 8.21558 15.2664 8.24766Z" fill="#0FA85B"/>
<path d="M8.72521 10.8779C8.54667 10.8694 8.37724 10.7966 8.24821 10.6729L5.38421 7.80992C5.31962 7.74828 5.26821 7.67419 5.23308 7.59212C5.19795 7.51004 5.17984 7.42169 5.17984 7.33242C5.17984 7.24314 5.19795 7.15479 5.23308 7.07272C5.26821 6.99064 5.31962 6.91655 5.38421 6.85492C5.44584 6.79033 5.51994 6.73891 5.60201 6.70378C5.68409 6.66865 5.77244 6.65054 5.86171 6.65054C5.95099 6.65054 6.03934 6.66865 6.12141 6.70378C6.20349 6.73891 6.27758 6.79033 6.33921 6.85492L9.20221 9.71792C9.2668 9.77955 9.31822 9.85364 9.35335 9.93572C9.38848 10.0178 9.40659 10.1061 9.40659 10.1954C9.40659 10.2847 9.38848 10.373 9.35335 10.4551C9.31822 10.5372 9.2668 10.6113 9.20221 10.6729C9.06621 10.8099 8.86121 10.8779 8.72521 10.8779Z" fill="#0FA85B"/>
<path d="M21.7482 10.6729C21.6122 10.8099 21.4752 10.8779 21.2712 10.8779H21.2702C21.1806 10.8803 21.0916 10.8631 21.0092 10.8277C20.9269 10.7924 20.8532 10.7395 20.7932 10.6729C20.7286 10.6113 20.6772 10.5372 20.6421 10.4551C20.6069 10.373 20.5888 10.2847 20.5888 10.1954C20.5888 10.1061 20.6069 10.0178 20.6421 9.93572C20.6772 9.85364 20.7286 9.77955 20.7932 9.71792L23.6572 6.85392C23.7188 6.78933 23.7929 6.73791 23.875 6.70278C23.9571 6.66765 24.0454 6.64954 24.1347 6.64954C24.224 6.64954 24.3123 6.66765 24.3944 6.70278C24.4765 6.73791 24.5506 6.78933 24.6122 6.85392C24.6768 6.91555 24.7282 6.98964 24.7633 7.07172C24.7985 7.15379 24.8166 7.24214 24.8166 7.33142C24.8166 7.42069 24.7985 7.50904 24.7633 7.59112C24.7282 7.67319 24.6768 7.74728 24.6122 7.80892L21.7482 10.6729Z" fill="#0FA85B"/>
<path d="M22.5662 13.3319C22.3622 12.9919 22.5662 12.5819 22.9072 12.4459L24.8172 11.6959C25.1572 11.4919 25.5672 11.6959 25.7032 12.0369C25.9072 12.3779 25.7032 12.7869 25.3622 12.9229L23.4532 13.6729C23.3852 13.7409 23.2482 13.7409 23.1802 13.7409C22.9072 13.7409 22.7022 13.6049 22.5662 13.3319Z" fill="#0FA85B"/>
<path d="M18.4072 8.96892C18.2702 8.96892 18.2022 8.96892 18.1342 8.90092C17.7932 8.76492 17.5892 8.35592 17.7942 8.01492L18.5442 6.10592C18.6802 5.76492 19.0892 5.62892 19.4302 5.76492C19.7712 5.90092 19.9072 6.30992 19.7712 6.65092L19.0212 8.55992C18.9532 8.83292 18.6802 8.96892 18.4072 8.96892Z" fill="#0FA85B"/>
<path d="M11.5892 8.96892C11.3162 8.96892 11.1112 8.83292 10.9752 8.55992L10.2262 6.65092C10.0222 6.30992 10.2262 5.90092 10.5672 5.76492C10.9072 5.56092 11.3172 5.76492 11.4532 6.10592L12.2032 8.01492C12.4072 8.35592 12.2032 8.76492 11.8622 8.90092C11.7942 8.96892 11.6572 8.96892 11.5892 8.96892Z" fill="#0FA85B"/>
<path d="M6.54321 13.6739L4.63421 12.9239C4.29321 12.7879 4.15821 12.3789 4.29421 12.0379C4.43021 11.6969 4.83921 11.5609 5.18021 11.6969L7.08921 12.4469C7.43021 12.5829 7.56621 12.9919 7.43021 13.3329C7.36121 13.6059 7.08921 13.7419 6.81621 13.7419C6.74821 13.7419 6.61121 13.7419 6.54321 13.6739Z" fill="#0FA85B"/>
</g>
</svg>
