<svg width="32" height="32" viewBox="0 0 32 32" fill="none" xmlns="http://www.w3.org/2000/svg">
<mask id="mask0_5737_11879" style="mask-type:luminance" maskUnits="userSpaceOnUse" x="0" y="0" width="32" height="32">
<path d="M0 0H32V32H0V0Z" fill="white"/>
</mask>
<g mask="url(#mask0_5737_11879)">
<path d="M7 17H24.5L23.5 31.5H9L7 17Z" fill="#0FA85B"/>
<path d="M27.5 7H17.5V0.5C17.5 0.367392 17.4473 0.240215 17.3536 0.146447C17.2598 0.0526784 17.1326 0 17 0L15 0C14.8674 0 14.7402 0.0526784 14.6464 0.146447C14.5527 0.240215 14.5 0.367392 14.5 0.5V7H4.5C4.36739 7 4.24021 7.05268 4.14645 7.14645C4.05268 7.24021 4 7.36739 4 7.5V9.5C4 9.63261 4.05268 9.75979 4.14645 9.85355C4.24021 9.94732 4.36739 10 4.5 10H6.043L6.683 17.037L8 31.546C8.0115 31.6705 8.06921 31.7861 8.16177 31.8702C8.25432 31.9542 8.37499 32.0005 8.5 32H23.5C23.625 32.0005 23.7457 31.9542 23.8382 31.8702C23.9308 31.7861 23.9885 31.6705 24 31.546L25.32 17.056L25.956 10.001H27.5C27.6326 10.001 27.7598 9.94832 27.8536 9.85455C27.9473 9.76079 28 9.63361 28 9.501V7.501C28 7.36839 27.9473 7.24121 27.8536 7.14745C27.7598 7.05368 27.6326 7 27.5 7ZM15.5 1H16.5V7H15.5V1ZM8.957 31L7.71 17.29C8.23 17.05 8.808 16.961 9.377 17.035C9.946 17.109 10.482 17.34 10.924 17.705C11.0146 17.7825 11.1298 17.825 11.249 17.825C11.3682 17.825 11.4834 17.7825 11.574 17.705C12.111 17.247 12.794 16.997 13.5 17.001C13.899 17.001 14.294 17.081 14.662 17.236C15.03 17.391 15.363 17.618 15.641 17.904C15.737 17.998 15.866 18.05 16 18.05C16.134 18.05 16.263 17.998 16.359 17.904C16.638 17.618 16.971 17.392 17.338 17.236C17.705 17.08 18.101 17 18.5 17C19.205 16.997 19.888 17.247 20.424 17.704C20.5146 17.7815 20.6298 17.824 20.749 17.824C20.8682 17.824 20.9834 17.7815 21.074 17.704C21.5166 17.3398 22.0529 17.1077 22.6213 17.0343C23.1898 16.9609 23.7674 17.0492 24.288 17.289L23.043 31H8.957ZM24.384 16.26C23.7862 16.0445 23.1464 15.9716 22.5155 16.0472C21.8846 16.1227 21.28 16.3445 20.75 16.695C20.088 16.241 19.303 15.998 18.5 16C17.591 16.0015 16.7095 16.3118 16 16.88C15.2905 16.3118 14.409 16.0015 13.5 16C12.697 15.998 11.912 16.241 11.25 16.695C10.72 16.3448 10.1156 16.1233 9.48488 16.0479C8.85415 15.9726 8.21455 16.0455 7.617 16.261L7.05 10H24.955L24.384 16.26ZM27 9H5V8H27V9Z" fill="#333333"/>
</g>
</svg>
