<svg width="30" height="24" viewBox="0 0 30 24" fill="none" xmlns="http://www.w3.org/2000/svg">
<path d="M16.9005 7.12V1L23.5005 7.12M14.5605 2.08V4.18M14.5605 3.1L16.9005 3.64" stroke="#0FA85B" stroke-width="1.1" stroke-miterlimit="10" stroke-linecap="round" stroke-linejoin="round"/>
<path d="M4.36008 19.4189H3.58008C3.24053 19.4215 2.90384 19.3566 2.58961 19.2279C2.27539 19.0992 1.98991 18.9093 1.74981 18.6691C1.5097 18.429 1.31976 18.1436 1.19104 17.8293C1.06233 17.5151 0.997415 17.1784 1.00008 16.8389V9.69888C0.997415 9.35932 1.06233 9.02263 1.19104 8.70841C1.31976 8.39419 1.5097 8.10871 1.74981 7.8686C1.98991 7.6285 2.27539 7.43856 2.58961 7.30984C2.90384 7.18113 3.24053 7.11621 3.58008 7.11888H26.3201C26.6596 7.11621 26.9963 7.18113 27.3105 7.30984C27.6248 7.43856 27.9102 7.6285 28.1504 7.8686C28.3905 8.10871 28.5804 8.39419 28.7091 8.70841C28.8378 9.02263 28.9027 9.35932 28.9001 9.69888V16.8389C28.9027 17.1784 28.8378 17.5151 28.7091 17.8293C28.5804 18.1436 28.3905 18.429 28.1504 18.6691C27.9102 18.9093 27.6248 19.0992 27.3105 19.2279C26.9963 19.3566 26.6596 19.4215 26.3201 19.4189H25.5401M18.1001 19.4189H11.7401M4.90008 6.69888C4.84008 6.45888 3.82008 2.43888 4.90008 1.95888C5.92008 1.53888 7.18008 4.47888 8.14008 5.01888C9.22008 5.61888 12.1001 4.23888 13.0601 5.01888C13.4801 5.37888 13.0601 7.11888 13.0601 7.11888" stroke="#333333" stroke-width="1.1" stroke-miterlimit="10" stroke-linecap="round" stroke-linejoin="round"/>
<path d="M1 10.3594H28.9V12.9394H1V10.3594ZM21.76 22.9574C22.7466 22.9574 23.6928 22.5654 24.3904 21.8678C25.0881 21.1702 25.48 20.224 25.48 19.2374C25.48 18.2508 25.0881 17.3046 24.3904 16.6069C23.6928 15.9093 22.7466 15.5174 21.76 15.5174C20.7734 15.5174 19.8272 15.9093 19.1296 16.6069C18.4319 17.3046 18.04 18.2508 18.04 19.2374C18.04 20.224 18.4319 21.1702 19.1296 21.8678C19.8272 22.5654 20.7734 22.9574 21.76 22.9574ZM8.02 22.9574C9.00661 22.9574 9.9528 22.5654 10.6504 21.8678C11.3481 21.1702 11.74 20.224 11.74 19.2374C11.74 18.2508 11.3481 17.3046 10.6504 16.6069C9.9528 15.9093 9.00661 15.5174 8.02 15.5174C7.0334 15.5174 6.0872 15.9093 5.38956 16.6069C4.69193 17.3046 4.3 18.2508 4.3 19.2374C4.3 20.224 4.69193 21.1702 5.38956 21.8678C6.0872 22.5654 7.0334 22.9574 8.02 22.9574Z" stroke="#333333" stroke-width="1.1" stroke-miterlimit="10" stroke-linejoin="round"/>
<path d="M21.7595 20.5619C22.1095 20.5619 22.4453 20.4228 22.6928 20.1753C22.9404 19.9277 23.0795 19.592 23.0795 19.2419C23.0795 18.8918 22.9404 18.556 22.6928 18.3085C22.4453 18.0609 22.1095 17.9219 21.7595 17.9219C21.4094 17.9219 21.0736 18.0609 20.8261 18.3085C20.5785 18.556 20.4395 18.8918 20.4395 19.2419C20.4395 19.592 20.5785 19.9277 20.8261 20.1753C21.0736 20.4228 21.4094 20.5619 21.7595 20.5619V20.5619Z" stroke="#0FA85B" stroke-width="1.1" stroke-miterlimit="10" stroke-linejoin="round"/>
<path d="M8.01922 20.5619C8.3693 20.5619 8.70505 20.4228 8.9526 20.1753C9.20015 19.9277 9.33922 19.592 9.33922 19.2419C9.33922 18.8918 9.20015 18.556 8.9526 18.3085C8.70505 18.0609 8.3693 17.9219 8.01922 17.9219C7.66913 17.9219 7.33338 18.0609 7.08584 18.3085C6.83829 18.556 6.69922 18.8918 6.69922 19.2419C6.69922 19.592 6.83829 19.9277 7.08584 20.1753C7.33338 20.4228 7.66913 20.5619 8.01922 20.5619V20.5619Z" stroke="#0FA85B" stroke-width="1.1" stroke-miterlimit="10" stroke-linejoin="round"/>
</svg>
