<svg width="38" height="39" viewBox="0 0 38 39" fill="none" xmlns="http://www.w3.org/2000/svg">
<mask id="mask0_5737_11838" style="mask-type:luminance" maskUnits="userSpaceOnUse" x="0" y="0" width="38" height="39">
<path d="M0 0.785156H38V38.7852H0V0.785156Z" fill="white"/>
</mask>
<g mask="url(#mask0_5737_11838)">
<path fill-rule="evenodd" clip-rule="evenodd" d="M9.95088 35.0454C9.70588 35.0454 9.48388 34.8894 9.41688 34.6444L7.68088 28.1444C7.39188 27.8104 7.23588 27.4324 7.23588 27.0534C7.23588 26.6524 7.39188 26.3184 7.65888 25.9404V24.7154L7.68088 22.7784C7.72588 22.4664 7.99288 22.2664 8.28188 22.3104C8.3514 22.3156 8.4191 22.335 8.48083 22.3674C8.54255 22.3998 8.59697 22.4445 8.64074 22.4988C8.6845 22.5531 8.71668 22.6157 8.73528 22.6829C8.75388 22.7501 8.75851 22.8204 8.74888 22.8894C8.68188 23.3794 8.70388 24.0474 8.70388 24.6924C8.74902 25.1961 8.74902 25.7028 8.70388 26.2064C8.70388 26.4064 8.59288 26.5404 8.52588 26.5624C8.36988 26.7184 8.28088 26.8744 8.28088 27.0304C8.28088 27.1644 8.36988 27.2974 8.52588 27.4534C8.59053 27.5263 8.64318 27.609 8.68188 27.6984L10.4629 34.3324C10.5519 34.6214 10.3739 34.9334 10.1069 35.0004C10.0583 35.0254 10.0053 35.0407 9.95088 35.0454ZM12.3109 35.0454C12.0659 35.0454 11.8659 34.8894 11.7989 34.6444L9.75088 26.5414C9.70588 26.2964 9.81788 26.0074 10.0629 25.9184C11.8889 25.1174 13.1569 21.1764 13.3129 20.4864L13.8249 20.6204H14.3809C14.3809 20.8204 13.1569 25.2954 10.9309 26.7204L12.8459 34.4454C12.863 34.5142 12.8662 34.5857 12.8552 34.6558C12.8442 34.7258 12.8193 34.7929 12.7819 34.8532C12.7445 34.9134 12.6954 34.9655 12.6375 35.0065C12.5797 35.0474 12.5141 35.0763 12.4449 35.0914C12.4229 35.0244 12.3559 35.0474 12.3109 35.0474V35.0454ZM10.4409 20.2194C10.3739 20.2194 10.2849 20.2194 10.2179 20.1744C10.152 20.1472 10.0924 20.1067 10.0428 20.0554C9.9932 20.0041 9.95469 19.9432 9.92964 19.8764C9.9046 19.8097 9.89357 19.7384 9.89722 19.6672C9.90087 19.596 9.91914 19.5263 9.95088 19.4624C10.5299 18.0824 10.5079 16.9914 10.4629 15.6114L10.4409 14.5654C10.4401 14.4922 10.4539 14.4195 10.4816 14.3517C10.5092 14.2839 10.5501 14.2223 10.6019 14.1705C10.6537 14.1187 10.7153 14.0778 10.7832 14.0501C10.851 14.0224 10.9236 14.0086 10.9969 14.0094C11.0701 14.0086 11.1428 14.0224 11.2106 14.0501C11.2784 14.0778 11.34 14.1187 11.3918 14.1705C11.4436 14.2223 11.4845 14.2839 11.5122 14.3517C11.5399 14.4195 11.5537 14.4922 11.5529 14.5654V15.5894C11.5749 17.0364 11.6199 18.3054 10.9299 19.8634C10.8984 19.9682 10.8334 20.0597 10.7449 20.124C10.6564 20.1884 10.5493 20.2219 10.4399 20.2194H10.4409ZM20.4589 22.0674C20.3113 22.0674 20.1697 22.0088 20.0654 21.9044C19.961 21.8001 19.9024 21.6585 19.9024 21.5109C19.9024 21.3633 19.961 21.2218 20.0654 21.1174C20.1697 21.013 20.3113 20.9544 20.4589 20.9544C22.0399 20.9544 25.4899 19.8634 26.7589 19.2844C30.8549 17.3924 31.8119 14.0974 32.1689 12.8734L32.1909 12.7844C32.2129 12.6734 32.2579 12.5844 32.2579 12.4954C32.5919 11.2714 33.2819 8.73341 35.3299 8.66641L36.8219 8.64441V8.02141C36.8219 6.95241 35.8869 6.04041 34.7519 6.04041H29.7879H29.7209C29.5429 6.59741 29.0089 6.66341 28.5859 6.64141H28.5639L27.7399 6.55241H27.6509L28.1179 6.97541C28.2519 7.06441 28.2959 7.22041 28.2959 7.37641V10.6714C28.2959 12.3854 27.4499 13.8324 26.2479 14.1884C25.8029 14.3224 24.6669 14.4774 23.6429 12.8974C22.0179 10.3594 20.3039 9.00141 19.1459 9.22441H18.8999C18.6549 9.15741 18.5439 8.97941 18.4549 8.80141C17.1859 6.08541 15.0049 5.06141 12.1329 5.79641C10.6189 6.19741 8.70488 7.22141 8.23688 9.95941C8.21488 10.1594 8.08088 10.3154 7.90288 10.4044C7.83588 10.4264 1.49188 12.7194 1.09088 16.1704L3.56188 14.9464C3.59404 14.8774 3.64042 14.816 3.69798 14.7662C3.75554 14.7164 3.82298 14.6793 3.89588 14.6574C4.16288 14.5684 4.47488 14.7464 4.56388 15.0354C4.69788 15.4584 4.78688 15.7924 0.77988 17.5064C0.62388 17.5514 0.445881 17.5514 0.312881 17.4624C0.156881 17.3734 0.0678805 17.2624 0.0458805 17.0614C-0.55512 12.7874 5.78888 10.0714 7.25888 9.47041C7.79288 7.06641 9.41788 5.39641 11.8889 4.75141C15.1839 3.88341 17.8549 5.08541 19.3469 8.15741C21.4839 8.09041 23.4879 10.6734 24.5339 12.3204C24.8459 12.7874 25.3349 13.3444 25.9359 13.1444C26.5369 12.9664 27.2269 11.9864 27.2269 10.6734V7.68641C26.3369 6.84041 25.9579 6.35041 26.1809 5.86141C26.4259 5.34941 27.0489 5.43841 27.8949 5.54941C28.1399 5.59441 28.4069 5.61641 28.6739 5.63841H28.7629C28.9189 5.23741 29.2529 5.05941 29.8089 5.05941H34.8399C36.5759 5.05941 38.0009 6.41741 38.0009 8.10941V9.26741C38.0009 9.55641 37.7559 9.77941 37.4669 9.77941L35.4639 9.80141C34.1949 9.84641 33.6389 11.8714 33.3939 12.8294C33.3719 12.9624 33.3269 13.0524 33.3049 13.1184L33.2829 13.2074C32.8819 14.5654 31.8139 18.2384 27.2949 20.3084C25.8699 20.9314 22.2859 22.0674 20.4609 22.0674H20.4589Z" fill="#0FA85B"/>
<path fill-rule="evenodd" clip-rule="evenodd" d="M8.28077 35.0482C8.03577 35.0482 7.81377 34.8922 7.74677 34.6472L7.39077 33.4002C5.52077 27.4562 5.34277 26.2322 5.74377 25.6982C5.96677 25.4312 6.54477 24.4742 7.19077 23.4942C10.0398 18.9752 10.1068 18.9752 10.6188 19.1312L18.1878 21.1122C18.3029 21.1392 18.4053 21.2047 18.4782 21.2978C18.5511 21.3908 18.5901 21.506 18.5888 21.6242L18.8338 33.9792H19.7018L19.9468 21.6242C19.9468 21.6022 19.9468 21.5352 19.9688 21.5132L21.1708 17.3502C21.3708 17.1052 21.7048 17.0382 21.9058 17.2162C22.0122 17.2918 22.087 17.404 22.1157 17.5313C22.1445 17.6587 22.1253 17.7921 22.0618 17.9062C21.9508 18.2182 21.3938 20.2662 20.9928 21.7352L20.7038 34.5352C20.7038 34.8472 20.4588 35.0472 20.1478 35.0472H18.2558C17.9438 35.0472 17.7218 34.8022 17.7218 34.5352L17.4768 22.0692L10.5978 20.2442C10.1298 20.8232 8.86177 22.8042 8.10477 24.0512L6.63577 26.2992C6.54677 27.1002 7.90477 31.4192 8.39477 33.0442L8.79577 34.3132C8.90677 34.6022 8.70677 34.8922 8.43977 35.0032L8.28377 35.0472L8.28077 35.0482ZM5.83177 35.0482C5.58677 35.0482 5.38677 34.8922 5.31977 34.6472L3.62777 28.5702C3.16077 28.1472 3.02677 27.7022 3.02677 27.4132C3.00477 26.9012 3.24977 26.5002 3.42777 26.2552L3.51677 14.2342C3.51677 13.9222 3.76177 13.7002 4.05077 13.7002C4.36277 13.7002 4.56277 13.9452 4.56277 14.2562L4.47377 26.5002C4.47664 26.5741 4.46428 26.6479 4.43744 26.7169C4.4106 26.7859 4.36987 26.8486 4.31777 26.9012C4.27277 26.9682 4.11777 27.1902 4.11777 27.4132C4.11777 27.5692 4.22877 27.7472 4.42977 27.9032C4.51877 27.9702 4.56377 28.0592 4.60777 28.1702L6.36677 34.4032C6.45577 34.6922 6.27777 35.0042 5.98877 35.0932C5.92177 35.0262 5.89977 35.0492 5.83277 35.0492L5.83177 35.0482ZM24.3758 35.0482H22.4618C22.1728 35.0482 21.9498 34.8032 21.9048 34.5362L21.6598 21.3352C21.6598 21.0232 21.9048 20.7792 22.1938 20.7792C22.5058 20.7792 22.7278 21.0242 22.7278 21.2912L22.9728 33.9352H23.8188L24.0858 20.6452C24.0858 20.3332 24.3308 20.1112 24.6198 20.1112C24.9318 20.1112 25.1538 20.3782 25.1538 20.6682L24.9088 34.4922C24.914 34.5647 24.9039 34.6375 24.8792 34.7059C24.8545 34.7743 24.8158 34.8368 24.7655 34.8893C24.7152 34.9418 24.6544 34.9831 24.5871 35.0107C24.5198 35.0382 24.4475 35.0513 24.3748 35.0492L24.3758 35.0482ZM32.6568 7.91118C32.5898 7.91118 32.5228 7.91118 32.4788 7.86618C31.6998 7.59918 31.1428 7.84418 31.1428 7.84418C30.8538 7.95518 30.5638 7.86618 30.4308 7.59918C30.3198 7.31018 30.4088 6.99818 30.6758 6.88718C30.7208 6.84218 31.6778 6.42018 32.8798 6.84218C33.1468 6.95318 33.3028 7.28718 33.1688 7.55418C33.1295 7.65837 33.0595 7.74819 32.9681 7.81176C32.8767 7.87532 32.7681 7.91064 32.6568 7.91118Z" fill="#0FA85B"/>
<path fill-rule="evenodd" clip-rule="evenodd" d="M30.0315 35.0456H1.84845C1.55945 35.0456 1.31445 34.8006 1.31445 34.4896C1.31445 34.2006 1.55945 33.9336 1.84845 33.9336H30.0315C30.3435 33.9336 30.5885 34.2006 30.5885 34.4896C30.5893 34.5629 30.5754 34.6357 30.5477 34.7035C30.52 34.7714 30.4789 34.8331 30.427 34.8849C30.3751 34.9367 30.3134 34.9776 30.2455 35.0052C30.1775 35.0328 30.1048 35.0465 30.0315 35.0456Z" fill="#333333"/>
<path d="M32.4795 7.86618C32.5235 7.91118 32.5905 7.91118 32.6575 7.91118C32.7688 7.91064 32.8774 7.87532 32.9688 7.81176C33.0602 7.74819 33.1302 7.65837 33.1694 7.55418C33.3034 7.28718 33.1475 6.95318 32.8805 6.84218C31.6785 6.42018 30.7215 6.84218 30.6765 6.88718C30.4095 6.99818 30.3205 7.31018 30.4315 7.59918C30.5645 7.86618 30.8545 7.95518 31.1435 7.84418C31.1435 7.84418 31.7005 7.59918 32.4795 7.86618Z" fill="#333333"/>
</g>
</svg>
