<svg width="24" height="32" viewBox="0 0 24 32" fill="none" xmlns="http://www.w3.org/2000/svg">
<path d="M4.78201 13.8147C4.35974 13.8162 3.95522 13.9847 3.65663 14.2833C3.35803 14.5819 3.18959 14.9864 3.18801 15.4087C3.18959 15.8309 3.35803 16.2354 3.65663 16.534C3.95522 16.8326 4.35974 17.0011 4.78201 17.0027C5.20428 17.0011 5.6088 16.8326 5.90739 16.534C6.20598 16.2354 6.37443 15.8309 6.37601 15.4087C6.37443 14.9864 6.20598 14.5819 5.90739 14.2833C5.6088 13.9847 5.20428 13.8162 4.78201 13.8147ZM4.78201 15.9397C4.49001 15.9397 4.25101 15.7007 4.25101 15.4087C4.25101 15.1167 4.49001 14.8777 4.78201 14.8777C5.07401 14.8777 5.31301 15.1167 5.31301 15.4087C5.31301 15.7007 5.07401 15.9397 4.78201 15.9397ZM6.54001 3.97565L7.44301 3.07265C8.66741 1.85213 10.3064 1.13731 12.034 1.07042C13.7615 1.00353 15.4509 1.58947 16.766 2.71165L6.67901 12.7997C6.57978 12.899 6.52404 13.0337 6.52404 13.1742C6.52404 13.3146 6.57978 13.4493 6.67901 13.5487C6.72825 13.5984 6.78702 13.6376 6.8518 13.6641C6.91658 13.6906 6.98604 13.7037 7.05601 13.7027C7.19401 13.7027 7.32701 13.6497 7.43301 13.5487L17.909 3.07265C18.01 2.97165 18.063 2.83865 18.063 2.69565C18.0618 2.55491 18.0067 2.41999 17.909 2.31865C16.4205 0.833848 14.4039 0 12.3015 0C10.1991 0 8.18248 0.833848 6.69401 2.31865L5.79101 3.22165C5.69178 3.32103 5.63604 3.45572 5.63604 3.59615C5.63604 3.73659 5.69178 3.87128 5.79101 3.97065C5.89038 4.06988 6.02507 4.12562 6.16551 4.12562C6.30594 4.12562 6.44063 4.06988 6.54001 3.97065V3.97565ZM3.10301 13.2357C3.16473 13.2354 3.22595 13.2246 3.28401 13.2037C3.34969 13.1801 3.41007 13.1438 3.46168 13.0968C3.51329 13.0498 3.55512 12.9931 3.58476 12.9299C3.6144 12.8667 3.63127 12.7983 3.6344 12.7286C3.63753 12.6589 3.62686 12.5892 3.60301 12.5237C2.71001 10.0697 3.26801 7.36565 5.05901 5.47365C5.15142 5.37083 5.2 5.23597 5.19438 5.09783C5.18876 4.9597 5.12939 4.82923 5.02893 4.73425C4.92847 4.63927 4.79488 4.58731 4.65665 4.58944C4.51842 4.59157 4.38649 4.64763 4.28901 4.74565C2.22201 6.93465 1.58001 10.0527 2.61001 12.8897C2.64689 12.9924 2.71462 13.0813 2.80394 13.1442C2.89326 13.207 2.9998 13.2407 3.10901 13.2407L3.10401 13.2357H3.10301ZM18.063 7.96565C18.063 7.67365 17.824 7.43465 17.532 7.43465C17.24 7.43465 17.001 7.67365 17.001 7.96565C17.001 8.20465 16.943 8.28965 16.826 8.47065C16.677 8.69365 16.47 9.00165 16.47 9.55965C16.47 10.1177 16.677 10.4257 16.826 10.6487C16.943 10.8237 17.001 10.9147 17.001 11.1537C17.001 11.4457 17.24 11.6847 17.532 11.6847C17.824 11.6847 18.063 11.4457 18.063 11.1537C18.063 10.5957 17.856 10.2877 17.707 10.0647C17.59 9.88965 17.532 9.79865 17.532 9.55965C17.532 9.32065 17.59 9.23565 17.707 9.05465C17.856 8.83165 18.063 8.52365 18.063 7.96565ZM19.126 11.1587C19.126 11.4507 19.365 11.6897 19.657 11.6897C19.949 11.6897 20.188 11.4507 20.188 11.1587C20.188 10.6007 19.981 10.2927 19.832 10.0697C19.715 9.89465 19.657 9.80365 19.657 9.56465C19.657 9.32565 19.715 9.24065 19.832 9.05965C19.981 8.83665 20.188 8.52865 20.188 7.97065C20.188 7.67865 19.949 7.43965 19.657 7.43965C19.365 7.43965 19.126 7.67865 19.126 7.97065C19.126 8.20965 19.068 8.29465 18.951 8.47565C18.802 8.69865 18.595 9.00665 18.595 9.56465C18.595 10.1227 18.802 10.4307 18.951 10.6537C19.068 10.8287 19.126 10.9197 19.126 11.1587ZM15.938 7.96565C15.938 7.67365 15.699 7.43465 15.407 7.43465C15.115 7.43465 14.876 7.67365 14.876 7.96565C14.876 8.20465 14.818 8.28965 14.701 8.47065C14.552 8.69365 14.345 9.00165 14.345 9.55965C14.345 10.1177 14.552 10.4257 14.701 10.6487C14.818 10.8237 14.876 10.9147 14.876 11.1537C14.876 11.4457 15.115 11.6847 15.407 11.6847C15.699 11.6847 15.938 11.4457 15.938 11.1537C15.938 10.5957 15.731 10.2877 15.582 10.0647C15.465 9.88965 15.407 9.79865 15.407 9.55965C15.407 9.32065 15.465 9.23565 15.582 9.05465C15.731 8.83165 15.938 8.52365 15.938 7.96565ZM22.844 14.8767H21.782V13.2827C21.782 12.9907 21.543 12.7517 21.251 12.7517H10.626C10.334 12.7517 10.095 12.9907 10.095 13.2827V14.8767H7.97001C7.67801 14.8767 7.43901 15.1157 7.43901 15.4077C7.43901 15.6997 7.67801 15.9387 7.97001 15.9387H22.314V18.0637H17.002C16.71 18.0637 16.471 18.3027 16.471 18.5947C16.471 18.8867 16.71 19.1257 17.002 19.1257H22.272C22.1442 20.0099 21.7025 20.8186 21.0275 21.404C20.3525 21.9894 19.4894 22.3123 18.596 22.3137H9.03401C8.14072 22.3123 7.27774 21.9896 6.60279 21.4044C5.92784 20.8192 5.486 20.0107 5.35801 19.1267H14.878C15.17 19.1267 15.409 18.8877 15.409 18.5957C15.409 18.3037 15.17 18.0647 14.878 18.0647H1.59401C1.38586 18.0635 1.17956 18.1038 0.987109 18.1831C0.79466 18.2624 0.619904 18.3792 0.473007 18.5267C0.322672 18.6743 0.20338 18.8505 0.122149 19.0449C0.0409183 19.2393 -0.000610458 19.448 6.78068e-06 19.6587C0.00158734 20.0809 0.170034 20.4854 0.468625 20.784C0.767216 21.0826 1.17174 21.2511 1.59401 21.2527H3.18801C3.48001 21.2527 3.71901 21.0137 3.71901 20.7217C3.71901 20.4297 3.48001 20.1907 3.18801 20.1907H1.59401C1.30201 20.1907 1.06301 19.9517 1.06301 19.6597C1.06219 19.5887 1.07647 19.5184 1.10492 19.4534C1.13337 19.3884 1.17533 19.3302 1.22801 19.2827C1.27607 19.2341 1.33322 19.1956 1.39619 19.1692C1.45916 19.1427 1.52672 19.129 1.59501 19.1287H4.28301C4.41548 20.2962 4.97251 21.3744 5.84815 22.158C6.72379 22.9417 7.85693 23.3761 9.03201 23.3787H18.594C19.8613 23.3763 21.076 22.8718 21.9721 21.9757C22.8682 21.0796 23.3726 19.8649 23.375 18.5977V15.4107C23.375 15.1187 23.136 14.8797 22.844 14.8797V14.8767ZM20.719 14.8767H11.157V13.8147H20.719V14.8777V14.8767ZM19.8 28.0037L19.067 24.8477C19.0515 24.7795 19.0226 24.7151 18.982 24.6582C18.9415 24.6013 18.8901 24.5529 18.8308 24.5159C18.7715 24.4789 18.7055 24.454 18.6365 24.4426C18.5676 24.4313 18.497 24.4337 18.429 24.4497C18.142 24.5187 17.967 24.8007 18.031 25.0867L18.621 27.6257H18.594C18.263 27.628 17.9373 27.7081 17.643 27.8597L16.947 24.8477C16.9314 24.7796 16.9026 24.7153 16.8621 24.6585C16.8217 24.6016 16.7704 24.5533 16.7112 24.5163C16.652 24.4794 16.5861 24.4544 16.5172 24.443C16.4484 24.4315 16.378 24.4338 16.31 24.4497C16.023 24.5187 15.848 24.8007 15.912 25.0867L16.751 28.7147C16.581 29.0227 16.469 29.3677 16.469 29.7457C16.469 30.9197 17.42 31.8707 18.594 31.8707C19.768 31.8707 20.719 30.9197 20.719 29.7457C20.719 29.0227 20.353 28.3857 19.8 27.9977V28.0027V28.0037ZM18.594 30.8137C18.01 30.8137 17.532 30.3357 17.532 29.7517C17.532 29.1677 18.01 28.6897 18.594 28.6897C19.178 28.6897 19.657 29.1677 19.657 29.7527C19.657 30.3377 19.179 30.8157 18.594 30.8157V30.8137ZM11.284 24.4547C11.2163 24.4378 11.1459 24.4344 11.0769 24.4448C11.0079 24.4552 10.9417 24.4791 10.8819 24.5151C10.8222 24.5512 10.7702 24.5987 10.7288 24.6549C10.6875 24.7111 10.6576 24.7749 10.641 24.8427L9.14801 30.8137H8.11801L9.54701 25.0977C9.56375 25.03 9.567 24.9596 9.55656 24.8907C9.54612 24.8217 9.52221 24.7555 9.48618 24.6958C9.45015 24.6361 9.40271 24.5841 9.34658 24.5427C9.29044 24.5013 9.2267 24.4714 9.15901 24.4547C9.09131 24.4379 9.02098 24.4347 8.95203 24.4451C8.88308 24.4555 8.81686 24.4795 8.75715 24.5155C8.69744 24.5515 8.64541 24.5989 8.60404 24.6551C8.56266 24.7112 8.53275 24.775 8.51601 24.8427L6.92201 31.2177C6.90418 31.2962 6.90353 31.3778 6.9201 31.4566C6.93667 31.5355 6.97006 31.6099 7.01801 31.6747C7.11901 31.8027 7.27301 31.8767 7.43801 31.8767H9.56301C9.68169 31.8767 9.79695 31.8369 9.89033 31.7637C9.9837 31.6904 10.0498 31.5879 10.078 31.4727L11.672 25.0977C11.6889 25.03 11.6922 24.9596 11.6819 24.8906C11.6715 24.8216 11.6476 24.7553 11.6115 24.6956C11.5755 24.6358 11.528 24.5838 11.4718 24.5425C11.4156 24.5011 11.3518 24.4713 11.284 24.4547Z" fill="#0FA85B"/>
<path d="M3.65612 14.2822C3.95471 13.9836 4.35923 13.8152 4.7815 13.8136C5.20377 13.8152 5.60829 13.9836 5.90688 14.2822C6.20547 14.5808 6.37392 14.9853 6.3755 15.4076C6.37392 15.8299 6.20547 16.2344 5.90688 16.533C5.60829 16.8316 5.20377 17 4.7815 17.0016C4.35923 17 3.95471 16.8316 3.65612 16.533C3.35753 16.2344 3.18908 15.8299 3.1875 15.4076C3.18908 14.9853 3.35753 14.5808 3.65612 14.2822Z" fill="#333333"/>
<path d="M17.5315 7.43359C17.8235 7.43359 18.0625 7.67259 18.0625 7.96459C18.0625 8.5208 17.8568 8.82861 17.7079 9.05144L17.7065 9.05359L17.6998 9.06392C17.5873 9.23792 17.5315 9.32418 17.5315 9.55859C17.5315 9.79759 17.5895 9.88859 17.7065 10.0636L17.7079 10.0657C17.8568 10.2886 18.0625 10.5964 18.0625 11.1526C18.0625 11.4446 17.8235 11.6836 17.5315 11.6836C17.2395 11.6836 17.0005 11.4446 17.0005 11.1526C17.0005 10.9136 16.9425 10.8226 16.8255 10.6476L16.8241 10.6454C16.6752 10.4226 16.4695 10.1148 16.4695 9.55859C16.4695 9.00239 16.6752 8.69457 16.8241 8.47174L16.8255 8.46959L16.8322 8.45927C16.9447 8.28527 17.0005 8.199 17.0005 7.96459C17.0005 7.67259 17.2395 7.43359 17.5315 7.43359Z" fill="#333333"/>
<path d="M19.6565 11.6886C19.3645 11.6886 19.1255 11.4496 19.1255 11.1576C19.1255 10.9186 19.0675 10.8276 18.9505 10.6526L18.9491 10.6504C18.8002 10.4276 18.5945 10.1198 18.5945 9.56359C18.5945 9.00739 18.8002 8.69957 18.9491 8.47674L18.9505 8.47459L18.9572 8.46427C19.0697 8.29027 19.1255 8.204 19.1255 7.96959C19.1255 7.67759 19.3645 7.43859 19.6565 7.43859C19.9485 7.43859 20.1875 7.67759 20.1875 7.96959C20.1875 8.5258 19.9818 8.83361 19.8329 9.05644L19.8315 9.05859L19.8248 9.06891C19.7123 9.24291 19.6565 9.32918 19.6565 9.56359C19.6565 9.80259 19.7145 9.89359 19.8315 10.0686L19.8329 10.0707C19.9818 10.2936 20.1875 10.6014 20.1875 11.1576C20.1875 11.4496 19.9485 11.6886 19.6565 11.6886Z" fill="#333333"/>
<path d="M15.4065 7.43359C15.6985 7.43359 15.9375 7.67259 15.9375 7.96459C15.9375 8.5208 15.7318 8.82861 15.5829 9.05144L15.5815 9.05359L15.5748 9.06392C15.4623 9.23792 15.4065 9.32418 15.4065 9.55859C15.4065 9.79759 15.4645 9.88859 15.5815 10.0636L15.5829 10.0657C15.7318 10.2886 15.9375 10.5964 15.9375 11.1526C15.9375 11.4446 15.6985 11.6836 15.4065 11.6836C15.1145 11.6836 14.8755 11.4446 14.8755 11.1526C14.8755 10.9136 14.8175 10.8226 14.7005 10.6476L14.6991 10.6454C14.5502 10.4226 14.3445 10.1148 14.3445 9.55859C14.3445 9.00239 14.5502 8.69457 14.6991 8.47174L14.7005 8.46959L14.7072 8.45927C14.8197 8.28527 14.8755 8.199 14.8755 7.96459C14.8755 7.67259 15.1145 7.43359 15.4065 7.43359Z" fill="#333333"/>
<path d="M19.0665 24.8466L19.7995 28.0026V28.0016V27.9966C20.3525 28.3846 20.7185 29.0216 20.7185 29.7446C20.7185 30.9186 19.7675 31.8696 18.5935 31.8696C17.4195 31.8696 16.4685 30.9186 16.4685 29.7446C16.4685 29.3666 16.5805 29.0216 16.7505 28.7136L15.9115 25.0856C15.8475 24.7996 16.0225 24.5176 16.3095 24.4486C16.3775 24.4327 16.4479 24.4305 16.5167 24.4419C16.5856 24.4534 16.6515 24.4783 16.7107 24.5153C16.7699 24.5522 16.8212 24.6006 16.8616 24.6574C16.9021 24.7143 16.9309 24.7786 16.9465 24.8466L17.6425 27.8586C17.9368 27.7071 18.2625 27.6269 18.5935 27.6246H18.6205L18.0305 25.0856C17.9665 24.7996 18.1415 24.5176 18.4285 24.4486C18.4965 24.4326 18.5671 24.4302 18.636 24.4416C18.705 24.453 18.771 24.4779 18.8303 24.5149C18.8896 24.5518 18.941 24.6002 18.9815 24.6571C19.0221 24.7141 19.0509 24.7785 19.0665 24.8466Z" fill="#333333"/>
<path d="M11.0764 24.4437C11.1454 24.4334 11.2158 24.4367 11.2835 24.4536C11.3513 24.4702 11.4151 24.5 11.4713 24.5414C11.5275 24.5827 11.575 24.6348 11.611 24.6945C11.6471 24.7543 11.671 24.8205 11.6814 24.8895C11.6917 24.9585 11.6884 25.0289 11.6715 25.0966L10.0775 31.4716C10.0493 31.5869 9.9832 31.6893 9.88982 31.7626C9.79644 31.8358 9.68118 31.8756 9.5625 31.8756H7.4375C7.2725 31.8756 7.1185 31.8016 7.0175 31.6736C6.96956 31.6088 6.93616 31.5344 6.91959 31.4556C6.90302 31.3767 6.90368 31.2952 6.9215 31.2166L8.5155 24.8416C8.53224 24.7739 8.56216 24.7102 8.60353 24.654C8.64491 24.5979 8.69693 24.5505 8.75664 24.5144C8.81635 24.4784 8.88257 24.4545 8.95152 24.444C9.02047 24.4336 9.0908 24.4369 9.1585 24.4536C9.2262 24.4703 9.28993 24.5002 9.34607 24.5416C9.4022 24.583 9.44964 24.635 9.48567 24.6947C9.5217 24.7544 9.54562 24.8207 9.55605 24.8896C9.56649 24.9586 9.56324 25.0289 9.5465 25.0966L8.1175 30.8126H9.1475L10.6405 24.8416C10.6571 24.7738 10.687 24.71 10.7283 24.6538C10.7696 24.5976 10.8217 24.5501 10.8814 24.5141C10.9412 24.478 11.0074 24.4541 11.0764 24.4437Z" fill="#333333"/>
</svg>
