<svg width="30" height="30" viewBox="0 0 30 30" fill="none" xmlns="http://www.w3.org/2000/svg">
<mask id="mask0_5737_11869" style="mask-type:luminance" maskUnits="userSpaceOnUse" x="0" y="0" width="30" height="30">
<path d="M0 0H30V30H0V0Z" fill="white"/>
</mask>
<g mask="url(#mask0_5737_11869)">
<path d="M1.87446 20.6264V22.9704C1.87473 23.0947 1.92423 23.2139 2.01212 23.3018C2.10002 23.3897 2.21916 23.4392 2.34346 23.4394C2.46777 23.4392 2.58691 23.3897 2.67481 23.3018C2.7627 23.2139 2.8122 23.0947 2.81246 22.9704V20.6264C2.8122 20.5021 2.7627 20.383 2.67481 20.2951C2.58691 20.2072 2.46777 20.1577 2.34346 20.1574C2.21916 20.1577 2.10002 20.2072 2.01212 20.2951C1.92423 20.383 1.87473 20.5021 1.87446 20.6264ZM27.6555 22.2674C27.7798 22.2672 27.8989 22.2177 27.9868 22.1298C28.0747 22.0419 28.1242 21.9227 28.1245 21.7984C28.1242 21.6741 28.0747 21.555 27.9868 21.4671C27.8989 21.3792 27.7798 21.3297 27.6555 21.3294C27.5312 21.3297 27.412 21.3792 27.3241 21.4671C27.2362 21.555 27.1867 21.6741 27.1865 21.7984C27.1867 21.9227 27.2362 22.0419 27.3241 22.1298C27.412 22.2177 27.5312 22.2672 27.6555 22.2674ZM17.8125 11.0174C17.8122 10.8931 17.7627 10.774 17.6748 10.6861C17.5869 10.5982 17.4678 10.5487 17.3435 10.5484H17.2965C17.1865 10.0134 16.8929 9.5337 16.4665 9.19242L16.8605 7.61542C16.8901 7.4949 16.8709 7.36753 16.8071 7.26112C16.7432 7.15471 16.6398 7.07788 16.5195 7.04742C16.3991 7.01771 16.2718 7.03677 16.1655 7.10045C16.0591 7.16414 15.9821 7.26728 15.9515 7.38742L15.6095 8.75642C15.3006 8.67168 14.9776 8.65126 14.6605 8.69642C14.3434 8.74181 14.039 8.85211 13.7665 9.02042C13.4935 9.18842 13.2585 9.41042 13.0755 9.67342C12.8924 9.93603 12.7654 10.2336 12.7025 10.5474H12.6555C12.5312 10.5477 12.412 10.5972 12.3241 10.6851C12.2362 10.773 12.1867 10.8921 12.1865 11.0164C12.1867 11.1407 12.2362 11.2599 12.3241 11.3478C12.412 11.4357 12.5312 11.4852 12.6555 11.4854H12.6985L13.0865 15.5584C13.1075 15.7904 13.2155 16.0074 13.3885 16.1644C13.5615 16.3214 13.7865 16.4084 14.0205 16.4074H15.9805C16.2135 16.4084 16.4395 16.3214 16.6125 16.1644C16.7855 16.0074 16.8925 15.7914 16.9145 15.5584L17.3025 11.4854H17.3455C17.4698 11.4852 17.5889 11.4357 17.6768 11.3478C17.7647 11.2599 17.8142 11.1407 17.8145 11.0164L17.8125 11.0174ZM14.9995 9.61042C15.2899 9.61138 15.5729 9.70199 15.8099 9.86988C16.0469 10.0378 16.2262 10.2747 16.3235 10.5484H13.6755C13.7727 10.2747 13.952 10.0378 14.189 9.86988C14.426 9.70199 14.709 9.61138 14.9995 9.61042ZM15.9795 15.4694H14.0195L13.6405 11.4854H16.3595L15.9805 15.4694H15.9795ZM29.0625 3.04842C29.0623 2.96435 29.0395 2.88187 28.9966 2.80958C28.9537 2.7373 28.8922 2.67784 28.8185 2.63742L27.8785 2.12342L27.3645 1.18342C27.3238 1.11008 27.2642 1.04896 27.1919 1.0064C27.1197 0.963848 27.0373 0.941406 26.9535 0.941406C26.8696 0.941406 26.7873 0.963848 26.715 1.0064C26.6427 1.04896 26.5831 1.11008 26.5425 1.18342L26.0285 2.12342L25.0885 2.63742C25.0151 2.6781 24.954 2.73767 24.9114 2.80994C24.8689 2.88221 24.8465 2.96455 24.8465 3.04842C24.8465 3.13229 24.8689 3.21463 24.9114 3.2869C24.954 3.35917 25.0151 3.41873 25.0885 3.45942L26.0285 3.97342L26.5425 4.91342C26.5831 4.98676 26.6427 5.04788 26.715 5.09043C26.7873 5.13299 26.8696 5.15543 26.9535 5.15543C27.0373 5.15543 27.1197 5.13299 27.1919 5.09043C27.2642 5.04788 27.3238 4.98676 27.3645 4.91342L27.8785 3.97342L28.8185 3.45942C28.8922 3.41899 28.9537 3.35954 28.9966 3.28725C29.0395 3.21496 29.0623 3.13248 29.0625 3.04842ZM27.3085 3.21742C27.23 3.26045 27.1655 3.32498 27.1225 3.40342L26.9535 3.71242L26.7845 3.40342C26.7414 3.32498 26.6769 3.26045 26.5985 3.21742L26.2905 3.04842L26.5985 2.87942C26.6769 2.83638 26.7414 2.77186 26.7845 2.69342L26.9535 2.38442L27.1225 2.69342C27.1655 2.77186 27.23 2.83638 27.3085 2.87942L27.6175 3.04842L27.3085 3.21742ZM1.18146 3.46042L2.12146 3.97442L2.63546 4.91442C2.67615 4.98776 2.73571 5.04888 2.80798 5.09143C2.88025 5.13399 2.9626 5.15643 3.04646 5.15643C3.13033 5.15643 3.21267 5.13399 3.28494 5.09143C3.35721 5.04888 3.41678 4.98776 3.45746 4.91442L3.97146 3.97442L4.91146 3.46042C4.9848 3.41973 5.04592 3.36017 5.08848 3.2879C5.13103 3.21563 5.15347 3.13329 5.15347 3.04942C5.15347 2.96555 5.13103 2.88321 5.08848 2.81094C5.04592 2.73867 4.9848 2.6791 4.91146 2.63842L3.97146 2.12442L3.45746 1.18442C3.41678 1.11108 3.35721 1.04996 3.28494 1.0074C3.21267 0.964848 3.13033 0.942406 3.04646 0.942406C2.9626 0.942406 2.88025 0.964848 2.80798 1.0074C2.73571 1.04996 2.67615 1.11108 2.63546 1.18442L2.12146 2.12442L1.18146 2.63842C1.10812 2.6791 1.04701 2.73867 1.00445 2.81094C0.961895 2.88321 0.939453 2.96555 0.939453 3.04942C0.939453 3.13329 0.961895 3.21563 1.00445 3.2879C1.04701 3.36017 1.10812 3.41973 1.18146 3.46042ZM2.69146 2.88042C2.7699 2.83738 2.83443 2.77286 2.87746 2.69442L3.04646 2.38542L3.21546 2.69442C3.2585 2.77286 3.32302 2.83738 3.40146 2.88042L3.70946 3.04942L3.40146 3.21842C3.32302 3.26145 3.2585 3.32598 3.21546 3.40442L3.04646 3.71342L2.87746 3.40442C2.83443 3.32598 2.7699 3.26145 2.69146 3.21842L2.38346 3.04942L2.69146 2.88042ZM17.1255 21.0214L13.7735 19.1064C13.6365 19.0274 13.4805 18.9854 13.3215 18.9854C13.1631 18.9844 13.0073 19.0256 12.8702 19.1049C12.7331 19.1842 12.6196 19.2986 12.5415 19.4364C12.4625 19.5724 12.4214 19.7271 12.4225 19.8844V23.7134C12.4214 23.8707 12.4625 24.0254 12.5415 24.1614C12.6203 24.2976 12.7338 24.4104 12.8705 24.4884C13.0075 24.5686 13.1633 24.6111 13.3221 24.6117C13.4808 24.6122 13.6369 24.5707 13.7745 24.4914L17.1265 22.5764C17.264 22.4984 17.3782 22.3852 17.4575 22.2484C17.5365 22.1116 17.578 21.9564 17.578 21.7984C17.578 21.6404 17.5365 21.4852 17.4575 21.3484C17.3778 21.2119 17.2637 21.0988 17.1265 21.0204L17.1255 21.0214ZM13.3595 23.6484V19.9504L16.5975 21.7994L13.3595 23.6484ZM4.21846 27.6584H5.39046C5.39073 27.7827 5.44023 27.9019 5.52812 27.9898C5.61602 28.0777 5.73516 28.1272 5.85946 28.1274C5.98377 28.1272 6.10291 28.0777 6.19081 27.9898C6.2787 27.9019 6.3282 27.7827 6.32846 27.6584H25.7815C25.9058 27.6582 26.0249 27.6087 26.1128 27.5208C26.2007 27.4329 26.2502 27.3137 26.2505 27.1894C26.2502 27.0651 26.2007 26.946 26.1128 26.8581C26.0249 26.7702 25.9058 26.7207 25.7815 26.7204H6.32746C6.3272 26.5961 6.2777 26.477 6.18981 26.3891C6.10191 26.3012 5.98277 26.2517 5.85846 26.2514C5.73416 26.2517 5.61502 26.3012 5.52712 26.3891C5.43923 26.477 5.38973 26.5961 5.38946 26.7204H4.21846C4.09416 26.7207 3.97502 26.7702 3.88712 26.8581C3.79923 26.946 3.74973 27.0651 3.74946 27.1894C3.74973 27.3137 3.79923 27.4329 3.88712 27.5208C3.97502 27.6087 4.09416 27.6582 4.21846 27.6584ZM28.3965 9.60242C28.2115 9.24542 27.9205 8.95442 27.5625 8.76942C27.5278 8.39418 27.3823 8.03775 27.1445 7.74542C26.9065 7.45342 26.5865 7.23842 26.2265 7.12942C25.8685 7.00907 25.483 6.99697 25.1182 7.09462C24.7534 7.19227 24.4254 7.39534 24.1755 7.67842C23.7445 7.60685 23.302 7.68928 22.9257 7.91126C22.5494 8.13323 22.2633 8.48059 22.1175 8.89242L22.1025 8.94742C22.0295 8.97542 21.9645 9.02142 21.9155 9.08242C21.8665 9.14342 21.8345 9.21642 21.8235 9.29342L20.7035 15.5844C20.6643 15.8079 20.7073 16.0381 20.8246 16.2323C20.9419 16.4266 21.1254 16.5719 21.3415 16.6414L24.5585 17.6684C24.6515 17.6983 24.7487 17.7135 24.8465 17.7134C25.0206 17.7136 25.1913 17.6648 25.3391 17.5727C25.4869 17.4806 25.6059 17.3488 25.6825 17.1924L28.5435 11.4474C28.5825 11.3704 28.5985 11.2844 28.5915 11.1984C28.5845 11.1124 28.5535 11.0304 28.5015 10.9614C28.576 10.7389 28.6051 10.5036 28.5869 10.2696C28.5686 10.0357 28.5036 9.80773 28.3955 9.59942L28.3965 9.60242ZM22.6525 9.98642L24.5085 10.5794L23.3605 14.4044L21.9495 13.9344L22.6525 9.98642ZM24.8435 16.7764L21.6265 15.7494L21.7835 14.8664L25.2235 16.0134L24.8435 16.7764ZM25.6455 15.1654L24.2505 14.7004L25.4015 10.8634L27.4605 11.5204L25.6455 15.1654ZM27.6305 10.5914L23.0335 9.12442C23.1075 8.96242 23.2285 8.82642 23.3795 8.73242C23.5309 8.63865 23.7064 8.59136 23.8845 8.59642C23.9972 8.59664 24.1092 8.61453 24.2165 8.64942C24.3224 8.68794 24.4386 8.68712 24.544 8.6471C24.6493 8.60709 24.7368 8.53054 24.7905 8.43142C24.9045 8.24042 25.0815 8.09442 25.2915 8.02042C25.5012 7.94596 25.7302 7.94667 25.9395 8.02242C26.1515 8.08042 26.3365 8.21242 26.4615 8.39342C26.5865 8.57442 26.6435 8.79442 26.6225 9.01342C26.6072 9.12423 26.6319 9.23686 26.6922 9.33108C26.7525 9.42529 26.8444 9.49491 26.9515 9.52742L26.9735 9.53342C27.2262 9.61495 27.4371 9.79181 27.5615 10.0264C27.6505 10.1994 27.6755 10.3994 27.6315 10.5894L27.6305 10.5914ZM17.9525 14.5324H19.9395L20.1065 13.5954H18.0415L17.9525 14.5324ZM10.0595 14.5324H12.0465L11.9575 13.5954H9.89346L10.0595 14.5324Z" fill="#0FA85B"/>
<path d="M28.505 13.6328L28.057 14.5318H28.125C28.3736 14.5323 28.6119 14.6313 28.7877 14.8071C28.9635 14.9829 29.0625 15.2212 29.063 15.4698V28.1258C29.0625 28.3743 28.9636 28.6124 28.788 28.7882C28.6125 28.9639 28.3744 29.063 28.126 29.0638H1.875C1.62674 29.063 1.38887 28.9641 1.21331 28.7885C1.03776 28.613 0.938791 28.3751 0.938 28.1268V15.4688C0.938792 15.2204 1.0379 14.9824 1.21367 14.8068C1.38944 14.6312 1.62756 14.5323 1.876 14.5318H1.944L1.496 13.6328C1.07391 13.7209 0.694919 13.9514 0.422553 14.2856C0.150188 14.6199 0.0010014 15.0376 0 15.4688L0 28.1248C0.001 28.6218 0.198 29.0988 0.55 29.4498C0.901604 29.8011 1.378 29.9988 1.875 29.9998H28.125C28.3712 29.9999 28.615 29.9513 28.8423 29.8569C29.0697 29.7626 29.2762 29.6242 29.45 29.4498C29.8013 29.0982 29.999 28.6218 30 28.1248V15.4688C29.999 15.0378 29.85 14.6202 29.5778 14.2859C29.3057 13.9517 28.9269 13.7211 28.505 13.6328ZM5.152 17.7128C5.24976 17.7129 5.34692 17.6977 5.44 17.6678L8.657 16.6408C8.87301 16.5713 9.0566 16.426 9.17386 16.2318C9.29112 16.0375 9.33415 15.8073 9.295 15.5838L8.175 9.29282C8.16323 9.22715 8.13761 9.16474 8.09985 9.10974C8.06209 9.05474 8.01305 9.0084 7.956 8.97382C7.937 8.96282 7.917 8.95382 7.897 8.94682L7.882 8.89182C7.73632 8.47961 7.45009 8.13189 7.07356 7.9097C6.69703 7.68751 6.25427 7.60506 5.823 7.67682C5.57298 7.39411 5.24519 7.19135 4.88058 7.09389C4.51598 6.99642 4.13074 7.00857 3.773 7.12882C3.412 7.23882 3.093 7.45282 2.855 7.74482C2.61668 8.03684 2.47111 8.39344 2.437 8.76882C2.0797 8.95343 1.78861 9.24452 1.604 9.60182C1.49696 9.80867 1.43204 10.0347 1.413 10.2668C1.39375 10.4989 1.42129 10.7326 1.494 10.9538C1.447 11.0338 1.416 11.1158 1.409 11.2008C1.40188 11.2867 1.41849 11.3728 1.457 11.4498L4.318 17.1948C4.39473 17.351 4.51376 17.4826 4.66155 17.5745C4.80934 17.6664 4.97995 17.7151 5.154 17.7148L5.152 17.7128ZM8.215 14.8648L8.372 15.7478L5.155 16.7748L4.775 16.0118L8.215 14.8648ZM8.049 13.9318L6.638 14.4018L5.49 10.5768L7.346 9.98382L8.049 13.9318ZM2.438 10.0258C2.56192 9.79104 2.7725 9.61382 3.025 9.53182L3.047 9.52582C3.15403 9.49331 3.24597 9.4237 3.30627 9.32948C3.36658 9.23527 3.3913 9.12263 3.376 9.01182C3.355 8.79282 3.412 8.57282 3.537 8.39182C3.662 8.21082 3.847 8.07882 4.059 8.02082C4.268 7.94482 4.497 7.94382 4.707 8.01882C4.91659 8.09361 5.09368 8.2389 5.208 8.42982C5.26202 8.52904 5.34997 8.60548 5.45575 8.64515C5.56153 8.68481 5.67806 8.68505 5.784 8.64582C6.005 8.56482 6.247 8.56882 6.465 8.65682C6.683 8.74482 6.86 8.91082 6.962 9.12182L2.368 10.5898C2.324 10.3998 2.349 10.1998 2.438 10.0268V10.0258ZM4.597 10.8618L5.748 14.6988L4.353 15.1638L2.538 11.5198L4.597 10.8618ZM7.866 3.42482L7.835 3.46182L7.807 3.49982C7.796 3.51582 7.793 3.52682 7.788 3.53682C7.77981 3.55207 7.77246 3.56776 7.766 3.58382C7.761 3.59682 7.758 3.60982 7.755 3.62282L7.743 3.67282C7.74 3.68982 7.74 3.69982 7.739 3.71382C7.73745 3.73044 7.73678 3.74713 7.737 3.76382C7.737 3.77782 7.739 3.79182 7.741 3.80482L7.749 3.85482L8.568 6.92982C8.63288 7.17048 8.79068 7.37553 9.00672 7.49986C9.22275 7.62419 9.47932 7.65763 9.72 7.59282L13.964 6.43582C14.0835 6.40291 14.1954 6.34667 14.2931 6.27035C14.3908 6.19403 14.4724 6.09914 14.5333 5.99113C14.5942 5.88313 14.6331 5.76414 14.6478 5.64104C14.6625 5.51793 14.6527 5.39313 14.619 5.27382L13.934 2.87582C13.868 2.64482 13.717 2.44882 13.51 2.32682C13.303 2.20482 13.058 2.16582 12.825 2.21982L9.685 2.93382L11.816 0.799822C11.9036 0.711749 11.9528 0.592562 11.9528 0.468322C11.9528 0.344081 11.9036 0.224895 11.816 0.136822C11.7279 0.0491925 11.6087 0 11.4845 0C11.3603 0 11.2411 0.0491925 11.153 0.136822L7.872 3.41882L7.866 3.42482ZM13.031 3.13282L13.717 5.53082H13.716L9.472 6.68882L8.781 4.09882L13.03 3.13282H13.031ZM19.823 1.65982C19.7149 1.62735 19.5988 1.63484 19.4958 1.68092C19.3928 1.727 19.3098 1.80861 19.262 1.91082C18.851 2.79482 17.876 2.78982 17.825 2.79082C17.7634 2.788 17.7018 2.79761 17.6439 2.81909C17.586 2.84056 17.5331 2.87346 17.4882 2.91582C17.4433 2.95818 17.4074 3.00914 17.3827 3.06566C17.3579 3.12218 17.3447 3.18311 17.344 3.24482C17.3402 3.36899 17.3857 3.4896 17.4706 3.58029C17.5555 3.67098 17.6729 3.72439 17.797 3.72882C18.2177 3.72784 18.6326 3.6307 19.01 3.44482L18.526 6.62782C18.4897 6.92536 18.5485 7.22675 18.694 7.48882C18.8389 7.74866 19.0624 7.95599 19.3323 8.08115C19.6022 8.2063 19.9048 8.24286 20.1968 8.1856C20.4887 8.12834 20.7551 7.98019 20.9577 7.76235C21.1604 7.54452 21.2889 7.26816 21.325 6.97282C21.3521 6.75212 21.3265 6.52814 21.2505 6.31918C21.1745 6.11022 21.0501 5.9222 20.8876 5.77047C20.725 5.61875 20.5289 5.50761 20.3152 5.44615C20.1015 5.38469 19.8763 5.37464 19.658 5.41682L20.15 2.18082C20.1666 2.06936 20.1427 1.95563 20.0825 1.86036C20.0222 1.7651 19.9298 1.69464 19.822 1.66182L19.823 1.65982ZM19.922 6.32782C20.0197 6.32637 20.1154 6.35542 20.1959 6.41091C20.2763 6.4664 20.3374 6.54559 20.3708 6.63745C20.4041 6.72931 20.408 6.82927 20.3819 6.92343C20.3557 7.01759 20.3009 7.10127 20.225 7.16282C20.1502 7.22594 20.0575 7.26412 19.96 7.27204C19.8624 7.27997 19.7648 7.25724 19.6808 7.20703C19.5968 7.15682 19.5306 7.08163 19.4913 6.99196C19.4521 6.90228 19.4418 6.8026 19.462 6.70682L19.463 6.69982C19.4852 6.59448 19.5429 6.49997 19.6265 6.43207C19.71 6.36418 19.8143 6.32802 19.922 6.32782Z" fill="#333333"/>
</g>
</svg>
