<svg width="29" height="30" viewBox="0 0 29 30" fill="none" xmlns="http://www.w3.org/2000/svg">
<path d="M27.7472 29.2852H6.96223C6.76332 29.2852 6.57255 29.2061 6.4319 29.0655C6.29125 28.9248 6.21223 28.7341 6.21223 28.5352C6.21223 28.3362 6.29125 28.1455 6.4319 28.0048C6.57255 27.8642 6.76332 27.7852 6.96223 27.7852H26.9962L26.9872 19.8112C26.9872 18.3442 26.0812 15.8612 24.6032 15.1482C23.6582 14.6912 22.5162 14.9832 21.2132 16.0162L19.4932 17.5072C17.2632 19.5512 16.3212 20.1122 11.3432 18.3212C11.1561 18.2537 11.0035 18.1146 10.9189 17.9346C10.8343 17.7545 10.8247 17.5483 10.8922 17.3612C10.9597 17.174 11.0988 17.0214 11.2788 16.9368C11.4589 16.8523 11.6651 16.8427 11.8522 16.9102C16.2122 18.4792 16.6482 18.0812 18.4802 16.4022L20.2822 14.8422C22.5152 13.0712 24.2212 13.2962 25.2582 13.7982C27.4622 14.8632 28.4892 18.0162 28.4892 19.8112L28.4992 28.5352C28.4992 28.7341 28.4202 28.9248 28.2796 29.0655C28.1389 29.2061 27.9481 29.2852 27.7492 29.2852H27.7472ZM20.2532 9.09416C18.7142 9.09416 17.4622 7.84216 17.4622 6.30316C17.4622 4.76416 18.7142 3.51216 20.2532 3.51216C21.7922 3.51216 23.0442 4.76416 23.0442 6.30316C23.0442 7.84216 21.7922 9.09416 20.2532 9.09416ZM20.2532 5.01216C19.5412 5.01216 18.9622 5.59116 18.9622 6.30316C18.9622 7.01516 19.5412 7.59416 20.2532 7.59416C20.9652 7.59416 21.5442 7.01516 21.5442 6.30316C21.5442 5.59116 20.9652 5.01216 20.2532 5.01216ZM20.2532 2.95516C20.0543 2.95516 19.8636 2.87614 19.7229 2.73549C19.5822 2.59483 19.5032 2.40407 19.5032 2.20516V1.53516C19.5032 1.33624 19.5822 1.14548 19.7229 1.00483C19.8636 0.864174 20.0543 0.785156 20.2532 0.785156C20.4521 0.785156 20.6429 0.864174 20.7836 1.00483C20.9242 1.14548 21.0032 1.33624 21.0032 1.53516V2.20416C21.0032 2.40307 20.9242 2.59383 20.7836 2.73449C20.6429 2.87514 20.4521 2.95416 20.2532 2.95416V2.95516ZM17.3552 4.15516C17.1565 4.15525 16.9659 4.07648 16.8252 3.93616L16.3522 3.46316C16.2826 3.39349 16.2273 3.31078 16.1896 3.21976C16.1519 3.12874 16.1325 3.03118 16.1325 2.93266C16.1325 2.83413 16.1519 2.73658 16.1896 2.64555C16.2273 2.55453 16.2826 2.47182 16.3522 2.40216C16.4219 2.33249 16.5046 2.27723 16.5956 2.23952C16.6867 2.20182 16.7842 2.18242 16.8827 2.18242C16.9813 2.18242 17.0788 2.20182 17.1698 2.23952C17.2609 2.27723 17.3436 2.33249 17.4132 2.40216L17.8862 2.87516C17.9914 2.98005 18.063 3.11381 18.0921 3.25947C18.1211 3.40513 18.1063 3.55614 18.0494 3.69335C17.9925 3.83056 17.8962 3.94779 17.7726 4.03019C17.649 4.11258 17.5038 4.15542 17.3552 4.15516ZM16.1542 7.05416H15.4852C15.2863 7.05416 15.0956 6.97514 14.9549 6.83449C14.8142 6.69383 14.7352 6.50307 14.7352 6.30416C14.7352 6.10524 14.8142 5.91448 14.9549 5.77383C15.0956 5.63317 15.2863 5.55416 15.4852 5.55416H16.1542C16.3531 5.55416 16.5439 5.63317 16.6846 5.77383C16.8252 5.91448 16.9042 6.10524 16.9042 6.30416C16.9042 6.50307 16.8252 6.69383 16.6846 6.83449C16.5439 6.97514 16.3531 7.05416 16.1542 7.05416ZM16.8822 10.4252C16.734 10.425 16.5891 10.381 16.4659 10.2985C16.3427 10.2161 16.2467 10.099 16.1899 9.96208C16.1332 9.82512 16.1184 9.67442 16.1473 9.52902C16.1761 9.38362 16.2475 9.25004 16.3522 9.14516L16.8252 8.67216C16.9674 8.53968 17.1555 8.46755 17.3498 8.47098C17.5441 8.47441 17.7294 8.55312 17.8669 8.69053C18.0043 8.82795 18.083 9.01333 18.0864 9.20763C18.0898 9.40193 18.0177 9.58998 17.8852 9.73216L17.4122 10.2052C17.2717 10.3458 17.0811 10.425 16.8822 10.4252ZM20.2532 11.8212C20.0543 11.8212 19.8636 11.7421 19.7229 11.6015C19.5822 11.4608 19.5032 11.2701 19.5032 11.0712V10.4022C19.5032 10.2032 19.5822 10.0125 19.7229 9.87183C19.8636 9.73117 20.0543 9.65216 20.2532 9.65216C20.4521 9.65216 20.6429 9.73117 20.7836 9.87183C20.9242 10.0125 21.0032 10.2032 21.0032 10.4022V11.0712C21.0032 11.2701 20.9242 11.4608 20.7836 11.6015C20.6429 11.7421 20.4521 11.8212 20.2532 11.8212ZM23.6242 10.4252C23.5256 10.4252 23.4279 10.4058 23.3368 10.368C23.2457 10.3303 23.1629 10.2749 23.0932 10.2052L22.6202 9.73216C22.5506 9.66249 22.4953 9.57978 22.4576 9.48876C22.4199 9.39774 22.4005 9.30018 22.4005 9.20166C22.4005 9.10313 22.4199 9.00558 22.4576 8.91455C22.4953 8.82353 22.5506 8.74082 22.6202 8.67116C22.6899 8.60149 22.7726 8.54623 22.8636 8.50852C22.9546 8.47082 23.0522 8.45142 23.1507 8.45142C23.2493 8.45142 23.3468 8.47082 23.4378 8.50852C23.5289 8.54623 23.6116 8.60149 23.6812 8.67116L24.1542 9.14416C24.259 9.24904 24.3303 9.38262 24.3592 9.52802C24.3881 9.67342 24.3732 9.82412 24.3165 9.96108C24.2598 10.098 24.1638 10.2151 24.0406 10.2975C23.9173 10.38 23.7725 10.424 23.6242 10.4242V10.4252ZM25.0202 7.05416H24.3512C24.1523 7.05416 23.9616 6.97514 23.8209 6.83449C23.6802 6.69383 23.6012 6.50307 23.6012 6.30416C23.6012 6.10524 23.6802 5.91448 23.8209 5.77383C23.9616 5.63317 24.1523 5.55416 24.3512 5.55416H25.0202C25.2191 5.55416 25.4099 5.63317 25.5506 5.77383C25.6912 5.91448 25.7702 6.10524 25.7702 6.30416C25.7702 6.50307 25.6912 6.69383 25.5506 6.83449C25.4099 6.97514 25.2191 7.05416 25.0202 7.05416ZM23.1512 4.15516C23.003 4.15503 22.8581 4.11097 22.7349 4.02855C22.6117 3.94613 22.5157 3.82904 22.4589 3.69208C22.4022 3.55512 22.3874 3.40442 22.4163 3.25902C22.4452 3.11362 22.5165 2.98004 22.6212 2.87516L23.0942 2.40216C23.2356 2.26547 23.425 2.18978 23.6217 2.1914C23.8183 2.19301 24.0065 2.2718 24.1456 2.41079C24.2847 2.54978 24.3637 2.73786 24.3655 2.93451C24.3673 3.13115 24.2918 3.32064 24.1552 3.46216L23.6822 3.93516C23.5362 4.08216 23.3442 4.15516 23.1522 4.15516H23.1512ZM6.02223 25.8892C5.70914 25.8909 5.40698 25.7741 5.17642 25.5623C4.94586 25.3505 4.80397 25.0593 4.77923 24.7472L4.64423 23.1892C4.6301 23.0256 4.64832 22.8608 4.69786 22.7043C4.74741 22.5478 4.8273 22.4026 4.93297 22.2769C5.03865 22.1513 5.16804 22.0477 5.31376 21.9721C5.45948 21.8964 5.61866 21.8503 5.78223 21.8362L9.03323 21.5552C9.36123 21.5242 9.68923 21.6282 9.94523 21.8442C10.0713 21.9494 10.1752 22.0787 10.2509 22.2244C10.3266 22.3702 10.3726 22.5295 10.3862 22.6932L10.5202 24.2512C10.5349 24.4147 10.5168 24.5796 10.4672 24.7362C10.4176 24.8927 10.3374 25.0379 10.2312 25.1632C10.0162 25.4182 9.71523 25.5752 9.38323 25.6042L6.13323 25.8852L6.02223 25.8892ZM6.16023 23.3092L6.25123 24.3692L9.00323 24.1312L8.91223 23.0712L6.16023 23.3092ZM4.52223 8.52516C4.20964 8.52482 3.90851 8.40738 3.67823 8.19598C3.44795 7.98459 3.30524 7.69458 3.27823 7.38316L3.14323 5.82416C3.11496 5.49399 3.21896 5.1661 3.43235 4.91258C3.64575 4.65905 3.95108 4.50064 4.28123 4.47216L7.53223 4.19116C7.69584 4.17597 7.86084 4.19372 8.01748 4.24335C8.17412 4.29299 8.31923 4.37351 8.44423 4.48016C8.5703 4.58542 8.6742 4.71467 8.74991 4.86041C8.82561 5.00616 8.87161 5.16549 8.88523 5.32916L9.02023 6.88716C9.04879 7.21733 8.94506 7.54533 8.73184 7.79905C8.51863 8.05277 8.21339 8.21143 7.88323 8.24016L4.63223 8.52116C4.59523 8.52516 4.55923 8.52616 4.52323 8.52616L4.52223 8.52516ZM4.66023 5.94516L4.75123 7.00516L7.50423 6.76716L7.41323 5.70716L4.66023 5.94516Z" fill="#0FA85B"/>
<path d="M7.42911 29.2892C6.27711 29.2892 5.10311 29.0202 3.91211 28.4822C2.44111 27.8132 1.54311 26.2662 1.67611 24.6322C1.84411 22.5302 1.89711 20.4402 1.83211 18.4202C1.82891 18.3217 1.84515 18.2235 1.87991 18.1313C1.91467 18.039 1.96727 17.9546 2.03469 17.8827C2.10212 17.8108 2.18305 17.7529 2.27286 17.7123C2.36267 17.6717 2.4596 17.6493 2.55811 17.6462C2.99111 17.6272 3.31811 17.9582 3.33111 18.3722C3.39646 20.5005 3.34305 22.6308 3.17111 24.7532C3.08911 25.7602 3.63611 26.7092 4.53111 27.1162C6.87311 28.1742 9.04711 27.9872 11.1741 26.5422C11.9851 25.9882 12.3611 24.9592 12.1071 23.9832C11.5737 21.9214 11.1557 19.8315 10.8551 17.7232C10.8413 17.6256 10.8468 17.5262 10.8714 17.4308C10.896 17.3353 10.9391 17.2457 10.9984 17.1669C11.0576 17.0882 11.1318 17.0219 11.2167 16.9718C11.3016 16.9217 11.3955 16.8889 11.4931 16.8752C11.6899 16.8475 11.8896 16.899 12.0484 17.0184C12.2072 17.1379 12.3121 17.3154 12.3401 17.5122C12.6332 19.5646 13.0405 21.5991 13.5601 23.6062C13.9721 25.1932 13.3531 26.8702 12.0191 27.7812C10.5401 28.7862 9.00511 29.2892 7.42911 29.2892ZM2.07911 13.2122C1.8979 13.2119 1.72291 13.146 1.58651 13.0267C1.45011 12.9074 1.36151 12.7427 1.33711 12.5632C1.06311 10.5362 0.654111 8.45015 0.122111 6.36415C-0.312889 4.66615 0.441112 2.87115 1.95711 1.99915C4.32811 0.641155 6.83311 0.425155 9.40111 1.35615C11.0451 1.95515 12.0961 3.59515 11.9581 5.34415L11.7921 9.01715C11.7871 9.43115 11.4381 9.75416 11.0321 9.75815C10.9336 9.75685 10.8363 9.73616 10.7458 9.69726C10.6554 9.65835 10.5734 9.60201 10.5047 9.53143C10.436 9.46086 10.3818 9.37744 10.3454 9.28594C10.3089 9.19444 10.2908 9.09665 10.2921 8.99815L10.4631 5.22615C10.5047 4.70048 10.3735 4.1756 10.0893 3.73136C9.80522 3.28713 9.38377 2.94786 8.88911 2.76515C6.72511 1.98115 4.70211 2.15615 2.70311 3.30015C2.24752 3.565 1.89083 3.97132 1.68724 4.45738C1.48365 4.94344 1.44428 5.48268 1.57511 5.99315C2.11245 8.09096 2.52946 10.2178 2.82411 12.3632C2.85085 12.5602 2.79824 12.7598 2.67785 12.9181C2.55746 13.0763 2.37915 13.1803 2.18211 13.2072C2.14811 13.2122 2.11411 13.2142 2.08011 13.2142L2.07911 13.2122Z" fill="#333333"/>
<path d="M2.58249 19.1454C2.38733 19.1455 2.19982 19.0695 2.05979 18.9336C1.91975 18.7977 1.83821 18.6125 1.83249 18.4174C1.77516 16.4592 1.60991 14.5055 1.33749 12.5654C1.30849 12.3614 1.36549 12.1554 1.49349 11.9934C1.55693 11.9138 1.63593 11.8479 1.72567 11.7997C1.81542 11.7516 1.91403 11.7222 2.01549 11.7134L11.0105 10.9364C11.2145 10.9184 11.4195 10.9864 11.5735 11.1224C11.6498 11.1901 11.7115 11.2726 11.7548 11.365C11.7982 11.4573 11.8222 11.5575 11.8255 11.6594C11.8885 13.6094 12.0625 15.5774 12.3415 17.5084C12.356 17.6095 12.3498 17.7124 12.3231 17.811C12.2965 17.9095 12.25 18.0016 12.1865 18.0815C12.123 18.1615 12.0439 18.2276 11.954 18.2759C11.864 18.3242 11.7652 18.3537 11.6635 18.3624L2.64749 19.1414L2.58349 19.1444L2.58249 19.1454ZM2.92749 13.1414L3.30349 17.5814L10.7485 16.9384L10.3575 12.5004L2.92749 13.1424V13.1414Z" fill="#333333"/>
</svg>
