<svg width="32" height="33" viewBox="0 0 32 33" fill="none" xmlns="http://www.w3.org/2000/svg">
<mask id="mask0_5737_11831" style="mask-type:luminance" maskUnits="userSpaceOnUse" x="0" y="0" width="32" height="33">
<path d="M0 0.785156H32V32.7852H0V0.785156Z" fill="white"/>
</mask>
<g mask="url(#mask0_5737_11831)">
<path d="M31.3205 10.0949L29.6725 8.5429L31.3695 7.0879C31.5155 6.9429 31.5635 6.7489 31.5155 6.5549C31.4675 6.3609 31.2735 6.2159 31.0795 6.2159H24.0975C23.8065 6.2159 23.6125 6.4099 23.6125 6.7009V17.6589L15.9995 6.1679L18.3265 2.6289C18.4715 2.3869 18.4235 2.0959 18.1805 1.9499C17.9375 1.8039 17.6475 1.8529 17.5015 2.0949L15.4165 5.2949L12.9935 1.6099C12.8475 1.3679 12.5575 1.3189 12.3145 1.4649C12.0715 1.6109 12.0235 1.9009 12.1685 2.1439L14.8355 6.1679L0.581471 27.8399C0.339471 28.2279 0.775471 28.5669 0.726471 28.5189C0.871471 28.6159 1.06547 28.6159 0.96847 28.6159H29.9625C30.3505 28.6159 30.5445 28.1799 30.3505 27.8399L24.5325 19.1129V10.9679H31.0295C31.3205 10.9679 31.5145 10.7739 31.5145 10.4829C31.5145 10.2889 31.4175 10.1439 31.3205 10.0949ZM15.4665 20.1799L19.7815 27.5979H11.1515L15.4665 20.1799ZM14.9815 19.1129L10.0365 27.5979H1.84147L14.9815 7.6709V19.1129ZM20.9455 27.5979L15.9515 19.1129V7.9129L29.0425 27.5979H20.9455ZM24.5815 9.9979V7.1859H29.7205L28.6055 8.1559C28.5085 8.2529 28.4605 8.3979 28.4605 8.4949C28.4564 8.63819 28.5084 8.77741 28.6055 8.8829L29.8175 10.0469H24.5815V9.9979ZM22.6905 31.1859H5.62347C5.33247 31.1859 5.13847 31.3799 5.13847 31.6709C5.13847 31.9619 5.33247 32.1559 5.62347 32.1559H22.6905C22.9815 32.1559 23.1755 31.9619 23.1755 31.6709C23.1755 31.3799 22.9815 31.1859 22.6905 31.1859ZM26.3755 31.1859H25.9395C25.6485 31.1859 25.4545 31.3799 25.4545 31.6709C25.4545 31.9619 25.6485 32.1559 25.9395 32.1559H26.3755C26.6665 32.1559 26.8605 31.9619 26.8605 31.6709C26.8605 31.3799 26.6185 31.1859 26.3755 31.1859Z" fill="#0FA85B"/>
<path d="M5.62367 31.1875H22.6907C22.9817 31.1875 23.1757 31.3815 23.1757 31.6725C23.1757 31.9635 22.9817 32.1575 22.6907 32.1575H5.62367C5.33267 32.1575 5.13867 31.9635 5.13867 31.6725C5.13867 31.3815 5.33267 31.1875 5.62367 31.1875Z" fill="#333333"/>
<path d="M25.9397 31.1875H26.3757C26.6187 31.1875 26.8607 31.3815 26.8607 31.6725C26.8607 31.9635 26.6667 32.1575 26.3757 32.1575H25.9397C25.6487 32.1575 25.4547 31.9635 25.4547 31.6725C25.4547 31.3815 25.6487 31.1875 25.9397 31.1875Z" fill="#333333"/>
</g>
</svg>
