<svg width="31" height="26" viewBox="0 0 31 26" fill="none" xmlns="http://www.w3.org/2000/svg">
<path d="M24.2629 17.9864C24.4303 17.9342 24.5856 17.8491 24.7198 17.7362C24.854 17.6233 24.9643 17.4847 25.0444 17.3287C25.1244 17.1726 25.1726 17.0022 25.186 16.8273C25.1994 16.6524 25.1779 16.4766 25.1226 16.3102C25.0673 16.1437 24.9794 15.99 24.864 15.8579C24.7486 15.7258 24.6081 15.618 24.4506 15.5409C24.2931 15.4637 24.1218 15.4187 23.9467 15.4085C23.7716 15.3983 23.5963 15.4231 23.4309 15.4814C23.1047 15.5964 22.8366 15.8349 22.6845 16.1455C22.5323 16.4561 22.5081 16.8141 22.6171 17.1423C22.7262 17.4706 22.9597 17.7429 23.2675 17.9008C23.5752 18.0586 23.9327 18.0894 24.2629 17.9864ZM11.2239 22.3164C11.3913 22.2642 11.5466 22.1791 11.6808 22.0662C11.815 21.9533 11.9253 21.8147 12.0054 21.6587C12.0854 21.5026 12.1336 21.3322 12.147 21.1573C12.1604 20.9824 12.1389 20.8066 12.0836 20.6402C12.0283 20.4737 11.9404 20.32 11.825 20.1879C11.7096 20.0558 11.5691 19.948 11.4116 19.8709C11.2541 19.7937 11.0828 19.7487 10.9077 19.7385C10.7326 19.7283 10.5573 19.7531 10.3919 19.8114C10.2244 19.8636 10.0691 19.9487 9.93488 20.0616C9.8007 20.1745 9.69036 20.3131 9.61032 20.4691C9.53028 20.6252 9.48214 20.7956 9.46872 20.9705C9.45529 21.1454 9.47685 21.3212 9.53213 21.4876C9.58742 21.654 9.67531 21.8078 9.79069 21.9399C9.90607 22.072 10.0466 22.1798 10.2041 22.2569C10.3616 22.3341 10.5329 22.3791 10.708 22.3893C10.8831 22.3995 11.0585 22.3747 11.2239 22.3164Z" stroke="#0FA85B" stroke-width="1.1" stroke-miterlimit="10" stroke-linejoin="round"/>
<path d="M15.4135 6.76503L13.4845 0.957031L21.6775 4.68503M11.6035 2.72003L12.2655 4.71303M11.9255 3.68803L14.3165 3.46303" stroke="#0FA85B" stroke-width="1.1" stroke-miterlimit="10" stroke-linecap="round" stroke-linejoin="round"/>
<path d="M7.39002 22.3922L6.65002 22.6382C6.32861 22.7478 5.98861 22.7923 5.64982 22.7693C5.31102 22.7462 4.9802 22.656 4.67662 22.5038C4.37303 22.3516 4.10276 22.1406 3.88153 21.883C3.6603 21.6253 3.49254 21.3263 3.38802 21.0032L1.13702 14.2272C1.02741 13.9058 0.982845 13.5658 1.00591 13.227C1.02898 12.8882 1.11923 12.5574 1.27139 12.2538C1.42355 11.9502 1.63459 11.6799 1.89222 11.4587C2.14985 11.2375 2.44892 11.0697 2.77202 10.9652L24.353 3.79717C24.6744 3.68757 25.0144 3.643 25.3532 3.66607C25.692 3.68914 26.0228 3.77938 26.3264 3.93155C26.63 4.08371 26.9003 4.29475 27.1215 4.55238C27.3427 4.81001 27.5105 5.10908 27.615 5.43217L29.866 12.2082C29.9756 12.5296 30.0202 12.8696 29.9971 13.2084C29.9741 13.5472 29.8838 13.878 29.7316 14.1816C29.5795 14.4852 29.3684 14.7554 29.1108 14.9767C28.8532 15.1979 28.5541 15.3656 28.231 15.4702L27.491 15.7162M20.43 18.0612L14.394 20.0662M3.89302 10.1502C3.76002 9.94117 1.52502 6.44817 2.39902 5.65217C3.23502 4.93217 5.35702 7.32517 6.43802 7.53517C7.65202 7.76417 9.95002 5.54717 11.107 5.98417C11.619 6.19317 11.769 7.97717 11.769 7.97717" stroke="#333333" stroke-width="1.1" stroke-miterlimit="10" stroke-linecap="round" stroke-linejoin="round"/>
<path d="M25.0196 20.2623C25.9559 19.9514 26.7304 19.2812 27.1726 18.3992C27.6148 17.5172 27.6885 16.4957 27.3776 15.5593C27.0666 14.623 26.3964 13.8485 25.5144 13.4063C24.6324 12.9641 23.6109 12.8904 22.6746 13.2013C21.7382 13.5123 20.9637 14.1825 20.5215 15.0645C20.0793 15.9465 20.0056 16.968 20.3166 17.9043C20.6275 18.8407 21.2977 19.6151 22.1797 20.0574C23.0617 20.4996 24.0832 20.5733 25.0196 20.2623V20.2623Z" stroke="#333333" stroke-width="1.1" stroke-miterlimit="10" stroke-linejoin="round"/>
<path d="M11.9785 24.5944C12.9149 24.2834 13.6894 23.6132 14.1316 22.7312C14.5738 21.8492 14.6475 20.8277 14.3365 19.8914C14.0256 18.955 13.3554 18.1805 12.4734 17.7383C11.5914 17.2961 10.5699 17.2224 9.63355 17.5334C8.6972 17.8443 7.92273 18.5145 7.48052 19.3965C7.03831 20.2785 6.96458 21.3 7.27555 22.2364C7.58651 23.1727 8.2567 23.9472 9.13869 24.3894C10.0207 24.8316 11.0422 24.9053 11.9785 24.5944V24.5944Z" stroke="#333333" stroke-width="1.1" stroke-miterlimit="10" stroke-linejoin="round"/>
</svg>
