<svg width="17" height="27" viewBox="0 0 17 27" fill="none" xmlns="http://www.w3.org/2000/svg">
<path d="M1.00145 16C1.00145 13.8657 -0.634317 9 1.49995 9L10.0007 8.5C12.5362 8.5 12.4175 10.999 12.0007 13.5C11.7073 15.2606 10.8594 17.8256 9.45529 18.7205C8.60765 19.2608 7.49185 19.0848 6.50035 19.25C5.50885 19.4152 4.47393 19.439 3.55869 19.0234C2.20756 18.4099 1.00145 17.3499 1.00145 16Z" fill="#0FA85B"/>
<path d="M0 5.49537V13.7194C0 16.6744 2.021 19.1544 4.757 19.8744V22.4874C4.757 23.2124 4.293 23.8684 3.573 24.1564C2.426 24.6094 1.77 25.3294 1.77 26.1404C1.77 26.4334 2.01 26.6734 2.303 26.6734H10.431C10.724 26.6734 10.964 26.4334 10.964 26.1404C10.964 25.3294 10.308 24.6044 9.167 24.1564C8.447 23.8734 7.983 23.2174 7.983 22.4874V19.8744C10.714 19.1544 12.735 16.6744 12.735 13.7194V10.0504C15.012 9.78337 16.788 7.84237 16.788 5.49537C16.788 2.96737 14.729 0.908371 12.201 0.908371C9.849 0.908371 7.913 2.68437 7.646 4.96137H6.409L6.02 1.82537C5.999 1.62237 5.865 1.45737 5.679 1.38837L2.031 0.0333709C1.96549 0.00895556 1.8958 -0.00225783 1.82594 0.000376386C1.75607 0.00301061 1.68742 0.0194403 1.62394 0.0487196C1.56045 0.0779988 1.50339 0.119549 1.45603 0.170977C1.40867 0.222404 1.37196 0.282693 1.348 0.348371C1.247 0.625371 1.385 0.929371 1.663 1.03637L5.007 2.27337L5.343 4.95637H0.539C0.396129 4.95663 0.259186 5.01351 0.158161 5.11453C0.0571363 5.21556 0.000264331 5.3525 0 5.49537ZM8.779 25.1434C9.115 25.2764 9.392 25.4314 9.584 25.6024H3.163C3.36 25.4374 3.632 25.2774 3.968 25.1434C5.093 24.6954 5.824 23.6504 5.824 22.4824V20.0554L6.373 20.0824L6.922 20.0554V22.4824C6.922 23.6554 7.648 24.7014 8.779 25.1434ZM11.675 13.7194C11.6726 15.1246 11.1134 16.4715 10.1197 17.4651C9.12613 18.4587 7.77918 19.018 6.374 19.0204C4.96882 19.018 3.62187 18.4587 2.62826 17.4651C1.63464 16.4715 1.07538 15.1246 1.073 13.7194V9.45237H11.68V13.7194H11.675ZM12.208 1.97037C14.149 1.97037 15.728 3.54937 15.728 5.49037C15.728 7.25037 14.427 8.71137 12.741 8.96737V5.49537C12.741 5.20237 12.501 4.96237 12.208 4.96237H8.731C8.987 3.27137 10.448 1.97037 12.208 1.97037ZM11.675 6.02937V8.38637H6.843L6.55 6.02937H11.675ZM5.472 6.02937L5.765 8.38637H1.067V6.02937H5.472Z" fill="#333333"/>
</svg>
