<svg width="30" height="30" viewBox="0 0 30 30" fill="none" xmlns="http://www.w3.org/2000/svg">
<mask id="mask0_5737_11851" style="mask-type:luminance" maskUnits="userSpaceOnUse" x="0" y="0" width="30" height="30">
<path d="M0 0H30V30H0V0Z" fill="white"/>
</mask>
<g mask="url(#mask0_5737_11851)">
<path d="M1.88261 11.6198C2.28814 11.3578 2.76084 11.2189 3.24361 11.2198C4.63261 11.2198 5.75761 12.3458 5.75761 13.7338C5.75761 14.9638 4.87461 15.9878 3.70761 16.2048M0.974609 9.77979C1.66489 9.38297 2.4474 9.17467 3.24361 9.17579C4.36898 9.17728 5.45405 9.59487 6.29007 10.3482C7.1261 11.1015 7.65403 12.1374 7.7723 13.2566C7.89056 14.3757 7.59082 15.499 6.93072 16.4105C6.27063 17.3219 5.29681 17.9571 4.19661 18.1938M7.64861 12.5598C13.6846 10.2218 15.7296 14.9998 15.7296 14.9998C13.4506 16.7658 11.1566 18.5918 7.36961 15.6738" stroke="#0FA85B" stroke-width="1.2" stroke-miterlimit="10" stroke-linejoin="round"/>
<path d="M7.79297 14.0352C9.75797 14.0352 12.187 14.4452 12.187 14.4452L7.79297 14.0352Z" fill="#333333"/>
<path d="M7.79297 14.0352C9.75797 14.0352 12.187 14.4452 12.187 14.4452" stroke="#0FA85B" stroke-width="1.2" stroke-miterlimit="10" stroke-linecap="round" stroke-linejoin="round"/>
<path d="M7.37081 15.6758C7.37081 15.6758 10.4318 17.9568 9.22981 21.9378C7.57481 21.1458 6.56881 21.9068 5.25781 20.7798" stroke="#0FA85B" stroke-width="1.2" stroke-miterlimit="10" stroke-linejoin="round"/>
<path d="M5.80664 17.5078C6.29964 18.7218 7.37164 19.8988 7.37164 19.8988L5.80664 17.5078Z" fill="#333333"/>
<path d="M5.80664 17.5078C6.29964 18.7218 7.37164 19.8988 7.37164 19.8988" stroke="#0FA85B" stroke-width="1.2" stroke-miterlimit="10" stroke-linecap="round" stroke-linejoin="round"/>
<path d="M6.27148 10.3303C8.16648 5.60427 13.5205 8.45226 13.5205 8.45226C13.5205 8.45226 12.5815 10.8423 10.5145 11.9223" stroke="#0FA85B" stroke-width="1.2" stroke-miterlimit="10" stroke-linejoin="round"/>
<path d="M7.10352 11.3108C8.40052 11.0338 9.89552 9.67578 9.89552 9.67578L7.10352 11.3108Z" fill="#333333"/>
<path d="M7.10352 11.3108C8.40052 11.0338 9.89552 9.67578 9.89552 9.67578" stroke="#0FA85B" stroke-width="1.2" stroke-miterlimit="10" stroke-linecap="round" stroke-linejoin="round"/>
<path d="M3.95208 9.23184C3.12708 5.04884 6.38908 2.96484 6.38908 2.96484C6.38908 2.96484 8.59408 3.92584 8.19308 8.04884" stroke="#0FA85B" stroke-width="1.2" stroke-miterlimit="10" stroke-linejoin="round"/>
<path d="M6.24016 5.71875C6.15416 8.17675 5.16016 9.59775 5.16016 9.59775L6.24016 5.71875Z" fill="#333333"/>
<path d="M6.24016 5.71875C6.15416 8.17675 5.16016 9.59775 5.16016 9.59775" stroke="#0FA85B" stroke-width="1.2" stroke-miterlimit="10" stroke-linecap="round" stroke-linejoin="round"/>
<path d="M1.53125 4.30469C3.36025 5.28269 3.89925 6.89969 3.89925 6.89969L1.53125 4.30469Z" fill="#333333"/>
<path d="M1.53125 4.30469C3.36025 5.28269 3.89925 6.89969 3.89925 6.89969" stroke="#0FA85B" stroke-width="1.2" stroke-miterlimit="10" stroke-linejoin="round"/>
<path d="M18.8684 15.4516C19.1359 15.4513 19.3924 15.3449 19.5816 15.1558C19.7707 14.9666 19.8771 14.7101 19.8774 14.4426C19.8771 14.1751 19.7707 13.9186 19.5816 13.7294C19.3924 13.5402 19.1359 13.4339 18.8684 13.4336C18.6009 13.4339 18.3444 13.5402 18.1552 13.7294C17.966 13.9186 17.8596 14.1751 17.8594 14.4426C17.8596 14.7101 17.966 14.9666 18.1552 15.1558C18.3444 15.3449 18.6009 15.4513 18.8684 15.4516Z" stroke="#0FA85B" stroke-width="1.2" stroke-miterlimit="10" stroke-linejoin="round"/>
<path d="M10.5422 6.21722C10.8097 6.21695 11.0662 6.11056 11.2554 5.9214C11.4445 5.73223 11.5509 5.47574 11.5512 5.20822C11.5509 4.9407 11.4445 4.68421 11.2554 4.49504C11.0662 4.30587 10.8097 4.19948 10.5422 4.19922C10.2747 4.19948 10.0182 4.30587 9.82902 4.49504C9.63986 4.68421 9.53347 4.9407 9.5332 5.20822C9.53347 5.47574 9.63986 5.73223 9.82902 5.9214C10.0182 6.11056 10.2747 6.21695 10.5422 6.21722Z" stroke="#0FA85B" stroke-width="1.2" stroke-miterlimit="10" stroke-linejoin="round"/>
<path d="M18.5554 9.59375C24.0354 14.3307 29.5144 21.5187 29.5144 23.6417C29.5144 25.3117 27.3114 26.9818 20.3224 17.4218M15.3944 19.3648C25.4154 31.9378 29.0674 29.5128 27.8224 24.8408M11.7344 22.4868C18.1334 29.6668 24.2124 31.3378 23.5614 27.5518" stroke="#333333" stroke-width="1.2" stroke-miterlimit="10" stroke-linecap="round" stroke-linejoin="round"/>
<path d="M18.9684 28.5234C18.9684 28.5234 18.2274 29.5174 16.9554 29.5174C14.1144 29.5174 9.57642 26.5764 6.84342 23.1564C3.42342 18.8774 4.08642 15.8414 2.86942 13.4534C1.90042 11.5524 0.482422 9.42638 0.482422 7.78737C0.482422 4.46338 3.83642 0.484375 6.94242 0.484375C10.5014 0.484375 13.4514 6.08637 17.4004 6.30437C21.7494 6.54537 26.3594 6.25737 27.2964 7.80237C28.2334 9.34737 23.9574 11.8314 20.7184 11.5824" stroke="#333333" stroke-width="1.2" stroke-miterlimit="10" stroke-linejoin="round"/>
</g>
</svg>
