<svg width="87" height="73" viewBox="0 0 87 73" fill="none" xmlns="http://www.w3.org/2000/svg">
<path d="M27.0409 38.9673C25.5576 41.044 24.3175 43.2987 22.2765 44.9748C18.7966 47.8406 13.504 48.5734 10.5878 52.0355C7.4639 55.7527 8.83747 61.0156 12.1868 64.1276C14.4148 66.2043 17.4141 67.5245 20.5291 68.3195C27.2753 70.0402 72.2796 68.1297 74.5224 67.1329C77.5158 65.8127 78.8567 63.2762 78.6402 60.4252C78.2871 55.7468 74.2999 51.9346 69.9211 49.3447C65.5423 46.7548 60.5583 44.9659 56.4703 42.026C54.1355 40.3468 52.1419 38.3265 49.9139 36.5376C48.0448 34.9732 45.9149 33.7501 43.6216 32.9242C37.5192 30.8713 30.2983 34.3601 27.0409 38.9673Z" fill="#00B77B"/>
<path d="M35.576 5.61904C36.6767 8.35134 36.2139 12.1457 33.6002 13.2107C30.9866 14.2758 27.2071 12.1665 26.1064 9.4312C25.0058 6.69594 26.234 3.62841 28.8476 2.57524C31.4613 1.52207 34.4754 2.88674 35.576 5.61904Z" fill="white" stroke="#111111" stroke-width="0.75" stroke-linecap="round" stroke-linejoin="round"/>
<path d="M54.7376 12.2881C52.9932 15.3171 49.0802 17.6667 46.1699 15.9905C43.2596 14.3143 42.4705 9.23539 44.2267 6.20049C45.983 3.16559 49.7536 2.07386 52.655 3.75299C55.5564 5.43213 56.4939 9.25616 54.7376 12.2881Z" fill="white" stroke="#111111" stroke-width="0.75" stroke-linecap="round" stroke-linejoin="round"/>
<path d="M36.2257 14.1957C37.2076 17.3225 35.7362 21.108 32.7458 22.0484C29.7554 22.9889 26.3793 20.7253 25.3973 17.5984C24.4154 14.4716 26.0411 11.1786 29.0315 10.25C32.0219 9.32143 35.2437 11.0688 36.2257 14.1957Z" fill="#00B77B" stroke="#111111" stroke-width="0.75" stroke-linecap="round" stroke-linejoin="round"/>
<path d="M33.0928 21.9179C33.804 21.043 34.2885 20.0061 34.5032 18.8993C34.718 17.7924 34.6564 16.6496 34.324 15.5722C33.348 12.4453 30.1262 10.6713 27.1358 11.6147C26.947 11.6701 26.7625 11.7396 26.584 11.8223C27.241 11.0846 28.0874 10.5409 29.0315 10.25C32.0219 9.3066 35.2437 11.0807 36.2257 14.2075C37.1691 17.195 35.8518 20.8084 33.0928 21.9179Z" fill="#009E65"/>
<path d="M36.2257 14.1957C37.2076 17.3225 35.7362 21.108 32.7458 22.0484C29.7554 22.9889 26.3793 20.7253 25.3973 17.5984C24.4154 14.4716 26.0411 11.1786 29.0315 10.25C32.0219 9.32143 35.2437 11.0688 36.2257 14.1957Z" stroke="#111111" stroke-width="0.75" stroke-linecap="round" stroke-linejoin="round"/>
<path d="M66.453 71.7104L72.8907 58.8262C72.9331 58.7426 72.9978 58.6724 73.0776 58.6234C73.1575 58.5744 73.2494 58.5484 73.3431 58.5484C73.4368 58.5484 73.5287 58.5744 73.6085 58.6234C73.6884 58.6724 73.7531 58.7426 73.7955 58.8262L80.5239 71.7193" stroke="#111111" stroke-width="0.75" stroke-linecap="round" stroke-linejoin="round"/>
<path d="M52.1715 71.7104L62.3145 51.4066C62.3819 51.2758 62.484 51.1662 62.6096 51.0896C62.7352 51.013 62.8795 50.9725 63.0265 50.9725C63.1736 50.9725 63.3179 51.013 63.4435 51.0896C63.5691 51.1662 63.6712 51.2758 63.7385 51.4066L74.3533 71.7104" fill="white"/>
<path d="M52.1715 71.7104L62.3145 51.4066C62.3819 51.2758 62.484 51.1662 62.6096 51.0896C62.7352 51.013 62.8795 50.9725 63.0265 50.9725C63.1736 50.9725 63.3179 51.013 63.4435 51.0896C63.5691 51.1662 63.6712 51.2758 63.7385 51.4066L74.3533 71.7104" stroke="#111111" stroke-width="0.75" stroke-linecap="round" stroke-linejoin="round"/>
<path d="M11.3413 71.7104L16.438 61.5081C16.4604 61.4537 16.4984 61.4071 16.5473 61.3744C16.5961 61.3416 16.6536 61.3241 16.7125 61.3241C16.7713 61.3241 16.8288 61.3416 16.8776 61.3744C16.9265 61.4071 16.9645 61.4537 16.9869 61.5081L22.3269 71.7164" stroke="#111111" stroke-width="0.75" stroke-linecap="round" stroke-linejoin="round"/>
<path d="M17.3429 71.7104L25.1601 56.0672C25.2114 55.9662 25.2898 55.8814 25.3864 55.8221C25.483 55.7629 25.5941 55.7315 25.7074 55.7315C25.8207 55.7315 25.9318 55.7629 26.0285 55.8221C26.1251 55.8814 26.2034 55.9662 26.2548 56.0672L34.4279 71.7223" fill="white"/>
<path d="M17.3429 71.7104L25.1601 56.0672C25.2114 55.9662 25.2898 55.8814 25.3864 55.8221C25.483 55.7629 25.5941 55.7315 25.7074 55.7315C25.8207 55.7315 25.9318 55.7629 26.0285 55.8221C26.1251 55.8814 26.2034 55.9662 26.2548 56.0672L34.4279 71.7223" stroke="#111111" stroke-width="0.75" stroke-linecap="round" stroke-linejoin="round"/>
<path d="M55.3192 18.8355C54.1325 21.8022 50.6674 23.7424 47.8283 22.5973C44.9892 21.4521 43.85 17.6667 45.0456 14.7C46.2412 11.7333 49.4956 10.25 52.3466 11.4011C55.1975 12.5521 56.5147 15.8867 55.3192 18.8355Z" fill="#00B77B" stroke="#111111" stroke-width="0.75" stroke-linecap="round" stroke-linejoin="round"/>
<path d="M55.3191 18.8326C54.1324 21.7992 50.6644 23.7424 47.8283 22.5973C47.7673 22.5743 47.7079 22.5475 47.6503 22.5172C50.0236 22.5172 52.4147 20.7846 53.3759 18.4172C54.5626 15.4921 53.2721 12.1872 50.5042 11.0213C51.1357 11.0287 51.76 11.1566 52.3435 11.3981C55.1826 12.5403 56.5176 15.8659 55.3191 18.8326Z" fill="#009E65"/>
<path d="M55.3192 18.8355C54.1325 21.8022 50.6674 23.7424 47.8283 22.5973C44.9892 21.4521 43.85 17.6667 45.0456 14.7C46.2412 11.7333 49.4956 10.25 52.3466 11.4011C55.1975 12.5521 56.5147 15.8867 55.3192 18.8355Z" stroke="#111111" stroke-width="0.75" stroke-linecap="round" stroke-linejoin="round"/>
<path d="M45.9534 23.6801L47.8283 22.5973L48.4305 24.6799L45.9534 23.6801Z" fill="#6BC58A" stroke="#111111" stroke-width="0.75" stroke-linecap="round" stroke-linejoin="round"/>
<path d="M40.738 20.4553C41.005 25.3474 41.1267 31.7138 41.094 36.6148" stroke="#111111" stroke-width="0.75" stroke-linecap="round" stroke-linejoin="round"/>
<path d="M46.9413 24.2141C45.458 28.0203 43.4792 33.304 41.094 36.6148" stroke="#111111" stroke-width="0.75" stroke-linecap="round" stroke-linejoin="round"/>
<path d="M33.6714 22.8494C36.1782 26.9672 38.5842 32.497 41.0881 36.6148" stroke="#111111" stroke-width="0.75" stroke-linecap="round" stroke-linejoin="round"/>
<path d="M17.248 37.2467C16.8998 37.2484 16.5663 37.3869 16.3194 37.6323C16.2706 37.2206 16.0717 36.8413 15.7608 36.567C15.4499 36.2927 15.0487 36.1426 14.6341 36.1456C14.2195 36.1485 13.8205 36.3042 13.5135 36.5829C13.2065 36.8616 13.013 37.2437 12.97 37.6561C12.6825 37.4601 12.342 37.3566 11.994 37.3594C11.5777 37.3709 11.1779 37.5242 10.8607 37.794C10.5434 38.0637 10.3279 38.4338 10.2496 38.8427C10.2461 38.8607 10.2466 38.8793 10.2511 38.897C10.2556 38.9148 10.264 38.9313 10.2756 38.9455C10.2872 38.9596 10.3018 38.9711 10.3183 38.979C10.3348 38.9868 10.3529 38.991 10.3712 38.9911H18.6215C18.6588 38.7846 18.6519 38.5725 18.6011 38.3689C18.5504 38.1653 18.457 37.9747 18.3272 37.8098C18.1974 37.645 18.0341 37.5095 17.848 37.4124C17.662 37.3154 17.4575 37.2589 17.248 37.2467Z" stroke="#111111" stroke-width="0.75" stroke-linecap="round" stroke-linejoin="round"/>
<path d="M58.6567 31.7227C59.0045 31.7233 59.3381 31.8608 59.5853 32.1054C59.634 31.6937 59.8329 31.3144 60.1439 31.0401C60.4548 30.7658 60.8559 30.6157 61.2706 30.6187C61.6852 30.6216 62.0842 30.7773 62.3912 31.056C62.6982 31.3347 62.8917 31.7168 62.9346 32.1292C63.2218 31.9348 63.5609 31.8314 63.9077 31.8325C64.3246 31.8428 64.7254 31.9956 65.0434 32.2655C65.3613 32.5354 65.5772 32.9061 65.6551 33.3158C65.6585 33.3342 65.6579 33.3531 65.6533 33.3712C65.6486 33.3893 65.6401 33.4062 65.6282 33.4207C65.6163 33.4351 65.6014 33.4467 65.5845 33.4548C65.5676 33.4628 65.5492 33.467 65.5305 33.4671H57.2831C57.2458 33.2606 57.2528 33.0486 57.3035 32.8449C57.3543 32.6413 57.4476 32.4508 57.5774 32.2859C57.7073 32.121 57.8706 31.9856 58.0566 31.8885C58.2427 31.7914 58.4472 31.7349 58.6567 31.7227Z" stroke="#111111" stroke-width="0.75" stroke-linecap="round" stroke-linejoin="round"/>
<path d="M67.3728 41.5958C67.3728 41.7777 67.3188 41.9555 67.2178 42.1067C67.1167 42.258 66.9731 42.3759 66.8051 42.4455C66.637 42.5151 66.4521 42.5333 66.2737 42.4978C66.0953 42.4623 65.9314 42.3747 65.8028 42.2461C65.6742 42.1175 65.5866 41.9536 65.5511 41.7752C65.5156 41.5968 65.5338 41.4119 65.6035 41.2439C65.6731 41.0758 65.7909 40.9322 65.9422 40.8311C66.0934 40.7301 66.2712 40.6761 66.4531 40.6761C66.697 40.6761 66.9309 40.773 67.1034 40.9455C67.2759 41.118 67.3728 41.3519 67.3728 41.5958Z" stroke="#00B77B" stroke-miterlimit="10"/>
<path d="M83.9118 57.5179C83.9118 57.6999 83.8578 57.8779 83.7566 58.0292C83.6555 58.1805 83.5116 58.2983 83.3434 58.3679C83.1752 58.4374 82.9901 58.4554 82.8117 58.4197C82.6332 58.384 82.4693 58.2961 82.3408 58.1672C82.2123 58.0382 82.125 57.8741 82.0898 57.6955C82.0547 57.5169 82.0733 57.3319 82.1434 57.1639C82.2134 56.9959 82.3318 56.8525 82.4834 56.7518C82.635 56.6511 82.8131 56.5977 82.9951 56.5982C83.1158 56.5982 83.2352 56.6221 83.3466 56.6683C83.4581 56.7146 83.5592 56.7823 83.6444 56.8678C83.7296 56.9532 83.797 57.0546 83.8429 57.1662C83.8888 57.2778 83.9122 57.3973 83.9118 57.5179Z" stroke="#00B77B" stroke-miterlimit="10"/>
<path d="M27.1833 30.6102C27.1833 30.8673 27.107 31.1187 26.9641 31.3324C26.8212 31.5462 26.6181 31.7127 26.3804 31.811C26.1428 31.9093 25.8814 31.9348 25.6293 31.8844C25.3771 31.8341 25.1456 31.71 24.964 31.528C24.7824 31.346 24.6589 31.1142 24.6091 30.8619C24.5593 30.6096 24.5854 30.3483 24.6842 30.1109C24.783 29.8735 24.9501 29.6708 25.1641 29.5284C25.3782 29.3859 25.6297 29.3102 25.8868 29.3108C26.2309 29.3116 26.5607 29.4489 26.8037 29.6925C27.0468 29.9361 27.1833 30.2661 27.1833 30.6102Z" stroke="#00B77B" stroke-miterlimit="10"/>
<path d="M6.67771 53.5277C6.67829 53.7097 6.62486 53.8878 6.52416 54.0395C6.42346 54.1911 6.28004 54.3094 6.11204 54.3795C5.94405 54.4496 5.75904 54.4682 5.58045 54.433C5.40186 54.3979 5.23771 54.3105 5.10879 54.182C4.97988 54.0535 4.892 53.8897 4.85627 53.7112C4.82054 53.5327 4.83858 53.3477 4.9081 53.1794C4.97762 53.0112 5.09549 52.8674 5.24679 52.7662C5.3981 52.665 5.57602 52.611 5.75804 52.611C6.00144 52.611 6.23491 52.7075 6.4073 52.8793C6.57968 53.0512 6.67692 53.2843 6.67771 53.5277Z" stroke="#00B77B" stroke-miterlimit="10"/>
<path d="M72.5555 38.3325H77.5514" stroke="#111111" stroke-width="0.75" stroke-linecap="round" stroke-linejoin="round"/>
<path d="M80.0166 40.329H86.1457" stroke="#111111" stroke-width="0.75" stroke-linecap="round" stroke-linejoin="round"/>
<path d="M76.9432 40.329H78.4503" stroke="#111111" stroke-width="0.75" stroke-linecap="round" stroke-linejoin="round"/>
<path d="M7.55884 30.1652H12.5547" stroke="#111111" stroke-width="0.75" stroke-linecap="round" stroke-linejoin="round"/>
<path d="M4.45862 32.1618H10.0567" stroke="#111111" stroke-width="0.75" stroke-linecap="round" stroke-linejoin="round"/>
<path d="M0.854126 32.1618H2.65193" stroke="#111111" stroke-width="0.75" stroke-linecap="round" stroke-linejoin="round"/>
<path d="M35.8994 67.1121H40.3138" stroke="#111111" stroke-width="0.75" stroke-linecap="round" stroke-linejoin="round"/>
<path d="M43.3131 67.1121H45.5233" stroke="#111111" stroke-width="0.75" stroke-linecap="round" stroke-linejoin="round"/>
<path d="M41.3016 67.1121H42.2866" stroke="#111111" stroke-width="0.75" stroke-linecap="round" stroke-linejoin="round"/>
<path d="M43.5712 69.5448H43.9687" stroke="#111111" stroke-width="0.75" stroke-linecap="round" stroke-linejoin="round"/>
<path d="M38.6583 69.5448H42.7227" stroke="#111111" stroke-width="0.75" stroke-linecap="round" stroke-linejoin="round"/>
<path d="M68.2241 71.7104H85.2973" stroke="#111111" stroke-width="0.75" stroke-linecap="round" stroke-linejoin="round"/>
<path d="M64.6938 71.7104H66.4531" stroke="#111111" stroke-width="0.75" stroke-linecap="round" stroke-linejoin="round"/>
<path d="M1.85388 71.7104H62.1603" stroke="#111111" stroke-width="0.75" stroke-linecap="round" stroke-linejoin="round"/>
<path d="M32.7042 23.8077L33.2709 21.8942L34.9915 22.8999L32.7042 23.8077Z" fill="#6BC58A" stroke="#111111" stroke-width="0.75" stroke-linecap="round" stroke-linejoin="round"/>
<path d="M47.95 9.36C47.95 14.1067 44.6629 18.7317 40.6104 18.7317C36.558 18.7317 33.2679 14.1067 33.2679 9.36C33.2679 4.61333 36.555 0.735901 40.6104 0.735901C44.6659 0.735901 47.95 4.58367 47.95 9.36Z" fill="#FCCD06" stroke="#111111" stroke-width="0.75" stroke-linecap="round" stroke-linejoin="round"/>
<path d="M47.95 9.34221C47.95 13.988 44.8142 18.4973 40.8982 18.705C43.5208 17.1772 45.3482 13.7002 45.3482 10.1432C45.3482 5.39654 42.0612 1.53987 38.0087 1.53987C37.8248 1.53987 37.6408 1.53987 37.4569 1.56361C38.4169 1.02579 39.4982 0.741914 40.5986 0.738873C44.66 0.72404 47.95 4.58664 47.95 9.34221Z" fill="#F4A321"/>
<path d="M47.95 9.36C47.95 14.1067 44.6629 18.7317 40.6104 18.7317C36.558 18.7317 33.2679 14.1067 33.2679 9.36C33.2679 4.61333 36.555 0.735901 40.6104 0.735901C44.6659 0.735901 47.95 4.58367 47.95 9.36Z" stroke="#111111" stroke-width="0.75" stroke-linecap="round" stroke-linejoin="round"/>
<path d="M39.0441 20.8647L40.7291 18.7169L42.4083 20.8647H39.0441Z" fill="#F4E552" stroke="#111111" stroke-width="0.75" stroke-linecap="round" stroke-linejoin="round"/>
<path d="M27.4354 8.27717C27.281 7.86323 27.2343 7.41685 27.2997 6.97993C27.3651 6.543 27.5404 6.12984 27.8092 5.77924" fill="white"/>
<path d="M27.4354 8.27717C27.281 7.86323 27.2343 7.41685 27.2997 6.97993C27.3651 6.543 27.5404 6.12984 27.8092 5.77924" stroke="#111111" stroke-width="0.75" stroke-linecap="round" stroke-linejoin="round"/>
<path d="M35.9884 7.04304C35.9884 7.04304 35.9498 5.23634 37.5429 4.43237" stroke="#111111" stroke-width="0.75" stroke-linecap="round" stroke-linejoin="round"/>
<path d="M38.3677 3.94286C38.7041 3.70853 39.0898 3.55428 39.495 3.49193" stroke="#111111" stroke-width="0.75" stroke-linecap="round" stroke-linejoin="round"/>
<path d="M48.8043 13.2819C49.0985 13.0311 49.4534 12.8621 49.8335 12.7918C50.2137 12.7215 50.6056 12.7524 50.97 12.8814" stroke="#111111" stroke-width="0.75" stroke-linecap="round" stroke-linejoin="round"/>
<path d="M26.4505 16.9695C26.2311 16.6039 26.1152 16.1855 26.1152 15.7591C26.1152 15.3327 26.2311 14.9143 26.4505 14.5487" stroke="#111111" stroke-width="0.75" stroke-linecap="round" stroke-linejoin="round"/>
<path d="M48.22 4.95451C48.22 4.95451 48.9201 4.02001 50.62 4.40567" stroke="#111111" stroke-width="0.75" stroke-linecap="round" stroke-linejoin="round"/>
<path d="M37.5666 5.9246C37.5338 6.02179 37.5216 6.12474 37.5308 6.22689C37.54 6.32904 37.5704 6.42816 37.62 6.51793C37.6696 6.58693 37.7339 6.64403 37.8083 6.68508C37.8827 6.72613 37.9653 6.75011 38.0501 6.75527C38.221 6.76457 38.391 6.7244 38.5396 6.63957C38.8207 6.49091 39.0369 6.24348 39.1464 5.94496C39.256 5.64644 39.2512 5.31793 39.133 5.02273C39.0232 4.72607 38.7948 4.80617 38.5396 4.89813C38.3081 4.98051 38.0992 5.11642 37.9301 5.29479C37.761 5.47317 37.6365 5.68896 37.5666 5.9246Z" fill="#FDF8CE"/>
<path d="M41.3017 66.59C49.9314 66.59 56.9271 59.5942 56.9271 50.9645C56.9271 42.3349 49.9314 35.3391 41.3017 35.3391C32.672 35.3391 25.6763 42.3349 25.6763 50.9645C25.6763 59.5942 32.672 66.59 41.3017 66.59Z" fill="#FCCD06" stroke="#111111" stroke-width="0.75" stroke-linecap="round" stroke-linejoin="round"/>
<path d="M52.3495 39.9167C54.6961 42.2649 56.2338 45.2994 56.7398 48.5804C57.2457 51.8613 56.6936 55.2181 55.1634 58.1641C53.6332 61.1102 51.2045 63.4923 48.2293 64.9651C45.2542 66.438 41.8873 66.925 38.6168 66.3556C42.2383 65.7212 45.52 63.8302 47.8848 61.015C50.2497 58.1999 51.5461 54.6411 51.5461 50.9645C51.5461 47.288 50.2497 43.7291 47.8848 40.914C45.52 38.0989 42.2383 36.2079 38.6168 35.5735C41.0864 35.1407 43.6239 35.3095 46.0144 36.0655C48.4048 36.8216 50.5779 38.1426 52.3495 39.9167Z" fill="#EF9F20"/>
<path d="M41.3017 66.59C49.9314 66.59 56.9271 59.5942 56.9271 50.9645C56.9271 42.3349 49.9314 35.3391 41.3017 35.3391C32.672 35.3391 25.6763 42.3349 25.6763 50.9645C25.6763 59.5942 32.672 66.59 41.3017 66.59Z" stroke="#111111" stroke-width="0.75" stroke-linecap="round" stroke-linejoin="round"/>
<path d="M36.7508 59.2089L31.4583 53.9164L33.5557 51.8189L36.7508 55.014L49.0447 42.7172L51.1421 44.8146L36.7508 59.2089Z" fill="#00B77B" stroke="#111111" stroke-width="0.75" stroke-linecap="round" stroke-linejoin="round"/>
<path d="M51.1421 44.8146L36.7508 59.2089L31.4583 53.9164L31.8409 53.5337L36.4779 58.1706L50.4894 44.162L51.1421 44.8146Z" fill="#009E65"/>
<path d="M36.7508 59.2089L31.4583 53.9164L33.5557 51.8189L36.7508 55.014L49.0447 42.7172L51.1421 44.8146L36.7508 59.2089Z" stroke="#111111" stroke-width="0.75" stroke-linecap="round" stroke-linejoin="round"/>
<path d="M36.7537 39.1898C35.0627 40.4714 33.4904 41.67 32.0783 43.2008C31.2591 44.1469 30.4926 45.1372 29.7821 46.1674C29.6367 42.4947 33.1433 39.1928 36.7537 39.1958V39.1898Z" fill="#FDF8CE"/>
<path d="M59.965 63.4423C59.9655 64.412 59.6785 65.3601 59.14 66.1666C58.6016 66.9731 57.836 67.6017 56.9402 67.9729C56.0444 68.3441 55.0586 68.4413 54.1075 68.252C53.1565 68.0628 52.283 67.5956 51.5975 66.9097C50.912 66.2239 50.4454 65.35 50.2568 64.3989C50.0681 63.4477 50.1658 62.462 50.5376 61.5664C50.9093 60.6708 51.5384 59.9056 52.3452 59.3677C53.152 58.8297 54.1003 58.5432 55.07 58.5444C56.3682 58.5459 57.6128 59.0626 58.5306 59.9809C59.4483 60.8992 59.9642 62.1441 59.965 63.4423Z" fill="white" stroke="#111111" stroke-width="0.75" stroke-linecap="round" stroke-linejoin="round"/>
<path d="M57.2119 63.3296C56.6062 64.1469 55.8835 64.8706 55.067 65.4775C54.2496 64.8707 53.5259 64.147 52.9191 63.3296C52.6225 62.8757 52.3851 62.2557 52.6848 61.8018C52.9844 61.3479 53.6549 61.3093 54.1236 61.5644C54.4786 61.8087 54.7912 62.1093 55.0492 62.4544C55.0537 62.4446 55.0597 62.4356 55.067 62.4277C55.0679 62.4366 55.0679 62.4456 55.067 62.4544C55.3264 62.1095 55.64 61.8089 55.9956 61.5644C56.4613 61.3093 57.1407 61.3538 57.4314 61.8018C57.7222 62.2497 57.5175 62.8757 57.2119 63.3296Z" fill="#00B77B" stroke="#111111" stroke-width="0.75" stroke-linecap="round" stroke-linejoin="round"/>
</svg>
