<svg width="87" height="65" viewBox="0 0 87 65" fill="none" xmlns="http://www.w3.org/2000/svg">
<path d="M27.0409 23.3401C25.5576 25.9448 24.3175 28.7727 22.2765 30.875C18.7966 34.4694 13.504 35.3884 10.5878 39.7307C7.4639 44.393 8.83747 50.9939 12.1868 54.8971C14.4148 57.5018 17.4141 59.1576 20.5291 60.1548C27.2753 62.3129 72.2796 59.9166 74.5224 58.6664C77.5158 57.0106 78.8567 53.8292 78.6402 50.2534C78.2871 44.3856 74.2999 39.6042 69.9211 36.3559C65.5423 33.1075 60.5583 30.8638 56.4703 27.1764C54.1355 25.0704 52.1419 22.5364 49.9139 20.2927C48.0448 18.3306 45.9149 16.7965 43.6216 15.7607C37.5192 13.1895 30.2983 17.5579 27.0409 23.3401Z" fill="#00B77B"/>
<path d="M66.4531 64.4078L72.8908 48.2479C72.9332 48.143 72.9979 48.055 73.0778 47.9935C73.1576 47.932 73.2495 47.8994 73.3432 47.8994C73.4369 47.8994 73.5288 47.932 73.6087 47.9935C73.6885 48.055 73.7532 48.143 73.7956 48.2479L80.524 64.4189" stroke="#111111" stroke-width="0.75" stroke-linecap="round" stroke-linejoin="round"/>
<path d="M52.1716 64.4078L62.3146 38.9419C62.3812 38.7768 62.4831 38.6381 62.6087 38.5412C62.7344 38.4443 62.8791 38.393 63.0266 38.393C63.1741 38.393 63.3188 38.4443 63.4445 38.5412C63.5702 38.6381 63.672 38.7768 63.7386 38.9419L74.3533 64.4078" fill="white"/>
<path d="M52.1716 64.4078L62.3146 38.9419C62.3812 38.7768 62.4831 38.6381 62.6087 38.5412C62.7344 38.4443 62.8791 38.393 63.0266 38.393C63.1741 38.393 63.3188 38.4443 63.4445 38.5412C63.5702 38.6381 63.672 38.7768 63.7386 38.9419L74.3533 64.4078" stroke="#111111" stroke-width="0.75" stroke-linecap="round" stroke-linejoin="round"/>
<path d="M11.3414 64.4078L16.4381 51.6116C16.4605 51.5433 16.4985 51.485 16.5473 51.4439C16.5962 51.4028 16.6537 51.3809 16.7125 51.3809C16.7713 51.3809 16.8288 51.4028 16.8777 51.4439C16.9266 51.485 16.9646 51.5433 16.9869 51.6116L22.3269 64.4152" stroke="#111111" stroke-width="0.75" stroke-linecap="round" stroke-linejoin="round"/>
<path d="M17.3429 64.4078L25.1601 44.7874C25.2114 44.6607 25.2898 44.5544 25.3864 44.4801C25.483 44.4058 25.5941 44.3664 25.7074 44.3664C25.8207 44.3664 25.9318 44.4058 26.0285 44.4801C26.1251 44.5544 26.2034 44.6607 26.2548 44.7874L34.4279 64.4189" fill="white"/>
<path d="M17.3429 64.4078L25.1601 44.7874C25.2114 44.6607 25.2898 44.5544 25.3864 44.4801C25.483 44.4058 25.5941 44.3664 25.7074 44.3664C25.8207 44.3664 25.9318 44.4058 26.0285 44.4801C26.1251 44.5544 26.2034 44.6607 26.2548 44.7874L34.4279 64.4189" stroke="#111111" stroke-width="0.75" stroke-linecap="round" stroke-linejoin="round"/>
<path d="M17.248 21.1783C16.8998 21.1804 16.5663 21.3541 16.3194 21.662C16.2706 21.1456 16.0717 20.6698 15.7608 20.3258C15.4499 19.9818 15.0487 19.7936 14.6341 19.7973C14.2195 19.8009 13.8205 19.9962 13.5135 20.3458C13.2065 20.6953 13.013 21.1745 12.97 21.6918C12.6825 21.446 12.342 21.3162 11.994 21.3197C11.5777 21.3341 11.1779 21.5264 10.8607 21.8648C10.5434 22.2031 10.3279 22.6672 10.2496 23.1801C10.2461 23.2027 10.2466 23.2259 10.2511 23.2482C10.2556 23.2705 10.264 23.2912 10.2756 23.309C10.2872 23.3268 10.3018 23.3411 10.3183 23.351C10.3348 23.3609 10.3529 23.3661 10.3712 23.3662H18.6215C18.6588 23.1072 18.6519 22.8412 18.6011 22.5858C18.5504 22.3304 18.457 22.0914 18.3272 21.8846C18.1974 21.6779 18.0341 21.508 17.848 21.3862C17.662 21.2645 17.4575 21.1936 17.248 21.1783Z" stroke="#111111" stroke-width="0.75" stroke-linecap="round" stroke-linejoin="round"/>
<path d="M52.2635 6.78955C52.6115 6.78946 52.9453 6.96201 53.1921 7.26955C53.2409 6.75311 53.4398 6.27736 53.7507 5.93332C54.0616 5.58929 54.4628 5.40111 54.8774 5.40479C55.292 5.40848 55.691 5.60377 55.998 5.9533C56.305 6.30283 56.4985 6.78206 56.5415 7.29931C56.8291 7.05375 57.1696 6.92395 57.5175 6.92722C57.9341 6.9415 58.3344 7.13367 58.6521 7.47195C58.9698 7.81024 59.186 8.27439 59.2649 8.78767C59.2678 8.81064 59.2669 8.83413 59.262 8.85658C59.2572 8.87903 59.2486 8.89993 59.2368 8.91789C59.225 8.93584 59.2103 8.95044 59.1936 8.96071C59.177 8.97098 59.1588 8.97668 59.1403 8.97744H50.89C50.8491 8.71793 50.8535 8.45041 50.9029 8.19324C50.9522 7.93606 51.0453 7.69531 51.1758 7.48749C51.3062 7.27967 51.471 7.1097 51.6588 6.98923C51.8465 6.86876 52.0528 6.80064 52.2635 6.78955Z" stroke="#111111" stroke-width="0.75" stroke-linecap="round" stroke-linejoin="round"/>
<path d="M67.3728 26.6369C67.3728 26.865 67.3188 27.088 67.2178 27.2777C67.1167 27.4674 66.9731 27.6152 66.8051 27.7025C66.637 27.7898 66.4521 27.8127 66.2737 27.7682C66.0953 27.7237 65.9314 27.6138 65.8028 27.4525C65.6742 27.2912 65.5866 27.0856 65.5511 26.8619C65.5156 26.6381 65.5338 26.4062 65.6035 26.1954C65.6731 25.9847 65.7909 25.8045 65.9422 25.6778C66.0934 25.551 66.2712 25.4834 66.4531 25.4834C66.697 25.4834 66.9309 25.6049 67.1034 25.8212C67.2759 26.0375 67.3728 26.3309 67.3728 26.6369Z" stroke="#00B77B" stroke-miterlimit="10"/>
<path d="M83.912 46.6069C83.912 46.8352 83.858 47.0584 83.7568 47.2482C83.6556 47.4379 83.5118 47.5858 83.3436 47.673C83.1753 47.7602 82.9903 47.7828 82.8118 47.738C82.6333 47.6932 82.4695 47.5829 82.341 47.4213C82.2125 47.2596 82.1251 47.0537 82.0899 46.8297C82.0548 46.6057 82.0734 46.3737 82.1435 46.1629C82.2136 45.9522 82.3319 45.7724 82.4835 45.6461C82.6352 45.5198 82.8133 45.4527 82.9953 45.4535C83.1159 45.4535 83.2354 45.4833 83.3468 45.5413C83.4582 45.5994 83.5594 45.6844 83.6445 45.7915C83.7297 45.8987 83.7972 46.0259 83.843 46.1658C83.8889 46.3057 83.9124 46.4556 83.912 46.6069Z" stroke="#00B77B" stroke-miterlimit="10"/>
<path d="M27.1833 12.8584C27.1839 13.181 27.1081 13.4966 26.9656 13.7652C26.823 14.0338 26.6201 14.2432 26.3826 14.3671C26.145 14.4909 25.8835 14.5235 25.6312 14.4607C25.3788 14.3979 25.147 14.2426 24.9651 14.0145C24.7832 13.7863 24.6594 13.4956 24.6094 13.1791C24.5593 12.8626 24.5853 12.5346 24.684 12.2367C24.7827 11.9387 24.9497 11.6842 25.1639 11.5054C25.378 11.3266 25.6296 11.2316 25.8869 11.2323C26.2305 11.2333 26.5598 11.4049 26.8027 11.7097C27.0457 12.0144 27.1825 12.4274 27.1833 12.8584Z" stroke="#00B77B" stroke-miterlimit="10"/>
<path d="M6.67777 41.6023C6.67836 41.8306 6.62492 42.054 6.52422 42.2442C6.42352 42.4344 6.2801 42.5828 6.1121 42.6707C5.94411 42.7585 5.7591 42.7819 5.58051 42.7378C5.40192 42.6937 5.23777 42.5842 5.10886 42.423C4.97994 42.2618 4.89206 42.0563 4.85633 41.8325C4.8206 41.6086 4.83864 41.3765 4.90816 41.1655C4.97768 40.9545 5.09555 40.7741 5.24686 40.6472C5.39816 40.5203 5.57608 40.4526 5.7581 40.4526C6.0015 40.4526 6.23497 40.5736 6.40736 40.7891C6.57974 41.0046 6.67698 41.2971 6.67777 41.6023Z" stroke="#00B77B" stroke-miterlimit="10"/>
<path d="M72.5555 22.5439H77.5514" stroke="#111111" stroke-width="0.75" stroke-linecap="round" stroke-linejoin="round"/>
<path d="M80.0167 25.048H86.1459" stroke="#111111" stroke-width="0.75" stroke-linecap="round" stroke-linejoin="round"/>
<path d="M76.9432 25.048H78.4503" stroke="#111111" stroke-width="0.75" stroke-linecap="round" stroke-linejoin="round"/>
<path d="M7.55884 12.3002H12.5547" stroke="#111111" stroke-width="0.75" stroke-linecap="round" stroke-linejoin="round"/>
<path d="M4.45868 14.8044H10.0568" stroke="#111111" stroke-width="0.75" stroke-linecap="round" stroke-linejoin="round"/>
<path d="M0.854187 14.8044H2.65199" stroke="#111111" stroke-width="0.75" stroke-linecap="round" stroke-linejoin="round"/>
<path d="M35.8994 58.6404H40.3138" stroke="#111111" stroke-width="0.75" stroke-linecap="round" stroke-linejoin="round"/>
<path d="M43.3131 58.6404H45.5233" stroke="#111111" stroke-width="0.75" stroke-linecap="round" stroke-linejoin="round"/>
<path d="M41.3017 58.6404H42.2866" stroke="#111111" stroke-width="0.75" stroke-linecap="round" stroke-linejoin="round"/>
<path d="M43.5712 61.6915H43.9688" stroke="#111111" stroke-width="0.75" stroke-linecap="round" stroke-linejoin="round"/>
<path d="M38.6584 61.6915H42.7228" stroke="#111111" stroke-width="0.75" stroke-linecap="round" stroke-linejoin="round"/>
<path d="M68.2242 64.4078H85.2974" stroke="#111111" stroke-width="0.75" stroke-linecap="round" stroke-linejoin="round"/>
<path d="M64.6939 64.4078H66.4531" stroke="#111111" stroke-width="0.75" stroke-linecap="round" stroke-linejoin="round"/>
<path d="M1.85394 64.4078H62.1603" stroke="#111111" stroke-width="0.75" stroke-linecap="round" stroke-linejoin="round"/>
<path d="M49.7804 35.9838H46.8138V29.6136C46.8138 27.708 46.2102 25.8804 45.1359 24.533C44.0616 23.1855 42.6045 22.4285 41.0851 22.4285C39.5658 22.4285 38.1087 23.1855 37.0344 24.533C35.96 25.8804 35.3565 27.708 35.3565 29.6136V35.9838H32.3898V29.6136C32.4319 26.7604 33.3651 24.042 34.9887 22.0429C36.6123 20.0438 38.7966 18.9238 41.0718 18.9238C43.347 18.9238 45.5313 20.0438 47.1549 22.0429C48.7785 24.042 49.7117 26.7604 49.7537 29.6136L49.7804 35.9838Z" fill="white" stroke="#111111" stroke-width="0.75" stroke-linecap="round" stroke-linejoin="round"/>
<path d="M49.7804 29.6136V35.9838H46.8138V34.2796C48.0004 33.688 48.4692 32.501 48.4692 30.8712V29.6136C48.4665 26.8674 47.6376 24.2237 46.1482 22.2108C44.6588 20.1978 42.6186 18.9641 40.4354 18.756H40.5808H40.6075H40.7113H41.0851C43.3851 18.754 45.5918 19.8957 47.2218 21.931C48.8517 23.9662 49.7718 26.7289 49.7804 29.6136Z" fill="#D6D6D6"/>
<path d="M49.7804 35.9838H46.8138V29.6136C46.8138 27.708 46.2102 25.8804 45.1359 24.533C44.0616 23.1855 42.6045 22.4285 41.0851 22.4285C39.5658 22.4285 38.1087 23.1855 37.0344 24.533C35.96 25.8804 35.3565 27.708 35.3565 29.6136V35.9838H32.3898V29.6136C32.4319 26.7604 33.3651 24.042 34.9887 22.0429C36.6123 20.0438 38.7966 18.9238 41.0718 18.9238C43.347 18.9238 45.5313 20.0438 47.1549 22.0429C48.7785 24.042 49.7117 26.7604 49.7537 29.6136L49.7804 35.9838Z" stroke="#111111" stroke-width="0.75" stroke-linecap="round" stroke-linejoin="round"/>
<path d="M47.9916 34.6517H34.2055C32.2066 34.6517 30.5861 36.6841 30.5861 39.1912V51.6674C30.5861 54.1745 32.2066 56.2069 34.2055 56.2069H47.9916C49.9905 56.2069 51.6109 54.1745 51.6109 51.6674V39.1912C51.6109 36.6841 49.9905 34.6517 47.9916 34.6517Z" fill="#FCCD06" stroke="#111111" stroke-width="0.75" stroke-linecap="round" stroke-linejoin="round"/>
<path d="M43.2211 48.8134C43.2435 48.9884 43.2353 49.1673 43.1971 49.3379C43.1589 49.5085 43.0916 49.6666 43 49.8014C42.9083 49.9362 42.7944 50.0444 42.6661 50.1186C42.5378 50.1928 42.3982 50.2312 42.257 50.2311H39.94C39.7988 50.2312 39.6592 50.1928 39.5309 50.1186C39.4026 50.0444 39.2887 49.9362 39.197 49.8014C39.1054 49.6666 39.0381 49.5085 38.9999 49.3379C38.9617 49.1673 38.9535 48.9884 38.9758 48.8134L39.3051 46.2088C38.9293 45.7594 38.6695 45.179 38.5591 44.5426C38.4487 43.9062 38.4929 43.243 38.6858 42.6383C38.8788 42.0337 39.2118 41.5154 39.6418 41.1504C40.0719 40.7853 40.5792 40.5902 41.0985 40.5902C41.6178 40.5902 42.1251 40.7853 42.5552 41.1504C42.9852 41.5154 43.3182 42.0337 43.5111 42.6383C43.7041 43.243 43.7483 43.9062 43.6379 44.5426C43.5275 45.179 43.2677 45.7594 42.8918 46.2088L43.2211 48.8134Z" fill="#EF9F20" stroke="#111111" stroke-width="0.75" stroke-linecap="round" stroke-linejoin="round"/>
<path d="M51.6109 39.1912V51.6674C51.6109 52.8713 51.2296 54.026 50.5508 54.8773C49.8721 55.7286 48.9515 56.2069 47.9916 56.2069H35.3091C41.4501 56.2069 48.0094 54.9492 48.0094 46.06V38.5028C48.0094 37.9968 47.9299 37.4957 47.7754 37.0282C47.6209 36.5607 47.3944 36.136 47.109 35.7783C46.8236 35.4207 46.4847 35.1371 46.1119 34.9438C45.739 34.7505 45.3394 34.6512 44.9359 34.6517H47.9916C48.4669 34.6517 48.9375 34.7691 49.3766 34.9972C49.8158 35.2254 50.2148 35.5597 50.5508 35.9813C50.8869 36.4028 51.1535 36.9032 51.3354 37.454C51.5173 38.0048 51.6109 38.5951 51.6109 39.1912Z" fill="#EF9F20"/>
<path d="M31.5889 39.2879V46.3576C31.5889 46.3576 34.1877 38.3279 39.5811 35.9131H34.2826C33.929 35.9126 33.5788 35.9995 33.252 36.1689C32.9252 36.3383 32.6282 36.5868 32.378 36.9002C32.1278 37.2137 31.9294 37.5859 31.794 37.9956C31.6586 38.4053 31.5889 38.8444 31.5889 39.2879Z" fill="#FDF8CE"/>
<path d="M38.8542 44.0581C38.854 44.4991 38.9252 44.9355 39.0634 45.341C39.2016 45.7465 39.4039 46.1126 39.6582 46.4172L39.3289 49.0218C39.2994 49.2524 39.3231 49.4888 39.3972 49.7031C39.4713 49.9174 39.5928 50.1006 39.7472 50.2311C39.4994 50.1696 39.2803 49.9896 39.1364 49.7292C38.9924 49.4688 38.9349 49.1484 38.9759 48.8358L39.3052 46.2311C38.8555 45.691 38.5755 44.9664 38.5158 44.1892C38.4562 43.4119 38.6211 42.6336 38.9804 41.9959C39.3397 41.3582 39.8696 40.9035 40.4737 40.7145C41.0777 40.5255 41.7158 40.6148 42.2718 40.9661C41.8814 40.8026 41.4655 40.758 41.0586 40.8359C40.6516 40.9137 40.2653 41.1119 39.9314 41.4139C39.5976 41.716 39.3258 42.1133 39.1385 42.573C38.9512 43.0328 38.8538 43.5418 38.8542 44.0581Z" fill="#D18311"/>
<path d="M47.9916 34.6517H34.2055C32.2066 34.6517 30.5861 36.6841 30.5861 39.1912V51.6674C30.5861 54.1745 32.2066 56.2069 34.2055 56.2069H47.9916C49.9905 56.2069 51.6109 54.1745 51.6109 51.6674V39.1912C51.6109 36.6841 49.9905 34.6517 47.9916 34.6517Z" stroke="#111111" stroke-width="0.75" stroke-linecap="round" stroke-linejoin="round"/>
<path d="M43.2211 48.8134C43.2435 48.9884 43.2353 49.1673 43.1971 49.3379C43.1589 49.5085 43.0916 49.6666 43 49.8014C42.9083 49.9362 42.7944 50.0444 42.6661 50.1186C42.5378 50.1928 42.3982 50.2312 42.257 50.2311H39.94C39.7988 50.2312 39.6592 50.1928 39.5309 50.1186C39.4026 50.0444 39.2887 49.9362 39.197 49.8014C39.1054 49.6666 39.0381 49.5085 38.9999 49.3379C38.9617 49.1673 38.9535 48.9884 38.9758 48.8134L39.3051 46.2088C38.9293 45.7594 38.6695 45.179 38.5591 44.5426C38.4487 43.9062 38.4929 43.243 38.6858 42.6383C38.8788 42.0337 39.2118 41.5154 39.6418 41.1504C40.0719 40.7853 40.5792 40.5902 41.0985 40.5902C41.6178 40.5902 42.1251 40.7853 42.5552 41.1504C42.9852 41.5154 43.3182 42.0337 43.5111 42.6383C43.7041 43.243 43.7483 43.9062 43.6379 44.5426C43.5275 45.179 43.2677 45.7594 42.8918 46.2088L43.2211 48.8134Z" stroke="#111111" stroke-width="0.75" stroke-linecap="round" stroke-linejoin="round"/>
<path d="M39.3259 19.5374C39.3259 19.5374 33.3599 20.9811 32.8882 29.0964H34.0067C34.1673 27.0654 34.7407 25.1201 35.672 23.4465C36.6033 21.7729 37.8614 20.4269 39.3259 19.5374Z" fill="#EFEFEF"/>
<path d="M55.3014 18.663H29.2422C27.4841 18.663 26.059 20.4505 26.059 22.6555V52.0395C26.059 54.2445 27.4841 56.032 29.2422 56.032H55.3014C57.0594 56.032 58.4846 54.2445 58.4846 52.0395V22.6555C58.4846 20.4505 57.0594 18.663 55.3014 18.663Z" fill="#FCCD06" stroke="#111111" stroke-width="0.75" stroke-linecap="round" stroke-linejoin="round"/>
<path d="M58.4846 22.395V52.2888C58.4846 52.7774 58.4079 53.2613 58.2588 53.7127C58.1097 54.1641 57.8912 54.5743 57.6157 54.9198C57.3402 55.2654 57.0132 55.5394 56.6533 55.7264C56.2933 55.9134 55.9076 56.0097 55.518 56.0097H29.0375C28.4306 56.0116 27.8379 55.78 27.3393 55.3462C26.8406 54.9124 26.46 54.2972 26.2488 53.5836C26.5374 53.6934 26.8373 53.7486 27.1388 53.7474H53.5867C54.3723 53.7425 55.1246 53.3489 55.6801 52.6521C56.2356 51.9554 56.5494 51.0118 56.5533 50.0265V20.1327C56.5526 19.6882 56.4894 19.2473 56.3664 18.8304C56.9784 19.0595 57.515 19.5301 57.8967 20.1723C58.2783 20.8145 58.4845 21.5941 58.4846 22.395Z" fill="#F4A321"/>
<path d="M55.3014 18.663H29.2422C27.4841 18.663 26.059 20.4505 26.059 22.6555V52.0395C26.059 54.2445 27.4841 56.032 29.2422 56.032H55.3014C57.0594 56.032 58.4846 54.2445 58.4846 52.0395V22.6555C58.4846 20.4505 57.0594 18.663 55.3014 18.663Z" stroke="#111111" stroke-width="0.75" stroke-linecap="round" stroke-linejoin="round"/>
<path d="M55.3014 18.663H29.2422C27.4841 18.663 26.059 20.4505 26.059 22.6555V24.5829C26.059 26.7879 27.4841 28.5755 29.2422 28.5755H55.3014C57.0594 28.5755 58.4846 26.7879 58.4846 24.5829V22.6555C58.4846 20.4505 57.0594 18.663 55.3014 18.663Z" fill="white" stroke="#231F20" stroke-miterlimit="10"/>
<path d="M58.4846 22.395V24.8359C58.4846 25.3246 58.4079 25.8084 58.2588 26.2599C58.1097 26.7113 57.8912 27.1215 57.6157 27.467C57.3403 27.8125 57.0132 28.0866 56.6533 28.2736C56.2933 28.4606 55.9076 28.5568 55.518 28.5568H29.0375C28.4423 28.5591 27.8604 28.3367 27.3673 27.9186C26.8742 27.5006 26.4928 26.9062 26.2726 26.2127C26.7977 26.7342 27.4481 27.0174 28.1178 27.0164H54.5835C54.9731 27.0164 55.3588 26.9201 55.7188 26.7332C56.0787 26.5462 56.4057 26.2721 56.6812 25.9266C56.9567 25.581 57.1752 25.1709 57.3243 24.7194C57.4734 24.268 57.5501 23.7841 57.5501 23.2955V20.8583C57.5503 20.3804 57.4778 19.9068 57.3365 19.463C57.6931 19.81 57.9819 20.2544 58.1809 20.7625C58.3798 21.2706 58.4837 21.829 58.4846 22.395Z" fill="#D6D6D6"/>
<path d="M55.3014 18.663H29.2422C27.4841 18.663 26.059 20.4505 26.059 22.6555V24.5829C26.059 26.7879 27.4841 28.5755 29.2422 28.5755H55.3014C57.0594 28.5755 58.4846 26.7879 58.4846 24.5829V22.6555C58.4846 20.4505 57.0594 18.663 55.3014 18.663Z" stroke="#231F20" stroke-miterlimit="10"/>
<path d="M33.7545 24.8136C34.5721 24.8136 35.2349 23.9823 35.2349 22.9569C35.2349 21.9314 34.5721 21.1002 33.7545 21.1002C32.937 21.1002 32.2742 21.9314 32.2742 22.9569C32.2742 23.9823 32.937 24.8136 33.7545 24.8136Z" fill="#017249" stroke="black" stroke-width="0.75" stroke-miterlimit="10"/>
<path d="M42.2718 24.8136C43.0894 24.8136 43.7522 23.9823 43.7522 22.9569C43.7522 21.9314 43.0894 21.1002 42.2718 21.1002C41.4542 21.1002 40.7914 21.9314 40.7914 22.9569C40.7914 23.9823 41.4542 24.8136 42.2718 24.8136Z" fill="#017249" stroke="black" stroke-width="0.75" stroke-miterlimit="10"/>
<path d="M50.7861 24.8136C51.6037 24.8136 52.2665 23.9823 52.2665 22.9569C52.2665 21.9314 51.6037 21.1002 50.7861 21.1002C49.9686 21.1002 49.3058 21.9314 49.3058 22.9569C49.3058 23.9823 49.9686 24.8136 50.7861 24.8136Z" fill="#017249" stroke="black" stroke-width="0.75" stroke-miterlimit="10"/>
<path d="M33.8228 16.0099H33.6863C33.4045 16.0099 33.176 16.2965 33.176 16.6499V22.3206C33.176 22.6741 33.4045 22.9606 33.6863 22.9606H33.8228C34.1046 22.9606 34.333 22.6741 34.333 22.3206V16.6499C34.333 16.2965 34.1046 16.0099 33.8228 16.0099Z" fill="#FCCD06" stroke="#111111" stroke-width="0.75" stroke-linecap="round" stroke-linejoin="round"/>
<path d="M42.34 16.0099H42.2036C41.9218 16.0099 41.6933 16.2965 41.6933 16.6499V22.3206C41.6933 22.6741 41.9218 22.9606 42.2036 22.9606H42.34C42.6218 22.9606 42.8503 22.6741 42.8503 22.3206V16.6499C42.8503 16.2965 42.6218 16.0099 42.34 16.0099Z" fill="#FCCD06" stroke="#111111" stroke-width="0.75" stroke-linecap="round" stroke-linejoin="round"/>
<path d="M50.8544 16.0099H50.7179C50.4361 16.0099 50.2076 16.2965 50.2076 16.6499V22.3206C50.2076 22.6741 50.4361 22.9606 50.7179 22.9606H50.8544C51.1362 22.9606 51.3646 22.6741 51.3646 22.3206V16.6499C51.3646 16.2965 51.1362 16.0099 50.8544 16.0099Z" fill="#FCCD06" stroke="#111111" stroke-width="0.75" stroke-linecap="round" stroke-linejoin="round"/>
<path d="M33.2443 32.207H30.7493C30.2479 32.207 29.8415 32.7168 29.8415 33.3456V36.4749C29.8415 37.1038 30.2479 37.6135 30.7493 37.6135H33.2443C33.7456 37.6135 34.1521 37.1038 34.1521 36.4749V33.3456C34.1521 32.7168 33.7456 32.207 33.2443 32.207Z" fill="#00B77B" stroke="black" stroke-width="0.75" stroke-miterlimit="10"/>
<path d="M40.0943 32.207H37.5993C37.098 32.207 36.6915 32.7168 36.6915 33.3456V36.4749C36.6915 37.1038 37.098 37.6135 37.5993 37.6135H40.0943C40.5957 37.6135 41.0021 37.1038 41.0021 36.4749V33.3456C41.0021 32.7168 40.5957 32.207 40.0943 32.207Z" fill="#00B77B" stroke="black" stroke-width="0.75" stroke-miterlimit="10"/>
<path d="M46.9443 32.207H44.4494C43.948 32.207 43.5416 32.7168 43.5416 33.3456V36.4749C43.5416 37.1038 43.948 37.6135 44.4494 37.6135H46.9443C47.4457 37.6135 47.8521 37.1038 47.8521 36.4749V33.3456C47.8521 32.7168 47.4457 32.207 46.9443 32.207Z" fill="#00B77B" stroke="black" stroke-width="0.75" stroke-miterlimit="10"/>
<path d="M53.7914 32.207H51.2964C50.795 32.207 50.3886 32.7168 50.3886 33.3456V36.4749C50.3886 37.1038 50.795 37.6135 51.2964 37.6135H53.7914C54.2927 37.6135 54.6992 37.1038 54.6992 36.4749V33.3456C54.6992 32.7168 54.2927 32.207 53.7914 32.207Z" fill="#00B77B" stroke="black" stroke-width="0.75" stroke-miterlimit="10"/>
<path d="M33.2443 39.6005H30.7493C30.2479 39.6005 29.8415 40.1103 29.8415 40.7391V43.8684C29.8415 44.4972 30.2479 45.007 30.7493 45.007H33.2443C33.7456 45.007 34.1521 44.4972 34.1521 43.8684V40.7391C34.1521 40.1103 33.7456 39.6005 33.2443 39.6005Z" fill="#00B77B" stroke="black" stroke-width="0.75" stroke-miterlimit="10"/>
<path d="M40.0943 39.6005H37.5993C37.098 39.6005 36.6915 40.1103 36.6915 40.7391V43.8684C36.6915 44.4972 37.098 45.007 37.5993 45.007H40.0943C40.5957 45.007 41.0021 44.4972 41.0021 43.8684V40.7391C41.0021 40.1103 40.5957 39.6005 40.0943 39.6005Z" fill="#00B77B" stroke="black" stroke-width="0.75" stroke-miterlimit="10"/>
<path d="M46.9443 39.6005H44.4494C43.948 39.6005 43.5416 40.1103 43.5416 40.7391V43.8684C43.5416 44.4972 43.948 45.007 44.4494 45.007H46.9443C47.4457 45.007 47.8521 44.4972 47.8521 43.8684V40.7391C47.8521 40.1103 47.4457 39.6005 46.9443 39.6005Z" fill="#00B77B" stroke="black" stroke-width="0.75" stroke-miterlimit="10"/>
<path d="M53.7914 39.6005H51.2964C50.795 39.6005 50.3886 40.1103 50.3886 40.7391V43.8684C50.3886 44.4972 50.795 45.007 51.2964 45.007H53.7914C54.2927 45.007 54.6992 44.4972 54.6992 43.8684V40.7391C54.6992 40.1103 54.2927 39.6005 53.7914 39.6005Z" fill="#00B77B" stroke="black" stroke-width="0.75" stroke-miterlimit="10"/>
<path d="M33.2443 46.9902H30.7493C30.2479 46.9902 29.8415 47.5 29.8415 48.1288V51.2581C29.8415 51.8869 30.2479 52.3967 30.7493 52.3967H33.2443C33.7456 52.3967 34.1521 51.8869 34.1521 51.2581V48.1288C34.1521 47.5 33.7456 46.9902 33.2443 46.9902Z" fill="#00B77B" stroke="black" stroke-width="0.75" stroke-miterlimit="10"/>
<path d="M40.0943 46.9902H37.5993C37.098 46.9902 36.6915 47.5 36.6915 48.1288V51.2581C36.6915 51.8869 37.098 52.3967 37.5993 52.3967H40.0943C40.5957 52.3967 41.0021 51.8869 41.0021 51.2581V48.1288C41.0021 47.5 40.5957 46.9902 40.0943 46.9902Z" fill="#00B77B" stroke="black" stroke-width="0.75" stroke-miterlimit="10"/>
<path d="M46.9443 46.9902H44.4494C43.948 46.9902 43.5416 47.5 43.5416 48.1288V51.2581C43.5416 51.8869 43.948 52.3967 44.4494 52.3967H46.9443C47.4457 52.3967 47.8521 51.8869 47.8521 51.2581V48.1288C47.8521 47.5 47.4457 46.9902 46.9443 46.9902Z" fill="#00B77B" stroke="black" stroke-width="0.75" stroke-miterlimit="10"/>
<path d="M53.7914 46.9902H51.2964C50.795 46.9902 50.3886 47.5 50.3886 48.1288V51.2581C50.3886 51.8869 50.795 52.3967 51.2964 52.3967H53.7914C54.2927 52.3967 54.6992 51.8869 54.6992 51.2581V48.1288C54.6992 47.5 54.2927 46.9902 53.7914 46.9902Z" fill="#00B77B" stroke="black" stroke-width="0.75" stroke-miterlimit="10"/>
<path d="M34.1521 33.275V36.5345C34.1524 36.6742 34.1309 36.8127 34.0886 36.942C34.0463 37.0713 33.9842 37.1889 33.9056 37.288C33.8271 37.3872 33.7338 37.466 33.631 37.5199C33.5282 37.5739 33.418 37.6019 33.3066 37.6024H30.69C30.5024 37.6024 30.3201 37.5241 30.1719 37.38C30.0237 37.2358 29.9179 37.0339 29.8712 36.8061C29.941 36.8347 30.0142 36.8486 30.0877 36.847H32.7043C32.9288 36.846 33.1439 36.7335 33.3024 36.534C33.4608 36.3346 33.5498 36.0644 33.5498 35.7828V32.5159C33.5504 32.424 33.5404 32.3325 33.5202 32.2443C33.7015 32.3043 33.8619 32.438 33.9762 32.6245C34.0905 32.811 34.1524 33.0397 34.1521 33.275Z" fill="#009E65"/>
<path d="M41.0021 33.275V36.5345C41.0025 36.6745 40.9808 36.8133 40.9384 36.9429C40.8959 37.0724 40.8335 37.1901 40.7546 37.2894C40.6758 37.3886 40.5821 37.4673 40.479 37.521C40.3759 37.5747 40.2653 37.6024 40.1536 37.6024H37.537C37.35 37.6015 37.1684 37.5229 37.0208 37.3788C36.8732 37.2347 36.7678 37.0333 36.7212 36.8061C36.7911 36.8347 36.8643 36.8486 36.9378 36.847H39.5544C39.7789 36.846 39.9939 36.7335 40.1524 36.534C40.3109 36.3346 40.3999 36.0644 40.3999 35.7828V32.5159C40.4004 32.424 40.3904 32.3325 40.3702 32.2443C40.5515 32.3043 40.7119 32.438 40.8262 32.6245C40.9406 32.811 41.0024 33.0397 41.0021 33.275Z" fill="#009E65"/>
<path d="M47.8522 33.275V36.5345C47.8525 36.6745 47.8309 36.8133 47.7884 36.9429C47.746 37.0724 47.6835 37.1901 47.6047 37.2894C47.5259 37.3886 47.4322 37.4673 47.3291 37.521C47.2259 37.5747 47.1154 37.6024 47.0037 37.6024H44.3901C44.2027 37.6028 44.0207 37.5247 43.8728 37.3804C43.725 37.2361 43.6199 37.0339 43.5742 36.8061C43.6431 36.8345 43.7153 36.8483 43.7878 36.847H46.4044C46.6292 36.846 46.8446 36.7336 47.0035 36.5342C47.1625 36.3349 47.2521 36.0648 47.2529 35.7828V32.5159C47.2549 32.4239 47.2449 32.3322 47.2232 32.2443C47.404 32.305 47.5637 32.439 47.6775 32.6254C47.7912 32.8118 47.8526 33.0402 47.8522 33.275Z" fill="#009E65"/>
<path d="M54.7021 33.275V36.5345C54.7021 36.817 54.6128 37.0881 54.4538 37.2883C54.2948 37.4884 54.079 37.6014 53.8537 37.6024H51.2371C51.0496 37.6017 50.8676 37.5232 50.7195 37.3792C50.5714 37.2351 50.4655 37.0336 50.4183 36.8061C50.4882 36.8345 50.5614 36.8483 50.6348 36.847H53.2514C53.4762 36.846 53.6916 36.7336 53.8505 36.5342C54.0095 36.3349 54.0991 36.0648 54.0999 35.7828V32.5159C54.1009 32.4237 54.0899 32.332 54.0673 32.2443C54.2492 32.3036 54.4102 32.437 54.5251 32.6236C54.64 32.8101 54.7023 33.0392 54.7021 33.275Z" fill="#009E65"/>
<path d="M34.1521 40.6647V43.9428C34.1521 44.2244 34.0631 44.4945 33.9046 44.694C33.7461 44.8934 33.5311 45.006 33.3066 45.007H30.69C30.5029 45.0065 30.3212 44.9286 30.1731 44.7853C30.0251 44.6419 29.9189 44.4412 29.8712 44.2144C29.9415 44.2401 30.0145 44.2526 30.0877 44.2516H32.7043C32.8157 44.2521 32.9261 44.2249 33.029 44.1715C33.132 44.1182 33.2255 44.0398 33.3041 43.9408C33.3827 43.8418 33.4449 43.7243 33.4871 43.595C33.5293 43.4657 33.5506 43.3272 33.5498 43.1874V39.9093C33.5508 39.8174 33.5408 39.7259 33.5202 39.6377C33.7013 39.697 33.8616 39.83 33.9759 40.0159C34.0903 40.2017 34.1522 40.4299 34.1521 40.6647Z" fill="#009E65"/>
<path d="M41.0021 40.6647V43.9428C41.0021 44.225 40.9127 44.4957 40.7536 44.6953C40.5945 44.8948 40.3787 45.007 40.1536 45.007H37.537C37.3504 45.0063 37.1691 44.9283 37.0215 44.7849C36.874 44.6415 36.7683 44.4409 36.7212 44.2144C36.7915 44.2401 36.8645 44.2526 36.9378 44.2516H39.5544C39.6656 44.2516 39.7758 44.2241 39.8786 44.1705C39.9814 44.117 40.0747 44.0386 40.1533 43.9397C40.2318 43.8408 40.294 43.7235 40.3364 43.5944C40.3787 43.4653 40.4002 43.327 40.3999 43.1874V39.9093C40.4008 39.8174 40.3908 39.7259 40.3702 39.6377C40.5515 39.6964 40.7121 39.8293 40.8266 40.0153C40.941 40.2012 41.0028 40.4297 41.0021 40.6647Z" fill="#009E65"/>
<path d="M47.8522 40.6647V43.9428C47.8522 44.0825 47.8302 44.2209 47.7876 44.35C47.7449 44.4791 47.6824 44.5965 47.6036 44.6953C47.5249 44.7941 47.4313 44.8725 47.3284 44.926C47.2254 44.9794 47.1151 45.007 47.0037 45.007H44.3901C44.2033 45.007 44.0218 44.9291 43.8741 44.7857C43.7264 44.6422 43.6209 44.4413 43.5742 44.2144C43.6436 44.2398 43.7156 44.2523 43.7878 44.2516H46.4044C46.5159 44.2521 46.6265 44.2249 46.7296 44.1716C46.8327 44.1183 46.9264 44.0399 47.0053 43.941C47.0841 43.8421 47.1466 43.7246 47.1891 43.5953C47.2316 43.4659 47.2533 43.3273 47.2529 43.1874V39.9093C47.2553 39.8173 47.2453 39.7255 47.2232 39.6377C47.404 39.6971 47.5639 39.8303 47.6778 40.0162C47.7917 40.2021 47.853 40.4302 47.8522 40.6647Z" fill="#009E65"/>
<path d="M54.7021 40.6647V43.9428C54.7014 44.2247 54.6117 44.4948 54.4528 44.6942C54.2938 44.8935 54.0785 45.006 53.8537 45.007H51.2371C51.05 45.0065 50.8683 44.9286 50.7203 44.7853C50.5722 44.6419 50.466 44.4412 50.4183 44.2144C50.4887 44.2398 50.5616 44.2523 50.6348 44.2516H53.2514C53.363 44.2521 53.4735 44.2249 53.5766 44.1716C53.6797 44.1183 53.7734 44.0399 53.8523 43.941C53.9311 43.8421 53.9936 43.7246 54.0361 43.5953C54.0786 43.4659 54.1003 43.3273 54.0999 43.1874V39.9093C54.1014 39.8171 54.0903 39.7253 54.0673 39.6377C54.2492 39.6957 54.4104 39.8283 54.5254 40.0143C54.6405 40.2004 54.7026 40.4293 54.7021 40.6647Z" fill="#009E65"/>
<path d="M34.1521 48.0693V51.3511C34.1513 51.6321 34.0619 51.9012 33.9036 52.0999C33.7452 52.2985 33.5306 52.4106 33.3066 52.4116H30.69C30.5036 52.4122 30.3222 52.3356 30.1741 52.1936C30.0261 52.0516 29.9196 51.8522 29.8712 51.6265C29.9419 51.649 30.0147 51.6603 30.0877 51.6599H32.7043C32.8156 51.6599 32.9258 51.6324 33.0286 51.5789C33.1313 51.5253 33.2247 51.4469 33.3032 51.348C33.3818 51.2492 33.444 51.1318 33.4863 51.0027C33.5286 50.8736 33.5502 50.7353 33.5498 50.5958V47.3139C33.5506 47.2233 33.5406 47.133 33.5202 47.046C33.701 47.1046 33.8612 47.2369 33.9756 47.4221C34.09 47.6073 34.1521 47.835 34.1521 48.0693Z" fill="#009E65"/>
<path d="M41.0021 48.0693V51.3511C41.0013 51.6327 40.9116 51.9024 40.7525 52.1012C40.5935 52.3 40.3781 52.4116 40.1536 52.4116H37.537C37.3509 52.4105 37.1702 52.3328 37.0227 52.1902C36.8753 52.0477 36.7694 51.8483 36.7212 51.6227C36.7915 51.6484 36.8645 51.6609 36.9378 51.6599H39.5544C39.7789 51.659 39.9939 51.5464 40.1524 51.3469C40.3109 51.1475 40.3999 50.8774 40.3999 50.5958V47.3139C40.4006 47.2233 40.3906 47.133 40.3702 47.046C40.5516 47.1034 40.7124 47.2354 40.8269 47.4209C40.9415 47.6064 41.0031 47.8347 41.0021 48.0693Z" fill="#009E65"/>
<path d="M47.8522 48.0693V51.3511C47.8514 51.6327 47.7616 51.9024 47.6026 52.1012C47.4436 52.3 47.2282 52.4116 47.0037 52.4116H44.3901C44.204 52.412 44.0231 52.3352 43.8756 52.1932C43.728 52.0512 43.622 51.8519 43.5742 51.6265C43.644 51.6488 43.7158 51.66 43.7878 51.6599H46.4044C46.6294 51.6599 46.8453 51.5478 47.0044 51.3483C47.1635 51.1487 47.2529 50.878 47.2529 50.5958V47.3139C47.2551 47.2232 47.2451 47.1326 47.2232 47.046C47.404 47.1041 47.5642 47.2364 47.6781 47.4218C47.7921 47.6073 47.8534 47.8352 47.8522 48.0693Z" fill="#009E65"/>
<path d="M54.7021 48.0693V51.3511C54.7014 51.6327 54.6116 51.9024 54.4526 52.1012C54.2935 52.3 54.0782 52.4116 53.8537 52.4116H51.2371C51.0508 52.4116 50.8697 52.3347 50.7217 52.1928C50.5738 52.0509 50.4671 51.8519 50.4183 51.6265C50.4891 51.6487 50.5618 51.66 50.6348 51.6599H53.2514C53.4765 51.6599 53.6923 51.5478 53.8514 51.3483C54.0105 51.1487 54.0999 50.878 54.0999 50.5958V47.3139C54.1011 47.223 54.0901 47.1324 54.0673 47.046C54.2489 47.1033 54.4101 47.2351 54.5252 47.4206C54.6402 47.606 54.7025 47.8343 54.7021 48.0693Z" fill="#009E65"/>
<path d="M33.2443 32.207H30.7493C30.2479 32.207 29.8415 32.7168 29.8415 33.3456V36.4749C29.8415 37.1038 30.2479 37.6135 30.7493 37.6135H33.2443C33.7456 37.6135 34.1521 37.1038 34.1521 36.4749V33.3456C34.1521 32.7168 33.7456 32.207 33.2443 32.207Z" stroke="black" stroke-width="0.75" stroke-miterlimit="10"/>
<path d="M40.0943 32.207H37.5993C37.098 32.207 36.6915 32.7168 36.6915 33.3456V36.4749C36.6915 37.1038 37.098 37.6135 37.5993 37.6135H40.0943C40.5957 37.6135 41.0021 37.1038 41.0021 36.4749V33.3456C41.0021 32.7168 40.5957 32.207 40.0943 32.207Z" stroke="black" stroke-width="0.75" stroke-miterlimit="10"/>
<path d="M46.9443 32.207H44.4494C43.948 32.207 43.5416 32.7168 43.5416 33.3456V36.4749C43.5416 37.1038 43.948 37.6135 44.4494 37.6135H46.9443C47.4457 37.6135 47.8521 37.1038 47.8521 36.4749V33.3456C47.8521 32.7168 47.4457 32.207 46.9443 32.207Z" stroke="black" stroke-width="0.75" stroke-miterlimit="10"/>
<path d="M53.7914 32.207H51.2964C50.795 32.207 50.3886 32.7168 50.3886 33.3456V36.4749C50.3886 37.1038 50.795 37.6135 51.2964 37.6135H53.7914C54.2927 37.6135 54.6992 37.1038 54.6992 36.4749V33.3456C54.6992 32.7168 54.2927 32.207 53.7914 32.207Z" stroke="black" stroke-width="0.75" stroke-miterlimit="10"/>
<path d="M33.2443 39.6005H30.7493C30.2479 39.6005 29.8415 40.1103 29.8415 40.7391V43.8684C29.8415 44.4972 30.2479 45.007 30.7493 45.007H33.2443C33.7456 45.007 34.1521 44.4972 34.1521 43.8684V40.7391C34.1521 40.1103 33.7456 39.6005 33.2443 39.6005Z" stroke="black" stroke-width="0.75" stroke-miterlimit="10"/>
<path d="M40.0943 39.6005H37.5993C37.098 39.6005 36.6915 40.1103 36.6915 40.7391V43.8684C36.6915 44.4972 37.098 45.007 37.5993 45.007H40.0943C40.5957 45.007 41.0021 44.4972 41.0021 43.8684V40.7391C41.0021 40.1103 40.5957 39.6005 40.0943 39.6005Z" stroke="black" stroke-width="0.75" stroke-miterlimit="10"/>
<path d="M46.9443 39.6005H44.4494C43.948 39.6005 43.5416 40.1103 43.5416 40.7391V43.8684C43.5416 44.4972 43.948 45.007 44.4494 45.007H46.9443C47.4457 45.007 47.8521 44.4972 47.8521 43.8684V40.7391C47.8521 40.1103 47.4457 39.6005 46.9443 39.6005Z" stroke="black" stroke-width="0.75" stroke-miterlimit="10"/>
<path d="M53.7914 39.6005H51.2964C50.795 39.6005 50.3886 40.1103 50.3886 40.7391V43.8684C50.3886 44.4972 50.795 45.007 51.2964 45.007H53.7914C54.2927 45.007 54.6992 44.4972 54.6992 43.8684V40.7391C54.6992 40.1103 54.2927 39.6005 53.7914 39.6005Z" stroke="black" stroke-width="0.75" stroke-miterlimit="10"/>
<path d="M33.2443 46.9902H30.7493C30.2479 46.9902 29.8415 47.5 29.8415 48.1288V51.2581C29.8415 51.8869 30.2479 52.3967 30.7493 52.3967H33.2443C33.7456 52.3967 34.1521 51.8869 34.1521 51.2581V48.1288C34.1521 47.5 33.7456 46.9902 33.2443 46.9902Z" stroke="black" stroke-width="0.75" stroke-miterlimit="10"/>
<path d="M40.0943 46.9902H37.5993C37.098 46.9902 36.6915 47.5 36.6915 48.1288V51.2581C36.6915 51.8869 37.098 52.3967 37.5993 52.3967H40.0943C40.5957 52.3967 41.0021 51.8869 41.0021 51.2581V48.1288C41.0021 47.5 40.5957 46.9902 40.0943 46.9902Z" stroke="black" stroke-width="0.75" stroke-miterlimit="10"/>
<path d="M46.9443 46.9902H44.4494C43.948 46.9902 43.5416 47.5 43.5416 48.1288V51.2581C43.5416 51.8869 43.948 52.3967 44.4494 52.3967H46.9443C47.4457 52.3967 47.8521 51.8869 47.8521 51.2581V48.1288C47.8521 47.5 47.4457 46.9902 46.9443 46.9902Z" stroke="black" stroke-width="0.75" stroke-miterlimit="10"/>
<path d="M53.7914 46.9902H51.2964C50.795 46.9902 50.3886 47.5 50.3886 48.1288V51.2581C50.3886 51.8869 50.795 52.3967 51.2964 52.3967H53.7914C54.2927 52.3967 54.6992 51.8869 54.6992 51.2581V48.1288C54.6992 47.5 54.2927 46.9902 53.7914 46.9902Z" stroke="black" stroke-width="0.75" stroke-miterlimit="10"/>
<path d="M42.2719 31.1392L45.4877 35.1726L65.6225 9.91884" stroke="#111111" stroke-width="0.75" stroke-linecap="round" stroke-linejoin="round"/>
<path d="M45.2148 7.3663C45.2148 8.58204 44.9273 9.77049 44.3888 10.7813C43.8503 11.7922 43.0849 12.5801 42.1893 13.0453C41.2938 13.5106 40.3084 13.6323 39.3577 13.3951C38.407 13.1579 37.5338 12.5725 36.8484 11.7128C36.1629 10.8532 35.6962 9.75789 35.5071 8.5655C35.318 7.37311 35.415 6.13717 35.786 5.01397C36.1569 3.89076 36.7851 2.93074 37.591 2.25531C38.397 1.57987 39.3445 1.21936 40.3138 1.21936C41.6136 1.21936 42.8602 1.86698 43.7793 3.01976C44.6984 4.17253 45.2148 5.73603 45.2148 7.3663Z" fill="white" stroke="#111111" stroke-width="0.75" stroke-linecap="round" stroke-linejoin="round"/>
<path d="M42.4617 7.22491C41.8541 8.24925 41.1305 9.1568 40.3138 9.91884C39.4949 9.15757 38.7693 8.24996 38.16 7.22491C37.8634 6.65561 37.626 5.87794 37.9257 5.30864C38.2253 4.73935 38.8958 4.68725 39.3615 5.00725C39.7166 5.31482 40.0301 5.69167 40.2901 6.12352C40.2892 6.11239 40.2892 6.10117 40.2901 6.09003C40.2974 6.09993 40.3034 6.11124 40.3079 6.12352C40.5666 5.69146 40.8792 5.31453 41.2335 5.00725C41.7022 4.68725 42.3816 4.74307 42.6723 5.30864C42.9631 5.87422 42.7643 6.65561 42.4617 7.22491Z" fill="#00B77B" stroke="#111111" stroke-width="0.75" stroke-linecap="round" stroke-linejoin="round"/>
</svg>
