<svg width="87" height="72" viewBox="0 0 87 72" fill="none" xmlns="http://www.w3.org/2000/svg">
<path d="M27.0409 37.9673C25.5576 40.044 24.3175 42.2987 22.2765 43.9748C18.7966 46.8406 13.504 47.5734 10.5878 51.0355C7.4639 54.7527 8.83747 60.0156 12.1868 63.1276C14.4148 65.2043 17.4141 66.5245 20.5291 67.3195C27.2753 69.0402 72.2796 67.1297 74.5224 66.1329C77.5158 64.8127 78.8567 62.2762 78.6402 59.4252C78.2871 54.7468 74.2999 50.9346 69.9211 48.3447C65.5423 45.7548 60.5583 43.9659 56.4703 41.026C54.1355 39.3468 52.1419 37.3265 49.9139 35.5376C48.0448 33.9732 45.9149 32.7501 43.6216 31.9242C37.5192 29.8713 30.2983 33.3601 27.0409 37.9673Z" fill="#E82837" stroke="#111111" stroke-width="0.75" stroke-linecap="round" stroke-linejoin="round"/>
<path d="M66.453 70.7104L72.8907 57.8262C72.9331 57.7426 72.9978 57.6724 73.0776 57.6234C73.1575 57.5744 73.2494 57.5484 73.3431 57.5484C73.4368 57.5484 73.5287 57.5744 73.6085 57.6234C73.6884 57.6724 73.7531 57.7426 73.7955 57.8262L80.5239 70.7193" stroke="#111111" stroke-width="0.75" stroke-linecap="round" stroke-linejoin="round"/>
<path d="M52.1715 70.7104L62.3145 50.4066C62.3819 50.2758 62.484 50.1662 62.6096 50.0896C62.7352 50.013 62.8795 49.9725 63.0265 49.9725C63.1736 49.9725 63.3179 50.013 63.4435 50.0896C63.5691 50.1662 63.6712 50.2758 63.7385 50.4066L74.3533 70.7104" fill="white"/>
<path d="M52.1715 70.7104L62.3145 50.4066C62.3819 50.2758 62.484 50.1662 62.6096 50.0896C62.7352 50.013 62.8795 49.9725 63.0265 49.9725C63.1736 49.9725 63.3179 50.013 63.4435 50.0896C63.5691 50.1662 63.6712 50.2758 63.7385 50.4066L74.3533 70.7104" stroke="#111111" stroke-width="0.75" stroke-linecap="round" stroke-linejoin="round"/>
<path d="M11.3413 70.7104L16.438 60.5081C16.4604 60.4537 16.4984 60.4071 16.5473 60.3744C16.5961 60.3416 16.6536 60.3241 16.7125 60.3241C16.7713 60.3241 16.8288 60.3416 16.8776 60.3744C16.9265 60.4071 16.9645 60.4537 16.9869 60.5081L22.3269 70.7164" stroke="#111111" stroke-width="0.75" stroke-linecap="round" stroke-linejoin="round"/>
<path d="M17.3429 70.7104L25.1601 55.0672C25.2114 54.9662 25.2898 54.8814 25.3864 54.8221C25.483 54.7629 25.5941 54.7315 25.7074 54.7315C25.8207 54.7315 25.9318 54.7629 26.0285 54.8221C26.1251 54.8814 26.2034 54.9662 26.2548 55.0672L34.4279 70.7223" fill="white"/>
<path d="M17.3429 70.7104L25.1601 55.0672C25.2114 54.9662 25.2898 54.8814 25.3864 54.8221C25.483 54.7629 25.5941 54.7315 25.7074 54.7315C25.8207 54.7315 25.9318 54.7629 26.0285 54.8221C26.1251 54.8814 26.2034 54.9662 26.2548 55.0672L34.4279 70.7223" stroke="#111111" stroke-width="0.75" stroke-linecap="round" stroke-linejoin="round"/>
<path d="M45.9534 22.6801L47.8283 21.5973L48.4305 23.6799L45.9534 22.6801Z" stroke="#111111" stroke-width="0.75" stroke-linecap="round" stroke-linejoin="round"/>
<path d="M40.7885 19.8647C41.0555 24.7597 41.1267 30.7138 41.0851 35.6148" stroke="#111111" stroke-width="0.75" stroke-linecap="round" stroke-linejoin="round"/>
<path d="M46.9413 23.2141C45.458 27.0203 43.4792 32.304 41.094 35.6148" stroke="#111111" stroke-width="0.75" stroke-linecap="round" stroke-linejoin="round"/>
<path d="M33.8494 22.3538C36.3562 26.4715 38.596 31.497 41.094 35.6148" stroke="#111111" stroke-width="0.75" stroke-linecap="round" stroke-linejoin="round"/>
<path d="M17.248 36.2467C16.8998 36.2484 16.5663 36.3869 16.3194 36.6323C16.2706 36.2206 16.0717 35.8413 15.7608 35.567C15.4499 35.2927 15.0487 35.1426 14.6341 35.1456C14.2195 35.1485 13.8205 35.3042 13.5135 35.5829C13.2065 35.8616 13.013 36.2437 12.97 36.6561C12.6825 36.4601 12.342 36.3566 11.994 36.3594C11.5777 36.3709 11.1779 36.5242 10.8607 36.794C10.5434 37.0637 10.3279 37.4338 10.2496 37.8427C10.2461 37.8607 10.2466 37.8793 10.2511 37.897C10.2556 37.9148 10.264 37.9313 10.2756 37.9455C10.2872 37.9596 10.3018 37.9711 10.3183 37.979C10.3348 37.9868 10.3529 37.991 10.3712 37.9911H18.6215C18.6588 37.7846 18.6519 37.5725 18.6011 37.3689C18.5504 37.1653 18.457 36.9747 18.3272 36.8098C18.1974 36.645 18.0341 36.5095 17.848 36.4124C17.662 36.3154 17.4575 36.2589 17.248 36.2467Z" stroke="#111111" stroke-width="0.75" stroke-linecap="round" stroke-linejoin="round"/>
<path d="M58.6567 30.7227C59.0045 30.7233 59.3381 30.8608 59.5853 31.1054C59.634 30.6937 59.8329 30.3144 60.1439 30.0401C60.4548 29.7658 60.8559 29.6157 61.2706 29.6187C61.6852 29.6216 62.0842 29.7773 62.3912 30.056C62.6982 30.3347 62.8917 30.7168 62.9346 31.1292C63.2218 30.9348 63.5609 30.8314 63.9077 30.8325C64.3246 30.8428 64.7254 30.9956 65.0434 31.2655C65.3613 31.5354 65.5772 31.9061 65.6551 32.3158C65.6585 32.3342 65.6579 32.3531 65.6533 32.3712C65.6486 32.3893 65.6401 32.4062 65.6282 32.4207C65.6163 32.4351 65.6014 32.4467 65.5845 32.4548C65.5676 32.4628 65.5492 32.467 65.5305 32.4671H57.2831C57.2458 32.2606 57.2528 32.0486 57.3035 31.8449C57.3543 31.6413 57.4476 31.4508 57.5774 31.2859C57.7073 31.121 57.8706 30.9856 58.0566 30.8885C58.2427 30.7914 58.4472 30.7349 58.6567 30.7227Z" stroke="#111111" stroke-width="0.75" stroke-linecap="round" stroke-linejoin="round"/>
<path d="M67.3728 40.5958C67.3728 40.7777 67.3188 40.9555 67.2178 41.1067C67.1167 41.258 66.9731 41.3759 66.8051 41.4455C66.637 41.5151 66.4521 41.5333 66.2737 41.4978C66.0953 41.4623 65.9314 41.3747 65.8028 41.2461C65.6742 41.1175 65.5866 40.9536 65.5511 40.7752C65.5156 40.5968 65.5338 40.4119 65.6035 40.2439C65.6731 40.0758 65.7909 39.9322 65.9422 39.8311C66.0934 39.7301 66.2712 39.6761 66.4531 39.6761C66.697 39.6761 66.9309 39.773 67.1034 39.9455C67.2759 40.118 67.3728 40.3519 67.3728 40.5958Z" stroke="#E82837" stroke-miterlimit="10"/>
<path d="M83.9118 56.5179C83.9118 56.6999 83.8578 56.8779 83.7566 57.0292C83.6555 57.1805 83.5116 57.2983 83.3434 57.3679C83.1752 57.4374 82.9901 57.4554 82.8117 57.4197C82.6332 57.384 82.4693 57.2961 82.3408 57.1672C82.2123 57.0382 82.125 56.8741 82.0898 56.6955C82.0547 56.5169 82.0733 56.3319 82.1434 56.1639C82.2134 55.9959 82.3318 55.8525 82.4834 55.7518C82.635 55.6511 82.8131 55.5977 82.9951 55.5982C83.1158 55.5982 83.2352 55.6221 83.3466 55.6683C83.4581 55.7146 83.5592 55.7823 83.6444 55.8678C83.7296 55.9532 83.797 56.0546 83.8429 56.1662C83.8888 56.2778 83.9122 56.3973 83.9118 56.5179Z" stroke="#E82837" stroke-miterlimit="10"/>
<path d="M27.1833 29.6102C27.1833 29.8673 27.107 30.1187 26.9641 30.3324C26.8212 30.5462 26.6181 30.7127 26.3804 30.811C26.1428 30.9093 25.8814 30.9348 25.6293 30.8844C25.3771 30.8341 25.1456 30.71 24.964 30.528C24.7824 30.346 24.6589 30.1142 24.6091 29.8619C24.5593 29.6096 24.5854 29.3483 24.6842 29.1109C24.783 28.8735 24.9501 28.6708 25.1641 28.5284C25.3782 28.3859 25.6297 28.3102 25.8868 28.3108C26.2309 28.3116 26.5607 28.4489 26.8037 28.6925C27.0468 28.9361 27.1833 29.2661 27.1833 29.6102Z" stroke="#E82837" stroke-miterlimit="10"/>
<path d="M6.67771 52.5277C6.67829 52.7097 6.62486 52.8878 6.52416 53.0395C6.42346 53.1911 6.28004 53.3094 6.11204 53.3795C5.94405 53.4496 5.75904 53.4682 5.58045 53.433C5.40186 53.3979 5.23771 53.3105 5.10879 53.182C4.97988 53.0535 4.892 52.8897 4.85627 52.7112C4.82054 52.5327 4.83858 52.3477 4.9081 52.1794C4.97762 52.0112 5.09549 51.8674 5.24679 51.7662C5.3981 51.665 5.57602 51.611 5.75804 51.611C6.00144 51.611 6.23491 51.7075 6.4073 51.8793C6.57968 52.0512 6.67692 52.2843 6.67771 52.5277Z" stroke="#E82837" stroke-miterlimit="10"/>
<path d="M72.5555 37.3325H77.5514" stroke="#111111" stroke-width="0.75" stroke-linecap="round" stroke-linejoin="round"/>
<path d="M80.0166 39.329H86.1457" stroke="#111111" stroke-width="0.75" stroke-linecap="round" stroke-linejoin="round"/>
<path d="M76.9432 39.329H78.4503" stroke="#111111" stroke-width="0.75" stroke-linecap="round" stroke-linejoin="round"/>
<path d="M7.55884 29.1652H12.5547" stroke="#111111" stroke-width="0.75" stroke-linecap="round" stroke-linejoin="round"/>
<path d="M4.45862 31.1618H10.0567" stroke="#111111" stroke-width="0.75" stroke-linecap="round" stroke-linejoin="round"/>
<path d="M0.854126 31.1618H2.65193" stroke="#111111" stroke-width="0.75" stroke-linecap="round" stroke-linejoin="round"/>
<path d="M35.8994 66.1121H40.3138" stroke="#111111" stroke-width="0.75" stroke-linecap="round" stroke-linejoin="round"/>
<path d="M43.3131 66.1121H45.5233" stroke="#111111" stroke-width="0.75" stroke-linecap="round" stroke-linejoin="round"/>
<path d="M41.3016 66.1121H42.2866" stroke="#111111" stroke-width="0.75" stroke-linecap="round" stroke-linejoin="round"/>
<path d="M43.5712 68.5448H43.9687" stroke="#111111" stroke-width="0.75" stroke-linecap="round" stroke-linejoin="round"/>
<path d="M38.6583 68.5448H42.7227" stroke="#111111" stroke-width="0.75" stroke-linecap="round" stroke-linejoin="round"/>
<path d="M68.2241 70.7104H85.2973" stroke="#111111" stroke-width="0.75" stroke-linecap="round" stroke-linejoin="round"/>
<path d="M64.6938 70.7104H66.4531" stroke="#111111" stroke-width="0.75" stroke-linecap="round" stroke-linejoin="round"/>
<path d="M1.85388 70.7104H62.1603" stroke="#111111" stroke-width="0.75" stroke-linecap="round" stroke-linejoin="round"/>
<path d="M32.7042 22.8077L33.2709 20.8942L34.9915 21.8999L32.7042 22.8077Z" stroke="#111111" stroke-width="0.75" stroke-linecap="round" stroke-linejoin="round"/>
<path d="M39.0441 19.8647L40.7291 17.7169L42.4083 19.8647H39.0441Z" stroke="#111111" stroke-width="0.75" stroke-linecap="round" stroke-linejoin="round"/>
<path d="M59.965 62.4423C59.9655 63.412 59.6785 64.3601 59.14 65.1666C58.6016 65.973 57.836 66.6017 56.9402 66.9729C56.0444 67.3441 55.0586 67.4412 54.1075 67.252C53.1565 67.0627 52.283 66.5956 51.5975 65.9097C50.912 65.2238 50.4454 64.35 50.2568 63.3989C50.0681 62.4477 50.1658 61.462 50.5376 60.5664C50.9093 59.6708 51.5384 58.9056 52.3452 58.3676C53.152 57.8297 54.1003 57.5432 55.07 57.5444C56.3682 57.5459 57.6128 58.0626 58.5306 58.9809C59.4483 59.8992 59.9642 61.1441 59.965 62.4423Z" fill="white" stroke="#111111" stroke-width="0.75" stroke-linecap="round" stroke-linejoin="round"/>
<path d="M55.3162 63.0772C54.7644 63.4421 54.6576 62.558 54.1028 62.9229C54.5419 62.6263 54.3995 62.2258 54.441 61.757C54.17 61.4794 53.8553 61.2479 53.5095 61.0717C53.017 60.873 52.3466 60.9976 52.1122 61.4782C51.8778 61.9588 52.1686 62.5521 52.5246 62.9615C53.1823 63.6612 53.9389 64.2609 54.7703 64.7415C54.6368 64.2461 54.9869 63.7299 55.3162 63.0772Z" fill="#E82837" stroke="#111111" stroke-width="0.75" stroke-linecap="round" stroke-linejoin="round"/>
<path d="M58.0367 61.4633C57.8142 60.9768 57.1467 60.8374 56.6483 61.0243C56.2616 61.2184 55.909 61.4739 55.604 61.7808V61.7541L55.5832 61.7748L55.515 61.6591C55.3607 62.1041 55.3874 62.5491 54.889 62.7004C55.518 62.4898 55.3934 63.3709 56.0223 63.1603C55.5328 63.7061 55.0641 64.1155 55.0611 64.6436L55.1738 64.7652C56.0681 64.2795 56.8866 63.6659 57.6035 62.9437C57.9447 62.5254 58.2592 61.9469 58.0367 61.4633Z" fill="#E82837" stroke="#111111" stroke-width="0.75" stroke-linecap="round" stroke-linejoin="round"/>
<path d="M41.3017 65.5929C49.9314 65.5929 56.9271 58.5972 56.9271 49.9675C56.9271 41.3378 49.9314 34.3421 41.3017 34.3421C32.672 34.3421 25.6763 41.3378 25.6763 49.9675C25.6763 58.5972 32.672 65.5929 41.3017 65.5929Z" fill="#FCCD06" stroke="#111111" stroke-width="0.75" stroke-linecap="round" stroke-linejoin="round"/>
<path d="M52.3495 38.9167C54.6961 41.2649 56.2338 44.2994 56.7398 47.5804C57.2457 50.8613 56.6936 54.2181 55.1634 57.1641C53.6332 60.1102 51.2045 62.4923 48.2293 63.9651C45.2542 65.438 41.8873 65.925 38.6168 65.3556C42.2383 64.7212 45.52 62.8302 47.8848 60.015C50.2497 57.1999 51.5461 53.6411 51.5461 49.9645C51.5461 46.288 50.2497 42.7291 47.8848 39.914C45.52 37.0989 42.2383 35.2079 38.6168 34.5735C41.0864 34.1407 43.6239 34.3095 46.0144 35.0655C48.4048 35.8216 50.5779 37.1426 52.3495 38.9167Z" fill="#EF9F20"/>
<path d="M41.3017 65.5929C49.9314 65.5929 56.9271 58.5972 56.9271 49.9675C56.9271 41.3378 49.9314 34.3421 41.3017 34.3421C32.672 34.3421 25.6763 41.3378 25.6763 49.9675C25.6763 58.5972 32.672 65.5929 41.3017 65.5929Z" stroke="#111111" stroke-width="0.75" stroke-linecap="round" stroke-linejoin="round"/>
<path d="M36.7508 38.1928C35.0627 39.4744 33.4874 40.6729 32.0783 42.2037C31.259 43.1505 30.4915 44.1408 29.7791 45.1704C29.6367 41.4947 33.1433 38.1958 36.7508 38.1987V38.1928Z" fill="#FDF8CE"/>
<path d="M50.1186 43.248L48.0212 41.1506L41.3017 47.8701L34.5822 41.1506L32.4847 43.248L39.2042 49.9675L32.4847 56.687L34.5822 58.7844L41.3017 52.0649L48.0212 58.7844L50.1186 56.687L43.3991 49.9675L50.1186 43.248Z" fill="#E82837" stroke="#111111" stroke-width="0.75" stroke-linecap="round" stroke-linejoin="round"/>
<path d="M40.3956 51.1625L33.6798 57.8807L34.5841 58.7847L41.2999 52.0665L40.3956 51.1625Z" fill="#A50E20"/>
<path d="M49.2124 55.7825L47.1146 57.8803L48.0188 58.7844L50.1165 56.6867L49.2124 55.7825Z" fill="#A50E20"/>
<path d="M49.2125 42.3413L42.4934 49.0604L43.3975 49.9645L50.1166 43.2454L49.2125 42.3413Z" fill="#A50E20"/>
<path d="M50.1186 43.248L48.0212 41.1506L41.3017 47.8701L34.5822 41.1506L32.4847 43.248L39.2042 49.9675L32.4847 56.687L34.5822 58.7844L41.3017 52.0649L48.0212 58.7844L50.1186 56.687L43.3991 49.9675L50.1186 43.248Z" stroke="#111111" stroke-width="0.75" stroke-linecap="round" stroke-linejoin="round"/>
<path d="M34.2261 7.2475C34.4092 6.96803 34.6701 6.74834 34.9767 6.6156C35.3892 6.50262 35.8212 6.47935 36.2435 6.54737C35.6974 5.94643 35.3422 5.19677 35.2229 4.39357C34.7086 5.27596 34.3682 6.24879 34.2202 7.25937L34.2261 7.2475Z" stroke="#111111" stroke-width="0.75" stroke-linecap="round" stroke-linejoin="round"/>
<path d="M38.4566 3.5184C38.5783 2.68477 39.1123 1.7384 39.9874 1.7384C39.8548 1.42476 39.7979 1.08429 39.8213 0.744568C38.8978 0.887261 38.0509 1.34159 37.4213 2.0321C37.8959 2.2724 38.2579 2.99033 38.4566 3.5184Z" stroke="#111111" stroke-width="0.75" stroke-linecap="round" stroke-linejoin="round"/>
<path d="M37.0475 7.67767C36.6227 7.86738 36.2239 8.11064 35.8608 8.40154C35.8697 8.82611 35.9094 9.24948 35.9795 9.66831C36.2266 8.95187 36.5872 8.27977 37.0475 7.67767Z" stroke="#111111" stroke-width="0.75" stroke-linecap="round" stroke-linejoin="round"/>
<path d="M40.6223 4.2927C40.5025 4.16405 40.3971 4.0228 40.3078 3.87143C40.115 4.0435 39.9251 4.21556 39.7145 4.37576C39.809 4.63693 39.8698 4.90909 39.8954 5.18566C40.1045 4.86246 40.3482 4.56303 40.6223 4.2927Z" stroke="#111111" stroke-width="0.75" stroke-linecap="round" stroke-linejoin="round"/>
<path d="M45.1909 4.67244C44.852 5.13984 44.4052 5.51845 43.8885 5.77604C44.1894 6.00093 44.4157 6.31099 44.5383 6.66604C44.887 6.3991 45.2641 6.17128 45.6626 5.98667C45.416 5.58603 45.2554 5.13848 45.1909 4.67244Z" stroke="#111111" stroke-width="0.75" stroke-linecap="round" stroke-linejoin="round"/>
<path d="M42.2095 10.3595C41.9362 10.7365 41.576 11.0418 41.1593 11.2495C41.4037 11.4295 41.5869 11.6801 41.6844 11.9675C41.9639 11.7503 42.2675 11.5662 42.5892 11.4186C42.391 11.0955 42.2617 10.735 42.2095 10.3595Z" stroke="#111111" stroke-width="0.75" stroke-linecap="round" stroke-linejoin="round"/>
<path d="M37.6378 8.98894C37.458 9.23908 37.221 9.44254 36.9465 9.58227C37.1061 9.70197 37.2268 9.86604 37.2936 10.054C37.478 9.91255 37.6769 9.79122 37.887 9.69204C37.7564 9.47733 37.6715 9.23797 37.6378 8.98894Z" stroke="#111111" stroke-width="0.75" stroke-linecap="round" stroke-linejoin="round"/>
<path d="M42.0166 3.91C42.1452 3.77659 42.3019 3.67354 42.4754 3.60836C42.6489 3.54318 42.8347 3.51752 43.0193 3.53323C43.4034 3.5992 43.7612 3.77192 44.0517 4.03163C43.942 3.6875 43.9093 3.2781 44.3306 3.17723C44.4676 3.14004 44.6119 3.14004 44.7489 3.17723C44.0547 1.99056 43.0727 1.151 41.9484 0.851364C42.3993 1.76213 42.2539 2.96956 42.0166 3.91Z" stroke="#111111" stroke-width="0.75" stroke-linecap="round" stroke-linejoin="round"/>
<path d="M46.6536 6.78767C46.6536 6.78767 47.7424 9.71577 46.2175 11.7598C46.2175 11.7598 44.8172 10.1222 43.6839 11.0478C43.6839 11.0478 44.657 9.92344 43.5771 9.06607C43.5771 9.06607 45.6538 9.38647 46.1671 8.43417C46.4705 7.93739 46.6383 7.36963 46.6536 6.78767Z" stroke="#111111" stroke-width="0.75" stroke-linecap="round" stroke-linejoin="round"/>
<path d="M37.7208 12.5578C37.7338 12.4309 37.7739 12.3083 37.8384 12.1983C37.9029 12.0882 37.9903 11.9933 38.0946 11.92C37.5606 12.0268 36.9673 12.0298 36.6113 11.6797C36.1775 11.2912 35.8523 10.7963 35.6679 10.2438C35.6679 10.2438 35.4899 13.1067 37.2699 14.682C37.2381 14.1794 37.3818 13.6813 37.6763 13.2728C37.7704 13.1341 37.8855 13.011 38.0175 12.9079C37.8395 12.8723 37.703 12.7744 37.7208 12.5578Z" stroke="#111111" stroke-width="0.75" stroke-linecap="round" stroke-linejoin="round"/>
<path d="M42.9067 7.22673L41.3047 7.37803C41.3047 7.37803 41.9158 7.6747 41.7794 8.60326L42.7791 9.12836C42.7791 9.12836 42.346 7.98323 42.9067 7.22673Z" stroke="#111111" stroke-width="0.75" stroke-linecap="round" stroke-linejoin="round"/>
<path d="M39.6106 11.4394C39.6106 11.4394 39.7234 13.0889 38.6969 13.792C38.6969 13.792 40.3582 13.3114 40.7736 14.3853C40.7617 14.3853 41.1414 13.2936 39.6106 11.4394Z" stroke="#111111" stroke-width="0.75" stroke-linecap="round" stroke-linejoin="round"/>
<path d="M42.9274 12.6498L45.8822 17.53L46.4132 16.8269L42.9274 12.6498Z" fill="#E82837"/>
<path d="M38.3617 14.8184L36.3473 18.7641L35.8964 18.2479L38.3617 14.8184Z" fill="#E82837"/>
<path d="M38.1659 5.8324L34.6207 2.4504L35.22 2.12407L38.1659 5.8324Z" fill="#E82837"/>
<path d="M47.5939 1.78587L42.1442 5.90657L47.8075 2.14187L47.5939 1.78587Z" fill="#E82837"/>
<path d="M38.6317 17.1146C38.6317 17.1146 40.7321 18.2746 42.7079 17.2214C42.7079 17.2214 41.3076 16.4531 41.1207 15.1893C41.1207 15.1893 39.9697 16.7824 38.8661 15.4177C38.8661 15.4177 39.5425 16.8328 39.2072 16.7942C38.872 16.7557 38.6317 17.1146 38.6317 17.1146Z" stroke="#111111" stroke-width="0.75" stroke-linecap="round" stroke-linejoin="round"/>
<path d="M25.1066 14.2518C25.1858 13.9887 25.3418 13.7552 25.5546 13.5813C25.8545 13.397 26.1903 13.2787 26.5395 13.2342C25.9707 12.8862 25.5191 12.3758 25.2431 11.7687C25.035 12.5824 24.9876 13.4289 25.1036 14.2607L25.1066 14.2518Z" stroke="#111111" stroke-width="0.75" stroke-linecap="round" stroke-linejoin="round"/>
<path d="M27.5986 10.3328C27.5066 9.64753 27.7143 8.78126 28.4055 8.58546C28.2303 8.36701 28.1075 8.11124 28.0466 7.83786C27.3496 8.16201 26.7843 8.7147 26.4446 9.40426C26.8629 9.47843 27.3138 9.96496 27.5986 10.3328Z" stroke="#111111" stroke-width="0.75" stroke-linecap="round" stroke-linejoin="round"/>
<path d="M27.4266 13.9462C27.1342 14.1937 26.8749 14.4779 26.6553 14.7917C26.7599 15.1285 26.8878 15.4576 27.038 15.7767C27.0692 15.1497 27.2004 14.5318 27.4266 13.9462Z" stroke="#111111" stroke-width="0.75" stroke-linecap="round" stroke-linejoin="round"/>
<path d="M29.4824 10.4545C29.3581 10.3795 29.2418 10.2921 29.1353 10.1934C29.0226 10.3714 28.9098 10.5494 28.7882 10.7244C28.9228 10.9074 29.0334 11.1068 29.1175 11.3178C29.2059 11.0171 29.3283 10.7274 29.4824 10.4545Z" stroke="#111111" stroke-width="0.75" stroke-linecap="round" stroke-linejoin="round"/>
<path d="M33.1789 9.70686C33.0174 10.1541 32.7509 10.556 32.4016 10.8787C32.6894 10.9891 32.9382 11.1821 33.1166 11.4335C33.3307 11.1422 33.5765 10.8756 33.8493 10.6384C33.5645 10.377 33.3363 10.06 33.1789 9.70686Z" stroke="#111111" stroke-width="0.75" stroke-linecap="round" stroke-linejoin="round"/>
<path d="M32.1228 14.8867C31.9922 15.2465 31.7776 15.5699 31.4968 15.8301C31.7302 15.918 31.9318 16.0741 32.0753 16.278C32.2484 16.0419 32.4474 15.826 32.6687 15.6343C32.4368 15.4257 32.2509 15.1711 32.1228 14.8867Z" stroke="#111111" stroke-width="0.75" stroke-linecap="round" stroke-linejoin="round"/>
<path d="M28.1949 14.8481C28.1088 15.0895 27.9652 15.3064 27.7766 15.48C27.9301 15.5386 28.0624 15.6419 28.1563 15.7767C28.2711 15.6223 28.4024 15.4811 28.5479 15.3554C28.3951 15.2137 28.2746 15.0407 28.1949 14.8481Z" stroke="#111111" stroke-width="0.75" stroke-linecap="round" stroke-linejoin="round"/>
<path d="M30.503 9.84334C30.5734 9.70787 30.6734 9.59003 30.7957 9.4986C30.9179 9.40717 31.0592 9.3445 31.2091 9.31527C31.5282 9.28038 31.8507 9.33481 32.1406 9.4725C31.9745 9.22627 31.8439 8.90884 32.1643 8.73381C32.2653 8.67573 32.3801 8.646 32.4966 8.64777C31.7732 7.90729 30.7875 7.48105 29.7524 7.46111C30.3072 8.04554 30.4674 9.03344 30.503 9.84334Z" stroke="#111111" stroke-width="0.75" stroke-linecap="round" stroke-linejoin="round"/>
<path d="M34.8195 11.0448C34.8195 11.0448 36.3503 13.1215 35.6116 15.0765C35.6116 15.0765 34.1282 14.1035 33.4459 15.0765C33.4459 15.0765 33.9562 13.967 32.9089 13.5368C32.9089 13.5368 34.6118 13.3203 34.8106 12.4451C34.9336 11.9868 34.9367 11.5046 34.8195 11.0448Z" stroke="#111111" stroke-width="0.75" stroke-linecap="round" stroke-linejoin="round"/>
<path d="M29.0761 17.6486C29.0554 17.5447 29.0582 17.4375 29.0844 17.3348C29.1106 17.2321 29.1594 17.1366 29.2274 17.0553C28.8269 17.26 28.3581 17.3994 27.9932 17.2066C27.5608 16.9996 27.1904 16.6824 26.9193 16.2869C26.9193 16.2869 27.4355 18.595 29.2125 19.4257C29.0719 19.0355 29.0719 18.6084 29.2125 18.2182C29.2549 18.0874 29.318 17.9642 29.3994 17.8533C29.2422 17.8711 29.1146 17.8266 29.0761 17.6486Z" stroke="#111111" stroke-width="0.75" stroke-linecap="round" stroke-linejoin="round"/>
<path d="M31.9626 12.2463L30.7433 12.7329C30.9292 12.789 31.0927 12.9024 31.2104 13.0569C31.3281 13.2114 31.3941 13.399 31.3989 13.5932L32.3067 13.7801C32.3067 13.7801 31.6867 12.9761 31.9626 12.2463Z" stroke="#111111" stroke-width="0.75" stroke-linecap="round" stroke-linejoin="round"/>
<path d="M30.316 16.3344C30.316 16.3344 30.7789 17.613 30.1292 18.4111C30.1292 18.4111 31.3336 17.6516 31.9092 18.4111C31.9003 18.3992 31.9477 17.4499 30.316 16.3344Z" stroke="#111111" stroke-width="0.75" stroke-linecap="round" stroke-linejoin="round"/>
<path d="M33.2145 16.5332L36.6647 19.7164L36.9228 19.04L33.2145 16.5332Z" fill="#FCCD06"/>
<path d="M30.0996 19.2922L29.4083 22.87L28.9366 22.5674L30.0996 19.2922Z" fill="#FCCD06"/>
<path d="M27.8894 12.2315L24.3146 10.3684L24.7151 9.97386L27.8894 12.2315Z" fill="#FCCD06"/>
<path d="M34.419 6.87666L31.0548 11.3801L34.6682 7.10806L34.419 6.87666Z" fill="#FCCD06"/>
<path d="M30.8382 21.0455C30.8382 21.0455 32.7636 21.4816 34.0837 20.197C34.0837 20.197 32.8021 19.9003 32.366 18.954C32.366 18.954 31.8202 20.4759 30.6365 19.6511C30.6365 19.6511 31.4938 20.6153 31.2298 20.6598C30.9658 20.7043 30.8382 21.0455 30.8382 21.0455Z" stroke="#111111" stroke-width="0.75" stroke-linecap="round" stroke-linejoin="round"/>
<path d="M46.0898 11.7301C46.3126 11.5696 46.5779 11.4788 46.8523 11.4691C47.2022 11.5033 47.5404 11.6137 47.8431 11.7924C47.6035 11.1691 47.5549 10.4885 47.7037 9.8374C47.0455 10.3587 46.4945 11.0024 46.0809 11.7331L46.0898 11.7301Z" stroke="#111111" stroke-width="0.75" stroke-linecap="round" stroke-linejoin="round"/>
<path d="M50.4538 10.14C50.7949 9.54667 51.4862 8.9741 52.1566 9.25C52.1481 8.9695 52.2061 8.69097 52.3257 8.43714C51.5737 8.27182 50.7877 8.36811 50.0978 8.71007C50.3855 9.00673 50.4478 9.66533 50.4538 10.14Z" stroke="#111111" stroke-width="0.75" stroke-linecap="round" stroke-linejoin="round"/>
<path d="M48.1221 12.899C47.7403 12.9187 47.3625 12.9865 46.9977 13.1007C46.876 13.4288 46.7769 13.7648 46.701 14.1064C47.1081 13.6316 47.5877 13.2241 48.1221 12.899Z" stroke="#111111" stroke-width="0.75" stroke-linecap="round" stroke-linejoin="round"/>
<path d="M51.8749 11.3682C51.8215 11.2343 51.7827 11.0951 51.7592 10.9529C51.5604 11.0241 51.3646 11.1012 51.1659 11.1635C51.1598 11.3926 51.1239 11.62 51.0591 11.8399C51.313 11.6534 51.5866 11.4952 51.8749 11.3682Z" stroke="#111111" stroke-width="0.75" stroke-linecap="round" stroke-linejoin="round"/>
<path d="M55.2658 13.0206C54.8669 13.2778 54.4121 13.4355 53.9397 13.4805C54.1052 13.7469 54.1859 14.0572 54.1711 14.3705C54.5188 14.267 54.8771 14.2033 55.2391 14.1806C55.1662 13.7964 55.1753 13.4011 55.2658 13.0206Z" stroke="#111111" stroke-width="0.75" stroke-linecap="round" stroke-linejoin="round"/>
<path d="M51.2845 16.4946C50.9627 16.7029 50.5952 16.8301 50.2135 16.8654C50.347 17.0761 50.4132 17.3223 50.4034 17.5715C50.6824 17.4883 50.9701 17.4375 51.2607 17.4202C51.2049 17.1133 51.2129 16.7982 51.2845 16.4946Z" stroke="#111111" stroke-width="0.75" stroke-linecap="round" stroke-linejoin="round"/>
<path d="M48.1873 14.0797C47.9755 14.2176 47.733 14.3012 47.4812 14.323C47.5679 14.4625 47.6112 14.6246 47.6058 14.7888C47.7902 14.7339 47.9804 14.701 48.1724 14.6909C48.1358 14.4883 48.1409 14.2803 48.1873 14.0797Z" stroke="#111111" stroke-width="0.75" stroke-linecap="round" stroke-linejoin="round"/>
<path d="M53.0586 11.5017C53.1974 11.4349 53.3495 11.4002 53.5036 11.4002C53.6577 11.4002 53.8098 11.4349 53.9486 11.5017C54.2251 11.6742 54.4465 11.9223 54.5864 12.2167C54.5864 11.92 54.7021 11.5966 55.0552 11.6441C55.1698 11.6604 55.2782 11.7065 55.3696 11.7776C55.248 10.7474 54.7258 9.80637 53.916 9.15804C53.9931 9.95607 53.5214 10.8401 53.0586 11.5017Z" stroke="#111111" stroke-width="0.75" stroke-linecap="round" stroke-linejoin="round"/>
<path d="M55.7582 15.0795C55.7582 15.0795 55.7196 17.6516 53.9426 18.7641C53.9426 18.7641 53.3493 17.0909 52.2101 17.4617C52.2101 17.4617 53.2899 16.8892 52.7204 15.9102C52.7204 15.9102 54.2037 16.7735 54.8949 16.2068C55.2769 15.9136 55.5747 15.5247 55.7582 15.0795Z" stroke="#111111" stroke-width="0.75" stroke-linecap="round" stroke-linejoin="round"/>
<path d="M47.1876 16.8417C47.2348 16.7483 47.3016 16.6663 47.3836 16.6012C47.4655 16.5362 47.5606 16.4897 47.6622 16.4649C47.2202 16.3878 46.7722 16.2128 46.5913 15.839C46.3733 15.412 46.271 14.9353 46.2946 14.4565C46.2946 14.4565 45.3067 16.6014 46.2145 18.3428C46.3384 17.9472 46.5965 17.6073 46.9443 17.3816C47.0579 17.3034 47.183 17.2434 47.3151 17.2036C47.2817 17.1897 47.2516 17.169 47.2267 17.1427C47.2018 17.1164 47.1828 17.0852 47.1707 17.0511C47.1587 17.0169 47.154 16.9807 47.1569 16.9446C47.1598 16.9085 47.1702 16.8735 47.1876 16.8417Z" stroke="#111111" stroke-width="0.75" stroke-linecap="round" stroke-linejoin="round"/>
<path d="M52.7589 14.2933L51.4833 13.9314C51.5985 14.0879 51.6606 14.277 51.6606 14.4713C51.6606 14.6656 51.5985 14.8548 51.4833 15.0113L52.1033 15.7203C52.1033 15.7203 52.1033 14.7116 52.7589 14.2933Z" stroke="#111111" stroke-width="0.75" stroke-linecap="round" stroke-linejoin="round"/>
<path d="M48.9705 16.548C48.9705 16.548 48.5641 17.8474 47.5673 18.0788C47.5673 18.0788 48.9853 18.2064 48.9735 19.1527C48.9735 19.1527 49.5905 18.4259 48.9705 16.548Z" stroke="#111111" stroke-width="0.75" stroke-linecap="round" stroke-linejoin="round"/>
<path d="M51.151 18.4645L51.9639 23.0925L52.5809 22.7098L51.151 18.4645Z" fill="#E82837"/>
<path d="M47.0036 18.77L44.2832 21.1938L44.0903 20.6657L47.0036 18.77Z" fill="#E82837"/>
<path d="M49.5312 11.8162L47.8195 8.1642L48.3772 8.093L49.5312 11.8162Z" fill="#E82837"/>
<path d="M57.9713 11.5254L52.5631 13.0592L58.0277 11.8607L57.9713 11.5254Z" fill="#E82837"/>
<path d="M46.526 20.6094C46.526 20.6094 47.7928 22.1253 49.6202 21.9088C49.6202 21.9088 48.7747 20.9001 49.0091 19.8766C49.0091 19.8766 47.6504 20.7666 47.2113 19.3782C47.2113 19.3782 47.3092 20.6657 47.063 20.5382C46.9742 20.5066 46.8793 20.4965 46.7859 20.5089C46.6925 20.5213 46.6034 20.5557 46.526 20.6094Z" stroke="#111111" stroke-width="0.75" stroke-linecap="round" stroke-linejoin="round"/>
</svg>
