<?xml version="1.0" encoding="utf-8"?>
<!-- Generator: Adobe Illustrator 16.0.0, SVG Export Plug-In . SVG Version: 6.00 Build 0)  -->
<!DOCTYPE svg PUBLIC "-//W3C//DTD SVG 1.1//EN" "http://www.w3.org/Graphics/SVG/1.1/DTD/svg11.dtd">
<svg version="1.1" id="Layer_1" xmlns="http://www.w3.org/2000/svg" xmlns:xlink="http://www.w3.org/1999/xlink" x="0px" y="0px"
	 width="15px" height="15.2px" viewBox="0 23.8 15 15.2" enable-background="new 0 23.8 15 15.2" xml:space="preserve">
<g>
	<path fill="#FF7B7B" d="M7.5,39c4.143,0,7.5-3.349,7.5-7.479c0-4.13-3.357-7.479-7.5-7.479c-4.142,0-7.5,3.35-7.5,7.479
		C0,35.651,3.358,39,7.5,39z"/>
	<path fill="#F7F7F7" d="M4.972,35v-5.939h2.115c1.404,0,2.024,0.629,2.024,1.638c0,0.603-0.359,1.151-0.998,1.278v0.008
		c0.701,0.136,1.152,0.703,1.152,1.351C9.266,34.343,8.482,35,7.078,35H4.972z M5.692,31.67h1.404c0.846,0,1.259-0.314,1.259-0.972
		c0-0.648-0.414-0.964-1.259-0.964H5.692V31.67z M5.692,34.325h1.557c0.846,0,1.26-0.36,1.26-0.99s-0.414-0.99-1.26-0.99H5.692
		V34.325z"/>
</g>
</svg>
