<svg width="10" height="15" viewBox="0 0 10 15" fill="none" xmlns="http://www.w3.org/2000/svg">
<g clip-path="url(#clip0_10_208)">
<path d="M8.96603 4.10497H1.04123C0.617932 4.10497 0.27478 4.43855 0.27478 4.85004V12.6523C0.27478 13.0638 0.617932 13.3974 1.04123 13.3974H8.96603C9.38933 13.3974 9.73248 13.0638 9.73248 12.6523V4.85004C9.73248 4.43855 9.38933 4.10497 8.96603 4.10497Z" stroke="black" stroke-width="0.5" stroke-miterlimit="10" stroke-linecap="round"/>
<path d="M2.83444 0.267101H7.17283C7.29173 0.267101 7.40576 0.313015 7.48983 0.394744C7.5739 0.476473 7.62113 0.58732 7.62113 0.702902V4.10496H2.37891V0.702902C2.3789 0.645076 2.39073 0.587826 2.41371 0.534488C2.43669 0.481151 2.47036 0.432793 2.51276 0.392232C2.55515 0.351671 2.60543 0.319718 2.66066 0.298235C2.71589 0.276752 2.77496 0.266168 2.83444 0.267101Z" stroke="black" stroke-width="0.5" stroke-miterlimit="10" stroke-linecap="round"/>
<path d="M2.37891 1.30037H7.62113" stroke="black" stroke-width="0.5" stroke-miterlimit="10" stroke-linecap="round"/>
<path d="M2.37891 13.3974H3.50689V14.3182C3.50689 14.4282 3.46194 14.5336 3.38194 14.6114C3.30193 14.6892 3.19342 14.7329 3.08028 14.7329H2.81275C2.6996 14.7329 2.59109 14.6892 2.51109 14.6114C2.43108 14.5336 2.38614 14.4282 2.38614 14.3182V13.3974H2.37891Z" stroke="black" stroke-width="0.5" stroke-miterlimit="10" stroke-linecap="round"/>
<path d="M6.50757 13.3974H7.62832V14.3182C7.62832 14.4282 7.58337 14.5336 7.50337 14.6114C7.42337 14.6892 7.31486 14.7329 7.20171 14.7329H6.92695C6.81506 14.731 6.7084 14.6865 6.62995 14.609C6.5515 14.5314 6.50755 14.427 6.50757 14.3182V13.3974Z" stroke="black" stroke-width="0.5" stroke-miterlimit="10" stroke-linecap="round"/>
<path d="M0.27478 7.40862H9.73248" stroke="black" stroke-width="0.5" stroke-miterlimit="10" stroke-linecap="round"/>
<path d="M3.07305 8.224H2.80552C2.56991 8.224 2.37891 8.40967 2.37891 8.63871V12.0197C2.37891 12.2487 2.56991 12.4344 2.80552 12.4344H3.07305C3.30866 12.4344 3.49966 12.2487 3.49966 12.0197V8.63871C3.49966 8.40967 3.30866 8.224 3.07305 8.224Z" stroke="black" stroke-width="0.5" stroke-miterlimit="10" stroke-linecap="round"/>
<path d="M5.13378 8.224H4.86625C4.63064 8.224 4.43964 8.40967 4.43964 8.63871V12.0197C4.43964 12.2487 4.63064 12.4344 4.86625 12.4344H5.13378C5.36939 12.4344 5.56039 12.2487 5.56039 12.0197V8.63871C5.56039 8.40967 5.36939 8.224 5.13378 8.224Z" stroke="black" stroke-width="0.5" stroke-miterlimit="10" stroke-linecap="round"/>
<path d="M7.19451 8.224H6.92698C6.69137 8.224 6.50037 8.40967 6.50037 8.63871V12.0197C6.50037 12.2487 6.69137 12.4344 6.92698 12.4344H7.19451C7.43012 12.4344 7.62112 12.2487 7.62112 12.0197V8.63871C7.62112 8.40967 7.43012 8.224 7.19451 8.224Z" stroke="black" stroke-width="0.5" stroke-miterlimit="10" stroke-linecap="round"/>
</g>
<defs>
<clipPath id="clip0_10_208">
<rect width="10" height="15" fill="white"/>
</clipPath>
</defs>
</svg>
