<svg width="87" height="73" viewBox="0 0 87 73" fill="none" xmlns="http://www.w3.org/2000/svg">
<path d="M27.0409 38.9673C25.5576 41.044 24.3175 43.2987 22.2765 44.9748C18.7966 47.8406 13.504 48.5734 10.5878 52.0355C7.4639 55.7527 8.83747 61.0156 12.1868 64.1276C14.4148 66.2043 17.4141 67.5245 20.5291 68.3195C27.2753 70.0402 72.2796 68.1297 74.5224 67.1329C77.5158 65.8127 78.8567 63.2762 78.6402 60.4252C78.2871 55.7468 74.2999 51.9346 69.9211 49.3447C65.5423 46.7548 60.5583 44.9659 56.4703 42.026C54.1355 40.3468 52.1419 38.3265 49.9139 36.5376C48.0448 34.9732 45.9149 33.7501 43.6216 32.9242C37.5192 30.8713 30.2983 34.3601 27.0409 38.9673Z" fill="#00B77B"/>
<path d="M35.576 5.61904C36.6767 8.35134 36.2139 12.1457 33.6002 13.2107C30.9866 14.2758 27.2071 12.1665 26.1064 9.4312C25.0058 6.69594 26.234 3.62841 28.8476 2.57524C31.4613 1.52207 34.4754 2.88674 35.576 5.61904Z" fill="white" stroke="#111111" stroke-width="0.75" stroke-linecap="round" stroke-linejoin="round"/>
<path d="M54.7377 12.2881C52.9933 15.3171 49.0803 17.6667 46.17 15.9905C43.2597 14.3143 42.4705 9.23539 44.2268 6.20049C45.9831 3.16559 49.7537 2.07386 52.6551 3.75299C55.5565 5.43213 56.494 9.25616 54.7377 12.2881Z" fill="white" stroke="#111111" stroke-width="0.75" stroke-linecap="round" stroke-linejoin="round"/>
<path d="M36.2257 14.1957C37.2077 17.3225 35.7362 21.108 32.7458 22.0484C29.7554 22.9889 26.3794 20.7253 25.3974 17.5984C24.4154 14.4716 26.0412 11.1786 29.0316 10.25C32.022 9.32143 35.2438 11.0688 36.2257 14.1957Z" fill="#00B77B" stroke="#111111" stroke-width="0.75" stroke-linecap="round" stroke-linejoin="round"/>
<path d="M33.0929 21.9179C33.8041 21.043 34.2885 20.0061 34.5033 18.8993C34.718 17.7924 34.6565 16.6496 34.3241 15.5722C33.348 12.4453 30.1262 10.6713 27.1358 11.6147C26.947 11.6701 26.7626 11.7396 26.584 11.8223C27.2411 11.0846 28.0875 10.5409 29.0315 10.25C32.0219 9.3066 35.2437 11.0807 36.2257 14.2075C37.1691 17.195 35.8519 20.8084 33.0929 21.9179Z" fill="#009E65"/>
<path d="M36.2257 14.1957C37.2077 17.3225 35.7362 21.108 32.7458 22.0484C29.7554 22.9889 26.3794 20.7253 25.3974 17.5984C24.4154 14.4716 26.0412 11.1786 29.0316 10.25C32.022 9.32143 35.2438 11.0688 36.2257 14.1957Z" stroke="#111111" stroke-width="0.75" stroke-linecap="round" stroke-linejoin="round"/>
<path d="M66.4531 71.7104L72.8907 58.8262C72.9331 58.7426 72.9978 58.6724 73.0777 58.6234C73.1576 58.5744 73.2494 58.5484 73.3431 58.5484C73.4369 58.5484 73.5287 58.5744 73.6086 58.6234C73.6885 58.6724 73.7532 58.7426 73.7956 58.8262L80.524 71.7193" stroke="#111111" stroke-width="0.75" stroke-linecap="round" stroke-linejoin="round"/>
<path d="M52.1716 71.7104L62.3146 51.4066C62.382 51.2758 62.4841 51.1662 62.6097 51.0896C62.7353 51.013 62.8795 50.9725 63.0266 50.9725C63.1737 50.9725 63.3179 51.013 63.4435 51.0896C63.5691 51.1662 63.6712 51.2758 63.7386 51.4066L74.3533 71.7104" fill="white"/>
<path d="M52.1716 71.7104L62.3146 51.4066C62.382 51.2758 62.4841 51.1662 62.6097 51.0896C62.7353 51.013 62.8795 50.9725 63.0266 50.9725C63.1737 50.9725 63.3179 51.013 63.4435 51.0896C63.5691 51.1662 63.6712 51.2758 63.7386 51.4066L74.3533 71.7104" stroke="#111111" stroke-width="0.75" stroke-linecap="round" stroke-linejoin="round"/>
<path d="M11.3413 71.7104L16.438 61.5081C16.4604 61.4537 16.4984 61.4071 16.5473 61.3744C16.5961 61.3416 16.6536 61.3241 16.7125 61.3241C16.7713 61.3241 16.8288 61.3416 16.8776 61.3744C16.9265 61.4071 16.9645 61.4537 16.9869 61.5081L22.3269 71.7164" stroke="#111111" stroke-width="0.75" stroke-linecap="round" stroke-linejoin="round"/>
<path d="M17.3429 71.7104L25.1601 56.0672C25.2114 55.9662 25.2898 55.8814 25.3864 55.8221C25.483 55.7629 25.5941 55.7315 25.7074 55.7315C25.8207 55.7315 25.9318 55.7629 26.0285 55.8221C26.1251 55.8814 26.2034 55.9662 26.2548 56.0672L34.4279 71.7223" fill="white"/>
<path d="M17.3429 71.7104L25.1601 56.0672C25.2114 55.9662 25.2898 55.8814 25.3864 55.8221C25.483 55.7629 25.5941 55.7315 25.7074 55.7315C25.8207 55.7315 25.9318 55.7629 26.0285 55.8221C26.1251 55.8814 26.2034 55.9662 26.2548 56.0672L34.4279 71.7223" stroke="#111111" stroke-width="0.75" stroke-linecap="round" stroke-linejoin="round"/>
<path d="M55.3192 18.8355C54.1325 21.8022 50.6674 23.7424 47.8283 22.5973C44.9892 21.4521 43.85 17.6667 45.0456 14.7C46.2412 11.7333 49.4956 10.25 52.3466 11.4011C55.1975 12.5521 56.5147 15.8867 55.3192 18.8355Z" fill="#00B77B" stroke="#111111" stroke-width="0.75" stroke-linecap="round" stroke-linejoin="round"/>
<path d="M55.3192 18.8326C54.1325 21.7992 50.6645 23.7424 47.8283 22.5973C47.7674 22.5743 47.7079 22.5475 47.6503 22.5172C50.0237 22.5172 52.4148 20.7846 53.376 18.4172C54.5627 15.4921 53.2722 12.1872 50.5043 11.0213C51.1358 11.0287 51.7601 11.1566 52.3436 11.3981C55.1827 12.5403 56.5177 15.8659 55.3192 18.8326Z" fill="#009E65"/>
<path d="M55.3192 18.8355C54.1325 21.8022 50.6674 23.7424 47.8283 22.5973C44.9892 21.4521 43.85 17.6667 45.0456 14.7C46.2412 11.7333 49.4956 10.25 52.3466 11.4011C55.1975 12.5521 56.5147 15.8867 55.3192 18.8355Z" stroke="#111111" stroke-width="0.75" stroke-linecap="round" stroke-linejoin="round"/>
<path d="M45.9534 23.6801L47.8284 22.5973L48.4306 24.6799L45.9534 23.6801Z" fill="#6BC58A" stroke="#111111" stroke-width="0.75" stroke-linecap="round" stroke-linejoin="round"/>
<path d="M40.738 20.4553C41.005 25.3474 41.1267 31.7138 41.094 36.6148" stroke="#111111" stroke-width="0.75" stroke-linecap="round" stroke-linejoin="round"/>
<path d="M46.9413 24.2141C45.458 28.0203 43.4792 33.304 41.094 36.6148" stroke="#111111" stroke-width="0.75" stroke-linecap="round" stroke-linejoin="round"/>
<path d="M33.6714 22.8494C36.1783 26.9672 38.5842 32.497 41.0881 36.6148" stroke="#111111" stroke-width="0.75" stroke-linecap="round" stroke-linejoin="round"/>
<path d="M17.248 37.2467C16.8998 37.2484 16.5663 37.3869 16.3194 37.6323C16.2706 37.2206 16.0717 36.8413 15.7608 36.567C15.4499 36.2927 15.0487 36.1426 14.6341 36.1456C14.2195 36.1485 13.8205 36.3042 13.5135 36.5829C13.2065 36.8616 13.013 37.2437 12.97 37.6561C12.6825 37.4601 12.342 37.3566 11.994 37.3594C11.5777 37.3709 11.1779 37.5242 10.8607 37.794C10.5434 38.0637 10.3279 38.4338 10.2496 38.8427C10.2461 38.8607 10.2466 38.8793 10.2511 38.897C10.2556 38.9148 10.264 38.9313 10.2756 38.9455C10.2872 38.9596 10.3018 38.9711 10.3183 38.979C10.3348 38.9868 10.3529 38.991 10.3712 38.9911H18.6215C18.6588 38.7846 18.6519 38.5725 18.6011 38.3689C18.5504 38.1653 18.457 37.9747 18.3272 37.8098C18.1974 37.645 18.0341 37.5095 17.848 37.4124C17.662 37.3154 17.4575 37.2589 17.248 37.2467Z" stroke="#111111" stroke-width="0.75" stroke-linecap="round" stroke-linejoin="round"/>
<path d="M58.6567 31.7227C59.0045 31.7233 59.3381 31.8608 59.5853 32.1054C59.634 31.6937 59.8329 31.3144 60.1439 31.0401C60.4548 30.7658 60.8559 30.6157 61.2706 30.6187C61.6852 30.6216 62.0842 30.7773 62.3912 31.056C62.6982 31.3347 62.8917 31.7168 62.9346 32.1292C63.2218 31.9348 63.5609 31.8314 63.9077 31.8325C64.3246 31.8428 64.7254 31.9956 65.0434 32.2655C65.3613 32.5354 65.5772 32.9061 65.6551 33.3158C65.6585 33.3342 65.6579 33.3531 65.6533 33.3712C65.6486 33.3893 65.6401 33.4062 65.6282 33.4207C65.6163 33.4351 65.6014 33.4467 65.5845 33.4548C65.5676 33.4628 65.5492 33.467 65.5305 33.4671H57.2831C57.2458 33.2606 57.2528 33.0486 57.3035 32.8449C57.3543 32.6413 57.4476 32.4508 57.5774 32.2859C57.7073 32.121 57.8706 31.9856 58.0566 31.8885C58.2427 31.7914 58.4472 31.7349 58.6567 31.7227Z" stroke="#111111" stroke-width="0.75" stroke-linecap="round" stroke-linejoin="round"/>
<path d="M67.3728 41.5958C67.3728 41.7777 67.3188 41.9555 67.2178 42.1067C67.1167 42.258 66.9731 42.3759 66.8051 42.4455C66.637 42.5151 66.4521 42.5333 66.2737 42.4978C66.0953 42.4623 65.9314 42.3747 65.8028 42.2461C65.6742 42.1175 65.5866 41.9536 65.5511 41.7752C65.5156 41.5968 65.5338 41.4119 65.6035 41.2439C65.6731 41.0758 65.7909 40.9322 65.9422 40.8311C66.0934 40.7301 66.2712 40.6761 66.4531 40.6761C66.697 40.6761 66.9309 40.773 67.1034 40.9455C67.2759 41.118 67.3728 41.3519 67.3728 41.5958Z" stroke="#00B77B" stroke-miterlimit="10"/>
<path d="M83.9119 57.5179C83.9119 57.6999 83.8579 57.8779 83.7567 58.0292C83.6555 58.1805 83.5117 58.2983 83.3435 58.3679C83.1753 58.4374 82.9902 58.4554 82.8117 58.4197C82.6333 58.384 82.4694 58.2961 82.3409 58.1672C82.2124 58.0382 82.125 57.8741 82.0899 57.6955C82.0547 57.5169 82.0734 57.3319 82.1434 57.1639C82.2135 56.9959 82.3318 56.8525 82.4835 56.7518C82.6351 56.6511 82.8132 56.5977 82.9952 56.5982C83.1158 56.5982 83.2353 56.6221 83.3467 56.6683C83.4581 56.7146 83.5593 56.7823 83.6445 56.8678C83.7296 56.9532 83.7971 57.0546 83.843 57.1662C83.8889 57.2778 83.9123 57.3973 83.9119 57.5179Z" stroke="#00B77B" stroke-miterlimit="10"/>
<path d="M27.1833 30.6102C27.1833 30.8674 27.1071 31.1187 26.9641 31.3325C26.8212 31.5462 26.6181 31.7127 26.3805 31.811C26.1429 31.9093 25.8815 31.9348 25.6293 31.8845C25.3772 31.8341 25.1457 31.71 24.9641 31.528C24.7825 31.346 24.6589 31.1142 24.6091 30.8619C24.5593 30.6097 24.5855 30.3483 24.6843 30.1109C24.7831 29.8735 24.9501 29.6708 25.1642 29.5284C25.3783 29.386 25.6298 29.3103 25.8869 29.3108C26.231 29.3116 26.5608 29.4489 26.8038 29.6925C27.0468 29.9361 27.1833 30.2661 27.1833 30.6102Z" stroke="#00B77B" stroke-miterlimit="10"/>
<path d="M6.67774 53.5277C6.67833 53.7097 6.62489 53.8878 6.52419 54.0395C6.42349 54.1911 6.28007 54.3094 6.11207 54.3795C5.94408 54.4496 5.75907 54.4682 5.58048 54.433C5.40189 54.3979 5.23774 54.3105 5.10883 54.182C4.97991 54.0535 4.89203 53.8897 4.8563 53.7112C4.82057 53.5327 4.83861 53.3477 4.90813 53.1794C4.97765 53.0112 5.09552 52.8674 5.24683 52.7662C5.39813 52.665 5.57605 52.611 5.75807 52.611C6.00147 52.611 6.23494 52.7075 6.40733 52.8793C6.57971 53.0512 6.67695 53.2843 6.67774 53.5277Z" stroke="#00B77B" stroke-miterlimit="10"/>
<path d="M72.5555 38.3325H77.5514" stroke="#111111" stroke-width="0.75" stroke-linecap="round" stroke-linejoin="round"/>
<path d="M80.0167 40.329H86.1458" stroke="#111111" stroke-width="0.75" stroke-linecap="round" stroke-linejoin="round"/>
<path d="M76.9432 40.329H78.4503" stroke="#111111" stroke-width="0.75" stroke-linecap="round" stroke-linejoin="round"/>
<path d="M7.55884 30.1652H12.5547" stroke="#111111" stroke-width="0.75" stroke-linecap="round" stroke-linejoin="round"/>
<path d="M4.45865 32.1618H10.0567" stroke="#111111" stroke-width="0.75" stroke-linecap="round" stroke-linejoin="round"/>
<path d="M0.854156 32.1618H2.65196" stroke="#111111" stroke-width="0.75" stroke-linecap="round" stroke-linejoin="round"/>
<path d="M35.8994 67.1121H40.3138" stroke="#111111" stroke-width="0.75" stroke-linecap="round" stroke-linejoin="round"/>
<path d="M43.3131 67.1121H45.5233" stroke="#111111" stroke-width="0.75" stroke-linecap="round" stroke-linejoin="round"/>
<path d="M41.3017 67.1121H42.2866" stroke="#111111" stroke-width="0.75" stroke-linecap="round" stroke-linejoin="round"/>
<path d="M43.5712 69.5448H43.9687" stroke="#111111" stroke-width="0.75" stroke-linecap="round" stroke-linejoin="round"/>
<path d="M38.6584 69.5448H42.7227" stroke="#111111" stroke-width="0.75" stroke-linecap="round" stroke-linejoin="round"/>
<path d="M68.2242 71.7104H85.2974" stroke="#111111" stroke-width="0.75" stroke-linecap="round" stroke-linejoin="round"/>
<path d="M64.6938 71.7104H66.4531" stroke="#111111" stroke-width="0.75" stroke-linecap="round" stroke-linejoin="round"/>
<path d="M1.85391 71.7104H62.1603" stroke="#111111" stroke-width="0.75" stroke-linecap="round" stroke-linejoin="round"/>
<path d="M32.7043 23.8077L33.2709 21.8942L34.9916 22.8999L32.7043 23.8077Z" fill="#6BC58A" stroke="#111111" stroke-width="0.75" stroke-linecap="round" stroke-linejoin="round"/>
<path d="M47.95 9.36C47.95 14.1067 44.6629 18.7317 40.6104 18.7317C36.558 18.7317 33.2679 14.1067 33.2679 9.36C33.2679 4.61333 36.555 0.735901 40.6104 0.735901C44.6659 0.735901 47.95 4.58367 47.95 9.36Z" fill="#FCCD06" stroke="#111111" stroke-width="0.75" stroke-linecap="round" stroke-linejoin="round"/>
<path d="M47.95 9.34239C47.95 13.9882 44.8142 18.4975 40.8982 18.7052C43.5208 17.1774 45.3482 13.7004 45.3482 10.1434C45.3482 5.39672 42.0612 1.54006 38.0087 1.54006C37.8248 1.54006 37.6408 1.54006 37.4569 1.56379C38.4169 1.02597 39.4982 0.742097 40.5986 0.739056C44.66 0.724223 47.95 4.58682 47.95 9.34239Z" fill="#F4A321"/>
<path d="M47.95 9.36C47.95 14.1067 44.6629 18.7317 40.6104 18.7317C36.558 18.7317 33.2679 14.1067 33.2679 9.36C33.2679 4.61333 36.555 0.735901 40.6104 0.735901C44.6659 0.735901 47.95 4.58367 47.95 9.36Z" stroke="#111111" stroke-width="0.75" stroke-linecap="round" stroke-linejoin="round"/>
<path d="M39.0441 20.8647L40.7291 18.7169L42.4083 20.8647H39.0441Z" fill="#F4E552" stroke="#111111" stroke-width="0.75" stroke-linecap="round" stroke-linejoin="round"/>
<path d="M27.4355 8.27717C27.2811 7.86323 27.2344 7.41685 27.2998 6.97993C27.3652 6.543 27.5405 6.12984 27.8093 5.77924" fill="white"/>
<path d="M27.4355 8.27717C27.2811 7.86323 27.2344 7.41685 27.2998 6.97993C27.3652 6.543 27.5405 6.12984 27.8093 5.77924" stroke="#111111" stroke-width="0.75" stroke-linecap="round" stroke-linejoin="round"/>
<path d="M35.9884 7.04304C35.9884 7.04304 35.9498 5.23634 37.5429 4.43237" stroke="#111111" stroke-width="0.75" stroke-linecap="round" stroke-linejoin="round"/>
<path d="M38.3677 3.94286C38.7041 3.70853 39.0898 3.55428 39.495 3.49193" stroke="#111111" stroke-width="0.75" stroke-linecap="round" stroke-linejoin="round"/>
<path d="M48.8044 13.2819C49.0985 13.0311 49.4535 12.8621 49.8336 12.7918C50.2137 12.7215 50.6056 12.7524 50.97 12.8814" stroke="#111111" stroke-width="0.75" stroke-linecap="round" stroke-linejoin="round"/>
<path d="M26.4506 16.9695C26.2312 16.6039 26.1153 16.1855 26.1153 15.7591C26.1153 15.3327 26.2312 14.9143 26.4506 14.5487" stroke="#111111" stroke-width="0.75" stroke-linecap="round" stroke-linejoin="round"/>
<path d="M48.22 4.95449C48.22 4.95449 48.9201 4.01999 50.62 4.40566" stroke="#111111" stroke-width="0.75" stroke-linecap="round" stroke-linejoin="round"/>
<path d="M37.5666 5.9246C37.5339 6.02179 37.5217 6.12474 37.5309 6.22689C37.5401 6.32904 37.5704 6.42816 37.62 6.51793C37.6696 6.58693 37.734 6.64403 37.8084 6.68508C37.8828 6.72613 37.9654 6.75011 38.0502 6.75527C38.2211 6.76457 38.3911 6.7244 38.5397 6.63957C38.8208 6.49091 39.0369 6.24348 39.1465 5.94496C39.256 5.64644 39.2513 5.31793 39.133 5.02273C39.0233 4.72607 38.7948 4.80617 38.5397 4.89813C38.3081 4.98051 38.0993 5.11642 37.9302 5.29479C37.7611 5.47317 37.6365 5.68896 37.5666 5.9246Z" fill="#FDF8CE"/>
<path d="M49.7804 49.0481H46.8138V43.9691C46.8138 42.4498 46.2102 40.9927 45.1359 39.9184C44.0616 38.8441 42.6045 38.2405 41.0851 38.2405C39.5658 38.2405 38.1087 38.8441 37.0344 39.9184C35.9601 40.9927 35.3565 42.4498 35.3565 43.9691V49.0481H32.3899V43.9691C32.3685 42.8155 32.5773 41.6692 33.0041 40.5972C33.4308 39.5252 34.0669 38.5489 34.8752 37.7255C35.6835 36.9022 36.6478 36.2481 37.7118 35.8016C38.7757 35.3552 39.918 35.1252 41.0718 35.1252C42.2256 35.1252 43.3679 35.3552 44.4318 35.8016C45.4958 36.2481 46.4601 36.9022 47.2684 37.7255C48.0767 38.5489 48.7128 39.5252 49.1395 40.5972C49.5663 41.6692 49.7751 42.8155 49.7538 43.9691L49.7804 49.0481Z" fill="white" stroke="#111111" stroke-width="0.75" stroke-linecap="round" stroke-linejoin="round"/>
<path d="M49.7804 43.9691V49.0481H46.8138V47.6893C48.0004 47.2176 48.4692 46.2713 48.4692 44.9719V43.9691C48.4665 41.7796 47.6376 39.6718 46.1482 38.0669C44.6588 36.462 42.6186 35.4783 40.4354 35.3124H40.5808H40.6075H40.7113H41.0851C43.3848 35.3116 45.5911 36.2222 47.2209 37.8447C48.8506 39.4672 49.771 41.6695 49.7804 43.9691Z" fill="#D6D6D6"/>
<path d="M49.7804 49.0481H46.8138V43.9691C46.8138 42.4498 46.2102 40.9927 45.1359 39.9184C44.0616 38.8441 42.6045 38.2405 41.0852 38.2405C39.5658 38.2405 38.1087 38.8441 37.0344 39.9184C35.9601 40.9927 35.3565 42.4498 35.3565 43.9691V49.0481H32.3899V43.9691C32.3685 42.8155 32.5773 41.6692 33.0041 40.5972C33.4308 39.5252 34.0669 38.5489 34.8752 37.7255C35.6835 36.9022 36.6478 36.2481 37.7118 35.8016C38.7757 35.3552 39.918 35.1252 41.0718 35.1252C42.2256 35.1252 43.3679 35.3552 44.4318 35.8016C45.4958 36.2481 46.4601 36.9022 47.2684 37.7255C48.0767 38.5489 48.7128 39.5252 49.1395 40.5972C49.5663 41.6692 49.7751 42.8155 49.7538 43.9691L49.7804 49.0481Z" stroke="#111111" stroke-width="0.75" stroke-linecap="round" stroke-linejoin="round"/>
<path d="M47.9916 47.986H34.2055C32.2066 47.986 30.5861 49.6064 30.5861 51.6053V61.5526C30.5861 63.5515 32.2066 65.1719 34.2055 65.1719H47.9916C49.9905 65.1719 51.6109 63.5515 51.6109 61.5526V51.6053C51.6109 49.6064 49.9905 47.986 47.9916 47.986Z" fill="#FCCD06" stroke="#111111" stroke-width="0.75" stroke-linecap="round" stroke-linejoin="round"/>
<path d="M43.2211 59.286C43.2435 59.4255 43.2353 59.5682 43.1971 59.7042C43.1589 59.8402 43.0916 59.9663 43 60.0737C42.9083 60.1812 42.7944 60.2675 42.6661 60.3266C42.5378 60.3858 42.3982 60.4164 42.257 60.4163H39.94C39.7988 60.4164 39.6592 60.3858 39.5309 60.3266C39.4026 60.2675 39.2887 60.1812 39.197 60.0737C39.1054 59.9663 39.0381 59.8402 38.9999 59.7042C38.9617 59.5682 38.9535 59.4255 38.9758 59.286L39.3051 57.2094C38.9293 56.851 38.6695 56.3883 38.5591 55.8809C38.4487 55.3735 38.4929 54.8447 38.6858 54.3626C38.8788 53.8806 39.2118 53.4674 39.6418 53.1763C40.0719 52.8853 40.5792 52.7297 41.0985 52.7297C41.6178 52.7297 42.1251 52.8853 42.5552 53.1763C42.9852 53.4674 43.3182 53.8806 43.5111 54.3626C43.7041 54.8447 43.7483 55.3735 43.6379 55.8809C43.5275 56.3883 43.2677 56.851 42.8918 57.2094L43.2211 59.286Z" fill="#EF9F20" stroke="#111111" stroke-width="0.75" stroke-linecap="round" stroke-linejoin="round"/>
<path d="M51.6109 51.6053V61.5526C51.6109 62.5125 51.2295 63.4331 50.5508 64.1118C49.872 64.7906 48.9514 65.1719 47.9915 65.1719H35.309C41.45 65.1719 48.0093 64.1692 48.0093 57.0818V51.0565C48.0093 50.653 47.9298 50.2535 47.7753 49.8808C47.6208 49.5081 47.3944 49.1694 47.1089 48.8843C46.8235 48.5991 46.4847 48.373 46.1118 48.2189C45.7389 48.0647 45.3393 47.9856 44.9359 47.986H47.9915C48.4668 47.986 48.9375 48.0796 49.3766 48.2615C49.8157 48.4434 50.2147 48.71 50.5508 49.0461C50.8869 49.3822 51.1535 49.7812 51.3353 50.2203C51.5172 50.6594 51.6109 51.13 51.6109 51.6053Z" fill="#EF9F20"/>
<path d="M31.5888 51.6825V57.3191C31.5888 57.3191 34.1876 50.9171 39.581 48.9917H34.2825C33.9289 48.9913 33.5787 49.0606 33.2519 49.1957C32.9251 49.3307 32.6281 49.5289 32.378 49.7788C32.1278 50.0287 31.9293 50.3254 31.7939 50.6521C31.6585 50.9787 31.5888 51.3289 31.5888 51.6825Z" fill="#FDF8CE"/>
<path d="M38.8542 55.4857C38.854 55.8373 38.9251 56.1853 39.0633 56.5086C39.2015 56.8319 39.4039 57.1238 39.6581 57.3666L39.3288 59.4433C39.2993 59.6271 39.323 59.8156 39.3971 59.9865C39.4713 60.1573 39.5927 60.3034 39.7471 60.4074C39.4993 60.3584 39.2803 60.2149 39.1363 60.0073C38.9924 59.7997 38.9348 59.5442 38.9758 59.2949L39.3051 57.2183C38.8555 56.7876 38.5754 56.2099 38.5158 55.5902C38.4562 54.9705 38.621 54.35 38.9803 53.8415C39.3397 53.3331 39.8695 52.9706 40.4736 52.8199C41.0777 52.6692 41.7158 52.7404 42.2718 53.0204C41.8813 52.8901 41.4654 52.8545 41.0585 52.9166C40.6516 52.9787 40.2652 53.1367 39.9314 53.3775C39.5975 53.6183 39.3257 53.9351 39.1384 54.3017C38.9511 54.6682 38.8537 55.0741 38.8542 55.4857Z" fill="#D18311"/>
<path d="M47.9916 47.986H34.2055C32.2066 47.986 30.5861 49.6064 30.5861 51.6053V61.5526C30.5861 63.5515 32.2066 65.1719 34.2055 65.1719H47.9916C49.9905 65.1719 51.6109 63.5515 51.6109 61.5526V51.6053C51.6109 49.6064 49.9905 47.986 47.9916 47.986Z" stroke="#111111" stroke-width="0.75" stroke-linecap="round" stroke-linejoin="round"/>
<path d="M43.2211 59.286C43.2435 59.4255 43.2353 59.5682 43.1971 59.7042C43.1589 59.8402 43.0916 59.9663 43 60.0737C42.9083 60.1812 42.7944 60.2675 42.6661 60.3266C42.5378 60.3858 42.3982 60.4164 42.257 60.4163H39.94C39.7988 60.4164 39.6592 60.3858 39.5309 60.3266C39.4026 60.2675 39.2887 60.1812 39.197 60.0737C39.1054 59.9663 39.0381 59.8402 38.9999 59.7042C38.9617 59.5682 38.9535 59.4255 38.9758 59.286L39.3051 57.2094C38.9293 56.851 38.6695 56.3883 38.5591 55.8809C38.4487 55.3735 38.4929 54.8447 38.6858 54.3626C38.8788 53.8806 39.2118 53.4674 39.6418 53.1763C40.0719 52.8853 40.5792 52.7297 41.0985 52.7297C41.6178 52.7297 42.1251 52.8853 42.5552 53.1763C42.9852 53.4674 43.3182 53.8806 43.5111 54.3626C43.7041 54.8447 43.7483 55.3735 43.6379 55.8809C43.5275 56.3883 43.2677 56.851 42.8918 57.2094L43.2211 59.286Z" stroke="#111111" stroke-width="0.75" stroke-linecap="round" stroke-linejoin="round"/>
<path d="M39.3259 35.9354C39.3259 35.9354 33.3599 37.0865 32.8882 43.5568H34.0067C34.1673 41.9375 34.7407 40.3865 35.672 39.0521C36.6033 37.7177 37.8614 36.6446 39.3259 35.9354Z" fill="#EFEFEF"/>
<path d="M59.965 63.4423C59.9656 64.412 59.6785 65.3601 59.1401 66.1666C58.6017 66.973 57.8361 67.6017 56.9403 67.9729C56.0444 68.3441 55.0586 68.4412 54.1076 68.252C53.1565 68.0627 52.283 67.5956 51.5975 66.9097C50.9121 66.2238 50.4455 65.35 50.2568 64.3989C50.0681 63.4477 50.1659 62.462 50.5376 61.5664C50.9094 60.6708 51.5385 59.9056 52.3453 59.3676C53.1521 58.8297 54.1003 58.5432 55.07 58.5444C56.3683 58.5459 57.6129 59.0626 58.5306 59.9809C59.4484 60.8992 59.9642 62.1441 59.965 63.4423Z" fill="white" stroke="#111111" stroke-width="0.75" stroke-linecap="round" stroke-linejoin="round"/>
<path d="M57.2119 63.3296C56.6062 64.1469 55.8835 64.8706 55.067 65.4775C54.2496 64.8707 53.5259 64.147 52.9191 63.3296C52.6225 62.8757 52.3851 62.2557 52.6848 61.8018C52.9844 61.3479 53.6549 61.3093 54.1236 61.5644C54.4786 61.8087 54.7912 62.1093 55.0492 62.4544C55.0537 62.4446 55.0597 62.4356 55.067 62.4277C55.0679 62.4366 55.0679 62.4456 55.067 62.4544C55.3264 62.1095 55.64 61.8089 55.9956 61.5644C56.4613 61.3093 57.1407 61.3538 57.4314 61.8018C57.7222 62.2497 57.5175 62.8757 57.2119 63.3296Z" fill="#00B77B" stroke="#111111" stroke-width="0.75" stroke-linecap="round" stroke-linejoin="round"/>
</svg>
