<svg width="12" height="14" viewBox="0 0 12 14" fill="none" xmlns="http://www.w3.org/2000/svg">
<g clip-path="url(#clip0_10_219)">
<path d="M11.6813 11.4921C11.6896 12.0372 11.4858 12.565 11.1113 12.9681C10.7369 13.3712 10.2199 13.6194 9.66546 13.6623C9.64044 13.6532 9.61295 13.6532 9.58793 13.6623H2.42068L1.93827 13.5609C1.48047 13.4526 1.07329 13.1962 0.782542 12.833C0.491793 12.4699 0.334453 12.0213 0.335964 11.5597C0.272022 10.5346 0.427541 9.50785 0.792532 8.54523C1.02167 7.91114 1.47773 7.38007 2.07608 7.05064C2.18528 6.99066 2.30085 6.9426 2.42068 6.90716C2.86977 7.35715 3.4057 7.71498 3.99728 7.95997C4.58887 8.20496 5.22427 8.33218 5.86649 8.33413H5.92677C7.24603 8.31836 8.50579 7.79351 9.43288 6.87335C9.7704 6.95916 10.0851 7.11516 10.3557 7.3308C10.6262 7.54644 10.8462 7.81664 11.0007 8.12303C11.3465 8.8071 11.5569 9.54914 11.621 10.31C11.6612 10.6984 11.6813 11.0925 11.6813 11.4921Z" stroke="#575757" stroke-width="0.5" stroke-miterlimit="10" stroke-linecap="round"/>
<path d="M5.92677 6.74672C6.5759 6.74337 7.20945 6.55144 7.74728 6.19517C8.28512 5.83889 8.7031 5.33423 8.94836 4.74511C9.19362 4.15598 9.25514 3.50882 9.12516 2.88543C8.99518 2.26203 8.67951 1.69048 8.2181 1.24292C7.75668 0.795372 7.17024 0.491973 6.53292 0.371116C5.8956 0.250258 5.23603 0.317292 4.63762 0.563866C4.0392 0.81044 3.52882 1.22545 3.17101 1.75634C2.8132 2.28724 2.62403 2.91017 2.62743 3.54645C2.62855 3.96925 2.71491 4.3877 2.88154 4.77768C3.04817 5.16766 3.29177 5.52155 3.59837 5.81894C3.90497 6.11633 4.26853 6.35135 4.66811 6.51058C5.0677 6.6698 5.49544 6.75006 5.92677 6.74672Z" stroke="#575757" stroke-width="0.5" stroke-miterlimit="10" stroke-linecap="round"/>
</g>
<defs>
<clipPath id="clip0_10_219">
<rect width="12" height="14" fill="white"/>
</clipPath>
</defs>
</svg>
