<svg width="87" height="45" viewBox="0 0 87 45" fill="none" xmlns="http://www.w3.org/2000/svg">
<path d="M27.0409 10.9567C25.5576 13.0334 24.3175 15.288 22.2765 16.9642C18.7966 19.83 13.504 20.5628 10.5878 24.0278C7.4639 27.7421 8.83747 33.005 12.1868 36.117C14.4148 38.1937 17.4141 39.5138 20.5291 40.3089C27.2753 42.0296 72.2796 40.119 74.5224 39.1222C77.5158 37.8021 78.8567 35.2656 78.6402 32.4146C78.2871 27.7362 74.2999 23.924 69.9211 21.3341C65.5423 18.7442 60.5583 16.9553 56.4703 14.0153C54.1355 12.3362 52.1419 10.3159 49.9139 8.527C48.0448 6.9626 45.9149 5.73946 43.6216 4.9136C37.5192 2.86363 30.2983 6.34946 27.0409 10.9567Z" fill="#00B77B"/>
<path d="M66.4531 43.6998L72.8908 30.8067C72.9332 30.7231 72.9979 30.6529 73.0778 30.6039C73.1576 30.5548 73.2495 30.5289 73.3432 30.5289C73.4369 30.5289 73.5288 30.5548 73.6087 30.6039C73.6885 30.6529 73.7532 30.7231 73.7956 30.8067L80.524 43.6998" stroke="#111111" stroke-width="0.75" stroke-linecap="round" stroke-linejoin="round"/>
<path d="M52.1716 43.6998L62.3147 23.39C62.3813 23.2584 62.4831 23.1478 62.6088 23.0706C62.7345 22.9933 62.8791 22.9524 63.0267 22.9524C63.1742 22.9524 63.3188 22.9933 63.4445 23.0706C63.5702 23.1478 63.672 23.2584 63.7387 23.39L74.3534 43.6998" fill="white"/>
<path d="M52.1716 43.6998L62.3147 23.39C62.3813 23.2584 62.4831 23.1478 62.6088 23.0706C62.7345 22.9933 62.8791 22.9524 63.0267 22.9524C63.1742 22.9524 63.3188 22.9933 63.4445 23.0706C63.5702 23.1478 63.672 23.2584 63.7387 23.39L74.3534 43.6998" stroke="#111111" stroke-width="0.75" stroke-linecap="round" stroke-linejoin="round"/>
<path d="M11.3413 43.6998L16.438 33.4974C16.4604 33.443 16.4984 33.3965 16.5473 33.3637C16.5961 33.331 16.6536 33.3135 16.7125 33.3135C16.7713 33.3135 16.8288 33.331 16.8776 33.3637C16.9265 33.3965 16.9645 33.443 16.9869 33.4974L22.3269 43.7057" stroke="#111111" stroke-width="0.75" stroke-linecap="round" stroke-linejoin="round"/>
<path d="M17.343 43.6998L25.1602 28.0566C25.2116 27.9556 25.2899 27.8708 25.3865 27.8115C25.4831 27.7523 25.5942 27.7209 25.7075 27.7209C25.8209 27.7209 25.932 27.7523 26.0286 27.8115C26.1252 27.8708 26.2035 27.9556 26.2549 28.0566L34.428 43.7087" fill="white"/>
<path d="M17.343 43.6998L25.1602 28.0566C25.2116 27.9556 25.2899 27.8708 25.3865 27.8115C25.4831 27.7523 25.5942 27.7209 25.7075 27.7209C25.8209 27.7209 25.932 27.7523 26.0286 27.8115C26.1252 27.8708 26.2035 27.9556 26.2549 28.0566L34.428 43.7087" stroke="#111111" stroke-width="0.75" stroke-linecap="round" stroke-linejoin="round"/>
<path d="M17.248 9.23307C16.8998 9.23475 16.5663 9.37327 16.3194 9.61873C16.2706 9.20698 16.0717 8.82767 15.7608 8.55337C15.4499 8.27907 15.0487 8.12903 14.6341 8.13197C14.2195 8.13491 13.8205 8.29061 13.5135 8.56929C13.2065 8.84797 13.013 9.23007 12.97 9.64247C12.6825 9.44651 12.342 9.34301 11.994 9.3458C11.5777 9.35731 11.1779 9.51063 10.8607 9.78038C10.5434 10.0501 10.3279 10.4201 10.2496 10.8291C10.2461 10.8471 10.2466 10.8656 10.2511 10.8834C10.2556 10.9012 10.264 10.9177 10.2756 10.9319C10.2872 10.946 10.3018 10.9575 10.3183 10.9653C10.3348 10.9732 10.3529 10.9774 10.3712 10.9775H18.6215C18.6588 10.771 18.6519 10.5589 18.6011 10.3553C18.5504 10.1516 18.457 9.96111 18.3272 9.79624C18.1974 9.63137 18.0341 9.49592 17.848 9.39884C17.662 9.30176 17.4575 9.24526 17.248 9.23307Z" stroke="#111111" stroke-width="0.75" stroke-linecap="round" stroke-linejoin="round"/>
<path d="M58.6567 3.7121C59.0061 3.71581 59.34 3.85766 59.5852 4.10666C59.634 3.69491 59.8329 3.3156 60.1438 3.0413C60.4548 2.767 60.8559 2.61696 61.2705 2.6199C61.6852 2.62284 62.0841 2.77854 62.3912 3.05722C62.6982 3.3359 62.8917 3.71799 62.9346 4.1304C63.2218 3.93603 63.5609 3.83265 63.9077 3.83373C64.3244 3.84457 64.725 3.99759 65.0428 4.2674C65.3606 4.53721 65.5767 4.90758 65.655 5.31706C65.6585 5.33544 65.6579 5.35435 65.6533 5.37247C65.6486 5.39058 65.6401 5.40746 65.6282 5.42189C65.6163 5.43633 65.6014 5.44798 65.5845 5.45601C65.5676 5.46404 65.5491 5.46825 65.5304 5.46836H57.2831C57.2439 5.26099 57.2495 5.04765 57.2993 4.84259C57.3492 4.63753 57.4422 4.44547 57.5722 4.27923C57.7022 4.113 57.8662 3.97642 58.0532 3.87862C58.2402 3.78082 58.446 3.72405 58.6567 3.7121Z" stroke="#111111" stroke-width="0.75" stroke-linecap="round" stroke-linejoin="round"/>
<path d="M67.3728 13.6C67.3728 13.7819 67.3188 13.9597 67.2178 14.1109C67.1167 14.2622 66.9731 14.3801 66.8051 14.4497C66.637 14.5193 66.4521 14.5375 66.2737 14.502C66.0953 14.4665 65.9314 14.3789 65.8028 14.2503C65.6742 14.1217 65.5866 13.9578 65.5511 13.7794C65.5156 13.601 65.5338 13.4161 65.6035 13.2481C65.6731 13.08 65.7909 12.9364 65.9422 12.8353C66.0934 12.7343 66.2712 12.6803 66.4531 12.6803C66.697 12.6803 66.9309 12.7772 67.1034 12.9497C67.2759 13.1222 67.3728 13.3561 67.3728 13.6Z" stroke="#00B77B" stroke-miterlimit="10"/>
<path d="M83.9121 29.5073C83.9121 29.6893 83.8581 29.8672 83.7569 30.0185C83.6557 30.1698 83.5119 30.2877 83.3437 30.3572C83.1755 30.4267 82.9904 30.4448 82.8119 30.409C82.6334 30.3733 82.4696 30.2854 82.3411 30.1565C82.2126 30.0276 82.1252 29.8635 82.0901 29.6849C82.0549 29.5063 82.0736 29.3213 82.1436 29.1533C82.2137 28.9853 82.332 28.8419 82.4836 28.7412C82.6353 28.6405 82.8134 28.587 82.9954 28.5876C83.116 28.5876 83.2355 28.6114 83.3469 28.6577C83.4583 28.7039 83.5595 28.7717 83.6446 28.8571C83.7298 28.9426 83.7973 29.044 83.8432 29.1556C83.8891 29.2671 83.9125 29.3866 83.9121 29.5073Z" stroke="#00B77B" stroke-miterlimit="10"/>
<path d="M27.1835 2.5996C27.1835 2.85673 27.1072 3.10807 26.9643 3.32182C26.8214 3.53557 26.6183 3.70211 26.3807 3.80037C26.1431 3.89863 25.8817 3.92419 25.6295 3.87382C25.3774 3.82344 25.1459 3.69939 24.9643 3.51736C24.7826 3.33534 24.6591 3.10354 24.6093 2.85128C24.5595 2.59903 24.5857 2.33767 24.6845 2.10029C24.7833 1.86291 24.9503 1.66017 25.1644 1.51775C25.3784 1.37533 25.63 1.29962 25.8871 1.3002C26.2312 1.30099 26.5609 1.43824 26.804 1.68184C27.047 1.92544 27.1835 2.2555 27.1835 2.5996Z" stroke="#00B77B" stroke-miterlimit="10"/>
<path d="M6.67771 25.5171C6.67829 25.6991 6.62486 25.8772 6.52416 26.0288C6.42346 26.1805 6.28004 26.2988 6.11204 26.3689C5.94405 26.4389 5.75904 26.4576 5.58045 26.4224C5.40186 26.3873 5.23771 26.2999 5.10879 26.1714C4.97988 26.0429 4.892 25.8791 4.85627 25.7006C4.82054 25.5221 4.83858 25.337 4.9081 25.1688C4.97762 25.0006 5.09549 24.8568 5.24679 24.7556C5.3981 24.6544 5.57602 24.6004 5.75804 24.6004C6.00144 24.6004 6.23491 24.6969 6.4073 24.8687C6.57968 25.0405 6.67692 25.2737 6.67771 25.5171Z" stroke="#00B77B" stroke-miterlimit="10"/>
<path d="M72.5557 10.3218H77.5515" stroke="#111111" stroke-width="0.75" stroke-linecap="round" stroke-linejoin="round"/>
<path d="M80.0168 12.3184H86.146" stroke="#111111" stroke-width="0.75" stroke-linecap="round" stroke-linejoin="round"/>
<path d="M76.9434 12.3184H78.4504" stroke="#111111" stroke-width="0.75" stroke-linecap="round" stroke-linejoin="round"/>
<path d="M7.55884 2.1546H12.5547" stroke="#111111" stroke-width="0.75" stroke-linecap="round" stroke-linejoin="round"/>
<path d="M4.45874 4.15117H10.0568" stroke="#111111" stroke-width="0.75" stroke-linecap="round" stroke-linejoin="round"/>
<path d="M0.854248 4.15117H2.65205" stroke="#111111" stroke-width="0.75" stroke-linecap="round" stroke-linejoin="round"/>
<path d="M35.8994 39.1015H40.3138" stroke="#111111" stroke-width="0.75" stroke-linecap="round" stroke-linejoin="round"/>
<path d="M43.3132 39.1015H45.5234" stroke="#111111" stroke-width="0.75" stroke-linecap="round" stroke-linejoin="round"/>
<path d="M41.3018 39.1015H42.2867" stroke="#111111" stroke-width="0.75" stroke-linecap="round" stroke-linejoin="round"/>
<path d="M43.5713 41.5341H43.9688" stroke="#111111" stroke-width="0.75" stroke-linecap="round" stroke-linejoin="round"/>
<path d="M38.6584 41.5341H42.7228" stroke="#111111" stroke-width="0.75" stroke-linecap="round" stroke-linejoin="round"/>
<path d="M68.2244 43.6998H85.2975" stroke="#111111" stroke-width="0.75" stroke-linecap="round" stroke-linejoin="round"/>
<path d="M64.6938 43.6998H66.4531" stroke="#111111" stroke-width="0.75" stroke-linecap="round" stroke-linejoin="round"/>
<path d="M1.854 43.6998H62.1604" stroke="#111111" stroke-width="0.75" stroke-linecap="round" stroke-linejoin="round"/>
<path d="M52.9607 7.12376H26.9015C25.1434 7.12376 23.7183 8.54895 23.7183 10.307V33.7348C23.7183 35.4928 25.1434 36.918 26.9015 36.918H52.9607C54.7187 36.918 56.1439 35.4928 56.1439 33.7348V10.307C56.1439 8.54895 54.7187 7.12376 52.9607 7.12376Z" fill="#FCCD06" stroke="#111111" stroke-width="0.75" stroke-linecap="round" stroke-linejoin="round"/>
<path d="M56.1441 10.1053V33.9395C56.1441 34.3303 56.0669 34.7173 55.9169 35.0782C55.7668 35.4391 55.547 35.7668 55.2699 36.0425C54.9929 36.3182 54.6641 36.5364 54.3025 36.6846C53.9408 36.8328 53.5534 36.9081 53.1626 36.9061H26.697C26.0938 36.9034 25.5055 36.718 25.0098 36.3743C24.5141 36.0306 24.1342 35.5447 23.9202 34.9808C24.2085 35.0693 24.5086 35.1133 24.8102 35.1113H51.2788C52.0656 35.1113 52.8202 34.7988 53.3765 34.2424C53.9329 33.686 54.2454 32.9314 54.2454 32.1446V8.29858C54.2455 7.94339 54.1832 7.59096 54.0615 7.25728C54.6665 7.44859 55.1947 7.82794 55.5693 8.34016C55.9438 8.85237 56.1452 9.47073 56.1441 10.1053Z" fill="#F4A321"/>
<path d="M52.9607 7.12376H26.9015C25.1434 7.12376 23.7183 8.54895 23.7183 10.307V33.7348C23.7183 35.4928 25.1434 36.918 26.9015 36.918H52.9607C54.7187 36.918 56.1439 35.4928 56.1439 33.7348V10.307C56.1439 8.54895 54.7187 7.12376 52.9607 7.12376Z" stroke="#111111" stroke-width="0.75" stroke-linecap="round" stroke-linejoin="round"/>
<path d="M52.9607 7.12376H26.9015C25.1434 7.12376 23.7183 8.54895 23.7183 10.307V11.8437C23.7183 13.6018 25.1434 15.027 26.9015 15.027H52.9607C54.7187 15.027 56.1439 13.6018 56.1439 11.8437V10.307C56.1439 8.54895 54.7187 7.12376 52.9607 7.12376Z" fill="white" stroke="#231F20" stroke-miterlimit="10"/>
<path d="M56.144 10.1053V12.0484C56.144 12.4393 56.0667 12.8263 55.9167 13.1872C55.7667 13.5481 55.5469 13.8758 55.2698 14.1515C54.9927 14.4271 54.6639 14.6453 54.3023 14.7936C53.9407 14.9418 53.5533 15.0171 53.1625 15.0151H26.6968C26.1016 15.0169 25.5197 14.8396 25.0266 14.5063C24.5335 14.173 24.1521 13.699 23.9319 13.1461C24.4566 13.563 25.107 13.7899 25.7772 13.7899H52.2428C53.0333 13.7891 53.7912 13.4747 54.3502 12.9157C54.9091 12.3568 55.2235 11.5989 55.2243 10.8084V8.86521C55.2248 8.4851 55.1523 8.10842 55.0107 7.75568C55.3661 8.03507 55.653 8.39201 55.8494 8.79923C56.0458 9.20645 56.1466 9.65317 56.144 10.1053Z" fill="#D6D6D6"/>
<path d="M52.9607 7.12376H26.9015C25.1434 7.12376 23.7183 8.54895 23.7183 10.307V11.8437C23.7183 13.6018 25.1434 15.027 26.9015 15.027H52.9607C54.7187 15.027 56.1439 13.6018 56.1439 11.8437V10.307C56.1439 8.54895 54.7187 7.12376 52.9607 7.12376Z" stroke="#231F20" stroke-miterlimit="10"/>
<path d="M31.414 12.0306C32.2315 12.0306 32.8943 11.3679 32.8943 10.5503C32.8943 9.73268 32.2315 9.0699 31.414 9.0699C30.5964 9.0699 29.9336 9.73268 29.9336 10.5503C29.9336 11.3679 30.5964 12.0306 31.414 12.0306Z" fill="#017249" stroke="black" stroke-width="0.75" stroke-miterlimit="10"/>
<path d="M39.9313 12.0306C40.7489 12.0306 41.4117 11.3679 41.4117 10.5503C41.4117 9.73268 40.7489 9.0699 39.9313 9.0699C39.1137 9.0699 38.4509 9.73268 38.4509 10.5503C38.4509 11.3679 39.1137 12.0306 39.9313 12.0306Z" fill="#017249" stroke="black" stroke-width="0.75" stroke-miterlimit="10"/>
<path d="M48.4455 12.0306C49.263 12.0306 49.9258 11.3679 49.9258 10.5503C49.9258 9.73268 49.263 9.0699 48.4455 9.0699C47.6279 9.0699 46.9651 9.73268 46.9651 10.5503C46.9651 11.3679 47.6279 12.0306 48.4455 12.0306Z" fill="#017249" stroke="black" stroke-width="0.75" stroke-miterlimit="10"/>
<path d="M31.4822 5.00854H31.3457C31.0639 5.00854 30.8354 5.237 30.8354 5.51881V10.04C30.8354 10.3218 31.0639 10.5503 31.3457 10.5503H31.4822C31.764 10.5503 31.9924 10.3218 31.9924 10.04V5.51881C31.9924 5.237 31.764 5.00854 31.4822 5.00854Z" fill="#FCCD06" stroke="#111111" stroke-width="0.75" stroke-linecap="round" stroke-linejoin="round"/>
<path d="M39.9995 5.00854H39.8631C39.5812 5.00854 39.3528 5.237 39.3528 5.51881V10.04C39.3528 10.3218 39.5812 10.5503 39.8631 10.5503H39.9995C40.2813 10.5503 40.5098 10.3218 40.5098 10.04V5.51881C40.5098 5.237 40.2813 5.00854 39.9995 5.00854Z" fill="#FCCD06" stroke="#111111" stroke-width="0.75" stroke-linecap="round" stroke-linejoin="round"/>
<path d="M48.5137 5.00854H48.3772C48.0954 5.00854 47.8669 5.237 47.8669 5.51881V10.04C47.8669 10.3218 48.0954 10.5503 48.3772 10.5503H48.5137C48.7955 10.5503 49.0239 10.3218 49.0239 10.04V5.51881C49.0239 5.237 48.7955 5.00854 48.5137 5.00854Z" fill="#FCCD06" stroke="#111111" stroke-width="0.75" stroke-linecap="round" stroke-linejoin="round"/>
<path d="M30.9035 17.9254H28.4085C27.9072 17.9254 27.5007 18.3318 27.5007 18.8332V21.3282C27.5007 21.8295 27.9072 22.236 28.4085 22.236H30.9035C31.4049 22.236 31.8113 21.8295 31.8113 21.3282V18.8332C31.8113 18.3318 31.4049 17.9254 30.9035 17.9254Z" fill="#00B77B" stroke="black" stroke-width="0.75" stroke-miterlimit="10"/>
<path d="M37.7536 17.9254H35.2586C34.7573 17.9254 34.3508 18.3318 34.3508 18.8332V21.3282C34.3508 21.8295 34.7573 22.236 35.2586 22.236H37.7536C38.255 22.236 38.6614 21.8295 38.6614 21.3282V18.8332C38.6614 18.3318 38.255 17.9254 37.7536 17.9254Z" fill="#00B77B" stroke="black" stroke-width="0.75" stroke-miterlimit="10"/>
<path d="M44.6008 17.9254H42.1058C41.6044 17.9254 41.198 18.3318 41.198 18.8332V21.3282C41.198 21.8295 41.6044 22.236 42.1058 22.236H44.6008C45.1021 22.236 45.5086 21.8295 45.5086 21.3282V18.8332C45.5086 18.3318 45.1021 17.9254 44.6008 17.9254Z" fill="#00B77B" stroke="black" stroke-width="0.75" stroke-miterlimit="10"/>
<path d="M51.4509 17.9254H48.9559C48.4545 17.9254 48.0481 18.3318 48.0481 18.8332V21.3282C48.0481 21.8295 48.4545 22.236 48.9559 22.236H51.4509C51.9522 22.236 52.3587 21.8295 52.3587 21.3282V18.8332C52.3587 18.3318 51.9522 17.9254 51.4509 17.9254Z" fill="#00B77B" stroke="black" stroke-width="0.75" stroke-miterlimit="10"/>
<path d="M30.9035 23.8172H28.4085C27.9072 23.8172 27.5007 24.2236 27.5007 24.725V27.22C27.5007 27.7213 27.9072 28.1278 28.4085 28.1278H30.9035C31.4049 28.1278 31.8113 27.7213 31.8113 27.22V24.725C31.8113 24.2236 31.4049 23.8172 30.9035 23.8172Z" fill="#00B77B" stroke="black" stroke-width="0.75" stroke-miterlimit="10"/>
<path d="M37.7536 23.8172H35.2586C34.7573 23.8172 34.3508 24.2236 34.3508 24.725V27.22C34.3508 27.7213 34.7573 28.1278 35.2586 28.1278H37.7536C38.255 28.1278 38.6614 27.7213 38.6614 27.22V24.725C38.6614 24.2236 38.255 23.8172 37.7536 23.8172Z" fill="#00B77B" stroke="black" stroke-width="0.75" stroke-miterlimit="10"/>
<path d="M44.6008 23.8172H42.1058C41.6044 23.8172 41.198 24.2236 41.198 24.725V27.22C41.198 27.7213 41.6044 28.1278 42.1058 28.1278H44.6008C45.1021 28.1278 45.5086 27.7213 45.5086 27.22V24.725C45.5086 24.2236 45.1021 23.8172 44.6008 23.8172Z" fill="#00B77B" stroke="black" stroke-width="0.75" stroke-miterlimit="10"/>
<path d="M51.4509 23.8172H48.9559C48.4545 23.8172 48.0481 24.2236 48.0481 24.725V27.22C48.0481 27.7213 48.4545 28.1278 48.9559 28.1278H51.4509C51.9522 28.1278 52.3587 27.7213 52.3587 27.22V24.725C52.3587 24.2236 51.9522 23.8172 51.4509 23.8172Z" fill="#00B77B" stroke="black" stroke-width="0.75" stroke-miterlimit="10"/>
<path d="M30.9035 29.709H28.4085C27.9072 29.709 27.5007 30.1154 27.5007 30.6168V33.1118C27.5007 33.6131 27.9072 34.0196 28.4085 34.0196H30.9035C31.4049 34.0196 31.8113 33.6131 31.8113 33.1118V30.6168C31.8113 30.1154 31.4049 29.709 30.9035 29.709Z" fill="#00B77B" stroke="black" stroke-width="0.75" stroke-miterlimit="10"/>
<path d="M37.7536 29.709H35.2586C34.7573 29.709 34.3508 30.1154 34.3508 30.6168V33.1118C34.3508 33.6131 34.7573 34.0196 35.2586 34.0196H37.7536C38.255 34.0196 38.6614 33.6131 38.6614 33.1118V30.6168C38.6614 30.1154 38.255 29.709 37.7536 29.709Z" fill="#00B77B" stroke="black" stroke-width="0.75" stroke-miterlimit="10"/>
<path d="M44.6008 29.709H42.1058C41.6044 29.709 41.198 30.1154 41.198 30.6168V33.1118C41.198 33.6131 41.6044 34.0196 42.1058 34.0196H44.6008C45.1021 34.0196 45.5086 33.6131 45.5086 33.1118V30.6168C45.5086 30.1154 45.1021 29.709 44.6008 29.709Z" fill="#00B77B" stroke="black" stroke-width="0.75" stroke-miterlimit="10"/>
<path d="M51.4509 29.709H48.9559C48.4545 29.709 48.0481 30.1154 48.0481 30.6168V33.1118C48.0481 33.6131 48.4545 34.0196 48.9559 34.0196H51.4509C51.9522 34.0196 52.3587 33.6131 52.3587 33.1118V30.6168C52.3587 30.1154 51.9522 29.709 51.4509 29.709Z" fill="#00B77B" stroke="black" stroke-width="0.75" stroke-miterlimit="10"/>
<path d="M31.8114 18.7739V21.3875C31.8114 21.612 31.7224 21.8274 31.564 21.9864C31.4055 22.1454 31.1904 22.2352 30.9659 22.236H28.3493C28.1631 22.236 27.982 22.1747 27.834 22.0616C27.686 21.9484 27.5794 21.7897 27.5305 21.61C27.6009 21.6304 27.6738 21.6404 27.7471 21.6397H30.3637C30.5879 21.6397 30.803 21.5506 30.9615 21.392C31.1201 21.2335 31.2092 21.0184 31.2092 20.7942V18.1776C31.21 18.1043 31.2 18.0313 31.1795 17.961C31.3596 18.008 31.5192 18.1132 31.6335 18.2602C31.7477 18.4071 31.8103 18.5877 31.8114 18.7739Z" fill="#009E65"/>
<path d="M38.6616 18.7739V21.3875C38.6616 21.6125 38.5722 21.8283 38.413 21.9875C38.2539 22.1466 38.0381 22.236 37.8131 22.236H35.1935C35.0069 22.2355 34.8256 22.1732 34.678 22.0589C34.5304 21.9446 34.4248 21.7847 34.3777 21.6041C34.448 21.6245 34.521 21.6345 34.5943 21.6337H37.2109C37.4349 21.633 37.6495 21.5436 37.8078 21.3852C37.9662 21.2268 38.0556 21.0122 38.0564 20.7882V18.1716C38.0571 18.0984 38.0471 18.0254 38.0267 17.9551C38.2086 18.0013 38.3698 18.107 38.4849 18.2553C38.5999 18.4037 38.6621 18.5862 38.6616 18.7739Z" fill="#009E65"/>
<path d="M45.5084 18.7739V21.3875C45.5088 21.4988 45.4872 21.609 45.4449 21.712C45.4026 21.8149 45.3404 21.9085 45.2618 21.9873C45.1833 22.0661 45.0899 22.1286 44.9871 22.1713C44.8844 22.214 44.7742 22.236 44.6629 22.236H42.0463C41.8595 22.236 41.678 22.1739 41.5303 22.0595C41.3826 21.9451 41.2772 21.7849 41.2305 21.6041C41.2998 21.6243 41.3718 21.6343 41.4441 21.6337H44.0607C44.2852 21.6337 44.5005 21.5447 44.6596 21.3863C44.8186 21.2278 44.9083 21.0127 44.9091 20.7882V18.1716C44.9099 18.0984 44.8999 18.0254 44.8795 17.9551C45.0603 18.0024 45.2202 18.1086 45.334 18.2568C45.4479 18.4051 45.5092 18.587 45.5084 18.7739Z" fill="#009E65"/>
<path d="M52.3615 18.7739V21.3875C52.3607 21.6123 52.2711 21.8276 52.1121 21.9866C51.9532 22.1455 51.7378 22.2352 51.513 22.236H48.8964C48.7094 22.2356 48.5277 22.1735 48.3796 22.0592C48.2315 21.9449 48.1254 21.7849 48.0776 21.6041C48.148 21.6243 48.221 21.6343 48.2942 21.6337H50.9167C51.141 21.6337 51.356 21.5447 51.5146 21.3861C51.6732 21.2275 51.7622 21.0125 51.7622 20.7882V18.1716C51.7645 18.0983 51.7545 18.0251 51.7326 17.9551C51.9134 18.0024 52.0733 18.1086 52.1872 18.2568C52.301 18.4051 52.3623 18.587 52.3615 18.7739Z" fill="#009E65"/>
<path d="M31.8114 24.6657V27.2793C31.8114 27.5038 31.7224 27.7192 31.564 27.8782C31.4055 28.0372 31.1904 28.127 30.9659 28.1278H28.3493C28.162 28.1284 27.9798 28.0667 27.8315 27.9522C27.6833 27.8378 27.5773 27.6772 27.5305 27.4959C27.6005 27.5177 27.6737 27.5278 27.7471 27.5255H30.3637C30.4748 27.5259 30.5849 27.5043 30.6877 27.462C30.7905 27.4196 30.8838 27.3574 30.9624 27.2788C31.041 27.2002 31.1033 27.1068 31.1456 27.0041C31.188 26.9013 31.2096 26.7912 31.2092 26.68V24.0634C31.2097 23.9902 31.1998 23.9173 31.1795 23.8469C31.3606 23.8941 31.5209 24.0002 31.6353 24.1484C31.7496 24.2966 31.8116 24.4785 31.8114 24.6657Z" fill="#009E65"/>
<path d="M38.6616 24.6657V27.2793C38.6616 27.5043 38.5722 27.7201 38.413 27.8793C38.2539 28.0384 38.0381 28.1278 37.8131 28.1278H35.1935C35.0067 28.1278 34.8252 28.0657 34.6775 27.9513C34.5299 27.8369 34.4244 27.6767 34.3777 27.4959C34.4477 27.5177 34.5209 27.5278 34.5943 27.5255H37.2109C37.4351 27.5255 37.6502 27.4365 37.8087 27.2779C37.9673 27.1193 38.0564 26.9043 38.0564 26.68V24.0634C38.0569 23.9902 38.0469 23.9173 38.0267 23.8469C38.2086 23.8931 38.3698 23.9988 38.4849 24.1471C38.5999 24.2955 38.6621 24.478 38.6616 24.6657Z" fill="#009E65"/>
<path d="M45.5084 24.6657V27.2793C45.5088 27.3906 45.4872 27.5008 45.4449 27.6038C45.4026 27.7067 45.3404 27.8003 45.2618 27.8791C45.1833 27.9579 45.0899 28.0204 44.9871 28.0631C44.8844 28.1058 44.7742 28.1278 44.6629 28.1278H42.0463C41.8592 28.1288 41.6772 28.0671 41.5293 27.9526C41.3815 27.838 41.2762 27.6772 41.2305 27.4959C41.2995 27.5175 41.3717 27.5276 41.4441 27.5255H44.0607C44.1719 27.5259 44.2822 27.5043 44.3851 27.462C44.4881 27.4197 44.5816 27.3575 44.6604 27.2789C44.7393 27.2004 44.8018 27.1071 44.8445 27.0043C44.8872 26.9015 44.9091 26.7913 44.9091 26.68V24.0634C44.9097 23.9902 44.8997 23.9173 44.8795 23.8469C45.0603 23.8942 45.2202 24.0004 45.334 24.1486C45.4479 24.2969 45.5092 24.4788 45.5084 24.6657Z" fill="#009E65"/>
<path d="M52.3615 24.6657V27.2793C52.3623 27.3916 52.3409 27.503 52.2984 27.607C52.256 27.7109 52.1934 27.8055 52.1143 27.8852C52.0351 27.9649 51.941 28.0281 51.8373 28.0713C51.7336 28.1145 51.6224 28.1367 51.5101 28.1367H48.8935C48.7062 28.1373 48.524 28.0756 48.3757 27.9611C48.2275 27.8467 48.1215 27.6861 48.0747 27.5048C48.1448 27.5264 48.2179 27.5365 48.2913 27.5344H50.9168C51.0279 27.5348 51.138 27.5132 51.2408 27.4709C51.3436 27.4285 51.4369 27.3663 51.5155 27.2877C51.5941 27.2091 51.6564 27.1157 51.6987 27.013C51.7411 26.9102 51.7627 26.8001 51.7623 26.6889V24.0723C51.7643 23.999 51.7543 23.9259 51.7326 23.8558C51.9119 23.9028 52.0708 24.0076 52.1845 24.154C52.2982 24.3004 52.3604 24.4803 52.3615 24.6657Z" fill="#009E65"/>
<path d="M31.8114 30.5575V33.18C31.8114 33.4045 31.7224 33.6199 31.564 33.7789C31.4055 33.938 31.1904 34.0277 30.9659 34.0285H28.3493C28.1625 34.0288 27.9809 33.9673 27.8328 33.8535C27.6846 33.7397 27.5784 33.5801 27.5305 33.3995C27.601 33.419 27.674 33.428 27.7471 33.4262H30.3637C30.475 33.4262 30.5852 33.4043 30.6879 33.3616C30.7907 33.3189 30.884 33.2564 30.9626 33.1776C31.0411 33.0987 31.1034 33.0052 31.1457 32.9022C31.188 32.7993 31.2096 32.6891 31.2092 32.5778V29.9612C31.2098 29.8889 31.1998 29.8169 31.1795 29.7476C31.3594 29.794 31.5189 29.8986 31.6332 30.0451C31.7475 30.1916 31.8101 30.3717 31.8114 30.5575Z" fill="#009E65"/>
<path d="M38.6616 30.5575V33.18C38.6608 33.4048 38.5711 33.6202 38.4122 33.7791C38.2532 33.9381 38.0379 34.0277 37.8131 34.0285H35.1935C35.0069 34.028 34.8256 33.9657 34.678 33.8514C34.5304 33.7371 34.4248 33.5772 34.3777 33.3966C34.4477 33.4185 34.5209 33.4285 34.5943 33.4262H37.2109C37.4354 33.4255 37.6504 33.3357 37.8089 33.1767C37.9674 33.0177 38.0564 32.8023 38.0564 32.5778V29.9612C38.0569 29.8889 38.0469 29.8169 38.0267 29.7476C38.2074 29.793 38.3678 29.8972 38.4827 30.0439C38.5977 30.1905 38.6606 30.3712 38.6616 30.5575Z" fill="#009E65"/>
<path d="M45.5084 30.5575V33.18C45.5084 33.4045 45.4194 33.6199 45.2609 33.7789C45.1025 33.938 44.8874 34.0277 44.6629 34.0285H42.0463C41.8599 34.0287 41.6787 33.967 41.5311 33.8532C41.3834 33.7394 41.2777 33.5799 41.2305 33.3995C41.3 33.4188 41.3719 33.4278 41.4441 33.4262H44.0607C44.1721 33.4262 44.2824 33.4043 44.3854 33.3617C44.4883 33.319 44.5818 33.2565 44.6606 33.1777C44.7394 33.0989 44.8019 33.0054 44.8445 32.9025C44.8872 32.7995 44.9091 32.6892 44.9091 32.5778V29.9612C44.9097 29.8889 44.8997 29.8169 44.8795 29.7476C45.0593 29.7937 45.2187 29.8982 45.3326 30.0449C45.4464 30.1915 45.5083 30.3718 45.5084 30.5575Z" fill="#009E65"/>
<path d="M52.3615 30.5575V33.18C52.3607 33.4048 52.2711 33.6202 52.1121 33.7791C51.9532 33.9381 51.7378 34.0277 51.513 34.0285H48.8964C48.7097 34.0288 48.528 33.9673 48.3799 33.8535C48.2318 33.7397 48.1255 33.5801 48.0776 33.3995C48.1482 33.4188 48.2211 33.4278 48.2942 33.4262H50.9167C51.028 33.4262 51.1382 33.4043 51.241 33.3616C51.3438 33.3189 51.4371 33.2564 51.5156 33.1776C51.5942 33.0987 51.6564 33.0052 51.6987 32.9022C51.7411 32.7993 51.7626 32.6891 51.7622 32.5778V29.9612C51.7643 29.8888 51.7542 29.8166 51.7326 29.7476C51.9119 29.7946 52.0707 29.8994 52.1844 30.0458C52.2981 30.1923 52.3604 30.3721 52.3615 30.5575Z" fill="#009E65"/>
<path d="M30.9035 17.9254H28.4085C27.9072 17.9254 27.5007 18.3318 27.5007 18.8332V21.3282C27.5007 21.8295 27.9072 22.236 28.4085 22.236H30.9035C31.4049 22.236 31.8113 21.8295 31.8113 21.3282V18.8332C31.8113 18.3318 31.4049 17.9254 30.9035 17.9254Z" stroke="black" stroke-width="0.75" stroke-miterlimit="10"/>
<path d="M37.7536 17.9254H35.2586C34.7573 17.9254 34.3508 18.3318 34.3508 18.8332V21.3282C34.3508 21.8295 34.7573 22.236 35.2586 22.236H37.7536C38.255 22.236 38.6614 21.8295 38.6614 21.3282V18.8332C38.6614 18.3318 38.255 17.9254 37.7536 17.9254Z" stroke="black" stroke-width="0.75" stroke-miterlimit="10"/>
<path d="M44.6008 17.9254H42.1058C41.6044 17.9254 41.198 18.3318 41.198 18.8332V21.3282C41.198 21.8295 41.6044 22.236 42.1058 22.236H44.6008C45.1021 22.236 45.5086 21.8295 45.5086 21.3282V18.8332C45.5086 18.3318 45.1021 17.9254 44.6008 17.9254Z" stroke="black" stroke-width="0.75" stroke-miterlimit="10"/>
<path d="M51.4509 17.9254H48.9559C48.4545 17.9254 48.0481 18.3318 48.0481 18.8332V21.3282C48.0481 21.8295 48.4545 22.236 48.9559 22.236H51.4509C51.9522 22.236 52.3587 21.8295 52.3587 21.3282V18.8332C52.3587 18.3318 51.9522 17.9254 51.4509 17.9254Z" stroke="black" stroke-width="0.75" stroke-miterlimit="10"/>
<path d="M30.9035 23.8172H28.4085C27.9072 23.8172 27.5007 24.2236 27.5007 24.725V27.22C27.5007 27.7213 27.9072 28.1278 28.4085 28.1278H30.9035C31.4049 28.1278 31.8113 27.7213 31.8113 27.22V24.725C31.8113 24.2236 31.4049 23.8172 30.9035 23.8172Z" stroke="black" stroke-width="0.75" stroke-miterlimit="10"/>
<path d="M37.7536 23.8172H35.2586C34.7573 23.8172 34.3508 24.2236 34.3508 24.725V27.22C34.3508 27.7213 34.7573 28.1278 35.2586 28.1278H37.7536C38.255 28.1278 38.6614 27.7213 38.6614 27.22V24.725C38.6614 24.2236 38.255 23.8172 37.7536 23.8172Z" stroke="black" stroke-width="0.75" stroke-miterlimit="10"/>
<path d="M44.6008 23.8172H42.1058C41.6044 23.8172 41.198 24.2236 41.198 24.725V27.22C41.198 27.7213 41.6044 28.1278 42.1058 28.1278H44.6008C45.1021 28.1278 45.5086 27.7213 45.5086 27.22V24.725C45.5086 24.2236 45.1021 23.8172 44.6008 23.8172Z" stroke="black" stroke-width="0.75" stroke-miterlimit="10"/>
<path d="M51.4509 23.8172H48.9559C48.4545 23.8172 48.0481 24.2236 48.0481 24.725V27.22C48.0481 27.7213 48.4545 28.1278 48.9559 28.1278H51.4509C51.9522 28.1278 52.3587 27.7213 52.3587 27.22V24.725C52.3587 24.2236 51.9522 23.8172 51.4509 23.8172Z" stroke="black" stroke-width="0.75" stroke-miterlimit="10"/>
<path d="M30.9035 29.709H28.4085C27.9072 29.709 27.5007 30.1154 27.5007 30.6168V33.1118C27.5007 33.6131 27.9072 34.0196 28.4085 34.0196H30.9035C31.4049 34.0196 31.8113 33.6131 31.8113 33.1118V30.6168C31.8113 30.1154 31.4049 29.709 30.9035 29.709Z" stroke="black" stroke-width="0.75" stroke-miterlimit="10"/>
<path d="M37.7536 29.709H35.2586C34.7573 29.709 34.3508 30.1154 34.3508 30.6168V33.1118C34.3508 33.6131 34.7573 34.0196 35.2586 34.0196H37.7536C38.255 34.0196 38.6614 33.6131 38.6614 33.1118V30.6168C38.6614 30.1154 38.255 29.709 37.7536 29.709Z" stroke="black" stroke-width="0.75" stroke-miterlimit="10"/>
<path d="M44.6008 29.709H42.1058C41.6044 29.709 41.198 30.1154 41.198 30.6168V33.1118C41.198 33.6131 41.6044 34.0196 42.1058 34.0196H44.6008C45.1021 34.0196 45.5086 33.6131 45.5086 33.1118V30.6168C45.5086 30.1154 45.1021 29.709 44.6008 29.709Z" stroke="black" stroke-width="0.75" stroke-miterlimit="10"/>
<path d="M51.4509 29.709H48.9559C48.4545 29.709 48.0481 30.1154 48.0481 30.6168V33.1118C48.0481 33.6131 48.4545 34.0196 48.9559 34.0196H51.4509C51.9522 34.0196 52.3587 33.6131 52.3587 33.1118V30.6168C52.3587 30.1154 51.9522 29.709 51.4509 29.709Z" stroke="black" stroke-width="0.75" stroke-miterlimit="10"/>
<path d="M59.9652 35.4317C59.9658 36.4014 59.6787 37.3495 59.1403 38.1559C58.6018 38.9624 57.8363 39.591 56.9405 39.9623C56.0446 40.3335 55.0588 40.4306 54.1078 40.2414C53.1567 40.0521 52.2832 39.585 51.5977 38.8991C50.9123 38.2132 50.4457 37.3394 50.257 36.3882C50.0683 35.4371 50.1661 34.4513 50.5378 33.5557C50.9096 32.6601 51.5387 31.895 52.3455 31.357C53.1523 30.8191 54.1005 30.5326 55.0702 30.5337C56.3685 30.5353 57.6131 31.0519 58.5308 31.9702C59.4485 32.8885 59.9644 34.1334 59.9652 35.4317Z" fill="white" stroke="#111111" stroke-width="0.75" stroke-linecap="round" stroke-linejoin="round"/>
<path d="M57.2119 35.319C56.607 36.137 55.8842 36.8608 55.067 37.4668C54.2489 36.8609 53.5251 36.1371 52.9191 35.319C52.6225 34.8651 52.3851 34.248 52.6848 33.7911C52.9844 33.3343 53.6549 33.2987 54.1236 33.5538C54.4779 33.7989 54.7904 34.0994 55.0492 34.4438C55.0537 34.434 55.0597 34.425 55.067 34.4171C55.0679 34.426 55.0679 34.4349 55.067 34.4438C55.3272 34.0996 55.6406 33.7991 55.9956 33.5538C56.4613 33.2987 57.1407 33.3432 57.4314 33.7911C57.7222 34.2391 57.5175 34.8651 57.2119 35.319Z" fill="#00B77B" stroke="#111111" stroke-width="0.75" stroke-linecap="round" stroke-linejoin="round"/>
<path d="M48.0303 24.6716L46.9474 26.1757L46.4223 26.9025C46.4001 26.9338 46.3708 26.9592 46.3367 26.9768C46.3026 26.9944 46.2649 27.0035 46.2265 27.0035C46.1882 27.0035 46.1505 26.9944 46.1164 26.9768C46.0823 26.9592 46.053 26.9338 46.0307 26.9025L45.4789 26.1727L44.3902 24.7161C44.3625 24.6801 44.3454 24.637 44.3409 24.5918C44.3364 24.5466 44.3447 24.5011 44.3647 24.4603C44.3848 24.4195 44.4159 24.3852 44.4545 24.3612C44.4931 24.3372 44.5376 24.3245 44.583 24.3245H45.4107C45.3309 23.9173 45.2086 23.5195 45.0458 23.1378C44.535 21.9258 43.6483 20.9099 42.5164 20.2398C41.3846 19.5698 40.0674 19.2811 38.7591 19.4162C37.4507 19.5513 36.2204 20.1031 35.2494 20.9903C34.2784 21.8775 33.618 23.0532 33.3656 24.3441C33.1133 25.6349 33.2822 26.9727 33.8477 28.1603C34.4131 29.3479 35.345 30.3224 36.5061 30.9403C37.6673 31.5582 38.9962 31.7868 40.297 31.5923C41.5979 31.3979 42.8019 30.7907 43.7316 29.8603L44.764 30.8927C43.5588 32.097 41.9835 32.8609 40.2916 33.0614C38.5997 33.262 36.8895 32.8876 35.4361 31.9985C33.9827 31.1094 32.8707 29.7573 32.2789 28.1596C31.6871 26.5619 31.6499 24.8116 32.1733 23.1902C32.6967 21.5689 33.7503 20.1707 35.1646 19.2207C36.5789 18.2706 38.2717 17.8239 39.9706 17.9525C41.6695 18.081 43.2758 18.7773 44.531 19.9293C45.7863 21.0813 46.6175 22.6221 46.8911 24.3037H47.8434C47.8845 24.3074 47.924 24.3214 47.9582 24.3445C47.9924 24.3676 48.0201 24.3991 48.0388 24.4359C48.0575 24.4726 48.0665 24.5136 48.065 24.5548C48.0635 24.5961 48.0516 24.6363 48.0303 24.6716Z" fill="white" stroke="#111111" stroke-width="0.75" stroke-linecap="round" stroke-linejoin="round"/>
</svg>
