<svg width="9" height="11" viewBox="0 0 9 11" fill="none" xmlns="http://www.w3.org/2000/svg">
<path d="M4.50002 0.0833321C3.35114 0.0846224 2.24969 0.541583 1.43732 1.35396C0.624938 2.16634 0.167977 3.26779 0.166687 4.41667C0.166687 6.17979 1.44665 7.64392 2.80244 9.19362C3.23144 9.68437 3.6756 10.1919 4.07102 10.7054C4.12162 10.7711 4.18661 10.8242 4.26099 10.8608C4.33536 10.8974 4.41714 10.9164 4.50002 10.9164C4.5829 10.9164 4.66468 10.8974 4.73905 10.8608C4.81343 10.8242 4.87842 10.7711 4.92902 10.7054C5.32444 10.1919 5.7686 9.68437 6.1976 9.19362C7.55339 7.64392 8.83335 6.17979 8.83335 4.41667C8.83206 3.26779 8.3751 2.16634 7.56272 1.35396C6.75035 0.541583 5.6489 0.0846224 4.50002 0.0833321ZM4.50002 6.04167C4.17863 6.04167 3.86445 5.94636 3.59722 5.7678C3.32999 5.58925 3.12171 5.33546 2.99872 5.03853C2.87572 4.7416 2.84354 4.41486 2.90624 4.09964C2.96894 3.78442 3.12371 3.49488 3.35097 3.26762C3.57823 3.04036 3.86778 2.88559 4.183 2.82289C4.49822 2.76019 4.82495 2.79237 5.12188 2.91536C5.41881 3.03835 5.6726 3.24663 5.85116 3.51386C6.02972 3.78109 6.12502 4.09527 6.12502 4.41667C6.12502 4.84764 5.95382 5.26097 5.64907 5.56571C5.34432 5.87046 4.931 6.04167 4.50002 6.04167Z" fill="black"/>
</svg>
