<svg width="85" height="45" viewBox="0 0 85 45" fill="none" xmlns="http://www.w3.org/2000/svg">
<path d="M51.8607 22.6552C51.8607 22.6552 48.2285 21.3885 45.9137 19.9635C43.5988 18.5385 42.0345 17.9622 41.2207 18.0857C40.4068 18.2092 38.5923 18.2123 37.2782 18.4625C35.964 18.7127 35.1533 18.9628 34.9032 19.5867C34.653 20.2105 35.7138 21.9648 37.028 22.3417C38.3422 22.7185 40.9705 24.4697 40.9705 24.4697C40.9705 24.4697 29.5167 35.42 29.9568 36.5442C30.397 37.6683 35.4035 42.2442 36.0907 42.3012C36.7778 42.3582 47.1043 39.1725 47.7282 39.049C49.1311 38.7403 50.4695 38.1895 51.6833 37.4213C52.4973 36.8985 53.2532 36.2902 53.938 35.6068L59.1313 33.3553L53.235 22.0282L51.8607 22.6552Z" fill="white" stroke="#1A2E35" stroke-width="0.75" stroke-linecap="round" stroke-linejoin="round"/>
<path d="M46.5882 33.1812C46.5882 33.1812 49.2323 35.5372 49.5173 36.5347C49.6791 37.1956 49.6538 37.8885 49.4445 38.536L47.7282 39.049L46.5882 33.1812Z" fill="#1A2E35" stroke="#1A2E35" stroke-linecap="round" stroke-linejoin="round"/>
<path d="M54.7993 25.8978L57.2282 34.0362L59.1187 33.3553L54.7993 25.8978Z" fill="#1A2E35" stroke="#1A2E35" stroke-linecap="round" stroke-linejoin="round"/>
<path d="M37.028 22.3417C37.028 22.3417 41.6608 23.1555 42.5348 23.5292C43.4088 23.9028 48.1683 28.9727 49.8562 30.537C51.3739 32.017 52.3071 33.9947 52.4845 36.1072C52.5478 37.6715 51.9208 39.7362 51.107 40.0497C50.2932 40.3632 49.7327 39.923 49.4825 39.2992C49.2952 38.7088 49.169 38.1008 49.1057 37.4847L48.105 35.42C48.1715 36.2348 48.1289 37.0548 47.9783 37.8583C47.7282 39.049 47.2912 41.5507 46.2905 42.1777C45.2898 42.8047 44.0992 42.4278 43.9757 42.1143C43.8737 41.8276 43.7901 41.5346 43.7255 41.2372C43.7255 41.2372 43.4088 42.3645 42.4588 42.678C41.5088 42.9915 40.2073 42.6147 40.2073 42.6147C40.2073 42.6147 39.1433 43.8655 38.2693 43.6153C37.3953 43.3652 36.515 42.4278 36.515 42.4278C36.515 42.4278 33.5763 40.6133 30.8847 38.7355C28.193 36.8577 23.3765 30.9772 23.3765 30.9772L21.0617 29.5363L28.1423 19.65L31.1475 21.5278L37.028 22.3417Z" fill="white" stroke="#1A2E35" stroke-width="0.75" stroke-linecap="round" stroke-linejoin="round"/>
<path d="M29.0258 22.3987L24.165 31.753L23.3892 30.9772L29.0258 22.3987Z" fill="#1A2E35" stroke="#1A2E35" stroke-linecap="round" stroke-linejoin="round"/>
<path d="M38.4055 18.3992C38.4055 18.3992 35.774 18.3295 35.1533 18.586C34.0893 19.023 34.026 20.4638 34.026 20.714C34.026 20.9642 33.2755 22.9655 33.1488 23.716C33.0222 24.4665 33.8993 24.8433 35.9038 24.1562C37.9083 23.469 38.4688 22.5918 38.4688 20.714" fill="white"/>
<path d="M38.4055 18.3992C38.4055 18.3992 35.774 18.3295 35.1533 18.586C34.0893 19.023 34.026 20.4638 34.026 20.714C34.026 20.9642 33.2755 22.9655 33.1488 23.716C33.0222 24.4665 33.8993 24.8433 35.9038 24.1562C37.9083 23.469 38.4688 22.5918 38.4688 20.714" stroke="#1A2E35" stroke-width="0.75" stroke-linecap="round" stroke-linejoin="round"/>
<path d="M33.3388 23.279C33.4398 23.1665 33.5657 23.0792 33.7065 23.0242C33.8473 22.9692 33.999 22.948 34.1495 22.9623C34.6498 23.0257 35.6537 22.9022 35.7138 22.1485C35.774 21.3948 35.527 21.0243 35.0267 21.0243C34.6867 21.0392 34.3576 21.1489 34.0767 21.341L33.3388 23.279Z" stroke="#1A2E35" stroke-width="0.75" stroke-linecap="round" stroke-linejoin="round"/>
<path d="M44.7895 30.4167C45.0808 30.9233 45.3722 31.7118 45.9137 32.3452C47.9023 34.6663 48.105 35.4137 48.105 35.4137" stroke="#1A2E35" stroke-width="0.75" stroke-linecap="round" stroke-linejoin="round"/>
<path d="M44.2258 28.409L44.3493 29.6757L44.5773 30.0683" stroke="#1A2E35" stroke-width="0.75" stroke-linecap="round" stroke-linejoin="round"/>
<path d="M40.847 31.7878L40.9072 33.292C40.9072 33.292 43.4753 38.2985 43.849 38.859C44.2227 39.4195 43.9757 40.9237 43.7255 41.2372" stroke="#1A2E35" stroke-width="0.75" stroke-linecap="round" stroke-linejoin="round"/>
<path d="M38.0667 37.814C38.3785 38.3507 38.7243 38.8669 39.1022 39.3593C40.106 40.626 40.2295 42.6147 40.2295 42.6147" stroke="#1A2E35" stroke-width="0.75" stroke-linecap="round" stroke-linejoin="round"/>
<path d="M36.8412 34.793V35.6068C36.8412 35.6068 37.218 36.3573 37.7215 37.2408" stroke="#1A2E35" stroke-width="0.75" stroke-linecap="round" stroke-linejoin="round"/>
<path d="M26.7332 35.5277C26.7332 35.5277 25.2227 35.1033 24.8015 34.5777C24.3803 34.052 24.1967 32.3135 24.1682 31.7688C24.1397 31.2242 23.8072 30.6827 24.4848 30.442C25.1625 30.2013 26.0238 30.9265 26.3563 31.6485C26.5877 32.2457 26.7099 32.8796 26.7173 33.52C26.8562 33.858 27.028 34.1816 27.2303 34.4858C27.2303 34.4858 27.699 35.4073 26.7332 35.5277Z" fill="white" stroke="#1A2E35" stroke-width="0.75" stroke-linecap="round" stroke-linejoin="round"/>
<path d="M24.3392 32.9025C24.3392 32.9025 24.8775 33.4408 25.267 33.4123C25.6565 33.3838 25.3842 32.0665 25.3842 32.0665C25.1093 31.9995 24.8542 31.8682 24.64 31.6833C24.4608 31.5241 24.2905 31.3549 24.1302 31.1767L24.3392 32.9025Z" fill="white" stroke="#1A2E35" stroke-width="0.75" stroke-linecap="round" stroke-linejoin="round"/>
<path d="M29.5388 38.4853C29.5388 38.4853 27.9555 38.8178 27.547 38.2732C27.1385 37.7285 26.369 35.5562 26.4007 34.7898C26.4323 34.0235 28.421 32.1932 29.4185 31.4395C30.416 30.6858 31.0493 30.4452 31.6352 30.8062C32.221 31.1672 32.7213 31.62 32.5408 32.2533C32.3603 32.8867 30.91 35.6037 30.6693 36.0882C30.4287 36.5727 30.188 38.2605 30.188 38.2605L29.5388 38.4853Z" fill="white" stroke="#1A2E35" stroke-width="0.75" stroke-linecap="round" stroke-linejoin="round"/>
<path d="M28.934 31.9652C28.934 31.9652 28.2722 32.5985 28.6173 33.083C28.9625 33.5675 29.7953 34.033 30.1595 33.8968C30.5237 33.7607 31.6985 32.5383 31.9075 32.1457C32.1165 31.753 30.8213 30.8188 30.8213 30.8188C30.1069 31.0386 29.4584 31.4326 28.934 31.9652Z" fill="white" stroke="#1A2E35" stroke-width="0.75" stroke-linecap="round" stroke-linejoin="round"/>
<path d="M32.1545 40.8097C32.1545 40.8097 30.4065 41.1707 29.979 40.5785C29.5515 39.9863 28.6902 37.6113 28.7123 36.7785C28.7345 35.9457 30.929 33.9285 32.0088 33.121C33.0887 32.3135 33.7885 32.0317 34.4503 32.4275C35.1122 32.8233 35.6347 33.3173 35.4383 34.0108C35.242 34.7043 33.6587 37.6715 33.3927 38.1972C33.1267 38.7228 32.867 40.5722 32.867 40.5722L32.1545 40.8097Z" fill="white" stroke="#1A2E35" stroke-width="0.75" stroke-linecap="round" stroke-linejoin="round"/>
<path d="M31.4958 33.6878C31.4958 33.6878 30.7675 34.3782 31.1317 34.907C31.4958 35.4358 32.4173 35.9298 32.8132 35.7968C33.209 35.6638 34.4947 34.3117 34.7132 33.8968C34.9317 33.482 33.5257 32.4465 33.5257 32.4465C32.7575 32.6875 32.0604 33.1138 31.4958 33.6878Z" fill="white" stroke="#1A2E35" stroke-width="0.75" stroke-linecap="round" stroke-linejoin="round"/>
<path d="M35.5523 41.8578C35.5523 41.8578 35.09 40.4772 35.09 40.3505C35.09 40.2238 35.9292 38.2162 35.8437 37.3358C35.7582 36.4555 35.0488 35.4517 34.577 35.7018C33.7494 36.244 33.0493 36.9592 32.525 37.7982C31.7713 38.9287 31.518 39.8058 31.7713 40.227C32.0247 40.6482 33.5288 42.2347 34.1558 42.488C34.7828 42.7413 36.078 42.3012 36.078 42.3012L35.5523 41.8578Z" fill="white" stroke="#1A2E35" stroke-width="0.75" stroke-linecap="round" stroke-linejoin="round"/>
<path d="M32.62 38.175C32.9003 38.3495 33.2143 38.4628 33.5415 38.5075C33.9183 38.5075 34.881 37.6303 34.8398 36.75C34.7987 35.8697 34.254 36.0787 34.254 36.0787C34.254 36.0787 32.7878 37.168 32.62 38.175Z" fill="white" stroke="#1A2E35" stroke-width="0.75" stroke-linecap="round" stroke-linejoin="round"/>
<path d="M52.741 21.6228L59.1978 35.6068L63.0738 33.9348L56.313 20.0268L52.741 21.6228Z" fill="white" stroke="#1A2E35" stroke-width="0.75" stroke-linecap="round" stroke-linejoin="round"/>
<path d="M84.0372 30.1697L64.6128 39.8597L62.849 36.2528L55.0178 20.2548L84.0372 3.2435" fill="#00B77B"/>
<path d="M84.0372 30.1697L64.6128 39.8597L62.849 36.2528L55.0178 20.2548L84.0372 3.2435" stroke="#111111" stroke-width="0.75" stroke-linecap="round" stroke-linejoin="round"/>
<path d="M30.1722 20.562L21.3562 34.2388L18.0122 32.5668L27.2842 18.814L30.1722 20.562Z" fill="white" stroke="#1A2E35" stroke-width="0.75" stroke-linecap="round" stroke-linejoin="round"/>
<path d="M0.96283 1.34984L28.6522 18.89L17.591 35.8443L15.3047 39.3435L0.96283 30.4547" fill="#00B77B"/>
<path d="M0.96283 1.34984L28.6522 18.89L17.591 35.8443L15.3047 39.3435L0.96283 30.4547" stroke="#111111" stroke-width="0.75" stroke-linecap="round" stroke-linejoin="round"/>
<path d="M17.591 35.8443L15.3047 39.3435L0.96283 30.4547V25.0492" fill="#009E65"/>
<path d="M17.591 35.8443L15.3047 39.3435L0.96283 30.4547V25.0492" stroke="black" stroke-width="0.75" stroke-miterlimit="10"/>
<path d="M84.0372 25.8852V30.1697L64.6128 39.8597L62.849 36.2528" fill="#009E65"/>
<path d="M84.0372 25.8852V30.1697L64.6128 39.8597L62.849 36.2528" stroke="black" stroke-width="0.75" stroke-miterlimit="10"/>
</svg>
