<svg width="89" height="89" viewBox="0 0 89 89" fill="none" xmlns="http://www.w3.org/2000/svg">
<path d="M27.7591 50.9673C26.2758 53.044 25.0357 55.2987 23.0124 56.9748C19.5296 59.8406 14.237 60.5734 11.3208 64.0355C8.19689 67.7527 9.57045 73.0156 12.9198 76.1276C15.1478 78.2043 18.1471 79.5245 21.2621 80.3195C28.0083 82.0402 73.0126 80.1297 75.2554 79.1329C78.2488 77.8127 79.5897 75.2762 79.3732 72.4252C79.0201 67.7468 75.0329 63.9346 70.6541 61.3447C66.2753 58.7548 61.2913 56.9659 57.2033 54.026C54.8685 52.3468 52.8749 50.3265 50.6469 48.5376C48.7778 46.9732 46.6479 45.7501 44.3546 44.9242C38.2374 42.8713 31.0165 46.3601 27.7591 50.9673Z" fill="#6BC58A"/>
<path d="M36.2942 17.619C37.3948 20.3513 36.935 24.1457 34.3184 25.2107C31.7018 26.2758 27.9252 24.1665 26.8246 21.4312C25.724 18.6959 26.9522 15.6284 29.5658 14.5752C32.1794 13.5221 35.1936 14.8867 36.2942 17.619Z" fill="white" stroke="#111111" stroke-width="0.75" stroke-linecap="round" stroke-linejoin="round"/>
<path d="M55.4559 24.2881C53.6967 27.3171 49.7985 29.6667 46.9 27.9905C44.0016 26.3143 43.2006 21.2354 44.9569 18.2005C46.7131 15.1656 50.4838 14.0798 53.4 15.7589C56.3162 17.4381 57.2122 21.2562 55.4559 24.2881Z" fill="white" stroke="#111111" stroke-width="0.75" stroke-linecap="round" stroke-linejoin="round"/>
<path d="M55.7733 57.9271L42.4738 48.9322C42.1667 48.7261 41.8052 48.616 41.4354 48.616C41.0656 48.616 40.7041 48.7261 40.3971 48.9322L27.1035 57.9271V74.1162C27.104 74.7518 27.3569 75.3611 27.8066 75.8102C27.9174 75.917 28.0353 76.0161 28.1596 76.1069C28.2219 76.1454 28.2872 76.187 28.3584 76.2255C28.5648 76.3354 28.7854 76.4162 29.014 76.4658C29.1741 76.4981 29.3372 76.514 29.5005 76.5133H53.4C53.5604 76.514 53.7205 76.4981 53.8776 76.4658C54.1073 76.4203 54.3285 76.3392 54.5333 76.2255C54.6045 76.187 54.6786 76.1395 54.7409 76.1069C54.8649 76.0157 54.9828 75.9166 55.094 75.8102C55.511 75.3859 55.7534 74.8205 55.7733 74.226C55.7777 74.1895 55.7777 74.1527 55.7733 74.1162V57.9271Z" fill="#FFD731" stroke="#111111" stroke-width="0.75" stroke-linecap="round" stroke-linejoin="round"/>
<path d="M55.7882 74.1162C55.7926 74.1527 55.7926 74.1895 55.7882 74.226C55.7643 74.8226 55.5164 75.3883 55.094 75.8102C54.9828 75.9166 54.8649 76.0157 54.7409 76.1069C54.6786 76.1395 54.6045 76.187 54.5333 76.2255C54.3285 76.3392 54.1073 76.4203 53.8776 76.4658C53.7205 76.4981 53.5604 76.514 53.4 76.5133H29.5005C29.3372 76.514 29.1741 76.4981 29.014 76.4658C28.7854 76.4162 28.5648 76.3354 28.3584 76.2255C28.2872 76.187 28.2219 76.1454 28.1596 76.1069C28.0353 76.0161 27.9174 75.917 27.8066 75.8102C27.3569 75.3611 27.104 74.7518 27.1035 74.1162L35.5525 66.6313L40.2992 62.4424C40.6186 62.1616 41.0294 62.0068 41.4547 62.0068C41.88 62.0068 42.2908 62.1616 42.6102 62.4424L47.3421 66.6313L55.7733 74.1073L55.7882 74.1162Z" stroke="#111111" stroke-width="0.75" stroke-linecap="round" stroke-linejoin="round"/>
<path d="M52.8808 51.8811H34.1048C33.859 51.8811 33.6598 52.0803 33.6598 52.3261V67.6904C33.6598 67.9362 33.859 68.1354 34.1048 68.1354H52.8808C53.1266 68.1354 53.3258 67.9362 53.3258 67.6904V52.3261C53.3258 52.0803 53.1266 51.8811 52.8808 51.8811Z" fill="white" stroke="#111111" stroke-width="0.75" stroke-linecap="round" stroke-linejoin="round"/>
<path d="M50.5757 53.5958H32.0815C31.8358 53.5958 31.6365 53.795 31.6365 54.0408V74.4188C31.6365 74.6646 31.8358 74.8638 32.0815 74.8638H50.5757C50.8215 74.8638 51.0207 74.6646 51.0207 74.4188V54.0408C51.0207 53.795 50.8215 53.5958 50.5757 53.5958Z" fill="white" stroke="#111111" stroke-width="0.75" stroke-linecap="round" stroke-linejoin="round"/>
<path d="M34.0662 56.8591H48.591" stroke="#111111" stroke-width="0.75" stroke-linecap="round" stroke-linejoin="round"/>
<path d="M34.0662 59.6597H48.591" stroke="#111111" stroke-width="0.75" stroke-linecap="round" stroke-linejoin="round"/>
<path d="M34.0662 62.4572H48.591" stroke="#111111" stroke-width="0.75" stroke-linecap="round" stroke-linejoin="round"/>
<path d="M36.9439 26.1957C37.9259 29.3225 36.4544 33.108 33.464 34.0484C30.4736 34.9889 27.0975 32.7253 26.1156 29.5984C25.1336 26.4716 26.7593 23.1786 29.7497 22.25C32.7401 21.3214 35.9619 23.0688 36.9439 26.1957Z" fill="#6BC58A" stroke="#111111" stroke-width="0.75" stroke-linecap="round" stroke-linejoin="round"/>
<path d="M33.82 33.9179C34.5312 33.043 35.0156 32.0061 35.2304 30.8993C35.4451 29.7924 35.3836 28.6496 35.0512 27.5722C34.0662 24.4453 30.8533 22.6713 27.854 23.6147C27.6652 23.6701 27.4808 23.7396 27.3022 23.8223C27.9592 23.0846 28.8057 22.5409 29.7497 22.25C32.7401 21.3066 35.9619 23.0807 36.9439 26.2075C37.8873 29.195 36.5701 32.8084 33.82 33.9179Z" fill="#41995C"/>
<path d="M36.9439 26.1957C37.9259 29.3225 36.4544 33.108 33.464 34.0484C30.4736 34.9889 27.0975 32.7253 26.1156 29.5984C25.1336 26.4716 26.7593 23.1786 29.7497 22.25C32.7401 21.3214 35.9619 23.0688 36.9439 26.1957Z" stroke="#111111" stroke-width="0.75" stroke-linecap="round" stroke-linejoin="round"/>
<path d="M36.7273 65.2222H45.927" stroke="#111111" stroke-width="0.75" stroke-linecap="round" stroke-linejoin="round"/>
<path d="M67.1713 83.7104L73.6089 70.8262C73.6526 70.7464 73.717 70.6798 73.7953 70.6334C73.8736 70.587 73.9629 70.5625 74.0539 70.5625C74.1449 70.5625 74.2343 70.587 74.3126 70.6334C74.3909 70.6798 74.4552 70.7464 74.4989 70.8262L81.2273 83.7193" stroke="#111111" stroke-width="0.75" stroke-linecap="round" stroke-linejoin="round"/>
<path d="M52.8897 83.7104L63.0328 63.4066C63.1001 63.2758 63.2022 63.1662 63.3278 63.0896C63.4534 63.013 63.5977 62.9725 63.7448 62.9725C63.8918 62.9725 64.0361 63.013 64.1617 63.0896C64.2873 63.1662 64.3894 63.2758 64.4568 63.4066L75.0567 83.7104" fill="white"/>
<path d="M52.8897 83.7104L63.0328 63.4066C63.1001 63.2758 63.2022 63.1662 63.3278 63.0896C63.4534 63.013 63.5977 62.9725 63.7448 62.9725C63.8918 62.9725 64.0361 63.013 64.1617 63.0896C64.2873 63.1662 64.3894 63.2758 64.4568 63.4066L75.0567 83.7104" stroke="#111111" stroke-width="0.75" stroke-linecap="round" stroke-linejoin="round"/>
<path d="M12.0595 83.7104L17.1562 73.5081C17.1786 73.4537 17.2166 73.4071 17.2655 73.3744C17.3143 73.3416 17.3718 73.3241 17.4306 73.3241C17.4895 73.3241 17.547 73.3416 17.5958 73.3744C17.6447 73.4071 17.6827 73.4537 17.7051 73.5081L23.0451 83.7164" stroke="#111111" stroke-width="0.75" stroke-linecap="round" stroke-linejoin="round"/>
<path d="M18.0611 83.7104L25.8782 68.0672C25.9296 67.9662 26.0079 67.8814 26.1045 67.8221C26.2011 67.7629 26.3123 67.7315 26.4256 67.7315C26.5389 67.7315 26.65 67.7629 26.7466 67.8221C26.8432 67.8814 26.9216 67.9662 26.9729 68.0672L35.1461 83.7223" fill="white"/>
<path d="M18.0611 83.7104L25.8782 68.0672C25.9296 67.9662 26.0079 67.8814 26.1045 67.8221C26.2011 67.7629 26.3123 67.7315 26.4256 67.7315C26.5389 67.7315 26.65 67.7629 26.7466 67.8221C26.8432 67.8814 26.9216 67.9662 26.9729 68.0672L35.1461 83.7223" stroke="#111111" stroke-width="0.75" stroke-linecap="round" stroke-linejoin="round"/>
<path d="M56.0374 30.8355C54.8507 33.8022 51.3856 35.7424 48.5465 34.5973C45.7074 33.4521 44.5682 29.6667 45.7638 26.7C46.9594 23.7333 50.2286 22.25 53.0648 23.4011C55.9009 24.5521 57.2329 27.8867 56.0374 30.8355Z" fill="#6BC58A" stroke="#111111" stroke-width="0.75" stroke-linecap="round" stroke-linejoin="round"/>
<path d="M56.0374 30.8326C54.8507 33.7992 51.3827 35.7424 48.5465 34.5973C48.4856 34.5743 48.4261 34.5475 48.3685 34.5172C50.7419 34.5172 53.133 32.7846 54.0942 30.4172C55.2809 27.4921 53.9904 24.1872 51.2225 23.0213C51.854 23.0287 52.4783 23.1566 53.0618 23.3981C55.9009 24.5403 57.2359 27.8659 56.0374 30.8326Z" fill="#41995C"/>
<path d="M56.0374 30.8355C54.8507 33.8022 51.3856 35.7424 48.5465 34.5973C45.7074 33.4521 44.5682 29.6667 45.7638 26.7C46.9594 23.7333 50.2286 22.25 53.0648 23.4011C55.9009 24.5521 57.2329 27.8867 56.0374 30.8355Z" stroke="#111111" stroke-width="0.75" stroke-linecap="round" stroke-linejoin="round"/>
<path d="M46.6716 35.6801L48.5495 34.5973L49.1488 36.6799L46.6716 35.6801Z" fill="#6BC58A" stroke="#111111" stroke-width="0.75" stroke-linecap="round" stroke-linejoin="round"/>
<path d="M41.4562 32.4553C41.7232 37.3474 41.8448 43.7138 41.8122 48.6148" stroke="#111111" stroke-width="0.75" stroke-linecap="round" stroke-linejoin="round"/>
<path d="M47.6595 36.2141C46.1762 40.0203 44.1974 45.304 41.8122 48.6148" stroke="#111111" stroke-width="0.75" stroke-linecap="round" stroke-linejoin="round"/>
<path d="M34.3896 34.8494C36.8964 38.9672 39.3024 44.497 41.8063 48.6148" stroke="#111111" stroke-width="0.75" stroke-linecap="round" stroke-linejoin="round"/>
<path d="M17.9661 49.2467C17.618 49.2484 17.2845 49.3869 17.0376 49.6323C16.9888 49.2206 16.7899 48.8413 16.479 48.567C16.168 48.2927 15.7669 48.1426 15.3523 48.1456C14.9376 48.1485 14.5387 48.3042 14.2316 48.5829C13.9246 48.8616 13.7311 49.2437 13.6882 49.6561C13.4006 49.4601 13.0601 49.3566 12.7122 49.3594C12.2959 49.3709 11.8961 49.5242 11.5788 49.794C11.2616 50.0637 11.046 50.4338 10.9678 50.8427C10.9643 50.8607 10.9648 50.8793 10.9693 50.897C10.9738 50.9148 10.9821 50.9313 10.9937 50.9455C11.0053 50.9596 11.0199 50.9711 11.0365 50.979C11.053 50.9868 11.0711 50.991 11.0894 50.9911H19.3397C19.377 50.7846 19.37 50.5725 19.3193 50.3689C19.2686 50.1653 19.1752 49.9747 19.0454 49.8098C18.9156 49.645 18.7522 49.5095 18.5662 49.4124C18.3801 49.3154 18.1756 49.2589 17.9661 49.2467Z" stroke="#111111" stroke-width="0.75" stroke-linecap="round" stroke-linejoin="round"/>
<path d="M59.3749 43.7227C59.7227 43.7233 60.0562 43.8608 60.3034 44.1054C60.3522 43.6937 60.5511 43.3144 60.862 43.0401C61.173 42.7658 61.5741 42.6157 61.9887 42.6187C62.4034 42.6216 62.8023 42.7773 63.1094 43.056C63.4164 43.3347 63.6099 43.7168 63.6528 44.1292C63.9409 43.9344 64.2811 43.831 64.6288 43.8325C65.0452 43.8435 65.4454 43.9966 65.7627 44.2664C66.08 44.5363 66.2955 44.9066 66.3732 45.3158C66.3772 45.334 66.3771 45.3529 66.3728 45.371C66.3686 45.3891 66.3603 45.4061 66.3486 45.4206C66.337 45.4351 66.3222 45.4468 66.3054 45.4549C66.2886 45.4629 66.2702 45.4671 66.2516 45.4671H58.0013C57.964 45.2606 57.971 45.0486 58.0217 44.8449C58.0724 44.6413 58.1658 44.4508 58.2956 44.2859C58.4254 44.121 58.5888 43.9856 58.7748 43.8885C58.9609 43.7914 59.1654 43.7349 59.3749 43.7227Z" stroke="#111111" stroke-width="0.75" stroke-linecap="round" stroke-linejoin="round"/>
<path d="M68.0909 53.5958C68.0909 53.7777 68.037 53.9555 67.9359 54.1067C67.8349 54.258 67.6912 54.3759 67.5232 54.4455C67.3552 54.5151 67.1702 54.5333 66.9918 54.4978C66.8134 54.4623 66.6496 54.3747 66.521 54.2461C66.3923 54.1175 66.3047 53.9536 66.2693 53.7752C66.2338 53.5968 66.252 53.4119 66.3216 53.2439C66.3912 53.0758 66.5091 52.9322 66.6603 52.8311C66.8116 52.7301 66.9894 52.6761 67.1713 52.6761C67.4152 52.6761 67.6491 52.773 67.8216 52.9455C67.994 53.118 68.0909 53.3519 68.0909 53.5958Z" stroke="#BED966" stroke-miterlimit="10"/>
<path d="M84.6301 69.5179C84.6301 69.6999 84.5761 69.8779 84.4749 70.0292C84.3737 70.1805 84.2299 70.2983 84.0617 70.3679C83.8935 70.4374 83.7084 70.4554 83.5299 70.4197C83.3514 70.384 83.1876 70.2961 83.0591 70.1672C82.9306 70.0382 82.8432 69.8741 82.8081 69.6955C82.7729 69.5169 82.7916 69.3319 82.8616 69.1639C82.9317 68.9959 83.05 68.8525 83.2017 68.7518C83.3533 68.6511 83.5314 68.5977 83.7134 68.5982C83.834 68.5982 83.9535 68.6221 84.0649 68.6683C84.1763 68.7146 84.2775 68.7823 84.3627 68.8678C84.4478 68.9532 84.5153 69.0546 84.5612 69.1662C84.6071 69.2778 84.6305 69.3973 84.6301 69.5179Z" stroke="#BED966" stroke-miterlimit="10"/>
<path d="M27.9015 42.6102C27.9015 42.8673 27.8252 43.1187 27.6823 43.3324C27.5394 43.5462 27.3363 43.7127 27.0987 43.811C26.8611 43.9093 26.5996 43.9348 26.3475 43.8844C26.0954 43.8341 25.8638 43.71 25.6822 43.528C25.5006 43.346 25.3771 43.1142 25.3273 42.8619C25.2775 42.6096 25.3036 42.3483 25.4025 42.1109C25.5013 41.8735 25.6683 41.6708 25.8823 41.5284C26.0964 41.3859 26.3479 41.3102 26.6051 41.3108C26.9492 41.3116 27.2789 41.4489 27.522 41.6925C27.765 41.9361 27.9015 42.2661 27.9015 42.6102Z" stroke="#BED966" stroke-miterlimit="10"/>
<path d="M7.39589 65.5277C7.39648 65.7097 7.34304 65.8878 7.24235 66.0395C7.14165 66.1911 6.99822 66.3094 6.83023 66.3795C6.66223 66.4496 6.47723 66.4682 6.29863 66.433C6.12004 66.3979 5.95589 66.3105 5.82698 66.182C5.69807 66.0535 5.61018 65.8897 5.57445 65.7112C5.53873 65.5327 5.55677 65.3477 5.62629 65.1794C5.6958 65.0112 5.81368 64.8674 5.96498 64.7662C6.11628 64.665 6.29421 64.611 6.47623 64.611C6.71962 64.611 6.9531 64.7075 7.12548 64.8793C7.29787 65.0512 7.39511 65.2843 7.39589 65.5277Z" stroke="#BED966" stroke-miterlimit="10"/>
<path d="M73.2737 50.3325H78.2696" stroke="#111111" stroke-width="0.75" stroke-linecap="round" stroke-linejoin="round"/>
<path d="M80.7349 52.329H86.864" stroke="#111111" stroke-width="0.75" stroke-linecap="round" stroke-linejoin="round"/>
<path d="M77.6614 52.329H79.1685" stroke="#111111" stroke-width="0.75" stroke-linecap="round" stroke-linejoin="round"/>
<path d="M8.27699 42.1652H13.2729" stroke="#111111" stroke-width="0.75" stroke-linecap="round" stroke-linejoin="round"/>
<path d="M5.17683 44.1618H10.7749" stroke="#111111" stroke-width="0.75" stroke-linecap="round" stroke-linejoin="round"/>
<path d="M1.57233 44.1618H3.37013" stroke="#111111" stroke-width="0.75" stroke-linecap="round" stroke-linejoin="round"/>
<path d="M36.6176 79.1121H41.032" stroke="#111111" stroke-width="0.75" stroke-linecap="round" stroke-linejoin="round"/>
<path d="M44.0312 79.1121H46.2414" stroke="#111111" stroke-width="0.75" stroke-linecap="round" stroke-linejoin="round"/>
<path d="M42.0199 79.1121H43.0078" stroke="#111111" stroke-width="0.75" stroke-linecap="round" stroke-linejoin="round"/>
<path d="M44.2894 81.5448H44.6869" stroke="#111111" stroke-width="0.75" stroke-linecap="round" stroke-linejoin="round"/>
<path d="M39.3766 81.5448H43.4409" stroke="#111111" stroke-width="0.75" stroke-linecap="round" stroke-linejoin="round"/>
<path d="M45.1556 76.5133H29.5005C29.3372 76.514 29.1741 76.4981 29.014 76.4658C28.7854 76.4162 28.5648 76.3354 28.3584 76.2255C28.2872 76.187 28.2219 76.1454 28.1596 76.1069C28.0353 76.0161 27.9174 75.917 27.8066 75.8102C27.3569 75.3611 27.104 74.7518 27.1035 74.1162V57.9271L35.5525 66.6313L41.4473 72.6833L45.1556 76.5133Z" fill="#FCCD06" stroke="#111111" stroke-width="0.75" stroke-linecap="round" stroke-linejoin="round"/>
<path d="M55.7882 57.9271V74.1073V74.226C55.7643 74.8226 55.5164 75.3882 55.094 75.8102C54.9854 75.9195 54.8673 76.0188 54.7409 76.1069C54.6786 76.1395 54.6045 76.187 54.5333 76.2255C54.3285 76.3392 54.1073 76.4203 53.8776 76.4658C53.7205 76.4981 53.5604 76.514 53.4 76.5133H37.736L41.4473 72.6833L47.3302 66.6224L55.717 57.9894L55.7882 57.9271Z" fill="#FCCD06" stroke="#111111" stroke-width="0.75" stroke-linecap="round" stroke-linejoin="round"/>
<path d="M55.7882 57.9271V74.1073V74.226C55.7643 74.8226 55.5164 75.3882 55.094 75.8102C54.9854 75.9195 54.8673 76.0188 54.7409 76.1069C54.6786 76.1395 54.6045 76.187 54.5333 76.2255C54.3285 76.3392 54.1073 76.4203 53.8776 76.4658C53.7205 76.4981 53.5604 76.514 53.4 76.5133H37.736L39.3855 74.8193H51.1275C51.2889 74.8187 51.4498 74.8028 51.6081 74.7719C51.8378 74.7263 52.059 74.6452 52.2638 74.5316C52.335 74.49 52.4062 74.4426 52.4714 74.4099C52.5979 74.3219 52.716 74.2227 52.8245 74.1133C53.2469 73.6913 53.4948 73.1256 53.5187 72.5291V72.4104V60.2471L55.717 57.9835L55.7882 57.9271Z" fill="#EF9F20"/>
<path d="M55.7882 57.9271V74.1073V74.226C55.7643 74.8226 55.5164 75.3882 55.094 75.8102C54.9854 75.9195 54.8673 76.0188 54.7409 76.1069C54.6786 76.1395 54.6045 76.187 54.5333 76.2255C54.3285 76.3392 54.1073 76.4203 53.8776 76.4658C53.7205 76.4981 53.5604 76.514 53.4 76.5133H37.736L41.4473 72.6833L47.3302 66.6224L55.717 57.9894L55.7882 57.9271Z" stroke="#111111" stroke-width="0.75" stroke-linecap="round" stroke-linejoin="round"/>
<path d="M68.9424 83.7104H86.0155" stroke="#111111" stroke-width="0.75" stroke-linecap="round" stroke-linejoin="round"/>
<path d="M65.412 83.7104H67.1713" stroke="#111111" stroke-width="0.75" stroke-linecap="round" stroke-linejoin="round"/>
<path d="M2.5721 83.7104H62.8785" stroke="#111111" stroke-width="0.75" stroke-linecap="round" stroke-linejoin="round"/>
<path d="M33.4225 35.8077L33.9891 33.8942L35.7098 34.8999L33.4225 35.8077Z" fill="#6BC58A" stroke="#111111" stroke-width="0.75" stroke-linecap="round" stroke-linejoin="round"/>
<path d="M60.6832 75.4423C60.6837 76.4114 60.397 77.3589 59.8593 78.165C59.3215 78.9712 58.5568 79.5998 57.6618 79.9715C56.7669 80.3431 55.7818 80.4411 54.8312 80.2531C53.8805 80.065 53.007 79.5994 52.3209 78.915C51.6349 78.2306 51.1671 77.3581 50.9768 76.408C50.7864 75.4578 50.882 74.4725 51.2515 73.5766C51.621 72.6808 52.2478 71.9146 53.0526 71.3749C53.8575 70.8351 54.8043 70.5461 55.7733 70.5444C56.4174 70.5432 57.0554 70.669 57.6509 70.9146C58.2463 71.1602 58.7875 71.5207 59.2435 71.9756C59.6995 72.4305 60.0614 72.9708 60.3084 73.5657C60.5554 74.1605 60.6828 74.7982 60.6832 75.4423Z" fill="white" stroke="#111111" stroke-width="0.75" stroke-linecap="round" stroke-linejoin="round"/>
<path d="M48.6682 21.36C48.6682 26.1067 45.3841 30.7317 41.3286 30.7317C37.2732 30.7317 33.9861 26.1067 33.9861 21.36C33.9861 16.6133 37.2732 12.7359 41.3286 12.7359C45.3841 12.7359 48.6682 16.5837 48.6682 21.36Z" fill="#FCCD06" stroke="#111111" stroke-width="0.75" stroke-linecap="round" stroke-linejoin="round"/>
<path d="M48.6741 21.3422C48.6741 25.988 45.5383 30.4973 41.6223 30.705C44.2449 29.1772 46.0723 25.7002 46.0723 22.1432C46.0723 17.3965 42.7853 13.5399 38.7328 13.5399C38.5489 13.5399 38.3649 13.5399 38.181 13.5636C39.141 13.0258 40.2223 12.7419 41.3227 12.7389C45.39 12.724 48.6741 16.5866 48.6741 21.3422Z" fill="#F4A321"/>
<path d="M48.6682 21.36C48.6682 26.1067 45.3841 30.7317 41.3286 30.7317C37.2732 30.7317 33.9861 26.1067 33.9861 21.36C33.9861 16.6133 37.2732 12.7359 41.3286 12.7359C45.3841 12.7359 48.6682 16.5837 48.6682 21.36Z" stroke="#111111" stroke-width="0.75" stroke-linecap="round" stroke-linejoin="round"/>
<path d="M39.7622 32.8647L41.4473 30.7169L43.1294 32.8647H39.7622Z" fill="#F4E552" stroke="#111111" stroke-width="0.75" stroke-linecap="round" stroke-linejoin="round"/>
<path d="M28.1537 20.2772C27.9993 19.8632 27.9526 19.4169 28.018 18.9799C28.0833 18.543 28.2587 18.1298 28.5275 17.7792" fill="white"/>
<path d="M28.1537 20.2772C27.9993 19.8632 27.9526 19.4169 28.018 18.9799C28.0833 18.543 28.2587 18.1298 28.5275 17.7792" stroke="#111111" stroke-width="0.75" stroke-linecap="round" stroke-linejoin="round"/>
<path d="M36.7066 19.043C36.7066 19.043 36.671 17.2363 38.2611 16.4324" stroke="#111111" stroke-width="0.75" stroke-linecap="round" stroke-linejoin="round"/>
<path d="M39.0858 15.9429C39.4223 15.7085 39.8079 15.5543 40.2132 15.4919" stroke="#111111" stroke-width="0.75" stroke-linecap="round" stroke-linejoin="round"/>
<path d="M49.5226 25.2819C49.8167 25.0311 50.1717 24.8621 50.5518 24.7918C50.9319 24.7215 51.3238 24.7524 51.6882 24.8814" stroke="#111111" stroke-width="0.75" stroke-linecap="round" stroke-linejoin="round"/>
<path d="M27.1687 28.9695C26.9494 28.6039 26.8335 28.1855 26.8335 27.7591C26.8335 27.3327 26.9494 26.9143 27.1687 26.5487" stroke="#111111" stroke-width="0.75" stroke-linecap="round" stroke-linejoin="round"/>
<path d="M48.95 16.9545C48.95 16.9545 49.6501 16.0052 51.35 16.4057" stroke="#111111" stroke-width="0.75" stroke-linecap="round" stroke-linejoin="round"/>
<path d="M38.27 17.9246C38.2372 18.0218 38.225 18.1247 38.2342 18.2269C38.2434 18.329 38.2738 18.4282 38.3234 18.5179C38.373 18.5869 38.4373 18.644 38.5117 18.6851C38.5861 18.7261 38.6687 18.7501 38.7536 18.7553C38.9245 18.7646 39.0944 18.7244 39.2431 18.6396C39.5242 18.4909 39.7403 18.2435 39.8498 17.945C39.9594 17.6464 39.9546 17.3179 39.8364 17.0227C39.7266 16.7261 39.4982 16.8062 39.2431 16.8981C39.0115 16.9805 38.8026 17.1164 38.6335 17.2948C38.4644 17.4732 38.3399 17.689 38.27 17.9246Z" fill="#FDF8CE"/>
<path d="M28.9665 67.4768C29.0051 67.7349 29.103 68.0524 29.3611 68.088C29.4385 68.0936 29.516 68.0774 29.5847 68.0412C29.6534 68.005 29.7106 67.9503 29.7497 67.8833C29.827 67.7494 29.8755 67.6008 29.8921 67.4472C30.0941 66.2663 30.0669 65.0577 29.812 63.8872C29.7728 63.6213 29.662 63.3711 29.4916 63.1633C29.278 62.9408 28.8983 62.8666 28.7648 63.1781C28.6283 63.5519 28.7322 64.1957 28.7381 64.5932C28.7504 65.5584 28.8267 66.5217 28.9665 67.4768Z" fill="#FDF8CE"/>
<path d="M57.9301 75.3296C57.3244 76.1469 56.6017 76.8706 55.7852 77.4775C54.9678 76.8707 54.2441 76.147 53.6373 75.3296C53.3407 74.8757 53.1033 74.2557 53.403 73.8018C53.7026 73.3479 54.3731 73.3093 54.8418 73.5644C55.1968 73.8087 55.5094 74.1093 55.7674 74.4544C55.7719 74.4446 55.7779 74.4356 55.7852 74.4277C55.7912 74.436 55.7961 74.445 55.8 74.4544C56.0594 74.1095 56.373 73.8089 56.7286 73.5644C57.1944 73.3093 57.8737 73.3538 58.1645 73.8018C58.4552 74.2497 58.2357 74.8757 57.9301 75.3296Z" fill="#6BC58A" stroke="#111111" stroke-width="0.75" stroke-linecap="round" stroke-linejoin="round"/>
</svg>
