<svg width="87" height="45" viewBox="0 0 87 45" fill="none" xmlns="http://www.w3.org/2000/svg">
<path d="M27.0409 10.9567C25.5576 13.0334 24.3175 15.288 22.2765 16.9642C18.7966 19.83 13.504 20.5628 10.5878 24.0278C7.4639 27.7421 8.83747 33.005 12.1868 36.117C14.4148 38.1937 17.4141 39.5138 20.5291 40.3089C27.2753 42.0296 72.2796 40.119 74.5224 39.1222C77.5158 37.8021 78.8567 35.2656 78.6402 32.4146C78.2871 27.7362 74.2999 23.924 69.9211 21.3341C65.5423 18.7442 60.5583 16.9553 56.4703 14.0153C54.1355 12.3362 52.1419 10.3159 49.9139 8.527C48.0448 6.9626 45.9149 5.73946 43.6216 4.9136C37.5192 2.86363 30.2983 6.34946 27.0409 10.9567Z" fill="#00B77B"/>
<path d="M66.4531 43.6998L72.8908 30.8067C72.9332 30.7231 72.9979 30.6529 73.0778 30.6039C73.1576 30.5548 73.2495 30.5289 73.3432 30.5289C73.4369 30.5289 73.5288 30.5548 73.6087 30.6039C73.6885 30.6529 73.7532 30.7231 73.7956 30.8067L80.524 43.6998" stroke="#111111" stroke-width="0.75" stroke-linecap="round" stroke-linejoin="round"/>
<path d="M52.1716 43.6998L62.3147 23.39C62.3813 23.2584 62.4831 23.1478 62.6088 23.0706C62.7345 22.9933 62.8791 22.9524 63.0267 22.9524C63.1742 22.9524 63.3188 22.9933 63.4445 23.0706C63.5702 23.1478 63.672 23.2584 63.7387 23.39L74.3534 43.6998" fill="white"/>
<path d="M52.1716 43.6998L62.3147 23.39C62.3813 23.2584 62.4831 23.1478 62.6088 23.0706C62.7345 22.9933 62.8791 22.9524 63.0267 22.9524C63.1742 22.9524 63.3188 22.9933 63.4445 23.0706C63.5702 23.1478 63.672 23.2584 63.7387 23.39L74.3534 43.6998" stroke="#111111" stroke-width="0.75" stroke-linecap="round" stroke-linejoin="round"/>
<path d="M11.3413 43.6998L16.438 33.4974C16.4604 33.443 16.4984 33.3965 16.5473 33.3637C16.5961 33.331 16.6536 33.3135 16.7125 33.3135C16.7713 33.3135 16.8288 33.331 16.8776 33.3637C16.9265 33.3965 16.9645 33.443 16.9869 33.4974L22.3269 43.7057" stroke="#111111" stroke-width="0.75" stroke-linecap="round" stroke-linejoin="round"/>
<path d="M17.343 43.6998L25.1602 28.0566C25.2116 27.9556 25.2899 27.8708 25.3865 27.8115C25.4831 27.7523 25.5942 27.7209 25.7075 27.7209C25.8209 27.7209 25.932 27.7523 26.0286 27.8115C26.1252 27.8708 26.2035 27.9556 26.2549 28.0566L34.4281 43.7087" fill="white"/>
<path d="M17.343 43.6998L25.1602 28.0566C25.2116 27.9556 25.2899 27.8708 25.3865 27.8115C25.4831 27.7523 25.5942 27.7209 25.7075 27.7209C25.8209 27.7209 25.932 27.7523 26.0286 27.8115C26.1252 27.8708 26.2035 27.9556 26.2549 28.0566L34.4281 43.7087" stroke="#111111" stroke-width="0.75" stroke-linecap="round" stroke-linejoin="round"/>
<path d="M17.248 9.23307C16.8998 9.23475 16.5663 9.37327 16.3194 9.61873C16.2706 9.20698 16.0717 8.82767 15.7608 8.55337C15.4499 8.27907 15.0487 8.12903 14.6341 8.13197C14.2195 8.13491 13.8205 8.29061 13.5135 8.56929C13.2065 8.84797 13.013 9.23007 12.97 9.64247C12.6825 9.44651 12.342 9.34301 11.994 9.3458C11.5777 9.35731 11.1779 9.51063 10.8607 9.78038C10.5434 10.0501 10.3279 10.4201 10.2496 10.8291C10.2461 10.8471 10.2466 10.8656 10.2511 10.8834C10.2556 10.9012 10.264 10.9177 10.2756 10.9319C10.2872 10.946 10.3018 10.9575 10.3183 10.9653C10.3348 10.9732 10.3529 10.9774 10.3712 10.9775H18.6215C18.6588 10.771 18.6519 10.5589 18.6011 10.3553C18.5504 10.1516 18.457 9.96111 18.3272 9.79624C18.1974 9.63137 18.0341 9.49592 17.848 9.39884C17.662 9.30176 17.4575 9.24526 17.248 9.23307Z" stroke="#111111" stroke-width="0.75" stroke-linecap="round" stroke-linejoin="round"/>
<path d="M58.6567 3.7121C59.0061 3.71581 59.34 3.85766 59.5852 4.10666C59.634 3.69491 59.8329 3.3156 60.1438 3.0413C60.4548 2.767 60.8559 2.61696 61.2705 2.6199C61.6852 2.62284 62.0841 2.77854 62.3912 3.05722C62.6982 3.3359 62.8917 3.71799 62.9346 4.1304C63.2218 3.93603 63.5609 3.83265 63.9077 3.83373C64.3244 3.84457 64.725 3.99759 65.0428 4.2674C65.3606 4.53721 65.5767 4.90758 65.655 5.31706C65.6585 5.33544 65.6579 5.35435 65.6533 5.37247C65.6486 5.39058 65.6401 5.40746 65.6282 5.42189C65.6163 5.43633 65.6014 5.44798 65.5845 5.45601C65.5676 5.46404 65.5491 5.46825 65.5304 5.46836H57.2831C57.2439 5.26099 57.2495 5.04765 57.2993 4.84259C57.3492 4.63753 57.4422 4.44547 57.5722 4.27923C57.7022 4.113 57.8662 3.97642 58.0532 3.87862C58.2402 3.78082 58.446 3.72405 58.6567 3.7121Z" stroke="#111111" stroke-width="0.75" stroke-linecap="round" stroke-linejoin="round"/>
<path d="M67.3728 13.6C67.3728 13.7819 67.3188 13.9597 67.2178 14.1109C67.1167 14.2622 66.9731 14.3801 66.8051 14.4497C66.637 14.5193 66.4521 14.5375 66.2737 14.502C66.0953 14.4665 65.9314 14.3789 65.8028 14.2503C65.6742 14.1217 65.5866 13.9578 65.5511 13.7794C65.5156 13.601 65.5338 13.4161 65.6035 13.2481C65.6731 13.08 65.7909 12.9364 65.9422 12.8353C66.0934 12.7343 66.2712 12.6803 66.4531 12.6803C66.697 12.6803 66.9309 12.7772 67.1034 12.9497C67.2759 13.1222 67.3728 13.3561 67.3728 13.6Z" stroke="#00B77B" stroke-miterlimit="10"/>
<path d="M83.9121 29.5073C83.9121 29.6893 83.8581 29.8672 83.7569 30.0185C83.6557 30.1698 83.5119 30.2877 83.3437 30.3572C83.1755 30.4267 82.9904 30.4448 82.8119 30.409C82.6334 30.3733 82.4696 30.2854 82.3411 30.1565C82.2126 30.0276 82.1252 29.8635 82.0901 29.6849C82.0549 29.5063 82.0736 29.3213 82.1436 29.1533C82.2137 28.9853 82.332 28.8419 82.4836 28.7412C82.6353 28.6405 82.8134 28.587 82.9954 28.5876C83.116 28.5876 83.2355 28.6114 83.3469 28.6577C83.4583 28.7039 83.5595 28.7717 83.6446 28.8571C83.7298 28.9426 83.7973 29.044 83.8432 29.1556C83.8891 29.2671 83.9125 29.3866 83.9121 29.5073Z" stroke="#00B77B" stroke-miterlimit="10"/>
<path d="M27.1835 2.5996C27.1835 2.85673 27.1072 3.10807 26.9643 3.32182C26.8214 3.53557 26.6183 3.70211 26.3807 3.80037C26.1431 3.89863 25.8817 3.92419 25.6295 3.87382C25.3774 3.82344 25.1459 3.69939 24.9643 3.51736C24.7826 3.33534 24.6591 3.10354 24.6093 2.85128C24.5595 2.59903 24.5857 2.33767 24.6845 2.10029C24.7833 1.86291 24.9503 1.66017 25.1644 1.51775C25.3784 1.37533 25.63 1.29962 25.8871 1.3002C26.2312 1.30099 26.5609 1.43824 26.804 1.68184C27.047 1.92544 27.1835 2.2555 27.1835 2.5996Z" stroke="#00B77B" stroke-miterlimit="10"/>
<path d="M6.67771 25.5171C6.67829 25.6991 6.62486 25.8772 6.52416 26.0288C6.42346 26.1805 6.28004 26.2988 6.11204 26.3689C5.94405 26.4389 5.75904 26.4576 5.58045 26.4224C5.40186 26.3873 5.23771 26.2999 5.10879 26.1714C4.97988 26.0429 4.892 25.8791 4.85627 25.7006C4.82054 25.5221 4.83858 25.337 4.9081 25.1688C4.97762 25.0006 5.09549 24.8568 5.24679 24.7556C5.3981 24.6544 5.57602 24.6004 5.75804 24.6004C6.00144 24.6004 6.23491 24.6969 6.4073 24.8687C6.57968 25.0405 6.67692 25.2737 6.67771 25.5171Z" stroke="#00B77B" stroke-miterlimit="10"/>
<path d="M72.5557 10.3218H77.5515" stroke="#111111" stroke-width="0.75" stroke-linecap="round" stroke-linejoin="round"/>
<path d="M80.0168 12.3184H86.146" stroke="#111111" stroke-width="0.75" stroke-linecap="round" stroke-linejoin="round"/>
<path d="M76.9434 12.3184H78.4504" stroke="#111111" stroke-width="0.75" stroke-linecap="round" stroke-linejoin="round"/>
<path d="M7.55884 2.1546H12.5547" stroke="#111111" stroke-width="0.75" stroke-linecap="round" stroke-linejoin="round"/>
<path d="M4.45874 4.15117H10.0568" stroke="#111111" stroke-width="0.75" stroke-linecap="round" stroke-linejoin="round"/>
<path d="M0.854248 4.15117H2.65205" stroke="#111111" stroke-width="0.75" stroke-linecap="round" stroke-linejoin="round"/>
<path d="M35.8994 39.1015H40.3138" stroke="#111111" stroke-width="0.75" stroke-linecap="round" stroke-linejoin="round"/>
<path d="M43.3132 39.1015H45.5234" stroke="#111111" stroke-width="0.75" stroke-linecap="round" stroke-linejoin="round"/>
<path d="M41.3018 39.1015H42.2867" stroke="#111111" stroke-width="0.75" stroke-linecap="round" stroke-linejoin="round"/>
<path d="M43.5713 41.5341H43.9688" stroke="#111111" stroke-width="0.75" stroke-linecap="round" stroke-linejoin="round"/>
<path d="M38.6584 41.5341H42.7228" stroke="#111111" stroke-width="0.75" stroke-linecap="round" stroke-linejoin="round"/>
<path d="M68.2244 43.6998H85.2975" stroke="#111111" stroke-width="0.75" stroke-linecap="round" stroke-linejoin="round"/>
<path d="M64.6938 43.6998H66.4531" stroke="#111111" stroke-width="0.75" stroke-linecap="round" stroke-linejoin="round"/>
<path d="M1.854 43.6998H62.1604" stroke="#111111" stroke-width="0.75" stroke-linecap="round" stroke-linejoin="round"/>
<path d="M41.3017 38.5793C49.9314 38.5793 56.9271 31.5836 56.9271 22.9539C56.9271 14.3242 49.9314 7.32848 41.3017 7.32848C32.672 7.32848 25.6763 14.3242 25.6763 22.9539C25.6763 31.5836 32.672 38.5793 41.3017 38.5793Z" fill="#FCCD06" stroke="#111111" stroke-width="0.75" stroke-linecap="round" stroke-linejoin="round"/>
<path d="M52.3496 11.906C54.6983 14.2535 56.2379 17.2883 56.745 20.5701C57.2521 23.8518 56.7002 27.2098 55.1696 30.1567C53.6389 33.1036 51.2091 35.4861 48.2327 36.9584C45.2563 38.4308 41.8881 38.9165 38.6169 38.345C42.2384 37.7106 45.5201 35.8195 47.885 33.0044C50.2498 30.1893 51.5462 26.6305 51.5462 22.9539C51.5462 19.2773 50.2498 15.7185 47.885 12.9034C45.5201 10.0883 42.2384 8.19723 38.6169 7.56284C41.0865 7.13009 43.624 7.29887 46.0145 8.05491C48.405 8.81094 50.578 10.1319 52.3496 11.906Z" fill="#EF9F20"/>
<path d="M41.3017 38.5793C49.9314 38.5793 56.9271 31.5836 56.9271 22.9539C56.9271 14.3242 49.9314 7.32848 41.3017 7.32848C32.672 7.32848 25.6763 14.3242 25.6763 22.9539C25.6763 31.5836 32.672 38.5793 41.3017 38.5793Z" stroke="#111111" stroke-width="0.75" stroke-linecap="round" stroke-linejoin="round"/>
<path d="M36.7539 11.1792C35.0629 12.4608 33.4905 13.6593 32.0784 15.1901C31.2593 16.1362 30.4927 17.1266 29.7822 18.1568C29.6368 14.4841 33.1434 11.1822 36.7539 11.1851V11.1792Z" fill="#FDF8CE"/>
<path d="M59.9652 35.4317C59.9658 36.4014 59.6787 37.3495 59.1403 38.1559C58.6018 38.9624 57.8363 39.591 56.9405 39.9623C56.0446 40.3335 55.0588 40.4306 54.1078 40.2414C53.1567 40.0521 52.2832 39.585 51.5977 38.8991C50.9123 38.2132 50.4457 37.3394 50.257 36.3882C50.0683 35.4371 50.1661 34.4513 50.5378 33.5557C50.9096 32.6601 51.5387 31.895 52.3455 31.357C53.1523 30.8191 54.1005 30.5326 55.0702 30.5337C56.3685 30.5353 57.6131 31.0519 58.5308 31.9702C59.4485 32.8885 59.9644 34.1334 59.9652 35.4317Z" fill="white" stroke="#111111" stroke-width="0.75" stroke-linecap="round" stroke-linejoin="round"/>
<path d="M57.2119 35.319C56.607 36.137 55.8842 36.8608 55.067 37.4668C54.2489 36.8609 53.5251 36.1371 52.9191 35.319C52.6225 34.8651 52.3851 34.248 52.6848 33.7911C52.9844 33.3343 53.6549 33.2987 54.1236 33.5538C54.4779 33.7989 54.7904 34.0994 55.0492 34.4438C55.0537 34.434 55.0597 34.425 55.067 34.4171C55.0679 34.426 55.0679 34.4349 55.067 34.4438C55.3272 34.0996 55.6406 33.7991 55.9956 33.5538C56.4613 33.2987 57.1407 33.3432 57.4314 33.7911C57.7222 34.2391 57.5175 34.8651 57.2119 35.319Z" fill="#00B77B" stroke="#111111" stroke-width="0.75" stroke-linecap="round" stroke-linejoin="round"/>
<path d="M50.4986 20.4055V19.9872C50.4986 17.5481 49.5296 15.2089 47.8049 13.4842C46.0802 11.7595 43.741 10.7906 41.3019 10.7906C38.8628 10.7906 36.5236 11.7595 34.7989 13.4842C33.0742 15.2089 32.1052 17.5481 32.1052 19.9872V20.4055C31.2387 20.7882 30.5018 21.4139 29.9837 22.2069C29.4656 22.9999 29.1885 23.9261 29.186 24.8733V25.7633C29.186 27.0616 29.7018 28.3066 30.6197 29.2246C31.5377 30.1426 32.7828 30.6583 34.081 30.6583C34.1997 30.6583 34.3154 30.6583 34.4281 30.6405V20.005C34.3154 20.005 34.1997 19.9872 34.081 19.9872C33.8166 19.9888 33.5527 20.0116 33.2919 20.0555V19.9872C33.2919 17.8629 34.1358 15.8255 35.638 14.3233C37.1401 12.8211 39.1775 11.9772 41.3019 11.9772C43.4263 11.9772 45.4637 12.8211 46.9658 14.3233C48.468 15.8255 49.3119 17.8629 49.3119 19.9872V20.0555C49.0501 20.0116 48.7852 19.9888 48.5198 19.9872C48.4041 19.9872 48.2884 19.9872 48.1727 20.005V29.4361C47.2026 31.0472 45.6982 32.267 43.9215 32.8833C43.7974 32.7438 43.6453 32.632 43.475 32.5553C43.3048 32.4787 43.1203 32.4388 42.9336 32.4383H39.6702C39.3162 32.4383 38.9766 32.579 38.7262 32.8294C38.4759 33.0797 38.3352 33.4193 38.3352 33.7733C38.3352 34.1274 38.4759 34.467 38.7262 34.7173C38.9766 34.9677 39.3162 35.1083 39.6702 35.1083H42.9336C43.243 35.1079 43.5426 34.9999 43.7813 34.8029C44.0199 34.606 44.1827 34.3322 44.2419 34.0285C46.0757 33.4058 47.6669 32.2215 48.7898 30.6435C50.0386 30.576 51.214 30.0324 52.0743 29.1247C52.9346 28.2169 53.4144 27.014 53.4148 25.7633V24.8733C53.4134 23.9263 53.137 23 52.6194 22.2069C52.1017 21.4138 51.365 20.788 50.4986 20.4055Z" fill="#00B77B" stroke="#111111" stroke-width="0.75" stroke-linecap="round" stroke-linejoin="round"/>
<path d="M34.0809 19.9843C34.1966 19.9843 34.3123 19.9843 34.428 20.0021V30.6465C34.3123 30.6465 34.1966 30.6643 34.0809 30.6643C33.1238 30.6634 32.1879 30.3818 31.389 29.8546C30.5902 29.3273 29.9635 28.5774 29.5864 27.6976C30.0386 28.3298 30.6353 28.8449 31.3267 29.1999C32.0182 29.5549 32.7845 29.7396 33.5618 29.7387C33.6775 29.7387 33.7932 29.7387 33.9089 29.7209V19.9902C33.9661 19.9853 34.0235 19.9833 34.0809 19.9843Z" fill="#009E65"/>
<path d="M41.2987 11.9743C39.3318 11.9747 37.4338 12.6988 35.9665 14.0086C34.4992 15.3184 33.565 17.1223 33.3421 19.0765C33.1502 19.0866 32.9591 19.1074 32.7695 19.1388V19.0705C32.77 17.2559 33.3866 15.4952 34.5184 14.0767C35.6502 12.6583 37.2301 11.6662 38.9994 11.2629C40.7687 10.8596 42.6225 11.069 44.2572 11.8569C45.8919 12.6448 47.2106 13.9643 47.9974 15.5995C47.2695 14.4867 46.276 13.5726 45.1065 12.9397C43.9371 12.3068 42.6284 11.975 41.2987 11.9743Z" fill="#009E65"/>
<path d="M49.9764 19.0705C49.9778 17.6619 49.6539 16.2721 49.03 15.0092C49.9473 16.4256 50.4536 18.0688 50.4926 19.7558C50.3269 19.6542 50.1544 19.564 49.9764 19.4859V19.0705Z" fill="#009E65"/>
<path d="M53.4147 24.8733V25.7633C53.4143 27.0143 52.9347 28.2176 52.0745 29.1258C51.2143 30.034 50.0388 30.5782 48.7897 30.6465C47.6661 32.2237 46.0752 33.4078 44.2418 34.0314C44.1814 34.3349 44.0178 34.608 43.7787 34.8043C43.5396 35.0007 43.2399 35.1081 42.9305 35.1083H39.6672C39.3386 35.1083 39.0215 34.9873 38.7764 34.7684C38.5313 34.5496 38.3753 34.2482 38.3381 33.9217C38.5695 34.1018 38.8548 34.199 39.148 34.1976H42.4114C42.7212 34.1972 43.0212 34.0894 43.2603 33.8924C43.4995 33.6955 43.6629 33.4217 43.7226 33.1177C45.556 32.4941 47.147 31.31 48.2705 29.7327C49.5194 29.6652 50.6948 29.1216 51.5551 28.2139C52.4154 27.3061 52.8951 26.1032 52.8956 24.8526V23.9626C52.896 23.3051 52.7638 22.6543 52.5069 22.0491C53.0981 22.872 53.4157 23.86 53.4147 24.8733Z" fill="#009E65"/>
<path d="M50.4986 20.4055V19.9872C50.4986 17.5481 49.5296 15.2089 47.8049 13.4842C46.0802 11.7595 43.741 10.7906 41.3019 10.7906C38.8628 10.7906 36.5236 11.7595 34.7989 13.4842C33.0742 15.2089 32.1052 17.5481 32.1052 19.9872V20.4055C31.2387 20.7882 30.5018 21.4139 29.9837 22.2069C29.4656 22.9999 29.1885 23.9261 29.186 24.8733V25.7633C29.186 27.0616 29.7018 28.3066 30.6197 29.2246C31.5377 30.1426 32.7828 30.6583 34.081 30.6583C34.1997 30.6583 34.3154 30.6583 34.4281 30.6405V20.005C34.3154 20.005 34.1997 19.9872 34.081 19.9872C33.8166 19.9888 33.5527 20.0116 33.2919 20.0555V19.9872C33.2919 17.8629 34.1358 15.8255 35.638 14.3233C37.1401 12.8211 39.1775 11.9772 41.3019 11.9772C43.4263 11.9772 45.4637 12.8211 46.9658 14.3233C48.468 15.8255 49.3119 17.8629 49.3119 19.9872V20.0555C49.0501 20.0116 48.7852 19.9888 48.5198 19.9872C48.4041 19.9872 48.2884 19.9872 48.1727 20.005V29.4361C47.2026 31.0472 45.6982 32.267 43.9215 32.8833C43.7974 32.7438 43.6453 32.632 43.475 32.5553C43.3048 32.4787 43.1203 32.4388 42.9336 32.4383H39.6702C39.3162 32.4383 38.9766 32.579 38.7262 32.8294C38.4759 33.0797 38.3352 33.4193 38.3352 33.7733C38.3352 34.1274 38.4759 34.467 38.7262 34.7173C38.9766 34.9677 39.3162 35.1083 39.6702 35.1083H42.9336C43.243 35.1079 43.5426 34.9999 43.7813 34.8029C44.0199 34.606 44.1827 34.3322 44.2419 34.0285C46.0757 33.4058 47.6669 32.2215 48.7898 30.6435C50.0386 30.576 51.214 30.0324 52.0743 29.1247C52.9346 28.2169 53.4144 27.014 53.4148 25.7633V24.8733C53.4134 23.9263 53.137 23 52.6194 22.2069C52.1017 21.4138 51.365 20.788 50.4986 20.4055Z" stroke="#111111" stroke-width="0.75" stroke-linecap="round" stroke-linejoin="round"/>
</svg>
