<svg width="62" height="19" viewBox="0 0 62 19" fill="none" xmlns="http://www.w3.org/2000/svg">
<mask id="path-1-outside-1_3714_203" maskUnits="userSpaceOnUse" x="0.405273" y="0.125" width="61" height="19" fill="black">
<rect fill="white" x="0.405273" y="0.125" width="61" height="19"/>
<path d="M57.1706 12.9416H55.4941C55.1215 12.9416 54.8887 12.7111 54.8887 12.3884C54.8887 12.0658 55.1681 11.8814 55.4941 11.8814H58.521L59.2196 10.3602H55.4941C53.9573 10.3602 53.0725 11.2822 53.0725 12.4806C53.0725 13.7713 53.9107 14.5089 55.2612 14.5089H56.9377C57.3103 14.5089 57.5431 14.7393 57.5431 15.062C57.5431 15.3847 57.3103 15.6151 56.9377 15.6151H53.3053V17.1363H56.9377C58.4745 17.1363 59.3593 16.2605 59.3593 14.9698C59.3593 13.6791 58.5676 12.9416 57.1706 12.9416ZM50.5112 12.9416H48.8347C48.4621 12.9416 48.2293 12.7111 48.2293 12.3884C48.2293 12.0658 48.5087 11.8814 48.8347 11.8814H51.8617L52.5602 10.3602H48.8347C47.2979 10.3602 46.4131 11.2822 46.4131 12.4806C46.4131 13.7713 47.2513 14.5089 48.6018 14.5089H50.2783C50.6509 14.5089 50.8837 14.7393 50.8837 15.062C50.8837 15.3847 50.6509 15.6151 50.2783 15.6151H46.6459V17.1363H50.2783C51.8151 17.1363 52.6999 16.2605 52.6999 14.9698C52.6999 13.6791 51.9082 12.9416 50.5112 12.9416ZM39.8934 17.0902H45.6214V15.5691H41.7096V14.4628H45.5283V12.9416H41.7096V11.8814H45.6214V10.3602H39.8934V17.0902ZM36.3076 13.2182H34.3983V11.8814H36.3076C36.8664 11.8814 37.1458 12.2041 37.1458 12.5728C37.0993 12.9416 36.8199 13.2182 36.3076 13.2182ZM38.962 12.5267C38.962 11.2361 38.0306 10.3602 36.5404 10.3602H32.6286V17.0902H34.4448V14.7393H35.0968L37.1458 17.0902H39.3811L37.1458 14.6471C38.2635 14.4167 38.962 13.5869 38.962 12.5267ZM29.1825 13.3565H27.2266V11.8814H29.1825C29.7413 11.8814 30.0208 12.2041 30.0208 12.6189C29.9742 13.0338 29.6948 13.3565 29.1825 13.3565ZM29.3688 10.3602H25.4104V17.0902H27.2266V14.8776H29.3222C30.859 14.8776 31.7904 13.9096 31.7904 12.6189C31.7904 11.2822 30.859 10.3602 29.3688 10.3602ZM25.0844 10.3602H22.756L20.9863 12.3884L19.2167 10.3602H16.8417L19.8221 13.6791L16.7951 17.0902H19.1236L20.9398 14.9698L22.8025 17.0902H25.1776L22.104 13.633L25.0844 10.3602ZM10.7877 17.0902H16.5157V15.5691H12.6039V14.4628H16.4226V12.9416H12.6039V11.8814H16.5157V10.3602H10.7877V17.0902ZM56.798 6.22751L54.0038 2.125H51.722V8.85497H53.5382V4.56807L56.3789 8.85497H58.5676V2.125H56.798V6.22751ZM46.2268 5.99704L47.1582 3.73835L48.0896 5.99704H46.2268ZM46.0405 2.125L43.0601 8.85497H45.0626L45.6214 7.4721H48.7881L49.3935 8.85497H51.4425L48.369 2.125H46.0405ZM40.0797 5.53608V5.39779C40.0797 4.38369 40.6385 3.69225 41.8027 3.69225H43.8518V2.125H41.663C39.4277 2.125 38.2635 3.55397 38.2635 5.39779V5.53608C38.2635 7.61038 39.5674 8.80887 41.5699 8.80887H42.1753L42.9204 7.28771H41.8493C40.7782 7.33381 40.0797 6.73457 40.0797 5.53608ZM35.5159 2.125V8.85497H37.3321V2.125H35.5159ZM31.8835 4.98293H29.9742V3.64616H31.8835C32.4424 3.64616 32.7218 3.96883 32.7218 4.33759C32.7218 4.70636 32.4424 4.98293 31.8835 4.98293ZM34.538 4.2915C34.538 3.00082 33.6066 2.125 32.1164 2.125H28.2046V8.85497H30.0208V6.50409H30.6727L32.7218 8.85497H35.0037L32.7683 6.4119C33.886 6.18142 34.538 5.3517 34.538 4.2915ZM21.2658 8.85497H26.9938V7.33381H23.082V6.22751H26.9006V4.70636H23.082V3.64616H26.9938V2.125H21.2658V8.85497ZM15.4912 6.3658L13.9544 2.125H11.1137V8.85497H12.8833V4.01492L14.6529 8.85497H16.2829L18.0991 4.01492V8.85497H19.8687V2.125H17.028L15.4912 6.3658ZM5.61854 5.99704L6.54992 3.73835L7.48131 5.99704H5.61854ZM5.3857 2.125L2.40527 8.85497H4.40775L4.96657 7.4721H8.13327L8.73867 8.85497H10.7877L7.76072 2.125H5.3857Z"/>
</mask>
<path d="M57.1706 12.9416H55.4941C55.1215 12.9416 54.8887 12.7111 54.8887 12.3884C54.8887 12.0658 55.1681 11.8814 55.4941 11.8814H58.521L59.2196 10.3602H55.4941C53.9573 10.3602 53.0725 11.2822 53.0725 12.4806C53.0725 13.7713 53.9107 14.5089 55.2612 14.5089H56.9377C57.3103 14.5089 57.5431 14.7393 57.5431 15.062C57.5431 15.3847 57.3103 15.6151 56.9377 15.6151H53.3053V17.1363H56.9377C58.4745 17.1363 59.3593 16.2605 59.3593 14.9698C59.3593 13.6791 58.5676 12.9416 57.1706 12.9416ZM50.5112 12.9416H48.8347C48.4621 12.9416 48.2293 12.7111 48.2293 12.3884C48.2293 12.0658 48.5087 11.8814 48.8347 11.8814H51.8617L52.5602 10.3602H48.8347C47.2979 10.3602 46.4131 11.2822 46.4131 12.4806C46.4131 13.7713 47.2513 14.5089 48.6018 14.5089H50.2783C50.6509 14.5089 50.8837 14.7393 50.8837 15.062C50.8837 15.3847 50.6509 15.6151 50.2783 15.6151H46.6459V17.1363H50.2783C51.8151 17.1363 52.6999 16.2605 52.6999 14.9698C52.6999 13.6791 51.9082 12.9416 50.5112 12.9416ZM39.8934 17.0902H45.6214V15.5691H41.7096V14.4628H45.5283V12.9416H41.7096V11.8814H45.6214V10.3602H39.8934V17.0902ZM36.3076 13.2182H34.3983V11.8814H36.3076C36.8664 11.8814 37.1458 12.2041 37.1458 12.5728C37.0993 12.9416 36.8199 13.2182 36.3076 13.2182ZM38.962 12.5267C38.962 11.2361 38.0306 10.3602 36.5404 10.3602H32.6286V17.0902H34.4448V14.7393H35.0968L37.1458 17.0902H39.3811L37.1458 14.6471C38.2635 14.4167 38.962 13.5869 38.962 12.5267ZM29.1825 13.3565H27.2266V11.8814H29.1825C29.7413 11.8814 30.0208 12.2041 30.0208 12.6189C29.9742 13.0338 29.6948 13.3565 29.1825 13.3565ZM29.3688 10.3602H25.4104V17.0902H27.2266V14.8776H29.3222C30.859 14.8776 31.7904 13.9096 31.7904 12.6189C31.7904 11.2822 30.859 10.3602 29.3688 10.3602ZM25.0844 10.3602H22.756L20.9863 12.3884L19.2167 10.3602H16.8417L19.8221 13.6791L16.7951 17.0902H19.1236L20.9398 14.9698L22.8025 17.0902H25.1776L22.104 13.633L25.0844 10.3602ZM10.7877 17.0902H16.5157V15.5691H12.6039V14.4628H16.4226V12.9416H12.6039V11.8814H16.5157V10.3602H10.7877V17.0902ZM56.798 6.22751L54.0038 2.125H51.722V8.85497H53.5382V4.56807L56.3789 8.85497H58.5676V2.125H56.798V6.22751ZM46.2268 5.99704L47.1582 3.73835L48.0896 5.99704H46.2268ZM46.0405 2.125L43.0601 8.85497H45.0626L45.6214 7.4721H48.7881L49.3935 8.85497H51.4425L48.369 2.125H46.0405ZM40.0797 5.53608V5.39779C40.0797 4.38369 40.6385 3.69225 41.8027 3.69225H43.8518V2.125H41.663C39.4277 2.125 38.2635 3.55397 38.2635 5.39779V5.53608C38.2635 7.61038 39.5674 8.80887 41.5699 8.80887H42.1753L42.9204 7.28771H41.8493C40.7782 7.33381 40.0797 6.73457 40.0797 5.53608ZM35.5159 2.125V8.85497H37.3321V2.125H35.5159ZM31.8835 4.98293H29.9742V3.64616H31.8835C32.4424 3.64616 32.7218 3.96883 32.7218 4.33759C32.7218 4.70636 32.4424 4.98293 31.8835 4.98293ZM34.538 4.2915C34.538 3.00082 33.6066 2.125 32.1164 2.125H28.2046V8.85497H30.0208V6.50409H30.6727L32.7218 8.85497H35.0037L32.7683 6.4119C33.886 6.18142 34.538 5.3517 34.538 4.2915ZM21.2658 8.85497H26.9938V7.33381H23.082V6.22751H26.9006V4.70636H23.082V3.64616H26.9938V2.125H21.2658V8.85497ZM15.4912 6.3658L13.9544 2.125H11.1137V8.85497H12.8833V4.01492L14.6529 8.85497H16.2829L18.0991 4.01492V8.85497H19.8687V2.125H17.028L15.4912 6.3658ZM5.61854 5.99704L6.54992 3.73835L7.48131 5.99704H5.61854ZM5.3857 2.125L2.40527 8.85497H4.40775L4.96657 7.4721H8.13327L8.73867 8.85497H10.7877L7.76072 2.125H5.3857Z" fill="white"/>
<path d="M57.1706 12.9416H55.4941C55.1215 12.9416 54.8887 12.7111 54.8887 12.3884C54.8887 12.0658 55.1681 11.8814 55.4941 11.8814H58.521L59.2196 10.3602H55.4941C53.9573 10.3602 53.0725 11.2822 53.0725 12.4806C53.0725 13.7713 53.9107 14.5089 55.2612 14.5089H56.9377C57.3103 14.5089 57.5431 14.7393 57.5431 15.062C57.5431 15.3847 57.3103 15.6151 56.9377 15.6151H53.3053V17.1363H56.9377C58.4745 17.1363 59.3593 16.2605 59.3593 14.9698C59.3593 13.6791 58.5676 12.9416 57.1706 12.9416ZM50.5112 12.9416H48.8347C48.4621 12.9416 48.2293 12.7111 48.2293 12.3884C48.2293 12.0658 48.5087 11.8814 48.8347 11.8814H51.8617L52.5602 10.3602H48.8347C47.2979 10.3602 46.4131 11.2822 46.4131 12.4806C46.4131 13.7713 47.2513 14.5089 48.6018 14.5089H50.2783C50.6509 14.5089 50.8837 14.7393 50.8837 15.062C50.8837 15.3847 50.6509 15.6151 50.2783 15.6151H46.6459V17.1363H50.2783C51.8151 17.1363 52.6999 16.2605 52.6999 14.9698C52.6999 13.6791 51.9082 12.9416 50.5112 12.9416ZM39.8934 17.0902H45.6214V15.5691H41.7096V14.4628H45.5283V12.9416H41.7096V11.8814H45.6214V10.3602H39.8934V17.0902ZM36.3076 13.2182H34.3983V11.8814H36.3076C36.8664 11.8814 37.1458 12.2041 37.1458 12.5728C37.0993 12.9416 36.8199 13.2182 36.3076 13.2182ZM38.962 12.5267C38.962 11.2361 38.0306 10.3602 36.5404 10.3602H32.6286V17.0902H34.4448V14.7393H35.0968L37.1458 17.0902H39.3811L37.1458 14.6471C38.2635 14.4167 38.962 13.5869 38.962 12.5267ZM29.1825 13.3565H27.2266V11.8814H29.1825C29.7413 11.8814 30.0208 12.2041 30.0208 12.6189C29.9742 13.0338 29.6948 13.3565 29.1825 13.3565ZM29.3688 10.3602H25.4104V17.0902H27.2266V14.8776H29.3222C30.859 14.8776 31.7904 13.9096 31.7904 12.6189C31.7904 11.2822 30.859 10.3602 29.3688 10.3602ZM25.0844 10.3602H22.756L20.9863 12.3884L19.2167 10.3602H16.8417L19.8221 13.6791L16.7951 17.0902H19.1236L20.9398 14.9698L22.8025 17.0902H25.1776L22.104 13.633L25.0844 10.3602ZM10.7877 17.0902H16.5157V15.5691H12.6039V14.4628H16.4226V12.9416H12.6039V11.8814H16.5157V10.3602H10.7877V17.0902ZM56.798 6.22751L54.0038 2.125H51.722V8.85497H53.5382V4.56807L56.3789 8.85497H58.5676V2.125H56.798V6.22751ZM46.2268 5.99704L47.1582 3.73835L48.0896 5.99704H46.2268ZM46.0405 2.125L43.0601 8.85497H45.0626L45.6214 7.4721H48.7881L49.3935 8.85497H51.4425L48.369 2.125H46.0405ZM40.0797 5.53608V5.39779C40.0797 4.38369 40.6385 3.69225 41.8027 3.69225H43.8518V2.125H41.663C39.4277 2.125 38.2635 3.55397 38.2635 5.39779V5.53608C38.2635 7.61038 39.5674 8.80887 41.5699 8.80887H42.1753L42.9204 7.28771H41.8493C40.7782 7.33381 40.0797 6.73457 40.0797 5.53608ZM35.5159 2.125V8.85497H37.3321V2.125H35.5159ZM31.8835 4.98293H29.9742V3.64616H31.8835C32.4424 3.64616 32.7218 3.96883 32.7218 4.33759C32.7218 4.70636 32.4424 4.98293 31.8835 4.98293ZM34.538 4.2915C34.538 3.00082 33.6066 2.125 32.1164 2.125H28.2046V8.85497H30.0208V6.50409H30.6727L32.7218 8.85497H35.0037L32.7683 6.4119C33.886 6.18142 34.538 5.3517 34.538 4.2915ZM21.2658 8.85497H26.9938V7.33381H23.082V6.22751H26.9006V4.70636H23.082V3.64616H26.9938V2.125H21.2658V8.85497ZM15.4912 6.3658L13.9544 2.125H11.1137V8.85497H12.8833V4.01492L14.6529 8.85497H16.2829L18.0991 4.01492V8.85497H19.8687V2.125H17.028L15.4912 6.3658ZM5.61854 5.99704L6.54992 3.73835L7.48131 5.99704H5.61854ZM5.3857 2.125L2.40527 8.85497H4.40775L4.96657 7.4721H8.13327L8.73867 8.85497H10.7877L7.76072 2.125H5.3857Z" stroke="#006FCF" stroke-width="2.5" mask="url(#path-1-outside-1_3714_203)"/>
</svg>
