<svg width="40" height="17" viewBox="0 0 40 17" fill="none" xmlns="http://www.w3.org/2000/svg">
<path d="M7.49197 2.23827C7.95898 1.66834 8.27589 0.90309 8.19231 0.121094C7.50867 0.154261 6.67442 0.561152 6.19143 1.13153C5.75775 1.61997 5.37392 2.41727 5.47398 3.16648C6.2414 3.23143 7.00811 2.79221 7.49197 2.23827Z" fill="#000008"/>
<path d="M8.18362 3.31278C7.06914 3.248 6.12156 3.92992 5.58934 3.92992C5.05682 3.92992 4.24182 3.34542 3.36033 3.36117C2.21301 3.37761 1.14843 4.01055 0.566212 5.01721C-0.631307 7.03104 0.250187 10.0182 1.41471 11.6584C1.98023 12.4698 2.66178 13.3633 3.55982 13.3312C4.40832 13.2987 4.74089 12.7951 5.77228 12.7951C6.80291 12.7951 7.10249 13.3312 8.00068 13.3149C8.93212 13.2987 9.51444 12.5031 10.08 11.6909C10.7287 10.7659 10.9943 9.87274 11.011 9.82371C10.9943 9.80747 9.2149 9.14144 9.1984 7.14435C9.1816 5.47216 10.5954 4.67678 10.662 4.62745C9.86356 3.47532 8.61609 3.34542 8.18362 3.31278Z" fill="#000008"/>
<path d="M17.8876 1.04973C20.3099 1.04973 21.9966 2.67887 21.9966 5.05076C21.9966 7.43112 20.2752 9.06871 17.8269 9.06871H15.1449V13.2301H13.2072V1.04973L17.8876 1.04973ZM15.1449 7.48175H17.3683C19.0554 7.48175 20.0155 6.59555 20.0155 5.05922C20.0155 3.52306 19.0554 2.64516 17.377 2.64516H15.1449V7.48175Z" fill="#000008"/>
<path d="M22.5029 10.7063C22.5029 9.15303 23.7227 8.19926 25.8857 8.08105L28.3771 7.93761V7.25395C28.3771 6.26631 27.6936 5.67546 26.5519 5.67546C25.4702 5.67546 24.7954 6.18181 24.6312 6.97537H22.8663C22.9701 5.37148 24.3715 4.18976 26.6209 4.18976C28.827 4.18976 30.237 5.32931 30.237 7.11035V13.2301H28.4462V11.7698H28.4031C27.8755 12.7574 26.7247 13.382 25.5309 13.382C23.7487 13.382 22.5029 12.3015 22.5029 10.7063ZM28.3771 9.90442V9.20383L26.1363 9.3388C25.0203 9.41484 24.3889 9.89596 24.3889 10.6557C24.3889 11.4321 25.0463 11.9386 26.0499 11.9386C27.3562 11.9386 28.3771 11.0607 28.3771 9.90442Z" fill="#000008"/>
<path d="M31.9278 16.4968V15.0196C32.0659 15.0533 32.3773 15.0533 32.5332 15.0533C33.3982 15.0533 33.8655 14.6988 34.1508 13.7872C34.1508 13.7703 34.3154 13.247 34.3154 13.2386L31.028 4.35014H33.0522L35.3536 11.5757H35.388L37.6895 4.35014H39.6619L36.2531 13.6943C35.4748 15.8469 34.575 16.539 32.689 16.539C32.5332 16.539 32.0659 16.522 31.9278 16.4968Z" fill="#000008"/>
</svg>
