<svg width="182" height="53" viewBox="0 0 182 53" fill="none" xmlns="http://www.w3.org/2000/svg">
<path d="M180.271 46.1968C180.271 48.9797 177.97 51.2338 175.123 51.2338H6.67173C3.82681 51.2338 1.51758 48.9797 1.51758 46.1968V6.028C1.51758 3.24644 3.82681 0.984375 6.67173 0.984375H175.122C177.97 0.984375 180.269 3.24644 180.269 6.028L180.271 46.1968Z" fill="black"/>
<path d="M174.58 1.04475C177.68 1.04475 180.202 3.50399 180.202 6.52622V45.6912C180.202 48.7135 177.68 51.1727 174.58 51.1727H7.20806C4.10833 51.1727 1.58604 48.7135 1.58604 45.6912V6.52622C1.58604 3.50399 4.10833 1.04475 7.20806 1.04475H174.58ZM174.58 -0.00128007H7.20806C3.52755 -0.00128007 0.513184 2.93773 0.513184 6.52622V45.6912C0.513184 49.2797 3.52755 52.2188 7.20806 52.2188H174.58C178.26 52.2188 181.275 49.2797 181.275 45.6912V6.52622C181.275 2.93773 178.26 -0.00128007 174.58 -0.00128007Z" fill="black"/>
<path d="M40.8542 25.8328C40.8154 21.6252 44.3878 19.5782 44.5511 19.4829C42.5279 16.6068 39.392 16.2139 38.2901 16.1826C35.6563 15.9123 33.1015 17.7191 31.7599 17.7191C30.3915 17.7191 28.3254 16.2087 26.0987 16.2531C23.2333 16.2961 20.5527 17.9137 19.0825 20.4254C16.0483 25.5469 18.3112 33.0731 21.2181 37.2129C22.6723 39.2403 24.3714 41.504 26.5955 41.4244C28.7713 41.3369 29.5841 40.0719 32.2098 40.0719C34.8114 40.0719 35.5746 41.4244 37.8428 41.3735C40.178 41.3369 41.6482 39.3369 43.0515 37.2912C44.7319 34.9674 45.4067 32.6789 45.4335 32.5614C45.3786 32.5431 40.8984 30.876 40.8542 25.8328Z" fill="white"/>
<path d="M36.5695 13.4593C37.7397 12.0324 38.5405 10.0911 38.3182 8.12109C36.6244 8.1942 34.5061 9.26341 33.2863 10.659C32.2071 11.8888 31.243 13.9045 31.4921 15.8C33.3948 15.9384 35.3483 14.864 36.5695 13.4593Z" fill="white"/>
<path d="M72.3432 41.1314H69.3024L67.6367 36.0282H61.847L60.2603 41.1314H57.2998L63.036 23.7578H66.5789L72.3432 41.1314ZM67.1346 33.8872L65.6282 29.3506C65.4689 28.8871 65.1703 27.7957 64.7298 26.0777H64.6762C64.5008 26.8166 64.2183 27.908 63.83 29.3506L62.3504 33.8872H67.1346Z" fill="white"/>
<path d="M87.0942 34.7107C87.0942 36.8413 86.5037 38.5254 85.3227 39.7617C84.2649 40.8622 82.9514 41.4118 81.3834 41.4118C79.691 41.4118 78.4752 40.8191 77.7347 39.6337H77.6812V46.233H74.8265V32.725C74.8265 31.3856 74.7903 30.0109 74.7207 28.6009H77.2313L77.3906 30.5866H77.4442C78.3962 29.0905 79.8409 28.3438 81.7798 28.3438C83.2955 28.3438 84.5608 28.9273 85.5731 30.0957C86.588 31.2655 87.0942 32.8033 87.0942 34.7107ZM84.1859 34.8125C84.1859 33.5932 83.9047 32.5879 83.3397 31.7968C82.7224 30.9717 81.8936 30.5592 80.8545 30.5592C80.1502 30.5592 79.5102 30.789 78.9385 31.242C78.3654 31.6989 77.9905 32.2955 77.8151 33.0344C77.7267 33.3791 77.6825 33.6611 77.6825 33.883V35.9718C77.6825 36.883 77.9691 37.652 78.5421 38.2799C79.1152 38.9079 79.8597 39.2212 80.7755 39.2212C81.8507 39.2212 82.6876 38.8165 83.2861 38.0097C83.886 37.2016 84.1859 36.1363 84.1859 34.8125Z" fill="white"/>
<path d="M101.873 34.7107C101.873 36.8413 101.283 38.5254 100.1 39.7617C99.0439 40.8622 97.7303 41.4118 96.1624 41.4118C94.4699 41.4118 93.2541 40.8191 92.515 39.6337H92.4614V46.233H89.6068V32.725C89.6068 31.3856 89.5706 30.0109 89.501 28.6009H92.0116L92.1709 30.5866H92.2244C93.1751 29.0905 94.6199 28.3438 96.5601 28.3438C98.0744 28.3438 99.3398 28.9273 100.355 30.0957C101.366 31.2655 101.873 32.8033 101.873 34.7107ZM98.9649 34.8125C98.9649 33.5932 98.6823 32.5879 98.1173 31.7968C97.5 30.9717 96.6739 30.5592 95.6335 30.5592C94.9278 30.5592 94.2892 30.789 93.7161 31.242C93.143 31.6989 92.7694 32.2955 92.594 33.0344C92.507 33.3791 92.4614 33.6611 92.4614 33.883V35.9718C92.4614 36.883 92.748 37.652 93.3184 38.2799C93.8915 38.9066 94.636 39.2212 95.5545 39.2212C96.6297 39.2212 97.4665 38.8165 98.0651 38.0097C98.6649 37.2016 98.9649 36.1363 98.9649 34.8125Z" fill="white"/>
<path d="M118.396 36.2561C118.396 37.7339 117.87 38.9362 116.813 39.8645C115.652 40.8788 114.036 41.3854 111.959 41.3854C110.042 41.3854 108.505 41.025 107.341 40.3031L108.003 37.9832C109.256 38.7221 110.631 39.0929 112.129 39.0929C113.205 39.0929 114.042 38.8553 114.643 38.3827C115.241 37.9101 115.54 37.2756 115.54 36.4845C115.54 35.7795 115.293 35.1855 114.799 34.7038C114.308 34.2221 113.487 33.7743 112.341 33.3605C109.221 32.226 107.663 30.5641 107.663 28.3787C107.663 26.9504 108.209 25.7794 109.303 24.8682C110.393 23.9556 111.847 23.5 113.665 23.5C115.287 23.5 116.634 23.7755 117.709 24.3251L116.995 26.594C115.991 26.0614 114.856 25.7951 113.585 25.7951C112.581 25.7951 111.796 26.0366 111.234 26.517C110.758 26.9465 110.52 27.47 110.52 28.0901C110.52 28.7768 110.792 29.3447 111.338 29.7912C111.813 30.2037 112.677 30.6502 113.93 31.132C115.464 31.7338 116.59 32.4375 117.314 33.2443C118.036 34.0484 118.396 35.055 118.396 36.2561Z" fill="white"/>
<path d="M127.834 30.6868H124.688V36.7691C124.688 38.3162 125.242 39.089 126.353 39.089C126.863 39.089 127.287 39.0459 127.621 38.9598L127.7 41.0734C127.138 41.2783 126.398 41.3815 125.48 41.3815C124.353 41.3815 123.472 41.046 122.836 40.3762C122.203 39.7052 121.884 38.5799 121.884 36.9989V30.6842H120.009V28.5954H121.884V26.3016L124.688 25.4766V28.5954H127.834V30.6868Z" fill="white"/>
<path d="M142.032 34.7603C142.032 36.6859 141.467 38.2669 140.339 39.5032C139.157 40.776 137.588 41.4105 135.632 41.4105C133.746 41.4105 132.245 40.8008 131.126 39.5815C130.006 38.3622 129.447 36.823 129.447 34.9679C129.447 33.0266 130.023 31.4365 131.178 30.2002C132.331 28.9626 133.887 28.3438 135.843 28.3438C137.728 28.3438 139.245 28.9534 140.39 30.1741C141.485 31.3582 142.032 32.8869 142.032 34.7603ZM139.07 34.8504C139.07 33.695 138.817 32.7041 138.304 31.8777C137.706 30.8777 136.85 30.379 135.741 30.379C134.594 30.379 133.722 30.879 133.124 31.8777C132.611 32.7054 132.358 33.712 132.358 34.9026C132.358 36.058 132.611 37.0488 133.124 37.8739C133.741 38.8739 134.603 39.3726 135.716 39.3726C136.806 39.3726 137.661 38.8635 138.279 37.8478C138.805 37.0057 139.07 36.0044 139.07 34.8504Z" fill="white"/>
<path d="M151.311 31.0487C151.028 30.9978 150.727 30.9717 150.411 30.9717C149.407 30.9717 148.63 31.3412 148.084 32.0814C147.609 32.7341 147.37 33.5592 147.37 34.5553V41.1285H144.517L144.544 32.5462C144.544 31.1023 144.507 29.7876 144.437 28.6022H146.923L147.027 30.9991H147.106C147.408 30.1754 147.883 29.5122 148.534 29.0148C149.17 28.567 149.857 28.3438 150.597 28.3438C150.861 28.3438 151.099 28.362 151.311 28.3947V31.0487Z" fill="white"/>
<path d="M164.078 34.2721C164.078 34.7708 164.044 35.1912 163.974 35.5345H155.409C155.443 36.7721 155.857 37.7186 156.652 38.3714C157.374 38.9549 158.307 39.2474 159.453 39.2474C160.721 39.2474 161.878 39.0502 162.918 38.6547L163.366 40.5868C162.15 41.1038 160.714 41.361 159.058 41.361C157.066 41.361 155.502 40.7891 154.364 39.6468C153.228 38.5045 152.659 36.9706 152.659 35.0463C152.659 33.1572 153.188 31.5841 154.247 30.3295C155.356 28.99 156.854 28.3203 158.739 28.3203C160.591 28.3203 161.993 28.99 162.945 30.3295C163.699 31.3935 164.078 32.7094 164.078 34.2721ZM161.356 33.5501C161.375 32.7251 161.188 32.0123 160.801 31.4104C160.307 30.6363 159.548 30.2498 158.527 30.2498C157.593 30.2498 156.834 30.6271 156.254 31.3843C155.779 31.9862 155.496 32.7081 155.409 33.5488H161.356V33.5501Z" fill="white"/>
<path d="M66.1908 13.0629C66.1908 14.5995 65.7181 15.7561 64.7741 16.5329C63.8998 17.2496 62.6572 17.6086 61.0478 17.6086C60.2497 17.6086 59.5669 17.5747 58.9951 17.5068V9.11114C59.7409 8.99365 60.5443 8.93359 61.412 8.93359C62.9451 8.93359 64.1006 9.25866 64.8799 9.9088C65.7529 10.6438 66.1908 11.6947 66.1908 13.0629ZM64.7112 13.1008C64.7112 12.1047 64.4407 11.3409 63.8998 10.8083C63.3588 10.277 62.5688 10.0106 61.5285 10.0106C61.0866 10.0106 60.7103 10.0394 60.3984 10.0994V16.482C60.5711 16.5081 60.8871 16.5199 61.3464 16.5199C62.4202 16.5199 63.249 16.2287 63.8328 15.6465C64.4166 15.0642 64.7112 14.2157 64.7112 13.1008Z" fill="white"/>
<path d="M74.0356 14.4093C74.0356 15.3558 73.7584 16.1312 73.2041 16.7396C72.6229 17.3649 71.853 17.677 70.8917 17.677C69.9651 17.677 69.2273 17.378 68.677 16.7775C68.128 16.1782 67.8535 15.4224 67.8535 14.5111C67.8535 13.5581 68.136 12.7761 68.7038 12.1691C69.2715 11.562 70.0347 11.2578 70.9961 11.2578C71.9227 11.2578 72.6671 11.5568 73.2308 12.156C73.7664 12.7382 74.0356 13.4902 74.0356 14.4093ZM72.5801 14.4537C72.5801 13.8858 72.4542 13.3988 72.2039 12.9928C71.9093 12.502 71.4902 12.2565 70.9452 12.2565C70.3815 12.2565 69.953 12.502 69.6585 12.9928C69.4067 13.3988 69.2822 13.8936 69.2822 14.4785C69.2822 15.0464 69.4081 15.5333 69.6585 15.9393C69.9624 16.4302 70.3855 16.6756 70.9318 16.6756C71.4674 16.6756 71.8878 16.4263 72.1905 15.9263C72.4502 15.5124 72.5801 15.0216 72.5801 14.4537Z" fill="white"/>
<path d="M84.5549 11.3789L82.5799 17.533H81.2945L80.4763 14.8607C80.2688 14.1936 80.1001 13.5304 79.9689 12.8724H79.9434C79.8216 13.5486 79.6529 14.2105 79.436 14.8607L78.567 17.533H77.2668L75.4097 11.3789H76.8517L77.5654 14.3045C77.7381 14.9964 77.8801 15.6557 77.9939 16.2798H78.0193C78.1238 15.7654 78.2965 15.11 78.5402 14.3176L79.436 11.3802H80.5794L81.4377 14.2549C81.6453 14.956 81.814 15.6309 81.9439 16.2811H81.9827C82.0778 15.6479 82.221 14.973 82.4112 14.2549L83.1771 11.3802H84.5549V11.3789Z" fill="white"/>
<path d="M91.829 17.5334H90.4258V14.0085C90.4258 12.9223 90.0027 12.3793 89.1537 12.3793C88.7373 12.3793 88.4012 12.5281 88.1401 12.827C87.8817 13.126 87.7505 13.4785 87.7505 13.8819V17.5321H86.3473V13.1378C86.3473 12.5973 86.3299 12.0111 86.2964 11.3766H87.5296L87.5952 12.3388H87.634C87.7974 12.0398 88.0411 11.7931 88.3611 11.596C88.7413 11.3662 89.1671 11.25 89.6331 11.25C90.2222 11.25 90.7123 11.4354 91.102 11.8074C91.5867 12.2631 91.829 12.9432 91.829 13.8466V17.5334Z" fill="white"/>
<path d="M95.6993 17.5326H94.2974V8.55469H95.6993V17.5326Z" fill="white"/>
<path d="M103.96 14.4093C103.96 15.3558 103.683 16.1312 103.129 16.7396C102.548 17.3649 101.777 17.677 100.816 17.677C99.8886 17.677 99.1508 17.378 98.6018 16.7775C98.0528 16.1782 97.7783 15.4224 97.7783 14.5111C97.7783 13.5581 98.0608 12.7761 98.6286 12.1691C99.1963 11.562 99.9595 11.2578 100.92 11.2578C101.847 11.2578 102.591 11.5568 103.156 12.156C103.691 12.7382 103.96 13.4902 103.96 14.4093ZM102.504 14.4537C102.504 13.8858 102.378 13.3988 102.127 12.9928C101.834 12.502 101.414 12.2565 100.87 12.2565C100.305 12.2565 99.8765 12.502 99.5833 12.9928C99.3315 13.3988 99.207 13.8936 99.207 14.4785C99.207 15.0464 99.3329 15.5333 99.5833 15.9393C99.8872 16.4302 100.31 16.6756 100.857 16.6756C101.392 16.6756 101.811 16.4263 102.114 15.9263C102.375 15.5124 102.504 15.0216 102.504 14.4537Z" fill="white"/>
<path d="M110.752 17.5373H109.492L109.388 16.8284H109.349C108.918 17.3937 108.303 17.677 107.505 17.677C106.909 17.677 106.427 17.4903 106.064 17.1195C105.735 16.7827 105.57 16.3636 105.57 15.8662C105.57 15.1143 105.892 14.5411 106.538 14.1443C107.184 13.7474 108.092 13.5529 109.261 13.562V13.4471C109.261 12.6364 108.824 12.2317 107.95 12.2317C107.327 12.2317 106.778 12.3845 106.304 12.6873L106.019 11.7892C106.605 11.4354 107.33 11.2578 108.184 11.2578C109.834 11.2578 110.661 12.1064 110.661 13.8035V16.0699C110.661 16.6848 110.692 17.1743 110.752 17.5373ZM109.295 15.4224V14.4733C107.747 14.4472 106.974 14.861 106.974 15.7135C106.974 16.0346 107.062 16.2749 107.243 16.4354C107.423 16.596 107.654 16.6756 107.928 16.6756C108.236 16.6756 108.524 16.5803 108.787 16.391C109.05 16.2004 109.212 15.9589 109.273 15.6626C109.287 15.596 109.295 15.515 109.295 15.4224Z" fill="white"/>
<path d="M118.726 17.5326H117.48L117.415 16.5444H117.376C116.978 17.2963 116.301 17.6723 115.349 17.6723C114.588 17.6723 113.955 17.3812 113.453 16.7989C112.951 16.2167 112.7 15.4608 112.7 14.5326C112.7 13.5365 112.972 12.7297 113.518 12.1135C114.047 11.5391 114.695 11.2519 115.467 11.2519C116.314 11.2519 116.907 11.5299 117.245 12.0874H117.271V8.55469H118.676V15.8746C118.676 16.4739 118.692 17.0261 118.726 17.5326ZM117.271 14.9373V13.9112C117.271 13.7336 117.258 13.59 117.233 13.4803C117.154 13.1514 116.984 12.8746 116.725 12.6513C116.464 12.4281 116.149 12.3158 115.787 12.3158C115.263 12.3158 114.853 12.5182 114.552 12.9242C114.253 13.3302 114.102 13.8485 114.102 14.4817C114.102 15.09 114.245 15.5835 114.533 15.9634C114.837 16.3681 115.247 16.5705 115.76 16.5705C116.22 16.5705 116.589 16.4021 116.868 16.0639C117.139 15.7519 117.271 15.3759 117.271 14.9373Z" fill="white"/>
<path d="M130.726 14.4093C130.726 15.3558 130.449 16.1312 129.895 16.7396C129.314 17.3649 128.545 17.677 127.583 17.677C126.657 17.677 125.92 17.378 125.368 16.7775C124.819 16.1782 124.544 15.4224 124.544 14.5111C124.544 13.5581 124.827 12.7761 125.395 12.1691C125.962 11.562 126.726 11.2578 127.688 11.2578C128.614 11.2578 129.359 11.5568 129.922 12.156C130.457 12.7382 130.726 13.4902 130.726 14.4093ZM129.272 14.4537C129.272 13.8858 129.146 13.3988 128.896 12.9928C128.6 12.502 128.182 12.2565 127.636 12.2565C127.074 12.2565 126.645 12.502 126.349 12.9928C126.098 13.3988 125.973 13.8936 125.973 14.4785C125.973 15.0464 126.099 15.5333 126.349 15.9393C126.653 16.4302 127.076 16.6756 127.623 16.6756C128.158 16.6756 128.58 16.4263 128.883 15.9263C129.141 15.5124 129.272 15.0216 129.272 14.4537Z" fill="white"/>
<path d="M138.272 17.5334H136.87V14.0085C136.87 12.9223 136.447 12.3793 135.597 12.3793C135.18 12.3793 134.844 12.5281 134.584 12.827C134.325 13.126 134.195 13.4785 134.195 13.8819V17.5321H132.79V13.1378C132.79 12.5973 132.774 12.0111 132.741 11.3766H133.973L134.038 12.3388H134.077C134.242 12.0398 134.485 11.7931 134.804 11.596C135.186 11.3662 135.61 11.25 136.077 11.25C136.665 11.25 137.155 11.4354 137.545 11.8074C138.031 12.2631 138.272 12.9432 138.272 13.8466V17.5334Z" fill="white"/>
<path d="M147.715 12.4051H146.17V15.3947C146.17 16.1545 146.445 16.5344 146.988 16.5344C147.24 16.5344 147.449 16.5135 147.614 16.4705L147.65 17.5083C147.373 17.6102 147.008 17.6611 146.56 17.6611C146.005 17.6611 145.574 17.4966 145.262 17.1676C144.949 16.8386 144.794 16.2851 144.794 15.5083V12.4051H143.871V11.3803H144.794V10.2524L146.169 9.84766V11.379H147.714V12.4051H147.715Z" fill="white"/>
<path d="M155.144 17.5326H153.74V14.0339C153.74 12.9307 153.317 12.3785 152.469 12.3785C151.818 12.3785 151.374 12.6983 151.13 13.338C151.089 13.4725 151.065 13.637 151.065 13.8302V17.5313H149.663V8.55469H151.065V12.2636H151.091C151.533 11.5887 152.166 11.2519 152.987 11.2519C153.568 11.2519 154.049 11.4372 154.431 11.8093C154.906 12.2728 155.144 12.9621 155.144 13.8733V17.5326Z" fill="white"/>
<path d="M162.807 14.1652C162.807 14.4106 162.788 14.6169 162.755 14.7853H158.546C158.565 15.3937 158.766 15.8571 159.156 16.1783C159.512 16.4655 159.971 16.6091 160.533 16.6091C161.156 16.6091 161.724 16.5125 162.235 16.318L162.455 17.2684C161.856 17.5216 161.152 17.6483 160.337 17.6483C159.359 17.6483 158.589 17.3676 158.032 16.8062C157.472 16.2449 157.195 15.4916 157.195 14.5464C157.195 13.6182 157.454 12.8453 157.975 12.2291C158.518 11.5712 159.253 11.2422 160.181 11.2422C161.089 11.2422 161.779 11.5712 162.245 12.2291C162.621 12.7513 162.807 13.3976 162.807 14.1652ZM161.468 13.8114C161.479 13.4054 161.386 13.0555 161.196 12.7605C160.952 12.3806 160.582 12.19 160.079 12.19C159.622 12.19 159.248 12.3754 158.963 12.7474C158.73 13.0438 158.592 13.3976 158.546 13.8114H161.468Z" fill="white"/>
</svg>
