<svg width="100" height="34" viewBox="0 0 100 34" fill="none" xmlns="http://www.w3.org/2000/svg">
<g clip-path="url(#clip0_3526_311)">
<path fill-rule="evenodd" clip-rule="evenodd" d="M2.40806 24.8885C0.150411 22.65 0.150447 19.0207 2.40812 16.7822L8.54007 10.7023C10.4486 8.81001 13.3596 8.51735 15.5781 9.82435C16.2644 10.2286 16.2584 11.156 15.694 11.7156C15.1296 12.2752 14.2082 12.2271 13.4421 12.0049C12.461 11.7204 11.3578 11.9618 10.5841 12.7289L4.45209 18.8087C3.32325 19.928 3.32323 21.7426 4.45206 22.8619C5.5809 23.9812 7.41115 23.9812 8.53999 22.8619L20.8038 10.7024C23.0615 8.4639 26.7219 8.46389 28.9796 10.7024L35.1116 16.7822C37.3693 19.0206 37.3693 22.65 35.1116 24.8885C32.854 27.127 29.1935 27.127 26.9358 24.8885L24.8919 22.8619L22.3369 25.3952C20.4283 27.2875 17.5174 27.5801 15.2987 26.2731C14.6125 25.8688 14.6185 24.9415 15.183 24.3818C15.7474 23.8222 16.6687 23.8703 17.4349 24.0925C18.4159 24.377 19.5192 24.1357 20.2929 23.3685L22.9209 20.7629C24.0094 19.6837 25.7742 19.6837 26.8628 20.7629L28.9798 22.8619C30.1086 23.9811 31.9388 23.9811 33.0676 22.8619C34.1965 21.7426 34.1965 19.928 33.0676 18.8087L26.9356 12.729C25.8068 11.6097 23.9766 11.6097 22.8478 12.729L10.584 24.8885C8.32624 27.127 4.66575 27.127 2.40806 24.8885Z" fill="#1D2D35" fill-opacity="0.5"/>
<path d="M59.8964 12.2722C58.4758 12.2722 57.3995 12.7809 56.6892 13.7983C56.065 12.7809 55.0749 12.2722 53.7619 12.2722C52.4059 12.2722 51.4157 12.7385 50.77 13.6924V12.569H47.9934V23.1668H50.77V17.2108C50.77 15.6636 51.5664 14.8157 52.7933 14.8157C53.9341 14.8157 54.6014 15.5576 54.6014 16.8293V23.1668H57.378V17.2108C57.378 15.6636 58.1099 14.8157 59.3798 14.8157C60.5206 14.8157 61.1878 15.5576 61.1878 16.8293V23.1668H63.9645V16.6385C63.9645 13.9891 62.3717 12.2722 59.8964 12.2722Z" fill="#1D2D35" fill-opacity="0.5"/>
<path d="M74.2867 13.8195C73.4473 12.7809 72.285 12.2722 70.7783 12.2722C69.3361 12.2722 68.1093 12.8233 67.0761 13.9043C66.0644 14.9853 65.5478 16.2994 65.5478 17.8679C65.5478 19.4364 66.0644 20.7717 67.0761 21.8527C68.1093 22.9337 69.3361 23.4636 70.7783 23.4636C72.285 23.4636 73.4473 22.9549 74.2867 21.9163V23.1668H77.0636V12.569H74.2867V13.8195ZM69.164 20.0299C68.6043 19.4576 68.3245 18.7369 68.3245 17.8679C68.3245 16.9989 68.6043 16.2782 69.164 15.7271C69.7236 15.1549 70.4339 14.8793 71.2948 14.8793C72.1558 14.8793 72.8661 15.1549 73.4258 15.7271C74.0069 16.2782 74.2867 16.9989 74.2867 17.8679C74.2867 18.7369 74.0069 19.4576 73.4258 20.0299C72.8661 20.581 72.1558 20.8565 71.2948 20.8565C70.4339 20.8565 69.7236 20.581 69.164 20.0299Z" fill="#1D2D35" fill-opacity="0.5"/>
<path d="M87.3087 14.3918V12.5689H79.237V15.1336H83.5632L79.0212 21.344V23.1668H87.5238V20.6021H82.7449L87.3087 14.3918Z" fill="#1D2D35" fill-opacity="0.5"/>
<path d="M99.1334 18.9913C99.198 18.5886 99.2409 18.2283 99.2409 17.8679C99.2409 16.2782 98.725 14.9641 97.6916 13.8831C96.68 12.8021 95.3668 12.2722 93.7957 12.2722C92.138 12.2722 90.7609 12.8021 89.7057 13.8831C88.6512 14.9429 88.1127 16.2782 88.1127 17.8679C88.1127 19.4788 88.6512 20.8142 89.7275 21.8739C90.8038 22.9337 92.2245 23.4636 94.0108 23.4636C96.0768 23.4636 97.6487 22.7005 98.7032 21.1956L96.4649 19.9239C95.9264 20.6234 95.1088 20.9837 94.0536 20.9837C92.3967 20.9837 91.3851 20.3266 91.0189 18.9913H99.1334ZM90.976 16.8717C91.2987 15.5152 92.3102 14.7309 93.7957 14.7309C95.0652 14.7309 96.1415 15.4304 96.4649 16.8717H90.976Z" fill="#1D2D35" fill-opacity="0.5"/>
</g>
<defs>
<clipPath id="clip0_3526_311">
<rect width="98.5839" height="33.3241" fill="white" transform="translate(0.714844)"/>
</clipPath>
</defs>
</svg>
