<svg width="109" height="34" viewBox="0 0 109 34" fill="none" xmlns="http://www.w3.org/2000/svg">
<path d="M8.87308 18.1843C8.87308 16.3747 7.51207 15.1029 5.84026 15.1029C4.16844 15.1029 2.80742 16.3962 2.80742 18.1843C2.80742 19.9509 4.16844 21.2656 5.84026 21.2656C7.51376 21.2639 8.87308 19.9938 8.87308 18.1843ZM8.89698 23.5701V22.1696C8.07217 23.1395 6.84436 23.7416 5.37406 23.7416C2.31902 23.7416 0 21.3712 0 18.1843C0 15.0172 2.40782 12.6055 5.44236 12.6055C6.87001 12.6055 8.07392 13.2093 8.89867 14.1561V12.7985H11.6412V23.5701H8.89698Z" fill="#1D2D35" fill-opacity="0.5"/>
<path d="M24.9627 21.1782C24.003 21.1782 23.7366 20.8334 23.7366 19.9295V15.1474H25.4989V12.7985H23.7366V10.1708H20.9257V12.7985H17.3055V12.1436C17.3055 11.238 17.6624 10.8933 18.6443 10.8933H19.2608V8.80331H17.9083C15.5892 8.80331 14.4963 9.53571 14.4963 11.7758V12.7969H12.9355V15.1458H14.4963V23.5684H17.3072V15.1458H20.9274V20.4243C20.9274 22.6215 21.7967 23.57 24.0713 23.57H25.5211V21.1782H24.9627Z" fill="#1D2D35" fill-opacity="0.5"/>
<path d="M35.0432 17.2143C34.8434 15.8138 33.66 14.9742 32.2785 14.9742C30.8952 14.9742 29.758 15.7924 29.4694 17.2143H35.0432ZM29.4455 18.8952C29.647 20.4886 30.8287 21.3942 32.3229 21.3942C33.5046 21.3942 34.4199 20.8548 34.9544 19.9937H37.8318C37.1624 22.2767 35.0432 23.7415 32.2563 23.7415C28.8887 23.7415 26.5253 21.4585 26.5253 18.2056C26.5253 14.9528 29.0237 12.6038 32.3246 12.6038C35.6478 12.6038 38.0556 14.9742 38.0556 18.2056C38.0556 18.4432 38.0334 18.6791 37.9889 18.8952H29.4455Z" fill="#1D2D35" fill-opacity="0.5"/>
<path d="M55.9264 18.1843C55.9264 16.439 54.5654 15.1029 52.8935 15.1029C51.2217 15.1029 49.8607 16.3962 49.8607 18.1843C49.8607 19.9509 51.2217 21.2656 52.8935 21.2656C54.5654 21.2639 55.9264 19.9295 55.9264 18.1843ZM47.0943 12.7985H49.8368V14.199C50.6616 13.2076 51.8877 12.6055 53.3597 12.6055C56.3703 12.6055 58.7338 14.9973 58.7338 18.1628C58.7338 21.3299 56.3259 23.7432 53.2931 23.7432C51.8877 23.7432 50.7282 23.2038 49.9256 22.2999V28.0024H47.0943V12.7985Z" fill="#1D2D35" fill-opacity="0.5"/>
<path d="M68.6195 18.1843C68.6195 16.3747 67.2602 15.1029 65.5865 15.1029C63.9148 15.1029 62.5538 16.3962 62.5538 18.1843C62.5538 19.9509 63.9148 21.2656 65.5865 21.2656C67.2602 21.2639 68.6195 19.9938 68.6195 18.1843ZM68.6435 23.5701V22.1696C67.8187 23.1395 66.5906 23.7416 65.1202 23.7416C62.0654 23.7416 59.7464 21.3712 59.7464 18.1843C59.7464 15.0172 62.1542 12.6055 65.1871 12.6055C66.6146 12.6055 67.8187 13.2093 68.6435 14.1561V12.7985H71.3862V23.5701H68.6435Z" fill="#1D2D35" fill-opacity="0.5"/>
<path d="M42.1505 13.8542C42.1505 13.8542 42.849 12.6055 44.5583 12.6055C45.2892 12.6055 45.7623 12.848 45.7623 12.848V15.5961C45.7623 15.5961 44.7308 14.9808 43.783 15.1046C42.8353 15.2283 42.2359 16.0695 42.2393 17.1945V23.5717H39.408V12.8002H42.1505V13.8542Z" fill="#1D2D35" fill-opacity="0.5"/>
<path d="M84.1949 12.7985L77.2704 27.9677H74.3504L77.069 22.1035L72.4721 12.7985H75.7818L78.4712 19.0156L81.2308 12.7985H84.1949Z" fill="#1D2D35" fill-opacity="0.5"/>
<path d="M106.3 12.5544L99.4348 8.72743C97.4195 7.60409 94.9008 9.00785 94.9008 11.2562V11.6488C94.9008 12.0034 95.097 12.3317 95.4146 12.5082L96.7109 13.2307C97.0915 13.4435 97.5662 13.1779 97.5662 12.754V11.7774C97.5662 11.2892 98.1131 10.984 98.5502 11.2281L104.496 14.5437C104.934 14.7878 104.934 15.3982 104.496 15.6407L98.5502 18.9563C98.1131 19.2004 97.5662 18.8952 97.5662 18.4069V17.8873C97.5662 15.639 95.0476 14.2336 93.031 15.3586L86.1662 19.1855C84.151 20.3089 84.151 23.1197 86.1662 24.243L93.031 28.07C95.0457 29.1933 97.5662 27.7895 97.5662 25.5412V25.1486C97.5662 24.794 97.3701 24.4673 97.0525 24.2892L95.7562 23.565C95.3756 23.3523 94.9008 23.6178 94.9008 24.0418V25.0183C94.9008 25.5066 94.3547 25.8117 93.9169 25.5676L87.9711 22.252C87.534 22.0079 87.534 21.3976 87.9711 21.1535L93.9169 17.8378C94.3547 17.5937 94.9008 17.8989 94.9008 18.3871V18.9068C94.9008 21.1551 97.4195 22.5605 99.4348 21.4355L106.3 17.6086C108.315 16.4885 108.315 13.6777 106.3 12.5544Z" fill="#1D2D35" fill-opacity="0.5"/>
</svg>
