<svg width="43" height="17" viewBox="0 0 43 17" fill="none" xmlns="http://www.w3.org/2000/svg">
<path d="M20.351 13.2747H18.799V1.32131H22.9133C23.956 1.32131 24.8452 1.66535 25.5726 2.35343C26.3163 3.04151 26.6881 3.8816 26.6881 4.87371C26.6881 5.88982 26.3163 6.72992 25.5726 7.40999C24.8532 8.09007 23.9641 8.42611 22.9133 8.42611H20.351V13.2747ZM20.351 2.79348V6.96194H22.9456C23.56 6.96194 24.0773 6.75392 24.4814 6.34588C24.8937 5.93783 25.1038 5.44177 25.1038 4.88171C25.1038 4.32965 24.8937 3.8416 24.4814 3.43355C24.0773 3.0095 23.568 2.80148 22.9456 2.80148H20.351V2.79348Z" fill="#3C4043"/>
<path d="M30.7456 4.82571C31.8934 4.82571 32.7987 5.12974 33.4615 5.73781C34.1243 6.34587 34.4557 7.17797 34.4557 8.23409V13.2747H32.9765V12.1385H32.9119C32.2733 13.0746 31.4165 13.5387 30.3495 13.5387C29.4362 13.5387 28.6764 13.2746 28.062 12.7386C27.4477 12.2025 27.1406 11.5385 27.1406 10.7384C27.1406 9.89027 27.4639 9.21819 28.1105 8.72214C28.7572 8.21808 29.6221 7.97006 30.6971 7.97006C31.6186 7.97006 32.3784 8.13808 32.9684 8.47411V8.12207C32.9684 7.58601 32.7583 7.13796 32.3299 6.76192C31.9015 6.38588 31.4003 6.20186 30.8264 6.20186C29.9616 6.20186 29.2745 6.5619 28.7733 7.28998L27.4073 6.44188C28.159 5.36176 29.2745 4.82571 30.7456 4.82571ZM28.741 10.7624C28.741 11.1624 28.9108 11.4985 29.2583 11.7625C29.5978 12.0265 30.002 12.1625 30.4627 12.1625C31.1174 12.1625 31.6994 11.9225 32.2086 11.4424C32.7179 10.9624 32.9765 10.4023 32.9765 9.75426C32.4915 9.37821 31.8207 9.18619 30.9558 9.18619C30.3253 9.18619 29.7999 9.33821 29.3796 9.63424C28.9512 9.94628 28.741 10.3223 28.741 10.7624Z" fill="#3C4043"/>
<path d="M42.8945 5.08981L37.7213 16.8671H36.1209L38.0447 12.7467L34.6336 5.08981H36.323L38.7802 10.9625H38.8126L41.2051 5.08981H42.8945Z" fill="#3C4043"/>
<path d="M14.1779 7.458C14.1779 6.95715 14.1326 6.47789 14.0485 6.01704H7.54332V8.65734L11.2898 8.65814C11.1378 9.53664 10.6488 10.2855 9.89952 10.7848V12.4978H12.1296C13.4318 11.3048 14.1779 9.54144 14.1779 7.458Z" fill="#4285F4"/>
<path d="M9.90031 10.7849C9.27954 11.1993 8.48012 11.4417 7.54492 11.4417C5.73836 11.4417 4.20582 10.2368 3.65698 8.61261H1.35655V10.3792C2.49626 12.6179 4.83872 14.154 7.54492 14.154C9.41533 14.154 10.9867 13.5452 12.1304 12.4971L9.90031 10.7849Z" fill="#34A853"/>
<path d="M3.44029 7.30197C3.44029 6.84592 3.51707 6.40507 3.65691 5.99063V4.22403H1.35648C0.885239 5.14973 0.620117 6.19465 0.620117 7.30197C0.620117 8.40929 0.886048 9.45421 1.35648 10.3799L3.65691 8.61332C3.51707 8.19887 3.44029 7.75802 3.44029 7.30197Z" fill="#FABB05"/>
<path d="M7.54492 3.16152C8.5658 3.16152 9.47999 3.50956 10.2018 4.18964L12.1781 2.23502C10.9778 1.1285 9.41291 0.449219 7.54492 0.449219C4.83953 0.449219 2.49619 1.98538 1.35648 4.22403L3.65691 5.99063C4.20575 4.36644 5.73836 3.16152 7.54492 3.16152Z" fill="#E94235"/>
</svg>
