<svg width="181" height="53" viewBox="0 0 181 53" fill="none" xmlns="http://www.w3.org/2000/svg">
<path d="M173.828 52.2227H6.68567C3.01022 52.2227 0 49.2836 0 45.6952V6.53013C0 2.94163 3.01022 0.00262618 6.68567 0.00262618H173.828C177.503 0.00262618 180.513 2.94163 180.513 6.53013V45.6952C180.513 49.2836 177.503 52.2227 173.828 52.2227Z" fill="black"/>
<path d="M173.828 1.04866C176.923 1.04866 179.442 3.5079 179.442 6.53013V45.6952C179.442 48.7174 176.923 51.1766 173.828 51.1766H6.68567C3.59021 51.1766 1.07138 48.7174 1.07138 45.6952V6.53013C1.07138 3.5079 3.59021 1.04866 6.68567 1.04866H173.828ZM173.828 0.00262618H6.68567C3.01022 0.00262618 0 2.94163 0 6.53013V45.6952C0 49.2836 3.01022 52.2227 6.68567 52.2227H173.828C177.503 52.2227 180.513 49.2836 180.513 45.6952V6.53013C180.513 2.94163 177.503 0.00262618 173.828 0.00262618Z" fill="black"/>
<path d="M63.4037 13.3797C63.4037 14.4698 63.0694 15.3429 62.4108 15.994C61.6537 16.7659 60.6676 17.1542 59.4591 17.1542C58.3042 17.1542 57.318 16.7593 56.5091 15.9809C55.6984 15.1911 55.2939 14.2218 55.2939 13.0615C55.2939 11.9012 55.6984 10.9319 56.5091 10.1486C57.318 9.36366 58.3042 8.96875 59.4591 8.96875C60.0341 8.96875 60.5823 9.08461 61.1055 9.30002C61.6269 9.51706 62.0515 9.8108 62.359 10.1731L61.6604 10.8617C61.1239 10.2432 60.3934 9.93809 59.4591 9.93809C58.6167 9.93809 57.8863 10.2253 57.2662 10.8046C56.6528 11.3856 56.3453 12.1379 56.3453 13.0615C56.3453 13.9851 56.6528 14.744 57.2662 15.3249C57.8863 15.8977 58.6167 16.1914 59.4591 16.1914C60.3533 16.1914 61.1055 15.8977 61.6988 15.3184C62.0899 14.9349 62.3122 14.4062 62.3707 13.7306H59.4591V12.7873H63.3435C63.3903 12.9913 63.4037 13.1888 63.4037 13.3797Z" fill="white" stroke="white" stroke-width="0.141614" stroke-miterlimit="10"/>
<path d="M69.5654 10.1057H65.9167V12.5862H69.2061V13.5294H65.9167V16.0098H69.5654V16.971H64.8838V9.14453H69.5654V10.1057Z" fill="white" stroke="white" stroke-width="0.141614" stroke-miterlimit="10"/>
<path d="M73.9145 16.971H72.8816V10.1057H70.6436V9.14453H76.1542V10.1057H73.9145V16.971Z" fill="white" stroke="white" stroke-width="0.141614" stroke-miterlimit="10"/>
<path d="M80.1426 16.971V9.14453H81.1738V16.971H80.1426Z" fill="white" stroke="white" stroke-width="0.141614" stroke-miterlimit="10"/>
<path d="M85.7456 16.971H84.721V10.1057H82.4746V9.14453H87.9919V10.1057H85.7456V16.971Z" fill="white" stroke="white" stroke-width="0.141614" stroke-miterlimit="10"/>
<path d="M98.425 15.9679C97.6344 16.7593 96.6549 17.1542 95.4866 17.1542C94.3116 17.1542 93.3321 16.7593 92.5416 15.9679C91.7526 15.178 91.3599 14.2087 91.3599 13.0615C91.3599 11.9143 91.7526 10.945 92.5416 10.1551C93.3321 9.36366 94.3116 8.96875 95.4866 8.96875C96.6482 8.96875 97.6277 9.36366 98.4183 10.1617C99.2139 10.958 99.6066 11.9208 99.6066 13.0615C99.6066 14.2087 99.2139 15.178 98.425 15.9679ZM93.3054 15.3119C93.9004 15.8977 94.6241 16.1914 95.4866 16.1914C96.3424 16.1914 97.0728 15.8977 97.6611 15.3119C98.2545 14.726 98.5553 13.9737 98.5553 13.0615C98.5553 12.1493 98.2545 11.397 97.6611 10.8111C97.0728 10.2253 96.3424 9.93156 95.4866 9.93156C94.6241 9.93156 93.9004 10.2253 93.3054 10.8111C92.712 11.397 92.4112 12.1493 92.4112 13.0615C92.4112 13.9737 92.712 14.726 93.3054 15.3119Z" fill="white" stroke="white" stroke-width="0.141614" stroke-miterlimit="10"/>
<path d="M101.056 16.971V9.14453H102.309L106.207 15.2314H106.252L106.207 13.7268V9.14453H107.238V16.971H106.162L102.08 10.5838H102.035L102.08 12.095V16.971H101.056Z" fill="white" stroke="white" stroke-width="0.141614" stroke-miterlimit="10"/>
<path d="M91.1061 28.4019C87.9655 28.4019 85.3999 30.7355 85.3999 33.9552C85.3999 37.1487 87.9655 39.5068 91.1061 39.5068C94.2534 39.5068 96.819 37.1487 96.819 33.9552C96.819 30.7355 94.2534 28.4019 91.1061 28.4019ZM91.1061 37.3201C89.3829 37.3201 87.9003 35.9314 87.9003 33.9552C87.9003 31.9529 89.3829 30.5886 91.1061 30.5886C92.8293 30.5886 94.3186 31.9529 94.3186 33.9552C94.3186 35.9314 92.8293 37.3201 91.1061 37.3201ZM78.6557 28.4019C75.5084 28.4019 72.9495 30.7355 72.9495 33.9552C72.9495 37.1487 75.5084 39.5068 78.6557 39.5068C81.8013 39.5068 84.3619 37.1487 84.3619 33.9552C84.3619 30.7355 81.8013 28.4019 78.6557 28.4019ZM78.6557 37.3201C76.9308 37.3201 75.4433 35.9314 75.4433 33.9552C75.4433 31.9529 76.9308 30.5886 78.6557 30.5886C80.379 30.5886 81.8615 31.9529 81.8615 33.9552C81.8615 35.9314 80.379 37.3201 78.6557 37.3201ZM63.8403 30.1039V32.4636H69.6117C69.4429 33.7822 68.9916 34.7515 68.2996 35.4271C67.4572 36.2431 66.1452 37.1487 63.8403 37.1487C60.2885 37.1487 57.5073 34.3501 57.5073 30.8823C57.5073 27.4146 60.2885 24.6159 63.8403 24.6159C65.7607 24.6159 67.158 25.3487 68.1893 26.2984L69.8925 24.6355C68.45 23.2909 66.5313 22.2579 63.8403 22.2579C58.9698 22.2579 54.8765 26.1271 54.8765 30.8823C54.8765 35.6376 58.9698 39.5068 63.8403 39.5068C66.4728 39.5068 68.45 38.6648 70.0045 37.0851C71.5973 35.5299 72.0937 33.3432 72.0937 31.5775C72.0937 31.0292 72.0469 30.525 71.9634 30.1039H63.8403ZM124.422 31.9333C123.953 30.6914 122.504 28.4019 119.552 28.4019C116.627 28.4019 114.192 30.6523 114.192 33.9552C114.192 37.0655 116.602 39.5068 119.833 39.5068C122.445 39.5068 123.953 37.9516 124.573 37.0459L122.634 35.7845C121.987 36.7081 121.106 37.3201 119.833 37.3201C118.568 37.3201 117.66 36.7538 117.078 35.6376L124.685 32.5648L124.422 31.9333ZM116.667 33.7822C116.602 31.6412 118.37 30.5445 119.637 30.5445C120.63 30.5445 121.472 31.0292 121.753 31.7228L116.667 33.7822ZM110.485 39.169H112.985V22.8503H110.485V39.169ZM106.39 29.6389H106.306C105.744 28.9894 104.673 28.4019 103.316 28.4019C100.468 28.4019 97.8637 30.8432 97.8637 33.9731C97.8637 37.0851 100.468 39.5068 103.316 39.5068C104.673 39.5068 105.744 38.9144 106.306 38.2454H106.39V39.0417C106.39 41.1648 105.228 42.3055 103.354 42.3055C101.827 42.3055 100.879 41.2284 100.488 40.3227L98.3133 41.2089C98.94 42.6808 100.6 44.4922 103.354 44.4922C106.286 44.4922 108.76 42.8081 108.76 38.7105V28.7397H106.39V29.6389ZM103.53 37.3201C101.807 37.3201 100.364 35.9118 100.364 33.9731C100.364 32.0165 101.807 30.5886 103.53 30.5886C105.228 30.5886 106.567 32.0165 106.567 33.9731C106.567 35.9118 105.228 37.3201 103.53 37.3201ZM136.129 22.8503H130.149V39.169H132.643V32.9858H136.129C138.899 32.9858 141.615 31.0292 141.615 27.9172C141.615 24.8069 138.892 22.8503 136.129 22.8503ZM136.194 30.7159H132.643V25.1202H136.194C138.056 25.1202 139.119 26.6297 139.119 27.9172C139.119 29.1803 138.056 30.7159 136.194 30.7159ZM151.61 28.3709C149.808 28.3709 147.934 29.1477 147.164 30.8693L149.377 31.775C149.853 30.8693 150.729 30.5756 151.655 30.5756C152.949 30.5756 154.261 31.3344 154.281 32.6741V32.8455C153.829 32.5909 152.863 32.214 151.675 32.214C149.292 32.214 146.863 33.495 146.863 35.8857C146.863 38.0724 148.815 39.4807 151.01 39.4807C152.688 39.4807 153.614 38.7415 154.195 37.8815H154.281V39.1429H156.689V32.883C156.689 29.9897 154.476 28.3709 151.61 28.3709ZM151.309 37.3136C150.493 37.3136 149.357 36.9187 149.357 35.9314C149.357 34.6683 150.774 34.1836 152.001 34.1836C153.099 34.1836 153.614 34.4203 154.281 34.7319C154.085 36.2431 152.753 37.3136 151.309 37.3136ZM165.464 28.7283L162.598 35.8025H162.512L159.549 28.7283H156.86L161.312 38.6142L158.772 44.1152H161.378L168.239 28.7283H165.464ZM142.985 39.169H145.486V22.8503H142.985V39.169Z" fill="white"/>
<path d="M13.9526 9.84556C13.5598 10.247 13.3325 10.872 13.3325 11.6814V40.5526C13.3325 41.362 13.5598 41.987 13.9526 42.3884L14.0496 42.4766L30.62 26.3047V25.9228L14.0496 9.75092L13.9526 9.84556Z" fill="url(#paint0_linear_3901_92)"/>
<path d="M36.1375 31.6953L30.6201 26.302V25.9201L36.1442 20.5268L36.2678 20.5969L42.8098 24.2311C44.6767 25.2625 44.6767 26.9596 42.8098 27.9975L36.2678 31.6251L36.1375 31.6953Z" fill="url(#paint1_linear_3901_92)"/>
<path d="M36.2682 31.6283L30.6205 26.1141L13.9531 42.3888C14.5732 43.0253 15.5844 43.102 16.7344 42.4655L36.2682 31.6283Z" fill="url(#paint2_linear_3901_92)"/>
<path d="M36.2682 20.5992L16.7344 9.76189C15.5844 9.13198 14.5732 9.20868 13.9531 9.84511L30.6205 26.1133L36.2682 20.5992Z" fill="url(#paint3_linear_3901_92)"/>
<defs>
<linearGradient id="paint0_linear_3901_92" x1="29.1487" y1="40.8532" x2="7.24558" y2="18.4193" gradientUnits="userSpaceOnUse">
<stop stop-color="#00A0FF"/>
<stop offset="0.0066" stop-color="#00A1FF"/>
<stop offset="0.2601" stop-color="#00BEFF"/>
<stop offset="0.5122" stop-color="#00D2FF"/>
<stop offset="0.7604" stop-color="#00DFFF"/>
<stop offset="1" stop-color="#00E3FF"/>
</linearGradient>
<linearGradient id="paint1_linear_3901_92" x1="45.2409" y1="26.1092" x2="12.8864" y2="26.1092" gradientUnits="userSpaceOnUse">
<stop stop-color="#FFE000"/>
<stop offset="0.4087" stop-color="#FFBD00"/>
<stop offset="0.7754" stop-color="#FFA500"/>
<stop offset="1" stop-color="#FF9C00"/>
</linearGradient>
<linearGradient id="paint2_linear_3901_92" x1="33.1972" y1="23.1166" x2="3.4947" y2="-7.3056" gradientUnits="userSpaceOnUse">
<stop stop-color="#FF3A44"/>
<stop offset="1" stop-color="#C31162"/>
</linearGradient>
<linearGradient id="paint3_linear_3901_92" x1="9.7576" y1="51.9933" x2="23.0211" y2="38.4085" gradientUnits="userSpaceOnUse">
<stop stop-color="#32A071"/>
<stop offset="0.0685" stop-color="#2DA771"/>
<stop offset="0.4762" stop-color="#15CF74"/>
<stop offset="0.8009" stop-color="#06E775"/>
<stop offset="1" stop-color="#00F076"/>
</linearGradient>
</defs>
</svg>
