<svg width="162" height="35" viewBox="0 0 162 35" fill="none" xmlns="http://www.w3.org/2000/svg">
<path d="M36.6898 28.2483V34.4583H19.2798C19.1198 34.4583 18.9598 34.4583 18.7998 34.4583V28.2583C18.9598 28.2583 19.1198 28.2683 19.2698 28.2683C19.4198 28.2683 19.5698 28.2683 19.7098 28.2583C22.5298 28.1483 25.1998 26.9283 27.1298 24.8683C29.0598 22.8083 30.1198 20.0783 30.0598 17.2483C29.9998 14.4283 28.8398 11.7383 26.8198 9.75828C24.7998 7.77828 22.0898 6.67828 19.2598 6.67828C19.0998 6.67828 18.9398 6.67828 18.7798 6.68828V0.488281C18.9398 0.488281 19.0998 0.488281 19.2598 0.488281C22.4798 0.488281 25.6298 1.40828 28.3498 3.12828C31.0698 4.84828 33.2398 7.30828 34.6198 10.2183C35.9998 13.1283 36.5198 16.3683 36.1198 19.5583C35.7198 22.7483 34.4298 25.7683 32.3898 28.2583H36.6698L36.6898 28.2483Z" fill="#0FA85C"/>
<path d="M16.52 6.68828V0.488281C12.1 0.608281 7.9 2.44828 4.81 5.61828C1.73 8.79828 0 13.0483 0 17.4683C0 21.8883 1.73 26.1383 4.81 29.3183C7.9 32.4883 12.1 34.3283 16.52 34.4483V28.2483C13.74 28.1283 11.12 26.9383 9.2 24.9283C7.28 22.9183 6.21 20.2483 6.21 17.4683C6.21 14.6883 7.28 12.0183 9.2 10.0083C11.12 7.99828 13.74 6.80828 16.52 6.68828Z" fill="white"/>
<path d="M38.96 0.490469V6.68047C41.79 6.72047 44.5 7.88047 46.49 9.90047C48.48 11.9205 49.59 14.6405 49.59 17.4705C49.59 20.3105 48.48 23.0305 46.49 25.0505C44.5 27.0705 41.8 28.2305 38.96 28.2705V34.4605C43.43 34.4105 47.71 32.6005 50.85 29.4205C54 26.2405 55.76 21.9505 55.76 17.4705C55.76 12.9905 54 8.70047 50.85 5.52047C47.7 2.34047 43.43 0.530469 38.96 0.480469V0.490469Z" fill="white"/>
<path d="M85.99 21.28C87.83 20.67 89.37 19.71 90.46 18.35C91.68 16.83 92.33 14.88 92.33 12.56C92.33 9.65 91.23 7.24 89.26 5.57C87.29 3.9 84.5 3 81.16 3H68.23V34.49H74.13V22.29H79.92L87.54 34.26L87.69 34.49H94.57L94.07 33.72L86.01 21.27L85.99 21.28ZM74.13 8.21H80.79C82.72 8.21 84.06 8.61 84.92 9.32C85.76 10.02 86.21 11.11 86.21 12.7C86.21 14.29 85.76 15.37 84.92 16.08C84.07 16.8 82.73 17.19 80.79 17.19H74.13V8.21Z" fill="white"/>
<path d="M101.4 0.371094C100.26 0.371094 99.2898 0.671094 98.5998 1.30109C97.9098 1.94109 97.5698 2.84109 97.5698 3.92109C97.5698 5.00109 97.9098 5.91109 98.5898 6.56109C99.2698 7.20109 100.24 7.52109 101.39 7.52109C102.54 7.52109 103.5 7.21109 104.17 6.56109C104.85 5.91109 105.17 4.99109 105.17 3.92109C105.17 2.85109 104.85 1.94109 104.17 1.30109C103.49 0.671094 102.54 0.371094 101.39 0.371094H101.4Z" fill="white"/>
<path d="M98.8999 10.3984H98.3999V10.8984V33.9984V34.4984H98.8999H103.85H104.35V33.9984V10.8984V10.3984H103.85H98.8999Z" fill="white"/>
<path d="M127.92 0H127.42V13.04C126.81 12.27 126.08 11.6 125.23 11.09C123.88 10.28 122.33 9.88 120.76 9.93C120.76 9.93 120.76 9.93 120.75 9.93C117.74 9.93 114.98 11.07 112.97 13.22C110.96 15.38 109.73 18.52 109.73 22.48C109.73 26.44 110.88 29.46 112.81 31.62C114.75 33.78 117.44 34.95 120.44 34.95C123.44 34.95 126.2 33.66 127.81 31.33L127.98 34.02L128.01 34.49H133.37V0H127.93H127.92ZM121.5 29.99C119.63 29.99 118.2 29.3 117.22 28.05C116.23 26.79 115.67 24.9 115.67 22.45C115.67 20 116.25 18.13 117.27 16.88C118.28 15.64 119.76 14.96 121.68 14.96C123.39 14.96 124.8 15.62 125.8 16.82C126.8 18.03 127.42 19.84 127.42 22.18C127.42 24.69 126.8 26.65 125.77 27.97C124.75 29.28 123.29 30 121.5 30V29.99Z" fill="white"/>
<path d="M161.5 21.0597C161.5 17.9297 160.49 15.1397 158.58 13.1297C156.67 11.1197 153.88 9.92969 150.41 9.92969C146.94 9.92969 143.99 11.0897 141.87 13.2597C139.75 15.4297 138.54 18.5697 138.54 22.4397C138.54 26.3097 139.75 29.4497 141.91 31.6197C144.06 33.7897 147.11 34.9497 150.69 34.9497C155.41 34.9497 159.26 32.8497 160.98 29.2597L161.2 28.8097L160.74 28.5997L156.81 26.7497L156.38 26.5497L156.16 26.9697C155.64 27.9397 154.97 28.6997 154.09 29.2197C153.21 29.7397 152.07 30.0397 150.59 30.0397C148.8 30.0397 147.36 29.4997 146.32 28.4897C145.38 27.5697 144.74 26.2097 144.48 24.4297H161.24L161.3 23.9897C161.43 23.0197 161.49 22.0397 161.49 21.0597H161.5ZM146.46 16.2197C147.43 15.3397 148.72 14.8697 150.33 14.8697C151.94 14.8697 153.2 15.3597 154.09 16.2297C154.88 17.0097 155.4 18.1597 155.59 19.6497H144.64C144.99 18.1597 145.61 17.0097 146.47 16.2297L146.46 16.2197Z" fill="white"/>
</svg>
