<svg width="35" height="28" viewBox="0 0 35 28" fill="none" xmlns="http://www.w3.org/2000/svg">
<path d="M10.7554 26.9909V25.2514C10.7657 25.1055 10.7444 24.9591 10.693 24.822C10.6416 24.6849 10.5612 24.5602 10.4573 24.4562C10.3534 24.3522 10.2282 24.2714 10.0902 24.219C9.95227 24.1667 9.8046 24.1441 9.65709 24.1527C9.4635 24.1401 9.27006 24.1792 9.09696 24.2659C8.92385 24.3526 8.77744 24.4837 8.67299 24.6455C8.57778 24.4885 8.44154 24.3599 8.27865 24.2732C8.11576 24.1864 7.93225 24.1448 7.74745 24.1527C7.58637 24.1446 7.42595 24.1783 7.2821 24.2505C7.13825 24.3228 7.01596 24.4309 6.92736 24.5643V24.2222H6.31815V26.9909H6.93322V25.4573C6.91959 25.3624 6.92744 25.2657 6.95619 25.1742C6.98495 25.0827 7.0339 24.9987 7.09949 24.9282C7.16509 24.8577 7.24569 24.8026 7.33546 24.7667C7.42524 24.7309 7.52194 24.7152 7.61858 24.7209C8.02277 24.7209 8.22779 24.9818 8.22779 25.4515V26.9909H8.84286V25.4573C8.83031 25.3626 8.83892 25.2663 8.86807 25.1753C8.89723 25.0843 8.94622 25.0007 9.01159 24.9304C9.07695 24.8602 9.15711 24.805 9.24638 24.7688C9.33565 24.7326 9.43186 24.7162 9.52822 24.7209C9.94412 24.7209 10.1433 24.9818 10.1433 25.4515V26.9909H10.7554ZM14.1822 25.608V24.2251H13.5672V24.5614C13.4639 24.4295 13.3303 24.3238 13.1774 24.2532C13.0246 24.1826 12.857 24.1492 12.6885 24.1556C12.3001 24.1556 11.9276 24.3083 11.653 24.5801C11.3783 24.852 11.224 25.2207 11.224 25.6051C11.224 25.9896 11.3783 26.3583 11.653 26.6301C11.9276 26.9019 12.3001 27.0547 12.6885 27.0547C12.857 27.0611 13.0246 27.0276 13.1774 26.957C13.3303 26.8864 13.4639 26.7807 13.5672 26.6488V26.9851H14.1764L14.1822 25.608ZM11.9182 25.608C11.9279 25.4449 11.9856 25.2881 12.0842 25.157C12.1828 25.0259 12.318 24.9262 12.4731 24.8702C12.6282 24.8142 12.7964 24.8043 12.9571 24.8417C13.1178 24.8792 13.264 24.9623 13.3776 25.081C13.4911 25.1996 13.5672 25.3485 13.5963 25.5093C13.6255 25.6702 13.6065 25.836 13.5416 25.9863C13.4768 26.1366 13.369 26.2648 13.2315 26.3553C13.0939 26.4457 12.9327 26.4943 12.7676 26.4951C12.651 26.4978 12.5351 26.4764 12.4274 26.4323C12.3197 26.3881 12.2224 26.3221 12.1419 26.2386C12.0614 26.1551 11.9994 26.0559 11.9599 25.9473C11.9203 25.8387 11.9042 25.7231 11.9123 25.608H11.9182ZM27.1982 24.1584C27.3988 24.1579 27.5976 24.1953 27.784 24.2686C27.9619 24.3391 28.1241 24.4435 28.2614 24.5759C28.3969 24.7071 28.5045 24.8638 28.5777 25.0369C28.7308 25.4086 28.7308 25.8248 28.5777 26.1965C28.5046 26.3696 28.397 26.5264 28.2614 26.6575C28.1241 26.7899 27.9619 26.8943 27.784 26.9648C27.3978 27.1133 26.9694 27.1133 26.5832 26.9648C26.4061 26.8943 26.2448 26.7899 26.1087 26.6575C25.9745 26.5258 25.868 26.3692 25.7953 26.1965C25.6426 25.8248 25.6426 25.4086 25.7953 25.0369C25.868 24.8642 25.9745 24.7076 26.1087 24.5759C26.2448 24.4435 26.4061 24.3391 26.5832 24.2686C26.7763 24.1894 26.9833 24.149 27.1924 24.1497L27.1982 24.1584ZM27.1982 24.7383C27.079 24.7367 26.9605 24.7583 26.8497 24.802C26.7453 24.8435 26.6506 24.9056 26.5714 24.9847C26.4907 25.0679 26.4279 25.1666 26.3869 25.2746C26.2975 25.5061 26.2975 25.7621 26.3869 25.9936C26.4278 26.1017 26.4906 26.2003 26.5714 26.2835C26.6506 26.3626 26.7453 26.4248 26.8497 26.4661C27.0728 26.5526 27.3207 26.5526 27.5438 26.4661C27.6533 26.4261 27.753 26.3639 27.8367 26.2835C27.9177 26.2004 27.9805 26.1017 28.0213 25.9936C28.1107 25.7621 28.1107 25.5061 28.0213 25.2746C27.9805 25.1665 27.9177 25.0678 27.8367 24.9847C27.753 24.9043 27.6533 24.8421 27.5438 24.802C27.4334 24.752 27.3138 24.7244 27.1924 24.7209L27.1982 24.7383ZM17.4919 25.608C17.4919 24.7383 16.9471 24.1584 16.1651 24.1584C15.7767 24.1638 15.4064 24.3217 15.1356 24.5974C14.8648 24.873 14.7157 25.2439 14.7211 25.6283C14.7266 26.0127 14.8861 26.3793 15.1646 26.6474C15.4431 26.9154 15.8177 27.0629 16.2061 27.0576C16.6231 27.0717 17.0307 26.9334 17.3513 26.6691L17.0584 26.2226C16.8271 26.4062 16.5406 26.5082 16.2442 26.5125C16.0428 26.5297 15.8426 26.4684 15.6862 26.3417C15.5297 26.215 15.4294 26.0329 15.4065 25.8341H17.4831C17.4919 25.7617 17.4919 25.6892 17.4919 25.608ZM15.4094 25.3645C15.4208 25.1804 15.5036 25.0079 15.6407 24.883C15.7778 24.7582 15.9584 24.6907 16.1446 24.6948C16.2357 24.6929 16.3264 24.7087 16.4114 24.7415C16.4963 24.7743 16.5739 24.8233 16.6398 24.8857C16.7056 24.9482 16.7583 25.0229 16.795 25.1055C16.8316 25.1882 16.8515 25.2771 16.8534 25.3674L15.4094 25.3645ZM20.0547 24.9296C19.7872 24.7772 19.4846 24.6953 19.176 24.6919C18.8421 24.6919 18.6429 24.8136 18.6429 25.0166C18.6429 25.2195 18.8538 25.2543 19.1174 25.2891L19.4103 25.3297C20.0195 25.4167 20.3886 25.6718 20.3886 26.1588C20.3886 26.6459 19.9199 27.0634 19.1145 27.0634C18.6828 27.0747 18.2588 26.9487 17.9049 26.7039L18.1977 26.2342C18.4665 26.4316 18.7946 26.5337 19.1291 26.5241C19.545 26.5241 19.7676 26.4024 19.7676 26.1878C19.7676 26.0313 19.6095 25.9443 19.2756 25.8979L18.9827 25.8573C18.3559 25.7704 18.0162 25.492 18.0162 25.0398C18.0162 24.4889 18.4731 24.1527 19.1877 24.1527C19.5877 24.1394 19.9831 24.24 20.327 24.4426L20.0547 24.9296ZM22.9836 24.7731H21.9907V26.0226C21.9907 26.3125 22.0902 26.4864 22.3948 26.4864C22.585 26.4802 22.7704 26.4263 22.9338 26.3299L23.1095 26.8459C22.8811 26.987 22.6172 27.0614 22.348 27.0605C21.6275 27.0605 21.3756 26.6778 21.3756 26.0342V24.7731H20.8074V24.2222H21.3756V23.3815H21.9907V24.2222H22.9836V24.7731ZM25.0894 24.1527C25.2372 24.1532 25.3838 24.1787 25.5229 24.228L25.3355 24.8079C25.2144 24.7601 25.085 24.7364 24.9547 24.7383C24.5564 24.7383 24.3689 24.9934 24.3689 25.4515V27.0025H23.7597V24.2338H24.3631V24.5701C24.4378 24.443 24.5459 24.3382 24.6757 24.2668C24.8056 24.1953 24.9526 24.1599 25.1011 24.1643L25.0894 24.1527ZM29.3012 26.5879C29.3393 26.5874 29.3771 26.5943 29.4125 26.6082C29.4461 26.6218 29.4769 26.6414 29.5033 26.6662C29.529 26.6912 29.5499 26.7207 29.5648 26.7532C29.5796 26.787 29.5873 26.8235 29.5873 26.8604C29.5873 26.8973 29.5796 26.9338 29.5648 26.9677C29.5499 27.0002 29.529 27.0297 29.5033 27.0547C29.4769 27.0794 29.4461 27.0991 29.4125 27.1126C29.3774 27.128 29.3395 27.1359 29.3012 27.1358C29.2457 27.1354 29.1914 27.1194 29.1447 27.0896C29.0981 27.0599 29.0609 27.0176 29.0376 26.9677C29.0229 26.9338 29.0154 26.8973 29.0154 26.8604C29.0154 26.8235 29.0229 26.7871 29.0376 26.7532C29.0525 26.7207 29.0733 26.6912 29.0991 26.6662C29.1255 26.6414 29.1562 26.6218 29.1899 26.6082C29.2207 26.5961 29.2534 26.5892 29.2865 26.5879H29.3012ZM29.3012 27.0779C29.3304 27.078 29.3594 27.0721 29.3861 27.0605C29.4113 27.0493 29.4342 27.0336 29.4535 27.0141C29.4783 26.9893 29.4967 26.9589 29.507 26.9256C29.5173 26.8922 29.5192 26.8568 29.5125 26.8225C29.5059 26.7883 29.4909 26.7561 29.4689 26.7289C29.4469 26.7016 29.4184 26.6801 29.3861 26.6662C29.3593 26.6546 29.3304 26.6487 29.3012 26.6488C29.272 26.6489 29.2431 26.6549 29.2162 26.6662C29.1899 26.6769 29.166 26.6926 29.146 26.7126C29.1093 26.7521 29.089 26.8039 29.089 26.8575C29.089 26.9112 29.1093 26.9629 29.146 27.0025C29.1662 27.0228 29.1904 27.0389 29.2171 27.0499C29.2437 27.0608 29.2723 27.0664 29.3012 27.0663V27.0779ZM29.3188 26.7329C29.3461 26.7316 29.373 26.7398 29.3949 26.7561C29.4039 26.7634 29.4109 26.7728 29.4155 26.7833C29.4201 26.7939 29.4221 26.8054 29.4213 26.8169C29.4217 26.8266 29.4201 26.8362 29.4165 26.8452C29.413 26.8541 29.4076 26.8623 29.4008 26.8691C29.3838 26.8844 29.3621 26.8936 29.3393 26.8952L29.4242 26.9909H29.3568L29.2777 26.8952H29.2514V26.9909H29.1957V26.7242L29.3188 26.7329ZM29.2543 26.7822V26.8517H29.3188C29.3302 26.8551 29.3424 26.8551 29.3539 26.8517C29.356 26.8477 29.357 26.8432 29.357 26.8387C29.357 26.8341 29.356 26.8297 29.3539 26.8256C29.356 26.8216 29.357 26.8171 29.357 26.8126C29.357 26.8081 29.356 26.8036 29.3539 26.7995C29.3424 26.7962 29.3302 26.7962 29.3188 26.7995L29.2543 26.7822Z" fill="#000008"/>
<path d="M22.1049 3.09927H12.8789V19.5112H22.1049V3.09927Z" fill="#7673C0"/>
<path d="M13.4646 11.3067C13.4629 9.72588 13.8247 8.16541 14.5224 6.74345C15.2201 5.32149 16.2356 4.07531 17.4919 3.09929C15.9364 1.88926 14.0683 1.13682 12.1012 0.927954C10.1341 0.719091 8.14737 1.06223 6.36798 1.91816C4.58859 2.7741 3.08838 4.10829 2.0388 5.76825C0.98922 7.42821 0.432617 9.34697 0.432617 11.3052C0.432617 13.2635 0.98922 15.1823 2.0388 16.8422C3.08838 18.5022 4.58859 19.8364 6.36798 20.6923C8.14737 21.5482 10.1341 21.8914 12.1012 21.6825C14.0683 21.4737 15.9364 20.7212 17.4919 19.5112C16.236 18.5355 15.2207 17.2898 14.523 15.8683C13.8253 14.4469 13.4634 12.887 13.4646 11.3067Z" fill="#EB001B"/>
<path d="M33.5451 17.7717V17.447H33.6828V17.3774H33.3343V17.447H33.4719V17.7833L33.5451 17.7717ZM34.2217 17.7717V17.3658H34.1163L33.9933 17.6557L33.8703 17.3658H33.7619V17.7717H33.838V17.4673L33.9523 17.7311H34.0313L34.1456 17.4673V17.7746L34.2217 17.7717Z" fill="#00A1DF"/>
<path d="M34.5498 11.3067C34.5493 13.2646 33.9924 15.1829 32.9428 16.8424C31.8932 18.5019 30.3931 19.8357 28.614 20.6914C26.8349 21.5471 24.8486 21.8902 22.8818 21.6815C20.9151 21.4728 19.0473 20.7207 17.4919 19.5112C18.7473 18.5346 19.7622 17.2885 20.4601 15.867C21.158 14.4455 21.5207 12.8857 21.5207 11.3052C21.5207 9.72475 21.158 8.16491 20.4601 6.74341C19.7622 5.3219 18.7473 4.07588 17.4919 3.09929C19.0473 1.88889 20.9153 1.13605 22.8825 0.926889C24.8497 0.717726 26.8367 1.06065 28.6163 1.91646C30.3959 2.77227 31.8964 4.10643 32.9462 5.76645C33.9959 7.42647 34.5526 9.34536 34.5527 11.3038L34.5498 11.3067Z" fill="#00A1DF"/>
</svg>
