<svg width="19" height="20" viewBox="0 0 19 20" fill="none" xmlns="http://www.w3.org/2000/svg">
<g clip-path="url(#clip0_506_27)">
<path d="M17.1005 5.54001C16.7505 5.18001 16.1105 5.41001 16.0505 5.90001C16.0205 6.14001 16.3205 6.70001 16.4105 6.97001C17.1905 9.32001 16.8305 11.94 15.4205 13.97C13.7205 16.42 10.7605 17.68 7.79047 17.22C7.74047 17.17 7.93047 16.76 7.94047 16.67C7.94047 16.6 7.94047 16.61 7.88047 16.61L5.48047 17.15L7.19047 19.03C7.25047 18.93 7.34047 18.4 7.42047 18.39C11.1605 19.1 14.9805 17.27 16.8405 13.99C18.1505 11.7 18.3905 8.91001 17.4905 6.42001C17.4205 6.21001 17.2305 5.69001 17.0905 5.54001H17.1005Z" fill="#0FA85B"/>
<path d="M6.32954 2.15999C7.58953 1.69999 8.91953 1.59999 10.2495 1.75999L10.0995 2.40999L12.5495 1.86999L10.8495 -0.0100098L10.6395 0.59999C7.06954 -0.0500097 3.43954 1.53999 1.46953 4.53999C-0.020465 6.81999 -0.400465 9.74999 0.449535 12.35C0.619535 12.86 0.949535 14.01 1.70954 13.55C2.26954 13.2 1.81953 12.57 1.66953 12.14C0.269535 8.05999 2.26954 3.63999 6.32954 2.15999Z" fill="#0FA85B"/>
<path d="M12.3992 8.15997H11.9492V10.94H12.3992C12.5092 10.94 12.5692 10.89 12.5692 10.79V8.30997C12.5692 8.20997 12.5092 8.15997 12.3992 8.15997Z" fill="#C2C2C2"/>
<path d="M5.42969 10.23H6.09969L5.76969 8.66998L5.42969 10.23Z" fill="#C2C2C2"/>
<path d="M8.58961 3.34998C3.71961 3.68998 1.10961 9.39999 4.13961 13.26C7.01961 16.95 12.8196 16.24 14.6696 11.95C16.4996 7.71998 13.1796 3.02999 8.59961 3.34998H8.58961ZM6.41961 11.71L6.27961 11.06H5.23961L5.09961 11.71H3.93961L5.04961 7.37999H6.48961L7.59961 11.71H6.40961H6.41961ZM10.4296 11.71H7.76961V7.37999H10.3696V8.21999H8.94961V9.09999H10.1696V9.93998H8.94961V10.86H10.4296V11.7V11.71ZM13.7496 10.88C13.7496 11.44 13.4196 11.72 12.7596 11.72H10.7696V7.38999H12.7596C13.4196 7.38999 13.7496 7.66998 13.7496 8.22998V10.89V10.88Z" fill="#C2C2C2"/>
</g>
<defs>
<clipPath id="clip0_506_27">
<rect width="18.04" height="19.02" fill="white"/>
</clipPath>
</defs>
</svg>
