<svg width="19" height="20" viewBox="0 0 19 20" fill="none" xmlns="http://www.w3.org/2000/svg">
<path d="M14.6658 11.9474C16.4918 7.71709 13.1786 3.02405 8.59298 3.34628C3.72642 3.68504 1.11551 9.39435 4.13955 13.2612C7.02312 16.9462 12.8151 16.2439 14.6658 11.9474ZM7.94851 12.5589C7.08922 12.311 6.50259 11.6913 6.37865 10.799L8.10549 10.5841C8.13028 10.832 8.20464 11.1542 8.4112 11.3112V9.8901C7.63454 9.74964 6.84135 9.35304 6.65958 8.51854C6.39518 7.32049 7.22968 6.36205 8.4112 6.28769V5.51929H9.63404V6.28769C10.5099 6.32074 11.2948 6.88259 11.4766 7.76666L9.89017 8.01453C9.8406 8.00627 9.7745 7.60968 9.63404 7.59315V8.70857C10.452 8.90687 11.4105 9.27868 11.617 10.1958C11.9062 11.493 10.9064 12.5836 9.63404 12.658V13.5008H8.4112V12.6745C8.29553 12.5836 8.10549 12.6002 7.94851 12.5589Z" fill="#C2C2C2"/>
<path d="M17.1033 5.53591C16.7563 5.17236 16.1118 5.40371 16.054 5.89945C16.0209 6.13906 16.3266 6.70091 16.4175 6.97356C17.2024 9.32835 16.8389 11.9393 15.426 13.9718C13.724 16.4175 10.766 17.6816 7.79984 17.2189C7.75026 17.1694 7.9403 16.7562 7.94856 16.6654C7.94856 16.5993 7.94856 16.6075 7.89072 16.6075L5.49463 17.1446L7.20494 19.0201C7.26278 18.921 7.35367 18.3922 7.43629 18.3757C11.1792 19.0862 14.9964 17.2602 16.8554 13.9801C18.1609 11.6914 18.4005 8.8987 17.5082 6.41172C17.4338 6.1969 17.2438 5.68463 17.1033 5.53591Z" fill="#0FA85B"/>
<path d="M6.32894 2.15648C7.59309 1.69379 8.92333 1.59464 10.2453 1.75989L10.0966 2.41262L12.5505 1.87556L10.8485 0L10.6336 0.611417C7.07256 -0.0495744 3.4371 1.53681 1.47065 4.54432C-0.0248397 6.82474 -0.40491 9.74963 0.446117 12.3523C0.611365 12.8645 0.950123 14.013 1.702 13.5503C2.26384 13.2033 1.80941 12.5671 1.66069 12.1375C0.272606 8.05583 2.27211 3.63545 6.32894 2.15648Z" fill="#0FA85B"/>
<path d="M9.63403 10.312V11.4605C10.1876 11.287 10.2041 10.4938 9.63403 10.312Z" fill="#C2C2C2"/>
<path d="M8.41103 7.51025C8.22099 7.64245 8.20447 8.006 8.3284 8.18777C8.35319 8.22908 8.3284 8.25387 8.41103 8.23734V7.51025Z" fill="#C2C2C2"/>
</svg>
