<svg width="34" height="22" viewBox="0 0 34 22" fill="none" xmlns="http://www.w3.org/2000/svg">
<path d="M7.00264 9.27315C5.96139 9.26047 4.92376 9.62097 4.18961 10.3601V9.55575L4.12419 9.49054H2.33788L2.27246 9.55575V21.847C2.27246 21.9448 2.39967 21.9122 2.42511 21.9122H4.18961V17.6116L4.78565 18.0808C7.45876 19.7493 10.8006 18.0537 11.4893 15.0936C12.1599 12.2097 9.99921 9.30757 7.00083 9.26953L7.00264 9.27315ZM6.52108 16.9178C3.39731 16.6642 3.43547 11.447 6.40115 11.1101C7.83311 10.947 9.00702 11.6589 9.3959 13.052C9.95378 15.0592 8.73626 17.0972 6.52108 16.916V16.9178Z" fill="#0154D3"/>
<path d="M20.1573 9.49371C20.1573 9.49371 20.0483 9.59516 20.0483 9.6024V10.3198L19.5122 9.87594C16.979 8.30897 13.659 9.98645 12.914 12.7436C11.8363 16.7308 16.0086 20.2705 19.6503 18.0695L20.0465 17.7471V18.5514C20.0465 18.5659 20.1046 18.6166 20.0901 18.6601H21.9636V9.56074L21.8982 9.49552H20.1555L20.1573 9.49371ZM19.9829 15.2254C19.445 16.9373 17.3625 17.4137 15.9578 16.4174C14.0642 15.075 14.6367 11.394 17.1208 11.1132C19.6031 10.8324 20.648 13.1095 19.9829 15.2272V15.2254Z" fill="#0154D3"/>
<path d="M28.1984 15.787L25.4308 9.48828H23.3392L23.292 9.57705L27.1935 17.9826C26.7374 19.1727 26.1377 20.3104 25.6616 21.4897C25.6071 21.6256 25.529 21.7614 25.5381 21.91H27.6079L32.945 9.48828H30.8316L28.1966 15.787H28.1984Z" fill="#0154D3"/>
<path d="M13.5123 5.38748L13.5778 5.45269H14.6663C14.7735 5.30777 14.739 5.01068 14.7335 4.82047C14.6899 3.47993 14.6336 2.12853 14.6445 0.782559C14.6281 0.637636 14.6081 0.55974 14.45 0.541624C14.1102 0.503582 13.1271 0.499959 12.7891 0.541624C12.7419 0.547059 12.6892 0.539813 12.6583 0.585101L12.0949 4.19187L11.9986 3.98354L11.5043 0.697416C11.5043 0.646693 11.4371 0.552494 11.3989 0.541624H9.56901C9.50723 0.579667 9.50905 0.628578 9.50178 0.691982C9.44545 1.16479 9.42909 3.58319 9.41455 4.20998C9.40728 4.52519 9.38003 5.00162 9.41455 5.30053C9.42182 5.36393 9.42 5.41284 9.48179 5.45088H10.5267C10.5267 5.45088 10.6357 5.34944 10.6357 5.34219V1.15211L10.7229 1.30428L11.4298 5.33313C11.4407 5.3748 11.468 5.41103 11.5062 5.43096C11.5716 5.46356 12.4675 5.47443 12.5747 5.45269C12.6092 5.44545 12.6419 5.44545 12.6619 5.40922L13.5105 1.19559V5.38748H13.5123Z" fill="#0154D3"/>
<path d="M25.1059 5.40875H26.2163C26.3235 5.23847 26.2908 4.90696 26.2835 4.68957C26.2581 3.81279 26.2308 2.9197 26.1926 2.04473C26.1854 1.86358 26.2017 1.68061 26.1944 1.49946C26.2671 1.51214 26.2726 1.5846 26.2944 1.63895C26.7142 2.73493 26.8977 4.0972 27.3266 5.17144C27.3647 5.26564 27.3956 5.34354 27.481 5.40875H29.0493L29.1147 5.34353V0.608184L29.0493 0.542969H27.939L27.9608 4.23488L26.8287 0.542969H25.1732C25.0569 0.542969 25.1078 0.754918 25.1078 0.782091V5.40875H25.1059Z" fill="#0154D3"/>
<path d="M23.5161 5.06275C23.9649 4.48849 23.7723 1.18244 23.7995 0.693326C23.8032 0.629922 23.7941 0.581011 23.7323 0.542969H22.6438C22.5893 0.542969 22.5275 0.678834 22.5329 0.736803C22.5784 1.24041 22.6747 3.96133 22.5239 4.37618C22.324 4.92326 21.6207 4.6153 21.6207 4.38704V0.608184L21.5553 0.542969H20.4668L20.4014 0.608184V4.38704C20.4014 5.74388 22.8237 5.9504 23.5179 5.06275H23.5161Z" fill="#0154D3"/>
<path d="M32.5763 2.1061H33.6648C33.8138 1.85792 33.7175 1.43221 33.6012 1.17135C33.1287 0.11341 30.9008 0.133337 30.461 1.21482C30.2557 1.72205 30.2902 3.47381 30.3302 4.08429C30.3556 4.48102 30.4501 4.89948 30.7663 5.1694C31.4223 5.72736 33.185 5.66939 33.5921 4.81253C33.6175 4.76 33.7302 4.51725 33.7302 4.38501C33.7302 3.95567 33.7302 2.66948 33.7302 2.66948H32.0965C31.9966 2.74013 32.0111 3.31077 32.0493 3.36693L32.509 3.40678C32.4799 3.68576 32.5472 4.02995 32.5108 4.29987C32.4563 4.70746 31.7185 4.76 31.5695 4.36508L31.5495 1.73473C31.7167 0.959396 32.6798 1.26555 32.5145 2.03182L32.5726 2.10429L32.5763 2.1061Z" fill="#0154D3"/>
<path d="M3.79473 4.46985C3.99826 2.85396 2.87341 2.88294 1.91029 2.14203C1.08528 1.5098 2.16106 0.875763 2.43728 1.44277C2.51905 1.60943 2.48634 1.79783 2.48998 1.97536H3.6439C3.78201 1.7761 3.67843 1.29785 3.58757 1.07684C3.24957 0.258029 1.59228 0.227233 0.950807 0.63664C0.223925 1.10039 0.198485 2.26702 0.83814 2.82135C1.2143 3.14924 2.45182 3.65828 2.55903 4.06044C2.69169 4.5568 2.40639 4.81404 1.91393 4.70354C1.51414 4.61296 1.68859 3.89559 1.57956 3.81951L0.358398 3.84487V4.51876C0.358398 4.53869 0.474699 4.85752 0.496506 4.9028C1.01986 5.97342 3.61301 5.94444 3.79655 4.47166L3.79473 4.46985Z" fill="#0154D3"/>
<path d="M17.0655 3.80324H15.9334C15.8426 3.86845 15.8625 3.9862 15.868 4.08403C15.9189 4.91914 16.2569 5.48434 17.1582 5.57854C18.4103 5.70897 19.4297 5.3521 19.3098 3.91193C19.2189 2.83045 18.065 2.68371 17.3963 2.12757C16.8148 1.64389 17.3109 1.02797 17.8251 1.30876C18.065 1.43919 17.9959 1.75439 18.0032 1.97902H19.1789V1.30513C19.1789 0.984493 18.6865 0.607694 18.403 0.515305C17.1927 0.120391 15.5373 0.658417 15.9679 2.20366C16.2351 3.16015 17.9305 3.47898 18.0795 4.05142C18.194 4.48981 17.9251 4.81045 17.4671 4.70538C17.3981 4.68908 17.1746 4.50974 17.1746 4.47532V3.84491C17.131 3.8594 17.0801 3.80143 17.0655 3.80143V3.80324Z" fill="#0154D3"/>
<path d="M4.64935 5.4499H5.82508C5.90867 5.29773 5.94138 5.04592 5.97227 4.85933C6.16671 3.70358 6.26484 2.51159 6.46292 1.3522C6.47564 1.27793 6.47019 1.06961 6.5883 1.10765L7.30792 5.49518H8.35281L8.40914 5.39736L7.63501 0.613099C7.62048 0.551507 7.44966 0.542449 7.39514 0.538826C6.94084 0.50803 6.04133 0.488103 5.6052 0.538826C5.54341 0.546072 5.49071 0.544261 5.458 0.609476L4.58393 5.30135C4.57121 5.35207 4.6021 5.43359 4.64935 5.44808V5.4499Z" fill="#0154D3"/>
</svg>
