<svg width="13" height="13" viewBox="0 0 13 13" fill="none" xmlns="http://www.w3.org/2000/svg">
<path d="M7.15081 2.32812L8.06748 4.16146C8.19248 4.41667 8.52581 4.66146 8.80706 4.70833L10.4685 4.98437C11.531 5.16146 11.781 5.93229 11.0154 6.69271L9.72373 7.98437C9.50498 8.20312 9.38519 8.625 9.45289 8.92708L9.82269 10.526C10.1144 11.7917 9.44248 12.2812 8.32269 11.6198L6.76539 10.6979C6.48414 10.5312 6.0206 10.5312 5.73414 10.6979L4.17685 11.6198C3.06227 12.2812 2.38519 11.7865 2.67685 10.526L3.04664 8.92708C3.11435 8.625 2.99456 8.20312 2.77581 7.98437L1.48414 6.69271C0.723728 5.93229 0.96852 5.16146 2.03102 4.98437L3.69248 4.70833C3.96852 4.66146 4.30185 4.41667 4.42685 4.16146L5.34352 2.32812C5.84352 1.33333 6.65602 1.33333 7.15081 2.32812Z" fill="#292D32" stroke="#292D32" stroke-linecap="round" stroke-linejoin="round"/>
</svg>
