<svg width="32" height="24" viewBox="0 0 32 24" fill="none" xmlns="http://www.w3.org/2000/svg">
<path d="M0 23.9414V17.641C0 15.7276 0.338353 13.6975 1.01506 11.5507C1.7151 9.38055 2.71849 7.2921 4.02524 5.28531C5.35531 3.25519 6.95374 1.49342 8.82052 0L13.3008 3.64021C11.8307 5.74034 10.5473 7.9338 9.45055 10.2206C8.37716 12.4841 7.84046 14.9109 7.84046 17.501V23.9414H0ZM17.9211 23.9414V17.641C17.9211 15.7276 18.2594 13.6975 18.9361 11.5507C19.6362 9.38055 20.6395 7.2921 21.9463 5.28531C23.2764 3.25519 24.8748 1.49342 26.7416 0L31.2218 3.64021C29.7517 5.74034 28.4683 7.9338 27.3716 10.2206C26.2982 12.4841 25.7615 14.9109 25.7615 17.501V23.9414H17.9211Z" fill="#BEBEBE"/>
</svg>
