<svg width="115" height="34" viewBox="0 0 115 34" fill="none" xmlns="http://www.w3.org/2000/svg">
<g clip-path="url(#clip0_3526_309)">
<path d="M33.8118 11.1563H38.6147C41.2752 11.1563 42.6564 12.2472 42.6564 14.2955V14.3975C42.6943 14.9977 42.5155 15.5916 42.1526 16.0712C41.7897 16.5508 41.2667 16.8842 40.6787 17.0108C41.3828 17.0728 42.0341 17.41 42.491 17.9493C42.948 18.4885 43.1738 19.1863 43.1194 19.891V19.9616C43.1194 22.1983 41.6519 23.3755 38.8345 23.3755H33.8118V11.1563ZM38.1674 16.1711C39.5016 16.1711 40.0274 15.6924 40.0274 14.6015V14.5309C40.0274 13.5107 39.4466 13.0476 38.1517 13.0476H36.5115V16.1868L38.1674 16.1711ZM38.4028 21.4527C39.7684 21.4527 40.3884 20.8327 40.3884 19.7262V19.6556C40.3884 18.5255 39.7684 17.9526 38.2694 17.9526H36.5115V21.4606L38.4028 21.4527Z" fill="#8C9498"/>
<path d="M43.8415 20.8877C43.8415 18.8002 45.7486 18.0154 48.4875 18.0154H49.492V17.6622C49.492 16.6028 49.1703 16.022 48.0402 16.022C47.8572 16.0003 47.6718 16.0162 47.4953 16.0689C47.3187 16.1215 47.1549 16.2098 47.0137 16.3281C46.8725 16.4465 46.7571 16.5925 46.6745 16.7571C46.5919 16.9218 46.5439 17.1016 46.5334 17.2855H44.179C44.336 15.1666 46.0076 14.2248 48.1971 14.2248C50.3867 14.2248 51.9327 15.1117 51.9327 17.5367V23.3598H49.5234V22.2846C49.2211 22.7107 48.8134 23.051 48.3402 23.2725C47.8671 23.4939 47.3446 23.5889 46.8237 23.5481C45.2071 23.5481 43.8415 22.7633 43.8415 20.8877ZM49.492 20.2363V19.4515H48.5346C47.0984 19.4515 46.2665 19.7655 46.2665 20.715C46.2665 21.3664 46.6589 21.7981 47.5614 21.7981C48.6523 21.8294 49.492 21.2252 49.492 20.2363Z" fill="#8C9498"/>
<path d="M52.9763 20.5581H55.2836C55.3856 21.3429 55.778 21.8294 56.8532 21.8294C57.8106 21.8294 58.258 21.4684 58.258 20.8485C58.258 20.2285 57.7243 19.9773 56.4451 19.7968C54.0907 19.4358 53.149 18.7531 53.149 17.0108C53.149 15.2686 54.8598 14.2248 56.6805 14.2248C58.666 14.2248 60.1493 14.9469 60.369 16.9951H58.101C57.9676 16.2574 57.5516 15.92 56.7041 15.92C55.8565 15.92 55.4406 16.2967 55.4406 16.8382C55.4406 17.3797 55.8644 17.623 57.1593 17.8113C59.3959 18.1331 60.628 18.6981 60.628 20.613C60.628 22.5279 59.2311 23.5481 56.8689 23.5481C54.5067 23.5481 53.0627 22.4887 52.9763 20.5581Z" fill="#8C9498"/>
<path d="M61.2637 19.0042V18.8708C61.234 18.2575 61.3319 17.6446 61.5514 17.0712C61.7708 16.4977 62.107 15.976 62.5386 15.5393C62.9702 15.1025 63.4878 14.7601 64.0587 14.5339C64.6295 14.3076 65.2411 14.2024 65.8547 14.2248C68.162 14.2248 70.2103 15.5747 70.2103 18.7687V19.4515H63.7986C63.8614 20.9348 64.6697 21.8059 66.0117 21.8059C67.1575 21.8059 67.7225 21.3115 67.8795 20.5581H70.2338C69.9435 22.4886 68.4053 23.5638 65.9646 23.5638C63.2257 23.5481 61.2637 21.8608 61.2637 19.0042ZM67.801 17.929C67.7225 16.5792 67.0319 15.9671 65.8547 15.9671C65.3248 15.9646 64.8145 16.1676 64.431 16.5334C64.0476 16.8993 63.8209 17.3995 63.7986 17.929H67.801Z" fill="#8C9498"/>
<path d="M70.8617 19.0041V18.8707C70.8318 18.256 70.9302 17.6418 71.1506 17.0672C71.371 16.4926 71.7086 15.9702 72.1419 15.5332C72.5752 15.0962 73.0948 14.7542 73.6675 14.5289C74.2402 14.3036 74.8535 14.2001 75.4684 14.2248C77.5403 14.2248 79.4473 15.1273 79.6749 17.6935H77.3205C77.3048 17.4733 77.2451 17.2584 77.1448 17.0617C77.0444 16.8649 76.9056 16.6904 76.7365 16.5484C76.5674 16.4064 76.3715 16.2998 76.1604 16.2349C75.9493 16.1701 75.7273 16.1484 75.5076 16.171C74.2284 16.171 73.373 17.1285 73.373 18.8393V18.9727C73.373 20.7699 74.1578 21.6881 75.5626 21.6881C75.8016 21.7018 76.041 21.6679 76.2667 21.5882C76.4925 21.5086 76.7001 21.3848 76.8776 21.2241C77.0551 21.0635 77.1988 20.8691 77.3005 20.6523C77.4021 20.4356 77.4596 20.2008 77.4696 19.9616H79.7063C79.5729 22.0805 78.0347 23.548 75.437 23.548C72.8394 23.548 70.8617 21.9235 70.8617 19.0041Z" fill="#8C9498"/>
<path d="M80.2793 20.8877C80.2793 18.8001 82.1863 18.0154 84.9174 18.0154H85.9298V17.6622C85.9298 16.6027 85.6002 16.022 84.4779 16.022C84.2938 15.998 84.1067 16.0122 83.9283 16.0637C83.7499 16.1153 83.584 16.2032 83.4411 16.3217C83.2982 16.4403 83.1813 16.5871 83.0978 16.753C83.0142 16.9188 82.9657 17.1001 82.9554 17.2855H80.6011C80.758 15.1666 82.4296 14.2248 84.6113 14.2248C86.793 14.2248 88.3548 15.1116 88.3548 17.5366V23.3598H85.9455V22.2846C85.6431 22.7106 85.2354 23.051 84.7623 23.2724C84.2891 23.4939 83.7666 23.5889 83.2458 23.5481C81.6762 23.5481 80.2793 22.7633 80.2793 20.8877ZM85.9298 20.2363V19.4515H84.988C83.5519 19.4515 82.7121 19.7654 82.7121 20.715C82.7121 21.3664 83.1124 21.798 84.0149 21.798C85.1214 21.8294 85.9612 21.2251 85.9612 20.2363H85.9298Z" fill="#8C9498"/>
<path d="M90.0968 14.3974H92.5689V15.763C92.8384 15.2778 93.2351 14.8753 93.7164 14.5987C94.1976 14.3222 94.745 14.182 95.2999 14.1934C95.8295 14.151 96.3587 14.281 96.8084 14.5638C97.2581 14.8467 97.6044 15.2673 97.7956 15.763C98.1252 15.2707 98.5731 14.869 99.0983 14.5948C99.6234 14.3206 100.209 14.1826 100.801 14.1934C102.457 14.1934 103.736 15.2372 103.736 17.6072V23.3283H101.28V17.9133C101.28 16.7675 100.77 16.2574 99.8753 16.2574C99.6373 16.247 99.3998 16.2882 99.1792 16.3779C98.9585 16.4677 98.7599 16.6041 98.5967 16.7776C98.4336 16.9512 98.3098 17.158 98.2338 17.3837C98.1579 17.6095 98.1315 17.849 98.1566 18.0859V23.3597H95.6923V17.9133C95.6923 16.7675 95.1665 16.2574 94.2954 16.2574C94.0568 16.2459 93.8185 16.2861 93.5969 16.3754C93.3753 16.4647 93.1756 16.6008 93.0116 16.7745C92.8475 16.9483 92.723 17.1554 92.6466 17.3818C92.5702 17.6081 92.5437 17.8484 92.5689 18.0859V23.3597H90.0968V14.3974Z" fill="#8C9498"/>
<path d="M105.432 14.3975H107.912V15.8022C108.207 15.3109 108.625 14.9044 109.124 14.6225C109.623 14.3406 110.187 14.1927 110.76 14.1934C112.95 14.1934 114.684 15.8179 114.684 18.7687V18.91C114.684 21.8608 113.013 23.5167 110.76 23.5167C110.188 23.5402 109.619 23.4063 109.117 23.1296C108.615 22.8529 108.198 22.444 107.912 21.9471V26.4047H105.432V14.3975ZM112.142 18.7923C112.142 16.9794 111.255 16.0926 110.007 16.0926C108.759 16.0926 107.825 16.9951 107.825 18.7923V18.9257C107.825 20.715 108.681 21.5861 110.031 21.5861C111.38 21.5861 112.142 20.6758 112.142 18.9571V18.7923Z" fill="#8C9498"/>
<path fill-rule="evenodd" clip-rule="evenodd" d="M15.4636 6.89097C8.49977 6.89097 4.86807 12.7894 2.83468 18.5546C2.58888 19.2515 1.82465 19.6172 1.12774 19.3714C0.629272 19.1956 0.300249 18.7546 0.243226 18.2627C0.220524 18.0668 0.240934 17.8629 0.310928 17.6645C2.37413 11.8148 6.59033 4.21484 15.4636 4.21484C20.1016 4.21484 23.4213 7.28319 25.5684 10.9694C27.721 14.6653 28.8687 19.2417 29.1274 22.9367C29.146 23.2023 29.0849 23.4674 28.952 23.6981C27.7086 25.8565 25.64 27.2631 23.2821 28.1246C20.93 28.984 18.2054 29.335 15.4743 29.3359C13.154 29.3721 10.8531 28.9078 8.72836 27.9744C6.60026 27.0396 4.69908 25.6563 3.15474 23.9192C2.8262 23.5496 2.72825 23.029 2.90003 22.5653L2.90103 22.5626L2.90295 22.5575L2.9095 22.54L2.93319 22.4775C2.95361 22.424 2.98323 22.3474 3.02138 22.2508C3.09764 22.0578 3.20832 21.7845 3.34826 21.4575C3.6269 20.8064 4.02722 19.9288 4.50809 19.0428C4.98265 18.1684 5.56619 17.2284 6.22243 16.4879C6.82067 15.8127 7.75055 14.9902 8.94075 14.9822L8.94982 14.9821C9.79084 14.9821 10.4817 15.3672 10.979 15.7374C11.4802 16.1105 11.9354 16.5847 12.3002 16.9708C12.3421 17.015 12.3828 17.0582 12.4224 17.1001C12.7621 17.4604 13.0219 17.7358 13.2687 17.9421C13.2965 17.9653 13.322 17.9857 13.3452 18.0038C13.4255 17.9217 13.5213 17.8142 13.6315 17.6775C14.0237 17.1913 14.4642 16.5065 14.8905 15.7732C15.3111 15.0497 15.694 14.3208 15.9731 13.7695C16.1122 13.4948 16.2245 13.2663 16.3015 13.1074C16.34 13.028 16.3697 12.9661 16.3895 12.9245L16.4116 12.878L16.4168 12.8669L16.4179 12.8645C16.7316 12.1955 17.5284 11.907 18.1975 12.2206C18.8666 12.5343 19.1548 13.331 18.8411 14.0001L18.8383 14.0062L18.8313 14.021L18.8056 14.0752C18.7833 14.122 18.7509 14.1895 18.7095 14.2749C18.6268 14.4456 18.5077 14.688 18.3607 14.9783C18.0677 15.5571 17.6594 16.3351 17.204 17.1183C16.7543 17.8919 16.2339 18.7138 15.7145 19.3577C15.4569 19.677 15.1649 19.9964 14.8492 20.2476C14.5701 20.4696 14.0778 20.7974 13.4467 20.7974C12.6122 20.7974 11.9546 20.3315 11.5527 19.9956C11.174 19.6791 10.7956 19.2768 10.4778 18.9389C10.4358 18.8943 10.3949 18.8508 10.3552 18.8088C9.97839 18.4101 9.67039 18.0995 9.38097 17.884C9.12732 17.6952 8.99782 17.6641 8.96062 17.6592C8.96062 17.6592 8.95796 17.6602 8.95561 17.661C8.9147 17.6754 8.66891 17.7621 8.22536 18.2627C7.76548 18.7817 7.29496 19.5182 6.86014 20.3193C6.43164 21.1088 6.06727 21.9058 5.80858 22.5104C5.77525 22.5882 5.74377 22.6627 5.71422 22.7333C6.89186 23.9067 8.2783 24.8538 9.80466 25.5243C11.5801 26.3042 13.5029 26.6915 15.4418 26.66L15.4636 26.6598C17.9948 26.6598 20.3908 26.3318 22.3637 25.611C24.1788 24.9478 25.5633 23.9813 26.424 22.6982C26.1323 19.4099 25.0849 15.4566 23.2559 12.3163C21.3416 9.0297 18.7441 6.89097 15.4636 6.89097ZM13.1253 18.1939C13.1253 18.1939 13.1311 18.1895 13.1423 18.1837C13.1308 18.1915 13.1253 18.1939 13.1253 18.1939Z" fill="#8C9498"/>
</g>
<defs>
<clipPath id="clip0_3526_309">
<rect width="114.552" height="33.3241" fill="white" transform="translate(0.234375)"/>
</clipPath>
</defs>
</svg>
