<svg width="38" height="27" viewBox="0 0 38 27" fill="none" xmlns="http://www.w3.org/2000/svg">
<path d="M23.8832 2.51846H13.8712V19.3572H23.8832V2.51846Z" fill="#FF5F00"/>
<path d="M14.5069 10.9378C14.5054 9.31613 14.898 7.71535 15.6552 6.25668C16.4123 4.79801 17.5142 3.51967 18.8772 2.51845C17.1893 1.2767 15.162 0.504471 13.0273 0.290032C10.8926 0.0755935 8.73642 0.427588 6.80533 1.3058C4.87424 2.18401 3.2461 3.553 2.10703 5.25628C0.967954 6.95957 0.363903 8.92843 0.363903 10.9378C0.363903 12.9472 0.967954 14.9161 2.10703 16.6194C3.2461 18.3227 4.87424 19.6916 6.80533 20.5699C8.73642 21.4481 10.8926 21.8001 13.0273 21.5856C15.162 21.3712 17.1893 20.599 18.8772 19.3572C17.5142 18.356 16.4124 17.0776 15.6552 15.619C14.898 14.1603 14.5054 12.5595 14.5069 10.9378Z" fill="#EB001B"/>
<path d="M37.39 10.9378C37.3901 12.9472 36.7861 14.916 35.6471 16.6193C34.5081 18.3226 32.88 19.6916 30.9489 20.5698C29.0179 21.448 26.8618 21.8001 24.727 21.5856C22.5923 21.3712 20.5652 20.599 18.8772 19.3572C20.2391 18.355 21.3401 17.0764 22.0971 15.618C22.8541 14.1595 23.2475 12.5593 23.2475 10.9378C23.2475 9.31639 22.8541 7.71611 22.0971 6.25767C21.3401 4.79922 20.2391 3.52069 18.8772 2.51845C20.5652 1.2767 22.5923 0.504465 24.727 0.290029C26.8618 0.0755934 29.0179 0.427603 30.9489 1.30582C32.88 2.18404 34.5081 3.55303 35.6471 5.25632C36.7861 6.9596 37.3901 8.92845 37.39 10.9378Z" fill="#F79E1B"/>
<path d="M36.2983 17.5737V17.229H36.4469V17.1587H36.0686V17.229H36.2172V17.5737H36.2983ZM37.0327 17.5737V17.1581H36.9168L36.7834 17.444L36.65 17.1581H36.534V17.5737H36.6159V17.2602L36.7409 17.5305H36.8258L36.9509 17.2595V17.5737H37.0327Z" fill="#F79E1B"/>
<path d="M4.53691 26.1877V23.532H5.0671V23.9642H5.1022C5.16132 23.8179 5.258 23.7038 5.39224 23.6219C5.52648 23.5389 5.6872 23.4974 5.8744 23.4974C6.06406 23.4974 6.22293 23.5389 6.35102 23.6219C6.48033 23.7049 6.57578 23.819 6.63736 23.9642H6.66692C6.73465 23.8225 6.84242 23.7095 6.9902 23.6254C7.13799 23.5401 7.31411 23.4974 7.51855 23.4974C7.77595 23.4974 7.98593 23.5729 8.1485 23.7239C8.3123 23.8749 8.3942 24.1026 8.3942 24.4069V26.1877H7.84184V24.4553C7.84184 24.2755 7.78949 24.1452 7.68481 24.0645C7.58013 23.9838 7.45512 23.9435 7.3098 23.9435C7.12999 23.9435 6.9902 23.9954 6.89045 24.0991C6.79069 24.2017 6.74081 24.3337 6.74081 24.495V26.1877H6.1903V24.4224C6.1903 24.2783 6.14227 24.1625 6.0462 24.0749C5.95014 23.9873 5.82514 23.9435 5.67119 23.9435C5.56651 23.9435 5.46983 23.9694 5.38115 24.0213C5.29371 24.072 5.2229 24.1429 5.16871 24.234C5.11575 24.325 5.08927 24.4305 5.08927 24.5504V26.1877H4.53691Z" fill="black"/>
<path d="M9.9603 26.2465C9.78049 26.2465 9.61792 26.2154 9.47259 26.1531C9.32727 26.0897 9.21212 25.9981 9.12714 25.8782C9.04339 25.7583 9.00152 25.6114 9.00152 25.4373C9.00152 25.2875 9.03231 25.1641 9.09388 25.0673C9.15546 24.9705 9.23859 24.8939 9.34328 24.8374C9.44796 24.7809 9.56496 24.7382 9.69428 24.7094C9.82359 24.6806 9.95537 24.6587 10.0896 24.6437C10.2596 24.6253 10.3975 24.6103 10.5034 24.5988C10.6093 24.5861 10.6863 24.5659 10.7343 24.5383C10.7824 24.5106 10.8064 24.4656 10.8064 24.4034V24.3913C10.8064 24.2403 10.7608 24.1233 10.6697 24.0403C10.5798 23.9573 10.4455 23.9158 10.267 23.9158C10.081 23.9158 9.93443 23.9544 9.82729 24.0317C9.72137 24.1078 9.64809 24.1925 9.60745 24.2858L9.08834 24.1752C9.14992 24.0138 9.23983 23.8836 9.35806 23.7844C9.47752 23.6842 9.61484 23.6115 9.77002 23.5666C9.9252 23.5205 10.0884 23.4974 10.2596 23.4974C10.3729 23.4974 10.493 23.5101 10.6198 23.5355C10.7479 23.5597 10.8673 23.6046 10.9782 23.6703C11.0903 23.736 11.182 23.83 11.2534 23.9521C11.3249 24.0732 11.3606 24.2305 11.3606 24.4242V26.1877H10.8212V25.8246H10.799C10.7633 25.8915 10.7097 25.9572 10.6383 26.0217C10.5668 26.0863 10.4751 26.1399 10.363 26.1825C10.2509 26.2252 10.1167 26.2465 9.9603 26.2465ZM10.0804 25.8315C10.2331 25.8315 10.3636 25.8033 10.472 25.7468C10.5816 25.6903 10.6648 25.6166 10.7214 25.5255C10.7793 25.4333 10.8082 25.3347 10.8082 25.2298V24.8875C10.7885 24.906 10.7503 24.9232 10.6937 24.9394C10.6383 24.9544 10.5749 24.9676 10.5034 24.9791C10.432 24.9895 10.3624 24.9993 10.2947 25.0085C10.2269 25.0166 10.1703 25.0235 10.1247 25.0293C10.0176 25.042 9.91965 25.0633 9.83098 25.0933C9.74354 25.1232 9.67334 25.1665 9.62038 25.2229C9.56866 25.2783 9.54279 25.352 9.54279 25.4442C9.54279 25.5722 9.59329 25.669 9.69428 25.7347C9.79527 25.7992 9.92396 25.8315 10.0804 25.8315Z" fill="black"/>
<path d="M14.2226 24.1804L13.722 24.2634C13.701 24.2034 13.6678 24.1464 13.6222 24.0922C13.5779 24.038 13.5175 23.9936 13.4412 23.9591C13.3648 23.9245 13.2694 23.9072 13.1548 23.9072C12.9984 23.9072 12.8679 23.94 12.7632 24.0057C12.6585 24.0703 12.6062 24.1539 12.6062 24.2564C12.6062 24.3452 12.6413 24.4167 12.7115 24.4708C12.7817 24.525 12.895 24.5694 13.0514 24.604L13.5021 24.7008C13.7632 24.7573 13.9578 24.8443 14.0859 24.9619C14.214 25.0794 14.278 25.2322 14.278 25.42C14.278 25.5791 14.2288 25.7209 14.1302 25.8454C14.033 25.9687 13.8969 26.0655 13.722 26.1358C13.5483 26.2061 13.347 26.2413 13.1179 26.2413C12.8001 26.2413 12.5409 26.1779 12.3402 26.0511C12.1394 25.9232 12.0163 25.7416 11.9707 25.5065L12.5046 25.4304C12.5378 25.5607 12.6062 25.6592 12.7096 25.7261C12.8131 25.7918 12.9479 25.8246 13.1142 25.8246C13.2952 25.8246 13.44 25.7895 13.5483 25.7191C13.6567 25.6477 13.7109 25.5607 13.7109 25.4581C13.7109 25.3751 13.6776 25.3053 13.6111 25.2489C13.5459 25.1924 13.4455 25.1497 13.31 25.1209L12.8297 25.0224C12.5649 24.9659 12.3691 24.876 12.2422 24.7527C12.1166 24.6293 12.0538 24.4731 12.0538 24.2841C12.0538 24.1273 12.1006 23.9902 12.1942 23.8726C12.2878 23.755 12.4171 23.6634 12.5822 23.5977C12.7472 23.5309 12.9362 23.4974 13.1493 23.4974C13.456 23.4974 13.6973 23.5597 13.8735 23.6842C14.0496 23.8075 14.166 23.9729 14.2226 24.1804Z" fill="black"/>
<path d="M16.2099 23.532V23.947H14.66V23.532H16.2099ZM15.0756 22.8958H15.628V25.4079C15.628 25.5082 15.644 25.5837 15.676 25.6344C15.708 25.684 15.7493 25.718 15.7998 25.7364C15.8515 25.7537 15.9076 25.7624 15.9679 25.7624C16.0122 25.7624 16.051 25.7595 16.0843 25.7537C16.1175 25.748 16.1434 25.7433 16.1619 25.7399L16.2616 26.1669C16.2296 26.1785 16.184 26.19 16.1249 26.2015C16.0658 26.2142 15.9919 26.2211 15.9033 26.2223C15.7579 26.2246 15.6225 26.2004 15.4968 26.1497C15.3712 26.0989 15.2696 26.0206 15.192 25.9145C15.1144 25.8085 15.0756 25.6753 15.0756 25.5151V22.8958Z" fill="black"/>
<path d="M18.0134 26.2413C17.7338 26.2413 17.4931 26.1854 17.2911 26.0736C17.0903 25.9606 16.9352 25.8021 16.8255 25.5981C16.7172 25.3929 16.663 25.1526 16.663 24.8771C16.663 24.6051 16.7172 24.3654 16.8255 24.1579C16.9352 23.9504 17.0879 23.7885 17.2837 23.6721C17.4807 23.5556 17.711 23.4974 17.9746 23.4974C18.1347 23.4974 18.2899 23.5222 18.4401 23.5718C18.5904 23.6213 18.7252 23.6991 18.8447 23.8052C18.9642 23.9112 19.0584 24.049 19.1274 24.2184C19.1963 24.3867 19.2308 24.5913 19.2308 24.8322V25.0155H16.9752V24.6282H18.6895C18.6895 24.4922 18.66 24.3717 18.6009 24.2668C18.5417 24.1608 18.4586 24.0772 18.3515 24.0161C18.2455 23.955 18.1212 23.9245 17.9783 23.9245C17.8231 23.9245 17.6876 23.9602 17.5719 24.0317C17.4573 24.102 17.3687 24.1942 17.3059 24.3083C17.2443 24.4213 17.2135 24.544 17.2135 24.6766V24.9791C17.2135 25.1567 17.2467 25.3076 17.3132 25.4321C17.381 25.5566 17.4752 25.6517 17.5959 25.7174C17.7166 25.782 17.8576 25.8142 18.0189 25.8142C18.1236 25.8142 18.2191 25.8004 18.3053 25.7727C18.3915 25.7439 18.466 25.7013 18.5288 25.6448C18.5916 25.5883 18.6397 25.5186 18.6729 25.4356L19.1957 25.5238C19.1538 25.6678 19.0787 25.7941 18.9703 25.9024C18.8632 26.0096 18.7283 26.0932 18.5658 26.1531C18.4044 26.2119 18.2203 26.2413 18.0134 26.2413Z" fill="black"/>
<path d="M19.8437 26.1877V23.532H20.3776V23.9539H20.4071C20.4588 23.8109 20.55 23.6986 20.6805 23.6167C20.8123 23.5337 20.9613 23.4922 21.1276 23.4922C21.1621 23.4922 21.2027 23.4934 21.2495 23.4957C21.2975 23.498 21.3351 23.5009 21.3622 23.5043V23.9988C21.34 23.9931 21.3006 23.9867 21.244 23.9798C21.1873 23.9717 21.1307 23.9677 21.074 23.9677C20.9435 23.9677 20.8271 23.9936 20.7249 24.0455C20.6239 24.0962 20.5438 24.1671 20.4847 24.2582C20.4256 24.3481 20.396 24.4507 20.396 24.5659V26.1877H19.8437Z" fill="black"/>
<path d="M22.9338 26.2413C22.6592 26.2413 22.4227 26.1831 22.2245 26.0667C22.0274 25.9491 21.8759 25.7871 21.77 25.5808C21.6641 25.3745 21.6111 25.1382 21.6111 24.872C21.6111 24.6022 21.6653 24.3642 21.7737 24.1579C21.8821 23.9504 22.0348 23.7885 22.2318 23.6721C22.4289 23.5556 22.661 23.4974 22.9283 23.4974C23.1438 23.4974 23.3359 23.5349 23.5047 23.6098C23.6734 23.6836 23.8095 23.7873 23.9129 23.921C24.0176 24.0547 24.0798 24.2109 24.0995 24.3896H23.5619C23.5324 24.2651 23.4646 24.1579 23.3587 24.068C23.254 23.9781 23.1136 23.9331 22.9375 23.9331C22.7836 23.9331 22.6487 23.9712 22.533 24.0472C22.4184 24.1222 22.3291 24.2294 22.2651 24.3688C22.2011 24.5071 22.169 24.6708 22.169 24.8598C22.169 25.0535 22.2004 25.2206 22.2632 25.3612C22.3261 25.5019 22.4147 25.6108 22.5293 25.688C22.645 25.7652 22.7811 25.8039 22.9375 25.8039C23.0422 25.8039 23.137 25.786 23.222 25.7503C23.3082 25.7134 23.3803 25.6609 23.4382 25.5929C23.4973 25.5249 23.5385 25.4431 23.5619 25.3474H24.0995C24.0798 25.5192 24.0201 25.6725 23.9203 25.8073C23.8206 25.9422 23.6869 26.0482 23.5195 26.1254C23.3532 26.2027 23.158 26.2413 22.9338 26.2413Z" fill="black"/>
<path d="M25.516 26.2465C25.3362 26.2465 25.1736 26.2154 25.0283 26.1531C24.883 26.0897 24.7678 25.9981 24.6828 25.8782C24.5991 25.7583 24.5572 25.6114 24.5572 25.4373C24.5572 25.2875 24.588 25.1641 24.6496 25.0673C24.7112 24.9705 24.7943 24.8939 24.899 24.8374C25.0036 24.7809 25.1206 24.7382 25.25 24.7094C25.3793 24.6806 25.5111 24.6587 25.6453 24.6437C25.8153 24.6253 25.9532 24.6103 26.0591 24.5988C26.165 24.5861 26.242 24.5659 26.29 24.5383C26.3381 24.5106 26.3621 24.4656 26.3621 24.4034V24.3913C26.3621 24.2403 26.3165 24.1233 26.2254 24.0403C26.1355 23.9573 26.0012 23.9158 25.8226 23.9158C25.6367 23.9158 25.4901 23.9544 25.383 24.0317C25.2771 24.1078 25.2038 24.1925 25.1631 24.2858L24.644 24.1752C24.7056 24.0138 24.7955 23.8836 24.9137 23.7844C25.0332 23.6842 25.1705 23.6115 25.3257 23.5666C25.4809 23.5205 25.6441 23.4974 25.8153 23.4974C25.9286 23.4974 26.0486 23.5101 26.1755 23.5355C26.3036 23.5597 26.423 23.6046 26.5339 23.6703C26.646 23.736 26.7377 23.83 26.8091 23.9521C26.8806 24.0732 26.9163 24.2305 26.9163 24.4242V26.1877H26.3769V25.8246H26.3547C26.319 25.8915 26.2654 25.9572 26.194 26.0217C26.1225 26.0863 26.0308 26.1399 25.9187 26.1825C25.8066 26.2252 25.6724 26.2465 25.516 26.2465ZM25.6361 25.8315C25.7888 25.8315 25.9193 25.8033 26.0277 25.7468C26.1373 25.6903 26.2204 25.6166 26.2771 25.5255C26.335 25.4333 26.3639 25.3347 26.3639 25.2298V24.8875C26.3442 24.906 26.306 24.9232 26.2494 24.9394C26.194 24.9544 26.1305 24.9676 26.0591 24.9791C25.9877 24.9895 25.9181 24.9993 25.8504 25.0085C25.7826 25.0166 25.726 25.0235 25.6804 25.0293C25.5733 25.042 25.4753 25.0633 25.3867 25.0933C25.2992 25.1232 25.229 25.1665 25.1761 25.2229C25.1243 25.2783 25.0985 25.352 25.0985 25.4442C25.0985 25.5722 25.149 25.669 25.25 25.7347C25.351 25.7992 25.4797 25.8315 25.6361 25.8315Z" fill="black"/>
<path d="M27.652 26.1877V23.532H28.1859V23.9539H28.2154C28.2672 23.8109 28.3583 23.6986 28.4888 23.6167C28.6206 23.5337 28.7696 23.4922 28.9359 23.4922C28.9704 23.4922 29.011 23.4934 29.0578 23.4957C29.1059 23.498 29.1434 23.5009 29.1705 23.5043V23.9988C29.1484 23.9931 29.1089 23.9867 29.0523 23.9798C28.9956 23.9717 28.939 23.9677 28.8823 23.9677C28.7518 23.9677 28.6354 23.9936 28.5332 24.0455C28.4322 24.0962 28.3521 24.1671 28.293 24.2582C28.2339 24.3481 28.2044 24.4507 28.2044 24.5659V26.1877H27.652Z" fill="black"/>
<path d="M30.6092 26.2396C30.3801 26.2396 30.1756 26.1848 29.9958 26.0753C29.8173 25.9647 29.6769 25.8073 29.5746 25.6033C29.4736 25.3981 29.4231 25.152 29.4231 24.865C29.4231 24.578 29.4743 24.3325 29.5765 24.1285C29.6799 23.9245 29.8216 23.7683 30.0014 23.66C30.1812 23.5516 30.385 23.4974 30.6128 23.4974C30.789 23.4974 30.9306 23.5251 31.0377 23.5804C31.1461 23.6346 31.2299 23.698 31.289 23.7706C31.3493 23.8432 31.3961 23.9072 31.4294 23.9625H31.4626V22.6468H32.015V26.1877H31.4756V25.7745H31.4294C31.3961 25.8309 31.3481 25.8955 31.2853 25.9681C31.2237 26.0407 31.1387 26.1041 31.0304 26.1583C30.922 26.2125 30.7816 26.2396 30.6092 26.2396ZM30.7311 25.7987C30.89 25.7987 31.0242 25.7595 31.1338 25.6811C31.2446 25.6016 31.3284 25.4915 31.385 25.3509C31.4429 25.2103 31.4719 25.0466 31.4719 24.8598C31.4719 24.6754 31.4435 24.5141 31.3869 24.3757C31.3302 24.2374 31.2471 24.1297 31.1375 24.0524C31.0279 23.9752 30.8924 23.9366 30.7311 23.9366C30.5648 23.9366 30.4263 23.9769 30.3154 24.0576C30.2046 24.1383 30.1208 24.2484 30.0642 24.3878C30.0088 24.5273 29.9811 24.6846 29.9811 24.8598C29.9811 25.0374 30.0094 25.197 30.066 25.3388C30.1227 25.4805 30.2064 25.5929 30.3173 25.6759C30.4293 25.7578 30.5673 25.7987 30.7311 25.7987Z" fill="black"/>
</svg>
