<svg width="50" height="16" viewBox="0 0 50 16" fill="none" xmlns="http://www.w3.org/2000/svg">
<path d="M24.4233 0.831019L21.1583 15.7225H17.2102L20.4757 0.831019H24.4233ZM41.0345 10.4465L43.1131 4.85424L44.3092 10.4465H41.0345ZM45.4395 15.7225H49.0915L45.9047 0.831019H42.5339C41.7765 0.831019 41.1374 1.26087 40.8528 1.92355L34.9295 15.7225H39.0756L39.8988 13.4988H44.9642L45.4395 15.7225ZM35.1353 10.8603C35.1522 6.92995 29.5646 6.71361 29.6032 4.95793C29.6148 4.42298 30.137 3.8555 31.2775 3.70986C31.8442 3.63775 33.402 3.58261 35.171 4.37679L35.8637 1.21892C34.9136 0.882394 33.6909 0.558594 32.1702 0.558594C28.268 0.558594 25.5213 2.58293 25.4981 5.48157C25.4735 7.62515 27.4589 8.82137 28.9549 9.53401C30.493 10.2641 31.0099 10.7316 31.0031 11.3844C30.993 12.3841 29.7762 12.8243 28.641 12.8418C26.6556 12.8724 25.5034 12.3191 24.5851 11.9015L23.8697 15.1644C24.7919 15.5778 26.4947 15.9369 28.2613 15.9553C32.4084 15.9553 35.1218 13.956 35.1353 10.8603ZM18.7816 0.831019L12.3849 15.7225H8.21069L5.06304 3.83806C4.87175 3.1061 4.70557 2.83839 4.12444 2.52967C3.17619 2.02771 1.60864 1.55591 0.229492 1.26369L0.32369 0.831019H7.04167C7.89767 0.831019 8.66815 1.38718 8.86234 2.34915L10.5251 10.9668L14.6335 0.831019H18.7816Z" fill="#1434CB"/>
</svg>
