<svg xmlns="http://www.w3.org/2000/svg" version="1.1" xmlns:xlink="http://www.w3.org/1999/xlink" xmlns:svgjs="http://svgjs.dev/svgjs" width="1000" height="1000"><g clip-path="url(#SvgjsClipPath1114)"><rect width="1000" height="1000" fill="#ffffff"></rect><g transform="matrix(16.071428571428573,0,0,16.071428571428573,49.99999999999994,226.78571428571428)"><svg xmlns="http://www.w3.org/2000/svg" version="1.1" xmlns:xlink="http://www.w3.org/1999/xlink" xmlns:svgjs="http://svgjs.dev/svgjs" width="56" height="34"><svg width="56" height="34" viewBox="0 0 56 34" fill="none" xmlns="http://www.w3.org/2000/svg">
<path d="M49.595 16.9874C49.5955 14.1533 48.4806 11.4329 46.4915 9.4141C44.5023 7.39534 41.7986 6.24045 38.9648 6.19905V0.00463867C43.4379 0.0534164 47.7111 1.86454 50.8569 5.04482C54.0027 8.22511 55.7671 12.5179 55.7671 16.9911C55.7671 21.4644 54.0027 25.7572 50.8569 28.9374C47.7111 32.1177 43.4379 33.9288 38.9648 33.9776V27.7832C41.7998 27.7413 44.5043 26.5852 46.4935 24.565C48.4828 22.5447 49.5969 19.8227 49.595 16.9874Z" fill="black"></path>
<path d="M36.6867 27.7691V33.977H19.2784C19.1181 33.977 18.9579 33.9748 18.7976 33.9703V27.7691H18.8043C18.9599 27.7759 19.1201 27.7799 19.2757 27.7799C19.4312 27.7799 19.5726 27.7799 19.72 27.7691C22.5428 27.6554 25.2083 26.4392 27.1442 24.3818C29.0801 22.3243 30.1319 19.5897 30.0737 16.7653C30.0155 13.9408 28.852 11.2519 26.833 9.27588C24.8141 7.29989 22.1007 6.1945 19.2757 6.19711C19.1154 6.19711 18.9531 6.20115 18.7949 6.20788V0.00605642C18.9552 0.00201659 19.1154 0 19.2757 0C22.4938 0.000708374 25.6456 0.915379 28.3641 2.63755C31.0827 4.35973 33.2563 6.81858 34.6318 9.72792C36.0074 12.6373 36.5284 15.8775 36.1342 19.0714C35.74 22.2653 34.4468 25.2816 32.4051 27.7691H36.6867Z" fill="#0FA85C"></path>
<path d="M6.20702 16.9875C6.20608 19.7669 7.27807 22.4394 9.19946 24.4478C11.1208 26.4561 13.7433 27.6452 16.52 27.7672V33.9683C12.0974 33.8469 7.89668 32.0047 4.81145 28.8336C1.72622 25.6625 0 21.4128 0 16.9885C0 12.5643 1.72622 8.31454 4.81145 5.14346C7.89668 1.97238 12.0974 0.130195 16.52 0.00878906V6.20993C13.7438 6.33238 11.1219 7.52136 9.20072 9.52915C7.27948 11.5369 6.2071 14.2086 6.20702 16.9875Z" fill="black"></path>
</svg></svg></g></g><defs><clipPath id="SvgjsClipPath1114"><rect width="1000" height="1000" x="0" y="0" rx="250" ry="250"></rect></clipPath></defs></svg>